<svg xmlns="http://www.w3.org/2000/svg" xmlns:xlink="http://www.w3.org/1999/xlink" version="1.1" id="Layer_1" x="0px" y="0px" viewBox="0 0 272 50" style="enable-background:new 0 0 272 50;" xml:space="preserve">
<style type="text/css">
	.st0{fill-rule:evenodd;clip-rule:evenodd;fill:white;}
	.st1{fill-rule:evenodd;clip-rule:evenodd;fill:white;}
</style>
    <title>iamo-white</title>
    <path class="st0" d="M134,6.8h2.6v25.5H134V6.8z M267.9,0H132.6c-2.3,0-4.1,1.8-4.1,4.1V35c0,2.3,1.8,4.1,4.1,4.1H217V6.8h5.1  c1.9-0.1,3.9,0.1,5.8,0.3c1.5,0.3,2.8,1.1,3.7,2.2c1,1.2,1.5,2.7,1.4,4.2c0,1.3-0.3,2.6-1,3.7c-0.7,1.1-1.6,1.9-2.8,2.4  c-1.6,0.6-3.3,0.9-5,0.8l9.2,11.9h-3.1L221,20.4h-1.5V50l13.5-10.9h34.8c2.3,0,4.1-1.8,4.1-4.1c0,0,0,0,0,0V4.1  C272,1.8,270.1,0,267.9,0C267.9,0,267.9,0,267.9,0z M142.5,32.3V6.8h0.5l17,19.5V6.8h2.6v25.5H162l-16.9-19.3v19.3L142.5,32.3z   M168.7,6.8h12.8v2.5h-10.2v8h10.2v2.5h-10.2v12.5h-2.6V6.8z M198.1,6.1c7.4-0.1,13.4,5.9,13.5,13.3c0.1,7.4-5.9,13.4-13.3,13.5  c-3.6,0.1-7.1-1.3-9.6-3.9c-2.5-2.5-4-5.9-3.9-9.4c0-2.4,0.6-4.7,1.8-6.8C189,8.7,193.4,6.1,198.1,6.1L198.1,6.1z M198.3,8.6  c1.9,0,3.8,0.5,5.5,1.5c1.7,0.9,3,2.3,4,3.9c0.9,1.7,1.4,3.6,1.4,5.5c0,1.9-0.5,3.8-1.4,5.5c-0.9,1.7-2.3,3-4,3.9  c-1.7,1-3.6,1.5-5.5,1.4c-5.9,0-10.7-4.8-10.8-10.7c0,0,0,0,0,0v-0.1c0-1.9,0.5-3.9,1.4-5.6C190.8,10.7,194.4,8.6,198.3,8.6  L198.3,8.6z M219.6,9.3h4.5c1.3-0.1,2.5,0.1,3.8,0.4c0.8,0.3,1.4,0.8,1.8,1.5c0.5,0.7,0.7,1.5,0.7,2.3c0,0.8-0.2,1.7-0.7,2.4  c-0.5,0.7-1.1,1.2-1.9,1.6c-1.2,0.4-2.5,0.6-3.8,0.5h-4.4L219.6,9.3L219.6,9.3z M237.4,32.3l3.5-25.5h0.5l10.4,20.9l10.3-20.9h0.4  l3.7,25.5h-2.5L261.1,14l-9,18.3h-0.7l-9.1-18.4l-2.4,18.4H237.4z"/>
    <path class="st1" d="M115.5,20.2v-9.1c-4.4-0.4-6-0.1-6.9,0.8c-0.4,0.5-0.6,1.2-0.6,2.9v2c-0.3,1.6,0.8,3.2,2.4,3.5h0.2  c0.3,0.1,0.7,0.1,1,0.1c0.4,0,1.4,0,2.3-0.1C114.5,20.3,115,20.3,115.5,20.2L115.5,20.2z M112.6,25.2c-1.5,0.3-2.7,1.4-3.2,2.8  c-0.5,1.1-1,2.2-1.4,3.2c-0.2,0.5-0.5,1.1-0.6,1.6h-7c0.4-0.9,0.7-1.8,1-2.6c0.5-1.3,1.1-2.7,1.3-3.2c0.7-1.6,2-2.9,3.6-3.6  c-1.3-0.5-2.4-1.4-3.1-2.6c-0.8-1.4-1.2-3-1.1-4.6v-1.2c-0.1-1.9,0.3-3.8,1.1-5.6c1.4-2.4,3.4-3.5,7.5-3.5c3.4,0,6.3,0.1,8.3,0.1  c1.2,0,2.3,0,3.2,0.1v26.6h-6.7V25c-0.3,0-0.6,0-0.8,0C114,25,113.3,25.1,112.6,25.2L112.6,25.2z M97,6.2h-6.8v26.7H97V6.2L97,6.2z   M87.3,32.9l-4-26.7H73.1l-3.6,12.7L66,6.2H55.6l-4,26.6l7.7,0.1l2.3-18.8L67,32.9h5L77.4,14l2.3,18.8H87.3z M42.9,14.6V17  c0,1.7-0.3,2.2-0.8,2.7s-1.5,1-6.5,0.4v-9.1c4.4-0.4,5.9-0.1,6.7,0.7C42.6,12.3,42.9,12.9,42.9,14.6z M47.9,9.6  c-1.3-2.4-3.5-3.5-7.5-3.5c-3.4,0-6.2,0.1-8.3,0.1c-1.2,0-2.2,0-3.2,0.1v26.6h6.7v-7.8l2,0.2c0.9,0.1,1.9,0.1,2.8,0.1  c4.4,0,6.7-1.4,8-4.3c0.5-1.5,0.7-3.1,0.6-4.7v-1.2C49.1,13.3,48.7,11.4,47.9,9.6z M16.9,23.9H10l3.4-11.4L16.9,23.9L16.9,23.9z   M26.9,32.9L17.3,6.2H9.7L0,32.9h7.5l1.2-4.1h9.3l1.2,4.1L26.9,32.9z"/>
</svg>
