<svg width="266" height="37" viewBox="0 0 266 37" fill="none" xmlns="http://www.w3.org/2000/svg">
<path d="M3.35099 31.5375H0V6.05868H11.2527C12.8054 6.01249 14.3449 6.3556 15.731 7.05674C16.9128 7.67069 17.8917 8.61361 18.5494 9.77166C19.1987 10.9266 19.5322 12.2322 19.5164 13.557C19.524 14.8665 19.185 16.1546 18.5338 17.2907C17.8616 18.4597 16.8694 19.4124 15.6741 20.0366C14.3114 20.7496 12.7902 21.1055 11.2527 21.0709H3.35099V31.5375ZM10.9579 17.8854C12.2588 17.9406 13.5384 17.5421 14.5778 16.758C15.0406 16.3671 15.4063 15.874 15.6459 15.3176C15.8855 14.7612 15.9926 14.1567 15.9586 13.5519C15.9981 12.9473 15.8963 12.3419 15.6611 11.7835C15.4259 11.2252 15.0639 10.7294 14.6037 10.3353C13.5661 9.54711 12.2856 9.14649 10.9838 9.20282H3.35099V17.8906L10.9579 17.8854Z" fill="white"/>
<path d="M26.7717 6.05872V28.3779H42.058V31.5376H23.4414V6.05872H26.7717Z" fill="white"/>
<path d="M54.2313 6.05872H58.8855L69.559 31.5376H65.846L63.2242 25.058H49.8978L47.2398 31.5376H43.563L54.2313 6.05872ZM61.9882 22.0069L56.5584 8.71675L51.0975 22.0069H61.9882Z" fill="white"/>
<path d="M88.7858 9.22354H79.3534V31.5376H76.0179V9.22354H66.5752V6.05872H88.7858V9.22354Z" fill="white"/>
<path d="M110.303 6.05872V9.22354H95.8237V17.5286H109.186V20.6779H95.8495V31.5376H92.4985V6.05872H110.303Z" fill="white"/>
<path d="M119.343 30.1621C117.372 29.0305 115.743 27.3888 114.626 25.4097C113.481 23.3969 112.891 21.1164 112.915 18.8008C112.891 16.4852 113.481 14.2046 114.626 12.1919C115.741 10.2117 117.371 8.56962 119.343 7.43949C121.397 6.29138 123.712 5.6886 126.065 5.6886C128.419 5.6886 130.733 6.29138 132.788 7.43949C134.76 8.57491 136.393 10.2154 137.52 12.1919C138.676 14.2011 139.274 16.4828 139.252 18.8008C139.274 21.1188 138.676 23.4005 137.52 25.4097C136.391 27.3851 134.759 29.0253 132.788 30.1621C130.733 31.3102 128.419 31.913 126.065 31.913C123.712 31.913 121.397 31.3102 119.343 30.1621V30.1621ZM130.957 27.504C132.426 26.688 133.637 25.4771 134.453 24.0083C135.325 22.4134 135.766 20.6183 135.73 18.8008C135.761 16.9838 135.321 15.1899 134.453 13.5933C133.652 12.1259 132.453 10.9142 130.994 10.0975C129.476 9.28633 127.781 8.86193 126.06 8.86193C124.339 8.86193 122.645 9.28633 121.127 10.0975C119.662 10.9155 118.461 12.1357 117.667 13.614C116.808 15.2186 116.375 17.0171 116.411 18.837C116.374 20.654 116.812 22.4491 117.683 24.0445C118.491 25.5083 119.698 26.7131 121.163 27.5196C122.669 28.3257 124.352 28.7476 126.06 28.7476C127.769 28.7476 129.451 28.3257 130.957 27.5196V27.504Z" fill="white"/>
<path d="M159.482 31.5377C159.163 30.8586 158.948 30.135 158.846 29.3916C158.686 28.1725 158.607 26.9443 158.608 25.7148C158.608 23.8945 158.153 22.612 157.315 21.8725C156.477 21.1331 154.978 20.7607 153.354 20.7607H146.688V31.5377H143.342V6.05879H154.993C156.496 6.01954 157.986 6.33675 159.342 6.98445C160.496 7.53937 161.468 8.41103 162.145 9.49769C162.788 10.5421 163.123 11.7465 163.112 12.9728C163.153 14.431 162.691 15.8588 161.804 17.0167C160.855 18.1322 159.645 18.9956 158.282 19.53C159.47 19.9404 160.5 20.7104 161.23 21.7329C161.976 22.9401 162.356 24.3374 162.326 25.7562C162.341 26.8667 162.438 27.9746 162.616 29.071C162.752 29.8054 163.092 30.4866 163.598 31.036V31.5532L159.482 31.5377ZM154.704 17.5752C155.993 17.6506 157.267 17.2556 158.287 16.4634C158.721 16.081 159.062 15.6056 159.286 15.0729C159.51 14.5401 159.61 13.9636 159.58 13.3865C159.615 12.8051 159.516 12.2234 159.292 11.6858C159.068 11.1481 158.724 10.6686 158.287 10.2837C157.261 9.50517 155.99 9.11829 154.704 9.19258H146.688V17.57L154.704 17.5752Z" fill="white"/>
<path d="M233.452 31.5376V7.84281L225.876 31.5376H220.777L213.238 7.84281V31.5376H209.887V6.05872H216.092L223.332 29.0347L230.572 6.05872H236.777V31.5376H233.452Z" fill="white"/>
<path d="M250.672 6.05872H255.326L266 31.5376H262.287L259.665 25.058H246.339L243.681 31.5376H240.004L250.672 6.05872ZM258.429 22.0069L253.004 8.71675L247.538 22.0069H258.429Z" fill="white"/>
<path d="M202.631 18.2423C202.604 18.2121 202.575 18.1844 202.543 18.1595C202.546 18.1355 202.546 18.1112 202.543 18.0871C202.561 17.9775 202.561 17.8658 202.543 17.7562C202.543 17.7044 202.543 17.6527 202.543 17.6062C202.541 17.5856 202.541 17.5647 202.543 17.5441C202.543 17.4562 202.543 17.3631 202.543 17.2752V17.1511C202.543 17.0806 202.529 17.0107 202.502 16.9458C202.474 16.8809 202.434 16.8223 202.383 16.7736C202.376 16.5844 202.307 16.4027 202.186 16.2565C202.192 16.0667 202.126 15.8817 202 15.7394C202.003 15.5343 201.966 15.3306 201.891 15.1395C201.863 15.0583 201.815 14.9854 201.752 14.9275V14.8137C201.74 14.6993 201.691 14.592 201.612 14.5086L201.529 14.1104C201.513 14.037 201.481 13.9679 201.436 13.9081C201.39 13.8482 201.332 13.799 201.266 13.7639C201.208 13.3392 200.985 12.9544 200.645 12.6935C200.648 12.666 200.648 12.6382 200.645 12.6107C200.621 12.524 200.583 12.4418 200.531 12.3677C200.534 12.2696 200.514 12.1722 200.474 12.0827C200.433 11.9932 200.374 11.9139 200.299 11.8506V11.8506C200.26 11.7228 200.193 11.6052 200.104 11.506C200.015 11.4068 199.905 11.3284 199.782 11.2766C199.782 11.2766 199.782 11.2507 199.782 11.2352C199.755 11.1933 199.726 11.1536 199.694 11.1162C199.645 10.935 199.552 10.7687 199.422 10.6324C199.293 10.4961 199.132 10.3941 198.954 10.3354C198.929 10.3136 198.907 10.2893 198.887 10.263C198.822 10.1847 198.749 10.1137 198.67 10.051C198.631 9.97663 198.6 9.89869 198.577 9.81825C198.545 9.73714 198.508 9.65775 198.468 9.58037C198.421 9.49656 198.352 9.42748 198.268 9.3809C198.184 9.33431 198.088 9.31206 197.992 9.31664C197.961 9.17112 197.885 9.03904 197.775 8.93914C197.708 8.87714 197.629 8.82962 197.542 8.79951C197.482 8.71367 197.394 8.65009 197.294 8.61852V8.57198C197.288 8.48466 197.259 8.40043 197.211 8.32717C197.163 8.2539 197.097 8.19401 197.02 8.1531C196.942 8.1129 196.855 8.09332 196.767 8.09622C196.72 8.02169 196.655 7.96027 196.578 7.91774C196.501 7.87522 196.415 7.85299 196.327 7.85317C196.328 7.83078 196.328 7.80833 196.327 7.78594C196.287 7.65599 196.207 7.54142 196.1 7.45739C195.993 7.37336 195.863 7.32383 195.727 7.31536H195.676L195.624 7.24296C195.58 7.17309 195.53 7.10732 195.474 7.04645C195.375 6.91875 195.23 6.83369 195.07 6.80857V6.77754C194.981 6.64567 194.847 6.55027 194.693 6.50864C194.576 6.37013 194.416 6.27533 194.238 6.23973C194.248 6.22669 194.256 6.21285 194.264 6.19836L194.331 6.15182L194.429 6.08976C194.488 6.04924 194.537 5.99709 194.575 5.93658C194.612 5.87608 194.636 5.80852 194.646 5.73812C194.657 5.65239 194.647 5.56527 194.615 5.48473C194.677 5.4175 194.75 5.35544 194.827 5.28305C194.936 5.18614 195.037 5.08251 195.133 4.97277C195.18 4.91865 195.215 4.8553 195.237 4.78674C195.258 4.71819 195.265 4.64593 195.257 4.57458C195.248 4.52658 195.235 4.47971 195.215 4.43496C195.309 4.26811 195.392 4.09537 195.464 3.91783C195.544 3.69253 195.611 3.46291 195.665 3.23005L195.712 3.04388C195.743 2.91977 195.769 2.79566 195.794 2.66638L195.825 2.52159C195.848 2.40299 195.827 2.28043 195.769 2.17511C195.754 2.12281 195.745 2.06904 195.743 2.0148C195.743 1.98377 195.769 1.95275 195.779 1.91655C195.846 1.77694 195.881 1.62407 195.881 1.46923C195.881 1.31439 195.846 1.16153 195.779 1.02192C195.729 0.919095 195.657 0.828919 195.567 0.758181C195.541 0.71164 195.515 0.665098 195.495 0.618557L195.458 0.530645C195.401 0.415739 195.303 0.326169 195.184 0.279339C195.065 0.232509 194.932 0.231766 194.812 0.277253L194.734 0.30828C194.663 0.229004 194.57 0.173552 194.466 0.14949C194.362 0.125428 194.254 0.133927 194.155 0.173827L194.072 0.106601C194.014 0.0652183 193.947 0.036491 193.877 0.0222463C193.807 0.00800157 193.734 0.00855123 193.664 0.0238603C193.518 -0.0278102 193.36 -0.0278102 193.214 0.0238603L192.888 0.1428C192.774 0.111365 192.653 0.122393 192.547 0.173827C192.486 0.131157 192.417 0.102137 192.343 0.0887506C192.27 0.0753638 192.195 0.0779246 192.123 0.0962582H192.071C191.991 0.0791679 191.91 0.0705018 191.828 0.0704018C191.727 0.0169211 191.61 -0.00127139 191.497 0.018689C191.416 0.0333051 191.34 0.0669871 191.275 0.116943C191.175 0.105086 191.073 0.124984 190.985 0.173827L190.82 0.251396V0.277253L190.778 0.235883C190.695 0.155761 190.586 0.10609 190.471 0.0948366C190.356 0.0835836 190.24 0.111401 190.142 0.173827L189.987 0.282424C189.899 0.215519 189.796 0.16955 189.687 0.147971C189.606 0.133094 189.522 0.138012 189.443 0.16231C189.363 0.186608 189.291 0.229575 189.232 0.287595L188.555 0.365164C188.461 0.372186 188.371 0.406319 188.296 0.463419C188.198 0.45125 188.099 0.45125 188.001 0.463419C187.976 0.466011 187.95 0.466011 187.924 0.463419C187.814 0.457374 187.706 0.486352 187.614 0.546159C187.507 0.509652 187.394 0.497209 187.282 0.509729C187.17 0.522248 187.063 0.559418 186.967 0.618557C186.909 0.608521 186.849 0.608521 186.791 0.618557C186.665 0.603618 186.537 0.632845 186.429 0.701297L186.16 0.866778C185.907 0.823605 185.648 0.881144 185.436 1.02709L185.374 1.06329L185.317 1.10466C185.159 1.07872 184.996 1.11383 184.862 1.20291L184.681 1.32185C184.644 1.3481 184.61 1.37751 184.578 1.40976L184.531 1.46147C184.42 1.4645 184.31 1.48545 184.206 1.52353C184.118 1.51827 184.031 1.53781 183.954 1.57989C183.877 1.62197 183.814 1.68489 183.771 1.76141H183.74C183.608 1.78823 183.485 1.8488 183.383 1.93723C183.228 1.96784 183.088 2.04982 182.985 2.16994L182.871 2.20097C182.763 2.24401 182.67 2.31769 182.603 2.41299C182.53 2.44435 182.462 2.48616 182.401 2.5371C182.313 2.55188 182.231 2.58725 182.16 2.64031C182.089 2.69336 182.031 2.76257 181.992 2.8422C181.992 2.8422 181.966 2.88875 181.956 2.9146L181.868 2.97149C181.79 3.02456 181.717 3.08518 181.651 3.15248H181.573C181.475 3.14985 181.379 3.1752 181.294 3.22556C181.21 3.27593 181.142 3.34923 181.098 3.4369L181.051 3.52481C180.953 3.43903 180.836 3.37709 180.71 3.34382C180.628 3.30178 180.551 3.24966 180.482 3.18868C180.417 3.13902 180.357 3.08364 180.301 3.0232L180.193 2.92495C180.145 2.8766 180.088 2.83909 180.024 2.81499C179.961 2.79089 179.893 2.78077 179.826 2.78532L179.712 2.69224C179.647 2.64326 179.572 2.61025 179.492 2.59587C179.412 2.5815 179.329 2.58617 179.252 2.6095C179.143 2.59447 179.032 2.60875 178.931 2.65087C178.813 2.59671 178.683 2.57527 178.553 2.58881C178.398 2.58881 178.243 2.58881 178.088 2.61467C177.913 2.62532 177.74 2.65304 177.571 2.69741L177.286 2.80083C177.22 2.83203 177.15 2.85797 177.08 2.8784C176.743 2.95841 176.438 3.13872 176.206 3.39553C175.968 3.65222 175.832 3.98686 175.823 4.3367C175.801 4.38852 175.784 4.44217 175.771 4.49701C175.755 4.57047 175.743 4.64469 175.735 4.71938C175.697 4.80839 175.673 4.90249 175.663 4.99863C175.632 5.2727 175.616 5.54678 175.601 5.82086V5.92428C175.588 6.01509 175.593 6.10749 175.616 6.19622C175.64 6.28495 175.68 6.36826 175.735 6.44141C175.735 6.44141 175.735 6.50347 175.709 6.55518C175.679 6.71405 175.679 6.87723 175.709 7.03611V7.08782C175.705 7.12214 175.705 7.15693 175.709 7.19125C175.583 7.20764 175.467 7.27027 175.383 7.36707L175.27 7.50152H175.228L175.12 7.53255H175.058C174.964 7.52334 174.87 7.53965 174.786 7.57973C174.701 7.6198 174.629 7.68214 174.577 7.76009C174.546 7.8118 174.51 7.86868 174.478 7.93074C174.379 7.98604 174.287 8.05381 174.204 8.13242L174.158 8.17379L174.039 8.25653C173.958 8.31812 173.873 8.3751 173.786 8.42718L173.356 8.68574L173.139 8.80985C173.033 8.87833 172.956 8.98316 172.922 9.10462C172.864 9.14628 172.812 9.19492 172.767 9.24941L172.72 9.30113C172.655 9.362 172.607 9.43859 172.581 9.52349C172.524 9.58932 172.488 9.67021 172.477 9.7562C172.419 9.77417 172.365 9.80218 172.317 9.83894C172.238 9.90022 172.174 9.97864 172.13 10.0682C172.087 10.1579 172.064 10.2563 172.063 10.3561C171.954 10.4157 171.869 10.513 171.826 10.6301L171.769 10.7749C171.68 10.8263 171.609 10.9029 171.563 10.995C171.518 11.087 171.502 11.1905 171.515 11.2921C171.405 11.4095 171.323 11.5512 171.277 11.7058L170.89 12.2229C170.838 12.2905 170.804 12.3698 170.791 12.4537C170.777 12.5375 170.784 12.6235 170.812 12.7038C170.807 12.7467 170.807 12.7902 170.812 12.8331C170.809 12.8675 170.809 12.9021 170.812 12.9365C170.812 12.9624 170.765 12.9882 170.745 13.0193C170.689 13.0967 170.649 13.1849 170.629 13.2783C170.608 13.3718 170.607 13.4684 170.626 13.5623C170.606 13.6218 170.58 13.679 170.548 13.7329C170.517 13.8001 170.481 13.8674 170.455 13.9294L170.424 13.9811C170.321 14.1202 170.267 14.2891 170.269 14.4621C170.209 14.5321 170.168 14.617 170.152 14.7079C170.136 14.7989 170.144 14.8925 170.176 14.9792C170.148 15.0481 170.136 15.1222 170.14 15.1964L170.078 15.2481C169.992 15.3212 169.932 15.4204 169.908 15.5306C169.884 15.6408 169.896 15.7558 169.943 15.8583V15.9462C169.889 16.0104 169.851 16.0867 169.833 16.1687C169.815 16.2507 169.818 16.3359 169.84 16.4168C169.851 16.4547 169.867 16.4911 169.886 16.5254C169.809 16.6507 169.777 16.7982 169.793 16.9443C169.767 17.0141 169.752 17.0872 169.747 17.1615C169.743 17.2584 169.759 17.3551 169.793 17.4459C169.757 17.6579 169.721 17.8648 169.695 18.0716C169.634 18.1273 169.586 18.1963 169.555 18.2733C169.53 18.341 169.52 18.4133 169.524 18.4855C169.528 18.5576 169.548 18.628 169.581 18.6922C169.534 18.8066 169.52 18.932 169.54 19.0541C169.541 19.0662 169.541 19.0783 169.54 19.0903C169.494 19.2069 169.479 19.3336 169.499 19.4575C169.474 19.5045 169.456 19.5551 169.447 19.6075C169.409 19.7841 169.439 19.9684 169.53 20.1246V20.1246C169.51 20.1454 169.493 20.1679 169.478 20.1918C169.437 20.2718 169.415 20.3604 169.415 20.4504C169.415 20.5404 169.437 20.629 169.478 20.709C169.496 20.778 169.524 20.8441 169.561 20.9055C169.505 20.9539 169.461 21.0136 169.431 21.0804C169.401 21.1473 169.385 21.2199 169.385 21.2933V21.3709C169.385 21.504 169.437 21.6318 169.53 21.7277L169.607 21.8053C169.586 21.8884 169.586 21.9755 169.607 22.0587C169.55 22.1708 169.539 22.3005 169.576 22.4206C169.595 22.4957 169.633 22.5649 169.685 22.6223V22.9585C169.682 23.0287 169.693 23.0989 169.718 23.1647C169.743 23.2305 169.781 23.2906 169.83 23.3411C169.827 23.3617 169.827 23.3826 169.83 23.4032L169.866 23.6411C169.875 23.6967 169.892 23.7507 169.917 23.8014C169.907 23.9339 169.94 24.0663 170.011 24.1789C170.011 24.1789 170.011 24.2306 170.011 24.2668C170.011 24.303 170.011 24.3547 170.011 24.4064C169.991 24.4488 169.978 24.4943 169.974 24.5409C169.96 24.6419 169.976 24.745 170.02 24.837C170.064 24.929 170.135 25.0059 170.223 25.058L170.316 25.1045C170.371 25.2244 170.461 25.3251 170.574 25.3941C170.631 25.4562 170.693 25.5079 170.75 25.5596C170.824 25.6277 170.916 25.6728 171.015 25.6894C171.115 25.7059 171.216 25.6932 171.308 25.6527L171.453 25.5803C171.484 25.5803 171.51 25.5493 171.505 25.5441C171.65 25.5364 171.792 25.4956 171.919 25.4248C172.047 25.354 172.156 25.2551 172.239 25.1356C172.279 25.082 172.33 25.0378 172.389 25.0063C172.575 24.9098 172.767 24.8167 172.963 24.727H173.036C173.161 24.7277 173.284 24.6899 173.388 24.6188C173.491 24.5476 173.571 24.4464 173.615 24.3288L173.646 24.2668C173.654 24.2392 173.666 24.213 173.682 24.1892C173.691 24.1732 173.704 24.1591 173.718 24.1479H173.749L173.853 24.1013C173.872 24.1586 173.9 24.2127 173.935 24.2616C173.933 24.2926 173.933 24.3237 173.935 24.3547C173.962 24.4671 174.028 24.5662 174.122 24.634L174.22 24.9908C174.195 25.0515 174.183 25.1165 174.184 25.1821C174.186 25.2824 174.218 25.3798 174.275 25.4625C174.332 25.5451 174.412 25.6094 174.504 25.6475L174.618 25.6889C174.644 25.7427 174.666 25.798 174.685 25.8544C174.687 25.8664 174.687 25.8786 174.685 25.8906C174.659 25.9768 174.651 26.0678 174.664 26.1572C174.676 26.2466 174.708 26.3321 174.758 26.4077C174.798 26.4947 174.842 26.5793 174.892 26.6611L174.949 26.7697C174.982 26.8304 175.028 26.8833 175.084 26.9248C175.094 26.9922 175.121 27.0561 175.161 27.111C175.192 27.1538 175.228 27.192 175.27 27.2248C175.321 27.3311 175.406 27.4169 175.513 27.4678C175.569 27.6702 175.67 27.8574 175.807 28.016C175.831 28.1277 175.881 28.2322 175.952 28.3211C175.949 28.398 175.964 28.4745 175.994 28.5452C176.024 28.6159 176.07 28.6789 176.128 28.7296C176.126 28.7519 176.126 28.7745 176.128 28.7968C176.142 28.896 176.185 28.9888 176.251 29.0641C176.317 29.1394 176.404 29.1939 176.5 29.2209C176.549 29.3182 176.627 29.3978 176.723 29.4484C176.768 29.5413 176.831 29.624 176.909 29.6915C176.944 29.7785 177.001 29.8551 177.074 29.9138C177.165 29.9868 177.278 30.0269 177.395 30.0276C177.462 30.1113 177.542 30.1831 177.633 30.2396C177.66 30.3061 177.699 30.3673 177.747 30.4206C177.786 30.4659 177.831 30.5059 177.881 30.5395C177.902 30.5893 177.926 30.6377 177.954 30.6843C178.075 30.8797 178.256 31.0304 178.471 31.1136C178.474 31.1665 178.484 31.2187 178.502 31.2687C178.528 31.3405 178.57 31.4056 178.625 31.4593C178.679 31.5129 178.745 31.5538 178.817 31.579L178.926 31.6203C178.956 31.6632 178.993 31.7016 179.034 31.7341C179.089 31.8566 179.189 31.953 179.314 32.003L179.484 32.0599H179.562C179.615 32.1578 179.689 32.2427 179.779 32.3081C179.835 32.3912 179.913 32.4564 180.005 32.4958C180.096 32.5353 180.198 32.5473 180.296 32.5305H180.353C180.401 32.6581 180.495 32.7632 180.617 32.8253C180.643 32.8604 180.673 32.8932 180.705 32.9235C180.774 32.9847 180.859 33.0261 180.95 33.0434C181.041 33.0606 181.135 33.0532 181.222 33.0218C181.267 33.0598 181.318 33.0912 181.372 33.1148L181.413 33.1717C181.472 33.2402 181.548 33.292 181.633 33.3219C181.719 33.3518 181.81 33.3589 181.899 33.3424C181.899 33.3424 181.899 33.3837 181.899 33.3993C181.946 33.4863 182.016 33.5594 182.1 33.6111C182.185 33.6629 182.281 33.6915 182.38 33.694C182.461 33.6933 182.541 33.6811 182.618 33.6578L182.804 33.5906L182.918 33.5492C183.014 33.5971 183.121 33.622 183.228 33.622C183.336 33.622 183.442 33.5971 183.539 33.5492C183.579 33.6096 183.632 33.6607 183.694 33.6992C183.766 33.7529 183.852 33.7835 183.942 33.7871C184.014 33.8287 184.096 33.8502 184.18 33.8492H185.214C185.305 33.9185 185.415 33.9582 185.529 33.9629H185.659C185.738 33.9563 185.818 33.9563 185.897 33.9629C186.022 34.088 186.133 34.2268 186.228 34.3766C186.559 34.4165 186.894 34.3609 187.195 34.2163C187.284 34.272 187.385 34.3057 187.489 34.3146C187.563 34.3277 187.638 34.3277 187.712 34.3146C187.821 34.352 187.939 34.352 188.048 34.3146L188.157 34.2835H188.239H188.441C188.477 34.3169 188.517 34.3464 188.56 34.3715C188.644 34.4126 188.736 34.4338 188.829 34.4335H188.86C188.929 34.4587 189.002 34.4689 189.075 34.4636C189.148 34.4583 189.219 34.4374 189.284 34.4025L189.604 34.2267C189.666 34.2344 189.729 34.2344 189.791 34.2267H189.894C189.962 34.273 190.041 34.3023 190.122 34.3122C190.204 34.3221 190.287 34.3123 190.365 34.2835V34.2835C190.429 34.3267 190.503 34.3546 190.58 34.3654C190.657 34.3761 190.735 34.3694 190.809 34.3456C190.86 34.3936 190.921 34.4307 190.986 34.4547C191.052 34.4787 191.122 34.4891 191.192 34.4852H191.368H191.476C191.486 34.5013 191.498 34.5153 191.513 34.5266V34.5266C191.509 34.6392 191.537 34.7506 191.595 34.8472L191.668 34.9403C191.731 35.0122 191.812 35.0652 191.904 35.0935C191.995 35.1218 192.092 35.1243 192.185 35.1006C192.263 35.1931 192.371 35.2553 192.49 35.2764H192.619C192.656 35.2792 192.691 35.2898 192.723 35.3075C192.79 35.3491 192.861 35.3837 192.935 35.4109C192.959 35.4739 192.995 35.5312 193.042 35.5793C193.09 35.6274 193.146 35.6651 193.209 35.6901L193.333 35.778C193.423 35.8507 193.52 35.9147 193.623 35.9694L193.664 36.0366C193.703 36.0922 193.752 36.1396 193.809 36.1762C193.829 36.2315 193.857 36.2837 193.891 36.3314C193.951 36.4079 194.032 36.4659 194.123 36.4988C194.215 36.5318 194.314 36.5383 194.409 36.5175C194.457 36.5083 194.504 36.4927 194.548 36.471C194.59 36.4869 194.633 36.4973 194.677 36.502C194.787 36.5182 194.9 36.5057 195.003 36.4658C195.051 36.4796 195.099 36.49 195.148 36.4969C195.315 36.4381 195.498 36.4381 195.665 36.4969C195.752 36.5124 195.842 36.5124 195.929 36.4969L196.177 36.4607C196.209 36.483 196.244 36.5004 196.281 36.5124C196.338 36.5373 196.399 36.5496 196.462 36.5486C196.544 36.5489 196.626 36.5294 196.699 36.4917L196.813 36.4245C197.13 36.3589 197.416 36.1897 197.625 35.9435C197.696 35.9429 197.765 35.9307 197.832 35.9073C197.948 35.88 198.05 35.8137 198.123 35.7195C198.195 35.6253 198.233 35.509 198.23 35.3902C198.227 35.3731 198.227 35.3556 198.23 35.3385H198.277C198.407 35.2707 198.528 35.1873 198.639 35.0903C198.708 35.0184 198.756 34.929 198.778 34.8317L198.825 34.6455C198.856 34.5007 198.887 34.3766 198.908 34.2473C198.922 34.1738 198.947 34.1025 198.98 34.0353C199.111 33.7713 199.154 33.4725 199.104 33.1821C199.068 32.9804 199.047 32.7684 199.027 32.5408C199.027 32.4271 199.001 32.3081 198.985 32.1892C198.984 32.1246 198.964 32.0618 198.928 32.0082L198.851 31.7083V31.6565V31.5841C198.895 31.5325 198.929 31.4726 198.95 31.4078C198.972 31.343 198.98 31.2746 198.975 31.2066C198.969 31.1515 198.955 31.0974 198.933 31.0463C198.948 30.9764 198.948 30.9042 198.933 30.8343C198.936 30.8206 198.936 30.8066 198.933 30.7929C199.004 30.6819 199.055 30.5594 199.083 30.431L199.13 30.3586C199.13 30.3586 199.182 30.2862 199.208 30.2603C199.243 30.2268 199.281 30.1957 199.321 30.1672L199.42 30.0948C199.492 30.037 199.547 29.961 199.58 29.8746C199.612 29.7882 199.621 29.6946 199.606 29.6035C199.606 29.6035 199.606 29.6035 199.606 29.6035C199.692 29.485 199.745 29.3459 199.761 29.2002C199.868 29.0698 199.95 28.9208 200.004 28.7606C200.061 28.6358 200.132 28.5178 200.216 28.409L200.361 28.1918C200.398 28.1323 200.423 28.0658 200.433 27.9965C200.444 27.9271 200.44 27.8564 200.423 27.7884C200.409 27.7415 200.39 27.6964 200.366 27.654L200.645 27.173C200.681 27.111 200.712 27.0489 200.743 26.9869C200.771 26.9213 200.806 26.8589 200.847 26.8007C201.002 26.6995 201.114 26.5449 201.162 26.3663V26.3663C201.2 26.3238 201.234 26.2789 201.266 26.2319L201.317 26.1595C201.405 26.0301 201.478 25.8913 201.535 25.7458C201.597 25.6236 201.634 25.4899 201.643 25.353C201.652 25.216 201.633 25.0786 201.586 24.9494C201.586 24.8822 201.633 24.8201 201.659 24.7581L201.762 24.4788C201.782 24.4151 201.792 24.3489 201.793 24.2823L201.845 24.2047C201.88 24.1452 201.902 24.0793 201.911 24.0109C201.92 23.9425 201.915 23.873 201.897 23.8065C201.895 23.7928 201.895 23.7789 201.897 23.7652C201.896 23.7514 201.896 23.7376 201.897 23.7238L201.943 23.6514C201.985 23.5938 202.014 23.5283 202.029 23.4589C202.044 23.3895 202.045 23.3177 202.031 23.2481C202.081 23.1326 202.096 23.0047 202.072 22.8809C202.185 22.7319 202.247 22.5506 202.248 22.3638V22.2397C202.256 22.0665 202.244 21.893 202.212 21.7225C202.225 21.6869 202.24 21.6523 202.259 21.6191C202.259 21.5726 202.305 21.526 202.321 21.4846C202.403 21.3254 202.425 21.1417 202.383 20.9675C202.428 20.8614 202.461 20.7503 202.481 20.6366C202.479 20.6039 202.479 20.571 202.481 20.5383C202.58 20.2978 202.608 20.0342 202.564 19.7781C202.564 19.7161 202.564 19.654 202.564 19.592C202.561 19.5202 202.543 19.4497 202.512 19.3851C202.54 19.2731 202.54 19.1558 202.512 19.0438C202.533 19.0017 202.552 18.9585 202.569 18.9145C202.569 18.8835 202.595 18.8576 202.61 18.8214L202.662 18.7232C202.696 18.6465 202.711 18.5627 202.706 18.4789C202.7 18.3951 202.675 18.3139 202.631 18.2423V18.2423ZM196.684 31.3618C196.66 31.4282 196.646 31.498 196.643 31.5686C196.647 31.6869 196.67 31.8038 196.71 31.9151C196.71 31.9151 196.71 31.9151 196.71 31.9461V32.0237C196.692 32.0932 196.692 32.1662 196.71 32.2357C196.7 32.2904 196.7 32.3465 196.71 32.4012C196.715 32.5197 196.76 32.6329 196.839 32.7218L196.917 33.1304C196.9 33.2351 196.913 33.3425 196.953 33.4406C196.947 33.4939 196.947 33.5477 196.953 33.6009C196.933 33.6403 196.91 33.6783 196.886 33.7147C196.823 33.8043 196.77 33.8995 196.725 33.9991C196.694 34.0699 196.673 34.1448 196.663 34.2215C196.557 34.3678 196.414 34.4837 196.25 34.5576C196.188 34.5352 196.124 34.523 196.058 34.5214C196.015 34.5165 195.972 34.5165 195.929 34.5214C195.903 34.5066 195.875 34.4961 195.846 34.4904L195.505 34.3973H195.432C195.37 34.3271 195.29 34.2753 195.2 34.2473C195.131 34.1949 195.052 34.1579 194.967 34.1388C194.93 34.0586 194.877 33.9866 194.812 33.9267L194.528 33.7044L194.424 33.6216C194.338 33.5547 194.233 33.5167 194.124 33.513L194.078 33.4458C194.02 33.3656 193.941 33.3035 193.849 33.2668C193.758 33.2302 193.657 33.2205 193.56 33.239L193.261 32.9959C193.201 32.9488 193.132 32.9152 193.059 32.8976C192.975 32.763 192.852 32.6567 192.707 32.5925C192.613 32.5457 192.506 32.5312 192.402 32.5512C192.271 32.3657 192.092 32.2192 191.885 32.1271C191.657 32.0933 191.427 32.0674 191.197 32.0496C191.15 32.0654 191.106 32.0899 191.068 32.122L190.954 32.0702C190.858 32.0279 190.75 32.016 190.647 32.0364C190.543 32.0567 190.448 32.1082 190.375 32.184C190.332 32.1793 190.289 32.1793 190.246 32.184C190.187 32.195 190.131 32.216 190.08 32.2461L190.013 32.2926C189.916 32.2345 189.809 32.1942 189.698 32.1737C189.5 32.1319 189.294 32.1517 189.108 32.2306C189.006 32.2078 188.902 32.1991 188.798 32.2047C188.678 32.2006 188.56 32.235 188.462 32.303C188.385 32.219 188.282 32.1629 188.17 32.1433C188.058 32.1236 187.942 32.1416 187.841 32.1944H187.8C187.689 32.1396 187.564 32.1215 187.443 32.1426L187.334 32.0909L187.205 32.0392C187.082 31.9903 186.945 31.9903 186.822 32.0392C186.714 31.9954 186.595 31.9864 186.481 32.0134C186.42 31.9662 186.356 31.923 186.29 31.8841L186.176 31.8117C186.121 31.7718 186.059 31.7439 185.993 31.7296C185.927 31.7154 185.859 31.7151 185.793 31.7289C185.671 31.6856 185.538 31.6856 185.416 31.7289H185.369C185.22 31.6613 185.052 31.6467 184.893 31.6876C184.808 31.6696 184.72 31.6696 184.635 31.6876C184.554 31.5998 184.447 31.54 184.33 31.5169C184.241 31.4964 184.149 31.4964 184.061 31.5169C183.96 31.4852 183.852 31.4852 183.751 31.5169H183.652H183.626C183.523 31.4459 183.407 31.3951 183.285 31.367C183.224 31.3185 183.153 31.2845 183.077 31.2675C183.001 31.2504 182.922 31.2509 182.846 31.2687C182.823 31.1911 182.783 31.1199 182.728 31.0606C182.674 31.0013 182.606 30.9557 182.53 30.9274L182.468 30.9015C182.383 30.8796 182.294 30.8796 182.21 30.9015C182.148 30.8914 182.085 30.8914 182.023 30.9015C181.896 30.8335 181.761 30.783 181.62 30.7516H181.527C181.444 30.6736 181.345 30.6153 181.237 30.5809L181.155 30.4775C181.078 30.3729 180.995 30.2728 180.906 30.1776C180.817 30.0771 180.694 30.0127 180.56 29.9966V29.9966L180.519 29.919C180.484 29.8576 180.437 29.8039 180.381 29.7613C180.325 29.7186 180.261 29.6878 180.193 29.6708C180.138 29.6603 180.082 29.6603 180.027 29.6708L179.893 29.5053C179.795 29.2226 179.615 28.9757 179.376 28.7968C179.31 28.7469 179.234 28.7132 179.153 28.6986C179.125 28.6755 179.094 28.6563 179.06 28.6417C178.962 28.5844 178.87 28.5168 178.786 28.44C178.771 28.3136 178.73 28.1917 178.665 28.0821C178.6 27.9726 178.512 27.8779 178.409 27.8039V27.8039C178.344 27.6981 178.243 27.6191 178.124 27.5816C178.111 27.5026 178.087 27.4259 178.052 27.354C178.03 27.3102 178.004 27.2686 177.974 27.2299C177.962 27.1309 177.924 27.0367 177.866 26.9559C177.822 26.8983 177.769 26.8478 177.711 26.8059C177.652 26.6252 177.54 26.4665 177.39 26.3508C177.38 26.2909 177.364 26.232 177.343 26.175C177.359 26.0903 177.356 26.003 177.334 25.9198C177.311 25.8365 177.27 25.7594 177.214 25.6941C177.142 25.6068 177.044 25.5436 176.935 25.5131C176.937 25.5011 176.937 25.4888 176.935 25.4769C176.962 25.3709 176.957 25.2594 176.923 25.1558C176.888 25.0521 176.824 24.9607 176.738 24.8925C176.738 24.8925 176.707 24.8149 176.692 24.7684L176.645 24.6495C176.61 24.5541 176.547 24.4713 176.464 24.4116C176.43 24.3042 176.367 24.2079 176.283 24.1323V24.1323C176.278 24.0635 176.278 23.9943 176.283 23.9255V23.7859C176.283 23.7112 176.267 23.6374 176.236 23.5695C176.205 23.5017 176.159 23.4414 176.102 23.3928C176.071 23.3657 176.036 23.3431 175.999 23.3256C175.982 23.155 175.916 22.9931 175.807 22.8602C175.803 22.7791 175.782 22.6999 175.745 22.6275C175.787 22.5731 175.825 22.5161 175.859 22.4568V22.4568C175.907 22.4436 175.954 22.4263 175.999 22.4051H176.051C176.136 22.3879 176.22 22.3601 176.299 22.3224C176.388 22.2756 176.473 22.2202 176.552 22.1569L176.625 22.1C176.684 22.0557 176.733 21.999 176.769 21.9338C176.805 21.8687 176.826 21.7966 176.831 21.7225L177.23 21.3657C177.315 21.2901 177.373 21.1883 177.395 21.0761C177.529 20.9318 177.618 20.7524 177.654 20.559C177.682 20.5313 177.706 20.5 177.726 20.4659C177.793 20.3625 177.86 20.2591 177.923 20.1556C177.985 20.0522 178.052 19.9539 178.114 19.8557C178.176 19.7574 178.31 19.5713 178.434 19.411C178.512 19.3355 178.572 19.2442 178.61 19.1433C178.648 19.0424 178.664 18.9343 178.657 18.8266C178.711 18.7328 178.735 18.6243 178.724 18.5163C178.751 18.4525 178.774 18.3868 178.791 18.3198V18.2629C179.056 17.9725 179.235 17.6145 179.308 17.2287C179.332 17.1197 179.363 17.0125 179.402 16.9081C179.473 16.7238 179.494 16.524 179.464 16.3289L179.489 16.272C179.489 16.2151 179.541 16.1531 179.562 16.0962C179.612 15.9108 179.621 15.7165 179.588 15.5273V15.4963C179.585 15.474 179.585 15.4514 179.588 15.4291C179.604 15.3541 179.616 15.2781 179.624 15.2015C179.624 15.1188 179.624 15.0412 179.624 14.9585C179.619 14.9104 179.619 14.8618 179.624 14.8137C179.624 14.6793 179.665 14.5448 179.696 14.3897C179.695 14.3673 179.695 14.3448 179.696 14.3224L179.732 14.2345C179.757 14.1609 179.765 14.0827 179.755 14.0057C179.745 13.9287 179.718 13.8549 179.676 13.7898C179.654 13.7582 179.63 13.7288 179.603 13.7019C179.603 13.5985 179.639 13.495 179.66 13.3916L179.727 13.1796C179.753 13.1052 179.761 13.026 179.751 12.9481C179.741 12.8701 179.713 12.7954 179.67 12.7297C179.642 12.6868 179.607 12.6485 179.567 12.6159C179.572 12.5799 179.572 12.5433 179.567 12.5073C179.555 12.4372 179.555 12.3655 179.567 12.2953C179.572 12.2092 179.572 12.1228 179.567 12.0367C179.571 11.9234 179.541 11.8114 179.479 11.7161C179.473 11.6879 179.464 11.6602 179.453 11.6334V11.592C179.519 11.4811 179.551 11.3536 179.546 11.2248C179.557 11.1474 179.55 11.0685 179.526 10.9942C179.502 10.9199 179.461 10.852 179.407 10.7956C179.365 10.7493 179.314 10.7123 179.257 10.687L179.231 10.6353C179.217 10.5811 179.208 10.5257 179.205 10.4698C179.205 10.3871 179.205 10.3095 179.169 10.2371C179.149 10.1483 179.116 10.0629 179.071 9.98373C179.072 9.9579 179.072 9.932 179.071 9.90616C179.053 9.75622 178.99 9.61529 178.89 9.5028C178.815 9.42343 178.736 9.34914 178.652 9.28044L178.595 9.23907L178.528 9.0529C178.493 8.93914 178.452 8.82537 178.403 8.7116C178.349 8.58283 178.259 8.47182 178.145 8.39098L178.093 8.34961C178.094 8.17932 178.027 8.01579 177.907 7.89454C177.864 7.85268 177.816 7.81778 177.762 7.79111L177.721 7.72389C177.691 7.66403 177.667 7.60175 177.648 7.53772V7.49118L177.597 7.35156C177.561 7.25847 177.524 7.16022 177.498 7.06714C177.498 7.01542 177.498 6.96371 177.498 6.912V6.55518V6.3535C177.508 6.25239 177.49 6.15061 177.447 6.05874C177.479 5.9721 177.5 5.88174 177.509 5.78983C177.516 5.6665 177.496 5.54313 177.452 5.42784C177.452 5.3813 177.452 5.33476 177.483 5.28305C177.514 5.23133 177.509 5.17962 177.519 5.12791L177.617 4.56424C177.664 4.51003 177.7 4.44663 177.721 4.37807C177.79 4.36115 177.857 4.33867 177.923 4.31085V4.31085H177.979C178.096 4.33384 178.215 4.33384 178.331 4.31085L178.424 4.34187C178.481 4.34187 178.548 4.38324 178.626 4.39876C178.779 4.52669 178.954 4.62491 179.143 4.68835L179.169 4.71938C179.212 4.77209 179.266 4.81568 179.326 4.84763C179.386 4.87959 179.452 4.89927 179.52 4.90554H179.546C179.578 4.94192 179.614 4.97331 179.655 4.99863C179.731 5.04522 179.815 5.07682 179.903 5.09171C179.919 5.11791 179.938 5.14219 179.96 5.16411C180.088 5.28873 180.235 5.39333 180.394 5.47438C180.402 5.507 180.414 5.53835 180.431 5.56747C180.472 5.64155 180.531 5.70436 180.602 5.75035C180.673 5.79634 180.755 5.8241 180.839 5.8312V5.8312C180.888 5.89053 180.947 5.93973 181.015 5.976C181.06 6.00162 181.109 6.02077 181.16 6.03288C181.205 6.09373 181.264 6.14381 181.331 6.17956C181.398 6.21532 181.472 6.23586 181.548 6.23973H181.661C181.801 6.38052 181.982 6.47293 182.179 6.50347H182.23C182.467 6.60417 182.728 6.6312 182.98 6.58104C183.141 6.6577 183.32 6.68984 183.497 6.67412V6.67412L183.642 6.74652L183.957 6.88614L184.04 6.91717C184.131 6.95679 184.232 6.96935 184.33 6.95337V6.95337C184.352 6.97348 184.376 6.99084 184.402 7.00508C184.528 7.06699 184.672 7.07811 184.806 7.03611C184.896 7.00419 184.993 6.9932 185.089 7.00394C185.185 7.01469 185.277 7.04689 185.359 7.09816C185.44 7.14013 185.531 7.15976 185.623 7.15505C185.681 7.16293 185.74 7.16293 185.798 7.15505C185.901 7.14562 186 7.10805 186.083 7.04645C186.216 7.07292 186.353 7.07292 186.486 7.04645H186.574C186.652 7.06232 186.733 7.05983 186.81 7.0392C186.888 7.01856 186.959 6.98033 187.019 6.92751C187.141 6.89406 187.269 6.89406 187.391 6.92751C187.484 7.00705 187.6 7.05582 187.722 7.06714C187.824 7.07774 187.926 7.05794 188.017 7.01025C188.13 7.04915 188.251 7.06191 188.37 7.04758C188.489 7.03326 188.604 6.99221 188.705 6.92751L188.906 6.96371L189.118 6.99991C189.224 7.02336 189.333 7.02336 189.439 6.99991L189.956 6.92751H190.003L190.809 7.17056H190.928C191.164 7.35605 191.447 7.47082 191.745 7.50152C191.79 7.5351 191.839 7.5629 191.89 7.58426C191.959 7.66994 192.053 7.73152 192.159 7.76009L192.495 7.848C192.518 7.8815 192.544 7.91268 192.573 7.94108L192.64 7.99279C192.685 8.04983 192.741 8.0968 192.805 8.13065C192.869 8.16451 192.94 8.18449 193.012 8.1893H193.105C193.195 8.25362 193.297 8.29773 193.405 8.31858V8.31858C193.472 8.39447 193.558 8.45152 193.654 8.48406C193.757 8.62367 193.899 8.72979 194.062 8.78917C194.115 8.83916 194.174 8.88257 194.238 8.91845C194.277 8.93846 194.319 8.95407 194.362 8.96499V8.96499L194.424 9.01671C194.446 9.10284 194.484 9.18381 194.538 9.25485C194.591 9.32589 194.658 9.38557 194.734 9.43041C194.812 9.47557 194.898 9.50377 194.988 9.51315C194.993 9.56413 195.009 9.61346 195.034 9.65794C195.068 9.72949 195.118 9.79233 195.18 9.84164C195.241 9.89095 195.314 9.92541 195.391 9.94236L195.577 9.98373C195.608 10.07 195.656 10.1488 195.719 10.2148C195.783 10.2808 195.859 10.3325 195.944 10.3664H195.975C195.989 10.42 196.008 10.4721 196.032 10.5215C196.121 10.6784 196.262 10.7991 196.431 10.8629C196.446 10.9222 196.473 10.9782 196.508 11.0283C196.577 11.1305 196.683 11.2026 196.803 11.23C196.852 11.2838 196.91 11.3292 196.974 11.3645C196.993 11.4395 197.03 11.5088 197.082 11.5661C197.162 11.6548 197.27 11.7133 197.387 11.7316C197.47 11.8664 197.581 11.9813 197.713 12.0678C197.719 12.0893 197.728 12.1101 197.739 12.1298C197.812 12.339 197.932 12.5285 198.091 12.6831C198.215 12.7917 198.246 12.8228 198.261 12.8796C198.303 12.9922 198.361 13.0983 198.432 13.1951V13.1951C198.45 13.2806 198.485 13.3615 198.536 13.4326C198.587 13.5038 198.652 13.5638 198.727 13.6088C198.776 13.6352 198.828 13.6561 198.882 13.6709V13.6709C198.889 13.7834 198.932 13.8905 199.006 13.976C199.01 14.0553 199.026 14.1337 199.052 14.2087C199.077 14.2813 199.096 14.3556 199.109 14.431L199.145 14.5965C199.162 14.6547 199.186 14.7103 199.218 14.762C199.233 14.8157 199.254 14.8677 199.28 14.9171C199.304 15.0212 199.36 15.1151 199.44 15.186L199.549 15.2843L199.632 15.3619C199.617 15.5423 199.659 15.7228 199.75 15.879C199.727 15.94 199.717 16.0051 199.719 16.0703C199.72 16.1404 199.736 16.2095 199.764 16.2735C199.792 16.3375 199.834 16.395 199.885 16.4427C199.885 16.5254 199.849 16.6081 199.833 16.6909C199.816 16.7978 199.825 16.9075 199.861 17.0097C199.898 17.1119 199.959 17.2033 200.04 17.2752C200.014 17.366 200.013 17.4621 200.038 17.5533C200.062 17.6444 200.111 17.7271 200.18 17.7924H200.206C200.204 17.8748 200.216 17.957 200.242 18.0354V18.0871C200.24 18.0991 200.24 18.1114 200.242 18.1233C200.189 18.2438 200.178 18.3785 200.211 18.506C200.142 18.6441 200.129 18.8033 200.175 18.9507C200.186 18.9942 200.204 19.0359 200.226 19.0748C200.22 19.1184 200.212 19.1616 200.2 19.2041V19.2817C200.169 19.4527 200.169 19.6278 200.2 19.7988V19.8867C200.137 19.9962 200.114 20.1239 200.133 20.2487C200.1 20.3513 200.1 20.4616 200.133 20.5642C200.093 20.6857 200.082 20.8151 200.102 20.9417C200.038 21.0951 200.02 21.2642 200.05 21.4278C200.024 21.4705 199.992 21.5104 199.957 21.5467C199.872 21.5923 199.8 21.6611 199.752 21.7452C199.703 21.8293 199.68 21.9254 199.683 22.0225C199.687 22.094 199.705 22.1641 199.737 22.2282C199.769 22.2923 199.814 22.349 199.869 22.3948C199.789 22.594 199.746 22.8059 199.74 23.0205C199.674 23.1003 199.626 23.1939 199.601 23.2946V23.3256C199.531 23.4395 199.494 23.5698 199.492 23.7031C199.492 23.791 199.492 23.8841 199.492 23.972C199.499 24.0339 199.499 24.0964 199.492 24.1582C199.48 24.1935 199.467 24.2281 199.451 24.2616L199.404 24.365L199.337 24.5357C199.278 24.5826 199.229 24.6406 199.192 24.7064C199.127 24.8208 199.105 24.9546 199.13 25.0839C199.059 25.1397 199.005 25.2129 198.971 25.2963C198.938 25.3798 198.926 25.4705 198.939 25.5596C198.911 25.5973 198.887 25.6371 198.866 25.6785C198.805 25.7589 198.764 25.8529 198.747 25.9526C198.675 26.06 198.634 26.1853 198.628 26.3146L198.592 26.3715C198.556 26.418 198.52 26.4542 198.473 26.506L198.37 26.6197C198.331 26.6615 198.301 26.7108 198.282 26.7645C198.182 26.8288 198.107 26.9256 198.07 27.0386C198.047 27.1285 198.047 27.2228 198.07 27.3127C197.981 27.3819 197.918 27.4782 197.889 27.5868C197.856 27.7299 197.778 27.8586 197.666 27.9539C197.571 28.029 197.505 28.1351 197.48 28.2538V28.3107C197.413 28.3316 197.35 28.366 197.297 28.412C197.243 28.4579 197.199 28.5144 197.168 28.5778C197.137 28.6413 197.12 28.7105 197.116 28.781C197.113 28.8516 197.124 28.9221 197.149 28.9882C197.073 29.0937 197.023 29.2152 197.001 29.3434C196.98 29.4717 196.988 29.6031 197.025 29.7277C196.957 29.795 196.912 29.8817 196.896 29.9759L196.86 30.131C196.822 30.281 196.793 30.4329 196.772 30.5861C196.765 30.6439 196.753 30.701 196.736 30.7567C196.679 30.953 196.661 31.1587 196.684 31.3618V31.3618ZM173.32 21.857C173.305 21.8776 173.293 21.9002 173.284 21.9242C173.248 21.9273 173.213 21.936 173.18 21.9501L172.968 22.0276C172.847 22.0739 172.747 22.1644 172.689 22.281C172.62 22.3272 172.564 22.3893 172.524 22.462H172.498C172.312 22.5534 172.159 22.702 172.063 22.8861V22.8861C172.031 22.8276 171.989 22.7752 171.939 22.7309L171.893 22.6947C171.903 22.5767 171.874 22.4586 171.81 22.3586C171.801 22.2796 171.801 22.1997 171.81 22.1207C171.859 21.9978 171.859 21.8609 171.81 21.738C171.81 21.6812 171.758 21.6346 171.733 21.5881C171.727 21.4169 171.663 21.2528 171.552 21.1227V20.9882C171.638 20.8932 171.703 20.7808 171.742 20.6586C171.781 20.5364 171.794 20.4072 171.779 20.2797C171.781 20.1671 171.772 20.0547 171.753 19.9436C171.751 19.8954 171.751 19.847 171.753 19.7988C171.756 19.7044 171.77 19.6107 171.795 19.5196C171.81 19.4931 171.824 19.4654 171.836 19.4368C171.871 19.3591 171.884 19.2731 171.872 19.1886C171.923 19.0915 171.954 18.9851 171.963 18.8758C171.972 18.7665 171.958 18.6566 171.924 18.5525V18.5525C171.956 18.4838 171.973 18.4087 171.973 18.3328C171.973 18.2568 171.956 18.1817 171.924 18.113C171.947 18.0213 171.947 17.9254 171.924 17.8337C171.916 17.789 171.902 17.7455 171.883 17.7044C171.907 17.6234 171.924 17.5403 171.934 17.4562L171.965 17.3218C171.97 17.2781 171.979 17.2348 171.991 17.1925C172.07 17.0471 172.092 16.8775 172.053 16.7167H172.084L172.182 16.6547C172.287 16.5804 172.36 16.47 172.388 16.3448C172.416 16.2197 172.396 16.0887 172.332 15.9772C172.203 15.7497 172.255 15.6308 172.534 15.2067L172.622 15.0671C172.666 14.9986 172.693 14.9208 172.701 14.84C172.709 14.7591 172.698 14.6775 172.669 14.6017C172.669 14.5758 172.669 14.55 172.632 14.5293C172.632 14.431 172.632 14.3379 172.658 14.2604C172.656 14.2329 172.656 14.2052 172.658 14.1776C172.741 14.0185 172.775 13.8388 172.756 13.6605C172.822 13.5824 172.873 13.493 172.906 13.3968C172.999 13.1766 173.143 12.9816 173.325 12.8279L173.46 12.709C173.53 12.6363 173.579 12.5459 173.601 12.4476C173.624 12.3493 173.62 12.2466 173.589 12.1505C173.591 12.1368 173.591 12.1229 173.589 12.1091C173.641 12.0455 173.683 11.974 173.713 11.8971L173.894 11.7989C174.013 11.7227 174.109 11.6166 174.173 11.4913C174.238 11.366 174.268 11.2259 174.261 11.0852C174.264 11.0456 174.264 11.0059 174.261 10.9663C174.407 10.8189 174.57 10.6904 174.747 10.5836L174.913 10.4698C174.977 10.4254 175.031 10.367 175.069 10.2989C175.108 10.2308 175.13 10.1549 175.135 10.0768L175.187 10.0354C175.223 9.99835 175.265 9.96697 175.311 9.94236C175.45 9.86065 175.576 9.75771 175.683 9.63726L175.787 9.539L175.901 9.48729L176.02 9.43041C176.148 9.36509 176.283 9.31311 176.423 9.27527C176.468 9.31701 176.521 9.35029 176.578 9.37352L176.65 9.51315L176.681 9.56486C176.681 9.65277 176.723 9.74068 176.743 9.83377L176.78 9.9889C176.795 10.0591 176.826 10.1253 176.868 10.1832C176.911 10.241 176.965 10.2894 177.028 10.325V10.4026C177.025 10.4405 177.025 10.4785 177.028 10.5164C177.021 10.5885 177.03 10.6612 177.053 10.7297C177.076 10.7983 177.113 10.8613 177.162 10.9146L177.292 11.0542L177.261 11.2766C177.242 11.4254 177.273 11.5762 177.349 11.7058C177.315 11.7911 177.304 11.8839 177.318 11.9747C177.328 12.0437 177.354 12.1093 177.395 12.166C177.377 12.2426 177.377 12.3222 177.395 12.3987V12.4039C177.386 12.5667 177.414 12.7295 177.478 12.8796C177.449 12.9581 177.44 13.0423 177.45 13.1252C177.461 13.208 177.492 13.287 177.54 13.3554C177.54 13.4019 177.54 13.4433 177.54 13.4795C177.526 13.5079 177.514 13.5373 177.504 13.5674C177.472 13.6516 177.463 13.7425 177.478 13.8312C177.457 13.9143 177.457 14.0014 177.478 14.0846L177.571 14.3845C177.553 14.4148 177.541 14.4481 177.535 14.4827C177.503 14.6162 177.524 14.7566 177.592 14.8758L177.561 15.186C177.556 15.2273 177.556 15.2689 177.561 15.3101C177.484 15.4089 177.436 15.5261 177.421 15.6498C177.405 15.7735 177.423 15.899 177.473 16.0134V16.0652C177.403 16.1316 177.349 16.2121 177.313 16.3013C177.277 16.3905 177.261 16.4863 177.266 16.5823C177.264 16.5926 177.264 16.603 177.266 16.6133C177.19 16.7413 177.142 16.8841 177.126 17.0322C177.044 17.0966 176.983 17.1844 176.952 17.2841C176.92 17.3838 176.92 17.4907 176.95 17.5907L176.666 17.9165C176.595 18.0016 176.552 18.1062 176.542 18.2164C176.504 18.2974 176.485 18.3857 176.485 18.475C176.399 18.554 176.343 18.6597 176.325 18.7749C176.325 18.8059 176.325 18.837 176.325 18.8887C176.216 19.0852 176.102 19.2817 175.978 19.4679L175.833 19.5661C175.794 19.5978 175.752 19.6272 175.709 19.654C175.5 19.776 175.329 19.9554 175.218 20.1711C175.19 20.2003 175.159 20.2263 175.125 20.2487C175.041 20.3097 174.963 20.379 174.892 20.4556V20.4556C174.806 20.4822 174.728 20.5311 174.666 20.5973C174.604 20.6636 174.561 20.7449 174.541 20.8331L174.478 20.8641C174.416 20.9042 174.363 20.9573 174.323 21.0197C174.283 21.0822 174.256 21.1526 174.246 21.2261C174.219 21.2502 174.197 21.2781 174.179 21.3088C174.087 21.3371 174.005 21.3888 173.941 21.4588C173.906 21.4963 173.877 21.538 173.853 21.5829H173.76C173.669 21.5859 173.58 21.6128 173.503 21.6609C173.426 21.7091 173.363 21.7767 173.32 21.857ZM185.607 3.0956C185.795 3.08616 185.975 3.01938 186.124 2.90426H186.253C186.359 2.9334 186.47 2.92858 186.572 2.8905C186.674 2.85242 186.762 2.78303 186.822 2.69224H186.895C186.987 2.68747 187.079 2.67361 187.169 2.65087C187.285 2.67321 187.404 2.67321 187.52 2.65087C187.742 2.69319 187.971 2.66796 188.177 2.57847L188.312 2.5371L188.42 2.50607L188.524 2.56296C188.591 2.59369 188.664 2.60959 188.738 2.60959C188.812 2.60959 188.886 2.59369 188.953 2.56296C189.134 2.57337 189.314 2.53019 189.47 2.43885C189.545 2.465 189.625 2.47348 189.704 2.46361C189.783 2.45374 189.859 2.4258 189.925 2.38196C189.992 2.33542 190.091 2.33542 190.297 2.34576H190.54C190.603 2.38993 190.674 2.41979 190.749 2.4332C190.824 2.44662 190.901 2.44324 190.975 2.42333L191.104 2.38713C191.177 2.36271 191.251 2.34369 191.326 2.33025C191.389 2.37606 191.461 2.40728 191.537 2.4216C191.613 2.43592 191.691 2.43298 191.766 2.41299L191.937 2.36645L192.107 2.31991C192.221 2.35814 192.345 2.35814 192.459 2.31991H192.5C192.61 2.38724 192.741 2.41122 192.868 2.38713C192.902 2.41613 192.94 2.44047 192.981 2.45953C193.06 2.49483 193.146 2.51001 193.232 2.50368C193.317 2.49736 193.4 2.46975 193.473 2.42333L193.535 2.38713C193.485 2.44677 193.45 2.51677 193.431 2.59196C193.412 2.66715 193.41 2.7456 193.426 2.82152C193.426 2.86806 193.369 2.90943 193.338 2.95597L193.214 3.14731C193.183 3.20909 193.158 3.27304 193.136 3.33865C193.088 3.37927 193.048 3.42834 193.017 3.48344C192.951 3.59347 192.93 3.72551 192.961 3.8506C192.946 3.88528 192.935 3.92179 192.93 3.9592C192.927 3.97983 192.927 4.00063 192.93 4.02126V4.02126C192.894 4.04762 192.861 4.07703 192.831 4.10917C192.763 4.1744 192.714 4.25708 192.689 4.34824C192.665 4.4394 192.666 4.53556 192.692 4.62629L192.635 4.74006C192.606 4.8114 192.566 4.87771 192.516 4.93657C192.366 5.03988 192.26 5.19439 192.216 5.37096C192.199 5.4015 192.186 5.4347 192.18 5.46921L192.138 5.51575L192.056 5.48473C192.029 5.4496 192 5.41674 191.968 5.38647C191.898 5.32516 191.815 5.27958 191.726 5.25282C191.637 5.22606 191.543 5.21873 191.451 5.23133C191.358 5.17638 191.254 5.14318 191.146 5.13422C191.039 5.12526 190.931 5.14079 190.83 5.17962C190.719 5.10423 190.591 5.05637 190.458 5.04C190.384 5.00005 190.303 4.97534 190.219 4.96735C190.136 4.95935 190.052 4.96823 189.972 4.99345C189.887 4.93676 189.787 4.9065 189.685 4.9065C189.582 4.9065 189.483 4.93676 189.398 4.99345C189.314 4.9841 189.229 4.99292 189.149 5.01931C189.033 4.94789 188.898 4.91195 188.762 4.91589C188.562 4.93236 188.374 5.0205 188.234 5.16411C188.066 5.13861 187.894 5.17738 187.753 5.2727H187.686C187.615 5.26777 187.544 5.26777 187.474 5.2727C187.436 5.26532 187.398 5.26532 187.36 5.2727H187.308C187.238 5.20335 187.152 5.15243 187.057 5.12446C186.962 5.0965 186.862 5.09235 186.765 5.11239C186.722 5.12087 186.681 5.13478 186.641 5.15376V5.15376C186.55 5.12583 186.453 5.12583 186.362 5.15376C186.335 5.16186 186.309 5.17224 186.285 5.18479C186.115 5.10678 185.926 5.07983 185.742 5.10722C185.675 5.09399 185.606 5.09399 185.54 5.10722H185.488C185.355 5.08358 185.217 5.1133 185.105 5.18996C185.002 5.12521 184.881 5.09281 184.759 5.09688C184.715 5.06165 184.667 5.0337 184.614 5.01414C184.54 4.98213 184.46 4.96561 184.379 4.96561C184.298 4.96561 184.218 4.98213 184.144 5.01414C184.052 4.94545 183.948 4.89585 183.837 4.86831C183.726 4.84077 183.61 4.83585 183.497 4.85383H183.42L183.239 4.81763C183.104 4.81763 182.975 4.76592 182.84 4.7504L182.97 4.66249C183.087 4.65888 183.201 4.61917 183.296 4.54873C183.412 4.48578 183.514 4.39952 183.595 4.29533C183.721 4.27808 183.836 4.21773 183.921 4.12468C183.991 4.11579 184.057 4.09292 184.118 4.05745C184.152 4.0429 184.184 4.02184 184.211 3.9954C184.357 3.95995 184.497 3.90608 184.63 3.83509C184.757 3.76348 184.877 3.67854 184.987 3.5817L185.069 3.51447C185.183 3.48565 185.29 3.43355 185.382 3.36145C185.475 3.28935 185.551 3.19882 185.607 3.0956V3.0956Z" fill="white"/>
<path d="M192.997 20.0884C192.972 20.0141 192.935 19.9443 192.888 19.8816L192.831 19.804C192.782 19.7426 192.719 19.6935 192.647 19.6603C192.575 19.6272 192.497 19.6109 192.418 19.6127C192.328 19.6137 192.24 19.6407 192.164 19.6903L192.087 19.6541C191.984 19.6129 191.871 19.6058 191.764 19.6337C191.657 19.6616 191.562 19.7231 191.492 19.8092C191.371 19.8589 191.262 19.934 191.173 20.0295C191.084 20.125 191.016 20.2386 190.975 20.3625C190.945 20.4498 190.924 20.5399 190.913 20.6314C190.869 20.6986 190.841 20.7745 190.83 20.8538V21.0038C190.815 21.1123 190.835 21.2227 190.887 21.3192C190.882 21.3725 190.882 21.4262 190.887 21.4795C190.87 21.5335 190.858 21.5889 190.851 21.645C190.851 21.7122 190.851 21.7743 190.851 21.8415C190.847 21.9117 190.835 21.9811 190.815 22.0484L190.789 22.1104C190.732 22.1624 190.687 22.2255 190.656 22.2958C190.625 22.3661 190.608 22.4421 190.608 22.5189C190.458 22.572 190.336 22.6816 190.266 22.8241C190.231 22.8786 190.187 22.9275 190.137 22.9688C190.007 22.9796 189.88 23.011 189.76 23.0619V23.0619H189.703C189.484 23.065 189.266 23.0857 189.051 23.124L189.01 23.155C188.933 23.0967 188.842 23.0609 188.746 23.0517C188.65 23.0426 188.553 23.0605 188.467 23.1033L188.317 23.1809C188.274 23.139 188.226 23.1041 188.172 23.0774C188.083 23.0325 187.982 23.0146 187.883 23.0257C187.833 23.0178 187.782 23.0178 187.733 23.0257C187.615 22.9391 187.475 22.8904 187.329 22.8861C187.213 22.7907 187.077 22.7219 186.931 22.6844L186.688 22.3328C186.637 22.2615 186.569 22.2031 186.491 22.1621C186.434 21.9101 186.305 21.6801 186.119 21.5002C186.03 21.4094 185.917 21.345 185.793 21.314C185.713 21.2825 185.626 21.2716 185.54 21.2824C185.454 21.2933 185.372 21.3255 185.302 21.3761C185.216 21.4368 185.153 21.524 185.121 21.6243H185.054L184.899 21.6553C184.818 21.6755 184.744 21.7146 184.682 21.7695C184.62 21.8244 184.572 21.8935 184.542 21.9708C184.542 21.9708 184.542 22.0122 184.542 22.038C184.48 22.1195 184.441 22.2158 184.428 22.3173C184.423 22.3961 184.433 22.4753 184.459 22.55V22.6327C184.459 22.731 184.459 22.8085 184.433 22.8913C184.426 23.0074 184.449 23.1235 184.502 23.2273C184.555 23.3311 184.635 23.4187 184.733 23.4808C184.758 23.6014 184.82 23.7115 184.909 23.7962C184.904 23.8167 184.904 23.8379 184.909 23.8583C184.937 23.9401 184.984 24.0137 185.047 24.0724C185.111 24.1311 185.187 24.1731 185.271 24.1944L185.416 24.2358H185.473C185.663 24.4552 185.897 24.6315 186.16 24.7529C186.203 24.812 186.257 24.8621 186.319 24.9002C186.381 24.9384 186.45 24.9639 186.522 24.9753C186.641 25.0047 186.766 25.0047 186.884 24.9753C186.939 25.054 187.007 25.1223 187.086 25.177C187.161 25.2424 187.253 25.285 187.351 25.2996C187.449 25.3143 187.549 25.3005 187.639 25.2597L187.717 25.2183L187.779 25.2494C187.816 25.2877 187.858 25.3207 187.903 25.3476C187.979 25.3888 188.065 25.4101 188.151 25.4097C188.233 25.4111 188.313 25.3915 188.384 25.3528L188.503 25.2959C188.628 25.3422 188.766 25.3422 188.891 25.2959L188.963 25.2597C189.123 25.2537 189.282 25.2381 189.439 25.2132H189.558C189.605 25.2159 189.651 25.2159 189.698 25.2132C189.755 25.2305 189.814 25.2392 189.873 25.239C190.035 25.2332 190.188 25.1668 190.303 25.0529C190.404 25.0846 190.512 25.0846 190.613 25.0529L190.711 25.0167C190.81 24.9876 190.907 24.9513 191.001 24.9081C191.12 24.8463 191.228 24.766 191.321 24.6702C191.363 24.6282 191.401 24.5833 191.435 24.5357C191.492 24.4892 191.554 24.4478 191.616 24.4065H191.658C191.751 24.3948 191.841 24.3635 191.921 24.3144C192.001 24.2654 192.07 24.1998 192.123 24.122C192.2 24.0549 192.273 23.9823 192.34 23.9048L192.371 23.7807C192.484 23.6722 192.577 23.5444 192.645 23.4032C192.665 23.3636 192.687 23.3255 192.712 23.2895C192.781 23.2429 192.839 23.1816 192.881 23.11C192.923 23.0385 192.948 22.9584 192.956 22.8758L193.064 22.5345C193.117 22.4772 193.155 22.4089 193.178 22.3346C193.2 22.2603 193.205 22.1819 193.193 22.1052C193.184 22.0535 193.169 22.0032 193.147 21.9553C193.166 21.825 193.166 21.6925 193.147 21.5623C193.139 21.5004 193.139 21.4379 193.147 21.3761C193.147 21.3192 193.147 21.2623 193.147 21.2054C193.157 21.1473 193.157 21.0878 193.147 21.0296C193.241 20.8575 193.265 20.6555 193.214 20.4659C193.184 20.32 193.108 20.1877 192.997 20.0884V20.0884Z" fill="white"/>
<path d="M189.678 16.7632C189.675 16.7976 189.675 16.8322 189.678 16.8666C189.616 16.9636 189.589 17.0782 189.6 17.1924C189.609 17.2859 189.643 17.3752 189.698 17.4508C189.754 17.5264 189.829 17.5854 189.915 17.6216C189.936 17.6675 189.962 17.7109 189.993 17.7509C190.046 17.814 190.114 17.8634 190.191 17.8949C190.267 17.9264 190.35 17.9391 190.433 17.9319V17.9319C190.534 18.0001 190.652 18.0378 190.774 18.0405H190.82C191.152 18.0435 191.479 17.9691 191.777 17.8233C191.862 17.8125 191.942 17.7808 192.012 17.7312C192.081 17.6816 192.137 17.6155 192.175 17.5389L192.211 17.4768C192.268 17.3777 192.311 17.2717 192.341 17.1614V17.1614C192.415 17.097 192.475 17.0177 192.517 16.9286C192.559 16.8395 192.582 16.7427 192.584 16.6443C192.583 16.5341 192.551 16.4263 192.491 16.334C192.493 16.3134 192.493 16.2925 192.491 16.2719C192.49 16.1748 192.469 16.0788 192.43 15.9899C192.391 15.901 192.334 15.821 192.263 15.7548C192.228 15.7254 192.19 15.6994 192.149 15.6772C192.149 15.641 192.113 15.61 192.098 15.579L192.061 15.5066C192.018 15.4223 191.952 15.3516 191.871 15.3024C191.789 15.2531 191.696 15.2271 191.601 15.2273H191.55C191.416 15.1915 191.274 15.2062 191.151 15.2687V15.2687C191.055 15.2297 190.949 15.2188 190.847 15.2371C190.744 15.2554 190.649 15.3022 190.572 15.3721L190.536 15.4083C190.448 15.4141 190.364 15.4446 190.293 15.4962C190.206 15.5558 190.139 15.6407 190.102 15.7393C190.006 15.8233 189.921 15.9189 189.848 16.0237H189.786C189.691 16.0936 189.623 16.1937 189.593 16.3075C189.563 16.4213 189.573 16.5419 189.621 16.6494L189.678 16.7632Z" fill="white"/>
<path d="M184.563 19.5454C184.682 19.4989 184.785 19.4575 184.92 19.4161C185.06 19.3835 185.189 19.3118 185.29 19.2093C185.392 19.1069 185.462 18.9778 185.494 18.8369C185.521 18.7266 185.559 18.6192 185.607 18.5163L185.69 18.3095C185.737 18.1666 185.751 18.0154 185.734 17.8663C185.716 17.7171 185.666 17.5737 185.587 17.4459C185.466 17.2175 185.274 17.0355 185.039 16.9287C184.978 16.8484 184.898 16.7844 184.806 16.7426C184.672 16.6622 184.516 16.6287 184.361 16.6474C184.207 16.6661 184.063 16.7361 183.953 16.846C183.793 16.861 183.643 16.9262 183.523 17.0322C183.497 17.0537 183.472 17.0779 183.451 17.1046C183.323 17.1438 183.216 17.2309 183.151 17.3476C183.08 17.4729 183.021 17.6044 182.975 17.7406L182.934 17.8596C182.905 17.9335 182.894 18.013 182.902 18.0919C182.909 18.1708 182.934 18.247 182.975 18.3146C182.976 18.3729 182.986 18.4306 183.006 18.4853L183.063 18.6094C183.092 18.695 183.129 18.7781 183.172 18.8576C183.222 18.9535 183.284 19.0422 183.358 19.1214C183.356 19.1472 183.356 19.1731 183.358 19.1989C183.385 19.2718 183.429 19.3376 183.485 19.3914C183.542 19.4451 183.61 19.4854 183.684 19.5092L184.066 19.6333C184.116 19.6498 184.169 19.6585 184.221 19.6592C184.283 19.6597 184.344 19.6492 184.402 19.6281L184.563 19.5454Z" fill="white"/>
</svg>
