<svg width="180" height="68" viewBox="0 0 180 68" fill="none" xmlns="http://www.w3.org/2000/svg"><path fill-rule="evenodd" clip-rule="evenodd" d="M142.47 2.485c-.725 5.272-3.069 7.93-8.144 9.233l-2.358.605.062 7.963c.055 7.088.209 8.459 1.406 12.464 1.689 5.653 4.926 12.533 8.409 17.874 2.818 4.319 9.009 11.951 11.993 14.784l1.746 1.658 4.087-4.408c5.575-6.013 10.025-12.35 13.278-18.908 4.534-9.142 6.142-15.23 6.621-25.068.329-6.773.364-6.696-3.365-7.368-2.702-.486-5.26-2.901-6.454-6.093-.568-1.517-1.033-3.313-1.033-3.99V0h-25.906l-.342 2.485zM64.218 5.304c-8.975 2.41-14.734 8.012-18.047 17.559-1.441 4.15-1.85 15.014-.759 20.137 2.833 13.3 11.585 19.172 26.196 17.577 8.404-.917 13.288-3.677 16.8-9.495 1.761-2.918 3.81-8.77 3.81-10.885V39h-14.92l-.83 2.502c-1.495 4.498-4.703 6.542-9.14 5.822-4.447-.721-6.768-4.609-7.036-11.784-.393-10.519 3.809-17.49 10.567-17.529 3.993-.023 6.607 2.019 7.185 5.614l.302 1.875h7.186c8.148 0 7.609.364 6.682-4.52-1.156-6.098-5.153-11.672-10.107-14.095-4.848-2.371-12.445-3.042-17.889-1.581zm100.167 2.89c.956 3.034 3.967 6.221 7.121 7.54l1.855.775-.285 5.12c-.632 11.368-5.27 21.881-14.4 32.646l-3.208 3.782-2.123-2.404c-6.287-7.118-12.612-18.172-14.391-25.153-1.008-3.956-1.728-10.663-1.376-12.83.177-1.09.597-1.677 1.334-1.862 1.866-.467 5.727-3.312 6.745-4.967.537-.875 1.134-2.434 1.325-3.466l.348-1.875h16.206l.849 2.694zM26.691 7.375c-.015.756-1.32 9.762-2.9 20.012-2.49 16.15-3.017 18.78-3.946 19.708-1.464 1.464-3.997 1.424-5.217-.082-.82-1.014-.894-1.696-.6-5.584L14.361 37H.737l-.384 1.375c-.212.757-.37 3.763-.352 6.681.03 4.73.182 5.611 1.4 8.1 2.567 5.248 7.436 7.544 16.067 7.575 9.892.037 15.328-3.665 18.219-12.404.87-2.633 6.531-38.445 6.531-41.322 0-.963-.32-1.005-7.75-1.005h-7.75l-.027 1.375zm77.527-.899c0 .263-1.687 11.944-3.75 25.958-2.062 14.015-3.75 25.838-3.75 26.274 0 .689 1 .792 7.65.792h7.65l3.649-25.625c2.006-14.093 3.763-26.131 3.904-26.75L119.827 6h-7.805c-4.614 0-7.804.195-7.804.476zm47.441 4.684c-5.061 1.893-7.948 5.184-9.278 10.573-.689 2.79-.711 3.681-.161 6.274 2.371 11.174 14.744 15.296 22.534 7.505 6.689-6.689 5.09-18.791-3.069-23.232-3.03-1.649-7.329-2.129-10.026-1.12zm3.559 1.59c0 1.02-.244 1.25-1.331 1.25-.732 0-2.331.586-3.554 1.303-1.915 1.122-2.321 1.205-2.929.596-.608-.607-.538-.863.507-1.845 1.318-1.239 4.391-2.497 6.182-2.532.873-.017 1.125.258 1.125 1.228zm4.295-.514c.97.405 2.435 1.215 3.255 1.8 1.197.851 1.376 1.202.905 1.769-.466.561-.739.582-1.322.098-.403-.335-.992-.66-1.308-.722-.316-.061-1.362-.386-2.325-.722-.962-.336-2.031-.682-2.375-.769-.343-.088-.625-.615-.625-1.175 0-1.235 1.282-1.329 3.795-.279zm-4.295 3.264c0 .622-.333 1-.882 1-.485 0-1.704.44-2.707.978-1.495.801-1.924.858-2.374.316-.658-.792-.046-1.407 2.498-2.51 2.413-1.048 3.465-.982 3.465.216zm4.849.269c1.379.903 1.592 2.492.276 2.062-4.053-1.322-4.625-1.633-4.625-2.516 0-.79.254-.889 1.599-.62.879.175 2.117.659 2.75 1.074zm-12.924.89c.405.488.329.97-.294 1.86-.463.66-1.099 2.22-1.414 3.466-.431 1.706-.837 2.305-1.644 2.425-.784.116-1.073-.102-1.073-.813 0-1.252 1.324-5.004 2.281-6.464.849-1.296 1.367-1.41 2.144-.474zm19.281 1.939c1.39 2.791 1.732 5.902.648 5.902-.575 0-1.985-3.677-2.077-5.413-.019-.363-.439-.888-.933-1.165-.71-.397-.776-.652-.31-1.213.935-1.127 1.295-.872 2.672 1.889zm-11.206-.6c0 1.37-2.939 2.668-3.934 1.737-.812-.758-.375-1.639 1.11-2.238 1.849-.746 2.824-.573 2.824.502zm3.319-.181c2.038.966 1.941 1.96-.182 1.866-.835-.037-1.5.186-1.493.5.047 1.974-.211 3.317-.638 3.317-.28 0-.473-1.41-.445-3.25.027-1.788.271-3.25.543-3.25s1.269.367 2.215.817zm-9.487.966c.166.431.046 1.039-.265 1.35-.312.312-.567.772-.567 1.023 0 .25.404-.043.896-.652.822-1.015.953-1.039 1.579-.284.517.623.542.963.104 1.401-.318.319-.579 1.088-.579 1.711 0 1.014-.232 1.127-2.25 1.087-1.923-.04-2.25-.195-2.25-1.075 0-1.305 1.935-5.344 2.561-5.344.259 0 .606.352.771.784zm14.93.914c.431.659.916 2.009 1.077 3 .259 1.598.171 1.803-.773 1.803-.811 0-1.084-.329-1.142-1.375-.134-2.414-.174-2.576-.805-3.206-.83-.83-.781-1.419.12-1.419.406 0 1.091.538 1.523 1.197zm-2.025 1.778c.42.811.754 1.88.743 2.375-.016.694-.351.513-1.461-.785-.793-.927-1.322-1.995-1.177-2.375.417-1.085 1.068-.816 1.895.785zm-9.112-.115c-.343.123-.618.711-.61 1.306.014.977.066.997.525.209.524-.9 2.46-1.232 2.46-.422 0 .25-.475.329-1.057.177-.896-.235-1.005-.113-.716.797.299.942.149 1.073-1.227 1.073-1.393 0-1.529-.125-1.224-1.125.426-1.398 1.783-2.992 2.18-2.56.162.177.013.422-.331.545zm-5.085 1.431c.024.583.142.701.302.303.144-.361.126-.793-.04-.959-.166-.166-.284.13-.262.656zm-2.519 4.834c.308 1.169.976 2.842 1.484 3.718.78 1.345.816 1.683.232 2.168-.381.316-.88.46-1.108.319-.719-.444-2.539-4.5-2.897-6.455-.306-1.674-.232-1.875.693-1.875.798 0 1.165.488 1.596 2.125zm2.524-.503c.219.819.156 1.504-.157 1.697-.315.195-.07.666.616 1.184 1.074.81 1.04 1.997-.058 1.997-.652 0-2.421-3.93-2.435-5.412-.015-1.643 1.563-1.229 2.034.534zm1.955-1.175c0 .789-1.407 1.015-1.693.271-.182-.474.059-.718.709-.718.541 0 .984.201.984.447zm3.475.83c-1.117 1.189-1.243 1.217-1.837.404-.999-1.367-.775-1.681 1.199-1.681h1.838l-1.2 1.276zm9.525-.81c0 1.128-1.043 3.065-1.499 2.784-.562-.348-.68-2.405-.167-2.918.496-.496 1.666-.402 1.666.135zm2.327 1.407c-.167 1.03-.647 2.123-1.065 2.43-.419.306-.769.869-.777 1.251-.011.499-.154.457-.507-.148-.785-1.346.485-5.407 1.691-5.407.832 0 .921.253.658 1.873zm2.668-.499c-.005 1.513-2.067 6.301-2.947 6.846-1.104.682-1.243-1.354-.152-2.237.584-.473.952-.97.817-1.105s.034-1.287.375-2.562c.68-2.543 1.915-3.152 1.907-.942zM155.218 28c0 1.566-.19 2.003-.875 2.015-.833.014-.833.04 0 .525.481.28.875.948.875 1.485 0 1.178.023 1.177-2.51.163-2.198-.88-2.378-1.743-.458-2.196.878-.207 1.028-.396.547-.693-.508-.314-.34-.744.724-1.854.761-.794 1.455-1.445 1.541-1.445.086 0 .156.9.156 2zm1.398-.942c.495.652.468.931-.142 1.437-.648.538-.756.394-.756-1.017 0-.905.064-1.551.142-1.437.078.116.418.573.756 1.017zm-4.785 5.44c.901.549 2.031.999 2.512 1 .541.002.875.384.875 1.002 0 1.245-1.423 1.318-3.65.188-2.562-1.302-2.945-1.72-2.295-2.505.714-.859.612-.872 2.558.315zm6.137-.498c.176.283-.245.5-.97.5-.704 0-1.28-.225-1.28-.5s.437-.5.971-.5 1.109.225 1.279.5zm3.75.99c0 .651-3.688 2.51-4.98 2.51-1.718 0-1.266-1.776.605-2.377 2.127-.682 4.375-.75 4.375-.133zm-11.722 1.747c1.003.68 2.588 1.38 3.523 1.555 1.22.23 1.699.585 1.699 1.264 0 .519-.309.944-.687.944-1.208 0-4.83-1.444-6.367-2.538-1.186-.846-1.37-1.202-.905-1.761.738-.89.596-.918 2.737.536zm13.21.529c-.927 1.116-4.03 2.639-5.763 2.827-2.184.238-2.297-1.374-.125-1.785.908-.172 2.55-.86 3.65-1.528 2.099-1.276 3.455-.982 2.238.486z" fill="#fff"/></svg>