<svg width="193" height="50" viewBox="0 0 193 50" fill="none" xmlns="http://www.w3.org/2000/svg"><path fill-rule="evenodd" clip-rule="evenodd" d="M1.087 1.146C.007 2.284 0 2.42 0 22.928c0 19.976.032 20.668 1 21.626.968.96 1.662.99 22.125.983 11.619-.004 21.373-.171 21.675-.371 1.579-1.044 1.7-2.657 1.7-22.542 0-19.5-.026-20.049-1.036-21.32L44.428 0H2.174L1.087 1.146zM16 19.306v13.367h14.5V5.941H37v33.168H16v-6.436H9.5V5.941H16v13.366zm40 3.42v16.383h6V12.376h3.462c2.995 0 3.669.173 5 1.282C71.701 14.692 72 15.318 72 16.9c0 3.906-1.87 5.668-6.602 6.223-1.319.155-2.398.39-2.398.524 0 .135 2.081 3.66 4.625 7.838l4.625 7.593 3.428.015c2.753.012 3.376-.123 3.158-.685-.251-.649-4.029-6.788-5.998-9.748-.855-1.286-.852-1.292 1.143-2.6 4.921-3.224 5.885-10.982 1.92-15.453-2.917-3.29-4.761-3.88-12.776-4.084L56 6.343v16.383zM184.625 9.988L182 11.449v5.383h-4v5.445h3.895l.192 5.817c.279 8.432 1.687 10.509 7.406 10.918l3.007.216v-2.782c0-2.638-.065-2.783-1.25-2.783-2.528 0-3.25-1.484-3.25-6.683v-4.703h4.5v-5.445H188v-4.208c0-2.315-.169-4.183-.375-4.153-.206.03-1.556.713-3 1.517zM87.65 17.15c-6.365 2.233-9.369 10.29-6.151 16.501 3.22 6.215 12.611 7.95 18.226 3.368 3.054-2.493 3.125-3.112.527-4.62l-2.258-1.31-1.764 1.535c-1.416 1.23-2.211 1.533-4.022 1.533-3.171 0-6.208-1.8-6.208-3.68 0-.154 3.938-.28 8.75-.28h8.75V28.15c0-3.425-1.056-5.956-3.5-8.386-3.31-3.292-7.741-4.23-12.35-2.614zm28.1.38c-1.375.703-2.557 1.278-2.625 1.279-.068 0-.125-.444-.125-.988 0-.88-.333-.99-3-.99h-3V49.01h6V37.263l2.335 1.17c4.906 2.46 10.956.715 13.907-4.01 1.351-2.164 1.508-2.83 1.508-6.414 0-3.48-.18-4.303-1.389-6.337-1.734-2.922-4.835-4.813-8.463-5.162-2.186-.21-3.085-.031-5.148 1.022zm25.624-.488c-6.591 2.329-9.648 9.609-6.683 15.913 3.924 8.344 15.599 8.902 20.546.98 1.316-2.108 1.511-2.878 1.5-5.927-.015-3.98-.748-5.723-3.531-8.4-3.062-2.944-7.833-3.979-11.832-2.566zM160 27.97v11.14h6.5v-6.953c0-6.723.04-6.994 1.227-8.168 1.032-1.023 1.707-1.216 4.25-1.216H175v-5.94h-1.967c-2.38 0-3.918.552-5.387 1.932-1.455 1.368-1.646 1.316-1.646-.447v-1.485h-6V27.97zm-63.58-4.408L97.67 25l-5.4.141c-2.971.078-5.54.004-5.71-.164-.17-.169.453-.982 1.386-1.806 1.551-1.372 1.93-1.48 4.46-1.273 2.276.187 2.983.48 4.014 1.664zm25.624-.651c2.268 1.513 3.044 3.113 2.782 5.738-.327 3.266-2.537 5.262-5.826 5.262-2.135 0-2.709-.225-4.116-1.618-1.442-1.429-1.634-1.933-1.634-4.293 0-2.166.237-2.925 1.25-4.005 2.317-2.467 4.911-2.84 7.544-1.084zm26.347.139c2.666 1.848 3.315 5.469 1.466 8.189-2.293 3.374-6.688 3.437-9.322.133-1.688-2.118-1.256-5.79.908-7.704 1.827-1.616 5.091-1.906 6.948-.618z" fill="#fff"/></svg>