<svg width="240" height="67" viewBox="0 0 240 67" fill="none" xmlns="http://www.w3.org/2000/svg"><path fill-rule="evenodd" clip-rule="evenodd" d="M23.6 1.396c-.707.705-.799 2.713-.143 3.118.252.155.572 0 .711-.345.144-.356.27-.224.293.308.032.773.169.827.789.313 1.229-1.018.67-3.993-.75-3.993-.165 0-.57.27-.9.599zm9.775-.06c-1.124.654-1.168 3.235-.062 3.659 1.241.475 2.257-.679 2.087-2.37-.168-1.68-.731-2.039-2.025-1.288zm5.157 2.425c-1.004 1.002-1.488 3.366-.574 2.802.251-.155.546-.014.656.314.33.992 2.466-1.525 2.292-2.702-.217-1.467-1.157-1.63-2.374-.414zM15 4.979c0 2.07 1.134 3.232 2.25 2.307 1.014-.84.945-2.166-.165-3.167-1.412-1.277-2.085-1-2.085.86zm18.842-.594c-.16.398-.279.28-.303-.302-.021-.526.097-.82.263-.655.166.166.184.596.04.957zm-5.995.88c-1.363 1.617-1.717 3.659-.867 5.001.518.818.57.782 1.434-.984.582-1.189.598-1.165.355.5l-.255 1.746 1.493-1.63c1.793-1.958 1.874-3.113.34-4.893l-1.153-1.338-1.347 1.598zM20.391 7.66c-2.065 2.364-2.442 5.1-1.066 7.756l.823 1.59.692-2.364c.887-3.037 1.32-3.034.872.006l-.349 2.37 1.05-.933c1.303-1.16 2.276-3.984 1.895-5.5-.317-1.265-2.163-3.798-2.767-3.798-.212 0-.73.392-1.15.873zm20.726 1.122c-1.313 1.221-1.842 2.998-1.352 4.54l.355 1.118.98-1.207.979-1.206-.304 1.395c-.304 1.39-.302 1.392.966.562 1.504-.983 2.081-2.838 1.446-4.642-.585-1.661-1.673-1.86-3.07-.56zm-30.03.424c-.524.34-.55.857-.122 2.442.588 2.181 1.141 2.805 2.986 3.37.981.302 1.141.223.874-.437-.897-2.223-.872-2.499.118-1.306l1.035 1.248.011-1.567c.018-2.639-3.03-4.971-4.903-3.75zM34 9.853c-2.852 2.367-3.941 6.44-2.314 8.66.636.869.763.762 1.756-1.48 1.317-2.972 1.806-2.743.858.403-.386 1.28-.543 2.328-.349 2.328.194 0 1.08-.749 1.969-1.664 2.305-2.374 2.593-4.75.889-7.321-.728-1.098-1.376-1.988-1.441-1.98-.065.01-.68.484-1.368 1.054zM6 10.68c0 1.518.79 2.595 1.904 2.595.447 0 .588-.299.388-.819-.274-.713-.207-.73.518-.128.751.62.797.566.461-.554C8.508 9.224 6 8.386 6 10.68zm40.834-.066c-.628.625-.335 2.692.422 2.982 1.06.407 2.244-.717 2.244-2.129 0-.91-.272-1.187-1.166-1.187-.643 0-1.318.15-1.5.334zM25.465 19.11c-.049 8.185-.433 8.845-2.488 4.272-1.494-3.324-2.477-4.52-2.477-3.015 0 .333.616 2.339 1.367 4.458.752 2.12 1.239 3.983 1.081 4.14-.157.157-.979.045-1.826-.25-.848-.295-2.29-.464-3.206-.376l-1.666.16 2.832 1.325c3.056 1.43 4.648 3.236 4.102 4.656-.29.755-.776.84-3.387.597-1.675-.156-3.588-.444-4.25-.64-.905-.268-1.106-.199-.81.278.615.996 4.247 2.385 7.263 2.779 1.512.197 2.916.613 3.117.922.608.933.43 4.228-.328 6.038-1.014 2.423-2.755 3.1-9.039 3.514-3.025.2-5.838.554-6.25.788-.557.317-.403.43.595.441 2.571.03 1.877.902-.976 1.227-4.22.48-5.619.81-5.619 1.324 0 .253 1.132.46 2.516.46 3.1 0 3.608.861 1.785 3.025-1.306 1.55-1.643 2.465-.905 2.465.218 0 1.512-1.01 2.875-2.245 2.679-2.427 5.482-3.692 6.322-2.854.666.666-.258 2.361-1.86 3.41-1.428.933-1.602 1.689-.39 1.689.463 0 2.148-1.404 3.744-3.12 3.282-3.528 3.65-3.104 1.485 1.713-1.03 2.29-1.831 3.36-2.87 3.834-1.253.57-1.339.732-.653 1.236.434.318.694.86.578 1.203-.507 1.504.948.438 1.873-1.372.561-1.098 1.248-1.997 1.528-1.997.546 0 2.472 4.115 2.472 5.283 0 .388.225.707.5.707s.5-.337.5-.749.31-.748.689-.748c.378 0 .968.336 1.311.748.343.412.866.749 1.166.749.298 0-.436-.995-1.632-2.212-1.846-1.878-2.203-2.574-2.366-4.617-.206-2.572 1.501-7.631 2.707-8.024.846-.276.797 1.495-.1 3.638-.398.952-.545 1.731-.327 1.731.71 0 2.026-1.772 2.619-3.526.651-1.932 1.346-2.963 1.994-2.963.771 0 .474 1.461-.811 3.993-1.733 3.416-1.622 4.409.267 2.38l1.518-1.63.793 1.122c1.229 1.739 1.683 1.34 1.338-1.174-.283-2.059-.22-2.278.617-2.118 1.49.287 3.288 3.37 3.115 5.347-.21 2.428-1.239 2.907-4.692 2.183-1.828-.382-3.127-.426-3.648-.123-.657.384-.567.475.483.487 1.798.021 2.032.424 1.189 2.05-.858 1.656-1.018 4.443-.21 3.636.286-.286.931-1.285 1.434-2.222 1.372-2.553 2.68-2.281 3.22.67.239 1.304.61 2.37.824 2.37.214 0 .535-.98.716-2.178.333-2.217 2.255-4.697 3.193-4.119.264.163.624 1.063.8 1.999.175.936.651 1.977 1.056 2.313.623.515.737.368.737-.949 0-1.686.263-1.813 2.218-1.071 2.18.828 1.508-.579-1.067-2.234-1.647-1.058-2.817-2.377-3.985-4.492-2.748-4.977-1.965-5.09 2.884-.417 3.723 3.589 5.058 3.98 2.428.713-1.355-1.682-1.518-2.142-.99-2.779.864-1.038 2.129-.956 3.648.236 1.74 1.366 2.454 1.28 2.07-.249-.374-1.486.1-1.559 3.492-.54 1.622.487 2.3.533 2.17.146-.339-1.015-5.04-2.31-8.464-2.33-1.84-.012-3.484-.246-3.654-.52-.17-.275.141-.5.691-.5.55 0 1.139-.224 1.309-.499.193-.311-.825-.499-2.71-.499-5.89 0-9.04-2.487-9.04-7.136 0-3.18.672-3.653 5.633-3.962C41.589 36.871 44 36.19 44 35.32c0-.21-.788-.29-1.75-.177-.962.112-1.75.033-1.75-.175 0-.21.58-1.562 1.288-3.006.743-1.518 1.214-3.225 1.115-4.043-.166-1.36-.224-1.318-1.491 1.08C39.91 31.84 37 34.907 37 33.646c0-.428.458-1.812 1.017-3.075 1.605-3.62 1.972-11.307.54-11.307-.232 0-.532 1.52-.665 3.377-.262 3.657-2 8.317-2.979 7.99-.394-.13-.577-1.23-.526-3.163l.078-2.963-.97 1.997c-.532 1.098-.974 2.286-.982 2.64-.025 1.243-2.041 4.597-2.763 4.597-1.927 0-1.532-5.297.72-9.656 2.373-4.595 1.26-4.368-2.286.466l-1.066 1.453-.374-6.125c-.206-3.368-.57-6.245-.809-6.393-.239-.148-.451 2.384-.47 5.626zm24.981-4.237c-.441.823-.445 1.147-.014 1.29.316.105.447.397.291.648-.545.882 1.288.445 2.277-.542 1.479-1.476 1.282-2.495-.483-2.495-1.016 0-1.667.345-2.071 1.099zm-47.571.742c-1.157.302-1.105 1.226.162 2.833.649.824 1.526 1.315 2.35 1.315 1.021 0 1.18-.133.713-.599-1.022-1.02-.659-1.605.402-.647.989.893.994.885.438-.707-.327-.936-1.075-1.806-1.784-2.075-.671-.255-1.262-.438-1.313-.406-.051.032-.487.16-.968.286zm42.328 1.389c-2.022.848-3.703 3.039-3.703 4.823 0 1.777.31 1.785 2.183.058l1.487-1.373-1.14 1.651c-1.425 2.064-1.06 2.492 1.072 1.253 2.047-1.19 3.077-3.2 2.646-5.162-.418-1.897-.688-2.03-2.545-1.25zm-35.023.514c-.795 2.07 1.766 5.814 4.62 6.754 2.264.746 2.566.4 1.255-1.438-1.592-2.231-1.268-2.474.732-.548l1.786 1.72-.357-1.498c-.604-2.535-1.668-4.192-3.2-4.983-1.896-.979-4.46-.983-4.835-.007zm40.477 3.247c-.95.382-2.157 1.89-2.157 2.696 0 .149.731.151 1.625.006l1.625-.265-1.375.792c-1.839 1.06-1.739 1.26.625 1.26 2.319 0 4-1.342 4-3.191 0-1.707-1.907-2.277-4.343-1.298zM4.295 22.71c-.817.901-.804 1 .287 2.015C6.1 26.136 7.467 26.432 9.27 25.74l1.48-.57-1.5-.708-1.5-.71 1.375.184c1.662.22 1.769-.346.264-1.398-1.529-1.07-4.046-.984-5.094.172zm70.506-.248c.181.471-.217.808-1.214 1.027-2.066.453-3.287 1.976-3.287 4.101 0 2.065 1.55 3.654 3.564 3.654 1.007 0 1.201.197.991.999-.216.823-.015.998 1.145.998s1.36-.175 1.145-.998c-.197-.75-.016-.999.73-.999.544 0 1.583-.465 2.308-1.034 1.016-.798 1.317-1.475 1.317-2.959s-.301-2.16-1.317-2.958c-.725-.57-1.762-1.035-2.304-1.035-.671 0-.894-.239-.698-.749.216-.56-.081-.748-1.181-.748-1.056 0-1.393.197-1.199.701zm41.074.371c.834.833.854 8.98.025 9.809-.467.466-.166.599 1.35.599s1.817-.133 1.35-.599c-.33-.33-.6-1.44-.6-2.467 0-1.84.032-1.87 2.122-2.022 1.784-.129 2.232-.386 2.823-1.622.605-1.265.603-1.646-.013-2.745-.645-1.151-1.058-1.292-4.199-1.427-2.787-.12-3.358-.025-2.858.474zm5.025.525c.33.33.6 1.183.6 1.897 0 1.603-.841 2.495-2.35 2.495-1.047 0-1.15-.224-1.15-2.495 0-2.272.103-2.496 1.15-2.496.632 0 1.42.27 1.75.599zM75 27.501c0 1.784-.175 3.244-.388 3.244-.215 0-.89-.35-1.5-.777-1.995-1.395-1.108-5.712 1.174-5.712.546 0 .714.766.714 3.245zm4.215-2.46c1.103 1.102.978 3.514-.246 4.737-1.595 1.593-2.203.966-2.368-2.441-.135-2.786-.054-3.08.84-3.08.543 0 1.341.352 1.773.784zm5.285 1.212c-.693.692-1 1.664-1 3.167 0 2.659 1.106 3.82 3.636 3.82 2.222 0 3.364-1.393 3.364-4.104 0-2.322-1.406-3.881-3.5-3.881-.834 0-1.945.443-2.5.998zm8.25 2.993v3.993h1.475c1.147.002 1.342-.131.875-.597-.33-.33-.6-1.116-.6-1.747 0-.986.255-1.148 1.805-1.148 1.768 0 1.8.035 1.6 1.747-.194 1.654-.124 1.747 1.296 1.747 1.166 0 1.365-.133.899-.599-.33-.33-.6-1.857-.6-3.394 0-1.538.27-3.065.6-3.394.466-.466.252-.6-.968-.6-1.514 0-1.559.062-1.285 1.748.28 1.728.264 1.747-1.531 1.747-1.562 0-1.816-.161-1.816-1.148 0-.632.27-1.418.6-1.747.467-.466.272-.6-.875-.6H92.75v3.992zm11.492-3.017c.431 1.355-.599 4.873-1.768 6.04-.94.938-1.372 3.468-.592 3.468.209 0 .603-.506.875-1.123.425-.97.871-1.123 3.243-1.123 2.471 0 2.766.113 2.91 1.123.236 1.658 1.09 1.365 1.09-.375 0-.823-.25-1.497-.555-1.497-.374 0-.492-1.221-.365-3.744l.19-3.743h-2.669c-2.419 0-2.639.091-2.359.974zm21.345.18c-1.296 1.378-1.443 4.106-.308 5.722 1.001 1.428 4.173 1.544 5.394.197 1.293-1.426 1.117-5.316-.284-6.296-1.591-1.113-3.543-.96-4.802.378zm9.324.967c.13 1.64-.125 2.552-1.122 4.015-1.266 1.861-1.738 4.346-.824 4.346.256 0 .537-.506.625-1.123.141-.994.488-1.14 3.019-1.273 2.701-.14 2.877-.079 3.179 1.123.433 1.723 1.212 1.613 1.212-.171 0-.824-.322-1.568-.75-1.732-.876-.335-1.034-3.998-.262-6.026l.487-1.28h-5.732l.168 2.121zm8.071-1.156c.285.531.518 1.894.518 3.028 0 1.134-.233 2.496-.518 3.028-.462.862-.344.965 1.101.965 1.259 0 1.484-.133 1.017-.6-.468-.466-.247-.964.998-2.246.879-.906 1.779-1.646 2-1.646.633 0 .469 3.227-.198 3.893-.467.466-.241.599 1.017.599 1.445 0 1.563-.103 1.101-.965-.285-.532-.518-1.894-.518-3.028 0-1.134.233-2.497.518-3.028.457-.852.345-.965-.954-.965-1.145 0-1.425.193-1.266.873.176.756-2.306 4.118-3.041 4.118-.465 0-.268-3.04.261-4.026.459-.857.345-.965-1.018-.965s-1.477.108-1.018.965zm9.768 3.026v3.993h1.475c1.147.002 1.342-.131.875-.597-.33-.33-.6-1.116-.6-1.747 0-.986.255-1.148 1.805-1.148 1.768 0 1.8.035 1.6 1.747-.194 1.654-.124 1.747 1.296 1.747 1.166 0 1.366-.133.899-.599-.33-.33-.6-1.857-.6-3.394 0-1.538.27-3.065.6-3.394.467-.466.252-.6-.968-.6-1.514 0-1.559.062-1.285 1.748.281 1.728.264 1.747-1.531 1.747-1.943 0-2.291-.678-1.298-2.529.454-.847.347-.965-.875-.966h-1.393v3.992zm10 0v3.993h1.436c1.171.002 1.329-.126.858-.693-.458-.551-.2-1.095 1.244-2.62L168.11 28l-.18 2.621c-.18 2.61-.174 2.62 1.295 2.62 1.147 0 1.342-.133.875-.599-.33-.33-.6-1.857-.6-3.394 0-1.538.27-3.065.6-3.394.467-.466.237-.6-1.034-.6-1.346 0-1.583.159-1.347.9.193.607-.283 1.447-1.467 2.593l-1.752 1.695v-1.995c0-1.097.27-2.264.6-2.593.467-.466.272-.6-.875-.6h-1.475v3.992zm-74.236-1.969c.737 1.375.582 3.8-.3 4.68-1.701 1.699-3.214.338-3.214-2.89 0-2.955 2.27-4.11 3.514-1.79zm41.277.21c.48 1.907.008 4.376-.947 4.955-.736.447-1.088.328-1.875-.63-1.247-1.516-1.239-3.793.019-5.048 1.171-1.169 2.408-.85 2.803.723zm-22.392 1.886l-.149 3.12-1.693.16c-1.567.15-1.666.076-1.332-.998.198-.637.603-2.114.901-3.28.397-1.552.795-2.122 1.482-2.122.835 0 .923.347.791 3.12zm31 0c-.149 3.12-.149 3.12-1.774 3.275-1.76.17-1.859-.017-1.167-2.203a38.14 38.14 0 0 0 .76-2.82c.208-.947.615-1.372 1.315-1.372.927 0 1.002.269.866 3.12zM.69 27.477c-.655 1.704 1.325 2.37 3.09 1.038.957-.723.957-.733-.03-.757-.83-.02-.873-.105-.25-.507.569-.367.353-.485-.89-.491-.98-.005-1.754.285-1.92.717zm46.995-.006c-2.254.98-2.44 1.646-.565 2.023 3.469.697 3.675.988.88 1.248l-2.75.255 2.105 1.122c3.222 1.717 5.982 1.289 8.32-1.291 1.152-1.27.758-1.931-1.861-3.119-2.438-1.104-3.995-1.165-6.129-.238zM6.644 28.564C5.166 29.29 3 32.596 3 34.123c0 .769 3.096 1.3 5.236.9.954-.18 2.421-.902 3.26-1.607 1.504-1.263 2.765-3.077 2.396-3.445-.103-.103-1.36.12-2.792.497-3 .79-3.056.36-.124-.96C12.089 29.006 13 28.406 13 28.173c0-.727-4.67-.44-6.356.39zm42.425 7.7c1.111.966 1.116.995.089.499-1.564-.755-1.767-.667-1.389.596.489 1.628 2.239 2.846 4.106 2.859 1.41.01 1.625-.157 1.625-1.26 0-1.793-2.09-3.72-4.032-3.72h-1.579l1.18 1.026zM9.067 37.279c-.84.781-1.083 1.493-.97 2.832.192 2.242.864 2.479 2.566.903.913-.845 1.337-1.743 1.337-2.835 0-1.598-.001-1.598-1.073-.648-1.067.946-1.07.945-.482-.172.74-1.409.091-1.447-1.378-.08zm-5.192-.005c-1.192.693-1.147 2.456.064 2.456 1.2 0 2.259-1.26 1.883-2.24-.337-.876-.736-.92-1.947-.216zm39.112.225c-1.063 1.278.146 3.229 2.002 3.229 1.178 0 1.511-.22 1.511-.998 0-1.004-1.621-2.995-2.439-2.995-.241 0-.724.343-1.074.764zm27.995 5.692c.285.53.518 2.567.518 4.525 0 1.958-.233 3.994-.517 4.525-.487.908-.327.965 2.713.965 3.754 0 4.804-.703 4.804-3.218 0-2.075-.962-2.885-3.504-2.951L73 46.984v-2.13c0-1.939.112-2.13 1.25-2.13.688 0 1.7.45 2.25.999 1.295 1.293 1.5 1.259 1.5-.25 0-1.22-.082-1.248-3.767-1.248-3.57 0-3.741.05-3.25.966zm64.918-.367c.81.81.81 8.974 0 9.784-.467.465-.161.59 1.375.56 1.086-.022 1.694-.154 1.35-.292-.794-.32-.883-9.434-.096-9.92.905-.558 2.889.222 3.222 1.267.478 1.505 1.249 1.196 1.249-.5v-1.498h-3.85c-2.995 0-3.717.134-3.25.6zm-54.083 3.431c-1.052.827-1.317 1.459-1.317 3.149 0 2.593.763 3.694 2.842 4.101 3.614.709 5.817-4.913 2.84-7.25-.724-.569-1.706-1.035-2.182-1.035s-1.458.466-2.183 1.035zm25.058-.455c-.756.276-1.375.82-1.375 1.209 0 .934.466.892 1.615-.145.717-.648 1.147-.725 1.789-.32 1.469.924 1.036 2.34-.834 2.722-2.179.445-3.267 1.538-2.846 2.86.397 1.25 1.914 1.808 3.137 1.154.495-.264 1.47-.371 2.167-.238l1.268.242-.329-3.586c-.41-4.461-1.202-5.134-4.592-3.898zm18 0c-.756.276-1.375.82-1.375 1.209 0 .922.715.902 1.5-.042.882-1.06 2.376-.928 2.749.245.429 1.35-.069 2.001-1.528 2.001-1.197 0-3.221 1.546-3.221 2.46 0 1.023 1.66 2.106 2.699 1.763.578-.191 1.728-.325 2.556-.298l1.503.05-.261-3.507c-.328-4.409-1.189-5.132-4.622-3.88zm20.5 0c-.756.276-1.375.82-1.375 1.209 0 .953.844.897 1.399-.093.702-1.253 2.327-.651 2.509.93.139 1.201-.012 1.37-1.25 1.383-.774.009-1.802.314-2.283.68-2.062 1.562-.042 4.488 2.348 3.4.603-.273 1.756-.38 2.562-.238 1.203.214 1.353.142.84-.401-.351-.371-.625-1.922-.625-3.539 0-2.334-.182-2.975-.967-3.394-1.132-.605-1.337-.6-3.158.063zm15.375-.08c-.17.274-.07.499.221.499.337 0 .529 1.81.529 4.991 0 3.18-.192 4.991-.529 4.991-.291 0-.391.225-.221.5.17.274.837.499 1.482.499 1.069 0 1.15-.168.918-1.897-.253-1.884-.243-1.897 1.501-1.897 2.203 0 3.237-.84 3.634-2.952.404-2.153-.081-3.58-1.54-4.534-.938-.614-1.399-.652-2.265-.19-.787.42-1.239.43-1.634.036-.682-.681-1.689-.704-2.096-.047zm73.375.015c-.618.248-1.125.796-1.125 1.216 0 .999.808.986 1.194-.019.518-1.348 2.532-.674 2.714.909.137 1.19-.017 1.372-1.158 1.372-1.978 0-3.25.88-3.25 2.246 0 1.535 1.512 2.407 3.117 1.798.651-.247 1.847-.358 2.659-.248.811.111 1.193.07.849-.092-.404-.19-.625-1.419-.625-3.478 0-2.638-.166-3.274-.967-3.702-1.145-.611-1.888-.612-3.408-.002zM89.75 49.463v3.743h1.475c1.147 0 1.342-.133.875-.598-.33-.33-.6-1.902-.6-3.494 0-2.765.057-2.895 1.266-2.895.696 0 1.395.337 1.553.748.416 1.082 1.181.92 1.181-.25 0-.882-.334-.998-2.875-.998H89.75v3.744zm8.103-2.751c.414 1.578-.32 4.464-1.41 5.554-.68.678-.953 1.512-.847 2.592l.154 1.593.754-1.498c.658-1.308 1.057-1.516 3.157-1.65 2.278-.146 2.434-.073 2.981 1.373.76 2.01 1.358 1.937 1.358-.168 0-1.045-.287-1.804-.75-1.981-.932-.357-1.051-5.309-.15-6.209.467-.465-.078-.599-2.453-.599-2.801 0-3.032.082-2.794.993zm16.022-.662c.817.33.837 5.746.025 6.558-.467.465-.267.599.899.599 1.42 0 1.49-.094 1.296-1.748-.2-1.711-.168-1.747 1.6-1.747 1.55 0 1.805.163 1.805 1.149 0 .631-.27 1.417-.6 1.747-.467.465-.272.599.875.599h1.475v-7.488h-1.475c-1.147 0-1.342.134-.875.6.33.329.6 1.003.6 1.497 0 .7-.4.898-1.807.898-1.723 0-1.796-.07-1.586-1.497.205-1.393.113-1.495-1.319-1.458-.846.021-1.256.153-.913.29zm38.594.61c.292.545.531 1.806.531 2.803 0 .997-.239 2.258-.531 2.803-.506.944-.387.983 2.573.84 3.36-.162 4.465-.968 3.704-2.702-.227-.517-.431-1.727-.454-2.688l-.042-1.747-3.156-.15c-3.012-.142-3.132-.104-2.625.841zm17.906-.61c.817.33.837 5.746.025 6.558-.467.465-.248.599.985.599 1.06 0 1.505-.207 1.347-.624-.233-.617 2.211-3.869 2.908-3.869.635 0 .387 3.9-.265 4.162-.343.138.05.27.875.291l1.5.04v-7.488l-1.5.008c-1.145.006-1.322.12-.75.485.622.395.421.8-1.168 2.363l-1.918 1.886.171-2.37c.17-2.349.157-2.371-1.332-2.332-.827.021-1.221.153-.878.29zm11.975.793c.345 1.823-.983 5.14-1.989 4.969-.581-.099-.861.185-.861.873 0 .561.321 1.02.714 1.02 1.297 0 2.246-1.496 2.874-4.529.461-2.228.816-2.953 1.391-2.845.976.185 1.366 5.111.488 6.167-.486.584-.337.709.847.709h1.436v-7.488h-2.555c-2.38 0-2.542.078-2.345 1.123zm7.632-.158c.285.53.518 1.781.518 2.778 0 .997-.233 2.247-.518 2.778-.461.86-.344.965 1.062.965 1.254 0 1.465-.135 1.028-.661-.421-.507-.147-1.052 1.173-2.329 1.537-1.487 1.76-1.57 2.071-.762.191.498.105 1.546-.191 2.328-.52 1.377-.486 1.425 1.018 1.425 1.211 0 1.424-.134.957-.6-.33-.329-.6-1.744-.6-3.144 0-1.4.27-2.815.6-3.145.467-.465.248-.599-.985-.599-1.229 0-1.516.175-1.284.78.29.752-2.042 3.713-2.925 3.713-.636 0-.475-3.225.194-3.894.467-.465.241-.599-1.017-.599-1.445 0-1.563.104-1.101.966zm9.768 2.778v3.743h5.725c4.453 0 5.592-.133 5.125-.598-.33-.33-.6-1.745-.6-3.145s.27-2.815.6-3.145c.467-.465.272-.6-.875-.6l-1.475-.001.166 3.495c.166 3.494.166 3.495-1.166 3.495-1.332 0-1.332 0-1.166-3.495l.166-3.495-1.5.04c-.825.023-1.218.155-.875.293.409.165.625 1.36.625 3.454v3.203h-3v-3.203c0-2.094.216-3.29.625-3.454.344-.138-.05-.27-.875-.291l-1.5-.04v3.744zm13.5 0v3.743h1.436c1.136 0 1.321-.138.886-.661-.422-.508-.133-1.06 1.239-2.371l1.789-1.71-.179 2.372c-.176 2.35-.164 2.37 1.326 2.331.827-.021 1.222-.153.878-.29-.407-.165-.625-1.352-.625-3.414 0-2.062.218-3.249.625-3.413.344-.138-.099-.27-.984-.291-1.084-.027-1.537.164-1.388.584.199.56-2.364 3.869-2.996 3.869-.565 0-.218-3.926.368-4.162.344-.138-.05-.27-.875-.291l-1.5-.04v3.744zm10 0v3.743l1.5-.039c.825-.021 1.219-.153.875-.29-.343-.14-.625-.908-.625-1.709 0-1.34.145-1.456 1.805-1.456 1.768 0 1.8.036 1.6 1.747-.175 1.495-.056 1.747.82 1.747.942 0 1.025-.303 1.025-3.743 0-3.457-.079-3.744-1.038-3.744-.87 0-1.003.244-.819 1.498.21 1.428.137 1.497-1.586 1.497-1.577 0-1.807-.153-1.807-1.206 0-.664.282-1.32.625-1.458.344-.138-.05-.27-.875-.291l-1.5-.04v3.744zM85.71 48.328c.79 3.192-1.234 5.653-3.11 3.78-.786-.785-.773-4.519.019-5.31 1.168-1.165 2.6-.456 3.091 1.53zM101 49.463v3.244h-1.558c-1.378 0-1.521-.13-1.238-1.123.176-.618.447-1.797.602-2.62.454-2.423.622-2.745 1.428-2.745.609 0 .766.663.766 3.244zm55.91-1.872c.136.956-.069 1.123-1.375 1.123-1.155 0-1.535-.226-1.535-.915 0-1.225.501-1.652 1.73-1.477.619.089 1.083.588 1.18 1.27zm9.638.749c.201.755.2 1.99-.002 2.745-.295 1.101-.657 1.373-1.832 1.373-1.371 0-1.474-.139-1.62-2.178-.214-2.976.13-3.661 1.745-3.47.982.114 1.443.528 1.709 1.53zm-90.515-.107c.618.33.967 1.044.967 1.979 0 1.554-1.118 2.495-2.967 2.495-.906 0-1.033-.306-1.033-2.495 0-2.19.127-2.496 1.033-2.496.568 0 1.468.233 2 .517zM110 50.426c0 1.052-1.518 2.381-2.355 2.06-.4-.152-.821-.278-.936-.278-.604 0-.086-1.519.666-1.956 1.272-.74 2.625-.65 2.625.174zm18 .267c0 1.411-1.894 2.334-2.844 1.386-.636-.636-.625-.83.094-1.546 1.156-1.155 2.75-1.062 2.75.16zm20-.043c0 1.197-1.262 2.255-2.243 1.88-1.023-.392-.957-1.653.118-2.278 1.344-.782 2.125-.635 2.125.398zm9-.445c1.074.684-.008 2.253-1.555 2.253-.932 0-1.23-.302-1.353-1.373-.133-1.15.03-1.371 1-1.365.637.005 1.496.223 1.908.485zm80 .488c0 1.057-1.708 2.254-2.51 1.758-.7-.431-.606-2.11.135-2.408 1.416-.57 2.375-.308 2.375.65z" fill="#fff"/></svg>