<svg width="211" height="56" viewBox="0 0 211 56" fill="none" xmlns="http://www.w3.org/2000/svg"><path fill-rule="evenodd" clip-rule="evenodd" d="M20.688.47c-.357.233 1.146 2.191 4.122 5.367 4.164 4.444 4.684 4.851 4.687 3.666.002-.734.123-1.649.271-2.033.156-.408-1.009-2.093-2.794-4.041C23.944.123 22.36-.623 20.688.469zM32.82 1.711c-.16.894-.864 6.012-1.565 11.375s-1.385 10.25-1.521 10.862l-.247 1.111 1.76-1.037c2.072-1.223 1.888-.541 3.544-13.126C35.875 2.662 35.984.884 35.425.53c-1.394-.884-2.31-.468-2.605 1.182zm-17.235.615c-1.143.63-1.046.768 5.412 7.701 3.617 3.883 6.761 7.059 6.986 7.059.224 0 .497-.764.605-1.697.183-1.565-.232-2.166-5.32-7.706-3.035-3.305-5.743-6.006-6.018-6.004-.275.003-1.024.294-1.665.647zm22.737.885c-.715 4.026-2.376 16.965-2.232 17.392.088.262.857.051 1.71-.467 1.515-.922 1.569-1.087 2.4-7.372.467-3.536.973-7.226 1.122-8.201.24-1.557.112-1.847-1.048-2.375-1.727-.787-1.62-.843-1.952 1.023zM10.79 5.338c-.946.723-.946.749 0 1.858 2.78 3.26 15.923 16.891 16.287 16.891.232 0 .423-.75.423-1.665 0-1.45-.948-2.693-7.346-9.625-4.04-4.378-7.584-8.013-7.875-8.077-.291-.063-.961.214-1.489.618zm32.27 4.124c-.337 2.681-.747 5.65-.91 6.596l-.297 1.72 1.698-1.068c1.49-.937 1.769-1.455 2.27-4.22.904-4.992.829-6.242-.432-7.125-.611-.428-1.248-.778-1.414-.778-.166 0-.578 2.193-.915 4.875zM166 6.837c0 1.611.119 1.75 1.5 1.75s1.5-.139 1.5-1.75-.119-1.75-1.5-1.75-1.5.139-1.5 1.75zm-89.158-.026c-2.492.889-3.776 2.075-4.901 4.526-1.934 4.209-.5 9.939 2.986 11.94 2.166 1.244 5.27 1.813 7.948 1.456 2.007-.267 2.125-.372 2.125-1.912 0-1.625-.004-1.628-1.875-1.201-4.235.966-7.608-1.323-8.002-5.434-.462-4.796 2.34-7.476 7.215-6.903L85 9.595V8.154c0-1.215-.246-1.491-1.563-1.755-2.367-.473-4.483-.341-6.595.412zM88 15.337v9.25h3.5v-8h6.567l-.159-1.375c-.151-1.318-.288-1.381-3.283-1.524l-3.125-.149V9.088H98v-3H88v9.25zm15.968-7.904c-.29.772-1.864 4.789-3.498 8.927-1.633 4.137-2.97 7.694-2.97 7.905 0 .21.825.313 1.834.227 1.597-.135 1.908-.38 2.418-1.905l.585-1.75 4.055-.145 4.056-.145.605 2.02c.571 1.904.715 2.02 2.526 2.02 1.057 0 1.92-.168 1.919-.375-.001-.206-1.56-4.313-3.464-9.125l-3.462-8.75-2.038-.154c-1.835-.139-2.089-.015-2.566 1.25zm21.83-.583c-2.076 1.083-2.764 2.201-2.782 4.525-.019 2.405 1.068 3.642 4.549 5.182 3.059 1.353 3.744 2.205 3.031 3.768-.665 1.46-3.207 2.076-5.296 1.281-1.654-.629-1.562-.678-1.976 1.054-.394 1.645.226 1.927 4.242 1.927 4.883 0 6.934-1.589 6.934-5.372 0-2.607-.822-3.57-4.572-5.36-3.28-1.567-4.048-2.668-2.859-4.102.508-.61 1.294-.727 3.542-.523l2.889.262V8.098c0-1.024-.299-1.475-1.125-1.696-2.006-.538-5.09-.327-6.577.448zm64.327 1.252c-.752.302-1.125.873-1.125 1.719 0 1.017-.246 1.266-1.25 1.266-1 0-1.25.25-1.25 1.25s.25 1.25 1.25 1.25c1.229 0 1.25.068 1.25 3.977 0 4.611.582 6.229 2.532 7.036 1.434.595 4.468.247 4.468-.512 0-1.061-.683-2.001-1.454-2.001-1.576 0-2.046-1.114-2.046-4.85v-3.65h1.5c1.266 0 1.5-.194 1.5-1.25s-.234-1.25-1.5-1.25c-1.381 0-1.5-.139-1.5-1.75 0-1.837-.382-2.036-2.375-1.235zm-82.364 5.485c.486 1.513.989 3.032 1.116 3.375.165.448-.491.625-2.324.625-1.469 0-2.553-.226-2.553-.532 0-1.123 2.251-6.915 2.556-6.575.176.196.719 1.595 1.205 3.107zm34.048-2.498c-4.452 1.381-6.211 7.445-3.252 11.208 4.229 5.375 12.444 2.43 12.44-4.46-.002-4.727-4.664-8.152-9.188-6.748zm34.709.151c-1.002.345-2.234 1.335-2.92 2.347-1.013 1.495-1.157 2.214-.989 4.941.174 2.828.376 3.351 1.772 4.598 1.872 1.673 4.419 2.25 7.282 1.649 1.774-.372 2.111-.644 2.245-1.813.177-1.532-.064-1.617-2.342-.823-1.9.662-3.737.277-5.078-1.064-1.72-1.72-1.205-1.988 3.819-1.988h4.806l-.345-2.375c-.442-3.037-1.418-4.53-3.541-5.417-2.001-.836-2.426-.841-4.709-.055zm-20.136.617c-.753.416-1.749 1.481-2.212 2.368-.965 1.845-1.068 5.684-.197 7.312.977 1.825 3.509 3.046 6.319 3.048 2.951.002 3.143-.114 2.836-1.72-.199-1.041-.442-1.164-1.842-.937-1.225.199-1.944-.024-2.998-.932-2.989-2.571-.968-7.676 2.894-7.308 1.379.131 1.568-.002 1.568-1.101 0-1.151-.198-1.26-2.5-1.367-1.499-.07-3.048.185-3.868.637zm9.618 5.98v6.75h3v-13.5h-3v6.75zm31.988-2.875c.78 2.131 1.983 5.37 2.673 7.198 1.13 2.993 1.182 3.428.519 4.375-.465.664-1.28 1.052-2.209 1.052-1.233 0-1.471.201-1.471 1.24 0 2.394 4.629 2.067 6.258-.442.564-.869 6.742-16.558 6.742-17.121 0-.098-.769-.177-1.709-.177h-1.708l-1.583 4.75c-.871 2.613-1.658 4.75-1.75 4.75-.092 0-.879-2.137-1.75-4.75l-1.583-4.75h-3.847l1.418 3.875zM6.207 13.453c-2.358.168-2.607.312-3.4 1.975l-.855 1.794 2.399-.3c1.32-.165 4.368-.45 6.774-.636 2.406-.185 4.375-.492 4.375-.68 0-.19-.521-.834-1.157-1.432-1.191-1.119-1.793-1.172-8.136-.721zm140.223.886c1.103 1.044 1.334 5.02.377 6.48-1.752 2.675-4.884 2.045-5.849-1.176-1.356-4.527 2.424-8.192 5.472-5.304zm34.155-.425c.503.456.915 1.243.915 1.75 0 .795-.418.923-3 .923-1.65 0-3-.195-3-.433s.466-1.025 1.036-1.75c1.185-1.505 2.721-1.691 4.049-.49zM45.75 18.12a9154.98 9154.98 0 0 1-10.727 6.555l-4.228 2.577 1.959.678 1.959.678 9.643-5.816C49.66 19.593 54 16.898 54 16.804c0-.49-1.203-2.713-1.456-2.69-.161.015-3.219 1.818-6.794 4.006zm-29.5.217c-.275.094-3.796.441-7.825.77l-7.324.6-.304 1.52c-.167.836-.246 1.572-.175 1.634.07.063 4.516-.302 9.878-.811 5.363-.51 9.849-.934 9.968-.945.12-.01-.427-.693-1.218-1.518-1.37-1.43-1.868-1.637-3-1.25zm29.89 6.148c-4.46 2.669-8.117 4.976-8.125 5.127-.008.15.748.55 1.68.887 1.652.598 1.871.506 8.934-3.734 6.797-4.081 7.219-4.423 6.903-5.605-.185-.692-.55-1.319-.81-1.393-.26-.075-4.122 2.049-8.582 4.718zM17 23.863c-.413.088-4.406.428-8.875.758L0 25.22v1.693c0 1.492.134 1.665 1.125 1.459.619-.129 6.362-.621 12.764-1.093l11.638-.86-1.357-1.416c-1.162-1.212-1.722-1.407-3.889-1.358-1.392.032-2.868.13-3.281.218zm34.75 3.775a661.78 661.78 0 0 1-5.748 3.515l-1.75 1.047 1.883.75 1.882.75 3.991-2.43C55.856 28.927 56 28.772 56 26.963c0-1.032-.056-1.858-.125-1.835-.069.022-1.925 1.151-4.125 2.51zM15.325 38.413l-6.4 9.327 1.181 1.18 1.18 1.18 7.127-10.507 7.127-10.506h-3.816l-6.4 9.326zm-3.951-4.201C4.369 44.332 4.798 43.535 5.78 44.62c.481.532 1.05.967 1.265.967.215 0 2.867-3.6 5.893-8l5.504-8h-1.934c-1.874 0-2.031.141-5.134 4.625zm19.152-3.034c.251.875.629 1.754.84 1.954.212.199 4.884 2.093 10.384 4.209 5.5 2.115 10.159 3.944 10.353 4.063.195.118.699-.45 1.12-1.264l.765-1.48-4.869-1.862a4426.459 4426.459 0 0 1-11.793-4.537c-3.809-1.47-6.999-2.674-7.09-2.674-.091 0 .039.716.29 1.591zM91.5 39.337v9.75h3v-3c0-1.65.169-2.994.375-2.986.206.008 1.273 1.358 2.372 3 1.925 2.879 2.075 2.986 4.156 2.986h2.159l-1.531-2.125a110.725 110.725 0 0 0-2.73-3.62l-1.197-1.493 2.491-3.131 2.491-3.131h-2.034c-1.857 0-2.194.216-3.899 2.5-1.027 1.375-2.044 2.5-2.26 2.5-.216 0-.393-2.475-.393-5.5v-5.5h-3v9.75zm39.5-8.032c0 1.709.073 1.782 1.781 1.782 1.709 0 1.776-.067 1.625-1.625-.137-1.429-.352-1.644-1.781-1.782-1.559-.15-1.625-.084-1.625 1.625zM4.617 34.108c-2.622 3.979-2.63 4.004-1.833 5.546.44.852.973 1.355 1.182 1.117C4.579 40.074 11 30.503 11 30.285c0-.108-.844-.193-1.875-.186-1.787.01-1.998.198-4.508 4.008zm21.964-2.023l-1.097 1.484 3.258 10.724C30.534 50.19 32 55.105 32 55.213c0 .11.675.1 1.5-.02.825-.122 1.5-.498 1.5-.837 0-.687-6.834-23.27-7.132-23.569-.104-.104-.683.48-1.287 1.296zm45.919 6.27v7.832l1.524 1.423c2.908 2.717 8.466 2.588 11.316-.262l1.66-1.66V30.523l-1.625.157-1.625.157-.25 7.167c-.278 7.949-.555 8.583-3.75 8.583s-3.472-.634-3.75-8.583l-.25-7.167-1.625-.157-1.625-.157v7.832zm85.25-2.508c-1.1.399-2.068.73-2.15.734-.082.004-.583.963-1.114 2.132-2.556 5.632.471 10.886 6.264 10.867 2.615-.009 4.459-.976 4.669-2.45.147-1.029.018-1.137-1-.835-3.175.939-4.666.89-6.044-.195-2.523-1.989-1.872-2.512 3.125-2.512h4.5v-1.8c0-4.898-3.728-7.584-8.25-5.941zM106 42.337v6.75h3.5v-4.163c0-3.705.127-4.282 1.157-5.25.636-.598 1.649-1.087 2.25-1.087.881 0 1.093-.291 1.093-1.5 0-1.274-.192-1.5-1.274-1.5-.735 0-1.792.56-2.5 1.323L109 38.233V36.91c0-1.136-.212-1.323-1.5-1.323H106v6.75zm11.625-6.235c-1.151.464-1.404 1.272-.729 2.334.251.395.632.44 1.117.133 1.058-.67 4.68-.59 5.387.118.33.33.6.979.6 1.442 0 .68-.616.881-3.221 1.047-3.97.252-5.279 1.227-5.279 3.933 0 2.812 1.391 4.228 4.154 4.228 1.502 0 2.588-.314 3.294-.953.929-.84 1.052-.855 1.052-.124 0 .586.438.827 1.5.827h1.5v-5.289c0-5.178-.031-5.319-1.462-6.75-1.261-1.261-1.826-1.456-4.125-1.43-1.465.018-3.169.236-3.788.484zM131 42.337v6.75h3.5v-13.5H131v6.75zm7.197-5.959c.167.435.303 3.472.303 6.75v5.959h3v-3.188c0-4.488.454-6.259 1.84-7.167.953-.624 1.455-.671 2.43-.227 1.187.541 1.23.734 1.23 5.572v5.01h3.5v-5.523c0-5.197-.072-5.595-1.227-6.75-1.427-1.427-4.487-1.676-6.052-.493-1.249.945-1.721.949-1.721.016 0-.528-.533-.75-1.803-.75-1.439 0-1.742.16-1.5.791zm-115.67 1.539c-.599.76-.99 1.728-.872 2.151.119.423 1.189 4.088 2.378 8.144l2.162 7.375h1.686c1.373 0 1.637-.163 1.422-.875a8509.1 8509.1 0 0 1-2.791-9.341c-1.39-4.656-2.61-8.549-2.713-8.651-.101-.102-.674.437-1.273 1.197zm9.973-.892c0 .227.236 1.09.525 1.918.483 1.388 1.138 1.729 8.367 4.358l7.844 2.854.902-1.114c.496-.613.723-1.293.505-1.511-.218-.218-2.534-1.175-5.145-2.126-2.611-.951-6.604-2.419-8.873-3.26-2.269-.843-4.125-1.346-4.125-1.119zm129.104 1.187c.437.344.946 1.131 1.129 1.75.321 1.08.212 1.125-2.7 1.125-3.352 0-3.882-.651-2.033-2.5 1.144-1.144 2.453-1.28 3.604-.375zM18.591 43.571c-.6.812-1.094 1.654-1.098 1.871-.003.217.592 2.353 1.322 4.746 1.214 3.98 1.452 4.378 2.792 4.672.806.178 1.572.215 1.704.084.13-.132-.632-3.077-1.695-6.544l-1.934-6.304-1.091 1.475zM124 44.087c0 2.54-3.93 3.934-5.2 1.843-.756-1.245 1.213-2.843 3.505-2.843 1.361 0 1.695.196 1.695 1zm-89.223.625c.672 2.196 1.167 2.585 5.297 4.158l4.176 1.592 1.413-.999c.778-.55 1.228-1.168 1-1.373-.452-.41-11.217-4.503-11.843-4.503-.213 0-.233.506-.043 1.125z" fill="#fff"/></svg>