<svg xmlns="http://www.w3.org/2000/svg" viewBox="46.8 23.5 143.3 104.5" width="143" height="104"><path fill="#FFF" d="M135.2 109.1h1.8c.4 0 .7 0 1 .1.3.1.5.2.7.3.2.1.4.3.5.6.1.2.2.5.2.9 0 .3-.1.6-.2.9-.1.2-.3.4-.5.6-.2.2-.5.3-.7.4-.3.1-.6.1-.9.1h-1v2.5h-.8v-6.4zm1.8 3.1c.6 0 1-.1 1.2-.3.3-.2.4-.5.4-1s-.1-.8-.4-.9c-.3-.2-.7-.3-1.2-.3h-1v2.5h1zm6.1 1.3h-2.3l-.6 1.9h-.8l2.1-6.3h.9l2.1 6.3h-.9l-.5-1.9zm-.2-.7l-.3-1c-.1-.3-.2-.7-.3-1.1-.1-.4-.2-.7-.3-1.1-.1.4-.2.7-.3 1.1-.1.4-.2.7-.3 1.1l-.3 1h1.8zm6.1 2.6l-1.5-2.7h-1.1v2.7h-.8v-6.3h2c.3 0 .6 0 .9.1.3.1.5.2.7.3.2.1.3.3.5.5.1.2.2.5.2.8 0 .5-.1.9-.4 1.2-.3.3-.6.5-1 .6l1.6 2.8H149zm-2.7-3.3h1.1c.5 0 .9-.1 1.1-.3.3-.2.4-.5.4-.9s-.1-.7-.4-.9c-.3-.2-.6-.3-1.1-.3h-1.1v2.4zm4.7-3h.8v5.6h2.8v.7H151v-6.3zm4.7 0h.8v6.3h-.8v-6.3zm5.5 4.4h-2.3l-.6 1.9h-.8l2.1-6.3h.9l2.1 6.3h-.9l-.5-1.9zm-.2-.7l-.3-1c-.1-.3-.2-.7-.3-1.1-.1-.4-.2-.7-.3-1.1-.1.4-.2.7-.3 1.1-.1.4-.2.7-.3 1.1l-.3 1h1.8zm2.6-3.7h1l1.2 3.4c.1.2.2.4.2.7.1.2.2.4.2.7.1-.2.2-.4.2-.7.1-.2.1-.4.2-.7l1.2-3.4h1v6.3h-.8V111c0-.3.1-.7.1-.9l-.5 1.4-1.2 3.3h-.5l-1.2-3.3-.5-1.4c0 .3 0 .6.1.9v4.4h-.7v-6.3zm6.8 0h3.6v.7h-2.8v2h2.4v.7h-2.4v2.3h2.9v.7h-3.7v-6.4zm5 0h.8l2.3 4 .7 1.3c0-.3 0-.7-.1-1v-4.3h.8v6.3h-.8l-2.3-4-.7-1.3c0 .3.1.6.1 1v4.3h-.8v-6.3zm7.5.7H181v-.7h4.6v.7h-1.9v5.6h-.8v-5.6zm-29.9 17c-.3 0-.6 0-.9-.1-.3-.1-.5-.2-.7-.5-.2-.2-.4-.5-.5-.8-.1-.3-.2-.8-.2-1.3v-3.7h.8v3.7c0 .4 0 .7.1 1 .1.3.2.5.3.6.1.2.3.3.5.3.2.1.4.1.6.1.2 0 .4 0 .6-.1.2-.1.3-.2.5-.3l.3-.6c.1-.3.1-.6.1-1v-3.7h.8v3.7c0 .5-.1.9-.2 1.3-.1.3-.3.6-.5.8-.2.2-.4.4-.7.5-.3.1-.6.1-.9.1zm3.8-6.4h.8v3.2l2.6-3.2h.9l-2 2.4 2.3 3.9h-.9l-1.9-3.3-1.1 1.3v2h-.8l.1-6.3zm9 6.3l-1.5-2.7h-1.1v2.7h-.8v-6.3h2c.3 0 .6 0 .9.1.3.1.5.2.7.3.2.1.3.3.5.5.1.2.2.5.2.8 0 .5-.1.9-.4 1.2-.3.3-.6.5-1 .6l1.6 2.8h-1.1zm-2.7-3.3h1.1c.5 0 .9-.1 1.1-.3.3-.2.4-.5.4-.9s-.1-.7-.4-.9-.6-.3-1.1-.3h-1.1v2.4zm7.8 1.4h-2.3l-.6 1.9h-.8l2.1-6.3h.9l2.1 6.3h-.9l-.5-1.9zm-.2-.7l-.3-1c-.1-.4-.2-.7-.3-1.1-.1-.4-.2-.7-.3-1.1-.1.4-.2.7-.3 1.1-.1.4-.2.7-.3 1.1l-.3 1h1.8zm2.4-3.7h.8v6.3h-.8v-6.3zm2.5 0h.8l2.3 4 .7 1.3c0-.3 0-.7-.1-1v-4.3h.8v6.3h-.8l-2.3-4-.7-1.3c0 .3.1.6.1 1v4.3h-.8v-6.3zm6 0h3.6v.7h-2.8v2h2.4v.7h-2.4v2.3h2.9v.7h-3.7v-6.4zm-71 6.4h-.5c-.1 0-.2-.1-.3-.1l.3-1.2c.1 0 .1 0 .2.1h.3c.3 0 .5-.1.6-.3l.1-.2-2.1-4.6h1.5l.7 1.8.5 1.5.5-1.5.7-1.8h1.4l-1.9 4.8c-.2.5-.4.9-.7 1.1-.5.2-.9.4-1.3.4zm9.7-.2h-1.5l-1.7-2.7h-.7v2.7H115v-6.3h1.4v2.5h.7l.8-1.4c.1-.2.2-.4.4-.5.1-.1.2-.3.4-.4.1-.1.3-.2.4-.2.1 0 .3-.1.5-.1h.3c.1 0 .2 0 .2.1l-.2 1.3h-.3c-.1 0-.3 0-.4.1-.1.1-.2.2-.3.5l-.7 1.2 2.1 3.2zm.8-6.2h2.2c.3 0 .7 0 1 .1.3.1.6.2.8.3.2.2.4.4.5.6.1.3.2.6.2 1s-.1.7-.2 1c-.1.3-.3.5-.5.7-.2.2-.5.3-.8.4-.3.1-.6.1-.9.1h-.8v2.1h-1.4v-6.3zm2.1 3c.8 0 1.2-.3 1.2-1 0-.3-.1-.6-.3-.7-.2-.1-.5-.2-.9-.2h-.7v1.9h.7zm6.1 1.7h-1.9l-.4 1.5h-1.4l2-6.3h1.7l2 6.3h-1.5l-.5-1.5zm-.3-1.1l-.1-.6c-.1-.3-.2-.6-.3-1-.1-.4-.2-.7-.3-1-.1.3-.2.7-.2 1-.1.4-.2.7-.3 1l-.2.6h1.4zm2.6-4.1c-.2 0-.4-.1-.5-.2-.1-.1-.2-.3-.2-.5s.1-.3.2-.5c.1-.1.3-.2.5-.2s.4.1.5.2c.1.1.2.3.2.5s-.1.4-.2.5c-.2.1-.3.2-.5.2zm.3.5h1.4v6.3h-1.4v-6.3zm1.8-.5c-.2 0-.4-.1-.5-.2-.1-.1-.2-.3-.2-.5s.1-.3.2-.5c.1-.1.3-.2.5-.2s.4.1.5.2c.1.1.2.3.2.5s-.1.4-.2.5c-.1.1-.3.2-.5.2zm1.1.5h1.4v2.4h2.2v-2.4h1.4v6.3h-1.4V124h-2.2v2.6h-1.4v-6.2zm9.4 4.7h-1.9l-.4 1.5h-1.4l2-6.3h1.7l2 6.3h-1.5l-.5-1.5zm-.3-1.1l-.1-.6c-.1-.3-.2-.6-.3-1-.1-.4-.2-.7-.3-1-.1.3-.2.7-.2 1-.1.4-.2.7-.3 1l-.2.6h1.4zM55 109.1h3.6v.7h-2.8v2h2.4v.7h-2.4v2.3h2.9v.7H55v-6.4zm7.2 6.4c-.3 0-.6 0-.9-.1-.3-.1-.5-.2-.7-.5-.2-.2-.4-.5-.5-.8-.1-.3-.2-.8-.2-1.3v-3.7h.8v3.7c0 .4 0 .7.1 1 .1.3.2.5.3.6.1.2.3.3.5.3.2.1.4.1.6.1.2 0 .4 0 .6-.1.2-.1.3-.2.5-.3l.3-.6c.1-.3.1-.6.1-1v-3.7h.8v3.7c0 .5-.1.9-.2 1.3-.1.3-.3.6-.5.8-.2.2-.4.4-.7.5-.3.1-.6.1-.9.1zm7.3-.1l-1.5-2.7h-1.1v2.7h-.8v-6.3h2c.3 0 .6 0 .9.1.3.1.5.2.7.3.2.1.3.3.5.5.1.2.2.5.2.8 0 .5-.1.9-.4 1.2-.3.3-.6.5-1 .6l1.6 2.8h-1.1zm-2.6-3.3H68c.5 0 .9-.1 1.1-.3.3-.2.4-.5.4-.9s-.1-.7-.4-.9c-.3-.2-.6-.3-1.1-.3h-1.1v2.4zm7.1 3.4c-.4 0-.8-.1-1.1-.2-.3-.2-.6-.4-.9-.7-.2-.3-.4-.6-.6-1-.1-.4-.2-.9-.2-1.4 0-.5.1-1 .2-1.4.1-.4.3-.7.6-1 .2-.3.5-.5.9-.6.3-.1.7-.2 1.1-.2.4 0 .8.1 1.1.2l.9.6c.2.3.4.6.6 1 .1.4.2.9.2 1.4 0 .5-.1 1-.2 1.4-.1.4-.3.8-.6 1-.2.3-.5.5-.9.7-.4.1-.7.2-1.1.2zm0-.7c.3 0 .5-.1.8-.2.2-.1.4-.3.6-.5.2-.2.3-.5.4-.8.1-.3.1-.7.1-1.1 0-.4 0-.7-.1-1.1-.1-.3-.2-.6-.4-.8-.2-.2-.4-.4-.6-.5-.2-.1-.5-.2-.8-.2-.3 0-.5.1-.8.2-.2.1-.4.3-.6.5-.2.2-.3.5-.4.8-.1.3-.1.7-.1 1.1 0 .4 0 .8.1 1.1.1.3.2.6.4.8.2.2.4.4.6.5.2.1.5.2.8.2zm4.1-5.7h1.8c.4 0 .7 0 1 .1.3.1.5.2.7.3.2.1.4.3.5.6.1.2.2.5.2.9 0 .3-.1.6-.2.9-.1.2-.3.4-.5.6-.2.2-.5.3-.7.4-.3.1-.6.1-.9.1h-1v2.5h-.8v-6.4zm1.7 3.1c.6 0 1-.1 1.2-.3.3-.2.4-.5.4-1s-.1-.8-.4-.9c-.3-.2-.7-.3-1.2-.3h-.9v2.5h.9zm3.6-3.1H87v.7h-2.8v2h2.4v.7h-2.4v2.3h2.9v.7h-3.7v-6.4zm8.1 4.4h-2.3l-.6 1.9h-.8l2.1-6.3h.9l2.1 6.3H92l-.5-1.9zm-.2-.7l-.3-1c-.1-.4-.2-.7-.3-1.1-.1-.4-.2-.7-.3-1.1-.1.4-.2.7-.3 1.1-.1.4-.2.7-.3 1.1l-.3 1h1.8zm2.6-3.7h.8l2.3 4 .7 1.3c0-.3 0-.7-.1-1v-4.3h.8v6.3h-.8l-2.3-4-.7-1.3c0 .3.1.6.1 1v4.3h-.8v-6.3zm9.9 3.8l-1.9-4h1.5l.6 1.4c.1.2.2.5.3.7.1.2.2.5.3.7.1-.2.2-.5.3-.7.1-.2.2-.5.3-.7l.6-1.4h1.5l-1.9 4v2.2H104v-2.2zm6.2 2.4c-.4 0-.8-.1-1.2-.2-.4-.2-.6-.4-.9-.6-.3-.3-.4-.6-.6-1-.1-.4-.2-.9-.2-1.4 0-.5.1-1 .2-1.4s.3-.7.6-1c.3-.3.6-.5.9-.6.3-.1.7-.2 1.2-.2.4 0 .8.1 1.2.2.4.1.6.4.9.6.3.3.4.6.6 1 .1.4.2.9.2 1.4 0 .5-.1 1-.2 1.4-.1.4-.3.7-.6 1-.3.3-.6.5-.9.6-.4.1-.8.2-1.2.2zm0-1.2c.4 0 .8-.2 1-.6.3-.4.4-.9.4-1.5s-.1-1.1-.4-1.5c-.3-.4-.6-.5-1-.5s-.8.2-1 .5c-.3.3-.4.8-.4 1.5 0 .6.1 1.1.4 1.5.2.4.5.6 1 .6zm6.3 1.2c-.8 0-1.4-.2-1.9-.7-.4-.5-.6-1.2-.6-2.3v-3.4h1.4v3.5c0 .6.1 1 .3 1.3.2.2.5.4.8.4.4 0 .6-.1.8-.4.2-.2.3-.7.3-1.3v-3.5h1.4v3.4c0 1.1-.2 1.8-.6 2.3-.5.4-1.1.7-1.9.7zm5-5.2h-1.7v-1.2h4.9v1.2h-1.7v5.1h-1.4l-.1-5.1zm4-1.2h1.4v2.4h2.2v-2.4h1.4v6.3h-1.4v-2.6h-2.2v2.6h-1.4v-6.3zm48.2-66.8l-8.6 1.4-5.6-3.7.3 4.5-8.6 1.4 8.8 1.5.3 4.5 5.1-3.6 8.8 1.4-5.6-3.7 5.1-3.7zm-36.1 27.7l-3.6.6-2.3-1.5.1 1.9-3.6.6 3.7.6.1 1.9 2.2-1.5 3.6.6-2.3-1.5 2.1-1.7zm-30.6-30.5l-5.9 1-3.9-2.6.2 3.2-5.9 1 6.1 1 .2 3.1 3.6-2.5 6.1 1-3.9-2.6 3.4-2.6zm22.7.2zM143 30l-8.6 1.4-5.6-3.7.3 4.5-8.6 1.4 8.8 1.5.3 4.6 5.1-3.6 8.8 1.4-5.6-3.7L143 30zm-38-4.1l-8.6 1.4-5.6-3.7.3 4.5-8.6 1.4 8.8 1.5.3 4.6 5.1-3.7 8.8 1.4-5.6-3.7 5.1-3.7zm-33.1 7.8l-8.6 1.4-5.6-3.7.3 4.5-8.6 1.4 8.8 1.5.3 4.5 5.1-3.7 8.8 1.4-5.6-3.7 5.1-3.6zm88.3 57.4l-8.6 1.4-5.6-3.7.3 4.6-8.6 1.4 8.8 1.4.3 4.6 5.1-3.6 8.8 1.5-5.6-3.7 5.1-3.9zm21.1-14.6l-8.6 1.4-5.6-3.7.3 4.6-8.6 1.4 8.8 1.4.3 4.5 5.1-3.7 8.8 1.5-5.6-3.7 5.1-3.7zm5.5-18l-8.6 1.4-5.6-3.7.3 4.5-8.6 1.4 8.8 1.4.3 4.6 5.1-3.6 8.8 1.4-5.6-3.7 5.1-3.7zm-52.5-2.3l-3.6.6-2.3-1.5.1 1.9-3.6.6 3.7.6.1 1.9 2.1-1.5 3.7.6-2.3-1.5 2.1-1.7zm-12.1-4.8l-3.6.6-2.3-1.6.1 1.9-3.6.6 3.7.6v.3l.1 1.6 2.1-1.5 3.7.6-2.3-1.5 2.1-1.6zm-15-1.6l-3.6.6-2.3-1.5.1 1.9-3.6.6 3.7.6.1 1.9 2.1-1.5 3.7.6-2.4-1.6 2.2-1.6zm-13.1 3.1l-3.6.6-2.3-1.5.1 1.9-3.6.6 3.7.6.1 1.9 2.1-1.5 3.7.6-2.3-1.5 2.1-1.7zM129 75.6l-3.6.6-2.4-1.6.1 1.9-3.6.6 3.7.6.1 1.9 2.1-1.5 3.7.6-2.3-1.5 2.2-1.6zm10.6-12.9l-3.6.6-2.4-1.5.1 1.9-3.6.6 3.7.6.1 1.9 2.2-1.5 3.7.6-2.3-1.5 2.1-1.7zM151.9 50l-6 .9-3.9-2.6.2 3.1-6 1 6.1 1 .2 3.2 3.6-2.5 6.1 1-3.9-2.6 3.6-2.5zm-20.1-8l-6 .9-3.9-2.6.2 3.2-6 .9 6.1 1 .1 1.4.1 1.8 3.6-2.5 6.1 1-3.9-2.6 3.6-2.5zM85 44.5l-6 1-3.9-2.6.2 3.1-5.9 1 6.1 1 .2 3.2 3.6-2.5 6.1 1-3.9-2.7 3.5-2.5zm58.2 37.8l-6 .9-3.9-2.6.2 3.1-6 .9 6.1 1 .2 3.2 3.6-2.5 6.1 1-3.9-2.6 3.6-2.4zm13.9-9.7l-6 .9-3.9-2.6.2 3.2-6 .9 6.1 1 .2 3.2 3.6-2.5 6.1 1-3.9-2.6 3.6-2.5zm3.6-11.8l-6 .9-3.9-2.6.2 3.2-6 .9 6.1 1 .2 3.1 3.6-2.5 6.1 1-3.9-2.6 3.6-2.4z"/></svg>