<svg width="181" height="69" viewBox="0 0 181 69" fill="none" xmlns="http://www.w3.org/2000/svg"><path fill-rule="evenodd" clip-rule="evenodd" d="M28.305.435c-4.922.829-12.629 4.04-12.629 5.261 0 .623 17.887 31.722 18.246 31.722.144 0 4.382-7.142 9.416-15.87l9.154-15.872-1.267-1.01c-1.754-1.399-7.9-3.597-11.799-4.22-3.691-.59-7.655-.594-11.121-.01zm49.61 13.46c1.936 3.852 2.15 5.523.708 5.523-.383 0-.697.45-.697 1 0 1.322 2.029 1.35 3.21.045.742-.82 4.79-9.554 4.79-10.334 0-.15-.712-.204-1.583-.117-1.271.125-1.69.47-2.125 1.745-.82 2.409-1.13 2.437-2.267.21-.872-1.709-1.293-2.049-2.54-2.049h-1.496l2 3.976zm33.011-2.977c0 .823.259 1.033 1.125.91.619-.088 1.125-.497 1.125-.91 0-.412-.506-.822-1.125-.91-.866-.122-1.125.087-1.125.91zm4 0c0 .823.259 1.033 1.125.91.619-.088 1.125-.497 1.125-.91 0-.412-.506-.822-1.125-.91-.866-.122-1.125.087-1.125.91zm-28.5 6.25c0 4.2.015 4.25 1.25 4.25 1.056 0 1.25-.233 1.25-1.5 0-.825.198-1.5.44-1.5.241 0 .719.675 1.06 1.5.54 1.302.878 1.5 2.56 1.5h1.94l-1.347-2.412-1.346-2.412 1.096-1.54c.604-.847 1.097-1.674 1.097-1.838 0-.164-.799-.298-1.776-.298-1.523 0-1.85.213-2.298 1.5-.595 1.706-1.426 1.544-1.426-.28 0-.968-.258-1.22-1.25-1.22-1.235 0-1.25.05-1.25 4.25zm9 1.5v5.75h1.25c1.056 0 1.25-.233 1.25-1.5 0-1.367.148-1.5 1.673-1.5 2.352 0 3.327-1.27 3.327-4.337 0-3.345-.916-4.163-4.664-4.163h-2.836v5.75zm9.328-4.835c-1.307 1.443-.994 1.744 1.463 1.407 1.708-.234 2.238-.156 2.086.307-.112.342-.862.697-1.665.79-1.97.229-2.712.935-2.712 2.581 0 1.95.826 2.416 4.308 2.433l3.055.014-.245-3.598c-.135-1.98-.469-3.88-.743-4.224-.78-.98-4.577-.782-5.547.29zm7.672 3.335v4.25h3v-8.5h-3v4.25zm4.5 0c0 4.17.023 4.25 1.219 4.25 1.008 0 1.245-.28 1.375-1.62.103-1.068.455-1.678 1.031-1.787.701-.133.875.19.875 1.62 0 1.652.113 1.787 1.5 1.787h1.5v-8.5h-1.5c-1.387 0-1.5.135-1.5 1.787 0 1.431-.174 1.754-.875 1.62-.576-.108-.928-.718-1.031-1.786-.13-1.341-.367-1.62-1.375-1.62-1.196 0-1.219.079-1.219 4.25zm9.5-3.25c-1.436 1.436-1.382 5.105.095 6.48 1.868 1.741 6.405.85 6.405-1.258 0-.893-2.057-.961-2.933-.097-.926.913-2.214-.966-1.798-2.624.423-1.688.618-1.812 1.747-1.107 1.295.809 2.984.77 2.984-.066 0-2.211-4.664-3.164-6.5-1.328zm7.5 3.25v4.25h2.533c3.64 0 5.443-1.089 5.46-3.297.01-1.474-1.539-2.703-3.407-2.703-1.358 0-1.586-.18-1.586-1.25 0-1.055-.233-1.25-1.5-1.25h-1.5v4.25zm9 0c0 4.2.015 4.25 1.25 4.25 1.056 0 1.25-.233 1.25-1.5 0-.825.198-1.5.44-1.5.241 0 .719.675 1.06 1.5.544 1.313.871 1.5 2.618 1.5 1.955 0 1.982-.024 1.266-1.125-2.256-3.472-2.217-3.257-.994-5.388l1.14-1.987h-1.777c-1.436 0-1.869.24-2.253 1.25-.261.688-.706 1.25-.987 1.25-.282 0-.513-.562-.513-1.25 0-1-.25-1.25-1.25-1.25-1.235 0-1.25.05-1.25 4.25zm9.328-3.335c-1.303 1.439-.996 1.744 1.422 1.413 1.793-.246 2.25-.158 2.25.432 0 .504-.526.74-1.65.74-2.013 0-2.85.759-2.85 2.583 0 1.778 1.031 2.294 4.625 2.317l2.875.018v-3.098c0-4.127-.829-5.32-3.701-5.32-1.442 0-2.415.3-2.971.915zm-52.014 2.413c.372 1.479-.304 2.922-1.368 2.922-.73 0-1.22-2.315-.749-3.542.452-1.178 1.762-.794 2.117.62zM3.197 19.195C.848 24.145.291 26.638.077 33.168c-.191 5.793-.083 6.943.993 10.569 1.803 6.076 4.382 10.322 9.07 14.931 18.199 17.896 48.773 10.11 56.549-14.4 1.032-3.255 1.237-4.9 1.237-9.927 0-5.373-.163-6.512-1.507-10.526-.83-2.475-1.828-4.956-2.218-5.513-.869-1.24 1.027-4.246-16.396 25.991-7.487 12.994-13.73 23.622-13.87 23.618-.237-.006-8.683-14.526-23.47-40.35C7.28 22 4.532 17.444 4.357 17.434c-.175-.01-.697.783-1.16 1.76zm105.006-.32c-.486.787-1.777.667-1.777-.165 0-.84 1.069-1.332 1.682-.773.237.217.28.639.095.938zm30.629-.587c-.251 1.303-1.906 1.448-1.906.167 0-.716.321-1.037 1.037-1.037.715 0 .985.27.869.87zm17.094.13c0 .961-.978 1.356-1.662.671-.379-.378.568-1.67 1.223-1.67.242 0 .439.45.439 1zm-79 16v5.5h3.283c4.163 0 5.217-.539 5.217-2.667 0-.898-.27-1.903-.6-2.233-.466-.466-.466-.733 0-1.2.91-.91.719-2.781-.4-3.9-.795-.795-1.666-1-4.25-1h-3.25v5.5zm4.948-3.043c.963.61.308 2.043-.932 2.043-.75 0-1.016-.327-1.016-1.25 0-1.282.715-1.573 1.948-.793zm6.468.788c-2.085 1.163-2.512 5.723-.678 7.245 1.387 1.151 3.937 1.16 5.387.02 1.157-.91 1.375-1.461 1.375-3.469 0-1.67-.272-2.632-.908-3.207-1.316-1.191-3.626-1.454-5.176-.59zm17.742-.26c-1.419.596-2.158 2.026-2.158 4.177 0 3.567 3.864 5.519 6.625 3.347 1.157-.91 1.375-1.46 1.375-3.468 0-1.67-.272-2.632-.908-3.207-1.147-1.039-3.514-1.446-4.934-.85zm25.524.08c-2.984 1.5-2.757 6.661.35 7.948 2.558 1.06 6.117-.564 4.588-2.093-.35-.35-.865-.324-1.624.083-.908.486-1.259.448-1.911-.204-.732-.732-.58-.799 1.808-.799 2.541 0 2.607-.036 2.607-1.444 0-2.837-3.244-4.783-5.818-3.49zm8.693-.2l-1.875.196v11.44h1.25c1.094 0 1.25-.218 1.25-1.738 0-1.635.083-1.721 1.394-1.46.955.192 1.772-.027 2.596-.694.995-.805 1.203-1.43 1.203-3.609 0-2.147-.214-2.807-1.152-3.567-.633-.513-1.52-.895-1.971-.849l-2.695.28zm8.783.139c-2.245.904-2.935 4.926-1.211 7.054 1.818 2.246 6.553 1.232 6.553-1.403 0-.919-1.992-.816-3.068.157-.836.756-.934.73-1.444-.39-.394-.865-.396-1.599-.005-2.627.509-1.337.599-1.375 1.444-.61 1.063.961 3.077 1.087 3.066.19-.012-.913-.599-1.65-1.835-2.3-1.266-.666-1.987-.68-3.5-.071zm25.592.094c-1.044.592-1.729 1.389-1.742 2.027-.013.621 2.894.421 3.105-.213.108-.324.464-.423.792-.22 1.028.635.657 1.116-1.231 1.595-2.161.548-2.94 1.585-2.502 3.33.414 1.65 1.31 1.953 4.618 1.564l2.71-.318v-2.954c0-2.47-.201-3.155-1.227-4.181-1.318-1.318-2.917-1.54-4.523-.63zm-78.495 2.277c-.168 1.306-.52 2.766-.78 3.243-.82 1.5-.554 2.382.714 2.382 1.615 0 2.386-1.075 2.688-3.75.163-1.448.497-2.25.938-2.25.504 0 .685.793.685 3 0 2.867.056 3 1.25 3 1.229 0 1.25-.066 1.25-4v-4h-6.438l-.307 2.375zm16.745 1.625v4h1.5c1.334 0 1.5-.166 1.5-1.5 0-1.166.222-1.5 1-1.5s1 .334 1 1.5c0 1.334.167 1.5 1.5 1.5h1.5v-8h-1.5c-1.333 0-1.5.167-1.5 1.5 0 1.167-.222 1.5-1 1.5s-1-.333-1-1.5c0-1.333-.166-1.5-1.5-1.5h-1.5v4zm8.5-3c0 .734.334 1 1.25 1 1.195 0 1.25.134 1.25 3v3h3v-3c0-2.866.056-3 1.25-3 .917 0 1.25-.266 1.25-1 0-.916-.333-1-4-1-3.666 0-4 .084-4 1zm34 3v4h3.173c2.438 0 3.364-.211 4-.914 1.77-1.956.66-4.44-2.189-4.896-1.492-.239-1.984-.55-1.984-1.254 0-.706-.367-.936-1.5-.936h-1.5v4zm9 0c0 3.934.021 4 1.25 4 1 0 1.25-.25 1.25-1.25 0-.687.189-1.25.42-1.25.231 0 .676.563.989 1.25.451.99.938 1.25 2.331 1.25.968 0 1.76-.124 1.76-.276 0-.151-.49-1.128-1.09-2.17l-1.09-1.894 1.131-1.83 1.131-1.83h-1.802c-1.436 0-1.917.254-2.371 1.25-.313.688-.758 1.25-.989 1.25-.231 0-.42-.562-.42-1.25 0-1-.25-1.25-1.25-1.25-1.229 0-1.25.067-1.25 4zm-72.5 0c0 1.7-1.056 2.744-1.912 1.888-1.386-1.386-.196-5.015 1.25-3.815.364.302.662 1.17.662 1.927zm42.5-1.22c0 .735-1.067.986-1.662.391-.452-.452.668-1.726 1.219-1.386.244.15.443.598.443.995zm9 1.22c0 1.7-1.056 2.744-1.912 1.888-1.386-1.386-.196-5.015 1.25-3.815.364.302.662 1.17.662 1.927zm-34.217-.796c.38 1.51-.554 3.353-1.512 2.985-.826-.317-1.146-1.46-.857-3.064.278-1.544 1.976-1.488 2.369.079zm-26.648.921c.384 1.102-.208 1.875-1.438 1.875-.943 0-1.197-.265-1.197-1.25 0-.988.253-1.25 1.209-1.25.664 0 1.306.282 1.426.625zm77.771 1.006c.116.6-.154.87-.869.87-.716 0-1.037-.322-1.037-1.037 0-1.282 1.655-1.136 1.906.167zm17.094.09c0 .871-.82 1.45-1.478 1.043-.665-.412-.066-1.764.782-1.764a.71.71 0 0 1 .696.72zm-54.75 10.28c-.17.274-.706.5-1.192.5-1.505 0-3.153 2.254-3.427 4.688-.499 4.426.719 6.311 4.077 6.311 2.723 0 3.792-1.103 3.792-3.914 0-2.843-1.438-4.308-3.847-3.917-1.439.234-1.636.164-1.159-.411.317-.382 1.237-.839 2.045-1.016 1.256-.276 2.461-1.48 2.461-2.459 0-.495-2.428-.304-2.75.217zm-43.806.75c-2.727 1.481-3.26 7.034-.915 9.53 1.597 1.7 5.314 1.733 6.884.062 1.568-1.669 1.422-2.843-.354-2.843-1.022 0-1.518.292-1.704 1-.337 1.29-2.153 1.31-2.837.033-1.222-2.284-.28-6.033 1.516-6.033.548 0 1.127.338 1.285.75.31.806 3.181 1.069 3.181.291 0-1.128-.728-2.133-2.036-2.81-1.756-.908-3.325-.902-5.02.02zm8.806 5.25c-.191 1.65-.551 3.126-.799 3.28-.839.518-.49 2.22.454 2.22 1.78 0 2.717-1.239 2.976-3.937.344-3.58 1.33-3.028 1.518.85.14 2.902.222 3.086 1.375 3.086 1.205 0 1.226-.072 1.226-4.25v-4.25h-6.402l-.348 3.001zm8.787 1.344l1.493 4.405-1.069.874c-1.972 1.612.13 3.32 2.154 1.751.444-.343 1.505-2.65 2.358-5.125a1072.11 1072.11 0 0 1 1.808-5.214c.177-.493.642-.146 1.501 1.119l1.245 1.832-1.013 1.987c-1.292 2.532-1.293 2.526.473 2.526 1.163 0 1.681-.354 2.374-1.625l.887-1.625.158 1.625c.138 1.42.339 1.625 1.594 1.625 1.255 0 1.457-.205 1.595-1.625l.158-1.625.886 1.625c.745 1.364 1.173 1.625 2.672 1.625h1.784l-1.324-2.26c-1.318-2.248-1.32-2.267-.38-3.625 1.785-2.578 1.784-2.615-.098-2.615-1.478 0-1.912.266-2.654 1.625l-.886 1.625-.158-1.625c-.138-1.42-.34-1.625-1.595-1.625s-1.456.206-1.594 1.625l-.158 1.625-.887-1.625c-.856-1.569-.995-1.625-4.056-1.625h-3.169l-.743 1.875-.744 1.875-.478-1.75c-.402-1.472-.728-1.774-2.053-1.905l-1.575-.155 1.494 4.405zm31.575-3.566c-1.716 1.202-1.348 1.826.968 1.64 1.346-.11 2.154.052 2.291.456.135.396-.273.625-1.112.625-2.086 0-3.259.87-3.259 2.418 0 2.08.856 2.582 4.407 2.582h3.206l-.201-3.554c-.156-2.765-.412-3.71-1.152-4.25-1.262-.924-3.77-.883-5.148.083zm-4.815 4.462c-.453 1.805-1.99 1.499-2.212-.44-.195-1.706.843-2.587 1.855-1.575.443.443.571 1.164.357 2.015zm8.203.51c0 .416-.444.75-1 .75-.996 0-1.3-.534-.666-1.167.609-.61 1.666-.345 1.666.416z" fill="#fff"/></svg>