<svg width="259" height="40" viewBox="0 0 259 40" fill="none" xmlns="http://www.w3.org/2000/svg"><mask id="a" maskUnits="userSpaceOnUse" x="0" y="0" width="259" height="40"><path fill="#fff" d="M0 0h259v40H0z"/></mask><g mask="url(#a)" fill-rule="evenodd" clip-rule="evenodd" fill="#fff"><path d="M56.972 29.393l1.68-17.32h.002V9.287l-.102-.943-.104-.841-.265-.368-.107-.366-.261-.262-.262-.103-.315-.269h-.37l-.893-.258-.842-.265-.26-.104-.11-.265-.104-.312v-.16l.104-.258.11-.215.155-.103h.21l.525-.157h22.712l.634.157h.26l.21.158v1.26l-.103.79-.107.839-.158.735v.787l-.102.733v1.68l-.162.265-.103.26-.213.108-.422.159-.21-.16h-.261l-.104-.106v-.26l-.157-.368v-.312l-.106-1.16V9.29l-.264-.418-.101-.524-.265-.213-.26-.366-.37-.263-.417-.262-.582-.105-.416-.26-.687-.106-1.475-.16-1.733-.103h-3.52l-.265.103-.473.16-.158.261-.157.21-.159.366-.157.525v.632l-.737 8.136v.526l.262.154.263.106.212.105h2.785l.839-.105.893-.106.736-.312.738-.368.627-.474.477-.576.37-.737.419-.79.21-.525.158-.104h.265l.264-.16.26.16h.105l.052.104.158.265v.893l-.21 1.047v.996l-.21 1.051-.155 1.159-.108 1.992-.156 2.1v.42l-.16.417-.104.159-.159.106-.315.207h-.313l-.213-.207-.157-.106v-.159l-.104-.261-.265-.788v-.521l-.26-.372-.367-.626-.368-.527-.477-.368-.629-.262-.63-.265h-1.474l-.893-.1-.786.1h-.685l-.527.162-.208.264-.42.207-.107.265-.106.367-.105.473-.528 7.922-.102 1.206v.841l.102.627.16.265.105.262.104.212.261.155.475.103.634.107h2.624l1.473-.21 1.368-.265 1.258-.367 1.16-.526.894-.47.843-.525.68-.631.63-.473.473-.573.788-.996.631-.739.214-.261h.631l.103.106v.155l.159.37v.262l-.159.89-.103.894-.366.998-.372.735-.261.787-.477.733-.628.738-.634.524-.785.731-.845.317-.838.368H53.346l-.265-.104-.103-.105-.16-.159v-.207l.16-.265.103-.369.265-.207.157-.107.683-.309.685-.212.47-.364.421-.371.37-.368.265-.526.101-.627.265-.63.209-1.839zm26.026 4.938l-.948-6.513-.16-.783-.158-.313v-.423l.158-.103.156-.265.214-.105.53-.158.365.158.107.105.26.265.104.208.265.63.21.63.632 1.263.838 1.312.372.574.475.684.523.473.527.523.418.369.74.524.578.211.63.262.788.369.681.106.791.154h.735l1.209-.154h.58l.524-.213.634-.262.473-.101.416-.372.53-.264.365-.367.371-.367.367-.42.26-.473.216-.472.156-.63.104-.576.104-.58v-1.412l-.208-.523-.265-.473-.261-.525-.473-.366-.371-.369-.63-.366-1.258-.788-1.475-.422-2.996-1.099-1.472-.686-1.469-.785-.69-.367-.628-.47-.63-.525-.631-.53-.579-.629-.473-.582-.366-.733-.265-.784-.208-.945-.16-1.052v-2.992l.265-.946.21-.787.42-.891.472-.838.576-.739.478-.573.736-.627.683-.633.792-.53.68-.576.895-.37 1-.259.891-.21 1-.155.946-.214 1.471.214 1.262.154 1.154.368.845.158 1.63.789.632.101.631.109.524-.109.579-.312.58-.16.366-.104h.315l.316.104.102.472-.102.37v7.66l-.316.263-.21.161-.37.104h-.469l-.107-.104-.212-.161-.104-.102-.104-.63-.265-.63-.16-.735-.261-.68-.265-.476-.47-.683-.423-.417-.471-.687-.475-.52-.523-.37-.476-.471-.629-.367-.634-.262-.63-.265-.629-.26-.634-.106-.628-.106-.843-.158-.947.158-.893.212-.997.42-.738.366-.368.366-.367.21-.265.42-.314.366-.156.366-.162.372-.104.522v.37l-.101.785.101.63.104.63.214.472.418.422.367.47.525.366.472.37 1.265.63 1.367.576 3.05 1.156 1.681.63 1.472.786.63.367.634.37.576.475.685.628.47.625.527.527.368.736.265.891.21.894.316.942v2.154l-.16.896-.313.838-.159.891-.365.893-.581.839-.472.996-.631.735-.63.734-.9.738-.737.629-.893.683-.947.525-1.05.367-1.103.259-1.368.317H91.46l-1.002-.156-1.1-.316-1-.104-1.942-.471-2.052-.635h-.369l-.368-.101-.365-.213-.106-.157-.159-.154zm24.867-4.938l1.788-17.32h-.001V9.29l-.107-.943-.261-.841-.104-.368-.21-.366-.265-.262-.212-.103-.212-.268h-.417l-.895-.259-.842-.265-.156-.104-.208-.265-.16-.312v-.16l.16-.258.103-.215.104-.103h.265l.527-.157h22.713l.58.157h.315l.103.158.106.16v.258l-.21 1.633-.159 1.572-.155.787v2.408l-.16.264-.103.26-.265.108-.526.159-.21-.16h-.105l-.158-.106-.107-.26v-.68l-.155-1.16-.108-.313-.106-.418-.156-.524-.209-.213-.422-.366-.21-.263-.527-.262-.366-.105-.63-.26-.473-.106-1.578-.16-1.786-.103h-3.475l-.207.103-.422.16-.212.261-.26.21-.158.366-.106.525v.632l-.841 8.136v.526l.314.154.261.106.372.105h2.628l.841-.105.895-.106.737-.312.893-.369.525-.473.578-.576.368-.737.37-.785.262-.526.104-.104h.262l.265-.16.264.16h.103l.105.104v.63l-.105.53-.103 2.042-.264 2.21-.158 1.992v.995l-.107 1.103v.42l-.101.418-.264.158v.106l-.369.208h-.265l-.21-.208V24.3l-.264-.42-.319-.787-.154-.521-.106-.372-.316-.626-.471-.527-.525-.368-.477-.262-.732-.265h-1.526l-.843-.1-.786.1h-.578l-.53.162-.415.264-.265.207-.054.265-.104.367-.16.473-.788 7.927v2.047l.107.627.156.264.265.263.107.212.314.155.422.103.682.107h2.471l1.525-.21 1.314-.265 1.313-.367 1.049-.526 1.002-.47.787-.525.635-.632.573-.472.525-.573.845-.995.632-.739.264-.26h.681v.101l.107.155.105.37v.262l-.105.89-.21.894-.735 1.733-.264.787-.476.733-.629.738-.579.524-.734.731-.897.317-.732.369h-20.928l-.317-.105-.102-.105-.16-.159v-.472l.261-.37.161-.206.264-.107.634-.309.629-.213.472-.363.368-.371.367-.372.261-.526.265-.627.21-.63.158-.839v-.998zM49.35 36.165H35.944v.002h-13.25l-.208-.104-.265-.265v-.316l.104-.156.164-.152.208-.316.422-.105.47-.108.368-.157.42-.157.312-.32.265-.256.314-.371.265-.368.056-.526.103-.523v-.473l-.103-.838-.527-1.523-.473-1.837-.212-.473-.315-.525-.21-.103-.264-.265-.265-.105-.366-.158-1.103-.105h-8.832l-.37.105-.422.264-.418.367-.26.422-.474.313-.631 1-.525 1.203-.368 1-.265 1.103-.105.786v.368l.105.265.103.262.318.212.576.526.687.364 1.048.212 1 .31.368.106.265.207.206.37v.629l-.105.105-.1.104H2.401l-.107-.104-.158-.105v-.632l.265-.369.102-.207.423-.107.627-.308.476-.213.574-.524.424-.365.429-.476.258-.633L21.38 5.247l.318-.89.417-.419.211-.261.37-.214.155.214.267.261.206.578 9.411 25.3.265 1.417.472.735.262.787.318.63.524.628.369.214.26.106.265.154.476.157h.368l.264-.157.367-.154.368-.106.105-.214.26-.257.529-.634.21-.63.314-.627.213-.736.104-.527 1.839-20.996.155-.996-.261-.733-.315-.631-.319-.63-.525-.207-.469-.268-.845-.153-.632-.106h-.364l-.369-.264-.156-.262v-.58l.156-.26.107-.214.261-.103h.365l.739-.157h12.828l.365.157h.11l.102.103.16.215v.418l-.264.312-.265.11-.209.157-.995.367-.631.259-.53.371-.368.369-.367.47-.104.527-.16.625-.157 1.103-1.947 20.997v.893l.211.473.106.42.103.367.212.262.58.47.471.37.685.262.525.213h.839l.264.309.158.314.11.634-.11.207-.316.16-.206.104-.265.105zm-31.179-21.47l-3.518 6.352-.265.53-.213.365-.155.368v.265l.155.153.106.16h.21l.527.104h6.835l.634-.104h.208l.154-.16h.108v-.42l-.108-.367-.524-1.154-2.471-6.456-.472-.632-.211-.161h-.367v.16l-.316.37-.317.628zm144.845-9.762l.106 6.405.006-.002V12.7l.108.574-.108.53v.264l-.106.365-.42.265-.21.104-.261-.104-.109-.158-.261-.365-.265-.37-.107-.367-.525-.997-.525-.892-.526-.785-.471-.686-.634-.787-.682-.682-.422-.474-.686-.525-.733-.47-.631-.367-.735-.365-.631-.268-.738-.153-.733-.212h-.632l-.895-.157-1.05.157-1.159.106-.998.106-.893.42-.947.366-.891.471-.792.632-.891.733-.582.787-.786 1.051-.474.996-.58 1.261-.525 1.366-.366 1.522-.212 1.68-.26 1.781v2.524l.157 1.416.103 1.152.368 1.313.371 1.103.473 1.103.681.998.635.893.731.838.948.736.839.63.893.47 1.103.368.996.265h2.628l1.478-.265 1.362-.474 1.368-.47 1.262-.63 1.264-.788 1.155-.893.999-.89.476-.42.574-.578.631-.26.212-.162h.523l.109.162.154.102v.366l-.154.262-.109.525-.365.472-.529.63-.63.839-.683.735-.843.736-.944.733-1.001.788-1.209.735-1.26.63-1.368.577-1.473.472-1.577.368-.839.316-.844.155h-3.206l-1.368-.316-1.471-.259-1.368-.471-1.42-.736-1.211-.63-1.206-.84-1.103-.895-1.001-.996-.838-1.103-.79-1.26-.21-.681-.367-.788-.159-.631-.211-.735-.259-.838-.162-.838v-.734l-.159-.891.159-.946v-.997l.162-1.103.102-1.154.263-.997.265-.995.366-1.052.365-1.05.265-.893.475-.891.365-.735.53-.838.472-.684.472-.785.735-.58.476-.686.629-.473.633-.63 1.263-.892 1.315-.839 1.627-.628 1.523-.633 1.315-.475 1.629-.21 1.525-.155 1.524-.213.892.213h.898l1.627.261 1.577.364 1.368.473 2.104.843.735.264.63.106h.42l.211-.211.262-.262.264-.265.107-.312.265-.265.37-.154.363-.16.265.16.104.154.159.105v.16zm1.159 28.61l-.42-.055-.424.057-.417.106-.315.208-.317.262-.265.317-.211.364-.153.422v.839l.153.42.211.364.265.317.317.263.315.16.417.154h.844l.419-.155.37-.159.316-.263.261-.317.213-.365.102-.42.051-.418-.051-.422-.102-.423-.213-.363-.261-.317-.316-.262-.37-.208-.419-.106zm-.79.26l.37-.047.368.047.365.106.319.157.312.264.214.262.157.314.105.368.052.368-.052.369-.105.362-.157.32-.214.258-.312.265-.319.155-.365.105-.368.055-.37-.054-.367-.105-.314-.156-.264-.265-.209-.258-.211-.32-.105-.362-.052-.369.052-.368.105-.368.211-.314.209-.262.264-.264.314-.157.367-.105zm1.421 1.154l.052.16h-.212l-.106-.26-.209-.16-.21-.158-.264-.052-.262.052-.211.055-.152.104-.108.158-.106.155-.105.212-.054.208v.421l.054.211.105.157.106.21.108.107.152.102.211.106h.422l.158-.05.106-.057.105-.102.209-.265.053-.313h.263l-.052.209-.052.208-.105.16-.107.16-.16.102-.206.103-.161.053h-.524l-.212-.106-.207-.102-.211-.155-.107-.215-.102-.258-.054-.212v-.526l.054-.261.102-.21.107-.21.211-.159.207-.103.212-.104.313-.054.161.054h.157l.212.104.101.05.16.157.105.107.053.207zM-2.979 2.267h170.652v36.578H-2.979V2.267z"/><path d="M58.652 12.072l-1.68 17.321-.21 1.839-.264.63-.101.627-.265.526-.37.368-.421.371-.47.364-.685.212-.683.31-.157.106-.265.207-.103.37-.16.264v.207l.16.16.103.104.265.104H74.27l.838-.368.844-.317.786-.731.634-.524.628-.738.477-.733.26-.787.373-.735.366-.998.103-.894.159-.89v-.262l-.159-.37v-.155l-.103-.106h-.631l-.214.261-.631.739-.788.996-.473.573-.63.473-.68.631-.843.526-.894.469-1.16.526-1.258.367-1.368.264-1.473.211h-2.624l-.634-.107-.475-.103-.26-.155-.105-.212-.105-.262-.16-.265-.102-.627v-.841l.102-1.206.528-7.922.105-.473.106-.367.106-.265.421-.207.208-.264.527-.162h.685l.786-.1.893.1h1.473l.631.265.63.262.475.368.369.527.366.626.261.372v.52l.265.789.104.261v.159l.157.106.213.207h.313l.315-.207.159-.106.104-.159.16-.418v-.42l.156-2.1.108-1.991.155-1.159.21-1.051v-.996l.21-1.047v-.893l-.158-.265-.052-.104h-.105l-.26-.16-.264.16h-.265l-.158.104-.21.526-.418.789-.37.737-.478.576-.627.474-.738.368-.736.312-.893.106-.839.105h-2.785l-.212-.105-.263-.106-.262-.154v-.526l.737-8.136v-.632l.157-.525.159-.366.157-.21.158-.261.473-.16.264-.103h3.521l1.733.103 1.475.16.687.106.416.26.582.105.417.262.37.263.26.366.265.213.1.524.265.418v.314l.106 1.159v.312l.157.367v.26l.104.108h.26l.21.159.423-.16.213-.106.103-.26.162-.265v-1.68l.102-.734v-.787l.158-.735.107-.839.103-.79v-1.26l-.21-.158h-.26l-.633-.157H55.762l-.524.157h-.211l-.156.103-.109.215-.104.258v.16l.104.312.11.265.26.104.842.265.892.258h.371l.315.269.262.103.26.262.108.366.265.368.104.841.102.943v2.784h-.002zM82.05 27.818l.948 6.513.159.154.106.157.365.213.368.1h.369l2.052.636 1.941.471 1 .104 1.101.316 1.002.156h2.206l1.368-.317 1.103-.259 1.05-.367.947-.525.893-.684.738-.628.899-.738.63-.734.631-.735.472-.996.581-.839.365-.893.159-.891.313-.838.16-.896v-2.153l-.316-.943-.21-.894-.265-.891-.368-.736-.527-.527-.47-.625-.685-.628-.576-.475-.634-.37-.63-.367-1.472-.785-1.68-.631-3.05-1.156-1.368-.576-1.265-.63-.472-.37-.525-.367-.367-.469-.418-.422-.214-.472-.104-.63-.101-.63.101-.784v-.37l.104-.523.162-.372.156-.366.314-.366.265-.42.367-.21.368-.366.738-.365.997-.421.893-.212.947-.158.843.158.628.106.634.106.629.26.63.265.634.262.629.367.476.47.523.37.475.521.471.687.423.417.47.683.265.477.261.68.16.735.265.628.104.631.104.102.212.161.107.104h.469l.37-.104.21-.161.316-.263V5.62l.102-.37-.102-.472-.316-.104h-.315l-.366.104-.58.16-.579.312-.524.109-.631-.109-.632-.101-1.63-.789-.845-.158-1.154-.368-1.262-.154-1.471-.214-.947.214-.999.154-.891.211-1 .26-.895.37-.68.575-.792.53-.683.633-.736.627-.478.573-.576.739-.471.838-.422.891-.21.787-.264.946v2.992l.16 1.052.208.945.265.784.366.733.473.582.579.63.631.529.63.524.627.47.691.368 1.469.785 1.472.686 2.996 1.1 1.475.421 1.259.788.629.366.37.369.474.366.261.526.265.472.208.523v1.412l-.104.58-.104.576-.156.63-.215.472-.26.473-.368.42-.37.367-.366.367-.53.264-.416.372-.473.101-.634.262-.524.213h-.58l-1.209.154h-.735l-.79-.154-.682-.106-.788-.369-.63-.262-.578-.21-.74-.525-.418-.37-.527-.522-.523-.473-.475-.684-.372-.574-.838-1.312-.633-1.262-.209-.632-.265-.63-.103-.207-.261-.265-.107-.105-.365-.158-.53.158-.214.105-.156.265-.158.103v.423l.158.313.16.783zm27.603-15.746l-1.788 17.321v.998l-.158.839-.21.63-.265.627-.261.526-.367.372-.368.37-.472.364-.629.213-.634.309-.264.107-.161.207-.261.369v.472l.16.16.102.104.317.105h20.928l.732-.369.897-.317.734-.731.579-.524.629-.738.476-.733.264-.787.735-1.733.21-.894.105-.89v-.262l-.105-.37-.107-.155v-.102h-.681l-.264.261-.632.74-.845.994-.525.573-.573.472-.635.632-.787.525-1.002.47-1.049.526-1.313.367-1.314.264-1.525.211h-2.471l-.682-.107-.422-.103-.314-.155-.107-.212-.265-.263-.156-.264-.107-.627v-2.047l.788-7.927.16-.473.104-.367.054-.265.265-.207.415-.264.53-.162h.578l.786-.1.843.1h1.526l.732.265.477.262.525.368.471.527.316.626.105.372.155.52.319.789.264.42v.105l.21.208h.265l.369-.208V24.3l.264-.158.101-.418v-.42l.107-1.103v-.995l.158-1.992.264-2.21.103-2.042.105-.53v-.63l-.105-.104h-.103l-.264-.16-.265.16h-.262l-.104.104-.262.526-.37.785-.368.737-.578.577-.525.473-.893.368-.737.312-.895.106-.841.105h-2.628l-.372-.105-.261-.106-.314-.154V16.9l.841-8.136v-.632l.106-.525.158-.366.26-.21.212-.261.422-.16.207-.103h3.475l1.786.103 1.578.16.473.106.63.26.366.105.527.263.21.262.422.366.209.213.156.524.106.418.108.314.155 1.159v.68l.107.26.158.107h.105l.21.159.526-.16.265-.106.103-.26.16-.265V8.767l.155-.787.159-1.572.21-1.633v-.258l-.106-.16-.103-.158h-.315l-.58-.157h-22.713l-.527.157h-.265l-.104.103-.103.215-.16.258v.16l.16.312.208.265.156.104.842.265.895.259h.417l.212.268.212.103.265.262.21.366.104.368.261.841.107.943v2.781h.001zM35.944 36.165H49.35l.265-.105.206-.105.316-.159.11-.207-.11-.634-.158-.314-.264-.309h-.839l-.525-.213-.685-.261-.471-.37-.58-.47-.212-.263-.103-.367-.106-.42-.21-.473v-.893L47.93 9.605l.156-1.103.16-.625.105-.527.367-.47.368-.369.53-.371.631-.259.995-.367.209-.158.265-.109.264-.312v-.418l-.16-.215-.103-.103h-.108l-.366-.157H38.415l-.74.157h-.364l-.26.103-.108.215-.156.258v.581l.156.262.369.264h.364l.632.106.845.153.47.268.524.206.319.63.315.632.261.733-.155.996-1.839 20.996-.104.527-.213.736-.314.626-.21.63-.53.635-.259.257-.105.214-.368.106-.367.154-.264.157h-.368l-.476-.157-.265-.154-.26-.106-.37-.214-.523-.628-.318-.63-.262-.787-.472-.735-.265-1.417-9.41-25.3-.207-.578-.267-.261-.155-.214-.37.214-.21.261-.418.419-.318.89L5.715 32.122l-.258.633-.43.476-.423.365-.574.524-.476.213-.627.308-.423.107-.102.207-.265.37v.63l.157.106.108.104h11.252l.101-.104.105-.105v-.63l-.206-.37-.265-.206-.368-.107-1-.309-1.048-.212-.687-.364-.576-.526-.318-.212-.103-.262-.105-.265v-.368l.105-.786.265-1.104.368-.998.525-1.205.631-1 .473-.312.261-.422.418-.366.422-.265.37-.105h8.832l1.104.105.365.158.265.105.264.265.21.103.315.525.212.473.473 1.837.527 1.523.103.838v.473l-.103.523-.056.526-.265.368-.314.371-.265.257-.313.32-.419.156-.368.157-.47.108-.422.105-.208.316-.164.152-.104.156v.316l.265.265.209.104h13.248l.001-.002zM14.653 21.047l3.518-6.351.317-.629.316-.368v-.161h.367l.21.16.473.633 2.47 6.456.525 1.154.108.367v.42h-.108l-.154.16h-.208l-.634.104h-6.835l-.527-.104h-.21l-.106-.16-.155-.154v-.264l.155-.368.213-.364.265-.53zM242.98 8.607l.105-.37.264-.364.368-.736.525-.732.212-.42.107-.37.206-.842V1.625l.16-.525.103-.367.108-.105.365-.26.261-.109.477-.105.525-.154.63.154.422.105.474.108.418.366.109.264.102.265.103.474.158.418v.893l-.261.786-.21.685-.316.63-.314.367-.262.104-.316.157h-.106l-.263-.157-.104.63-.055.525v.734l.159.629.369 1.051.316.418.104.682.158.578v2.574l.107.632.105.26.102.368.787.893 1.264 1.312.736.525 1.002.628.843.63.261.212.101.317.162.312v.258l-.162.27-.21.1-.366.264h-.424l-.733.16-.105-.424-.264-.47-.367-.47-.477-.424-.473-.475-.63-.366-.632-.366-.522-.312v2.255l.206 1.053.424.838.205 1 .424 1.31.998 2.571.843 2.154.368.89.157.475.576 1.677.53 1.522.633 1.315.889 1.835.161.316.264.262.265.102.418.053h1.472l.739-.053.526.053.21.16.104.157.159.26v.265l-1.475.369-1.101.366-1.315.37-.844.364-.366.162h-.476l-.152-.162-.109-.209-.104-.155-.158-.472-.265-.632-.732-1.42-.844-1.465-.736-1.368-.63-1.52-.526-.838-.526-.893-1.261-1.784-.472-.787-.527-.838-.209-.893-.264-.368v-.578l-.161.947-.208.788-.265.734-.265.735-.786 1.365-.895 1.103-1.789 2.72-.996 1.258-.845 1.524-.259.471-.107.263v.472l.107.368.101.263.158.265.474.364.372.368.42.372.104.104-.104.156-.106.105-.314.105-.265.156h-.946l-.265-.157-.265-.104-.469-.53-.793-.837-.629-.632-.315-.524-.261-.317v-.262l.101-.471.475-.839.424-.576.101-.418.735-.947.794-1.157.574-1.206.529-1.313.37-1.048.42-.841.21-.996.101-.629v-.737l.687-4.148.265-2.258.103-2.15-.265.68-.207.733-.475 1.63-.208 1.633-.104 1.151-.686.265-.365.103-.373.107h-.365l-.208-.107-.267-.207-.157-.47v-.216l.157-.52.475-1 .523-.997.16-.369.055-.264.155-.996.104-1.052.582-1.781.414-1.684.686-1.469.998-2.308.368-.578v-.578l.001-.002zm-79.859 2.73l-.106-6.404v-.16l-.159-.105-.104-.154-.265-.16-.363.16-.37.154-.265.265-.107.312-.264.265-.262.262-.211.211h-.42l-.63-.106-.735-.264-2.104-.843-1.368-.473-1.577-.364-1.627-.26h-.898l-.892-.214-1.524.213-1.525.155-1.629.21-1.315.475-1.523.633-1.627.628-1.315.839-1.263.893-.633.629-.629.473-.476.685-.735.58-.472.786-.472.684-.53.838-.365.735-.475.891-.265.894-.365 1.05-.366 1.05-.265.996-.263.997-.102 1.154-.162 1.103v.997l-.159.946.159.89v.735l.162.838.259.838.211.735.159.631.367.788.21.682.79 1.26.838 1.102 1.001.996 1.103.894 1.206.842 1.211.63 1.42.735 1.368.471 1.471.259 1.368.316h3.206l.844-.155.839-.316 1.577-.368 1.473-.472 1.368-.577 1.26-.63 1.209-.735 1.001-.788.944-.733.843-.736.683-.735.63-.838.529-.631.365-.472.109-.525.154-.262v-.366l-.154-.102-.109-.162h-.523l-.212.162-.631.26-.574.578-.476.42-.999.89-1.155.893-1.264.788-1.262.63-1.368.47-1.362.474-1.478.265h-2.628l-.996-.265-1.103-.368-.893-.47-.839-.63-.948-.736-.731-.838-.635-.893-.681-.998-.473-1.103-.371-1.103-.368-1.313-.103-1.152-.157-1.416v-2.524l.26-1.781.212-1.68.366-1.522.525-1.366.58-1.26.474-.997.786-1.051.582-.787.891-.733.792-.632.891-.47.947-.366.893-.421.998-.106 1.159-.106 1.05-.157.895.157h.632l.733.212.738.153.631.268.735.365.631.366.733.47.686.526.422.474.682.682.634.787.471.686.526.785.525.892.525.997.107.367.265.37.261.365.109.158.261.104.21-.104.42-.265.106-.365v-.265l.108-.53-.108-.573v-1.364l-.006.002zm66.242 18.055l-.214.998-.154.839-.42 1.363-.214 1.261-.205 3.202v.418l.104.265.102.105.213.264.574.367.634.369 1.103.526.213.26.153.106-.153.104h-.107l-.104.157h-4.891l-.21-.157-.159-.104v-.627l.159-.369.21-.264.105-.208.103-.527v-.68l.161-.893-.161-1.523-.103-1.522v-.734l.103-.735-1.677.944-.949.634-.423.525-.47.47-.265.107v.154l-.104.47.104.739.107.471.265 1.311v.369l-.107.264-.264.159-.104-.159-.524-.368-.686-.998-.683-1.419-.576-.683-.056-.417v-.368l.056-.262.942-.211.214-.265.418-.261.997-1.103.998-1.104 1.109-1.26.628-.578.946-.628.265-.37.317-.787.21-.313.104-.422v-.366l-.104-.265-.689-1.365-.576-1.208-.473-1.412-.261-.737-.212-.888-.155-1.002v-.942l.155-.681.212-.737.261-.683.159-.785.105-.789v-.895l-.265.265-.261.265-.212.733-.524 1.628-.578 1.52-.16.477-.155.365-.108.106-.21.418-.153.47-.265.16-.107.108-.26.1-.368-.1-.264-.108-.107-.261-.157-.158.157-.21.37-.419.262-.212.261-.37.104-.626.108-.787.264-1.206v-.105l.364-1.522.263-.792.739-1.575.369-.94.264-.893.262-.684.101-.946.158-.734.21-.367.105-.367.473-.786.264-.74.209-.945.318-.942v-.42l.105-.577.156-.475.156-.522.265-.475.58-.417.419-.212.314-.106h.261l.634.106.372.107.312.105.157.262.265.525.213.367v.997l.153.212v.21l-.153.314v.471l-.107.21-.104.315-.265.314-.158.104-.209.16-.265.211-.211-.21v.21h-.26v.1l-.16.11-.105.26-.109.266v.105l.109.153.265.474.471 1.263.473 1.103.42.787.105.521-.105.578-.42.839-.312.579v.158l-.161.265.63.836.629.895 1.895 2.468.473.68.105.211.105.263v.26l-.105.267-.105.207-.315.262-.317.162h-.26l-.104-.162-.109-.155-.313-.314v-.474l-.107-.42-.367-.577-.476-.578-.629-.525-.63-.418-.631-.629v1.147l.16.792.26 1.153.372 1.73.312 1.632.157 1.575.265 2.206v2.467l-.159.369-.105.419-.267.366-.466.416-.526.155zM169.957 7.98l.104.521.21.265v-.419l.105-.472.213-.265.258-.365.529-.63.103-.207.214-.42.155-1.212V3.36l-.369.996-.103.418-.421.472-.108.265-.257.262-.214.106-.315-.106-.261.735-.158.734v.366l.315.371zM203.6 34.333l.634 1.466.105.16.265.208h.106l.258.155.53.161h.526l1.154-.161h.895v-2.726l.103-1.208.265-1.577.16-1.256.101-.737v-.155l-.101.157-.16.419-.265.317-.207.262-.476.313-.315.265-1.471 1.575-1.103 1.263-1.004 1.099zm-17.924-3.94l.525 1.368.315 1.259.474-2.625.104-1.26v-.472l-.104.157-.475.522-.16.367-.679.684zm-16.669 2.838l-.469 1.522-.158.731-.109.476.109.21.158.47.208.21.261.37.634.524.788.631-.368-.631-.262-.369-.264-.472v-.053l.421-.365.104-.316.21-.209-.314-.631-.421-.576-.528-1.522zm13.934-15.174l-.63-.367-.525-.26v1.257l.155.841.105 1.053.265.997.473 1.312.525 1.256 1.207 2.888.37-.838.261-1.418.265-1.47V21.89l-.106-.314v-.159l-.158.16v.104l-.05.366-.106.37-.315.471v.104h-.474l-.526-.104-.367-.314-.108-.264-.261-.262v-.472l.108-.634.153-.524-.153-.734-.108-1.628zm-4.626 10.395l1.26 2.359.368.948.105.364v.474l.893-1.26.999-1.207-.891-1.312-.839-1.153-.265-.632-.21-.63-.314-.576v-.841l-.473 1.838-.265.839-.368.788zm13.039-13.912l-.211-.209-.105-.155-.63 5.98.104 3.046v4.83l.26-.577.264-.63v-.63l.105-.998.37-1.995.366-1.995.53-1.992v-1.103l.158-1.103-.37-.574-.473-.738-.367-.734v-.423h-.001zm-14.511 23.728l-.105.105.264.102.21.157.632.107 1.051.106-.578-1-1.208-2.888.838-.625-.312-.736-.317-.839-.315-.787-.265-.209-.158-.264-.208.369-.265.258-.265.265-.366.368v2.1l.103 1.104.158.524.105.418h.631l.261.16h.265l.107.312.208.105v.265l.211.369h-.419l-.263.154zm-3.366-1.051l-.103-.579V35.8l-.261.368-.371.68.735.369zm-.941-5.095l-.586-1.1-.681-1.313-.422.526.214.421.208.577.21 1.258.214.997.843-1.366zm-8.781 1.366l.42.055.419.106.37.208.316.262.261.317.213.363.102.423.051.422-.051.419-.102.42-.213.364-.261.317-.316.263-.37.16-.419.154h-.844l-.417-.155-.315-.159-.317-.263-.265-.317-.211-.365-.153-.42v-.838l.153-.422.211-.364.265-.317.317-.262.315-.208.417-.106.424-.057zm0 .268l-.37.047-.367.106-.314.157-.264.264-.209.262-.211.314-.105.368-.052.368.052.369.105.362.211.32.209.258.264.265.314.155.367.105.37.055.368-.054.365-.105.319-.156.312-.265.214-.258.157-.32.105-.362.052-.369-.052-.368-.105-.368-.157-.314-.214-.262-.312-.264-.319-.157-.365-.105-.368-.048zm1.103 1.361l-.052-.16-.053-.207-.105-.107-.16-.157-.101-.05-.212-.104h-.157l-.161-.054-.313.054-.212.104-.207.103-.211.158-.107.21-.102.21-.054.262v.526l.054.212.102.258.107.215.211.155.207.102.212.106h.524l.161-.053.206-.103.16-.103.107-.158.105-.161.052-.208.052-.21h-.263l-.053.314-.209.265-.105.102-.106.057-.158.05h-.422l-.211-.106-.152-.102-.108-.106-.106-.211-.105-.157-.054-.21v-.422l.054-.208.105-.212.106-.155.108-.158.152-.104.211-.055.262-.052.264.052.21.159.209.158.106.261h.212zM-22 .157h190.271l1.37.105h.63l.574.108.422.261.21.26.214.211.155.421.102-.262.319-.37.265-.26.206-.261.631-.108.474-.106.523.106.474.108.42.104.317.262.264.367.103.264.16.37v1.415l-.264.789-.265.578-.475.73-.365.37-.265.158-.21.106-.261.106-.265-.106.108.63.158.629.261.47.21.526.474 1.051.529.684.104.68.157.314.632-1.47.105-.416.103-.37.158-.369.265-.364.525-.737.419-.629.162-.37.101-.523.317-.842v-.736l-.21-1.68v-.628l.21-.633.157-.21.211-.26.262-.262.419-.108.473-.106h1.001l.423.106.469.212.262.263.215.366.156.265.104.369.107.524v.787l-.107.786-.26.685-.372.63-.368.471-.206.158-.159.105h-.265l-.107-.105-.259 1.103-.108.365.108.263.155.628.37 1.052.265.418.205.682v.578l.109.838v2.366l.155.262.262.208.581.839v-.683l.157-.522 1.262-3.626.684-1.783.261-.631.265-.367.789-.63.893-.628.836-.63.529-.524.214-.21v-.476l-.214-.732-.105-.79-.154-.787.259-.734.214-.367.209-.37.371-.418.366-.211.524-.106h.629l.582.106.525.107.421.261.264.26.048.37.158.474v1.942l-.158.522-.206.318-.108.418-.314.312-.265.11h-.208l-.37.157h-.371l-.152.104v.158l.152.211v.421l-.152.206v.16l.152.366.109.367.158.474.316 1.31.264.894.368.891.314-.628.108-.682.365-.579.422-.686.104-.625.105-.996.474-2.68.42-1.26.369-1.312.26-.367.215-.525.419-.366.365-.107.475-.106h.998l.368.106.476.211.42.263.158.366.259.265.107.787v.893l-.107.632-.259.68-.158.578-.581.578-.156.104h-.265l-.265.158-.208-.158-.159 1.155v.734l.159.63.208.843.947 1.571.423.79v.364l.052.264-.052.313-.316.788-.107.63-.102.37v.26l.209.21.21.422.525.734 1.316 1.103.731.313 1.002.682.894.632.265.26.103.212.103.418-.103.21-.103.26-.158.268-.368.1h-.993l-.105-.369-.42-.47-.313-.417-.529-.47-.477-.37-.684-.367-.574-.26-.686-.424.161 1.311v1l.209.838.316 1.157.735 2.101 1 2.52.73 2.257.426.735.103.471.369 1.104.367.838 2.105-2.885 1.313-1.52.265-.369.154-.736.426-1.682.417-1.728.16-.526-.424-.947-.309-.788v-.627l.576-1.47.315-.943v-.421l.21-1.312v-.946h-.21l-.155.79-.736 1.575-.267.784-.155.843-.156.788v.94l-.107.527-.21.261-.107.265-.263.21-.369.474h-.364l-.107-.21-.265-.104-.262-.265-.261-.261v-.474l.366-.425.262-.209.158-.26v-.262l-.158-.838v-1.68l.264-1.788.107-1.046.204-.632.58-1.628.737-1.523.679-1.677.581-1 .683-.73.632-.471.367-.421.261-.212.265-.261.104-.158v-.214l-.104-.372-.106-.576-.16-.522v-.53l-.103-.524.103-.631.16-.47.369-.632.102-.26.21-.262.319-.107.206-.106.579-.102.526.102.474.106.265.107.735.366h.211l.052.26.156.266.106.367.21.365v.843l-.21.421-.261.785-.053.315-.21.418-.258.373-.32.21-.367.157-.366.104h-.16v.158l-.105.364.105.475v.264l-.105.26v3.412l.105 1.153.316 1 .21.574.105.263.108.161.999-.63 1.155-.893 1.422-.999 4.202 5.251-2.785 2.361.104.262v.264h-.104v.107l-.369.261-.104.261-.265.21-.262.16h-.524l-.265-.26-2.364 1.991-1.419-1.892.156.527.157 1.521v2.1l-.157 1.261-.317 1.26.16 1.209v1.522l-.16.262-.104.313-.631 3.466-.262 2.467-.108.838v.736l.53.473.473.366.577.37.265.155h.577l.422.106.472.265.104.104v.264l-.104.104-.317.157h-5.729l-.105-.157v-.104l-.107-.105.107-.26v-.74l.105-.996-1.633.473-1.525.628-.578.262-.367.208-.371.265h-.47l-.264-.265-.105-.208v-.369l-.156-.629-.107-.63-.627-1.051-.105.316-.104.21-.162.63.162.632.104.63V39l.105.107.472.102.422.265.105.157.105.208h-.105l-.105.157h-.894l-.634-.157-.365-.104-.261-.105-.214-.26-.21-.265-.419-.734-.578-.632-.735-1.42-.107-.258v-.265l.107-.207.316-.11.574-.625.841-.524.21-.106.109-.214-.477-1.152-.523-1.207-.525-.997-.526-.947-1.421-2.045-.472-.944-.525-1.052-.37-1.051v-.472l-.104-.418-.158.89-.261.838-.37.839-.371.734-.734 1.419-.895 1.365-.893 1.417-.998 1.363-.369.789-.369.734-.264.737-.26.942-.105.684v.577h1.103l.893-.159h.476l.315.16.108.157v.524l-.53.368-1.107.63.265.26h.474l.473.108.21.102.104.422v.114l-.104.104-.316.157h-5.522l-.154-.157-.105-.209v-1l.105-.89-.79-.999-.736-1.263-.632-1.255-.633-1.368-1.368 1.472-.731.995-.265.265-.106.207-.105.16.105.208.106.316.265.262.261.156.368.16h2l.736-.16.736.16h.104l.317.157.158.26v.265l-.158.262-.157.106-.529.265-.946.472-.79.364-.628.423-.473.105-.525.104-.474.157h-.997l-.265-.157-.105-.104-.105-.261v.156l-.105.209h-.314l-.473.157h-7.256l-.159-.157-.054-.209-.103.209-.107.157h-1.627l-1.37-.157H-22V.156z"/></g></svg>