<svg width="199" height="79" viewBox="0 0 199 79" fill="none" xmlns="http://www.w3.org/2000/svg"><path fill-rule="evenodd" clip-rule="evenodd" d="M35 2.173c0 1.659-.084 1.742-1.75 1.742-1.448 0-1.75.182-1.75 1.05 0 .932.199 1.014 1.75.724C34.983 5.366 35 5.38 35 7.127c0 1.434.188 1.764 1.002 1.764.823 0 .979-.289.875-1.617-.122-1.546-.056-1.61 1.498-1.461C39.734 5.943 40 5.8 40 4.942c0-.844-.315-1.027-1.773-1.027-1.755 0-1.769-.018-1.444-1.742.291-1.543.209-1.741-.727-1.741-.873 0-1.056.3-1.056 1.741zM19.327 9.166c-1.058.385-3.308 1.682-5 2.88-4.812 3.41-7.192 4.43-10.952 4.7L0 16.985v25.507c0 21.423.112 25.55.701 25.774.386.148.836.134 1-.03C1.865 68.073 2 56.7 2 42.963V17.987l2.752-.282c3.433-.353 7.144-2.052 10.887-4.985 5.355-4.198 8.777-4.73 11.032-1.715 1.402 1.875.707 4.032-1.376 4.27-1.586.181-2.276-.525-2.288-2.34-.006-.992-.127-1.082-.757-.56-1.057.872-.933 2.852.217 3.465 1.544.822 3.79.6 5.216-.517 1.822-1.426 1.765-3.574-.145-5.475-1.227-1.221-1.849-1.45-3.875-1.42-1.327.02-3.279.352-4.336.738zm25.601-.018c-2.55 1.378-2.843 5.423-.485 6.68 2.326 1.238 6.057.024 6.057-1.972 0-.522-.484-1.207-1.076-1.522-.928-.494-1.031-.457-.752.267.779 2.018-2.017 3.71-3.572 2.162-.823-.82-.754-2.945.139-4.211 1.817-2.583 5.656-1.825 10.86 2.143 4.54 3.462 6.964 4.573 10.855 4.978L70 17.99v25.307c0 13.919.18 25.307.4 25.307 1.516 0 1.6-1.38 1.6-26.473V16.853h-2.745c-3.508 0-6.784-1.25-10.863-4.148-5.844-4.15-10.226-5.308-13.464-3.557zM33.5 25.463v12.59l-1.56 2.111c-.857 1.16-1.813 2.036-2.125 1.945-.31-.09-2.504-3.95-4.873-8.574-2.37-4.625-4.914-8.927-5.654-9.56-1.088-.933-1.927-1.151-4.414-1.151h-3.07l1.714 1.76c.954.98 3.381 5.11 5.473 9.315 3.957 7.952 4.9 9.023 8.605 9.778l1.507.306-5.125 6.713c-6.238 8.17-7.245 9.281-9.478 10.467-1.623.86-1.659.929-.5.94 2.025.017 5.116-1.654 7.092-3.836 1.014-1.119 4.164-5.11 7-8.872l5.158-6.838.137 8.545.136 8.545H38V48.451c0-6.956.185-11.196.489-11.196.667 0 1.818 1.791 4.761 7.411 2.435 4.649 2.932 5.166 6.107 6.356 1.073.401 1.03.514-1.41 3.649-8.19 10.524-10.255 12.946-11.696 13.718-3.195 1.713-6.093-.54-4.774-3.711.798-1.916 2.829-2.662 5.241-1.925 1.87.571 3.026.155 1.767-.637-1.023-.644-5.324-.594-6.643.077-1.644.837-2.819 2.516-2.831 4.047-.032 3.991 6.38 5.132 10.826 1.927 1.098-.793 5.992-6.706 11.183-13.516C62.566 39.508 62.602 39.456 62.682 37.57c.061-1.412-.086-1.574-1.557-1.715-1.545-.148-1.625-.073-1.625 1.535 0 1.722-1.535 4.255-5.938 9.798l-2.03 2.556-2.96-5.872c-1.627-3.229-3.432-6.295-4.01-6.814-.616-.553-2.082-1.042-3.538-1.182l-2.487-.237 3.697-4.79c5.107-6.617 7.329-8.688 9.318-8.688 2.797 0 4.03 3.567 1.948 5.64-1.094 1.088-3.943 1.35-4.852.445-.387-.385-.828-.395-1.475-.033-.886.495-.883.531.077.92.55.224 2.165.407 3.589.407 2.99.002 5.074-1.23 5.813-3.436 1.343-4.013-4.343-6.215-9.559-3.702-1.582.762-3.178 2.28-5.533 5.263l-3.31 4.192-.136-9.492-.136-9.493H33.5v12.59zm50-9.91c0 .105 1.235 2.289 2.745 4.851 1.509 2.563 2.746 4.904 2.75 5.204.006.668-1.627 2.192-2.351 2.192-.29 0-.645-.448-.789-.995-.317-1.204-1.267-1.303-1.702-.177-.364.943 1.037 2.167 2.48 2.167 1.421 0 2.722-1.772 4.922-6.705 1.096-2.455 2.32-4.824 2.718-5.263.4-.44.727-.95.727-1.133 0-.533-2.909-.386-3.25.163-.17.274-.07.498.22.498.291 0 .53.276.53.613 0 .849-2.118 5.856-2.477 5.856-.16 0-1.058-1.386-1.995-3.081-1.112-2.014-1.497-3.15-1.112-3.277 1.132-.376.012-1.106-1.695-1.106-.947 0-1.721.087-1.721.192zm100.151 1.626c-.368.954 1.459 2.66 2.849 2.66.489 0 1.401-.414 2.028-.918 1.349-1.088 1.03-2.566-.554-2.566-.635 0-.966.249-.828.622.126.342.482.566.792.498 1.008-.224.59.747-.438 1.015-1.219.317-3-.098-3-.7 0-.242.253-.384.562-.315.31.068.666-.156.792-.498.138-.373-.193-.622-.828-.622-.581 0-1.2.37-1.375.824zm-59.056.545c.093.478.5.87.905.87s.812-.392.905-.87c.118-.612-.152-.871-.905-.871s-1.023.26-.905.87zm2.905.124c0 .75.261 1.018.875.9.481-.092.875-.497.875-.9s-.394-.808-.875-.9c-.614-.118-.875.15-.875.9zM3.5 46.763V73.19l1.181-.295c2.763-.69 8.35-1.286 12.069-1.287 6.979-.002 12.06 1.509 17.085 5.08l2.085 1.482 2.884-2.055c1.586-1.13 4.36-2.526 6.165-3.1 4.579-1.46 12.483-1.78 18.07-.735 2.359.441 4.552.802 4.875.802.44 0 .586-6.55.586-26.41 0-24.883-.05-26.4-.875-26.241-.818.156-.883 1.848-1.004 25.912-.072 14.16-.185 25.744-.254 25.744-.068 0-.91-.224-1.87-.499-8.548-2.44-19.319-1.096-25.931 3.239L35.92 76.56l-2.205-1.51c-4.33-2.965-8.3-4.093-15.216-4.322-4.303-.143-7.302.018-9.625.515l-3.375.723V46.453c0-22.806-.084-25.545-.791-25.815-.435-.166-.885-.302-1-.302-.115 0-.209 11.892-.209 26.427zM95 20.804c0 .258.225.607.5.776.656.404.644 4.525-.017 5.755-.47.872-.342.963 1.35.963 1.452 0 1.734-.133 1.267-.597-.68-.678-.822-3.384-.177-3.384.552 0 1.841 1.507 2.237 2.617.357 1 2.665 2.202 3.203 1.666.197-.196.114-.512-.183-.702-.297-.191-.901-1.047-1.341-1.904-.441-.856-1.178-1.7-1.638-1.876-.778-.297-.776-.387.028-1.27.475-.524 1.181-.831 1.568-.684.467.179.703-.083.703-.78 0-1.571-1.114-1.27-3.02.818-1.628 1.782-1.712 1.815-1.88.719-.097-.63.093-1.47.423-1.866.504-.605.311-.72-1.212-.72-.996 0-1.811.211-1.811.47zm12 .527c-.84.836-1 1.659-1 5.125 0 2.55-.229 4.36-.6 4.728-.466.464-.166.597 1.35.597s1.816-.133 1.35-.597c-.33-.329-.6-1.17-.6-1.87 0-1.197.13-1.262 2.178-1.1 1.883.15 2.325-.012 3.25-1.183 1.436-1.816 1.375-3.95-.155-5.473-1.555-1.548-4.336-1.657-5.773-.227zm10.1-.398c-.816.813-.754 1.393.15 1.393.412 0 .75-.239.75-.532 0-.837 2.222-.306 2.39.572.103.54-.478.974-1.861 1.386-2.338.697-3.327 2.067-2.543 3.523.442.823 1.045.963 4.017.936 3.319-.032 4.397-.459 2.747-1.089-.541-.206-.75-1.049-.75-3.02 0-2.196-.191-2.837-.967-3.251-1.298-.691-3.196-.651-3.933.082zm8.4-.129c0 .258.225.607.5.776.705.434.624 5.4-.1 6.12-.467.465-.166.598 1.35.598s1.817-.133 1.35-.597c-.349-.348-.6-2.013-.6-3.981 0-3.278-.039-3.384-1.25-3.384-.688 0-1.25.21-1.25.468zm5.5.03a.5.5 0 0 0 .5.497c.711 0 .622 5.65-.1 6.37-.467.464-.166.597 1.35.597s1.817-.133 1.35-.597c-.33-.329-.6-1.113-.6-1.742 0-.976.257-1.145 1.75-1.145 1.6 0 1.75.125 1.75 1.452 0 .798-.281 1.564-.625 1.702-.343.138.388.251 1.625.251s1.969-.113 1.625-.25c-.822-.331-.843-6.221-.025-7.036.467-.464.111-.597-1.6-.597s-2.067.133-1.6.597c.33.329.6 1.112.6 1.742 0 .976-.257 1.144-1.75 1.144-1.533 0-1.75-.154-1.75-1.244 0-.684.225-1.244.5-1.244a.5.5 0 0 0 .5-.497c0-.274-.788-.498-1.75-.498s-1.75.224-1.75.498zm11.988.758c-1.423 1.508-1.524 4.296-.209 5.742 1.408 1.549 6.221 1.049 6.221-.646 0-.431-.154-.427-.6.017-1.491 1.484-4.9.167-4.9-1.894 0-2.612 2.192-4.898 3.118-3.251.446.792 1.882 1.073 1.882.368 0-1.9-3.816-2.133-5.512-.336zm7.512-.788c0 .258.225.607.5.776.705.434.624 5.4-.1 6.12-.467.465.138.598 2.722.598 2.866 0 3.428-.152 4.099-1.106 1.067-1.516.982-2.22-.442-3.637-.962-.958-1.545-1.151-2.75-.911-1.204.24-1.529.132-1.529-.504 0-.445.225-.809.5-.809a.5.5 0 0 0 .5-.497c0-.274-.788-.498-1.75-.498s-1.75.21-1.75.468zm10 0c0 .258.225.607.5.776.656.404.644 4.525-.018 5.755-.469.872-.341.963 1.351.963 1.452 0 1.734-.133 1.267-.597-.652-.65-.835-3.39-.225-3.377.799.017 1.584.816 2.083 2.124.532 1.391 2.756 2.798 3.405 2.152.197-.196.114-.512-.183-.702-.297-.191-.901-1.047-1.341-1.904-.441-.856-1.178-1.7-1.638-1.876-.778-.297-.776-.387.028-1.27.476-.524 1.181-.831 1.568-.684.467.179.703-.083.703-.78 0-1.582-1.284-1.263-2.784.694-.734.957-1.533 1.741-1.775 1.741-.655 0-.534-2.196.159-2.886.467-.464.189-.597-1.25-.597-1.017 0-1.85.21-1.85.468zm10.9.13c.779.774.779 5.991 0 6.767-.467.464-.2.597 1.203.597 1.475 0 1.761-.16 1.573-.877-.254-.965 2.571-4.02 3.168-3.426.194.194.116 1.242-.175 2.328-.518 1.932-.501 1.975.776 1.974 1.298-.001 1.305-.023 1.305-3.982v-3.98h-1.385c-1.184 0-1.344.163-1.108 1.12.212.862-.132 1.44-1.491 2.51l-1.766 1.39V23.62c0-.953.225-1.872.5-2.041 1.061-.653.42-1.244-1.35-1.244-1.439 0-1.717.133-1.25.597zm11 0c.779.774.779 5.991 0 6.767-.467.464-.2.597 1.203.597 1.475 0 1.761-.16 1.573-.877-.142-.541.374-1.445 1.349-2.363l1.577-1.488-.179 2.364c-.17 2.24-.114 2.364 1.074 2.363 1.233-.001 1.253-.065 1.253-3.982v-3.98h-1.385c-1.184 0-1.344.163-1.108 1.12.212.862-.132 1.44-1.491 2.51l-1.766 1.39V23.62c0-.953.225-1.872.5-2.041 1.061-.653.42-1.244-1.35-1.244-1.439 0-1.717.133-1.25.597zm-71 .994c1.029 1.024.74 4.226-.458 5.06-1.913 1.334-3.422.149-3.435-2.696-.008-2.006.715-2.96 2.243-2.96.577 0 1.32.268 1.65.596zm45.1 3.55c0 1.443-.89 2.322-2.35 2.322-1.005 0-1.15-.247-1.15-1.954 0-1.454.224-2.004.875-2.152 1.366-.31 2.625.546 2.625 1.785zm-36.092.207c-.124 1.075-.453 1.402-1.533 1.526-1.066.122-1.375-.051-1.375-.771 0-1.188.939-2.123 2.133-2.123.723 0 .898.308.775 1.368zM83.5 35.732c0 .258.225.607.5.776.279.172.5 2.484.5 5.225 0 2.741-.221 5.053-.5 5.225-1.095.674-.394 1.244 1.528 1.244 1.996 0 2.016-.017 1.25-1.106-.444-.631-.778-2.14-.778-3.516 0-2.336.043-2.406 1.375-2.253 1.104.126 1.681.732 2.93 3.07 1.688 3.166 2.353 3.786 4.07 3.797 1.352.01 1.493-.804.212-1.209-.504-.158-1.423-1.408-2.044-2.777-.622-1.37-1.678-2.774-2.346-3.122l-1.215-.634 1.823-1.723c1.18-1.115 1.903-1.504 2.05-1.101.428 1.17 1.145.624 1.145-.871 0-1.253-.197-1.493-1.227-1.493-.761 0-1.566.494-2.124 1.305-1.552 2.254-3.154 3.752-3.788 3.545-.949-.311-1.023-2.29-.138-3.635l.8-1.215h-2.011c-1.107 0-2.012.21-2.012.468zm107.533.962c-.381.71-.286 1.126.397 1.742 1.949 1.755 6.138.306 5.037-1.742-.599-1.113-1.967-1.243-1.967-.186 0 .41.351.747.779.747.429 0 .641.223.471.497-.17.274-1.07.498-2 .498-.93 0-1.83-.224-2-.498-.17-.274.042-.497.471-.497.428 0 .779-.336.779-.747 0-1.057-1.368-.927-1.967.186zM99.625 40.26c-.619.245-1.125.789-1.125 1.208 0 .98.943.992 1.319.016.38-.985 1.993-.958 2.378.041.505 1.31.349 1.7-.674 1.7-1.552 0-3.477 1.063-3.808 2.102-.627 1.964 2.325 3.622 4.268 2.398.464-.292.967-.268 1.369.063.349.29 1.032.373 1.516.188.839-.322.839-.363.007-.828-.663-.37-.875-1.133-.875-3.14 0-1.524-.266-2.862-.625-3.148-1.038-.827-2.561-1.07-3.75-.6zm17.161.645c-1.729 1.722-1.756 4.387-.059 6.075 1.649 1.642 3.921 1.617 5.606-.06 1.09-1.085 1.246-1.592 1.016-3.303-.334-2.476-1.129-3.323-3.472-3.701-1.495-.242-2.024-.072-3.091.99zm50.964-.665c-.17.274-.07.498.221.498.744 0 .681 6.118-.071 6.867-.467.464-.177.597 1.304.597 1.619 0 1.848-.13 1.535-.87-.202-.48-.477-1.376-.611-1.991-.42-1.926 1.479-1.385 2.622.748.728 1.356 1.376 1.907 2.381 2.022l1.381.158-1.515-2.234c-.834-1.23-1.793-2.327-2.132-2.44-.471-.159-.452-.404.08-1.046.418-.503 1.067-.72 1.625-.545.741.234.93.035.93-.984 0-1.812-1.191-1.613-2.784.464-2.126 2.775-3.269 2.27-1.969-.87.296-.718.091-.871-1.164-.871-.838 0-1.663.224-1.833.497zm-61.724 1.369l.026 1.368.785-1.12c1.467-2.093 2.163-1.412 2.163 2.115 0 1.825-.218 3.235-.5 3.235a.5.5 0 0 0-.5.497c0 .274.788.498 1.75.498 1.685 0 2.291-.604 1.25-1.244-.275-.17-.5-1.638-.5-3.264 0-2.288.169-2.956.746-2.956.41 0 1.026.448 1.37.995.846 1.349 1.384 1.252 1.384-.249 0-1.223-.066-1.244-4-1.244h-4l.026 1.369zm21.421-.914c1.321.833-.346 6.014-1.935 6.014-.586 0-1.012.329-1.012.781 0 .525.368.729 1.125.622.84-.119 1.378-.82 2.125-2.766.55-1.433 1.133-2.61 1.295-2.612.162-.003.592 1.226.955 2.731.567 2.35.825 2.737 1.83 2.737 1.157 0 1.577-.687.735-1.204-.239-.147-.855-1.728-1.368-3.513-.923-3.205-.956-3.245-2.691-3.237-1.211.005-1.54.144-1.059.447zm7.953.142c.779.776.779 5.993 0 6.768-.467.464-.187.597 1.26.597 1.702 0 1.834-.099 1.564-1.17-.23-.91.074-1.48 1.365-2.566l1.661-1.395.161 1.633c.089.899-.08 1.874-.375 2.168-.953.948-.576 1.33 1.314 1.33 1.439 0 1.717-.133 1.25-.597-.33-.329-.6-1.851-.6-3.384 0-1.532.27-3.055.6-3.384.467-.464.2-.597-1.203-.597-1.475 0-1.761.16-1.573.877.141.535-.359 1.438-1.282 2.318-1.29 1.23-1.559 1.321-1.828.622-.174-.45-.08-1.493.209-2.318.522-1.488.512-1.499-1.299-1.499-1.419 0-1.691.133-1.224.597zm11 0c.722.72.811 6.37.1 6.37a.5.5 0 0 0-.5.497c0 .292 1.729.498 4.189.498 4.296 0 5.957.65 4.743 1.859-.393.391-1.226.34-2.986-.18-2.777-.82-4.446-.323-4.446 1.324 0 1.035.731 1.316 1.25.48.17-.274.033-.497-.304-.497-.337 0-.469-.143-.294-.318.176-.174 1.329-.036 2.563.308 4.077 1.136 6.632-.738 4.332-3.175-.8-.847-1.047-1.753-1.047-3.839 0-1.501.27-2.998.6-3.327.467-.464.166-.597-1.35-.597s-1.817.133-1.35.597c.33.329.6 1.896.6 3.484v2.886h-4V44.32c0-1.588.27-3.155.6-3.484.467-.464.166-.597-1.35-.597s-1.817.133-1.35.597zm11.475-.267c.822.33.843 6.22.025 7.035-.467.464.127.597 2.672.597 3.655 0 4.928-.804 4.928-3.114 0-1.901-1.33-2.986-3.371-2.749-1.557.181-1.689.097-1.488-.95.198-1.034.039-1.145-1.586-1.11-.993.022-1.523.153-1.18.29zm21.154.719c.58 1.079.44 4.501-.248 6.042-.33.74-.116.871 1.42.871 1.641 0 1.753-.086 1.223-.931-.498-.794-.334-1.155 1.121-2.453l1.705-1.522.162 1.819c.089 1-.08 1.899-.375 1.997-1.197.397-.425 1.09 1.213 1.09 1.685 0 2.291-.604 1.25-1.244-.705-.434-.624-5.4.1-6.12.467-.465.176-.598-1.311-.598-1.698 0-1.837.09-1.245.799.575.69.43.99-1.064 2.21l-1.73 1.41-.159-1.495c-.087-.823.108-1.817.436-2.21.499-.598.299-.714-1.233-.714-1.705 0-1.791.071-1.265 1.049zm11 0c.58 1.079.44 4.501-.248 6.042-.33.74-.116.871 1.42.871 1.641 0 1.753-.086 1.223-.931-.498-.794-.334-1.155 1.121-2.453l1.705-1.522.162 1.819c.089 1-.08 1.899-.375 1.997-1.197.397-.425 1.09 1.213 1.09 1.685 0 2.291-.604 1.25-1.244-.705-.434-.624-5.4.1-6.12.467-.465.176-.598-1.311-.598-1.666 0-1.83.099-1.271.769.542.65.378.988-1.064 2.19l-1.704 1.423-.159-1.477c-.087-.812.108-1.798.436-2.19.499-.599.299-.715-1.233-.715-1.705 0-1.791.071-1.265 1.049zm-69.129.046c.631.628.813 3.745.297 5.084-.338.876-2.948 1.093-3.449.287-.556-.895-.383-4.46.254-5.224a1.958 1.958 0 0 1 2.898-.147zm42.523 2.762c.731 1.387-.186 3.11-1.657 3.11-1.101 0-1.266-.216-1.266-1.659 0-.912.15-1.808.333-1.99.64-.637 2.135-.326 2.59.539zm-60.923.81c0 1.407-1.184 2.527-2.243 2.122-1.16-.442-.918-2.278.368-2.793 1.696-.678 1.875-.613 1.875.67zM86.278 59.77c1.491 2.532 2.713 4.849 2.716 5.148.007.668-1.626 2.192-2.35 2.192-.29 0-.645-.448-.789-.995-.317-1.204-1.267-1.303-1.702-.177-.193.501.044 1.08.611 1.493 2.391 1.74 4.241.146 6.695-5.769.922-2.225 2.114-4.597 2.646-5.27l.968-1.224-1.911.039c-1.052.021-1.63.152-1.287.29.344.138.625.508.625.822 0 .82-2.127 5.815-2.477 5.815-.16 0-1.048-1.368-1.972-3.04-1.356-2.456-1.547-3.126-.99-3.477.457-.288-.016-.437-1.403-.442l-2.092-.008 2.712 4.603zm20.309-2.782c.21 1.09 1.663 1.243 1.663.177 0-.407-.414-.82-.921-.916-.668-.128-.871.074-.742.74zM94.9 60.244c.33.328.6 1.851.6 3.384 0 1.532-.27 3.055-.6 3.383-.467.465-.211.598 1.15.598 1.704 0 1.744-.045 1.545-1.742-.2-1.706-.168-1.742 1.6-1.742 1.55 0 1.805.162 1.805 1.145 0 .63-.27 1.413-.6 1.742-.467.464-.166.597 1.35.597s1.816-.133 1.35-.597c-.724-.721-.805-5.687-.1-6.121 1.041-.64.435-1.244-1.25-1.244-.962 0-1.75.224-1.75.498a.5.5 0 0 0 .5.497c.275 0 .5.56.5 1.244 0 1.099-.212 1.244-1.816 1.244-1.795 0-1.811-.019-1.531-1.741.281-1.724.264-1.742-1.535-1.742-1.414 0-1.684.133-1.218.597zm11.372.274c.703 1.611.838 4.07.307 5.585-.524 1.497-.516 1.506 1.297 1.506 1.418 0 1.69-.133 1.224-.597-.349-.348-.6-2.013-.6-3.981 0-3.315-.026-3.384-1.303-3.384-1.053 0-1.231.168-.925.87zm5.228-.403c0 .258.225.607.5.776.656.404.644 4.525-.018 5.755-.489.909-.323.963 2.983.963 3.026 0 3.575-.14 4.053-1.029.426-.792.382-1.288-.189-2.156-.479-.727-.583-1.377-.293-1.832.622-.978.579-1.267-.322-2.163-.871-.867-6.714-1.14-6.714-.314zm11.441.033c-2.001 1.163-2.374 4.969-.655 6.68 1.285 1.278 5.714.736 5.714-.7 0-.248-.613-.134-1.363.253-1.725.89-3.309.025-3.545-1.939-.153-1.265-.069-1.312 2.375-1.312 2.754 0 3.099-.467 1.754-2.377-.821-1.168-2.826-1.45-4.28-.605zm8.278.529c-.725.797-.997 2.092-1.203 5.723l-.266 4.692 1.75-.039c.962-.022 1.469-.153 1.125-.29-.343-.139-.625-.972-.625-1.852 0-1.541.066-1.592 1.781-1.393 3.687.428 5.792-4.237 3.062-6.79-1.527-1.426-4.35-1.453-5.624-.051zm10.038.162c-2.643 2.63-.931 6.77 2.8 6.77 1.711 0 2.943-.708 2.943-1.692 0-.277-.267-.233-.6.1-.33.328-1.185.597-1.9.597-1.789 0-2.5-.867-2.5-3.05 0-2.569 2.094-4.553 2.819-2.673.407 1.055 1.793.947 1.589-.124-.116-.609-.729-.918-2.03-1.026-1.451-.12-2.142.124-3.121 1.098zm8.143-.595c.779.775.779 5.992 0 6.767-.467.465-.192.598 1.235.598 1.456 0 1.772-.16 1.534-.777-.29-.75 2.042-3.702 2.925-3.702.578 0 .503 2.373-.112 3.516-.469.872-.341.963 1.351.963 1.452 0 1.734-.133 1.267-.597-.33-.329-.6-1.852-.6-3.384 0-1.533.27-3.056.6-3.384.467-.464.187-.597-1.26-.597-1.708 0-1.835.096-1.561 1.183.234.927-.024 1.41-1.192 2.239-.82.581-1.651 1.056-1.846 1.056-.395 0-.087-2.26.492-3.607.319-.742.093-.871-1.529-.871-1.481 0-1.771.133-1.304.597zm10.616.771c.015 1.244.076 1.29.68.498.365-.48 1.033-.87 1.484-.87.665 0 .82.542.82 2.885 0 1.588-.27 3.155-.6 3.483-.467.465-.166.598 1.35.598s1.817-.133 1.35-.597c-.33-.329-.6-1.896-.6-3.484 0-2.343.155-2.886.82-2.886.451 0 1.119.392 1.484.871.604.792.665.746.68-.498l.016-1.368H160l.016 1.368zm10.925-.867c-2.001 1.163-2.374 4.969-.655 6.68.926.92 4.253 1.04 5.114.183 1.042-1.037.651-1.36-.763-.63-1.725.89-3.309.025-3.545-1.939-.153-1.265-.069-1.312 2.375-1.312 2.128 0 2.533-.146 2.533-.918 0-2.006-3.032-3.243-5.059-2.064zm6.559.743c0 1.368.727 1.675 1.181.498.158-.41.744-.747 1.303-.747.868 0 1.016.32 1.016 2.207 0 1.214-.22 2.781-.488 3.483-.468 1.227-.415 1.277 1.351 1.277 1.429 0 1.704-.133 1.237-.597-.33-.329-.6-1.896-.6-3.484 0-2.26.166-2.886.766-2.886.421 0 .895.336 1.053.747.454 1.177 1.181.87 1.181-.498 0-1.223-.066-1.244-4-1.244s-4 .02-4 1.244zm-60.924-.249c.272 0 .422.504.334 1.12-.114.801-.551 1.164-1.535 1.277-1.162.133-1.375-.028-1.375-1.037 0-1.44.46-1.979 1.39-1.624.38.145.914.264 1.186.264zm9.424.995c0 .712-.334.996-1.167.996-.642 0-1.301-.134-1.465-.298-.623-.62.287-1.693 1.435-1.693.863 0 1.197.277 1.197.995zm9.75 1.99v2.738H134c-1.709 0-1.753-.052-1.906-2.172-.223-3.083.106-3.642 2.028-3.458 1.621.156 1.628.167 1.628 2.893zm38.412-2.287c.35.907-.072 1.293-1.412 1.293-.596 0-1.218-.134-1.382-.298-.61-.607.277-1.693 1.382-1.693.628 0 1.264.314 1.412.698zm-56.815 3.604c.36.932-1.033 2.167-2.443 2.167-.671 0-.904-.384-.904-1.493 0-1.33.165-1.493 1.516-1.493.945 0 1.634.308 1.831.819z" fill="#fff"/></svg>