<svg width="117" height="45" viewBox="0 0 117 45" fill="none" xmlns="http://www.w3.org/2000/svg">
<path d="M15.2533 31.0621H25.2661V37.5498H8.00635V9.84338H15.2533V31.0621Z" fill="white"/>
<path d="M53.4468 9.7688H56.0161V37.5565H48.7759V24.7711L42.8781 30.9469H42.0442L36.1464 24.7711V37.5565H28.9062V9.7688H31.4755L42.4781 21.7611L53.4468 9.7688Z" fill="white"/>
<path d="M78.0618 28.6081H69.1947V37.5498H61.9546V9.84338H79.2482V16.1412H69.1947V22.2763H78.0618V28.6081Z" fill="white"/>
<path d="M84.5562 17.463V9.71448H85.0036V17.463H84.5562V17.463Z" fill="white"/>
<path d="M85.0915 17.5512H84.4746V9.62634H85.0915V17.5512ZM84.6441 17.3749H84.9153V9.8026H84.6441V17.3749Z" fill="white"/>
<path d="M88.9086 17.4631H88.373L86.4478 12.0059H86.9155L88.651 16.9953L90.3661 12.0059H90.8339L88.9086 17.4631Z" fill="white"/>
<path d="M88.9696 17.5512H88.312L86.3257 11.9177H86.9765L88.6509 16.7309L90.305 11.9177H90.9558L88.9696 17.5512ZM88.4272 17.3749H88.8407L90.705 12.0872H90.4203L88.6441 17.2529L86.8477 12.0872H86.563L88.4272 17.3749Z" fill="white"/>
<path d="M92.7793 10.7313C92.7793 10.8805 92.7522 10.9754 92.6912 11.0228C92.637 11.0771 92.5421 11.0974 92.4065 11.0974C92.2641 11.0974 92.1692 11.0635 92.1082 11.0025C92.054 10.9415 92.0269 10.8466 92.0269 10.7313C92.0269 10.6025 92.054 10.5076 92.115 10.4466C92.1692 10.3856 92.2709 10.3517 92.4065 10.3517C92.5488 10.3517 92.6437 10.3788 92.6912 10.4398C92.7522 10.494 92.7793 10.5957 92.7793 10.7313ZM92.1896 17.463V12.0058H92.637V17.463H92.1896Z" fill="white"/>
<path d="M92.725 17.5512H92.1013V11.9177H92.725V17.5512ZM92.2775 17.3749H92.5555V12.0872H92.2775V17.3749ZM92.4131 11.1856C92.2437 11.1856 92.1216 11.1449 92.0538 11.0568C91.986 10.9754 91.9521 10.867 91.9521 10.7246C91.9521 10.5754 91.9928 10.4602 92.0606 10.3856C92.1352 10.3043 92.2504 10.2704 92.4131 10.2704C92.5758 10.2704 92.6979 10.3043 92.7656 10.3856C92.8402 10.4602 92.8741 10.5754 92.8741 10.7314C92.8741 10.9076 92.8334 11.0229 92.7589 11.0907C92.6775 11.1517 92.5691 11.1856 92.4131 11.1856ZM92.4131 10.4399C92.3047 10.4399 92.2301 10.4602 92.1894 10.5009C92.1487 10.5483 92.1284 10.6229 92.1284 10.7246C92.1284 10.8195 92.1487 10.8941 92.1894 10.9415C92.2233 10.9822 92.3047 11.0093 92.4199 11.0093C92.5284 11.0093 92.6097 10.989 92.6504 10.9551C92.6707 10.9415 92.7046 10.8805 92.7046 10.7246C92.7046 10.6161 92.6843 10.5348 92.6504 10.4941C92.6097 10.4738 92.5555 10.4399 92.4131 10.4399Z" fill="white"/>
<path d="M96.4535 17.4631H95.918L93.9927 12.0059H94.4604L96.1959 16.9953L97.9178 12.0059H98.3856L96.4535 17.4631Z" fill="white"/>
<path d="M96.5076 17.5512H95.8501L93.8638 11.9177H94.5146L96.189 16.7309L97.8431 11.9177H98.4939L96.5076 17.5512ZM95.9789 17.3749H96.3924L98.2567 12.0872H97.9719L96.189 17.2529L94.3925 12.0872H94.1078L95.9789 17.3749Z" fill="white"/>
<path d="M90.5423 27.4961V23.9981C90.5423 23.6252 90.5287 23.3202 90.4948 23.0965C90.4609 22.8728 90.4135 22.6965 90.3457 22.5813C90.2779 22.4592 90.1897 22.3847 90.0881 22.344C89.9864 22.3033 89.8643 22.2897 89.722 22.2897C89.5661 22.2897 89.4237 22.3101 89.2881 22.3575C89.1525 22.405 89.0237 22.4728 88.8881 22.5677C88.7526 22.6626 88.6102 22.7846 88.4611 22.927C88.3119 23.0694 88.1357 23.2388 87.9458 23.4354V27.5029H87.4984V23.9303C87.4984 23.5846 87.4781 23.3066 87.4442 23.0897C87.4103 22.8795 87.3561 22.7101 87.2883 22.5948C87.2205 22.4796 87.1256 22.3982 87.0171 22.3575C86.9086 22.3169 86.7731 22.2965 86.6171 22.2965C86.4815 22.2965 86.346 22.3236 86.2104 22.3847C86.0748 22.4457 85.9392 22.5202 85.7969 22.6219C85.6545 22.7236 85.5121 22.8456 85.363 22.9812C85.2139 23.1168 85.0647 23.2727 84.902 23.4354V27.5029H84.4546V22.0321H84.902V22.9541C85.2206 22.6151 85.5189 22.3575 85.8036 22.1609C86.0884 21.9711 86.3731 21.8762 86.6578 21.8762C87.0239 21.8762 87.3086 21.9643 87.5188 22.1474C87.7289 22.3304 87.8577 22.6151 87.9052 23.0083C88.0746 22.8185 88.2238 22.6558 88.3729 22.5135C88.5153 22.3779 88.6577 22.2559 88.8 22.1609C88.9424 22.066 89.0915 21.9982 89.2407 21.9508C89.3898 21.9033 89.5525 21.8762 89.7288 21.8762C89.9999 21.8762 90.2169 21.9305 90.3796 22.0254C90.5423 22.1271 90.6711 22.2626 90.7592 22.4389C90.8473 22.6151 90.9083 22.8185 90.9354 23.0626C90.9626 23.3066 90.9761 23.5642 90.9761 23.849V27.4894H90.5423V27.4961Z" fill="white"/>
<path d="M91.0776 27.5775H90.4539V23.9981C90.4539 23.6321 90.4336 23.3338 90.4065 23.1101C90.3726 22.8999 90.3319 22.7304 90.2641 22.622C90.2031 22.5203 90.1353 22.4525 90.054 22.4254C89.9591 22.3915 89.8506 22.3779 89.715 22.3779C89.5659 22.3779 89.4303 22.3983 89.3083 22.4389C89.1862 22.4796 89.0574 22.5474 88.9286 22.6355C88.7998 22.7237 88.6575 22.8389 88.5151 22.9813C88.3727 23.1169 88.2168 23.2728 88.027 23.4626V27.5843H87.4033V23.9304C87.4033 23.5914 87.3898 23.3135 87.3559 23.1033C87.322 22.9067 87.2745 22.744 87.2135 22.6355C87.1525 22.5338 87.0779 22.4661 86.9898 22.4322C86.8068 22.3644 86.522 22.3373 86.2509 22.4525C86.1221 22.5067 85.9865 22.5813 85.8509 22.683C85.7153 22.7779 85.573 22.8999 85.4238 23.0355C85.2882 23.1643 85.1391 23.3067 84.99 23.4626V27.5843H84.373V21.9508H84.99V22.744C85.2543 22.4728 85.5119 22.2559 85.756 22.0932C86.0543 21.8966 86.3593 21.7949 86.6576 21.7949C87.044 21.7949 87.3491 21.8966 87.5728 22.0864C87.7626 22.2491 87.8914 22.5 87.966 22.8253C88.088 22.6898 88.2033 22.5677 88.3185 22.4593C88.4676 22.3169 88.6168 22.1881 88.7591 22.0932C88.9083 21.9915 89.0642 21.9169 89.2201 21.8695C89.3761 21.822 89.5523 21.7949 89.7353 21.7949C90.0201 21.7949 90.2573 21.8492 90.4336 21.9576C90.6099 22.0661 90.7454 22.2152 90.8403 22.405C90.9353 22.5881 90.9963 22.8118 91.0234 23.0558C91.0505 23.2999 91.0708 23.5711 91.0708 23.8558V27.5775H91.0776ZM90.6302 27.4081H90.9014V23.849C90.9014 23.5711 90.8878 23.3067 90.8607 23.0694C90.8336 22.8389 90.7793 22.6355 90.6912 22.4728C90.6099 22.3101 90.4946 22.1881 90.3455 22.1C90.1963 22.0119 89.993 21.9644 89.7421 21.9644C89.5794 21.9644 89.4167 21.9847 89.2811 22.0322C89.1388 22.0796 89.0032 22.1474 88.8676 22.2356C88.732 22.3237 88.5897 22.4389 88.4473 22.5813C88.3049 22.7169 88.149 22.8864 87.9863 23.0694L87.8575 23.2118L87.8304 23.0219C87.783 22.6491 87.6609 22.3779 87.4711 22.2152C87.2813 22.0525 87.0101 21.9712 86.6644 21.9712C86.4 21.9712 86.1288 22.0593 85.8645 22.2423C85.5865 22.4254 85.2882 22.6898 84.9764 23.0219L84.8272 23.1779V22.1271H84.5561V27.4148H84.8272V23.388L84.8544 23.3609C85.0171 23.1914 85.173 23.0423 85.3153 22.8999C85.4645 22.7576 85.6136 22.6355 85.756 22.5338C85.8984 22.4322 86.0475 22.3508 86.1831 22.2898C86.4949 22.1542 86.8271 22.1813 87.0508 22.2695C87.1796 22.3169 87.2813 22.4118 87.3626 22.5406C87.444 22.6694 87.4982 22.8457 87.5321 23.0694C87.566 23.2863 87.5796 23.5778 87.5796 23.9236V27.4081H87.8575V23.388L87.8846 23.3609C88.0812 23.1575 88.2507 22.9948 88.3999 22.8525C88.549 22.7033 88.6981 22.5813 88.8337 22.4864C88.9761 22.3915 89.1184 22.3169 89.254 22.2695C89.3964 22.222 89.5455 22.1949 89.715 22.1949C89.8641 22.1949 89.9997 22.2152 90.115 22.2559C90.237 22.3034 90.3387 22.3915 90.4133 22.5338C90.4878 22.6627 90.5421 22.8457 90.576 23.083C90.6099 23.3134 90.6302 23.6185 90.6302 23.9981V27.4081Z" fill="white"/>
<path d="M93.1928 24.6557C93.1928 25.1438 93.2199 25.5574 93.2741 25.8895C93.3284 26.2217 93.4165 26.4929 93.5318 26.6963C93.6538 26.8996 93.8097 27.042 94.0063 27.1301C94.2029 27.2183 94.4402 27.2657 94.7249 27.2657C94.8944 27.2657 95.0435 27.2522 95.1791 27.225C95.3147 27.1979 95.4435 27.1505 95.5655 27.0827C95.6875 27.0149 95.796 26.9268 95.8977 26.8183C96.0062 26.7098 96.1011 26.5742 96.2027 26.4115L96.5485 26.6488C96.4536 26.8047 96.3519 26.9471 96.2434 27.0623C96.135 27.1844 96.0062 27.2928 95.8638 27.3742C95.7214 27.4623 95.5519 27.5301 95.3689 27.5776C95.1859 27.625 94.9689 27.6453 94.7181 27.6453C94.3792 27.6453 94.0809 27.5979 93.83 27.4962C93.5792 27.3945 93.3691 27.2318 93.2064 27.0081C93.0437 26.7844 92.9149 26.4861 92.8403 26.1268C92.7589 25.7607 92.7183 25.3201 92.7183 24.8049C92.7183 24.3168 92.7589 23.8829 92.8335 23.5168C92.9081 23.1508 93.0301 22.8457 93.1996 22.6017C93.3691 22.3576 93.5792 22.1746 93.8368 22.0525C94.0944 21.9305 94.4063 21.8695 94.7723 21.8695C95.4164 21.8695 95.8909 22.0729 96.196 22.4796C96.501 22.8864 96.657 23.4829 96.657 24.2761V24.649H93.1928V24.6557ZM96.2231 24.2761C96.2163 23.9033 96.1824 23.5846 96.1214 23.327C96.0604 23.0694 95.9655 22.866 95.8502 22.7033C95.7282 22.5474 95.5791 22.4322 95.4028 22.3576C95.2265 22.2898 95.0232 22.2491 94.7859 22.2491C94.5147 22.2491 94.2842 22.2898 94.0876 22.3712C93.891 22.4457 93.7351 22.5745 93.6063 22.7372C93.4775 22.9067 93.3826 23.1101 93.3148 23.3677C93.247 23.6185 93.2064 23.9236 93.1928 24.2761H96.2231V24.2761Z" fill="white"/>
<path d="M94.7315 27.7403C94.379 27.7403 94.0739 27.6861 93.8095 27.5844C93.5451 27.4759 93.3214 27.2997 93.1452 27.0624C92.9757 26.8251 92.8469 26.5201 92.7587 26.1472C92.6774 25.7811 92.6367 25.3337 92.6367 24.8049C92.6367 24.3101 92.6774 23.8762 92.7587 23.5033C92.8401 23.1305 92.9689 22.8119 93.1384 22.5543C93.3146 22.3034 93.5384 22.1068 93.8163 21.978C94.0875 21.8492 94.4129 21.7882 94.7925 21.7882C95.4636 21.7882 95.9653 22.0051 96.2839 22.4322C96.5958 22.8525 96.7585 23.4694 96.7585 24.2829V24.7371H93.2807C93.2875 25.1846 93.3079 25.5642 93.3621 25.876C93.4095 26.2014 93.4977 26.459 93.6129 26.6556C93.7214 26.8387 93.8705 26.9743 94.0468 27.0556C94.2298 27.137 94.4603 27.1776 94.7315 27.1776C94.8874 27.1776 95.0365 27.1641 95.1721 27.137C95.3009 27.1098 95.423 27.0692 95.5314 27.0082C95.6399 26.9471 95.7484 26.8658 95.8433 26.7573C95.945 26.6556 96.0399 26.5201 96.1416 26.3641L96.189 26.2896L96.6771 26.6217L96.6364 26.6895C96.5415 26.8522 96.4331 26.9946 96.3246 27.1234C96.2093 27.2522 96.0738 27.3607 95.9246 27.4556C95.7755 27.5437 95.5992 27.6183 95.4094 27.6657C95.206 27.7132 94.9823 27.7403 94.7315 27.7403ZM94.7857 21.9645C94.4332 21.9645 94.1349 22.0187 93.8841 22.1407C93.64 22.256 93.4367 22.4322 93.2807 22.6559C93.118 22.8864 93.0028 23.1847 92.9282 23.544C92.8537 23.9033 92.813 24.3304 92.813 24.8117C92.813 25.3201 92.8537 25.7608 92.935 26.1133C93.0164 26.4658 93.1316 26.7505 93.2875 26.9607C93.4434 27.1709 93.64 27.3268 93.8773 27.4217C94.1146 27.5166 94.4061 27.564 94.7315 27.564C94.9688 27.564 95.1789 27.5437 95.3552 27.4963C95.5314 27.4556 95.6874 27.3878 95.8229 27.3064C95.9585 27.2251 96.0805 27.1234 96.1822 27.0082C96.2704 26.9065 96.3517 26.7912 96.4398 26.6692L96.2365 26.5336C96.1483 26.6692 96.0534 26.7844 95.9653 26.8794C95.8568 26.9946 95.7348 27.0895 95.606 27.1573C95.4772 27.2251 95.3416 27.2793 95.1992 27.3064C95.0569 27.3336 94.8942 27.3471 94.7247 27.3471C94.4264 27.3471 94.1756 27.2997 93.9722 27.2048C93.7553 27.1098 93.5858 26.9539 93.457 26.7302C93.335 26.5201 93.2401 26.2353 93.1858 25.8964C93.1316 25.5574 93.1045 25.1371 93.1045 24.649V24.5609H96.5822V24.2762C96.5822 23.5033 96.4331 22.9203 96.1416 22.5271C95.8568 22.1611 95.4026 21.9645 94.7857 21.9645ZM96.311 24.3643H93.1045V24.2762C93.118 23.9169 93.1587 23.605 93.2333 23.3542C93.3011 23.0898 93.4028 22.8729 93.5383 22.6966C93.6739 22.5204 93.8502 22.3848 94.0536 22.3034C94.2569 22.2221 94.501 22.1746 94.7857 22.1746C95.0298 22.1746 95.2467 22.2153 95.4297 22.2899C95.6196 22.3644 95.7823 22.4932 95.9111 22.6627C96.0399 22.8322 96.1348 23.0491 96.2026 23.3203C96.2636 23.5779 96.2975 23.9101 96.311 24.2829V24.3643ZM93.2875 24.188H96.1348C96.128 23.8626 96.0941 23.5779 96.0399 23.3474C95.9789 23.1034 95.8907 22.9068 95.7823 22.7576C95.6738 22.6153 95.5382 22.5068 95.3755 22.4458C95.2128 22.378 95.0162 22.3441 94.7925 22.3441C94.5349 22.3441 94.3112 22.3848 94.1281 22.4593C93.9519 22.5339 93.8027 22.6492 93.6807 22.7983C93.5655 22.9542 93.4706 23.1508 93.4028 23.3949C93.3418 23.6186 93.3011 23.883 93.2875 24.188Z" fill="white"/>
<path d="M101.755 27.4962V26.8454C101.64 26.9606 101.511 27.0691 101.376 27.164C101.24 27.2657 101.098 27.347 100.955 27.4216C100.813 27.4962 100.657 27.5504 100.508 27.5911C100.359 27.6318 100.21 27.6521 100.06 27.6521C99.4097 27.6521 98.9148 27.4148 98.5758 26.9471C98.2369 26.4793 98.0674 25.7675 98.0674 24.8049C98.0674 24.4185 98.1081 24.0524 98.1894 23.6999C98.2708 23.3473 98.3928 23.0355 98.5623 22.7643C98.725 22.4932 98.9419 22.2762 99.1995 22.1135C99.4571 21.9508 99.7622 21.8695 100.108 21.8695C100.277 21.8695 100.44 21.8898 100.582 21.9237C100.725 21.9576 100.86 21.9983 100.996 22.0593C101.125 22.1135 101.254 22.1813 101.382 22.2627C101.504 22.344 101.633 22.4322 101.769 22.5271V19.7408H102.216V27.4894H101.755V27.4962ZM101.755 23.0084C101.443 22.7508 101.152 22.561 100.888 22.4389C100.623 22.3169 100.366 22.2559 100.121 22.2559C99.8706 22.2559 99.6469 22.3169 99.4503 22.4457C99.2537 22.5677 99.091 22.744 98.9554 22.9677C98.8199 23.1914 98.7182 23.4558 98.6504 23.7677C98.5826 24.0795 98.5487 24.4185 98.5487 24.7845C98.5487 25.6048 98.6707 26.2217 98.9216 26.642C99.1724 27.0623 99.5452 27.2725 100.047 27.2725C100.21 27.2725 100.366 27.2454 100.515 27.2047C100.664 27.1572 100.813 27.0962 100.955 27.0149C101.098 26.9335 101.233 26.8386 101.369 26.7301C101.504 26.6217 101.633 26.5064 101.769 26.3709V23.0084H101.755Z" fill="white"/>
<path d="M100.06 27.7402C99.3824 27.7402 98.8604 27.4893 98.5078 27.0012C98.1621 26.5199 97.9858 25.781 97.9858 24.8048C97.9858 24.4116 98.0265 24.032 98.1079 23.6795C98.1892 23.3202 98.318 22.9948 98.4875 22.7168C98.657 22.4389 98.8807 22.2084 99.1519 22.0389C99.423 21.8694 99.7416 21.7813 100.108 21.7813C100.284 21.7813 100.447 21.8016 100.603 21.8355C100.752 21.8694 100.894 21.9169 101.03 21.9779C101.165 22.0389 101.294 22.1067 101.43 22.188C101.511 22.2423 101.599 22.2965 101.68 22.3575V19.6594H102.304V27.5775H101.68V27.0419C101.599 27.1097 101.518 27.1707 101.436 27.2317C101.301 27.3334 101.152 27.4216 101.003 27.4961C100.853 27.5707 100.698 27.6317 100.542 27.6724C100.372 27.7198 100.216 27.7402 100.06 27.7402ZM100.101 21.9643C99.7688 21.9643 99.4773 22.0389 99.2332 22.1948C98.9892 22.3507 98.7858 22.5541 98.6231 22.8117C98.4604 23.0761 98.3451 23.3812 98.2638 23.7201C98.1824 24.0659 98.1485 24.4319 98.1485 24.8116C98.1485 25.7471 98.3112 26.4521 98.6366 26.9063C98.962 27.3538 99.423 27.5707 100.053 27.5707C100.196 27.5707 100.338 27.5504 100.481 27.5097C100.623 27.469 100.765 27.4148 100.908 27.347C101.05 27.2724 101.186 27.1911 101.314 27.0962C101.443 27.0012 101.572 26.8928 101.687 26.7843L101.836 26.6419V27.408H102.108V19.8289H101.836V22.6965L101.701 22.6016C101.579 22.5134 101.45 22.4253 101.321 22.344C101.199 22.2694 101.07 22.2016 100.948 22.1474C100.82 22.0931 100.691 22.0457 100.548 22.0186C100.42 21.9779 100.264 21.9643 100.101 21.9643ZM100.04 27.3538C99.5044 27.3538 99.1044 27.13 98.84 26.6826C98.5824 26.2488 98.4536 25.6115 98.4536 24.7845C98.4536 24.4116 98.4875 24.0659 98.5621 23.7473C98.6299 23.4286 98.7383 23.1507 98.8807 22.9202C99.0231 22.6829 99.1993 22.4999 99.4027 22.3711C99.8162 22.1135 100.365 22.1067 100.928 22.3575C101.199 22.4796 101.497 22.6761 101.816 22.9405L101.85 22.9677V26.4047L101.823 26.4318C101.694 26.5606 101.558 26.6826 101.423 26.7911C101.281 26.9063 101.138 27.008 100.996 27.0894C100.847 27.1775 100.698 27.2453 100.542 27.286C100.372 27.3334 100.203 27.3538 100.04 27.3538ZM100.114 22.344C99.8772 22.344 99.6739 22.3982 99.484 22.5202C99.301 22.6355 99.1451 22.805 99.0163 23.0151C98.8875 23.2253 98.7858 23.4896 98.718 23.7879C98.6502 24.093 98.6163 24.4252 98.6163 24.7845C98.6163 25.5844 98.7383 26.1877 98.9824 26.5945C99.2196 26.9877 99.5654 27.1775 100.04 27.1775C100.189 27.1775 100.338 27.1572 100.481 27.1097C100.623 27.069 100.765 27.0012 100.901 26.9267C101.036 26.8453 101.172 26.7572 101.301 26.6487C101.423 26.547 101.545 26.4386 101.667 26.3233V23.049C101.369 22.805 101.097 22.6287 100.847 22.5202C100.596 22.405 100.352 22.344 100.114 22.344Z" fill="white"/>
<path d="M104.853 20.7577C104.853 20.9068 104.826 21.0017 104.765 21.056C104.704 21.1034 104.616 21.1305 104.48 21.1305C104.338 21.1305 104.243 21.0966 104.182 21.0356C104.128 20.9678 104.101 20.8797 104.101 20.7645C104.101 20.6357 104.128 20.5407 104.189 20.4797C104.25 20.4187 104.345 20.3916 104.48 20.3916C104.616 20.3916 104.711 20.4187 104.765 20.4797C104.826 20.5272 104.853 20.6221 104.853 20.7577ZM104.263 27.4962V22.0322H104.711V27.4894H104.263V27.4962Z" fill="white"/>
<path d="M104.792 27.5775H104.168V21.944H104.792V27.5775ZM104.344 27.408H104.622V22.1203H104.344V27.408ZM104.487 21.2119C104.317 21.2119 104.202 21.1712 104.128 21.0831C104.06 21.0017 104.026 20.8933 104.026 20.7509C104.026 20.595 104.06 20.4865 104.134 20.4052C104.209 20.3306 104.331 20.2899 104.487 20.2899C104.65 20.2899 104.765 20.3238 104.839 20.4052C104.907 20.4797 104.941 20.595 104.941 20.7509C104.941 20.9272 104.907 21.0424 104.826 21.1102C104.751 21.1848 104.636 21.2119 104.487 21.2119ZM104.487 20.473C104.378 20.473 104.297 20.4933 104.263 20.534C104.222 20.5746 104.202 20.656 104.202 20.7577C104.202 20.8526 104.222 20.9272 104.263 20.9746C104.311 21.0288 104.412 21.0424 104.494 21.0424C104.602 21.0424 104.677 21.0221 104.717 20.9882C104.738 20.9678 104.772 20.9136 104.772 20.7577C104.772 20.6221 104.738 20.5543 104.711 20.5272C104.67 20.4933 104.595 20.473 104.487 20.473Z" fill="white"/>
<path d="M109.849 27.4962V26.5878C109.679 26.7437 109.517 26.8861 109.361 27.0149C109.205 27.1437 109.049 27.2589 108.893 27.3471C108.737 27.442 108.574 27.5165 108.412 27.5708C108.242 27.625 108.066 27.6521 107.876 27.6521C107.619 27.6521 107.402 27.6114 107.219 27.5369C107.036 27.4623 106.886 27.3538 106.778 27.2115C106.663 27.0691 106.581 26.8861 106.527 26.6759C106.473 26.4658 106.446 26.2217 106.446 25.9505C106.446 25.7133 106.473 25.4963 106.527 25.293C106.581 25.0896 106.69 24.9133 106.859 24.7506C107.022 24.5947 107.259 24.4659 107.558 24.3574C107.856 24.249 108.249 24.1744 108.737 24.127L109.856 24.0185V23.7338C109.856 23.4829 109.835 23.266 109.788 23.083C109.74 22.8999 109.666 22.744 109.551 22.6152C109.435 22.4932 109.286 22.4051 109.096 22.344C108.907 22.283 108.676 22.2491 108.391 22.2491C108.168 22.2491 107.971 22.2695 107.808 22.3101C107.646 22.3508 107.51 22.3983 107.395 22.4661C107.28 22.5271 107.185 22.6084 107.11 22.6966C107.036 22.7847 106.968 22.8796 106.907 22.9813L106.575 22.7711C106.656 22.6288 106.751 22.5067 106.859 22.3983C106.968 22.2898 107.09 22.1949 107.232 22.1203C107.375 22.0458 107.544 21.9847 107.727 21.9441C107.917 21.9034 108.134 21.8831 108.385 21.8831C108.737 21.8831 109.035 21.9237 109.279 21.9983C109.524 22.0729 109.72 22.1881 109.869 22.344C110.018 22.5 110.127 22.6966 110.188 22.9406C110.256 23.1779 110.29 23.4626 110.29 23.7948V27.503H109.849V27.4962ZM109.849 24.4117L108.757 24.5201C108.378 24.5608 108.066 24.6151 107.829 24.6896C107.591 24.7574 107.402 24.8523 107.266 24.9744C107.13 25.0896 107.036 25.2252 106.988 25.3811C106.941 25.5438 106.914 25.7268 106.914 25.937C106.914 26.4047 106.988 26.7369 107.144 26.9539C107.3 27.164 107.551 27.2725 107.91 27.2725C108.032 27.2725 108.154 27.2589 108.269 27.2318C108.385 27.2047 108.513 27.1505 108.656 27.0691C108.798 26.9878 108.968 26.8725 109.157 26.7302C109.347 26.581 109.578 26.3844 109.856 26.1404V24.4117H109.849Z" fill="white"/>
<path d="M107.87 27.7402C107.598 27.7402 107.368 27.6996 107.178 27.6182C106.988 27.5369 106.826 27.4216 106.704 27.2657C106.582 27.1098 106.493 26.92 106.432 26.703C106.378 26.4861 106.344 26.2353 106.344 25.9573C106.344 25.7133 106.371 25.4828 106.432 25.2794C106.493 25.0625 106.609 24.8727 106.785 24.7032C106.954 24.5405 107.205 24.3981 107.51 24.2896C107.815 24.1812 108.222 24.0998 108.71 24.0592L109.754 23.9575V23.7473C109.754 23.5033 109.734 23.2931 109.686 23.1169C109.646 22.9474 109.571 22.805 109.469 22.6898C109.368 22.5813 109.225 22.4932 109.056 22.4389C108.88 22.3779 108.649 22.3508 108.378 22.3508C108.161 22.3508 107.971 22.3711 107.815 22.405C107.666 22.4457 107.531 22.4932 107.429 22.5542C107.32 22.6152 107.232 22.6898 107.165 22.7711C107.09 22.8525 107.029 22.9474 106.968 23.0423L106.92 23.1169L106.446 22.805L106.487 22.7372C106.575 22.5881 106.676 22.4593 106.785 22.344C106.893 22.2288 107.029 22.1271 107.178 22.0457C107.327 21.9644 107.497 21.9034 107.7 21.8627C107.897 21.822 108.12 21.7949 108.378 21.7949C108.737 21.7949 109.049 21.8356 109.3 21.9102C109.558 21.9915 109.768 22.1135 109.924 22.2762C110.08 22.4457 110.195 22.6559 110.269 22.9067C110.337 23.1508 110.371 23.449 110.371 23.7812V27.5775H109.747V26.7844C109.632 26.8928 109.51 26.9945 109.402 27.0827C109.246 27.2115 109.083 27.3335 108.92 27.4284C108.758 27.5233 108.588 27.5979 108.419 27.6589C108.263 27.7131 108.073 27.7402 107.87 27.7402ZM108.392 22.1746C108.676 22.1746 108.927 22.2084 109.124 22.2695C109.327 22.3373 109.49 22.4322 109.612 22.5677C109.734 22.7033 109.822 22.8728 109.869 23.0694C109.917 23.2592 109.937 23.4829 109.937 23.7405V24.1066L108.737 24.2219C108.263 24.2693 107.87 24.3439 107.578 24.4456C107.293 24.5473 107.07 24.6761 106.914 24.8252C106.765 24.9743 106.656 25.137 106.609 25.3269C106.554 25.5235 106.527 25.7336 106.527 25.9641C106.527 26.2285 106.554 26.4658 106.602 26.6691C106.656 26.8657 106.731 27.0352 106.839 27.1708C106.948 27.3064 107.076 27.4013 107.246 27.4691C107.415 27.5436 107.626 27.5708 107.87 27.5708C108.053 27.5708 108.222 27.5436 108.378 27.4962C108.541 27.442 108.697 27.3742 108.846 27.2793C109.002 27.1911 109.151 27.0759 109.3 26.9539C109.456 26.825 109.619 26.6827 109.788 26.5268L109.93 26.3912V27.4081H110.208V23.7812C110.208 23.4626 110.174 23.1846 110.113 22.9474C110.052 22.7237 109.951 22.5338 109.808 22.3915C109.673 22.2491 109.483 22.1407 109.259 22.0661C109.022 21.9983 108.731 21.9576 108.392 21.9576C108.147 21.9576 107.937 21.978 107.754 22.0186C107.571 22.0593 107.415 22.1203 107.28 22.1881C107.144 22.2627 107.029 22.3508 106.927 22.4525C106.846 22.5406 106.771 22.6355 106.697 22.744L106.88 22.866C106.927 22.7847 106.981 22.7169 107.042 22.6491C107.131 22.5542 107.232 22.4661 107.354 22.3983C107.476 22.3305 107.619 22.2695 107.788 22.2356C107.958 22.1949 108.161 22.1746 108.392 22.1746ZM107.903 27.3538C107.524 27.3538 107.239 27.2318 107.07 27.0013C106.9 26.7708 106.819 26.4251 106.819 25.937C106.819 25.72 106.846 25.5235 106.9 25.354C106.954 25.1777 107.056 25.0286 107.205 24.9066C107.354 24.7845 107.551 24.6828 107.802 24.6083C108.046 24.5337 108.364 24.4795 108.751 24.4388L109.937 24.3168V26.181L109.91 26.2081C109.639 26.4522 109.402 26.6488 109.212 26.7979C109.022 26.9471 108.846 27.0623 108.697 27.1504C108.541 27.2386 108.405 27.2928 108.283 27.3199C108.154 27.3403 108.032 27.3538 107.903 27.3538ZM109.761 24.5066L108.764 24.6083C108.392 24.6422 108.08 24.6964 107.849 24.771C107.626 24.8388 107.442 24.9269 107.314 25.0354C107.192 25.137 107.11 25.2591 107.063 25.4082C107.015 25.5573 106.995 25.7336 106.995 25.937C106.995 26.3776 107.07 26.703 107.212 26.8996C107.348 27.0827 107.578 27.1843 107.903 27.1843C108.019 27.1843 108.134 27.1708 108.242 27.1437C108.351 27.1166 108.473 27.0691 108.608 26.9945C108.751 26.9132 108.914 26.7979 109.103 26.6556C109.286 26.5132 109.51 26.3302 109.768 26.0997V24.5066H109.761Z" fill="white"/>
<path d="M86.8541 30.2553C86.8066 30.2215 86.7456 30.1876 86.6778 30.1604C86.61 30.1333 86.5355 30.1062 86.4541 30.0791C86.3728 30.052 86.2914 30.0384 86.2033 30.0181C86.1152 30.0045 86.0338 29.9977 85.9525 29.9977C85.7965 29.9977 85.6609 30.0181 85.5525 30.0655C85.4372 30.1062 85.3491 30.1808 85.2745 30.296C85.2067 30.4045 85.1525 30.5536 85.1186 30.7299C85.0847 30.9129 85.0712 31.1366 85.0712 31.4146V32.0654H86.3931V32.4721H85.0712V37.5226H84.6237V32.4721H83.7153V32.0654H84.6237V31.3807C84.6237 31.0756 84.6509 30.8112 84.6915 30.5875C84.739 30.3706 84.8136 30.1808 84.922 30.0384C85.0305 29.8961 85.1661 29.7876 85.3423 29.713C85.5118 29.6452 85.722 29.6113 85.9728 29.6113C86.0813 29.6113 86.1897 29.6181 86.2846 29.6317C86.3863 29.6452 86.488 29.6723 86.5829 29.6927C86.6778 29.7198 86.7592 29.7469 86.8405 29.7808C86.9219 29.8147 86.9829 29.8486 87.0439 29.8825L86.8541 30.2553Z" fill="white"/>
<path d="M85.1595 37.6107H84.5358V32.5602H83.6274V31.984H84.5358V31.3875C84.5358 31.0756 84.563 30.8044 84.6104 30.5807C84.6579 30.3502 84.7392 30.1536 84.8545 29.9977C84.9697 29.8418 85.1256 29.7198 85.3087 29.6452C85.4917 29.5706 85.7154 29.5367 85.973 29.5367C86.0883 29.5367 86.1967 29.5435 86.3052 29.5639C86.4069 29.5774 86.5086 29.5978 86.6103 29.6317C86.7052 29.6588 86.8001 29.6927 86.8814 29.7266C86.9628 29.7605 87.0306 29.8011 87.0916 29.835L87.1594 29.8757L86.8814 30.3909L86.8001 30.3367C86.7594 30.3096 86.7052 30.2757 86.6374 30.2486C86.5696 30.2214 86.5018 30.1943 86.4205 30.1672C86.3391 30.1469 86.2645 30.1265 86.1832 30.113C85.9459 30.0723 85.729 30.0926 85.5798 30.1536C85.4849 30.1943 85.4036 30.2553 85.3426 30.357C85.2816 30.4587 85.2273 30.5943 85.2002 30.757C85.1663 30.9332 85.1528 31.157 85.1528 31.4213V31.984H86.4747V32.5602H85.1528V37.6107H85.1595ZM84.7121 37.4345H84.9901V32.384H86.312V32.1535H84.9901V31.4146C84.9901 31.1366 85.0036 30.9061 85.0375 30.7163C85.0714 30.5265 85.1324 30.3706 85.207 30.2486C85.2883 30.1265 85.3968 30.0316 85.5256 29.9842C85.7086 29.9096 85.9527 29.8893 86.2239 29.9299C86.312 29.9435 86.4001 29.9638 86.4815 29.9909C86.5628 30.0181 86.6442 30.0452 86.712 30.0723C86.7526 30.0926 86.7865 30.1062 86.8204 30.1265L86.9289 29.9232C86.895 29.9028 86.8543 29.8825 86.8136 29.8689C86.7391 29.835 86.6577 29.8079 86.5696 29.7808C86.4747 29.7537 86.3798 29.7333 86.2849 29.7198C86.19 29.7062 86.0883 29.6994 85.9866 29.6994C85.7493 29.6994 85.5459 29.7333 85.3832 29.7944C85.2273 29.8554 85.0985 29.9571 85.0036 30.0926C84.9019 30.2282 84.8274 30.3977 84.7867 30.6079C84.7392 30.8248 84.7189 31.0824 84.7189 31.3807V32.1467H83.8105V32.3772H84.7189V37.4345H84.7121Z" fill="white"/>
<path d="M91.7285 34.8109C91.7285 35.2448 91.6878 35.638 91.6132 35.9905C91.5319 36.343 91.4098 36.6413 91.2336 36.8989C91.0573 37.1497 90.8336 37.3463 90.5557 37.4819C90.2777 37.6175 89.9388 37.6853 89.5388 37.6853C89.1456 37.6853 88.8066 37.6175 88.5287 37.4819C88.2507 37.3463 88.0203 37.1497 87.844 36.8989C87.6677 36.648 87.5389 36.343 87.4644 35.9905C87.383 35.638 87.3491 35.2448 87.3491 34.8109C87.3491 34.3974 87.3898 34.011 87.4644 33.6584C87.5389 33.3059 87.6677 33.0009 87.844 32.7365C88.0135 32.4789 88.244 32.2755 88.5219 32.1264C88.7999 31.9772 89.1388 31.9094 89.5456 31.9094C89.932 31.9094 90.2642 31.9772 90.5353 32.106C90.8133 32.2416 91.037 32.4314 91.2132 32.6822C91.3895 32.9399 91.5183 33.2381 91.5996 33.5974C91.681 33.9567 91.7285 34.3635 91.7285 34.8109ZM91.2607 34.8109C91.2607 33.9635 91.1251 33.333 90.8539 32.9195C90.5828 32.506 90.1489 32.2958 89.5388 32.2958C89.2337 32.2958 88.9693 32.3501 88.7524 32.4585C88.5355 32.567 88.3524 32.7297 88.2169 32.9466C88.0813 33.1568 87.9796 33.4212 87.9118 33.733C87.8508 34.0449 87.8169 34.4042 87.8169 34.8177C87.8169 35.6583 87.9525 36.282 88.2304 36.6955C88.5083 37.109 88.9422 37.3124 89.5388 37.3124C90.1218 37.3124 90.5489 37.109 90.8336 36.7023C91.1183 36.282 91.2607 35.6583 91.2607 34.8109Z" fill="white"/>
<path d="M89.539 37.7734C89.1323 37.7734 88.7798 37.6988 88.4883 37.5565C88.1967 37.4141 87.9595 37.2107 87.7764 36.9463C87.5934 36.6887 87.4646 36.3701 87.3832 36.004C87.3019 35.6447 87.2612 35.2448 87.2612 34.8041C87.2612 34.3838 87.3019 33.9906 87.3832 33.6313C87.4646 33.272 87.5934 32.9534 87.7764 32.689C87.9527 32.4179 88.1967 32.2077 88.4883 32.0518C88.7798 31.8959 89.1391 31.8213 89.5526 31.8213C89.9526 31.8213 90.2983 31.8959 90.583 32.0314C90.8677 32.167 91.1118 32.3772 91.2948 32.6348C91.4779 32.8992 91.6134 33.211 91.6948 33.5771C91.7829 33.9432 91.8236 34.3499 91.8236 34.8041C91.8236 35.238 91.7829 35.6447 91.7083 36.004C91.627 36.3633 91.4982 36.6819 91.3152 36.9396C91.1321 37.2039 90.8948 37.4141 90.6033 37.5565C90.3051 37.6988 89.9525 37.7734 89.539 37.7734ZM89.539 31.9975C89.1526 31.9975 88.8272 32.0653 88.556 32.2077C88.2917 32.3501 88.0747 32.5399 87.9052 32.7907C87.7358 33.0415 87.6137 33.3398 87.5392 33.6788C87.4646 34.0245 87.4239 34.4041 87.4239 34.8109C87.4239 35.238 87.4646 35.6312 87.5392 35.9701C87.6137 36.3091 87.7425 36.6074 87.9052 36.8514C88.0747 37.0887 88.2917 37.2785 88.556 37.4073C88.8204 37.5361 89.1526 37.6039 89.5322 37.6039C89.9187 37.6039 90.244 37.5361 90.5084 37.4073C90.7728 37.2785 90.9898 37.0887 91.1525 36.8514C91.3219 36.6074 91.444 36.3091 91.5185 35.9769C91.5931 35.6312 91.6338 35.238 91.6338 34.8177C91.6338 34.377 91.5931 33.9771 91.5118 33.6313C91.4304 33.2856 91.3084 32.9873 91.1389 32.75C90.9694 32.5128 90.7525 32.3297 90.4949 32.2009C90.2305 32.0586 89.9119 31.9975 89.539 31.9975ZM89.539 37.387C88.9153 37.387 88.4476 37.17 88.1561 36.7362C87.8713 36.3091 87.7222 35.6651 87.7222 34.8109C87.7222 34.3974 87.7561 34.0245 87.8239 33.7059C87.8917 33.3873 87.9934 33.1093 88.1357 32.8924C88.2849 32.6687 88.4747 32.4924 88.7052 32.3772C88.9357 32.2619 89.2136 32.2009 89.5322 32.2009C90.1627 32.2009 90.6305 32.4246 90.9152 32.8653C91.1931 33.2924 91.3355 33.9432 91.3355 34.8041C91.3355 35.6651 91.1863 36.3159 90.8948 36.7362C90.6033 37.17 90.1491 37.387 89.539 37.387ZM89.539 32.3772C89.2475 32.3772 88.9967 32.4314 88.7865 32.5331C88.5832 32.6348 88.4137 32.7907 88.2849 32.9873C88.1493 33.1907 88.0544 33.4483 87.9934 33.7466C87.9324 34.0516 87.8985 34.4109 87.8985 34.8109C87.8985 35.6312 88.0341 36.2413 88.2984 36.6413C88.5628 37.0345 88.9696 37.2175 89.539 37.2175C90.0949 37.2175 90.4949 37.0345 90.7593 36.648C91.0304 36.2549 91.166 35.6447 91.166 34.8177C91.166 33.9906 91.0372 33.3669 90.7728 32.967C90.522 32.567 90.1152 32.3772 89.539 32.3772Z" fill="white"/>
<path d="M96.0811 32.4924C96.0065 32.4585 95.9455 32.4382 95.8913 32.4246C95.8371 32.411 95.7828 32.4043 95.7083 32.4043C95.5659 32.4043 95.4303 32.4246 95.3083 32.4517C95.1863 32.4856 95.0575 32.5466 94.9287 32.628C94.7931 32.7093 94.6507 32.8246 94.488 32.9669C94.3321 33.1093 94.1423 33.2991 93.9118 33.5228V37.5157H93.4644V32.0653H93.9118V33.0551C94.1016 32.8652 94.2711 32.7025 94.4202 32.567C94.5761 32.4314 94.7185 32.3229 94.8609 32.2348C95.0032 32.1467 95.132 32.0856 95.2676 32.045C95.4032 32.0043 95.5456 31.9772 95.7015 31.9772C95.7896 31.9772 95.8777 31.984 95.9523 32.0043C96.0337 32.0246 96.1082 32.0517 96.1896 32.0924L96.0811 32.4924Z" fill="white"/>
<path d="M94.0066 37.6106H93.3896V31.9772H94.0066V32.8517C94.1421 32.7229 94.2642 32.6076 94.3726 32.5059C94.5218 32.3704 94.6777 32.2551 94.8201 32.1602C94.9624 32.0721 95.1048 32.0043 95.2471 31.9568C95.3895 31.9162 95.5454 31.889 95.7081 31.889C95.803 31.889 95.8979 31.8958 95.9793 31.9162C96.0606 31.9365 96.1488 31.9636 96.2369 32.0043L96.3047 32.0382L96.1352 32.6008L96.0471 32.5602C95.9793 32.5331 95.9251 32.5127 95.8708 32.4992C95.8301 32.4924 95.7691 32.4856 95.7081 32.4856C95.5725 32.4856 95.4437 32.4992 95.3285 32.5331C95.2132 32.5602 95.098 32.6212 94.976 32.6958C94.8472 32.7771 94.7048 32.8856 94.5489 33.0279C94.4065 33.1635 94.2235 33.333 94.0066 33.5499V37.6106V37.6106ZM93.5591 37.4344H93.8371V33.4889L93.8642 33.4618C94.1015 33.2245 94.2913 33.0483 94.4404 32.9059C94.6099 32.75 94.7523 32.6347 94.8878 32.5534C95.0234 32.4653 95.159 32.4043 95.2878 32.3704C95.4166 32.3365 95.559 32.3161 95.7149 32.3161C95.7895 32.3161 95.8573 32.3229 95.9183 32.3365C95.9522 32.3432 95.9929 32.3568 96.0335 32.3704L96.1081 32.1331C96.0539 32.1128 96.0064 32.0992 95.959 32.0856C95.8844 32.0721 95.8098 32.0585 95.7285 32.0585C95.5861 32.0585 95.4505 32.0789 95.3217 32.1195C95.1929 32.1602 95.0641 32.2212 94.9353 32.3026C94.7997 32.3907 94.6574 32.4992 94.5082 32.628C94.3591 32.7635 94.1896 32.9262 93.9998 33.1093L93.8506 33.2584V32.1399H93.5727V37.4344H93.5591Z" fill="white"/>
<path d="M100.846 37.5225V36.6073C100.487 36.9395 100.155 37.1971 99.8364 37.3937C99.5177 37.5903 99.2127 37.6852 98.9076 37.6852C98.6161 37.6852 98.3856 37.6446 98.2026 37.5564C98.0195 37.4751 97.8772 37.3463 97.7755 37.1768C97.6738 37.0073 97.5992 36.8039 97.5586 36.5531C97.5179 36.3091 97.4976 36.0311 97.4976 35.7125V32.0653H97.945V35.6379C97.945 35.9769 97.9653 36.2548 97.9992 36.465C98.0399 36.6751 98.0941 36.8446 98.1755 36.9666C98.2568 37.0887 98.3585 37.17 98.4805 37.2175C98.6026 37.2581 98.7449 37.2785 98.9144 37.2785C99.4364 37.2785 100.08 36.8988 100.84 36.1396V32.0653H101.287V37.5225H100.846V37.5225Z" fill="white"/>
<path d="M98.9074 37.7734C98.6091 37.7734 98.3583 37.7259 98.1617 37.631C97.9651 37.5361 97.8091 37.4005 97.6939 37.2175C97.5854 37.0412 97.5041 36.8175 97.4702 36.5667C97.4295 36.3158 97.4092 36.0311 97.4092 35.7125V31.9772H98.0261V35.6379C98.0261 35.9701 98.0464 36.248 98.0803 36.4514C98.1142 36.648 98.1684 36.8107 98.243 36.9192C98.3176 37.0276 98.3989 37.0954 98.5074 37.1361C98.6226 37.1768 98.7582 37.1971 98.9142 37.1971C99.409 37.1971 100.026 36.831 100.758 36.1057V31.984H101.375V37.6174H100.758V36.8039C100.446 37.0751 100.155 37.2988 99.8768 37.4751C99.5514 37.6717 99.226 37.7734 98.9074 37.7734ZM97.5854 32.1534V35.7125C97.5854 36.0243 97.6058 36.3023 97.6464 36.5395C97.6871 36.77 97.7549 36.9666 97.8498 37.1293C97.9447 37.2785 98.0735 37.4005 98.243 37.4818C98.4125 37.5632 98.6362 37.6039 98.9142 37.6039C99.1989 37.6039 99.4972 37.509 99.7954 37.3259C100.107 37.1361 100.439 36.8717 100.792 36.5531L100.934 36.4175V37.4412H101.212V32.1534H100.934V36.1802L100.907 36.2074C100.134 36.9802 99.4633 37.3734 98.9209 37.3734C98.7447 37.3734 98.5888 37.3463 98.46 37.3056C98.3176 37.2581 98.2023 37.1632 98.1142 37.0209C98.0261 36.8853 97.9651 36.709 97.9244 36.4921C97.8837 36.2752 97.8634 35.9904 97.8634 35.6447V32.1534H97.5854V32.1534Z" fill="white"/>
<path d="M109.395 37.5226V34.0313C109.395 33.6517 109.382 33.3534 109.348 33.1297C109.314 32.906 109.267 32.7297 109.192 32.6145C109.124 32.4924 109.043 32.4111 108.934 32.3772C108.833 32.3433 108.711 32.323 108.568 32.323C108.412 32.323 108.27 32.3433 108.134 32.3907C107.999 32.4382 107.87 32.506 107.734 32.6009C107.599 32.6958 107.463 32.8178 107.307 32.9602C107.158 33.1026 106.982 33.272 106.792 33.4686V37.5361H106.345V33.9703C106.345 33.6245 106.331 33.3398 106.297 33.1297C106.263 32.9127 106.209 32.75 106.141 32.6348C106.074 32.5128 105.979 32.4382 105.87 32.3975C105.762 32.3568 105.626 32.3365 105.47 32.3365C105.335 32.3365 105.199 32.3636 105.063 32.4246C104.928 32.4789 104.792 32.5602 104.65 32.6619C104.508 32.7636 104.365 32.8788 104.216 33.0212C104.067 33.1636 103.918 33.3127 103.755 33.4822V37.5497H103.308V32.0653H103.755V32.9873C104.067 32.6484 104.372 32.384 104.657 32.1941C104.941 32.0043 105.226 31.9094 105.504 31.9094C105.87 31.9094 106.155 31.9976 106.365 32.1738C106.575 32.3568 106.704 32.6416 106.758 33.0348C106.928 32.8517 107.077 32.6822 107.226 32.5467C107.368 32.4043 107.511 32.2891 107.653 32.1941C107.795 32.0992 107.938 32.0247 108.087 31.9772C108.236 31.9298 108.399 31.9094 108.575 31.9094C108.846 31.9094 109.063 31.9569 109.226 32.0586C109.389 32.1535 109.517 32.2958 109.605 32.4721C109.694 32.6484 109.755 32.8585 109.782 33.0958C109.809 33.3398 109.822 33.5974 109.822 33.8822V37.5293H109.395V37.5226Z" fill="white"/>
<path d="M109.931 37.6107H109.314V34.0313C109.314 33.6585 109.3 33.3602 109.266 33.1433C109.239 32.9263 109.192 32.7636 109.124 32.6552C109.07 32.5535 108.995 32.4857 108.914 32.4586C108.819 32.4247 108.71 32.4044 108.575 32.4044C108.433 32.4044 108.29 32.4247 108.168 32.4654C108.039 32.506 107.917 32.5738 107.788 32.662C107.66 32.7501 107.517 32.8721 107.375 33.0077C107.226 33.1501 107.063 33.3128 106.887 33.489V37.6107H106.263V33.9568C106.263 33.611 106.25 33.3331 106.216 33.1297C106.182 32.9263 106.134 32.7704 106.073 32.662C106.012 32.5603 105.938 32.4925 105.85 32.4586C105.748 32.4247 105.626 32.4044 105.484 32.4044C105.362 32.4044 105.233 32.4315 105.111 32.4857C104.982 32.5399 104.846 32.6145 104.711 32.7162C104.568 32.8179 104.426 32.9331 104.29 33.0687C104.148 33.2043 104.006 33.3467 103.857 33.4958V37.6175H103.233V31.984H103.857V32.7772C104.121 32.5128 104.379 32.2891 104.623 32.1264C104.921 31.9298 105.226 31.8281 105.524 31.8281C105.904 31.8281 106.216 31.923 106.439 32.1196C106.629 32.2823 106.765 32.5332 106.833 32.8586C106.955 32.723 107.07 32.6009 107.178 32.4925C107.328 32.3501 107.477 32.2281 107.619 32.1264C107.768 32.0247 107.924 31.9502 108.08 31.9027C108.236 31.8552 108.412 31.8281 108.595 31.8281C108.88 31.8281 109.11 31.8824 109.287 31.9908C109.463 32.0993 109.605 32.2484 109.693 32.4382C109.788 32.6213 109.849 32.8382 109.883 33.089C109.91 33.3331 109.931 33.6043 109.931 33.889V37.6107ZM109.477 37.4345H109.754V33.8754C109.754 33.5975 109.741 33.3331 109.714 33.0958C109.687 32.8653 109.632 32.6687 109.544 32.4993C109.463 32.3366 109.348 32.2078 109.199 32.1196C109.049 32.0315 108.846 31.984 108.595 31.984C108.426 31.984 108.27 32.0044 108.134 32.0518C107.992 32.0993 107.856 32.1671 107.721 32.2552C107.585 32.3433 107.443 32.4586 107.3 32.6009C107.158 32.7365 107.002 32.906 106.839 33.089L106.711 33.2314L106.683 33.0416C106.636 32.6687 106.514 32.3976 106.324 32.2349C106.134 32.0722 105.863 31.984 105.524 31.984C105.26 31.984 104.989 32.079 104.724 32.2552C104.44 32.4382 104.141 32.7026 103.836 33.0348L103.687 33.1907V32.14H103.409V37.4277H103.687V33.4212L103.707 33.3941C103.863 33.2314 104.019 33.0755 104.175 32.9331C104.324 32.7975 104.467 32.6755 104.616 32.5671C104.758 32.4654 104.901 32.3772 105.043 32.323C105.185 32.262 105.334 32.2349 105.484 32.2349C105.653 32.2349 105.795 32.2552 105.911 32.3027C106.039 32.3501 106.141 32.445 106.223 32.5806C106.304 32.7094 106.358 32.8857 106.392 33.1094C106.426 33.3263 106.446 33.611 106.446 33.9636V37.448H106.717V33.428L106.745 33.4009C106.928 33.2111 107.104 33.0416 107.26 32.8925C107.416 32.7433 107.558 32.6213 107.7 32.5264C107.843 32.4247 107.978 32.3569 108.121 32.3094C108.256 32.262 108.412 32.2349 108.582 32.2349C108.738 32.2349 108.866 32.2552 108.982 32.2959C109.104 32.3433 109.205 32.4382 109.28 32.5738C109.354 32.7026 109.409 32.8789 109.443 33.1229C109.477 33.3467 109.49 33.6585 109.49 34.0381V37.4345H109.477Z" fill="white"/>
</svg>
