<svg width="74" height="45" viewBox="0 0 74 45" fill="none" xmlns="http://www.w3.org/2000/svg">
<path d="M3.83165 41.5594C3.43286 41.1546 3.23047 40.6584 3.23047 40.0737C3.23047 39.489 3.43286 38.9928 3.83165 38.588C4.23043 38.1832 4.73866 37.9808 5.35183 37.9808C6.09694 37.9808 6.76108 38.3676 7.1029 38.9748L6.74459 39.1832C6.48973 38.6915 5.95301 38.3736 5.35183 38.3736C4.8496 38.3736 4.43283 38.5355 4.115 38.8654C3.79717 39.1952 3.63525 39.594 3.63525 40.0737C3.63525 40.5535 3.79717 40.9522 4.115 41.2821C4.43283 41.6119 4.8496 41.7738 5.35183 41.7738C5.95301 41.7738 6.48973 41.456 6.74459 40.9642L7.1029 41.1666C6.77307 41.7738 6.09694 42.1666 5.35183 42.1666C4.73866 42.1666 4.23043 41.9642 3.83165 41.5594Z" fill="white"/>
<path d="M9.24267 41.7154H11.2066V42.0962H8.83789V38.0513H11.1781V38.4321H9.24267V39.8654H11.0342V40.2462H9.24267V41.7154Z" fill="white"/>
<path d="M14.7731 42.1666C14.1899 42.1666 13.6921 41.9642 13.2874 41.5594C12.8826 41.1486 12.6802 40.6584 12.6802 40.0737C12.6802 39.489 12.8826 38.9988 13.2874 38.594C13.6921 38.1832 14.1884 37.9808 14.7731 37.9808C15.3577 37.9808 15.854 38.1832 16.2588 38.594C16.6635 38.9988 16.8659 39.489 16.8659 40.0737C16.8659 40.6584 16.6635 41.1486 16.2588 41.5594C15.854 41.9642 15.3577 42.1666 14.7731 42.1666ZM14.7731 41.7738C15.2528 41.7738 15.6516 41.6119 15.9754 41.2821C16.2992 40.9522 16.4612 40.5475 16.4612 40.0737C16.4612 39.6 16.2992 39.2012 15.9754 38.8714C15.6516 38.5415 15.2528 38.3751 14.7731 38.3751C14.2933 38.3751 13.8945 38.543 13.5707 38.8714C13.2469 39.2012 13.085 39.6 13.085 40.0737C13.085 40.5475 13.2469 40.9522 13.5707 41.2821C13.8945 41.6119 14.2933 41.7738 14.7731 41.7738Z" fill="white"/>
<path d="M21.6857 41.5594C21.2869 41.1546 21.0845 40.6584 21.0845 40.0737C21.0845 39.489 21.2869 38.9928 21.6857 38.588C22.0844 38.1832 22.5927 37.9808 23.2058 37.9808C23.9509 37.9808 24.6151 38.3676 24.9569 38.9748L24.5986 39.1832C24.3437 38.6915 23.807 38.3736 23.2058 38.3736C22.7036 38.3736 22.2868 38.5355 21.969 38.8654C21.6512 39.1952 21.4893 39.594 21.4893 40.0737C21.4893 40.5535 21.6512 40.9522 21.969 41.2821C22.2868 41.6119 22.7036 41.7738 23.2058 41.7738C23.807 41.7738 24.3437 41.456 24.5986 40.9642L24.9569 41.1666C24.6271 41.7738 23.9509 42.1666 23.2058 42.1666C22.5927 42.1666 22.0844 41.9642 21.6857 41.5594Z" fill="white"/>
<path d="M27.0947 41.7154H28.9432V42.0962H26.6899V38.0513H27.0947V41.7154Z" fill="white"/>
<path d="M30.3838 38.0528H30.7886V40.7229C30.7886 41.3705 31.1934 41.7753 31.886 41.7753C32.5801 41.7753 32.9834 41.3705 32.9834 40.7229V38.0528H33.3882V40.7229C33.3882 41.1621 33.2503 41.5144 32.9729 41.7753C32.6956 42.0362 32.3312 42.1681 31.886 42.1681C31.4407 42.1681 31.0764 42.0347 30.7991 41.7753C30.5217 41.5159 30.3838 41.1621 30.3838 40.7229V38.0528V38.0528Z" fill="white"/>
<path d="M38.2879 40.9702C38.2879 41.2821 38.1785 41.5474 37.9581 41.7678C37.7392 41.9867 37.4723 42.0976 37.1605 42.0976H35.3975V38.0528H37.0271C37.3269 38.0528 37.5818 38.1622 37.7962 38.3766C38.0105 38.591 38.114 38.8444 38.114 39.1397C38.114 39.5145 37.9581 39.8039 37.6403 40.0003C38.033 40.1667 38.2879 40.531 38.2879 40.9702ZM35.8022 38.4336V39.8428H37.0271C37.2175 39.8428 37.3734 39.7739 37.5068 39.6404C37.6402 39.5025 37.7092 39.3346 37.7092 39.1382C37.7092 38.9478 37.6402 38.7799 37.5068 38.642C37.3734 38.5026 37.2175 38.4336 37.0271 38.4336H35.8022V38.4336ZM37.1605 41.7153C37.3629 41.7153 37.5308 41.6464 37.6687 41.501C37.8127 41.357 37.8831 41.1771 37.8831 40.9687C37.8831 40.7663 37.8142 40.5879 37.6687 40.4425C37.5308 40.2986 37.3629 40.2236 37.1605 40.2236H35.8022V41.7138H37.1605V41.7153Z" fill="white"/>
<path d="M42.6802 38.0528H43.085V40.7229C43.085 41.3705 43.4898 41.7753 44.1824 41.7753C44.8766 41.7753 45.2799 41.3705 45.2799 40.7229V38.0528H45.6846V40.7229C45.6846 41.1621 45.5452 41.5144 45.2679 41.7753C44.9905 42.0347 44.6262 42.1681 44.1809 42.1681C43.7357 42.1681 43.3714 42.0347 43.094 41.7753C42.8167 41.5159 42.6772 41.1621 42.6772 40.7229V38.0528H42.6802Z" fill="white"/>
<path d="M50.5258 42.0976H49.9936L48.0986 40.1382V42.0976H47.6938V38.0528H48.0986V39.9013L49.9366 38.0528H50.4689L48.5274 40.0167L50.5258 42.0976Z" fill="white"/>
<path d="M54.6067 42.0976L53.6592 40.48H52.5273V42.0976H52.1226V38.0528H53.7402C54.076 38.0528 54.3579 38.1742 54.5947 38.4111C54.8316 38.648 54.953 38.9313 54.953 39.2656C54.953 39.537 54.8721 39.7859 54.7042 40.0003C54.5423 40.2146 54.3339 40.3526 54.0805 40.4275L55.0685 42.0976H54.6067V42.0976ZM52.5273 38.4336V40.0977H53.7402C53.9651 40.0977 54.1555 40.0167 54.3129 39.8548C54.4688 39.6869 54.5498 39.4905 54.5498 39.2656C54.5498 39.0348 54.4688 38.8384 54.3129 38.6765C54.157 38.5145 53.9666 38.4336 53.7402 38.4336H52.5273Z" fill="white"/>
<path d="M59.5974 42.0976L59.2211 41.1037H57.3021L56.9258 42.0976H56.4985L58.0532 38.0528H58.47L60.0247 42.0976H59.5974ZM57.4475 40.7214H59.0772L58.2631 38.555L57.4475 40.7214Z" fill="white"/>
<path d="M61.6211 38.0528H62.0259V42.0976H61.6211V38.0528Z" fill="white"/>
<path d="M66.6621 38.0528H67.0669V42.0976H66.7206L64.4673 38.8039V42.0976H64.0625V38.0528H64.4088L66.6621 41.3465V38.0528Z" fill="white"/>
<path d="M69.5131 41.7154H71.4786V42.0962H69.1099V38.0513H71.4501V38.4321H69.5146V39.8654H71.3062V40.2462H69.5146V41.7154H69.5131Z" fill="white"/>
<path d="M58.2679 4.0015C55.8527 4.0015 53.5889 4.66115 51.643 5.80503L51.6415 5.80204L47.0285 8.46311C44.6237 5.73007 41.1066 4 37.1892 4C29.9586 4 24.0772 9.88285 24.0772 17.112C24.0772 18.5797 24.3231 19.9889 24.7699 21.3082L20.1658 23.9648L20.1643 23.9633C18.977 24.6694 17.5917 25.0772 16.112 25.0772C11.7193 25.0772 8.14675 21.5046 8.14675 17.112C8.14675 12.7193 11.7193 9.14675 16.112 9.14675C18.1029 9.14675 19.9244 9.88285 21.3232 11.0957C21.9499 9.45108 22.8239 7.9279 23.9018 6.57262C21.722 4.95799 19.0279 4 16.112 4C8.88285 4.0015 3 9.88435 3 17.1135C3 24.3441 8.88285 30.2255 16.112 30.2255C18.5272 30.2255 20.791 29.5658 22.7369 28.4219L22.7384 28.4249L27.3485 25.7654C29.7532 28.4984 33.2718 30.227 37.1907 30.227C44.4213 30.227 50.3027 24.3441 50.3027 17.115C50.3027 16.5378 50.2607 15.9711 50.1888 15.4134L45.0555 18.3758C44.4498 22.1703 41.1546 25.0802 37.1907 25.0802C35.1863 25.0802 33.3543 24.3351 31.9525 23.1088L54.2141 10.2622L54.2156 10.2637C55.403 9.55753 56.7882 9.14975 58.2679 9.14975C62.6606 9.14975 66.2332 12.7223 66.2332 17.115C66.2332 21.5076 62.6606 25.0802 58.2679 25.0802C56.277 25.0802 54.4555 24.3441 53.0567 23.1313C52.4301 24.7759 51.556 26.2991 50.4781 27.6543C52.6579 29.269 55.352 30.227 58.2679 30.227C65.4986 30.227 71.3799 24.3441 71.3799 17.115C71.3799 9.88435 65.4986 4.0015 58.2679 4.0015ZM29.2255 17.1135C29.2255 12.7208 32.7981 9.14825 37.1907 9.14825C39.1951 9.14825 41.0257 9.89485 42.4259 11.1212L29.3754 18.6532C29.2779 18.1554 29.2255 17.6412 29.2255 17.1135Z" fill="white"/>
</svg>
