<svg width="182" height="50" viewBox="0 0 182 50" fill="none" xmlns="http://www.w3.org/2000/svg">
<path d="M40.2577 24.91C40.2377 24.98 40.2277 25.04 40.2477 25.1C40.2877 25.05 40.2977 24.97 40.2577 24.91Z" fill="white"/>
<path d="M22.7915 7.03442C12.8795 7.03442 4.81592 15.098 4.81592 25.01C4.81592 34.9221 12.8795 42.9857 22.7915 42.9857C32.7036 42.9857 40.7672 34.9221 40.7672 25.01C40.7672 15.098 32.7036 7.03442 22.7915 7.03442ZM22.7915 9.29262C31.4546 9.29262 38.509 16.347 38.509 25.01C38.509 26.6587 38.2492 28.2475 37.7796 29.7463C37.5897 29.7662 37.2999 29.8262 37.0102 29.9161C36.5605 30.026 36.1808 30.106 35.9011 29.9661C36.021 30.086 36.1109 30.1959 35.8411 30.2958C35.7911 30.2958 35.7312 30.2958 35.6812 30.2958C35.6413 30.2858 35.5913 30.2658 35.5413 30.2558C35.4514 30.2159 35.3515 30.1759 35.2516 30.1359C35.0018 30.106 34.732 30.1359 34.6121 30.2159C34.5721 30.2359 34.5321 30.2558 34.5022 30.2758C34.4922 30.2858 34.4922 30.2958 34.4822 30.3158C34.4722 30.3458 34.4722 30.3857 34.4722 30.4357C34.4422 30.4057 34.4222 30.3857 34.4122 30.3558C34.3923 30.3857 34.3523 30.4157 34.3523 30.4457C34.2724 30.4857 34.1824 30.5256 34.1025 30.5656C33.9326 30.6555 33.7827 30.7455 33.7328 30.8554C33.6429 30.6855 33.523 30.6355 33.3731 30.6555C33.2132 30.6755 32.9834 30.7654 32.8135 30.8853C32.7436 30.9653 32.6536 31.0552 32.5737 31.0352C32.5038 31.0252 32.4438 30.9653 32.4338 30.7954L31.7144 30.8354L31.7344 30.7654C31.2748 30.7155 31.1149 30.8853 30.965 31.0552C30.8551 31.0052 30.935 30.9453 30.945 30.9053C30.5953 30.8354 30.4254 30.8154 30.2756 30.8554C30.1956 30.8754 30.1157 30.9153 30.0457 30.9553C29.9958 30.9753 29.9858 31.0052 29.9058 31.0452C29.8059 31.0752 29.746 31.1052 29.656 31.1451L29.5561 30.9353C29.5062 30.9753 29.4062 30.9853 29.2564 31.0152C29.2164 31.0252 29.1764 31.0252 29.1365 31.0352C29.0965 31.0452 29.0066 31.0452 28.9666 31.0552C28.8667 31.0552 28.7568 31.0652 28.6369 31.0852C28.1972 31.0652 27.7576 31.4749 27.4378 31.7746C27.4178 31.7546 27.3979 31.7147 27.4278 31.6547C27.258 31.8446 27.0581 32.0544 26.8783 32.2043C26.8283 32.2443 26.7883 32.2642 26.7484 32.3042C26.6984 32.3442 26.6684 32.4241 26.6584 32.4741C26.6285 32.594 26.6185 32.6839 26.6185 32.7838C26.6185 32.8238 26.6185 32.8538 26.6185 32.8937C26.4586 32.9037 26.2987 32.9437 26.1688 32.9737C26.0689 32.9937 25.999 33.0236 25.8991 33.0436C25.7991 33.0736 25.6992 33.1136 25.5993 33.1535C25.3995 33.2335 25.2096 33.3434 25.0497 33.4733C24.9698 33.5532 24.8999 33.6331 24.8199 33.7031C24.75 33.773 24.72 33.793 24.69 33.813C24.5601 33.9029 24.4502 33.9829 24.3303 34.0428C24.2604 34.0928 24.2004 34.0028 24.1405 33.9829C24.0805 33.9629 24.0106 33.9429 23.9306 33.9329C23.9306 33.9329 23.9306 33.9729 23.9406 34.0128C23.8807 33.9329 23.8307 33.863 23.7907 33.813C23.6309 33.6032 23.3211 33.1935 23.1812 32.9837C22.8815 32.534 22.3319 31.5748 22.1221 31.0652C21.9822 30.7355 21.7724 30.086 21.7524 29.7263C21.7324 29.4265 21.7324 28.767 21.8923 28.5072C22.0621 28.2175 22.4118 27.9277 22.6317 27.7978C22.9314 27.618 23.6509 27.3282 23.9007 27.2483C24.3203 27.1184 25.1796 26.9785 25.6093 26.8985C26.0289 26.8186 26.8983 26.7487 27.3079 26.6288C27.6976 26.5088 29.1664 26.0692 29.9958 24.9801C30.3055 24.5804 30.925 23.781 31.1748 23.3314C31.3847 22.9517 31.8243 21.7327 31.8243 21.7327C31.8243 21.7327 30.985 23.0316 30.8151 23.2814C30.5853 23.6112 30.0158 24.1907 29.766 24.4905C29.0066 25.4197 27.3779 25.6995 27.0381 25.8094C26.5585 25.9593 24.4202 26.0692 24.0305 26.1291C23.7508 26.1691 23.2112 26.339 22.9514 26.4389C22.7016 26.5388 22.0022 26.9285 22.0022 26.9285C22.0022 26.9285 22.3019 26.5788 22.4118 26.4789C22.6716 26.259 23.2412 25.9193 23.5309 25.7295C24.0106 25.4097 24.9498 24.6903 25.2895 24.2207C25.6393 23.7211 25.949 22.5021 26.1389 21.9025C26.2388 21.5828 26.5186 20.5536 26.7084 19.8442C27.0082 18.6751 28.0873 17.6859 28.417 17.3961C28.8367 17.0364 30.2456 16.1371 30.2456 16.1371L29.7959 16.367C29.7959 16.367 28.6568 16.9465 28.2871 17.1463C27.6876 17.4761 27.158 17.7958 26.3687 19.0748C26.2188 19.3246 25.8991 20.1939 25.8991 20.1939C25.8991 20.1939 25.3395 18.3554 22.9814 17.3961C22.6517 17.2662 21.9522 17.1763 21.6025 17.1463C21.1329 17.1064 19.704 17.1463 19.704 17.1463C19.704 17.1463 21.1628 17.3362 21.6425 17.4461C22.0222 17.536 22.7416 17.8058 23.0913 17.9657C23.3811 18.0956 23.9206 18.4353 24.1505 18.6451C24.4802 18.9449 25.0697 19.6843 25.1596 20.124C25.8091 23.1415 24.9998 23.8809 22.6716 25.6096C22.4518 25.7694 21.7524 26.2091 21.7524 26.2091C21.7524 26.2091 21.7024 25.4897 21.6525 25.2598C21.6025 25.0001 21.4626 24.4805 21.3327 24.2507C21.2328 24.0408 20.0537 21.9825 17.7256 21.8226C15.7272 21.6827 13.9886 22.4521 13.9886 22.4521C13.9886 22.4521 15.2975 22.1323 15.7472 22.0924C16.0669 22.0624 16.7164 22.0724 17.0461 22.0924C19.9038 22.2822 20.7632 24.9501 20.8331 25.1999C20.8831 25.4097 20.903 25.8494 20.8831 26.0692C20.8431 26.4789 20.5034 27.6679 20.5034 27.6679C20.5034 27.6679 20.1337 29.1068 20.5833 29.9761C20.7732 30.3458 20.963 31.1751 21.0829 31.5748C21.1828 31.8945 21.3727 32.544 21.4326 32.8738C21.4926 33.1835 21.4926 33.763 21.5625 34.1627C21.5325 34.1827 21.5425 34.2127 21.5825 34.2826C21.5825 34.2926 21.5925 34.3026 21.5925 34.3126C21.3927 34.1228 20.973 34.0828 20.5234 34.0928C20.3535 34.1128 20.2736 34.0928 20.1337 34.0528C19.9738 34.0029 19.8439 33.9529 19.8039 33.9129C19.4542 34.0028 19.1644 33.9029 18.8147 33.763C18.8947 33.843 18.8247 34.1327 18.5649 34.0128C18.6449 33.8829 18.6648 33.783 18.6548 33.7231C18.6449 33.6531 18.6249 33.6132 18.5649 33.5432C18.415 33.4033 18.2152 33.2534 18.2152 33.0036C18.2352 33.1335 18.1453 33.1236 18.0254 33.0736C17.9254 33.0436 17.6656 32.9037 17.5258 32.8738C17.3659 32.8837 17.2959 32.9337 17.4058 33.0936C17.0661 32.9737 17.4658 32.8738 17.206 32.6739C16.9662 32.6839 16.8663 32.6839 16.5965 32.624C16.0469 32.544 15.6972 32.3642 15.0577 32.2842H14.8879L14.768 32.2942C14.758 32.3742 14.8879 32.4941 14.718 32.614L14.2883 32.2143C14.1285 32.2543 14.1385 32.6739 13.8487 32.3941C13.8887 32.4641 13.9486 32.564 13.8387 32.584C13.6788 32.544 13.509 32.514 13.3391 32.4941L13.1093 32.4741L12.9894 32.4341L12.8595 32.3941L12.6596 32.3342L12.2 32.1943C11.8903 32.1044 11.5805 32.0244 11.2807 31.9145C10.981 31.8046 10.6812 31.7047 10.4114 31.5248C10.2716 31.4449 10.1417 31.345 10.0118 31.2451C9.94182 31.1951 9.88187 31.1451 9.82191 31.0852C9.72199 31.0052 9.61208 30.9353 9.50217 30.8554C9.78195 31.1351 9.55213 31.0552 9.33231 30.9753C9.47219 31.0752 9.29234 31.1651 9.29234 31.295C9.28235 31.285 9.27235 31.275 9.26236 31.275L8.8327 31.1252L8.51296 30.9753C8.47299 31.0552 8.40305 31.0952 8.31312 31.1152C7.51376 29.2367 7.07411 27.1783 7.07411 25.01C7.07411 16.347 14.1285 9.29262 22.7915 9.29262Z" fill="white"/>
<path d="M25.6495 18.4852C25.6495 18.4852 26.9185 17.1462 26.8086 15.5375C26.7087 14.1187 25.3098 12.48 25.3098 12.48C25.3098 12.48 24.1008 14.5283 24.2007 15.6574C24.3606 17.506 25.6495 18.4852 25.6495 18.4852Z" fill="white"/>
<path d="M29.8563 15.008C30.4158 13.9189 30.1161 12.0803 30.1161 12.0803C30.1161 12.0803 28.3075 13.0495 27.8778 13.9288C27.1784 15.3577 27.688 16.6567 27.688 16.6567C27.688 16.6567 29.2168 16.237 29.8563 15.008Z" fill="white"/>
<path d="M23.4215 17.1663C23.4215 17.1663 23.8312 15.5376 23.0418 14.3285C22.3423 13.2494 20.5138 12.5699 20.5138 12.5699C20.5138 12.5699 20.4638 14.7282 21.0334 15.5775C21.9726 16.9564 23.4215 17.1663 23.4215 17.1663Z" fill="white"/>
<path d="M18.7052 16.347C19.7943 16.8266 20.7436 16.4069 20.7436 16.4069C20.7436 16.4069 20.3838 15.2678 19.4446 14.8382C18.6153 14.4485 17.2563 14.7382 17.2563 14.7382C17.2563 14.7382 18.0357 16.0472 18.7052 16.347Z" fill="white"/>
<path d="M18.3452 20.094C19.0846 21.6227 20.5234 22.0424 20.5234 22.0424C20.5234 22.0424 21.1729 20.4637 20.5434 19.1247C19.9939 17.9357 18.2453 16.9865 18.2453 16.9865C18.2453 16.9865 17.8855 19.1547 18.3452 20.094Z" fill="white"/>
<path d="M15.3476 20.5835C16.4967 21.4628 17.7557 21.233 17.7557 21.233C17.7557 21.233 17.6558 19.7841 16.6666 18.9948C15.7873 18.2953 14.0986 18.2454 14.0986 18.2454C14.0986 18.2454 14.6482 20.0439 15.3476 20.5835Z" fill="white"/>
<path d="M15.028 21.2131C15.028 21.2131 14.1787 20.2538 13.0796 20.2339C12.0904 20.2139 10.8813 21.0832 10.8813 21.0832C10.8813 21.0832 12.2203 22.0424 12.9997 22.0424C14.2786 22.0424 15.028 21.2131 15.028 21.2131Z" fill="white"/>
<path d="M17.0162 25.9392C18.6749 26.9984 20.3436 26.5287 20.3436 26.5287C20.3436 26.5287 20.0238 24.5803 18.595 23.641C17.326 22.8017 15.0278 22.9416 15.0278 22.9416C15.0278 22.9416 15.9871 25.2997 17.0162 25.9392Z" fill="white"/>
<path d="M24.1808 22.5519C24.4706 21.1231 23.5313 19.1346 23.5313 19.1346C23.5313 19.1346 21.7827 20.8233 21.5729 21.9624C21.2332 23.8109 22.2324 25.1398 22.2324 25.1398C22.2324 25.1398 23.8511 24.1606 24.1808 22.5519Z" fill="white"/>
<path d="M26.1491 25.1498C26.1491 25.1498 28.0376 25.1698 29.1567 23.9708C30.1459 22.9116 30.3957 20.7134 30.3957 20.7134C30.3957 20.7134 28.0276 21.243 27.2483 22.1023C25.9893 23.5011 26.1491 25.1498 26.1491 25.1498Z" fill="white"/>
<path d="M27.8779 27.3781C27.8779 27.3781 28.997 28.797 30.5458 28.9069C31.9247 29.0068 33.7033 27.8877 33.7033 27.8877C33.7033 27.8877 31.8947 26.4389 30.7956 26.3689C28.997 26.269 27.8779 27.3781 27.8779 27.3781Z" fill="white"/>
<path d="M26.6386 27.7878C24.7401 27.2682 23.2812 28.2175 23.2812 28.2175C23.2812 28.2175 24.1605 29.986 25.8092 30.4657C27.2681 30.8853 29.4263 30.076 29.4263 30.076C29.4263 30.076 27.8076 28.1075 26.6386 27.7878Z" fill="white"/>
<path d="M16.6667 26.7086C14.7182 26.9784 13.729 28.4073 13.729 28.4073C13.729 28.4073 15.2278 29.6962 16.9264 29.4964C18.4352 29.3166 20.1139 27.7378 20.1139 27.7378C20.1139 27.7378 17.8657 26.5488 16.6667 26.7086Z" fill="white"/>
<path d="M11.6606 25.09C11.6606 25.09 12.9696 26.4988 13.8689 26.6887C15.3277 26.9884 16.3969 26.2091 16.3969 26.2091C16.3969 26.2091 15.6475 24.9101 14.3785 24.6303C13.2594 24.3805 11.6606 25.09 11.6606 25.09Z" fill="white"/>
<path d="M29.7161 17.376C28.1873 17.7857 27.5479 19.0347 27.5479 19.0347C27.5479 19.0347 28.8768 19.914 30.2157 19.5743C31.4048 19.2745 32.5838 17.8357 32.5838 17.8357C32.5838 17.8357 30.6554 17.1262 29.7161 17.376Z" fill="white"/>
<path d="M57.9636 20.1039L59.0228 17.8357L60.7314 14.3385H61.7806V22.9016H60.6415V17.0763H60.5815L59.7922 18.725L58.3533 21.6327H57.494L56.1251 18.9648L55.1959 17.0763H55.1359V22.9016H53.9868V14.3385H55.0859L56.8146 17.8357L57.8937 20.1039" fill="white"/>
<path d="M63.6289 22.9016V14.3385H69.3443V15.3877H64.768V18.1055H68.6849V19.1347H64.768V21.8725H69.3443V22.9016" fill="white"/>
<path d="M77.0284 20.1239C77.0284 20.5436 76.9484 20.9133 76.7986 21.263C76.6487 21.6127 76.4389 21.9025 76.1691 22.1423C75.9093 22.3921 75.5895 22.5719 75.2398 22.7118C74.8801 22.8417 74.5004 22.9117 74.0907 22.9117H70.8833V14.3485H74.1107C74.5104 14.3485 74.9001 14.4085 75.2498 14.5384C75.6095 14.6683 75.9193 14.8581 76.1791 15.0879C76.4488 15.3277 76.6487 15.6275 76.7986 15.9772C76.9484 16.3269 77.0184 16.7166 77.0184 17.1463L77.0284 20.1239ZM75.8593 17.3361C75.8593 16.9864 75.7994 16.6766 75.6895 16.4268C75.5696 16.177 75.4197 15.9772 75.2298 15.8173C75.04 15.6575 74.8201 15.5476 74.5803 15.4776C74.3405 15.4077 74.0907 15.3777 73.8409 15.3777H72.0424V21.8925H73.8409C74.0708 21.8925 74.3106 21.8625 74.5604 21.7926C74.8002 21.7226 75.02 21.6127 75.2098 21.4528C75.3997 21.293 75.5596 21.0931 75.6795 20.8433C75.7994 20.6035 75.8693 20.2938 75.8693 19.9241V17.3361H75.8593Z" fill="white"/>
<path d="M80.186 14.3385H79.0469V22.9016H80.186V14.3385Z" fill="white"/>
<path d="M87.6499 22.9016L86.9804 20.9732H83.5731L82.9137 22.9016H81.7246L84.7022 14.3385H85.8613L88.8589 22.9016H87.6499ZM85.2518 15.9072L84.6323 17.8957L83.9528 19.934H86.6307L85.9512 17.8957L85.3217 15.9072H85.2518Z" fill="white"/>
<path d="M99.5704 20.1239C99.5704 20.5436 99.4904 20.9133 99.3406 21.263C99.1907 21.6127 98.9809 21.9025 98.7111 22.1423C98.4513 22.3921 98.1315 22.5719 97.7818 22.7118C97.4221 22.8417 97.0424 22.9117 96.6327 22.9117H93.4253V14.3485H96.6427C97.0524 14.3485 97.4321 14.4085 97.7918 14.5384C98.1515 14.6683 98.4613 14.8581 98.7211 15.0879C98.9809 15.3277 99.1907 15.6275 99.3406 15.9772C99.4904 16.3269 99.5604 16.7166 99.5604 17.1463L99.5704 20.1239ZM98.4013 17.3361C98.4013 16.9864 98.3414 16.6766 98.2215 16.4268C98.1115 16.177 97.9517 15.9772 97.7618 15.8173C97.572 15.6575 97.3522 15.5476 97.1123 15.4776C96.8725 15.4077 96.6227 15.3777 96.3729 15.3777H94.5744V21.8925H96.3729C96.6027 21.8925 96.8426 21.8625 97.0824 21.7926C97.3222 21.7226 97.542 21.6127 97.7318 21.4528C97.9217 21.293 98.0816 21.0931 98.2015 20.8433C98.3314 20.6035 98.3913 20.2938 98.3913 19.9241V17.3361H98.4013Z" fill="white"/>
<path d="M101.359 22.9016V14.3385H107.084V15.3877H102.508V18.1055H106.425V19.1347H102.508V21.8725H107.084V22.9016" fill="white"/>
<path d="M111.441 21.1431L112.31 18.2054L113.529 14.3385H114.788L112.03 22.9016H110.781L108.023 14.3385H109.282L110.531 18.3553L111.371 21.1431" fill="white"/>
<path d="M116.057 22.9016V14.3385H121.773V15.3877H117.196V18.1055H121.113V19.1347H117.196V21.8725H121.773V22.9016" fill="white"/>
<path d="M123.411 22.9016V14.3385H124.56V21.8725H129.137V22.9016" fill="white"/>
<path d="M136.351 20.104C136.351 20.5436 136.271 20.9433 136.111 21.293C135.951 21.6527 135.721 21.9525 135.442 22.2023C135.152 22.4521 134.812 22.6419 134.432 22.7818C134.043 22.9217 133.633 22.9917 133.183 22.9917C132.724 22.9917 132.294 22.9217 131.904 22.7818C131.515 22.6419 131.175 22.4521 130.905 22.2023C130.625 21.9525 130.416 21.6527 130.256 21.293C130.096 20.9333 130.026 20.5436 130.026 20.104V17.1463C130.026 16.7167 130.106 16.327 130.256 15.9673C130.406 15.6076 130.625 15.3078 130.905 15.048C131.185 14.7982 131.515 14.5984 131.904 14.4585C132.294 14.3186 132.724 14.2487 133.183 14.2487C133.643 14.2487 134.063 14.3186 134.452 14.4585C134.842 14.5984 135.182 14.7982 135.462 15.048C135.741 15.2978 135.961 15.6076 136.121 15.9673C136.281 16.317 136.361 16.7167 136.361 17.1463L136.351 20.104ZM135.182 17.2862C135.182 16.9365 135.122 16.6367 135.022 16.3869C134.912 16.1371 134.772 15.9273 134.592 15.7774C134.412 15.6176 134.193 15.4977 133.953 15.4177C133.713 15.3478 133.453 15.3078 133.173 15.3078C132.904 15.3078 132.644 15.3478 132.404 15.4177C132.164 15.4877 131.944 15.6076 131.774 15.7774C131.595 15.9373 131.455 16.1371 131.345 16.3869C131.235 16.6367 131.185 16.9365 131.185 17.2862V19.9741C131.185 20.3238 131.245 20.6236 131.345 20.8634C131.455 21.1132 131.595 21.313 131.774 21.4729C131.954 21.6327 132.164 21.7527 132.414 21.8226C132.664 21.8925 132.914 21.9325 133.173 21.9325C133.443 21.9325 133.703 21.8925 133.943 21.8226C134.183 21.7527 134.392 21.6327 134.582 21.4729C134.762 21.313 134.912 21.1132 135.022 20.8634C135.132 20.6136 135.182 20.3138 135.182 19.9741V17.2862V17.2862Z" fill="white"/>
<path d="M144.015 16.8965C144.015 17.2062 143.965 17.506 143.845 17.8157C143.735 18.1155 143.575 18.3953 143.365 18.6351C143.155 18.8849 142.906 19.0847 142.606 19.2346C142.306 19.3845 141.966 19.4644 141.587 19.4644H139.179V22.9016H138.04V14.3385H141.597C142.016 14.3385 142.366 14.4184 142.676 14.5683C142.976 14.7182 143.225 14.918 143.425 15.1678C143.625 15.4076 143.775 15.6874 143.875 15.9872C143.965 16.2869 144.015 16.5967 144.015 16.8965ZM142.876 16.8965C142.876 16.4368 142.736 16.0671 142.446 15.7973C142.156 15.5176 141.797 15.3877 141.347 15.3877H139.169V18.4052H141.347C141.797 18.4052 142.156 18.2754 142.446 18.0056C142.736 17.7458 142.876 17.3761 142.876 16.8965Z" fill="white"/>
<path d="M149.321 20.1039L150.38 17.8357L152.078 14.3385H153.138V22.9016H151.988V17.0763H151.928L151.149 18.725L149.7 21.6327H148.851L147.482 18.9648L146.553 17.0763H146.483V22.9016H145.344V14.3385H146.433L148.161 17.8357L149.241 20.1039" fill="white"/>
<path d="M154.976 22.9016V14.3385H160.691V15.3877H156.115V18.1055H160.032V19.1347H156.115V21.8725H160.691V22.9016" fill="white"/>
<path d="M167.656 20.7534V14.3385H168.795V22.9016H167.696L164.698 18.4252L163.479 16.5567H163.389V22.9016H162.25V14.3385H163.329L166.427 18.9748L167.566 20.7534" fill="white"/>
<path d="M173.741 15.3977V22.9016H172.572V15.3977H170.104V14.3385H176.209V15.3977" fill="white"/>
<path d="M55.1359 28.1575V30.8753H59.0528V31.9145H55.1359V35.6814H53.9868V27.1183H59.7022V28.1575" fill="white"/>
<path d="M67.2463 32.8836C67.2463 33.3233 67.1664 33.723 67.0065 34.0827C66.8466 34.4424 66.6168 34.7421 66.3371 34.9919C66.0473 35.2417 65.7175 35.4316 65.3279 35.5715C64.9382 35.7014 64.5285 35.7713 64.0789 35.7713C63.6192 35.7713 63.1896 35.7014 62.7999 35.5715C62.4102 35.4316 62.0705 35.2417 61.8007 34.9919C61.5209 34.7421 61.3011 34.4424 61.1512 34.0827C61.0013 33.723 60.9214 33.3233 60.9214 32.8836V29.926C60.9214 29.4963 61.0013 29.0967 61.1512 28.7469C61.3011 28.3872 61.5209 28.0875 61.8007 27.8277C62.0805 27.5779 62.4102 27.378 62.7999 27.2382C63.1896 27.0983 63.6192 27.0283 64.0789 27.0283C64.5385 27.0283 64.9582 27.0983 65.3478 27.2382C65.7375 27.378 66.0773 27.5779 66.357 27.8277C66.6368 28.0775 66.8566 28.3872 67.0165 28.7469C67.1764 29.1067 67.2563 29.4963 67.2563 29.926L67.2463 32.8836ZM66.0773 30.0659C66.0773 29.7162 66.0173 29.4164 65.9174 29.1666C65.8175 28.9168 65.6676 28.717 65.4877 28.5571C65.3079 28.3972 65.098 28.2773 64.8482 28.2074C64.6084 28.1374 64.3486 28.0975 64.0689 28.0975C63.7991 28.0975 63.5393 28.1374 63.2995 28.2074C63.0497 28.2773 62.8399 28.3972 62.67 28.5571C62.4901 28.717 62.3502 28.9268 62.2403 29.1666C62.1304 29.4164 62.0805 29.7162 62.0805 30.0659V32.7537C62.0805 33.1035 62.1304 33.4032 62.2403 33.653C62.3502 33.9028 62.4901 34.1027 62.67 34.2625C62.8498 34.4224 63.0697 34.5323 63.3095 34.6123C63.5593 34.6822 63.8091 34.7222 64.0689 34.7222C64.3387 34.7222 64.5984 34.6822 64.8383 34.6123C65.0781 34.5323 65.2879 34.4224 65.4777 34.2625C65.6676 34.1027 65.8075 33.9028 65.9174 33.653C66.0273 33.4032 66.0773 33.1035 66.0773 32.7537V30.0659V30.0659Z" fill="white"/>
<path d="M74.9801 34.1527C74.8103 34.5024 74.5805 34.7921 74.2907 35.032C74.0009 35.2718 73.6612 35.4516 73.2815 35.5815C72.9018 35.7114 72.4921 35.7714 72.0625 35.7714C71.6328 35.7714 71.2232 35.7114 70.8335 35.5815C70.4438 35.4616 70.114 35.2718 69.8243 35.032C69.5345 34.7921 69.3147 34.5024 69.1448 34.1527C68.975 33.8029 68.895 33.4133 68.895 32.9736V27.1183H70.0641V32.7638C70.0641 33.1135 70.114 33.4132 70.224 33.663C70.3339 33.9129 70.4738 34.1127 70.6536 34.2726C70.8335 34.4324 71.0433 34.5423 71.2931 34.6223C71.5329 34.6922 71.7927 34.7322 72.0525 34.7322C72.3123 34.7322 72.5621 34.6922 72.8019 34.6223C73.0417 34.5523 73.2615 34.4324 73.4414 34.2726C73.6312 34.1127 73.7711 33.9129 73.891 33.663C74.0009 33.4132 74.0609 33.1135 74.0609 32.7638V27.1183H75.2299V32.9736C75.2299 33.4133 75.15 33.8029 74.9801 34.1527Z" fill="white"/>
<path d="M82.3442 33.5332V27.1183H83.4932V35.6814H82.3841L79.3865 31.205L78.1675 29.3265H78.0776V35.6814H76.9385V27.1183H78.0176L81.1151 31.7546L82.2542 33.5332" fill="white"/>
<path d="M91.4569 32.8937C91.4569 33.3033 91.3769 33.683 91.2271 34.0328C91.0772 34.3725 90.8673 34.6722 90.5976 34.9121C90.3378 35.1519 90.018 35.3417 89.6683 35.4816C89.3086 35.6115 88.9289 35.6814 88.5292 35.6814H85.3218V27.1183H88.5392C88.9389 27.1183 89.3286 27.1882 89.6783 27.3081C90.038 27.438 90.3478 27.6179 90.6076 27.8577C90.8673 28.0975 91.0772 28.3873 91.2271 28.737C91.3769 29.0867 91.4569 29.4764 91.4569 29.9061V32.8937ZM90.2878 30.1159C90.2878 29.7662 90.2279 29.4564 90.1179 29.2066C89.998 28.9568 89.8482 28.757 89.6583 28.5971C89.4685 28.4372 89.2486 28.3273 89.0088 28.2674C88.759 28.1974 88.5192 28.1674 88.2694 28.1674H86.4709V34.6822H88.2694C88.4992 34.6822 88.739 34.6523 88.9888 34.5823C89.2287 34.5124 89.4485 34.4025 89.6383 34.2426C89.8282 34.0827 89.988 33.8829 90.108 33.6431C90.2378 33.3933 90.2978 33.0935 90.2978 32.7238V30.1159H90.2878Z" fill="white"/>
<path d="M98.581 35.6814L97.9116 33.753H94.5043L93.8448 35.6814H92.6558L95.6434 27.1183H96.8024L99.8 35.6814H98.581ZM96.1829 28.687L95.5634 30.6754L94.884 32.7138H97.5518L96.8724 30.6754L96.2429 28.687H96.1829V28.687Z" fill="white"/>
<path d="M103.377 28.1674V35.6814H102.208V28.1674H99.73V27.1183H105.835V28.1674" fill="white"/>
<path d="M108.543 27.1183H107.394V35.6814H108.543V27.1183Z" fill="white"/>
<path d="M116.887 32.8836C116.887 33.3233 116.807 33.723 116.647 34.0827C116.487 34.4424 116.257 34.7421 115.977 34.9919C115.688 35.2417 115.358 35.4316 114.968 35.5715C114.579 35.7014 114.169 35.7713 113.719 35.7713C113.25 35.7713 112.83 35.7014 112.44 35.5715C112.051 35.4316 111.711 35.2417 111.431 34.9919C111.151 34.7421 110.941 34.4424 110.782 34.0827C110.632 33.723 110.552 33.3233 110.552 32.8836V29.926C110.552 29.4963 110.632 29.0967 110.782 28.7469C110.931 28.3872 111.151 28.0875 111.431 27.8277C111.711 27.5779 112.041 27.378 112.44 27.2382C112.83 27.0983 113.26 27.0283 113.719 27.0283C114.169 27.0283 114.599 27.0983 114.988 27.2382C115.378 27.378 115.718 27.5779 115.997 27.8277C116.277 28.0775 116.497 28.3872 116.657 28.7469C116.817 29.1067 116.897 29.4963 116.897 29.926L116.887 32.8836ZM115.718 30.0659C115.718 29.7162 115.658 29.4164 115.558 29.1666C115.448 28.9168 115.308 28.717 115.128 28.5571C114.948 28.3972 114.738 28.2773 114.489 28.2074C114.249 28.1374 113.989 28.0975 113.709 28.0975C113.439 28.0975 113.18 28.1374 112.94 28.2074C112.7 28.2773 112.48 28.3972 112.31 28.5571C112.13 28.717 111.991 28.9268 111.881 29.1666C111.771 29.4164 111.721 29.7162 111.721 30.0659V32.7537C111.721 33.1035 111.771 33.4032 111.881 33.653C111.991 33.9028 112.13 34.1027 112.31 34.2625C112.49 34.4224 112.7 34.5323 112.95 34.6123C113.19 34.6822 113.449 34.7222 113.709 34.7222C113.979 34.7222 114.239 34.6822 114.479 34.6123C114.718 34.5323 114.928 34.4224 115.118 34.2625C115.308 34.1027 115.448 33.9028 115.558 33.653C115.668 33.4032 115.718 33.1035 115.718 32.7537V30.0659Z" fill="white"/>
<path d="M124.041 33.5332V27.1183H125.18V35.6814H124.071L121.073 31.205L119.854 29.3265H119.774V35.6814H118.625V27.1183H119.704L122.802 31.7546L123.951 33.5332" fill="white"/>
</svg>
