<svg width="110" height="117" viewBox="0 0 110 117" fill="none" xmlns="http://www.w3.org/2000/svg"><path d="M86.697 106.562a3.48 3.48 0 1 0-6.871-1.115 3.48 3.48 0 0 0 6.871 1.115zm-13.415 5.105a3.883 3.883 0 1 0-7.558-1.785 3.883 3.883 0 0 0 7.558 1.785zm-14.073.631a4.29 4.29 0 1 0-8.47-1.374 4.29 4.29 0 0 0 8.47 1.374zm-18.452.889a4.695 4.695 0 1 0 0-9.39 4.695 4.695 0 0 0 0 9.39zm-7.791-10.755a5.1 5.1 0 1 0-10.067-1.634 5.1 5.1 0 0 0 10.067 1.634zm-15.518-5.397a5.519 5.519 0 1 0 0-11.037 5.519 5.519 0 0 0 0 11.037zM10.09 84.913a5.954 5.954 0 1 0 0-11.908 5.954 5.954 0 0 0 0 11.908zM6.435 71.26a6.39 6.39 0 1 0 0-12.779 6.39 6.39 0 0 0 0 12.78zm.299-14.207a6.734 6.734 0 1 0 0-13.47 6.734 6.734 0 0 0 0 13.47zm4.234-14.063a6.594 6.594 0 1 0 0-13.188 6.594 6.594 0 0 0 0 13.188zm7.873-12.373a6.464 6.464 0 1 0 0-12.927 6.464 6.464 0 0 0 0 12.927zm10.889-9.838a6.286 6.286 0 1 0 0-12.572 6.286 6.286 0 0 0 0 12.572zm14.238-6.724a6.007 6.007 0 1 0-2.272-11.798 6.007 6.007 0 0 0 2.272 11.798zm13.194-2.795a5.63 5.63 0 1 0 0-11.26 5.63 5.63 0 0 0 0 11.26zm19.094-1.885a5.155 5.155 0 1 0-9.221-4.61 5.155 5.155 0 0 0 9.221 4.61zm8.934 7.58a4.558 4.558 0 1 0 0-9.116 4.558 4.558 0 0 0 0 9.116zm11.585 8.115a3.86 3.86 0 1 0 0-7.72 3.86 3.86 0 0 0 0 7.72zm11.644 8.942a3.108 3.108 0 1 0-5.744-2.38 3.108 3.108 0 0 0 5.744 2.38z" fill="#fff"/><path d="M86.697 106.562a3.48 3.48 0 1 0-6.871-1.115 3.48 3.48 0 0 0 6.871 1.115zm-13.415 5.105a3.883 3.883 0 1 0-7.558-1.785 3.883 3.883 0 0 0 7.558 1.785zm-14.073.631a4.29 4.29 0 1 0-8.47-1.374 4.29 4.29 0 0 0 8.47 1.374zm-18.452.889a4.695 4.695 0 1 0 0-9.39 4.695 4.695 0 0 0 0 9.39zm-7.791-10.755a5.1 5.1 0 1 0-10.067-1.634 5.1 5.1 0 0 0 10.067 1.634zm-15.518-5.397a5.519 5.519 0 1 0 0-11.037 5.519 5.519 0 0 0 0 11.037zM10.09 84.913a5.954 5.954 0 1 0 0-11.908 5.954 5.954 0 0 0 0 11.908zM6.435 71.26a6.39 6.39 0 1 0 0-12.779 6.39 6.39 0 0 0 0 12.78zm.299-14.207a6.734 6.734 0 1 0 0-13.47 6.734 6.734 0 0 0 0 13.47zm4.234-14.063a6.594 6.594 0 1 0 0-13.188 6.594 6.594 0 0 0 0 13.188zm7.873-12.373a6.464 6.464 0 1 0 0-12.927 6.464 6.464 0 0 0 0 12.927zm10.889-9.838a6.286 6.286 0 1 0 0-12.572 6.286 6.286 0 0 0 0 12.572zm14.238-6.724a6.007 6.007 0 1 0-2.272-11.798 6.007 6.007 0 0 0 2.272 11.798zm13.194-2.795a5.63 5.63 0 1 0 0-11.26 5.63 5.63 0 0 0 0 11.26zm19.094-1.885a5.155 5.155 0 1 0-9.221-4.61 5.155 5.155 0 0 0 9.221 4.61zm8.934 7.58a4.558 4.558 0 1 0 0-9.116 4.558 4.558 0 0 0 0 9.116zm11.585 8.115a3.86 3.86 0 1 0 0-7.72 3.86 3.86 0 0 0 0 7.72zm11.644 8.942a3.108 3.108 0 1 0-5.744-2.38 3.108 3.108 0 0 0 5.744 2.38zm-13.317 8.993a1.394 1.394 0 1 0 0-2.787 1.394 1.394 0 0 0 0 2.787zM72.823 98.457a3.217 3.217 0 1 0-1.642-6.222 3.217 3.217 0 0 0 1.642 6.222zm-11.515 2.615a3.52 3.52 0 1 0 0-7.04 3.52 3.52 0 0 0 0 7.04zm-9.905-.625a3.826 3.826 0 1 0-1.954-7.398 3.826 3.826 0 0 0 1.954 7.398zM40.157 97.17a4.138 4.138 0 1 0 0-8.277 4.138 4.138 0 0 0 0 8.277zm-8.871-6.034a4.465 4.465 0 1 0 0-8.93 4.465 4.465 0 0 0 0 8.93zm-6.801-8.209a4.791 4.791 0 1 0 0-9.583 4.791 4.791 0 0 0 0 9.583zm-4.234-9.807a5.049 5.049 0 1 0 0-10.097 5.049 5.049 0 0 0 0 10.097zm-1.346-10.933a4.945 4.945 0 1 0 0-9.891 4.945 4.945 0 0 0 0 9.89zm1.659-10.888a4.847 4.847 0 1 0 0-9.694 4.847 4.847 0 0 0 0 9.694zm4.513-10.073a4.714 4.714 0 1 0 0-9.428 4.714 4.714 0 0 0 0 9.428zm9.62-9.363a4.505 4.505 0 1 0-5.155-7.389 4.505 4.505 0 0 0 5.155 7.389zm6.471-5.573a4.22 4.22 0 1 0 0-8.441 4.22 4.22 0 0 0 0 8.441zm10.366-3.788a3.865 3.865 0 1 0 0-7.73 3.865 3.865 0 0 0 0 7.73zm10.905-.927a3.419 3.419 0 1 0 0-6.838 3.419 3.419 0 0 0 0 6.838zm11.797 1.733a2.896 2.896 0 1 0-2.356-5.291 2.896 2.896 0 0 0 2.356 5.29zm8.444 4.966a2.333 2.333 0 1 0-.122-4.665 2.333 2.333 0 0 0 .123 4.665zm7.914 7.116a1.784 1.784 0 1 0-.444-3.54 1.784 1.784 0 0 0 .444 3.54zm-12.433.8a1.046 1.046 0 1 0 0-2.091 1.046 1.046 0 0 0 0 2.092zM64.369 89.424a2.87 2.87 0 1 0 0-5.74 2.87 2.87 0 0 0 0 5.74zm-8.166.816a3.103 3.103 0 1 0 0-6.207 3.103 3.103 0 0 0 0 6.206zm-8.019-1.404a3.35 3.35 0 1 0 0-6.7 3.35 3.35 0 0 0 0 6.7zm-7.265-3.532a3.594 3.594 0 1 0 0-7.188 3.594 3.594 0 0 0 0 7.188zm-5.97-5.409a3.788 3.788 0 1 0 0-7.576 3.788 3.788 0 0 0 0 7.576zm-4.226-7.091a3.708 3.708 0 1 0 0-7.417 3.708 3.708 0 0 0 0 7.417zm-2.155-7.969a3.637 3.637 0 1 0 0-7.273 3.637 3.637 0 0 0 0 7.273zm.061-8.287a3.536 3.536 0 1 0 0-7.071 3.536 3.536 0 0 0 0 7.071zm2.28-8.022a3.38 3.38 0 1 0 0-6.758 3.38 3.38 0 0 0 0 6.758zm4.34-7.154a3.167 3.167 0 1 0 0-6.334 3.167 3.167 0 0 0 0 6.334zm6.052-5.78a2.899 2.899 0 1 0 0-5.797 2.899 2.899 0 0 0 0 5.797zm7.326-3.991a2.564 2.564 0 1 0 0-5.128 2.564 2.564 0 0 0 0 5.128zm8.043-1.919a2.171 2.171 0 1 0 0-4.343 2.171 2.171 0 0 0 0 4.343zm8.158.284a1.75 1.75 0 1 0 0-3.498 1.75 1.75 0 0 0 0 3.498zm8.352 2.293a1.338 1.338 0 1 0-1.385-2.29 1.338 1.338 0 0 0 1.385 2.29zM64.7 36.71a.783.783 0 1 0 0-1.567.783.783 0 0 0 0 1.566zm5.53 2.848a.956.956 0 1 0 0-1.911.956.956 0 0 0 0 1.91zm-22.582-.675a1.63 1.63 0 1 0 0-3.26 1.63 1.63 0 0 0 0 3.26zm5.802-2.323a1.311 1.311 0 1 0 0-2.623 1.311 1.311 0 0 0 0 2.623zm6.133-.66a1.003 1.003 0 1 0 0-2.008 1.003 1.003 0 0 0 0 2.007zM38.156 46.933c.403-.085 1.04-.148 1.688-.148.924 0 1.518.159 1.964.52.372.276.595.7.595 1.264 0 .69-.457 1.295-1.21 1.57v.022c.679.17 1.475.733 1.475 1.795a1.93 1.93 0 0 1-.605 1.433c-.499.457-1.306.669-2.474.669a10.7 10.7 0 0 1-1.433-.085v-7.04zm.924 2.928h.838c.977 0 1.55-.51 1.55-1.2 0-.838-.637-1.168-1.57-1.168-.426 0-.67.032-.819.064v2.304zm0 3.43c.18.032.445.042.775.042.955 0 1.837-.35 1.837-1.39 0-.977-.84-1.381-1.848-1.381h-.764v2.729zm5.712-5.884c.01.318-.223.573-.595.573a.556.556 0 0 1-.562-.573.57.57 0 0 1 .584-.584c.35.002.573.257.573.584zm-1.04 6.583v-5.14h.934v5.14h-.935zm6.338-5.139v4.439l.531.01-.053 2.326h-.732l-.043-1.636h-3.557l-.042 1.636h-.733l-.043-2.326.436-.01c.223-.33.393-.68.51-1.052a6.784 6.784 0 0 0 .297-2.049v-1.338h3.43zm-2.601 1.561c0 .68-.096 1.338-.266 1.911-.106.35-.254.67-.414.956h2.368v-3.716H47.49v.85zm5.043-1.561v2.23h.223l1.933-2.23h1.136l-2.24 2.326c.828.085 1.327.637 1.73 1.56.138.34.319.84.552 1.253h-.977c-.138-.223-.318-.626-.477-1.05-.35-.829-.828-1.211-1.7-1.211h-.18v2.261h-.923v-5.139h.923zm4.035 1.679c0-.658-.021-1.19-.042-1.678h.839l.042.882h.021c.383-.627.988-.998 1.827-.998 1.242 0 2.176 1.05 2.176 2.612 0 1.847-1.125 2.76-2.336 2.76-.68 0-1.274-.297-1.582-.807h-.021v2.793h-.924V50.53zm.924 1.37c0 .138.021.265.042.382.17.648.733 1.094 1.402 1.094.987 0 1.56-.807 1.56-1.986 0-1.03-.54-1.911-1.528-1.911-.637 0-1.232.456-1.412 1.157a1.518 1.518 0 0 0-.064.383v.88zm5.851-3.049v2.166c0 .818-.011 1.328-.054 2.06l.032.01c.308-.626.489-.987.828-1.581l1.604-2.655h1.093v5.14h-.891v-2.177c0-.84.02-1.274.063-2.103h-.032a28.448 28.448 0 0 1-.85 1.593c-.488.796-1.05 1.784-1.602 2.686H62.46v-5.139h.882zm8.335 0v.744h-1.604v4.395h-.924v-4.395h-1.603v-.744h4.13zm1.55 0v2.166c0 .818-.01 1.328-.053 2.06l.032.01c.307-.626.488-.987.828-1.581l1.603-2.655h1.094v5.14h-.892v-2.177c0-.84.021-1.274.064-2.103h-.032a29.36 29.36 0 0 1-.85 1.593c-.488.796-1.05 1.784-1.603 2.686h-1.072v-5.139h.88zm5.755 0v2.166c0 .818-.01 1.328-.053 2.06l.032.01c.308-.626.488-.987.828-1.581l1.603-2.655h1.094v5.14h-.892v-2.177c0-.84.021-1.275.064-2.103h-.032c-.33.659-.552 1.073-.85 1.593-.488.796-1.05 1.784-1.603 2.686h-1.072v-5.139h.88zm.605-2.089c.032.457.255.807.68.807.456 0 .669-.34.722-.807h.669c-.043.87-.595 1.317-1.413 1.317-.934 0-1.295-.584-1.338-1.317h.68zm-31.61 12.813l1.423 3.047c.18.425.35.84.52 1.264h.022c.127-.372.265-.786.446-1.295l1.114-3.016h.977l-1.497 3.674c-.393.956-.839 2.05-1.338 2.718-.467.584-.987.882-1.624.882-.234 0-.404-.022-.52-.064l.095-.754c.074.021.18.032.34.032.743-.01 1.178-.722 1.401-1.232.075-.16.053-.265-.031-.435l-2.379-4.82h1.051zm5.755 2.018v2.07h2.442v-2.07h.924v5.14h-.924v-2.326h-2.442v2.325h-.923v-5.139h.923zm5.808-1.443c.01.318-.223.573-.594.573a.556.556 0 0 1-.563-.574.57.57 0 0 1 .584-.584c.35 0 .573.255.573.584zm-1.04 6.583v-5.14h.934v5.14H58.5zm2.336-5.077a11.05 11.05 0 0 1 1.635-.116c.86 0 2.283.138 2.283 1.284 0 .637-.489 1.03-1.073 1.158v.02c.754.107 1.306.532 1.306 1.275 0 1.349-1.699 1.518-2.707 1.518a20.02 20.02 0 0 1-1.444-.063v-5.076zm.881 4.46c.265.032.457.042.754.042.626 0 1.56-.148 1.56-.892 0-.743-.743-.902-1.635-.902h-.679v1.752zm.01-2.368h.701c.69 0 1.402-.202 1.402-.807 0-.51-.446-.754-1.38-.754-.308 0-.5.022-.722.043v1.518zm4.832.584c.021 1.264.828 1.784 1.762 1.784.67 0 1.073-.117 1.423-.265l.16.669c-.33.148-.892.318-1.71.318-1.582 0-2.527-1.04-2.527-2.59 0-1.55.913-2.772 2.41-2.772 1.678 0 2.124 1.476 2.124 2.421 0 .191-.021.34-.032.435h-3.61zm2.74-.669c.01-.594-.245-1.518-1.296-1.518-.945 0-1.36.87-1.434 1.518h2.73zm1.931-.393c0-.658-.02-1.189-.042-1.677h.839l.043.881h.02c.383-.626.988-.998 1.827-.998 1.242 0 2.177 1.051 2.177 2.612 0 1.848-1.126 2.76-2.336 2.76-.68 0-1.274-.297-1.582-.806h-.022v2.792h-.923V63.27zm.924 1.37c0 .138.022.266.043.382.17.648.733 1.094 1.401 1.094.988 0 1.561-.807 1.561-1.985 0-1.03-.541-1.912-1.529-1.912-.637 0-1.231.457-1.412 1.158a1.518 1.518 0 0 0-.064.382v.881zm8.654 1.901c-.244.128-.786.298-1.476.298-1.55 0-2.559-1.051-2.559-2.623 0-1.582 1.083-2.729 2.76-2.729.553 0 1.041.138 1.296.266l-.212.722c-.223-.128-.574-.244-1.083-.244-1.179 0-1.816.87-1.816 1.943 0 1.189.765 1.921 1.784 1.921.53 0 .881-.138 1.147-.254l.159.7zm1.826-4.948v2.166c0 .818-.01 1.327-.053 2.06l.032.01c.308-.626.489-.987.828-1.581l1.604-2.655h1.093v5.14h-.892v-2.178c0-.838.022-1.274.064-2.102h-.032a29.36 29.36 0 0 1-.85 1.593c-.488.796-1.05 1.784-1.602 2.686h-1.073v-5.139h.881zm8.336 0v.743h-1.604v4.396h-.924v-4.396H86.84v-.743h4.13zm1.072 2.739c.021 1.264.828 1.784 1.762 1.784.67 0 1.073-.117 1.423-.265l.16.669c-.33.148-.892.318-1.71.318-1.582 0-2.527-1.04-2.527-2.59 0-1.55.913-2.772 2.41-2.772 1.678 0 2.124 1.476 2.124 2.421 0 .191-.022.34-.032.435h-3.61zm2.74-.669c.01-.594-.245-1.518-1.296-1.518-.945 0-1.36.87-1.434 1.518h2.73zm5.361-2.07v.743H98.54v4.396h-.924v-4.396h-1.603v-.743h4.13zM57.268 72.404a10.71 10.71 0 0 1 1.773-.138c.913 0 1.582.213 2.007.595.393.34.626.86.626 1.497 0 .648-.19 1.157-.552 1.53-.488.52-1.285.785-2.187.785-.276 0-.53-.01-.743-.064v2.867h-.924v-7.072zm.924 3.449a3.1 3.1 0 0 0 .764.074c1.115 0 1.795-.542 1.795-1.53 0-.944-.67-1.4-1.689-1.4-.403 0-.711.031-.87.074v2.782zm4.788 1.221c.022 1.264.829 1.784 1.763 1.784.669 0 1.073-.117 1.423-.265l.16.668c-.33.15-.893.32-1.71.32-1.582 0-2.527-1.041-2.527-2.592 0-1.55.913-2.771 2.41-2.771 1.678 0 2.124 1.476 2.124 2.42 0 .192-.022.34-.032.436h-3.61zm2.74-.669c.01-.594-.244-1.518-1.296-1.518-.945 0-1.359.87-1.433 1.518h2.729zm5.043-4.467v2.304c1.498.106 2.58 1.05 2.58 2.654 0 1.688-1.146 2.58-2.58 2.676v2.007h-.849v-1.997c-1.487-.095-2.58-1.03-2.58-2.633 0-1.699 1.136-2.59 2.58-2.707v-2.305h.85zm-.849 2.938c-1.04.138-1.656.987-1.656 2.039 0 1.061.637 1.89 1.656 2.017v-4.056zm.85 4.056c1.03-.138 1.656-.987 1.656-2.039 0-1.061-.627-1.868-1.657-2.017v4.056zm8.271-2.07c0 1.9-1.317 2.729-2.56 2.729-1.39 0-2.462-1.02-2.462-2.644 0-1.72 1.125-2.729 2.548-2.729 1.476 0 2.474 1.072 2.474 2.644zm-4.078.053c0 1.125.648 1.975 1.561 1.975.892 0 1.561-.839 1.561-1.996 0-.87-.435-1.975-1.54-1.975-1.104 0-1.582 1.02-1.582 1.996zm5.129-.902c0-.659-.021-1.19-.042-1.678h.838l.043.881h.021c.382-.626.988-.998 1.826-.998 1.243 0 2.177 1.051 2.177 2.612 0 1.848-1.125 2.76-2.336 2.76-.68 0-1.274-.297-1.582-.806h-.021v2.792h-.924v-5.563zm.924 1.37c0 .137.021.265.042.381.17.648.733 1.094 1.402 1.094.987 0 1.56-.807 1.56-1.986 0-1.03-.54-1.91-1.528-1.91-.637 0-1.232.456-1.412 1.157a1.514 1.514 0 0 0-.064.382v.881zm5.043-3.048H87.2l.934 2.591c.128.382.35 1.009.468 1.412h.02c.118-.382.404-1.2.606-1.762l.828-2.24h1.158l.36 5.139h-.891l-.117-2.453c-.032-.552-.074-1.21-.096-1.837h-.031a26.46 26.46 0 0 1-.563 1.667l-.988 2.59h-.68l-.912-2.537a38.651 38.651 0 0 1-.51-1.71h-.043a90.883 90.883 0 0 1-.084 1.848l-.128 2.431h-.86l.382-5.139z" fill="#fff"/></svg>