<svg width="120" height="52" viewBox="0 0 120 52" fill="none" xmlns="http://www.w3.org/2000/svg"><g clip-path="url(#a)" fill="#fff"><path d="M119.082 39.022V.921H72.77L39.478 12.843H.688V51.96H39.5l33.278-12.938h46.304zM73.585 2.514h43.904v34.915H73.585V2.514zm-1.593 34.522L41.45 13.77 71.992 2.877v34.16zm-33.337 13.33H2.28V14.445h36.375v35.923zm1.6-35.404l30.477 23.134-30.476 11.841V14.963z"/><path d="M8.905 12.843H7.319V51.96h1.586V12.843zm6.18 0H13.49V51.96h1.594V12.843zm6.179 0h-1.593V51.96h1.593V12.843zm6.18 0h-1.593V51.96h1.593V12.843zm6.173 0H32.03V51.96h1.586V12.843zM118.43 6.67H73.126v1.594h45.304V6.671zm0 6.18H73.126v1.594h45.304V12.85zm0 6.18H73.126v1.594h45.304V19.03zm0 6.173H73.126v1.593h45.304v-1.593zm0 6.18H73.126v1.593h45.304v-1.593z"/><path d="M16.181 24.18H9.713v15.865h3.816V35.14h2.66c3.03 0 5.083-2.312 5.083-5.506-.008-3.193-2.053-5.453-5.09-5.453zm-.778 7.633H13.53v-4.305h1.941c1.26 0 1.92.867 1.92 2.134 0 1.26-.66 2.17-1.987 2.17zm11.886-.556h-.045s.045-.334.045-.711v-1.927h-3.616v11.426h3.771v-4.439c0-2.082 1.008-3.438 3.098-3.438.259 0 .63.023.763.067v-3.772a2.647 2.647 0 0 0-.438-.044c-1.689 0-3.104 1.282-3.578 2.838zm24.148-12.663l-3.72 1.637v2.994l3.72-1.638v-2.993zm-3.757 17.42c.045 1.726-2.356 2.497-2.526 2.556v3.194c2.57-.77 6.328-3.208 6.328-7.047V23.01l-3.801 1.674v11.33zm16.843-13.849c0-3.171-1.89-4.372-5.231-3.216-3.772 1.304-5.891 3.898-5.891 8.559 0 3.038 2.141 4.712 6.224 3.245 2.016-.726 3.601-2.186 4.831-3.794l-1.408-2.06c-.926 1.023-2.015 2.008-3.126 2.527-2.283 1.075-2.705.311-2.638-.874l7.143-3.15c.059-.422.096-.837.096-1.237zm-7.143 2.149c.2-1 .726-2.03 1.83-2.512.963-.422 1.867-.163 1.556 1.023l-3.386 1.489zm26.23-3.49v-3.505h2.357v-2.993h-2.356v-3.283h-3.66v3.283H78.4v2.993h1.438v4.016c0 3.838 3.468 4.328 5.254 4.328.437 0 .74-.045 1.022-.067v-3.327c-.237.022-.37.022-.504.022-.71 0-2-.178-2-1.467zm10.597-6.966c-3.505 0-6.343 2.416-6.343 6.01 0 3.571 2.838 5.95 6.365 5.95 3.535 0 6.365-2.371 6.365-5.95 0-3.594-2.83-6.01-6.387-6.01zm.022 8.766c-1.37 0-2.549-1.045-2.549-2.749 0-1.734 1.178-2.816 2.55-2.816 1.37 0 2.548 1.09 2.548 2.816 0 1.704-1.178 2.75-2.549 2.75zm15.894-8.699c-1.682 0-3.097 1.282-3.571 2.838h-.045s.045-.333.045-.711v-1.927h-3.624v11.426h3.772v-4.438c0-2.082 1-3.438 3.097-3.438.267 0 .637.022.763.066V13.97a2.716 2.716 0 0 0-.437-.045zM39.5 40.223c-3.564 0-6.424-2.379-6.424-5.965 0-3.601 2.882-6.024 6.424-6.024v3.2c-1.386 0-2.571 1.09-2.571 2.824 0 1.712 1.185 2.756 2.571 2.756v3.209z"/><path d="M45.361 32.406c-.289-3.313-2.852-5.136-5.868-4.165v3.201s1.963-.385 2.17 1.808c.164 1.742-.622 3.305-2.17 3.772v3.2c2.956 0 6.224-3.845 5.868-7.816zm30.677-11.249c-.822.712-1.875 1.349-3.142 1.475v3.104c2.097-.526 3.194-.955 4.454-1.845l-1.312-2.734zm-.578-3.097l1.63-2.586c-1.052-1.126-2.371-1.726-4.186-1.726v3.2c.956.045 1.919.49 2.556 1.112z"/><path d="M72.896 22.625c-2.742.674-3.082-.89-2.979-2.12.149-1.778 1.579-3.571 2.98-3.556v-3.201c-1.298 0-6.64 1.215-6.64 7.98 0 3.164 2.297 5.328 6.395 4.09.081-.022.163-.052.244-.081v-3.112z"/></g><defs><clipPath id="a"><path fill="#fff" transform="translate(.687 .92)" d="M0 0h118.394v51.039H0z"/></clipPath></defs></svg>