<svg width="108" height="62" viewBox="0 0 108 62" fill="none" xmlns="http://www.w3.org/2000/svg"><path fill-rule="evenodd" clip-rule="evenodd" d="M39.14 10.138a6.878 6.878 0 0 1 6.881 6.882 6.878 6.878 0 0 1-6.882 6.882 6.878 6.878 0 0 1-6.882-6.882 6.878 6.878 0 0 1 6.883-6.882zm-19.144 2.885a5.438 5.438 0 0 1 5.439 5.44 5.438 5.438 0 0 1-5.44 5.438 5.438 5.438 0 0 1-5.438-5.439 5.438 5.438 0 0 1 5.439-5.439zM3.893 16.206a3.85 3.85 0 0 1 3.848 3.848 3.85 3.85 0 0 1-3.848 3.848 3.85 3.85 0 0 1-3.848-3.848 3.85 3.85 0 0 1 3.848-3.848zm57.705-9.812c4.832 0 8.755 3.921 8.755 8.754 0 4.832-3.922 8.754-8.755 8.754-4.832 0-8.754-3.922-8.754-8.754a8.753 8.753 0 0 1 8.754-8.754z" fill="#fff"/><path d="M29.897 37.71c0 1.554-.281 3.034-.858 4.44-.57 1.398-1.392 2.582-2.472 3.522a16.254 16.254 0 0 1-2.176 1.613c-.791.489-1.657.91-2.612 1.258-.962.333-1.99.615-3.108.807-1.117.192-2.368.289-3.766.289H9.813v10.93H.06V27.171h15.052c2.234 0 4.166.178 5.794.526 1.628.355 3.093.902 4.41 1.672 1.458.836 2.583 1.954 3.382 3.352.8 1.399 1.199 3.056 1.199 4.988zm-10.012.207c0-.94-.26-1.746-.785-2.427-.518-.674-1.14-1.14-1.865-1.391a9.219 9.219 0 0 0-2.634-.6c-.836-.052-1.968-.074-3.411-.074H9.813v9.968h.674c.917 0 1.783-.007 2.59-.022a17.058 17.058 0 0 0 2.13-.156 8.176 8.176 0 0 0 1.651-.436c.577-.222 1.021-.459 1.332-.725.659-.548 1.103-1.125 1.34-1.725.236-.599.355-1.406.355-2.412zm47.589 20.735c-1.695.6-3.907 1.176-6.623 1.754a38.91 38.91 0 0 1-8.029.85c-6.083 0-10.945-1.516-14.556-4.543-3.611-3.034-5.424-7.326-5.424-12.89 0-5.247 1.813-9.436 5.424-12.596 3.611-3.16 8.562-4.736 14.837-4.736 3.249 0 5.876.267 7.91.8 2.036.532 4.13 1.258 6.298 2.168v7.829h-.888c-.459-.31-1.14-.755-2.013-1.332a23.263 23.263 0 0 0-2.567-1.473c-.97-.473-2.095-.888-3.375-1.235-1.273-.348-2.62-.511-4.048-.511-1.657 0-3.189.222-4.558.673a10.802 10.802 0 0 0-3.678 2.065c-1.021.903-1.828 2.042-2.434 3.419-.592 1.376-.896 2.975-.896 4.81 0 3.914 1.14 6.8 3.412 8.658 2.271 1.857 5.38 2.79 9.324 2.79.347 0 .754-.008 1.228-.023.474-.014.88-.037 1.228-.066v-6.571h-7.518v-6.29h16.946v16.45zm3.152 1.916l13.646-34.831c1.45.496 3.004.762 4.625.762a14.26 14.26 0 0 0 4.854-.844l13.698 34.913H97.436l-2.405-6.748H82.755l-2.398 6.748h-9.73zm22.26-12.86l-3.99-11.079-3.988 11.078h7.977z" fill="#fff"/><path fill-rule="evenodd" clip-rule="evenodd" d="M88.904.437c6.483 0 11.729 5.254 11.729 11.729 0 6.482-5.254 11.728-11.729 11.728-6.482 0-11.729-5.253-11.729-11.728C77.168 5.69 82.422.435 88.905.435z" fill="#fff"/></svg>