<svg width="157" height="91" xmlns="http://www.w3.org/2000/svg" viewBox="18.7 22.7 157.9 91.3"><path fill="#FFF" d="M176.5 71h-12v1.8h12v7h-19.4V66h19.4v5zm0-13.4h-19.4v6.5h19.4v-6.5zM155.3 71h-12v1.8h12v7h-19.4V66h19.4v5zm0-13.4h-19.4v6.5h19.4v-6.5zm-27.8 22.2h-12.8V66h7.3v6.9h4.8V71h-2.9v-5H134v7.3c0 3.6-2.9 6.5-6.5 6.5zm-6.3-22.2c-3.6 0-6.5 2.9-6.5 6.5H134v-6.5h-12.8zM93.3 76.3L91.2 70l-5.3 3.8 2 6.1-5.3-3.8-5.3 3.8 2-6.1-5.2-3.8h6.5l2-6.1 2 6.1h6.5L87 57.6h-8.9l-7.4 22.2h41.9v-7h-12V71h12v-5H93.3v10.3z"/><path fill="#FFF" d="M112.7 57.6H93.3v6.5h19.4v-6.5zM155.3 82v7.1h.9v-2.5l1.2-1.1 2.6 3.6h1.2l-3.1-4.3 3-2.9h-1.2l-3.6 3.6V82h-1zm9.6 4.2l2.7-4.2h-1.1l-2.1 3.4-2.1-3.4h-1.1l2.8 4.2v2.9h.9v-2.9zm2.6-5.8v1h.9v-1h-.9zm1.9 0v1h.9v-1h-.9zm-1 1.6v7.1h.9V82h-.9zm5.4 7.1l2.5-7.1h-1l-2.1 6.2-2-6.2h-1l2.5 7.1h1.1zM66 22.7l1.6 4.9h5.1l-4.1 3 1.6 4.9-4.1-3-4.1 3 1.6-4.9-4.1-3h5.1l1.4-4.9zm-19.6 5.4L48 33h5.1L49 36l1.6 4.9-4.1-3-4.1 3L44 36l-4.1-3H45l1.4-4.9zM32.8 41.7l1.6 4.9h5.1l-4.1 3 1.6 4.9-4.1-3-4.1 3 1.6-4.9-4.1-3h5.1l1.4-4.9zM26.7 62l1.6 4.9h5.1l-4.1 3 1.6 4.9-4.1-3-4.1 3 1.6-4.9-4.1-3h5.1l1.4-4.9zm6.1 18.8l1.6 4.9h5.1l-4.1 3 1.6 4.9-4.1-3-4.1 3 1.6-4.9-4.1-3h5.1l1.4-4.9zm13.6 13.6l1.6 4.9h5.1l-4.1 3 1.6 4.9-4.1-3-4.1 3 1.6-4.9-4.1-3H45l1.4-4.9zm19.6 6.9l1.6 4.9h5.1l-4.1 3 1.6 4.9-4.1-3-4.1 3 1.6-4.9-4.1-3h5.1l1.4-4.9zm19.5-6.9l1.6 4.9h5.1l-4.1 3 1.6 4.9-4.1-3-4.1 3 1.6-4.9-4.1-3h5.1l1.4-4.9zm13.7-13.6l1.6 4.9h5.1l-4.2 3 1.6 4.9-4.1-3-4.1 3 1.6-4.9-4.1-3h5.1l1.5-4.9zm0-39.1l1.6 4.9h5.1l-4.2 3 1.6 4.9-4.1-3-4.1 3 1.6-4.9-4.1-3h5.1l1.5-4.9zM85.5 28.1l1.6 4.9h5.1l-4.1 3 1.6 4.9-4.1-3-4.1 3L83 36l-4.1-3H84l1.5-4.9zM67.5 85c-.1 0 .2.4.3.4.7 0 .5-1.5 1.3-1.5.1-.3-.2-.7-.5-.8-.2-.1-.3-.8 0-.8 0 0 .2-.6.3-.3 0 0 .1 0 .2.1.2.2.4.1.6.3.2.3.2.6.5.1.3-.8-1.8-1.4-2.2-1.7h-.1c-.1 0-.3-.2-.3-.2 0-.1.3-.1.3-.4 0-.2-.6 0-.8-.1-.1-.2-.6-.3-.8-.5-.4-.3-.5-.6-.6-1.1-.2-.6-1.2-.8-1.2-1.4-.2.1-.1-.6-.1-.7v.1h.1v-.1c.3 0 0-.2-.1-.3.1-.1 0 0 0-.2-.1.1 0-.3 0-.3.1-.2.1.1 0 .1s.7-.4.7-.4H65h.1s.4.1.3-.1c.1 0 .1.1.2.1 0-.1-.5 1 0 .9l.1.2c.1 0 .3-.5.3-.5v.1l.1.2c-.2-.2 0 .2 0 .3-.1-.1.1.4.2.3 0-.1-.2-.1-.1-.2.2 0 0 .2.1-.4v.1c.1-.1-.2-.1-.1-.2 0 0 .1.1.2.1 0 0 .2.2.1.2 0 .1.2.7.2.5l.1.1v.1l.1.1h-.1c-.1.1.1.1.1.1 0 .1 0 .2.1.2l-.2-.1h-.1c-.1-.1-.1-.1-.2-.1.1.1.4.7.6.6v-.2c-.1 0-.2-.1-.2-.2l.1.1.1.1c.1.1.1.1.2.1-.1 0 .2.3.2.2 0 0 0 .1-.1.1s-.1.1-.1.1c.1 0 .1-.1.2-.1 0 .1.2.3.2.4 0-.1.1 0 .1-.1.2 0 1.3.3 1.2.7-.2 0-.5-.1-.7-.1h-.2c0 .2.5.1.5 0 .2 0 .3.2.5.2l.9.5s.4.2.3.3h.1c0 .2.5.3.5.4h-.1c.3.3 0 .2 0 .2s.1.7.1.8v.1l-.1-.1c-.2 0 .1.8.1.8v.1s-.1-.1 0-.1c-.1.2.6.6.5.7v-.1l.1.1v.1c-.1-.1-.2-.1-.3 0-.1.1.2.3.1.3.1.1.2.2.4.2v-.2l-.1.1v-.1.1c-.1 0 0-.2-.1-.2.1 0 0 0 0 0 .1 0 0-.1.1-.1 0 .1.1 0 .1.1h.1l.2.5c.2 0 .4.2.4.4-.2 0-.2.3-.2.4.1 0 .3-.1.2-.1v-.1s-.1 0 0 0c0-.1.1-.2.1-.1.1.2 0 .2.1.2 0 .1 0 0 0 0 0 .1.2.3.2.4 0-.1.1 0 .1 0 0-.1 0-.1.1 0l.4-.1-.6.5c-.1.1.2.3.2.3s.1.2.1.1c.4.2.2.4.3.7v.1c.1-.1.1.1.1.1.1.1.1.1.4.2 0-.1-.1-.3.1-.4l.1.2c0-.1.2.3.2.3v.1c0 .1.1.2.2.2l.1-.4c-.1-.2.4.3.4.2.1 0 .1.2.2.1l-.1-.2s-.2-.6-.3-.7c0 0-.2-.7-.2-.4.3.1.3.1.4.3v-.2c.2 0 .2.1.3-.1 0 0-.5.1-.2 0 .1-.1.1 0 .2 0v-.1h-.1s.1 0 0 0c0-.1-.1-.1-.2 0 0 0 .1 0 .1-.1v-.2c.2.1.1-.2 0-.1v.1c0 .1-.1.3 0 .3 0 .1-.3-.1-.2-.2h-.1c.1 0-.2-.2-.2-.2 0-.1.3-.2.4-.2 0 .1.3-.1.3.1.1 0 .1.1.3.2-.1.1.2 0 .2.1.2-.3 0-.1 0-.1v-.4s-.1-.2-.1-.3c0 0 0-.3.1-.1-.1.1.1.1.1.1 0 .1-.1.2 0 0v.1h.2c.1-.1-.3-.7-.4-.8-.1-.3-1-.3-1.2-.3 0-.1 0-.2-.1-.2 0 0-.2-.3 0-.2v-.1s.3.1.2.2v.1c-.1 0 0-.1 0-.1s-.1.1 0 .2c.2.2.3-.2.1-.3-.1-.1-.6-.5-.6-.7-.1 0-.4-.4-.1-.4 0 0-.1-.3 0-.3 0 0 .1 0 .1-.1h.1s0-.1.1-.1v-.1c-.2 0 .5.6.5.8 0 .2.6-.2.3-.1h-.2c-.1 0-.1-.1-.1-.1-.1 0 0-.1 0-.1.2-.1.5.4.6.3V82c0 .1-.4 0-.3-.2.2-.3.5.2.6.2.1-.1-.4-.5-.4-.3 0 0-.2-.1-.1-.1l-.1-.2c.1.1.1-.1 0-.1l.7-.2h.1s.2-.1.2-.2c.1 0 .1-.2.2-.2 0 0 .4 0 .4.1.1 0 .3-.1.3 0 0 0 .6.4.7.1h-.1c0-.1.1-.1.2-.1s-.4.5-.4.4v.1c.2 0-.1.6 0 .6.1.1.1.2 0 .4 0 .2.4.1.3 0h.1s.3-.2.4-.2c.1.1 0 0-.1.1.1 0 0 .2-.1.2 0-.1-.2.1.1.1 0 0-.1 0 0 0h.1s.1.1 0 .1c.2-.1.1.2 0 .2.1.1.2.1.2 0-.3 0 0 .6 0 .6h.1c0 .2-.3-.1-.3.1.1 0-.3-.6-.4-.3v.3c.1 0 .1-.1.1 0 0 0 0 .3-.1.1l-.1.2c.1.2.5 0 .6 0l-.1.1s.2-.2.2.1c0-.1.1-.1.2-.1 0 0 .4 0 .2.1.2.1-.1.4-.1.1-.2.1-.4 0-.5.3.1 0 .1-.1.2 0l.1.1c.1-.1.2-.2.3.1 0 0 .1.4.2.1.3.2 0 .1.3.1 0 .1-.1.1-.1.2s-.1-.1-.2 0 .1.4.1.1c0 0 0 .1.1 0l.2.1c0-.1.5-.2.5-.2s.1 0-.1.1c0 0 .1.1 0 .1 0 0 .1 0 .1.1-.1-.1-.6.1-.6.3 0 .1.4 0 .4-.2h.3s-.2.3 0 .1c0 0 .2-.3.1-.3 0 0 .1-.1.1 0v-.1s.1.1.1 0c.3.1.2.1.4 0 .1 0 .2.2.2.3-.1.1.4.2.5.2 0 0 0 .1.1.1v-.1c0 .1.1.1.1 0l.6-.3c.1 0 .1 0 .1-.1.1.1-.1-.1 0-.1 0-.1-.2-.6 0-.6-.1-.2 1.3-.1 1.5 0 0 .1.1.1.1.1-.1.4 0 .4 0 .4s.6-.1.7-.1c0 0 .6-.4.7-.4-.1 0 0-.2.2 0 .3-.2.1-.9.7-1 .1 0 .6-.1.7-.1v-.2c.6-.8.1.6.4.9.1 0 0 .1-.1.1 0 .1.1.3.1.4.2 0 .3.2.2.3 0 .6.2 1.2.2 1.8v.7c-.3.3-.7.7-1 1.1C81.6 93.6 74.3 97 66 97c-8.7 0-15.8-3.6-20.7-8.5-5.6-5.6-8.5-12.8-8.5-20.2 0-7.4 2.9-14.7 8.5-20.3 4.1-4.1 11.2-8.5 20.6-8.5 7.2 0 12 2.6 13.1 3.1 1.7.8 3.9 2.4 3.9 2.4h-.3c-.7.2-1.5.2-2.2.4-.2 0-.5-.2-.7-.1-.1 0-1.1.2-1.1.2.1-.1.9.6.9.6.1 0 .1.4.2.4 0 .2.1.4.2.6.2 0 .4.2.5.1 0 .1.1.3.2.3 0 0 0 .2.1.2-.1.2.1.4.2.5 0 .1 0 .1.1.2-.1 0-.1-.1-.1-.1.1-.1-.4 0-.3.1-.2-.4-1.1.1-.9.2-.5.5-.7 1.5.1 1.9v-.1c.1 0 .1.1.1.1s.1 0 .1.1c.1 0-.3.1-.3.1v.1h.1s-.8.3-.9.1v-.1c-.4.1-.3-.1-.6-.1-.5-.1-.1.1-.3.4-.1-.1-.1 0-.1.1.1 0 .1.1.1.1s.2-.1.1.1c0 0 .6.3.5.2h.1c.1 0-.1-.2.1-.1 0 .1-.1 0 .1.1 0 0 0 .1 0 0 0 .2.3.6-.1.7 0 0-.6 0-.6-.1-.1.1-.3-.2-.3-.2l-.1.1-.1-.1h.1c0-.2-.1 0-.2-.1v.1c-.1 0-.2.1-.2-.1v.1c-.1 0-.2-.1-.3-.1 0-.1.1-.2-.1-.2l.1-.1H77c0-.1-.1-.2-.2-.2h.1c0-.1-.1-.1-.1-.1 0-.1-.2-.3-.3-.3.1 0 0 0 0 0s.2-.2.1-.2v-.1s-.1 0 0-.1l-.1-.1s.1 0 .1.1c0 0 .1 0 .1-.1v-.2c-.2-.2-.4-.3-.7-.4.1-.1 0 0-.1 0 0 0 .1 0 .1-.1s-.1 0-.2 0l.1-.1c0-.1-.1.1-.1-.1h-.4s.1-.1.1 0h.2l-.1-.1c0-.1-.2 0-.2-.1 0 0-.1 0 0 0h-.1.1c-.1 0-.2-.1-.3-.1v-.2c-.3.1 0 0-.1 0h.1s-.1 0-.1-.1.2 0 .3 0c-.1.1.4.4.6.3 0 0-.1-.1 0-.1 0 0 .4.2.4.1.1.1.5-.1.5.1.1-.2 1.5.2 1.6 0 .6 0 1.1-1.1 1-1.6-.1-.4-.9-.8-.9-.8-.1 0-.1 0-.2-.1.1 0-.4-.3-.4-.3 0-.2.2.4 0 .1-.2 0-.5-.2-.6-.2 0 .1 0 .1-.1 0 0 0-.5-.2-.5-.3h-.2s-.1 0 0 0L76 46s-.2 0-.2-.1c0 .1-.1 0-.2 0s-.3-.1-.2.1l-.3-.1H75h.1s-.1 0-.2-.1c-.1 0 0 .1 0 .1l-.2.1s0 .1.1.2c0 0 0 .2-.1.1v-.2s.1-.1 0-.1c0-.3-.1-.1-.2-.2-.3.1-.3-.1-.5-.1.1 0 0-.1 0-.2.1.1.5.3.4-.1 0-.1-.6-.1-.6-.2l.1.2c-.3-.1 0 0-.1.1h-.1l-.1-.1s-.2-.1-.2 0h-.1c-.1-.1-.1-.1-.2 0h-.2v.1c-.1-.1 0-.2-.2-.1l-.3-.1h.6c.1 0 .1-.1 0-.2.2-.1.2-.2.2-.3-.2-.1-.2-.1-.4-.1 0 0 .1-.2 0-.2-.1-.1-.1-.1-.1.1-.2-.2-.1 0-.2-.1.1-.4-.5 0-.3.1v.2s.1.1 0 .1v-.1.1h-.1l.1-.3c-.1 0-.1 0-.1.1 0 0 0-.1.1-.1l-.1-.1s.4-.4 0-.4v.1s-.1.1-.1 0c0 0 0-.1-.1-.1-.1.1 0 .1 0 .2-.2-.3-.1 0-.1 0-.1-.1.1.2.1.1l.1.1c-.1.1 0 0 0 .1-.1-.2 0 .4 0 .2h-.1l.1.1h-.1v.1s0-.1-.1 0c0 0-.1-.3 0-.3h-.2c0-.1.1-.3 0-.4-.1 0-.1.3-.1.4-.1.2 0 .5-.1.7v-.1c.1 0 0 .1 0 .1.1.3-.1 0-.1 0v-.2s.1-.1 0-.1l.1-.3v-.3c.2.1.1-.2.1-.1v-.1c.1 0 0-.1 0-.1h-.1v-.1c-.1.1 0 0 0 .1-.1 0-.2 0-.1.1 0 0 0-.1.1 0-.1-.1 0 .2 0 .2l-.1-.1v-.1c-.1.1 0 .1-.1 0v.2s-.2.2 0 .1l-.1-.1c-.1.1.3.3.2.4-.1-.3-.1.2-.1.2h-.1c.1-.1 0-.2-.1-.3 0 .1-.1.1 0 .2h-.1v.1h-.1c-.1 0-.1.1-.1.2h-.1c-.1-.1.2.3.2.1 0-.1 0-.1-.1-.2.1.4.1 0 .2 0 .2-.1 0-.2 0-.4.1 0 0 .1.1.1 0 .1-.1.3-.2.4h.1c-.1-.1 0 .2 0 .1.1 0 0-.1.1 0 0 0-.3.3.1.1 0 .1-.1 0-.1.1v-.1c-1 .6-1 .5-1 .4l-.1.1c-.1-.3.2.1-.2-.2v.2c.1 0-.2-.4-.2-.2 0-.1 0-.1-.1-.2 0 .1-.1.4 0 .1-.1 0 0 .1 0 .1s-.1-.2-.1 0c0 .1.2.2.3.3h.1s-.1.3 0 .2c-.1 0-.3-.2-.3-.3v.3c-.1 0-.1.1-.1.2 0 0 0-.1-.1-.1 0 0 .1-.1 0-.1 0 0-.1-.1-.1 0v-.1.1s0-.4-.2-.3c-.2.1 0 .2 0 .2s.1.1 0 0v.2c0-.1 0-.1-.1-.2v.1c-.1 0 0 .4 0 .5-.1-.1-.2.4-.2.3 0-.1.1-.1.1-.2.1 0 0-.1 0-.1v-.1s.1-.2 0-.1v-.1c-.1 0 .1-.4 0-.4s-.3.4-.1.5l-.1-.3c-.1 0-.2.1-.2.2v-.1c0 .1.3-.2.3-.2V46v.1s0-.1-.1-.1c0-.1-.1 0-.1 0s-.1-.2-.1 0c0 0 .1-.1 0-.1v-.1c.1 0 .1.2.1-.1 0-.1-.1-.1-.1 0v-.1.1c0-.1.1.5.1.4l-.1-.1v.1c-.1-.1 0 0-.1 0 .1.1.1 0 .1.2-.1-.1.1-.1-.2-.1 0 0 .1.1 0 .1l-.1-.1s.1.2 0 .1v.1h-.1c-.1.1.2.1.2.1H68s.1.1 0 .1c.1 0 .1 0 .1.1H68c0-.1-.1-.2-.2-.2l-.1-.2v.1s0-.1-.1-.1v.1c-.1 0 0-.1-.1-.1v.1h.1c.4.5.4.5.4.6-.2 0 0 .1 0 .1l-.1.1c-.1 0-.1 0-.1.1h-.1l.1.1h-.1c0 .1 0 .1.1.1 0 0-.1.4 0 .1-.1.1.1 0 0 0 .1-.1.3-.1.3-.2h.1v.1c0-.1-.2.1-.2.1s0 .1-.1.1v-.1c-.1 0-.1.1-.1.2l.1-.1v.1c0-.1-.1 0-.1 0v.2s0-.1-.1-.1-.1.1-.1.2c0 0 .3-.2.3-.1 0 0-.2 0-.1.1 0 0-.1 0-.1.1l-.2.1V48c-.1 0-.1-.1-.1-.1v.1c-.2-.1 0 .1 0 .1-.1 0-.1 0-.1-.1.1.4 0-.5-.1-.2.1.1.2-.5.2-.5-.1 0-.1.1-.1.1.1 0-.3.4-.1.5v-.1s-.1.1 0 .1h-.1v.1s-.1 0-.1-.1v-.3c-.1 0-.1.1-.1.2-.1-.1-.1 0 0 0 0-.1-.2.1-.1.1-.2.1 0 .3.1.1h.1l.1-.1s-.2.2-.1.2h-.1c.1.1-.1 0 .1.1.1-.1.1-.2.2-.3v.1c-.1 0-.1.1-.1.2 0 0-.4.1-.4.2v-.1h-.1v-.1l-.2.1v.1s-.1-.1-.1.1c-.1 0-.3.3-.2.4.1 0 .2-.2.2-.2.1.1.1-.1.1-.1v.1s.1 0 .1-.1v-.1c.1 0 .1-.1.1-.1v.2c.1 0 .2-.1.2-.2 0 .1-.1.1-.1.1l.3-.3s-.1.1 0 .2c.1 0 .2-.1.2-.2 0 0 .1.2.1-.2-.1.1-.1.1 0 .2.1-.1.2-.1.3-.1.1 0 0 0 0 .1.1 0 .1-.1.2-.1 0 0 0 .2-.1.1 0 0-.5.1-.5.2v.1h.1s0 .1-.1.1c0 0 0 .1.1.1l-.1-.1v.1l-.1-.3c-.1 0 0 0-.1.1v.1h-.1c0-.1-.1 0-.1 0 0-.1-.2.2-.2.2-.1 0 0-.1-.1-.1 0 0-.1.1 0 .1h-.1.1l-.1.1c.1 0 .1.1.2.1h-.2.1c-.1 0 .2.1.2-.2l.1.1h-.2s0 .2-.1.2c0 0 .2.1.2.2-.1-.1-.4 0-.4 0s-.1 0 0 .1h-.1.1c0 .1-.1 0-.1.1h.2c.1.1-.1.1-.2.1v.1s-.3.1-.2.1c0 .1.1 0 .1 0v.1c0 .2-.2.1-.3.2h.1v.1c-.1 0 0 0 0-.1 0 0 0 .1-.1 0h.1c-.1 0-.1 0-.2.1l.1.1c.1-.1-.3.1-.1 0v.1h.1c-.1 0-.1-.2-.1-.3-.1-.1-.1.2 0 .2h-.1l.1.1c-.2-.1.1.4.2.2 0 0-.4 0-.2.1 0 0-.1 0 0 .1h-.3s-.1.1-.1.2h-.1v-.2c.3 0 0-.3 0-.2-.1 0-.1 0 0 0 0 .1-.1.2-.2.2.1.1.1.1 0 .1l.1.1c-.1.1.1 0 0 0v-.1s0 .1 0 0c0 .2.1-.1.2-.1l-.1.1-.1.2.1-.1c-.1-.2 0 .5 0 .4-.2.1.1-.2-.2 0v-.1l-.1.1v.1h.1v.2h-.1l.1-.1-.1.1c.1-.3-.1.1-.2.1.1.1 0-.2 0-.2-.2.1 0 .1-.1.2h-.4s.1.1.1 0c0 .1-.2.1-.2.1h.4v.1h.1c0 .1-.1.1-.1.1.1.1.3-.1.3 0h-.1l-.1.1h-.1c0-.1-.1 0-.1 0h-.1c-.1.1-.1-.1 0 .1h-.1v.1h-.1l-.1.1c0 .1-.1.1-.1.2v.2s-.1-.1-.1 0c-.1 0-.1.1 0 .1 0 0 0 .1-.1.1s-.2.1-.2.2h.1c-.1 0 0 .1-.1.1.1 0 .2-.1.3-.1l-.1.1-.2.1h.1c-.1-.1-.1.1-.1 0h-.1.1v-.1c.1-.1 0-.2-.1-.1h-.3c0 .1 0 .1 0 0 0 0-.1.1 0 .1 0 0-.1.1-.1.2s.5-.2.5.1c-.1 0-.4-.1-.4.1h.1s-.2-.1-.1 0c0 0-.1-.2 0-.2 0 0-.1 0-.1-.1-.1 0-.2.1-.1.2.4.1-.2.1 0 .1h.2c-.1.1 0 .1 0 .2 0-.1-.1-.1-.1-.1-.1 0-.1.1-.1.1s0-.1.1-.2c-.2-.1-.3.1-.4.1.1-.1-.7.3-.3.1v.1h-.1c0 .1-.1 0 .1 0 0 .1-.3.2-.3.2v.1c-.1-.1-.2 0-.2.1-.2-.1 0-.1 0 0v.2h.3c-.1 0-.1 0-.1.1v-.1c-.1 0-.2.1-.2.1.2.1-.2-.4-.1-.1 0 0 0-.1-.1-.1.1 0 0 0 0 0v.1c-.1-.1 0 0-.1 0 .1.1-.2.2 0 .2v.1s-.1-.1 0-.1c0 0-.1-.2-.1-.1s0 .1.1.2h-.1c0 .1 0-.1-.1 0v.2s-.1 0-.1.1h.1c0 .1-.3.1.1 0 0 .1-.2.1-.2.2h.1s0-.1-.1 0h.1s0 .1.1.1h-.1c0-.1-.1.1-.1.1h-.1c0 .1.1 0 .1.1s-.1 0-.1 0l.1.1H61v.2s.3-.1.2-.1c.1 0 .1.1.1.1h.1c0 .1.3-.1.3 0-.2.1-.3 0-.5 0v.1c0-.1-.1 0-.1 0s0-.1-.1 0c0 0 .1.1 0 0v.1c0 .1 0 .1.1.2-.1 0 0 0 0 0v.2c0 .1-.1-.3-.1-.3-.1 0 0 .2 0 .2 0 .1.1.2 0 .3 0-.1 0 0 0 0 0 .1 0 .1.1.1v.2H61c0 .2.2 0 .2-.1H61s.1-.1.1 0 .1.1.1.1l.1-.1v.2h-.2s0-.1-.1-.1c0 0-.3.4-.2.3v.3c.1 0 .1-.1.1-.2v.1h.1c0 .1-.3.3-.2.4 0 .1-.1.2 0 .2 0 0 .2-.1.3-.1H61s.1 0 .1-.1v.1s.1 0 .1-.1v.1l.1-.1h.1v.1h-.1s-.3.2-.2.2c0 0 0 .5-.1.6.1 0 .4.5.5.4 0 0 0 .1-.1.1 0 .1.3 0 .3.2h.3l.9-.4c0-.1.2-.1.2-.2.1 0 .3-.3.5-.3l.1-.2c0 .2.1 0 .2 0 .1.1.1-.1.2-.1.1.1.1-.1.2-.1h-.1v-.2.1c.1 0 0-.1 0-.1h-.1v-.1c0 .1.1 0 .2 0v.4c0-.1.1.3.1.2-.1 0 .1.3.1.2-.1 0-.2 0-.3.1 0 .1.4-.2.3 0-.1-.1 0 0-.1 0h.1v.6c.1 0 0 .3.1.3 0 0-.1.1 0 .1v.2c.1-.1.1 0 .1.1h-.1c-.1 0 0 .1-.1.1.2.1.2.1.3.4-.1 0 0 .2 0 .2v.1c.1 0 .4.5.3.5.4.2-.1.3 0 .3 0 .3-.1-.1-.2.1-.1.1.4.5.2.6.2.1 0 .2-.1.2v.1s.1.1 0 .1c0 0 0 .1.2.1.1.1.8.1.8-.2 0-.3-.1-.2.2-.5v.1h.1c0-.1-.1-.1-.1-.2.1 0 .2 0 .2.1h.4c.1 0 .2 0 .2.1 0 0 0-.1.1-.1 0 .1.2-.4.2-.4s.1-.3.1-.2v-.1s0-.2.1-.2c-.1-.1.1-.3.1-.3s.1-.4.1-.6c0 0 0 .1 0 0 .1-.1.1-.1 0-.1 0-.1.1-.1 0-.2l.1-.5h.1c0-.1-.1.1 0-.1v-.1h-.1c0-.1.1-.1.2-.1 0 0-.1 0 0 0-.1 0-.1-.1-.1-.1 0 .1.3-.1.3-.1h.1c0 .1.1.1.1 0v-.1c.1-.1.1 0 .1-.1V59s0 .1.1.1c-.1.1.2-.2.3-.1 0 0 0-.1-.1-.1.1 0 .1 0 .1-.1.1 0 0 .2-.1.2.1.2 0-.1.2-.1 0 .1.1 0 0-.1 0 0 .1-.1 0-.1.2-.2.2-.1.1-.1-.1.1.1.2.1-.1.2.1 0-.3 0-.3.1 0 .1-.1.2-.1h-.1l.2-.1c-.1 0-.1-.1-.1-.1-.1 0-.3-.4-.3-.4.2 0-.1-.1 0-.2-.1 0 0-.1-.1-.1 0 0 .1.1.1.2-.1 0-.2-.1-.2-.3-.1-.1-.1 0-.2 0 0-.1-.3-.3-.2-.2 0 0-.1 0 0-.1h-.1s0-.1.1-.1v-.1s0 .1-.1.1v-.2c.1 0 0-.1 0-.2.1 0 0 0 0-.1v-.1l.1-.1s-.1-.1 0-.1c0 0 .2.1.1.1 0 .1 0 0 .1 0-.1-.1.1-.1 0-.2 0 .1-.1-.1-.1-.1.1 0 0-.2.1-.2-.1-.1 0-.4.1-.5 0 0-.1-.1 0 0 0 0 .4-.5.3-.4l.1-.1c.1 0 0-.3.1-.3 0 0 0 .2 0 0 .1-.1 0-.1-.1 0v-.1c.1 0 0 0 0-.1.1.1.1 0 .2 0s.1 0 .1-.2h.1v-.2l.1.1v-.1s.1 0 .1.1c0 0 .2-.4.2-.3h.2s0-.1.1-.1v.1c.1 0 .2-.7.3-.7.1 0 .1-.1.1-.2 0 0 0-.1 0 0v-.2s-.1-.1-.1 0v-.1c.1 0 0 0 0-.1s-.1-.1 0-.2v-.1s.2-.1.1-.2v-.1s-.1-.1 0-.2c.1 0 .1.1.2.1 0-.1-.2 0-.1-.1v-.1c0-.1-.1 0-.1-.1 0 0 .1 0 .1.1-.1 0 0 0 0 0v-.1s.1 0 0 0c0 0 .1 0 0 .1h.1s.1-.1.2 0v-.1H71c0-.1-.1.1-.1.1v-.1l.2-.1v-.1H71v-.1c-.1 0 0-.1 0-.1v.1h.1v.1h.1v-.1c0 .2 0 0 .1.1.2.1 0-.1 0-.1 0-.1-.1-.1-.1-.2 0 .1.2.1.2.2l.1-.2c.1 0 .1.2.1 0 0 0 .1 0 .1-.1l.1.1c0 .1 0 0 .1 0 0 0 0-.1 0 0 0 0 0-.1.1 0 0 0 .1.1.1 0l.1.1h.1v.1h.1s.2.1.2 0v.1c0-.1.3.2.2.2v.2l.1.1h-.1c0 .1.2 0 .2.1 0 0 .1 0 0 0s-.2.1 0 .1c-.4 0-.5.5-.7.9v.2c-.1 0-.1 0-.1.2h-.1c0 .2-.3-.1-.3.3-.1 0 0 .1-.1.1v.2h-.1v.1c.1 0 .1.1.1.1s-.1 0-.1-.1c0 .1 0 0-.1.1 0-.1 0 0 .1 0 0-.1-.2.1-.2.1 0-.1-.2.3-.3.3 0 0-.1.2-.1.3v.2c0-.1.1.4.1.4h.1c0 .1.1 0 0 .1l.1.2v.1l.1.2s0 .1.1.1c-.1.1 0 .3.1.4h-.1l.1.1h-.2s.1.1.1 0v.2s-.1 0 0 0v.2c-.1 0 0 .1 0 .1h-.1s.1 0 .1.1c-.1 0 0 .1 0 .1 0 .1 0-.1.1.1-.1 0 0 0 0 0s-.1.2 0 .2c-.1 0 .5.2.2 0h-.1v.2h-.1s-.2 0-.2.1l.1-.1-.1-.1c-.1 0-.1.3 0 .1 0 0 0 .1.1.1l.2.1s.2-.1.3-.1c.1 0 .2.2.2.2 0 .1 0 .1.1.1 0 0-.1.1-.1 0v.1c.1.1.2-.1.2-.1h-.1.1v-.1s.1 0 .1.1c.2-.2 0 .1.2 0 0-.1-.1.2-.1.1 0 0 .2-.1.3-.1l.1-.1h.1s0-.1.1 0h.1v-.1h-.1c0-.1.1 0 .2 0h-.1c0-.1.1 0 .1 0v.1l.2-.2v-.1h.1s.1 0 .1-.1c0 .1 0 0 .1 0v.1s0-.1.1-.1c0 .1-.1.1 0 .1-.1 0 .1-.1 0 0 .1 0 0-.1 0-.1s0 .1.1.1v-.1.1s0-.1.1 0v.1c.1 0 .2 0 .1-.1h.1v-.1c.1 0 .1.1 0 0 0 0 .3-.1.3 0h-.1c-.1 0 .1-.1.1-.1h.3s-.1 0-.1-.1v-.2h.2s0 .1.1 0c0 0 .3-.1.2-.1.1-.1.3-.1.3-.3h.1s.1.2.2.2h-.1c-.1.1.2.1.2.2.2.2.9 0 1 .3 0 .1-.6.1-.7.1 0 .1 0 .1-.1.2h-.1c.1-.1-.4.3-.3 0-.1 0-.1 0-.1.1v.2s.1.1 0 .1c.1.3-1.3.1-1.3.1s-.1 0-.1.1c0 0-.1-.1-.1-.2v.2c-.1 0-.1-.1-.1-.1.1-.1-.1.4-.1.2h-.2l-.1-.1v.2c-.1 0-.1-.1-.1-.2.1 0-.1.1-.1.1.1.1-.1.1 0 .2-.1.1-.1-.1-.1.1-.1 0-.2 0-.2.1-.2-.1-.2.4-.1.5h-.1s.1 0 0 0h.2c.1.1.1.3.2.5.3.2.3-.1.5-.1 0 0 .1 1.4 0 1.5-.5.5-1.2-.5-1.1-.6 0-.1-.2.1-.2 0 0 .1-.3.2-.3.2h-.1c-.5.2-.3 2.7-.1 2.7.1 0 0 .2 0 .3.1.3-.5.1-.5.1-.2.4-.3-.2-.4.4h.1c.1 0 .1-.1.3-.1 0 0-.2.2-.2.1l-.3.3h-.1c.1.1-.1.1-.1.1s-.1 0 0-.1c-.6 0-.4-.6-.9-.5 0 0-.7.3-.8.3 0 0-.1-.1-.1 0h.1s-.3.1-.4.2v.1s-.2.1-.1.1c.1.1-2 .4-1.9.1 0-.1 0-.1-.1-.1l.2-.1c0 .1.1 0 .1 0v-.1c-.2 0 .1-.1 0-.2l-.1-.1c0-.1-.3 0-.2 0l-.1.1s-.1 0 0 .1h-.1c.1 0 0 .1 0 .1s.1-.1.1 0h-.1s-.1-.1 0-.1h-.1s-.3 0-.3-.1c-.1 0-.4.5-.4.3 0 0-.3 0-.3.1v.2l-.1-.1c0 .1-.1 0 0 0h-.2c-.1-.1-.1 0-.1-.1.1 0 .1-.1.1-.1l.2-.3c0-.3-.2 0-.2 0 .1.1-.3.1-.3.1l-.2-.1s-.1 0-.1.1c0-.1.1-.2-.2-.1l.1-.1c0-.2 0-.3-.3-.3 0 0 .2-.1.1-.1 0 .1.2.1.2.1 0-.1 0-.3-.1-.3 0 0-.2-.2-.2 0h-.1v-.1H64c0-.1.1-.1.2-.1l.1-.1c-.1 0-.1-.1-.1-.1s.1 0 .1-.1v.1s.1 0 .1.1c-.1 0 .1 0 0 .1h.1c.1 0 0 .2.1.2v.1h.1c-.1 0 0 .1 0 .1 0-.1.2 0 .2 0h-.1l.1.1v-.1c.1 0 0 .1 0 .1 0 .1 0 .1.1.2s.2-.5.2-.5c-.1.1-.1.2-.2.2v-.1c.1 0 .1-.6 0-.7l-.1.1c0-.3-.4-.1-.4-.1 0-.1 0 0-.1 0 0 0 .2-.3.2-.2.1 0 0-.1 0-.2h.1c0 .1.1.1.1.1-.1 0 .1-.5.2-.5-.1 0 0 .1 0 .1v.1c0-.1 0-.1.1-.1 0 0 0 .1.1.1 0 0 .2-.4.2-.3-.1-.1-.5 0-.4-.3v-.4l.2-.6c-.2-.1 0-.2.1-.3h-.2c-.1.2-1 .9-1.3.6 0 .1-.2.2-.2.2s-.2.5-.2.4c.1.1-.2.7-.1.7 0 0 .1-.1.1 0 .1 0 .1.2.1.2-.1 0-.1-.1-.1-.2 0 0 0 .8.1.6v.1c-.1 0 0 .2 0 .2v.8h.1v.1l.1.1c-.1.1-.1.1 0 .1 0 .1-.2 0-.2.1-.2 0 .3.2.1.1-.1.2.1.1.1.3h-.1c0 .1.1.2.2.2-.2.2-.5-.2-.4.3-.1-.1-.1-.1-.2-.1v.2c-.1 0-.1-.4-.1-.5 0 0-.8.1-.6.1.1-.1.4 0 .5-.1h-.5c-.1-.1 0 .1 0 .1h-.1l-.2.4c.1 0-.8-.2-1.1-.1-.1.1-.4.5-.5.4l.1-.3c-.1 0 .1-.2.1-.2 0-.1-1 1.6-1 1.7h-.2l.3.2c0-.2-.6-.1-.5 0-.1 0-.1.1-.2.1 0 .1.2.1.2.2h.4c0-.2-2.2.2-2.1.3-.1.2-.2.6-.1.8 0 0-.6.2-.7.2h.1c0-.1-1.2.3-.7.5 0 .3-.8-.1-.9-.1h-.1v-.2c.1-.2-.4-.3-.5-.3l.1.7s0 .4-.1.4c0 .1 0 .3.1.3.1-.1-1-.1-1-.1 0-.1-.1-.3-.2-.3 0-.1 0-.1-.1-.1 0-.1-.1 0-.1-.1-.1 0-.3 0-.3.2-.1-.1-.3 0-.3-.1-.4-.1-1 .3-.6.6.2-.1 0 .1.2 0 0 .2-.1-.1-.3.1 0 0 .3.5.5.3v.1l.3.1c-.1 0 .1.1.1.1 0-.1.2.3.1.3 0 0 .6 0 .5.2l-.1.1c0 .1.3.1.3.1 0 .1 0 .1-.1.1.3.3.1 0 .1.3l-.1-.2c-.1 0 .7 1.1.7 1.1.1 0 0 0 0 .2 0 0 .1.3 0 .3 0-.1-.1-.3-.2-.3-.1.1.1.7.3.7l.1.3-.2-.4c-.2 0-.3 1.1-.4 1.2.3.6-1.1 2-1.4 1.1-.1 0-.4-.2-.4 0-.1-.1-.2-.1-.3-.2 0-.1-.3-.2-.3-.1 0 0-1.1-.3-1.3-.4-.3-.2-.5-.1-.7-.3h-.1c-.1 0-.3-.2-.4-.1 0 .1-.5-.3-.4-.3.1 0-.2-.1-.2-.1-.1 0-.1-.1 0-.1h-.2v-.1c-.1-.2-.5.2-.6.2 0 .1.1.1.1.2 0 0-.1-.1-.1-.2 0 .1-.1.1-.2 0h-.2c-.1-.1-.1-.1-.2-.1s-.1.1-.1.1c-.3 0-.2.1-.4.2v.1c0 .1 0 .2.1.2 0 0-.2.2-.2.3 0 0 0-.1.1-.1v.1c.2 0 0 0 .2.2 0 0-.1.1-.1 0v.1c0 .1.1 0 .1 0 0 .2-.2-.1-.1 0-.2.4-.1.8-.2 1.3s-.6 1-.7 1.5c0 0-1.2 1.5-.6 1.3 0 .1.5 1 0 .9 0 .1-.4 1.2-.4 1.1.1.1 1.2.3 1.3.3.5-.2 1.1.8.9.8 0-.1.2.3.2.3s-.1 0-.1.1c.1 0 .8 1.4 1 .4.1-.1 1.2-.2 1.3-.1.1 0 1 .3 1 .3 0 .1.9 0 .9.1 0-.3.5-.7.7-.6 0-.3.4 0 .5.1 0-.1 0-.2.1-.1V83h-.2l.6-.8c.1 0 1-.6.5-.5-.1-.2-.4-.8-.1-.9v-.1c.3-.2.6-.7.9-1 0 .1.1.1.1 0s-.1 0-.1 0c.1-.1.5 0 .2-.2 0-.1.6-.4.7-.3 0 0 1.6-.3 1.5-.6.4 0 .4-1.4.3-1.6.1-.1.4-.2.4-.3h.2c0 .1.2-.1.2-.1 0-.1.3-.1.2 0 0 0 .4.2.5.3v-.1c.1 0 .1.1.1.1h.2v-.1c.1 0 .1.1.2.1s.2.1.1.1h-.1s.1 0 .1.1c.1-.1.2 0 .2.1 0 0 .6.2.7.3h.1c.1 0-.1-.1-.1-.2.1-.1.7-.4.6-.4.1-.1.1-.2.2-.2.2 0 .9-.4.9-.4.2-.5.6-.2.9-.2 0 .1.5.5.5.4 0-.3.5.7.3.7.1.2.1.7.1.8-.1-.1.4.1.2.1l.3.3v.3s.3-.1.3 0c.1 0 .3 0 .3.2.1 0 .4.4.4.4-.2.5 1.8 1 1.9 1.4 0 .1.3-.1.3.2-.1 0-.1 0-.1.1h.4c.3 0 .1.4.2.5.1.1.4.4.6.2.2-.1.5.8.5.9 0-.2.2.6.2.6s-.1.3-.2.1c-1.2 1.2-1.2 1.7-1.4 1.7-.1 0 0 0 0 0-.1 0 0 0 0 0s-.1 0 0 0zm10.9-4.1c.1.1 0 0 0 0 0-.1 0-.1 0 0 0-.1-.1 0 0 0 0 0-.1 0 0 0zm0-.2c.3 0 .1.2 0 .1-.1 0 0-.1 0-.1zM51.6 62s-.1.3-.1.1h-.1c0-.1.1-.1.2-.1zm3.9-3.6c0 .1-.1.1-.1.1 0-.1 0-.1.1-.1.1.1 0 0 0 0zm14.4-.2v.1c-.1 0-.1-.1-.1-.1 0 .1.2 0 .1 0 .1 0 0 0 0 0 .1.1 0 0 0 0zm-.7 6.5c.1 0 .1.1.2.2l-.2-.2c.1-.1 0 0 0 0zm-5.9-.4l.2.1h.1c-.2.1-.3.1-.3-.1 0-.1 0 .1 0 0 0 0 0 .1 0 0zm3.5-.1c.1.3-.4.2-.3-.1 0-.2.2.2.3.1-.1 0 0 0 0 0 .1.3-.1 0 0 0zm1-2c.2 0 .1-.6.3-.6 0 0-.3 1-.3 1.1-.1 0-.1.2-.2.3-.1-.2 0-.7.2-.8.1 0-.1 0 0 0zm1.5-1.2s.1.1 0 0c.1.1.1.1 0 0-.1.1-.2.6-.2.6h.1v.1c.1 0 0 .1-.1.1 0 0-.1 0-.1.1h.1l-.1.1h-.1s0 .1.1.1l-.2.1v-.1s.1 0 .1-.1c0 0-.2-.2-.2-.3.1 0 .2-.7.3-.7 0-.1.1 0 .2 0-.1 0 .2-.2.1-.1 0 0 .4-.1.1 0 0 .1 0 .1-.1.1.1 0 0 0 0 0s.1 0 0 0zm.1-.6s.1 0 0 0c0 .1 0 0 0 0zm2.7-.5v.2H72c0 .1-.1.1 0 .2-.1 0-.1.2-.3.2v.1s-.1-.1-.1 0c0-.2-.1.2-.1.2s-.1.3-.2.2v-.2h.1v-.1h-.1c0-.1-.2-.2-.2-.4 0-.1.1 0 .1 0 .1 0 .2-.4.6-.2V60c.1-.1.1-.1.3-.1 0 0-.1 0 0 0zm-.1-.5c0 .1 0 .1 0 0 0 .1-.1.1-.1.1-.2-.1.1-.1.1-.1s-.1 0 0 0c0 .1-.1 0 0 0zm-.4.4c-.3.2-.2-.3-.5-.2h.2c0-.3.4 0 .4 0s.1.1 0 .2c.1-.1 0-.1-.1 0 0 0 .1 0 0 0 .1 0 0 0 0 0s.1 0 0 0zm.7-.7c-.1-.1 0-.1 0 0zm-1.8-.6c-.1 0-.1 0 0 0 0 .1-.1.1-.1 0-.1 0 .1-.1.1 0s0-.1 0 0c-.1 0 0-.1 0 0zm-.3-.2c.1 0 0 .1.1.1 0 0 0 .1.1 0 0 .1-.3-.1-.2-.1zm.1-.2c-.1 0-.1 0 0 0 .1.1 0 0 0 .1-.1.1-.1-.2 0-.3v.2c0-.1 0 0 0 0-.1 0 0-.1 0 0zm-.8 0c.1.1 0-.1 0 0 .1 0 0 0 0 0 .1 0 .1 0 0 0 .1-.2.1-.1.3-.1 0 0 .1 0 0 .1 0 0 .3 0 .2.1h-.1v.2s.1-.1.1 0h-.1s.1.1 0 .1c0 0 .2-.2.1 0 0 .1-.3.2-.2 0h-.1c.1.1-.1.1-.1 0v.1h-.1v-.1c-.1 0-.1 0 0 0l-.2-.1c.2-.1.1-.3.2-.3zm4.6-.2c.2 0-.2.2 0 0 0 0-.1 0 0 0 0 0-.1 0 0 0 0 0-.1 0 0 0zm-3.7.1c-.1.1-.1 0 0 0 0 .1 0 .1 0 0 0 .1 0 .1 0 0 0 .1 0 0 0 0 0 .1-.1 0 0 0zm-.1-.2s.1.1 0 0c.1 0 0-.1.1-.1v.4s-.1-.3-.1-.2c-.1.1.1 0 0-.1 0 .1 0 .1 0 0 0 .1 0 0 0 0s0 .1 0 0c0 0 0 .1 0 0zm4.6-.4s-.1 0 0 0c.1-.1 0 .4 0 0zm-4.6-3c.1 0 .2.3 0 .3-.3.1 0-.3 0-.3.1 0 0 0 0 0zm-.2-.5c0 .1 0 .2-.1.2 0 0 0-.1.1-.2-.1 0-.1 0 0 0 0 0-.1.1 0 0-.1.1-.1 0 0 0-.1.1-.1 0 0 0zm1.8-1.7c.1.1 0 .1 0 0 .1 0-.2.4-.2.1 0-.1.1-.1.2-.1zm5.5 29.4c0 .1 0 .1-.1.1 0 0 .1 0 .1-.1zm2.3-1.4s.1 0 0 0c.1 0 .3 0 .3.1h.2c0 .1-.6.2-.6.4 0 .1.3 0 .3.1 0 .2-.2.1-.4.1-.1 0-.3 0-.4.1-.1 0-.2.1-.2.1 0-.1 0-.1.1-.1 0 0-.4 0-.4.1 0 0 .2.1.3.1 0 .2-1-.2-1.1.2.1 0 .5-.7.6-.7.1-.2-.1-.2.1-.2.1 0 .3-.1.4-.1.2-.3.3 0 .5-.1-.2-.2.3-.3.3-.1 0 0 0-.1 0 0zm-9-.4c.1 0 .1.1.1.2l-.1-.2c0-.1 0 0 0 0 .1 0 0 0 0 0zm0 0c-.1.1.1.1 0 .2-.1-.1-.3-.2 0-.2-.1 0-.1 0 0 0zm-4.1-2.3c.1-.1.1.1.1.1s0-.1-.1-.1c.1 0 .1 0 0 0 0 0 .1 0 0 0zm0-.6s-.2-.1-.1-.1c0 0 .1 0 .1.1 0-.1 0 0 0 0-.1 0-.1 0 0 0-.1 0 0 0 0 0zm0-.1c-.1 0-.1-.2 0-.2 0 0 0-.1-.1-.1.1-.1-.1-.2 0-.2s.2.1.2.2h-.1c.1 0 .1 0 0 .1h-.1s.1.1.1.2c0-.1 0-.1 0 0-.1 0 0-.1 0 0 0 0 0-.1 0 0-.1 0 0-.1 0 0zm-.4-.8c.1.1.1.2 0 .3-.2-.2.1-.1-.1-.1-.1-.1 0-.2.1-.2 0 0-.1 0 0 0zM51 70.4c.1-.1.3 0 0 0zm7.2-2.6s.2.1.2.2 0 .1-.1.1c0-.2-.2-.2-.3-.2.1-.4.2-.2.2-.1 0 0 .1 0 0 0 0-.1 0-.1 0 0 .1 0 0-.1 0 0zm1.6-.8s-.5.3-.5.1c.3.1.2-.1.5-.1-.1 0-.1 0 0 0zm0-.5c0 .1-.1.1-.1.1v.2c-.1 0-.4.3-.5.2.1-.2 0-.1.1-.3.1 0 .1 0 .2-.1-.1.1-.1-.6.1-.4 0 0-.1.3 0 .3 0 0 .1-.1.2 0 0 0-.1 0 0 0-.1 0-.1 0 0 0 0 .1-.1 0 0 0zm1.2-7.4c0 .1.1.1 0 0 .1.1.1.1.1.2-.1 0-.1 0-.2.1 0-.1 0-.1.1-.1h-.1c.1-.1.2-.1.1-.2 0 .1 0 0 0 0s0 .1 0 0c0 0 0 .1 0 0zm.1-.9s.1 0 0 0c0-.1.1-.1.1-.1.1 0 .1 0 .1-.1.1 0 0 .1 0 .1l-.2.1c0 .1 0 .1 0 0 0 .1-.1.1 0 0-.1.1 0 .1 0 0v.1s.1 0 .1.1v.1h.1c-.1.1-.1 0-.1 0v-.1c-.3 0-.2 0-.1-.2 0 .1-.1.1 0 .1-.1 0-.1 0 0-.1 0 0 0 .1 0 0 0 0 0 .1 0 0zm.1-.5c.1 0 0 .1 0 .1-.1 0 0-.1 0-.1zm-.3-.7s.1.1.2.1c-.1.1-.2 0-.2-.1 0 .1 0 0 0 0 0 .1 0 0 0 0 0 .1 0 0 0 0-.1.1 0 .1 0 0zm1.5-2c.1 0 .2 0 .1.1 0 0-.1 0-.1-.1 0 .1 0 0 0 0s0 .1 0 0c0 .1 0 0 0 0 .1.1 0 .1 0 0zm7.9 0c-.1-.1 0-.1 0 0 .1 0 0 0 0 0zm-5.4-1.1c.1 0 .1.1 0 0 .1.1.1.1 0 0 0 .1-.1.2-.1.2-.3.1-.1.2-.1.2h-.1c0 .1 0 .1.1.1-.1.2-.3-.1-.4.1 0 0-.1-.1-.1 0v-.3s.1.1.1.2l.5-.2s.1-.1.1 0c-.1-.2 0-.2 0-.3 0 .1 0 0 0 0 .1 0 0 0 0 0zm2-4.1s.1 0 0 0h.2c0 .1-.1.1-.2 0 .1 0 0 .1 0 0 0 .1 0 .1 0 0 0 0 0 .1 0 0zm.4-.8c0 .1-.1.1-.1 0 .1 0 0 0 0-.1.1.1.2.1.2.1h-.1zm1.3-2.1s0 .1 0 0c-.1-.1 0 0 0 0-.1-.1 0-.2-.1-.2 0-.1.1 0 0 0 0 0 .2.4.2.5 0 0-.1 0 0 0 .1.1-.1-.2-.1-.3zm7.7 41.7s.1.2 0 .1c-.2-.1 0-.1 0-.1zm-10-.8s0 .1.1.1h-.2s-.2-.1-.1-.2c.1.1.2.1.2.1 0 .1 0 .1 0 0 0 .1 0 0 0 0zm9.8 0c0-.1.1-.1.1-.2.1 0 .1.1 0 .2h.1c0 .1 0 .2.1.1.1 0 .2 0 .3-.1h.3c.1 0 0 0 0-.1.2 0 .8.1.9.1 0-.2-.1.3.1.1l.5-.3c0 .1 0 .2.1.2.2.5-1.7.5-1.8.4v-.1h-.1s-1.5.1-.9-.5l.1.1v-.3c-.1.2.1.3.2.4 0 0-.1 0 0 0zm-.8-.3c.1-.1.1-.1 0 0 0 0 .1-.1 0 0zm3.7-.2c0 .1-.1.2-.2.2.1-.1.1-.2.2-.2zm-4.2-.5c.1 0 .1 0 0 0 .1 0 .1 0 0 0 .2 0 .2.2.2.2 0 .5-.2-.2-.2-.2 0 .1 0 0 0 0 .1 0 0 0 0 0zm4.3-.2c.1.1.1.6.1.7-.1 0-.2-.2-.2-.3v-.1c.1.1.1-.3.1-.3s0 .1 0 0c.2.1 0 .1 0 0zm-1.5-.3s.1 0 .1.1c-.1 0-.1.1-.1-.1.1.1 0 .1 0 0zm-.2.1c0 .2-.1.1-.2.1v-.2c.1 0 .1 0 .2.1-.1 0-.1 0 0 0 0 0-.1 0 0 0zm-.6-.2c0 .1 0 .1-.1.1-.2-.1.1-.1.1-.1zm2.5 0c0-.1.2-.1.2 0h-.2c.1 0 .1 0 0 0 .1 0 0 0 0 0s.1 0 0 0zM77 86c0 .1-.1.1-.1.1l.1-.1s0 .1 0 0c0 .1 0 0 0 0zm-.5.1c0-.1-.4.5-.3 0 0 0 0 .1.1 0V86c-.1.1.3.1.2.1 0 .1 0 0 0 0zm2.7 0c-.1 0-.2 0-.1-.1s.1 0 .1.1c0-.1 0-.1 0 0 0-.1 0 0 0 0-.1 0 0-.1 0 0zm-2.1-.2c-.1-.1.2.3 0 .2-.1-.1-.1-.1 0-.2 0 0-.1 0 0 0zm1 0c.1 0 .1.1.1.1s-.2.4-.3 0c.2 0 .2 0 .2-.1 0 0 .1 0 0 0 .1 0 0 0 0 0zm1.8.4c-.1-.1-.2.3-.3.3 0-.1 0-.9.1-.8h.1c0-.1.2.1.2.3 0 0 0-.1-.1-.1.1 0 .1.4 0 .3 0 0 .1 0 0 0 .1 0 0 0 0 0zm-.9-.5c0 .2-.2 0 0 0-.1 0 0 0 0 0s-.1 0 0 0zm-2.5 0c0 .1 0 .1-.1.1-.1-.1-.1-.1-.1-.2.2 0 .2 0 .2.1.1 0 0 0 0 0zm1.3-.2c0 .1-.3.2-.3.2s0-.1.1-.1h-.1.1c-.1 0 .3-.2.2-.1 0 .1 0 0 0 0zm1.8 0v.2c-.3 0 .1-.2 0-.2 0 .1 0 0 0 0zm-3.3.1c-.1 0-.2 0-.1-.1 0-.2.2 0 .1.1-.1 0 0 0 0 0-.1 0 0-.1 0 0zm.7-.2c.2 0-.1.4-.2.3v-.2c0 .1.2-.2.2-.1.1 0 0 0 0 0zm2-.1c.2 0-.2.3-.2.3-.1-.1 0 .2-.1.1-.1-.2.1-.3.2-.3 0-.1.1-.1.1-.1.2 0 0 0 0 0zm-1.7.2l.1.1c0 .1-.1.1-.1-.1-.1.1-.1.2-.1.2-.1.1 0-.1 0-.1h-.1l-.2-.2c.1 0 .1-.2.2-.2.2.1.3.2.2.3 0 .1 0 0 0 0zm-13.1-.3c.1 0 .1 0 0 0 0 .1 0 .1 0 0 .1 0 0 0 0 0 .1 0 0 0 0 0zm11.9-.1c.1.1.1.2 0 .3v-.3c.1 0 0 0 0 0zm2.3-.1c.2 0 .1.1.1.2.3-.1.1.1.1.2h-.1v-.1c.1-.1-.1-.2-.1-.3.1 0 0 0 0 0zm-5.9 0c.1.1.2.2.3.2l-.2.2s-.4-.4-.1-.4c0 .1-.1 0 0 0 0 .1-.1 0 0 0zm4 0c.1.1.1.1 0 .2v-.2c.1 0 .1-.1 0 0 .2 0 0 0 0 0zm.5-.1h.2l-.1.1c0 .1 0 .1-.1 0-.2.1-.1-.1 0-.1 0 0-.1 0 0 0zm1.2.1c-.3.1.3-.2 0 0-.1 0 0 0 0 0zm-2.2-.2c.1 0 0 .3 0 .3-.1 0-.1-.1-.1-.2.1 0 0-.1.1-.1 0 0 .1 0 0 0 .1 0 .1 0 0 0 .1 0 0 0 0 0zm2.3 0c.1 0 .1 0 0 0 0 .1.1.1.1.2h-.1v-.2c.1 0 0 0 0 0zm7.6.9c0 .1 0 0-.1.2-.2-.1-.2.1-.2.1-.1.3-.5.4-.5.7-.1 0-.1.1-.1 0 0-.2-.9.1-.8-.5.1-.3.7-.1.5-.6.1.4 1.4-.9 1.5-1-.1.1-.1.2-.2.4-.1.1-.2.2-.2.3 0 0 0 .6.1.4zm-7.8-1.2c.1 0 .1.1 0 .2H78c0-.1 0-.2.1-.2 0 0-.1 0 0 0zm-.3 0c.2 0-.3.5-.3.3.1-.2.4-.3.3-.3.1 0 .1 0 0 0 .1 0 0 0 0 0 .3 0 .1 0 0 0zm-11 0c.1 0 .2.2.1.2-.3.1-.1-.5-.1-.2 0-.1 0-.1 0 0 0 0 0-.1 0 0zm9.6-.1c0-.1.2.5.2.3h.2s.4.1.1.2c-.1 0-.7-.4-.6-.5h.1c0 .1 0 0 0 0zm-4 0s.3.2 0 .1c0 0 .3.4 0 .3h-.1l-.2-.1c-.3 0 0-.4 0-.4h.1c.2 0 .2.1.2.1s0-.1 0 0c0 0 0-.1 0 0zm4.6-.9c0 .1-.1.1-.1.1.1-.1 0-.1.1-.1.1.1 0 0 0 0 .1.1 0 0 0 0zm.6.3c0 .1.1.1.1.2 0 0-.5-.2-.3-.2v-.1s.3-.6.4-.2c-.1.2-.5-.2-.2.3 0 0-.1 0 0 0-.1.1.1 0 0 0 0 .1 0 0 0 0zm.5-.3s0-.1 0 0c0-.1 0-.1 0 0zm-6.4-.1c.1 0 .2.1.1.1l-.1-.1c0-.1 0 0 0 0 .1 0 0 0 0 0zm-11.3 0c.1.1-.2 0 0 0 .1 0 0 0 0 0zm15.5-.2c.1 0 .1.3.3.2 0 .1-.3 0-.3.1 0-.1-.1-.2 0-.3.1 0 0 0 0 0zm-.7-.1c0 .1-.1.1-.2 0h.2c.1 0-.1 0 0 0 0 .1 0 0 0 0zm-.3-.1c0 .1 0 .1 0 0v.1s.1 0 0 0-.1.1 0-.1c0 .1 0 0 0 0zm-21 .1c.1.1 0 .1-.1.1-.1-.2.1-.2.1-.1zm21.4-.2c.1 0 .1.1.1.2-.1 0-.1 0-.1.1l-.1-.1c.1-.1.2-.1.1-.2.1 0 0 0 0 0zm.1-.1c.2 0 0 .2 0 0 .1 0 0 0 0 0zM54 82.6c.1.1 0 .4-.2.4 0-.2-.2-.1-.1-.3 0 .1.2 0 .3-.1 0 .1 0 0 0 0 0 .1 0 0 0 0zm23.6-.1s.3.4.3.3c-.1.4-.8 0-.7 0-.1-.1.4-.3.4-.3.1 0 0 0 0 0zm-1.3 0c.1.1.1.1 0 .2-.1-.1-.1-.2 0-.2-.1 0 0 0 0 0s-.1 0 0 0zm.9-.4c-.1 0-.1 0-.1-.1s.2 0 .1.1zm-.9.1s.1 0 0 0c0-.1-.3-.1-.2-.3h.3v-.1l.1.3c0 .1-.2 0-.2-.1-.1 0 0 .1 0 .2.1 0 .1 0 0 0 .1 0 .1 0 0 0 .1 0 0 0 0 0s.1 0 0 0zm-20.8-.4c.1 0 .3 0 .1.1 0 0 .2 0 0 .1.1.1.3 0 .3.2 0 .1-.4.5-.4.5s-.5-.4-.4-.4l-.1.1s-.1-.1 0-.1c-.3.1.4-.4.5-.5zm10.3-.1c0 .1 0 .1 0 0 0 .1-.2.1-.1 0 0 .1.1.1.1 0 0 .1 0 .1 0 0 0 .1 0 .1 0 0zm11.3-.1c0 .1-.3.2-.3.1-.1-.2.3-.3.3-.1 0 .1 0 0 0 0zm-.3-.3c0 .1-.1.1-.1.1-.1 0-.1 0-.1-.1s.1-.1.2 0c-.1 0 0 0 0 0-.1 0-.1 0 0 0zm-1-.3c-.1.6-.2 0 0 0 0 .1 0 0 0 0zm-15.4.3c0-.1 0-.2.1-.3 0 0 .1.1 0 .1v.1h-.1c.1.2.4.3.5.1h-.1c.1 0 .1 0 .1-.1-.1.1.2-.1.1-.1.1-.1.2-.1.3-.1v-.1h.1c.2 0 .1.1.1.2.1 0 .2 0 .1.1h.1c.1.1.1.1 0 .1v.1h.1l.1.1c-.1 0 0 0 0 .1-.1 0 0 .1 0 .1-.1.3-.2 1.4-.2 1.7.1 0-.2.3-.3.4 0-.1-.1-.3-.2-.1-.1 0-.2.2-.5.3 0 0-.1 0-.1-.1s0-.1-.1-.2l-.1.1s0-.3-.1-.4c.1 0 .1-.6.1-.7v.1c.1-.1-.1-.3-.1-.4.1 0 .1-.1.1-.1V82s-.1-.1-.1 0c0 0 .1-.4-.1-.3 0 0-.1 0-.1-.1.2 0 .4-.3.3-.3 0-.1 0 0 0 0 0-.1 0 0 0 0zm2.6-1.7c.1 0 0 .2 0 0 .1 0 0 0 0 0zm5.5-.4s-.1.1 0 0c-.2 0-.1-.1 0 0zm.7 0c0 .1-.4 0-.4-.1 0 .1.5 0 .4.1 0 .1 0 0 0 0zm-6.9-.1c0-.1.3-.1.3-.1.1.3-.3 0-.3.1 0 0 0-.1 0 0 0-.1 0 0 0 0zm5.6-.3c0 .1-.1.1-.2.1-.1-.1 0-.2.2-.1 0 .1-.1 0 0 0 0 .1-.1 0 0 0zm-6.2-.1c-.1.3.1.5 0 .8.1.1-.1.5-.1.6-.1.2-.1.5-.2.7-.1.1-.5-.4-.4-.4 0 0-.1-.8 0-.8 0 0-.2-.4.1-.3 0 0 .6-.3.5-.2.2-.1-.1-.3.1-.4 0 .1 0 0 0 0zm6.5 0h.5c0 .1-.4 0-.5 0 0 .1.1.1.1.1-.1 0-.5-.1-.4-.1.1-.1.4-.2.3 0 .1-.1.1-.1 0 0 .1 0 0-.1 0 0 .2 0 0-.1 0 0zm-.2-.2s.6-.1.4.1c-.1.1-.5 0-.6-.1-.1-.2.2 0 .2 0s-.1 0 0 0zm-1.4-1.3c-.1 0-.1 0 0 0-.1 0-.1 0 0 0-.3.1 0-.1 0 0-.1 0 0 0 0 0s0-.1 0 0c-.1 0 0-.1 0 0zm-.2-.1c.2 0-.1.3 0 0 0 .1 0 .1 0 0 0 0 0 .1 0 0 0 0 0 .1 0 0 0 0 0 .1 0 0zm-13.6-3.8c0 .1.1.1 0 0 .1.1.1.1 0 0l.2.2c-.1.1-.2-.1-.2-.2 0 .1 0 .1 0 0 0 .1 0 .1 0 0 0 .1 0 .1 0 0zm-.5-.6c-.2.1 0-.2 0 0zm-.4-.9c0 .1-.2.1-.2-.1.1 0 .1.1.2.1 0 0-.1.1 0 0-.1.1 0 0 0 0zm1.4-1.6c0 .1-.1.1-.1 0s.2 0 .1 0c0 .1 0 0 0 0zm-.2-.2c0 .1-.1.1-.1 0h.1c0 .1 0 0 0 0 0 .1-.1 0 0 0zm7.1-4.2c0-.1 0-.1.2-.1 0 .1-.2.1-.2.1zm-.1 0c-.1 0-.5.1-.6.1 0-.2.3 0 .4-.1h-.1.2s.1-.1.1 0c-.1 0-.1 0 0 0 0 0-.1 0 0 0-.1 0 0 0 0 0-.1 0 0-.1 0 0zm.8-.2c0 .1-.2.1-.3 0v.1c-.1 0 0 0 0 0-.1.1.2-.1.3-.1zm1.3-.9c-.2.2 0 0 0 0zm-.3-.2c.1 0 .1.1.1.1s-.2 0-.1-.1c.1 0 0 0 0 0zm.2 0c0 .1-.1.1-.2 0 .1-.1.2-.1.2 0 .1 0 0 0 0 0 .1.1 0-.1 0 0zm0-.6c.1 0 .1.1.1.1l-.1-.1c-.1.3-.1.4-.2.6-.1-.1.2-.6.2-.6.1 0 0 0 0 0zm-13.1 0c-.1.1-.1 0-.1-.1s.1.1.1.1c0-.1 0-.1 0 0-.1.1 0-.1 0 0zm3.9-.3s0 .1 0 0c0 .1 0 .1 0 0-.2.1-.2 0-.3.1 0-.2.4-.3.4-.4v.1l.1.1s-.1.1-.2.1zm10.7-.5c0 .1.1.2 0 .3v-.3c0 .1 0 .1 0 0 .1 0 .1 0 0 0 .1 0 0 0 0 0zm-13.5-.4c.1 0 .2-.1.2-.1.1 0 .2 0 .3-.1h-.1s-.1.1-.1 0-.1-.1-.2-.1c0-.1.1-.2.2-.1v-.1h.1v-.1h-.1s0-.1.1-.1v.1c.1 0 .4-.3.5-.1v-.1c0-.1.1.2.1.1 0 0 .1-.1 0-.1.1 0 .2 0 .1-.1l.2.2c0 .2.3 0 .5.1-.1.3.3.4.1.8.5 0 .1.2.2.5-.4.2-.6.2-.7.6 0 .1-.1.9-.1 1-.1 0-.1.1-.1.1-.1-.1-.5.7-.5.7-.1-.1-.2 0-.3-.1l-.1.1v-.1c-.1 0-.4.1-.5 0h.1c0 .2-.8.1-.9.3h-.7c0-.1-.1-.1-.1-.1-.1.1-.1 0-.1-.1-.1 0 0 0 0-.1.1.1.2-.1.3-.1h-.2c-.1 0-.3-.1-.4-.1h.2l.1-.1H48s-.2 0-.1-.1c0 .1 0 0 0 0-.1 0-.1 0-.1-.1h.1c.1-.1.2-.1.3-.1 0 0-.1 0 0 0 0 0 .2.1.1 0l-.4-.1h.1s0-.1 0 0l.1-.1v.1c.1-.1.2-.1.3-.1 0 .1 0 .1.1.1 0-.1-.1-.2-.1-.2h.2c0-.1.1-.1.2-.1.2.1 0-.1-.1 0h-.2c.1 0 .4-.2.4-.2v-.1h.1c0-.1.2-.4.4-.3L49 64h-.1c.1-.1.1-.1 0-.1 0-.1-.1-.2-.2-.2 0 0 .1-.3.2-.2h.2c0-.3.2 0 .3-.2h-.1.1s-.2-.1-.1 0c0-.1-.2-.2-.3-.2 0-.2.2 0 .2 0V63s-.1 0-.1-.1l.1-.1c-.1 0-.1.1-.2.1 0-.1.1-.2.2-.2 0 0 0 .1.1.1 0-.1.4.1.4.2.1-.3.4-.4.4-.3.1 0 0 0 0 0 .1 0 0 0 0 0zm2.8-1c.2 0 0 .3-.2.2 0 0 .1-.1 0-.1.1-.1.2-.1.2-.1s.1 0 0 0c.1 0 0 0 0 0zm11.3-.1c0 .1-.1.2-.2.1s.2-.1.2-.1c-.1 0-.1 0 0 0 0 0-.1 0 0 0zm-11.7-.5c0 .1-.1.2-.2.1.1-.1.2-.1.2-.1zm-.2-.6s-.3.2-.2 0h.2zm.2-.1c-.1.1-.1.1-.2.1.1-.1.1-.1.2-.1 0 .1 0 0 0 0zm.3-.3c0 .1-.1.2 0 0 0 .1 0 .1 0 0 0 .1 0 .1 0 0 0 .1 0 .1 0 0zm0-.1s0 .1 0 0c0 .1-.1.1-.1.1s-.2-.2.1-.1zm-.9-.2c.1 0 .1-.1.1 0h-.1c.1 0 .1 0 .1.1l-.1-.1c0 .1 0 .2-.1.2.1-.1.1-.2.1-.2s.1 0 0 0c.1.1.1 0 0 0zm1.8-.9l.1-.1s.5-.6.5-.2h.1s.8.1.7.1c.1 0 .1 0 .3-.1 0 .1-.1 0-.1.1h.1c-.1.4-.9.6-.8.7.2.1-.3.2-.2.2-.2-.1-.2.1-.2.1l.5-.2h.2c0 .2.7.2.8.2 0 .3-.1.7-.5 1 0 0-.4.4-.4.3-.1 0 .1.2.1.2l-.6.2h.1c.1.2.4-.1.5.1.2.2.3.3.4.5 0 0 .1.4 0 .3.2.6.2 1 .5 1.5h.1v.1l.1.7c-.1-.1-.1-.1-.2-.1 0 .1.1.2.2.3.3.7-.1.2-.2.5 0 0-.2.1 0 .1-.1 0 .6.1.7 0 .8-.2 0 1.2-.1 1.3l-.1.2h-.2c.1.1-.1.3-.2.3h-.1c.2.2.4.1.6.2.2.1-.8.7-.8.5l-1.4-.2h.2c-.1.3-.2.1-.3 0 0-.1-.3-.1-.3.1-.3-.1-.2 0-.4 0-.2-.2-.1-.4-.6-.3-.1 0-.4.4-.4.4-.1.1-.4-.2-.5-.2 0-.2-.7 0-.8.2-.2-.1-.1-.2-.4-.2v-.1l.3-.1c0 .1.9-.6.9-.7.1 0 .7 0 .8-.1 0 .3.6-.1.5-.2-.1-.1-.4.2-.6-.1-.2-.3-.3 0-.4-.2 0-.1 0-.1.1-.1 0-.1-.1 0-.1 0s-.1-.1 0-.1l-.2.1c-.1.1-.4-.1-.4-.2 0 0-.1 0 0 0 0 0 .1.1.1 0 .1 0 .1 0 0-.1-.2.1.2-.3.2-.2h.1l.5-.1h.1c.1-.6.4-.6-.2-.7.2 0 .3-.4.3-.4v-.1c0-.3.1-.1.3-.1 0 .1.1.1 0 .2 0 .1.2-.1.2-.1.2 0 .2.1.4.1 0 .1.1.1.1.1.2-.1.4-.6.5-.8h-.1v-.1c0 .1-.1 0-.1 0-.1 0-.1.1-.1.1-.1 0 0-.1-.1-.1 0 0 0-1.3.3-1h-.2.1c-.1 0-.2.1-.3.1 0 0-.3 0-.4-.2v.2c-.1.1-.2-.3-.3-.2.1-.1-.2.2-.1.2-.1 0 0-.3-.1-.3-.1.1.2-.3.1-.1.1-.1.2-.3.2-.4-.1.1.3-.4.2-.3 0 0-.1-.2 0-.2v-.1c.1 0 .1-.1.1-.2l-.1.1s-.1.2-.1-.1c-.1 0-.1 0-.1-.1v.2c-.1 0-.2.1-.2.2-.2.2-.5.5-.1-.1h-.1s0-.1.1-.1v.1c.1 0 .1-.1 0-.1l.1-.1v-.2c.1 0 .1-.1.1-.1-.1 0 0-.1.1-.1 0 0-.4.5-.5.4v.1c0 .1-.1 0-.2 0s-.1 0 0-.1c-.1 0 0-.1 0-.1l-.2.1c0-.1.1-.2.2-.2h.1c.1 0 .1 0 0 .1 0 0 0-.1.1-.1.1-.1.3-.2.3-.4h.1c-.1 0 .1-.1.1-.1s-.1 0 0 0H53c.1-.1.3-.1.3-.2 0 0-.3.1-.3.2h-.2c.1.3-.1.1-.2.2-.1 0-.4 0-.3-.1l.3-.1s-.3-.2-.1-.1c0-.1 0-.3.2-.1 0 0 0-.1.1 0-.1 0-.1-.1-.2-.1.1-.1.2-.1.2 0 0 0 0-.1 0 0l.1-.1h-.1c0-.1 0-.1.1-.1h.1c0 .2.1.1.2.1-.1-.1 0-.1-.2.1-.1 0-.1-.1 0-.1l-.1.1V60h-.1c-.1 0 0-.2-.1-.1 0 0 0-.1.1-.1 0 0-.1 0 0-.1 0 0-.1.2-.1-.1 0-.2.1-.1.1 0 0-.1 0-.1.1-.2-.1 0 .2.1.1.1-.1-.3.2.4.1.3.1-.1.1-.2.2-.3.1 0 0 .1 0 .2l-.1.1s.2.2.3 0h-.1c-.1-.5 0-.2.1-.3-.2 0 .1-.3.1-.4.1 0 .1.1.3.1 0-.1-.1-.1-.1-.1-.1-.1-.1-.2-.1-.2zm-.9-.4c.1 0 .3 0 .3-.1h.1c.1 0 .1-.1.2-.1 0 .1 0 .2-.2.3 0 .1.1 0 .1 0s-.5.5-.5.4v.1c-.1 0-.1 0-.2.1 0-.1-.2 0-.1.1-.1 0-.2.3-.2.3-.1.1-.1.3-.1.3-.2-.1.1-.4.1-.6-.2 0 0-.2.1-.1l.1-.1v.1s.1-.1.2-.1V59h.1c0 .1-.2-.4.1 0-.4-.4-.1-.3-.1-.5zm3-.4s.1.1 0 0c.1.1 0 .1.1.1h-.1v-.1c0 .1 0 .1 0 0 0 0 0 .1 0 0zm-.1 0s.1-.1 0 0c.1 0 .1.1 0 0 0 .1 0 0 0 0zm0 0c0 .1-.1.2-.1.2l.1.1v.1h.1l-.3.2s-.4-.3-.1-.3c-.1 0 .2-.4.2-.2v-.1h.1c-.1 0 0 0 0 0 0 .1 0 0 0 0zm0 .1s0 .1-.1.1l.1-.1zm.2-.2c.2.1-.1.1-.1.1l.1-.1zm-.2-.1c.1 0 0 0 0 0 0 .1 0 0 0 0-.1.1 0 .1-.1.1 0-.1.1-.1.1-.1.1 0 0 0 0 0zm1.2-.7c.1 0 .1 0 0 0 .1 0 .1 0 0 0-.2 0-.1-.3-.1-.3h.1v-.1s0 .1 0 0v-.2c0-.1.1-.1.2-.1 0 .1 0 .1-.1.2h.1c0-.1.2-.4.4-.3 0 .1-.1.2-.2.2l.1.1s-.1.1-.1 0v-.1c0 .1-.1.2-.2.2h.1v.1h.1c0 .1-.1 0-.1 0 0 .1 0 .2-.1.3l-.1-.1s-.1.1 0 .1h-.1.1c-.1 0-.1.1-.1.2-.1.1-.1 0 0-.2 0 .1 0 0 0 0zm4.1-1.1c.1 0 .1.1 0 .1 0 0-.1 0 0 0h-.1.1c-.1 0 0-.1 0-.1s0-.1 0 0c0-.1 0 0 0 0zm1.1-1.1s.1 0 0 0c0 0 0 .1 0 0 0 .1-.1.1 0 0 0 .3-.1 0-.1 0h.1zm-7.8 0c-.1 0-.1-.2-.1-.2-.1 0 0-.2 0-.1.2 0 .1.2.1.3.1 0 0 0 0 0-.1 0 .1 0 0 0zm9.3-1.2c.1 0 .1 0 .1.1h-.1c0 .1-.3 0-.3 0h.2l.1-.1c-.1.1-.1.1 0 0-.1.1 0 0 0 0-.1 0-.1 0 0 0-.1 0 0 .1 0 0 0 0 0 .1 0 0zm-9.1.5l.1.2-.1.1v-.1c-.1-.1-.1 0 0-.2 0 0-.1 0 0 0 0 0-.1 0 0 0 0 .1-.1 0 0 0zm0-.5c.1 0 .2 0 .1.1 0 .1.1-.1.1-.1v.1s.1-.1.1 0c.1-.1.1-.1.1.1.2 0-.2.2-.2.1h-.1s0 .1.1.1c0 0-.1.1-.2.1v.1c.1.2-.1 0-.1 0v-.1c-.1 0-.1.1-.2 0 .1 0-.2-.1 0-.2l.3-.3zm11-2.1c.2 0-.1.3-.1.1l.1-.1c.2 0 0 0 0 0zm.5-.7c0 .2-.1.1-.1.1 0-.1 0-.1.1-.1 0 .1 0 0 0 0zm-.2-.1c.1 0 .1 0 0 0 .1.1 0 .1 0 .1h-.1c.1 0 .1-.1.1-.1.1 0 0 0 0 0zm11.5-.1s.2.2.2.1v.1h-.1v.1c-.1 0-.3-.3-.1-.3zm.1 0s.1 0 0 0h.2c0 .1-.2.1-.2 0zm-11.4 0s.1.1 0 .1v.1c-.1 0 0-.2 0-.2zm.8-1.2c0 .1-.1.2-.1.1 0 0 0-.1.1-.1-.1 0-.1 0 0 0-.1 0 0 0 0 0 0 .1-.1 0 0 0zm13.1-1.7c-.1.1-.2.1-.2-.1.1 0 .1 0 .2.1 0 .1-.1 0 0 0zm-12.2-.2c0-.1 0 0 0 0s0-.1 0 0c.1 0 0 0 0 0 0 .1.1.1 0 0l.1.1c-.1 0-.1-.1-.2-.1 0-.1 0-.1.1 0zm1.1-1.6c-.1.1-.2 0 0 0 0-.1 0 .1 0 0-.1.1 0 0 0 0zm0-.2c.1.1.1.1 0 0 .1 0 .1.1.1.1.1.1 0 0 0 .1-.1.2-.2-.4-.1-.2 0 0 0 .1 0 0 .1.1 0 .1 0 0 .1.1 0 0 0 0 .1.1 0 .1 0 0zm1.1-.9c.1 0 .1 0 0 0 .2-.1.1.2 0 .2v.2l-.1.1v-.1.1s-.1.1 0 0v.1h-.1s-.2-.2 0-.2h-.1v-.1h.1v-.1h.1v-.1l.1.1c0-.1-.1-.1 0-.2.1 0 .1.1.1.1-.1.1-.1-.1-.1-.1zm.3-.2c.1.1-.1 0 0 0-.1-.1-.1-.1 0-.1v.1s0-.1 0 0c0-.1 0-.1 0 0 0 0 0-.1 0 0 0 0 0-.1 0 0zm.2-.3s.1.1 0 .1c-.2 0 0 0 0-.1 0 .1 0 0 0 0zm-5.9 18.7c.5-.4.8.3.5.5h-.3c-.1.1.1.3-.1.6 0 0 0 .1.1.1.1-.2.3.1.2.1 0 0-.3 0-.2.1h-.1c-.1 0-.1.2-.2.2 0 .1-.9-.1-.5-.2 0-.1.1-.4.4-.2 0 0-.3.1 0 .2 0 .1.2-.2.2-.2s.1.1.1 0l-.2-.1c.1 0-.3-.2-.3-.2s0 .1-.1 0c0 0 0-.1.1-.1 0-.1 0-.1-.1-.1.1-.1.1-.1 0-.2 0 0-.1-.1-.1-.2h-.1.1c-.3-.1.2-.1.2-.1s.2-.1.1-.1-.1-.1-.1-.1c.1-.1.3.1.4 0 0 0 0 .1 0 0-.1.1-.1.1 0 0-.4.3.4-.1 0 0 0 0 .1 0 0 0 .1-.1 0 0 0 0zM67.4 85s-.3.7-.3.8c-.1.3 0 .4.1.5v.1c.2 0-.2.6-.2.6-.5-.1-.8-.6-1.2-.6 0-.1-.1 0-.1-.1-.4 0-1.3-.8-1.3-1.1.1 0 .9-.4.9-.3.2.5.9 0 1.1.2 0-.1.7-.3.7-.3 0 .1.3.2.3.2-.1 0 .1.1 0 0 .1.1 0 0 0 0zM49.6 46.9c.1 0 .1.1 0 0-.1.1.4.3-.2.3h.1c0 .1-.2.1-.2 0-.2 0 .2.2 0 .2 0 .1.1.1-.1.2.1.1 0 .1 0 .3.1 0 .1-.2.2-.2v.2c-.1-.3.5-.4.3-.2 0 0 .5-.5.6-.5v.7s.2-.2.1-.2l.2-.1c.1.1.3-.1.3 0 .2 0 .1.2.1.4 0 0 0-.1.1-.1v.4s.4-1 .5-.3c0 0 .6.1.4.1.1.3.6-.5.6-.3.3 0 .1.2.2.3h-.1c.1 0 0 0 0 .1 0 0 .1.1.1 0v.1l.1-.1h.1c0-.1.3-.1.4 0h-.3c0 .1-.1.1-.2.1h.1v.1s.1 0 .1.1c.2-.2-.1.3-.1.3-.1.1.1.2.1.2s.2.3.1.3c0 0 .1.2-.1.2H53c0 .1-.1.1-.1.2 0 0 .1-.1.1 0 0 0-.3.4-.3.1 0 0 0 .1.1.1 0 .1-.1 0-.1 0 .1 0 0 .1 0 .1-.1-.1-.3.2-.4 0 0 .1 0 .1-.1.1V50v.1h-.1c.1 0 0 0 0 .1h.1s-.1 0-.1.1c-.1.4-1.6-.1-1.7.3v-.1h-.6c-.5.4-.7-.3-1-.2-.1-.3-.5-.5-.6-.9 0 0-.6-.2-.7-.3-.3 0 .1-.3.1-.4.2.2-.1.2.3.2 0-.1.1-.1.1-.1v-.1h.1l-.1-.1c.1-.1.2-.1.3-.1h-.4.1c.2-.1-.2-.2.3-.2 0-.1-.3.1-.3 0 0 0 .1 0 0-.1h-.1s0-.1.1-.1c0-.1.1-.1.1-.1 0-.1-.1 0-.1 0v-.1s-.4-.2-.4-.3c-.1-.1-.5.1-.4-.2.1-.2.4.2.5 0s.4 0 .4.1h.1c0 .1.4.3.4.1l.1-.1c-.2.2-.4-.2-.4-.2l.1-.1h.5s0-.1-.1-.1v-.2c-.2.1-.1-.1-.1-.1h-.1s.1 0 0-.1h-.1v-.1s0 .1-.1.1v-.1h.1c-.1-.1-.2.1-.2-.1 0 0-.6.1-.5-.1-.1 0-.1-.1-.2-.1-.1-.1.2-.1.3 0 0 0 0-.2.1-.1 0-.1 0-.1.1-.2.1 0 .2.2.2.2v.1h.1s.1-.2.2 0c0 .1-.4-.4-.1-.4l.1.1v-.3c.1 0 .1 0 .2.1.1-.3.4-.1.3.2v.1s.3-.1.1.1h.1v.1s.1-.1 0-.1c0 0 .1-.2 0-.2.1-.1-.2-.4.2-.1-.1 0-.1-.1 0-.2h-.1c-.1.1-.2-.1-.1-.1 0 0 0 .1.1 0v-.1c.1-.1.3.2.3.2.2 0-.1.3.1.3-.1.2.1.1-.1.3-.1.5.1.5-.1.6.1 0 0 0 0 0 .1 0 0 0 0 0zm63.2 5.3s.4-1.1.8-2.4l.3-.8.3-.3c.2-.2.3-.3.3-.2 0 .1 0 .1.1 0 .1 0 .1-.1.1-.1h.1c.1 0 .1 0 .1-.2 0-.1.1-.2.3-.3l.2-.2v-1.1c0-.6 0-1.6-.1-2.2v-1.1h-.6v-1.6c0-1.6 0-1.6-.1-1.7 0 0-.1-.1-.2-.1s-.1-.1-.1-.4c0-.2 0-.6.1-1 .1-.5.1-.6 0-.6 0 0-.1-.1-.1-.2s0-.2-.1-.2c-.1-.1-.1-.4 0-.6 0-.1 0-.1-.1-.2s-.1-.2-.2-.3c0-.1-.2-.3-.3-.5-.2-.2-.3-.5-.4-.7-.1-.2-.2-.4-.2-.5-.1-.3-.3-.8-.3-.9 0-.1 0-.1-.1-.1 0 0-.1-.1-.1-.2s0-.1.1-.2c.1 0 .1-.1.2-.1 0 0 .1-.9.2-2 .1-.7.1-.7.2-.8.1-.1.1-.1.3 0 .1.1.1.1.1.2s0 .5-.1 1c0 .5-.1 1-.1 1.2v.4l.1.1c.1.1.1.1.1.2s0 .1-.1.2c-.1 0-.1 0-.1.2 0 .1 0 .2-.1.3-.1.1 0 .1.1.3.1.1.3.3.4.5.2.2.3.4.4.5.1.1.1.3.2.3 0 0 .1.1.2.1.1.1.2.1.2.1h.1s.1 0 .2.1c.1 0 .4.2.7.5.2.2.4.2.5.2.1 0 .1-.1.1-.3 0-.2 0-.3-.1-.4-.1-.2-.1-.2-.1-.4s0-.4.1-.5c0 0 .1-.1.1-.2.2-.3.5-.3.7-.2l.1.1s.1 0 .1.1c0 0 0 .1.1.2s.1.7 0 .8c0 .1-.1.2-.1.2s-.1.1 0 .3c0 .4.1.4.3.4.3 0 .4 0 .4-.1h.1c.1 0 .2 0 .2-.1.1 0 .2-.1.3-.1h.4c.1 0 .1-.1.2-.3.1-.2.1-.4 0-.4s-.5-.4-.5-.5c-.1-.2-.1-.4-.1-1.1v-.5l.1-.1c.5-.3.9-.3 1.4-.2.2.1.7.3.7.4 0 0 .1.4.1.7v.9c-.1.3-.3.5-.6.6-.1 0-.1.1-.1.1s0 .2-.1.4-.1.4-.3.5c-.2.2-.2.2-.1.5v.3c0 .1-.1.2-.1.3 0 .2 0 .2-.2.2 0 0-.1.1-.2.1l-.1.1v.5c.1.6 0 .8-.1.9-.1.1-.1.1-.1.8 0 .4 0 .9.1 1.2v.5s-.1.1 0 .9v2.7c0 1.4 0 1.8.1 1.8s.3.3.4.4c0 .1.1.1.3.2.4.2.6.3.7.6.1.1.3.7.5 1.2s.4 1.2.5 1.5l.2.5h1.1c1.7 0 5.1-.1 7.7-.2 3.8-.1 5.4-.1 6.4-.2h.9v2.6h-25.1c.1-2.3-.1 0 .1-2.3zm6.5-15.5c-.1 0-.1 0 0 0-.1 0-.1 0 0 0zm39.1 17.7s0-.2.1-.5c0-.3.1-.5.1-.5h-.2c-.3 0-.5-.1-.8-.4-.1-.2-.2-.5-.2-.7 0-.2 0-.5.1-.8 0-.1.1-.2.1-.2 0-.1-.1-.1-.6-.2-.4-.1-1-.2-1.2-.2-.4-.1-1.2-.4-1.8-.8-.5-.3-.9-.7-1-1.1l-.1-.2h-.4c-.2 0-.4 0-.4-.1V48c0-.2 0-.5.1-.5l1.4-.2h.3v-.1c-.1-.2.1-.3.3-.3.1 0 .2-.1.1-.1l-.4-.2c-.2-.1-.3-.2-.3-.2.1-.2.1-.2-.4-.5-.4-.3-.5-.3-.5-.4v-.2c.1-.2.1-.2.2-.5.2-.8.2-1.1.1-1.6-.1-.4-.1-.4-.3-.5-.1 0-.1-.1-.1-.1s-.5-.4-.5-.5c0-.1-.1-.7-.1-1.1 0-.2 0-.5.1-.7.1-.4.1-.5 0-.5v-.3c0-.2 0-.2.1-.2s.1-.1.1-.1c.1-.3.3-1 .4-1.2.3-.6.9-1.2 1-1.2h.1s.1-.1.2-.1c.2-.1.9-.4 1-.4.2-.1.4-.4.6-.6.1-.1.1-.2.1-.3 0 0 .1 0 .1.1l.1.1-.1.2c-.2.3-.4.6-.5.7-.2.1-.5.3-.8.4-.5.2-.6.2-.8.4-.2.2-.5.6-.6.9 0 .1-.2.4-.3.7-.1.4-.2.5-.1.5 0 0 0 .1.1.1 0 .1 0 .1.3 0 .5-.1.8-.1.9 0 .1.1.5.1.6 0 0 0 .2-.1.4-.1.3-.1.4-.1.9 0h.2v-.1c0-.1 0-.1-.1-.1s-.1 0-.2-.1v-.2c0-.1 0-.2.1-.3.1-.1.1-.2.1-.2v-.1c.1-.1.2-.1.3-.2.1 0 .2 0 .3-.1.1-.1.1-.1.1 0 0 0 0 .1.1.2s.2.3.2.4c0 .1 0 .1.1.2s.1.2 0 .4c0 .1 0 .1-.1.1h-.1c-.1 0-.1.1-.1.2.1.1.3.3.4.3.1 0 .2.1.2.1.2.2.2.2.3 0 .1-.2.3-.5.5-.5.1-.1.2-.1.2 0 .1.1.1.2 0 .3-.1.1-.1.1 0 .2h.1c.1-.1.1-.1.1-.2 0 0-.1-.1-.1-.2v-.2c.1-.1.1-.1.1-.3v-.3c.1-.1.2-.2.4-.2s.2 0 .3.1c.1.2.2.3.2.5s0 .2.1.3c.1.1.1.3-.1.4-.1 0-.1.1-.1.1s-.1.1-.1.2.1.1.4.3l.4.2v-.1c.1-.2.2-.2.4-.3.2-.1.2-.1.2-.2s.1-.5.1-1c.1-.5.1-1 .1-1.2 0-.2.1-.6.1-1 0-.3.1-.7.1-.7v-.4c0-.1 0-.1-.1-.1h-.1l.3-.8s0 .2.1.4v.4h-.1c-.1 0-.1 0-.1.1v.3c0 .1-.1.1-.1.9 0 .4-.1 1-.2 1.4l-.2 1.8h.2c.1 0 .2 0 .2-.1 0 0 0-.1-.1-.1-.1-.1-.1-.1 0-.3 0-.1.1-.2.1-.3 0-.4.4-.6.7-.5.1.1.1.1.2.6 0 .6.1.6-.1.6-.1 0-.1 0-.1.2v.1l.3.1c.2.1.3.2.5.4.1.2.3.3.3.4 0 .1.1.1.1 0 0 0 .1-.1.1-.2l.1-.1.1-1.4c.1-.8.1-1.6.2-1.9.1-.9.2-1.9.2-2.1v-.4c0-.1 0-.1-.1-.1h-.1s.2-.8.2-.9c0 0 0 .2.1.4 0 .2.1.4.1.4s0 .1-.1.1-.1 0-.1.1v.3s-.1.6-.2 1.9c0 .3-.1 1.3-.2 2.2l-.1 1.6.2.2c.3.3.3.3.3.9 0 .5 0 .6-.1 1.5 0 .4-.1.7-.1 1 0 .2-.1.4-.1.7 0 .4 0 .5-.3.5-.2 0-.2 0-.2.1 0 .2-.1 1.8-.1 1.8s3-.2 3.6-.3c.1 0 .5-.1.9-.1 1.6-.2 2.8-.3 3.5-.5.9-.2 1.9-.8 2.2-1.3l.1-.1h-.5c-.1 0-.3-.2-.4-.4-.1-.2-.1-.3-.1-.5v-.2h.2c.3 0 1-.2 1-.2v-.1c-.1-.1-.3-.2-.4-.3-.1 0-.1-.1-.2-.1-.1-.1-.2-.3-.2-.4 0-.1 0-.2-.1-.2h-.2c-.1 0-.1 0-.2-.1-.2-.1-.7-.3-1-.4-.1 0-.2-.1-.2-.1-.1-.1-.1-.1 0-.2 0-.1.1-.2.2-.4.1-.3.1-.3.1-.5v-.3c0-.1 0-.1.2-.5.1-.2.3-.5.4-.6.9-1.1 1-1.2 1-1.3v-.2c0-.1.3-.7.4-1 .2-.4.2-.4 0-.4-.1 0-.4.1-.6.3-.1 0-.1.1-.1.1s.1-.1.2-.3c.2-.3.2-.3.3-.5 0-.2 0-.2.2-.4s.2-.3.2-.5 0-.2-.2-.2-.4.1-.6.2c-.1.1-.4.4-.6.8l-.2.3h-.2c-.1 0-.2 0-.2.1-.1.1-.3.2-.5.3-.3.1-1.4.2-1.4.2s0-.1.1-.3c0-.1.1-.3.1-.3h-.1c-.1 0-.2 0-.1-.2 0-.1 0-.2.1-.2v-.3c-.1-.3-.3-.7-.2-.8 0-.1 0-.2.2-.3l.2-.1.9-.2 1-.2s0-.1-.1-.2l-.1-.2h-.3c-.2 0-.3 0-.4-.1-.1 0-.1-.1-.2-.1s-.2-.2-.2-.2 0-.1.1-.1c.1-.1.1-.1.4-.1h.3v-.1s-.1-.1 0-.1c0-.1 0-.1.1 0 0 0 .1.1.2.1s.1.1.1.1c0 .1.1.1.4.1h.3s.2 0 .3.1c.3 0 .4.1.5.2.1.1.3.1.4.1.1 0 .1-.1.1-.3v-.3c.1-.1.1-.2.3-.2.2-.1.3-.1.5-.1.1 0 .2.1.2.3 0 .1 0 .1.1.1v.5c0 .1 0 .1-.1.1s-.1 0-.1.1c-.1.1.2.3.5.4.1 0 .2.1.2.1v.3c0 .2 0 .4.1.5 0 .1.1.4.1.5 0 .1 0 .4.1.5.1.2.1.3.1 1.2 0 1.1 0 1.4-.2 2-.1.3-.1.4-.1.4 0 .1.2 0 .5 0 .3-.1.4-.1.5 0 .1.1.1.2-.1.4-.1.2-.2.4-.2.9 0 .3 0 .4.1.8s.1.7.2.8c0 0 .2.3.5 1 .2.5.6 1.4.6 1.6.1.3.1.8.1 1.3s0 .7-.2 1.2-.9 1.3-1.5 1.7c-.3.1-.7.3-1.3.6-.8.3-1.2.4-2.1.6-1.7.3-2.4.4-3.3.5h-.6l.2.2c.5.7.6.8.7 1.5.1.4.1.9.1 1.2v.2h-5c-3.6-.2-5.9-.2-5.9-.3zm.9-6.6v-.2c0-.1 0-.2-.1-.2s-.2-.7 0-1.7c.3-2.4.4-3.6.5-3.8l.1-.2-.1-.1-.1-.1s0-.1-.1-.1c0 0-.3.3-.3.4 0 0 0 .1.1.1.1.1.1 1.2-.1 2.8-.1 1.2-.2 1.7-.3 1.7h-.5c-.1.1-.1 1.1 0 1.2h.2c.2 0 .2 0 .3.1.2.1.2.1.4.1zm3.1-.2l.1-1.9s-.1 0-.2.1c-.2.1-.4.3-.5.5-.1.1-.1.2-.1.5 0 .4 0 .5-.1.5s-.1.1-.2.2v.1h1zm-6.4 0s.1-.3 0-.4c0 0-.1-.1-.1 0 0 0-.1.1-.2.1-.1.1-.2.1-.2.2v.1h.5zm1-4.3c0-.1.1-.2.1-.2l.1-.1v-.1l-.1-.1s-.2.4-.2.5v.2c0 .1.1 0 .1-.2zm-4.4-.9c0-.1 0-.2.1-.3.1-.2.2-.2.4-.3.2-.1.3-.2.5-.4.1-.1.2-.3.2-.3s.4-.5.5-.6c.1-.1 0-.1-.3-.1-.1 0-.3 0-.4-.1-.3-.1-.8-.3-.8-.3-.1-.1-.2-.1-.3 0-.1 0-.1.1-.1.4-.1.8-.1 1.5 0 1.8 0 .1.3.4.3.4-.1-.1-.1-.2-.1-.2z"/><path fill="#FFF" d="M126 52.8c.3 0 .3-.3.1-.5l-.2-.1.2-.2c.1-.1.2-.3.3-.5.1-.5.4-1 .8-1.4.3-.3.4-.4.4-.8 0-.3 0-.5-.1-.7-.1-.2-.1-.2 0-.3.1 0 .3-.3.4-.5.2-.4.2-.6.2-1.1 0-.7.1-.8.2-.1 0 .6.3 1.4.5 1.6.2.2.2-.2 0-.4-.1-.1-.1-.2.1-.4.3-.3.5-1 .6-1.7 0-.8.1-.8.2 0 0 .7.2 1.4.5 1.6.2.2.2.1.2-.2 0-.2-.1-.4-.2-.5-.2-.2-.2-.3.2-.5.6-.3.8-.8.7-1.2-.1-.4-.1-.9 0-1.4.1-.3.2-.5.5-.8.7-.7 1.2-1.6 1-2.1-.1-.1-.1-.2 0-.3.2-.1 0-1.2-.2-1.4-.2-.2-.1-.2.1-.4.3-.2.3-.4.1-.7-.1-.1-.1-.3-.1-.5 0-.3.1-.7.2-.7 0 0 .2-.1.3-.2.8-.9.2-.6.7-.2l.4.4c.4.3.5.7.3 1.1-.2.4-.2.6.1.7.1.1.2.2.3.2 0 0 0 .1-.1.2-.2.1-.2.2-.2.8 0 .4 0 .7.1.7 0 0 .1.1 0 .2s0 .6.1 1c.1.3.4.6.9 1.1.3.2.5.5.6.8.2.5.2.7.1 1.2-.1.2-.1.5 0 .6.1.3.6.9.9 1 .2.1.2.1 0 .4-.2.2-.2.3-.1.9 0 .7 0 .7.2.4.1-.1.1-.5.1-.8 0-.7.2-.8.2-.1 0 .6.3 1.4.6 1.6.2.1.2.3.1.3 0 0-.1.1-.1.3 0 .3 0 .3.2.1l.2-.2s0-.2.1-.4c0-.2 0-.4-.1-.6-.1-.2-.1-.2 0-.3.3-.2.6-1 .6-1.7 0-.8.1-.9.2-.1 0 .7.3 1.5.6 1.8.2.2.2.2.1.4s-.1.5 0 .8c.1.2.1.2.2-.1.1-.1.1-.5.1-.9 0-.5 0-.6-.2-.8l-.2-.2.2-.1c.2-.1.2-.1.2-.4-.1-.5-.1-.7.2-1.1l.3-.3c.4-.9-.2-1 .6.3.3.3.4.6.3.9-.1.3-.1.4.2.5l.2.1-.2.1c-.1.1-.2.2-.2.6 0 .3 0 .5.1.5 0 0 .1.1 0 .2-.1.2.2.6.9 1.3.3.4.5.7.6.8.1.4.1.4.5.1.3-.3.3-.3.3-1 0-.8.1-1.2.6-1.8.2-.2.4-.5.6-.8.2-.4.3-.6.3-1.1 0-.5 0-.7-.2-.8l-.2-.2.2-.1c.2-.1.3-.4.1-.5 0 0-.1-.2-.1-.4s.1-.4.3-.7l.3-.4c.1-.8.5.2.6.4.4.4.4.5.2 1-.1.2-.1.3 0 .4.1.1.2.1.4-.1.3 0 .1-1.8.5-.3l.3.3c.3.4.4.6.3 1.1-.1.2 0 .3.2.4.3.1.3.1.1.3-.1.1-.2.2-.2.6 0 .3 0 .5.1.5 0 0 .1.1 0 .2-.1.2.9 4.7 1.3 5.1.2.2 7.5.3 8.2.4l10.3 1.4H152l-1-.1h-18.6c-6.9.2-6.9.5-6.4-1.5zm4.2-4.8zm16.8-2.5c-.1-.1-.1-.1-.1.2s0 .3.1.2c.1-.2.1-.3 0-.4z"/><path fill="#FFF" d="M133.4 33.5l-.1 2.8h.1v-2.8z"/><path fill="#FFF" d="M133.9 34h-1.1v.1l1.1-.1zm7.1 8.9l-.1 2.8h.1v-2.8z"/><path fill="#FFF" d="M141.4 43.4h-1.1v.1l1.1-.1zm6.2-1.7l-.1 2.8h.1v-2.8z"/><path fill="#FFF" d="M148.1 42.2H147v.1l1.1-.1zm-1.9-1.5l-.1 2.8h.1v-2.8z"/><path fill="#FFF" d="M146.7 41.2h-1.1v.1l1.1-.1zm-9.3 3.7l-.1 2.8h.1v-2.8z"/><path fill="#FFF" d="M137.9 45.4h-1.1v.1l1.1-.1zm1.2-1.3l-.1 2.8h.1v-2.8z"/><path fill="#FFF" d="M139.6 44.6h-1.1v.1l1.1-.1zm-10-.7l-.1 2.8h.1v-2.8z"/><path fill="#FFF" d="M130.1 44.4H129v.1l1.1-.1zm-1.9.3l-.1 2.8h.1v-2.8z"/><path fill="#FFF" d="M128.7 45.1h-1.1v.1l1.1-.1z"/></svg>