<svg width="144" height="46" viewBox="0 0 144 46" fill="none" xmlns="http://www.w3.org/2000/svg"><path d="M29.508 38.856c-.703-.59-1.306-1.563-1.822-2.944l-6.14-16.035 1.062-1.101c.662-.695 1.676-1.1 3.02-1.189.558-.038.946-.086 1.178-.146.86-.238 1.48-.693 1.892-1.358.409-.658.818-2.037 1.218-4.152a8.103 8.103 0 0 1-1.871.53c-.672.117-1.744.175-3.215.175-1.637 0-2.933.23-3.909.703-.973.472-1.87 1.273-2.71 2.404l-5.308 7.414V6.845c0-1.13.115-2.28.342-3.428.232-1.15.564-2.288 1.002-3.417H5.418C3.82 0 2.722.31 2.098.935 1.477 1.554.78 3.155 0 5.735c1.2.096 2.019.405 2.466.937.448.53.672 1.583.672 3.165v29.021c0 .928-.119 1.95-.359 3.08-.234 1.14-.586 2.384-1.043 3.763h8.825c1.562 0 2.653-.305 3.277-.933.632-.619 1.345-2.23 2.144-4.836-1.216-.125-2.038-.446-2.457-.947-.419-.504-.622-1.556-.622-3.177v-6.083l2.172-2.664 4.588 12.84c.177.491.294.927.371 1.294.079.367.117.705.117 1.034 0 .5-.086 1.054-.265 1.62-.163.58-.417 1.2-.74 1.852h7.885c1.638 0 2.837-.403 3.586-1.216.75-.812 1.352-2.393 1.813-4.75h-.283c-1.071 0-1.947-.29-2.639-.879zm51.256-3.05V23.111c0-3.813-.818-6.67-2.464-8.591-1.646-1.911-4.105-2.866-7.358-2.866-1.898 0-3.605.394-5.117 1.183a8.93 8.93 0 0 0-3.585 3.4c-.857-1.525-1.998-2.675-3.41-3.436-1.423-.764-3.109-1.149-5.066-1.149-2.222 0-4.133.47-5.71 1.418-1.58.937-2.789 2.318-3.626 4.135.079-.832.176-1.673.292-2.522.11-.85.244-1.728.397-2.635a9.542 9.542 0 0 1-1.496.302 15.14 15.14 0 0 1-1.784.096c-.079 0-.42-.012-1.035-.031a50.36 50.36 0 0 0-1.658-.029c-1.579 0-2.66.3-3.253.878-.596.588-1.282 2.316-2.06 5.214 1.122.03 1.87.221 2.242.578.37.348.555 1.256.555 2.724v17.076c0 1.149-.105 2.299-.33 3.436a20.935 20.935 0 0 1-.955 3.407h8.593c1.492 0 2.528-.297 3.12-.887.593-.6 1.286-2.218 2.085-4.875-1.14-.134-1.919-.453-2.34-.954-.416-.492-.631-1.556-.631-3.177V24.384c0-2.683.322-4.563.954-5.656.632-1.091 1.694-1.64 3.175-1.64 1.277 0 2.213.432 2.795 1.302.597.868.889 2.23.889 4.095v16.373c0 .87-.117 1.882-.34 3.061a34.559 34.559 0 0 1-1.005 3.782h8.595c1.49 0 2.522-.298 3.117-.887.596-.6 1.287-2.232 2.088-4.906-1.14-.096-1.92-.405-2.34-.925-.418-.511-.635-1.575-.635-3.177V24.384c0-2.683.323-4.563.955-5.656.631-1.091 1.705-1.64 3.205-1.64 1.256 0 2.186.432 2.787 1.302.595.868.897 2.23.897 4.095v16.373c0 .928-.117 1.959-.34 3.1a31.722 31.722 0 0 1-1.035 3.743h8.594c1.493 0 2.522-.298 3.118-.887.595-.6 1.286-2.232 2.085-4.906-1.12-.096-1.9-.405-2.33-.925-.422-.511-.635-1.575-.635-3.177zm25.122 1.832c-.82 1.873-2.096 2.808-3.82 2.808-1.639 0-2.878-.858-3.713-2.587-.84-1.728-1.256-4.285-1.256-7.675v-3.253c0-3.148.419-5.55 1.266-7.2.849-1.65 2.087-2.47 3.704-2.47 1.704 0 2.981.954 3.809 2.856.83 1.901 1.241 4.816 1.241 8.736-.002 3.978-.415 6.901-1.231 8.785zm-.772-25.582c-1.677 0-3.148.23-4.426.693-1.273.463-2.33 1.149-3.165 2.076V6.853c0-1.13.108-2.267.33-3.429A17.605 17.605 0 0 1 98.869.008h-8.966c-1.588 0-2.679.307-3.303.935-.615.618-1.326 2.224-2.124 4.811 1.238.104 2.074.423 2.514.945.44.52.65 1.562.65 3.146v29.386c0 1.342-.082 2.523-.249 3.55a17.507 17.507 0 0 1-.728 2.928c1.704 0 3.403-.004 5.103.004 1.898.01 3.202.055 3.847-.496.646-.553 1.026-1.652 1.143-3.273 2.17 3.507 4.972 3.888 8.693 3.782.925-.025 1.822-.13 2.692-.275 2.267-.374 4.31-1.31 5.987-3.622 2.213-3.048 3.325-7.26 3.325-12.637 0-5.465-1.072-9.694-3.216-12.665-2.133-2.987-5.174-4.471-9.122-4.471zm38.149 20.218a9.284 9.284 0 0 0-1.585-3.036c-1.108-1.518-3.134-3.375-6-5.735-.514-.507-.933-.84-1.281-1.103 0 0-.169-.077-.328-.246-2.614-2.197-3.888-3.703-3.888-4.461 0-.442.102-.851.425-1.105.255-.347.682-.507 1.1-.507.59 0 1.671.333 3.21 1.014 1.519.68 2.783 1.022 3.793 1.022 1.279 0 2.287-.614 3.04-1.701.663-1.093 1.093-2.687 1.093-4.714 0-.17-.096-1.183-.096-1.183a8.148 8.148 0 0 1-2.26.838c-.771.174-1.516.345-2.299.345-.653 0-1.84-.17-3.523-.507-1.688-.344-3.038-.513-4.143-.513-2.617 0-4.719.755-6.318 2.276-1.606 1.437-2.451 3.46-2.451 5.912 0 1.01.155 1.938.424 2.862.263.933.601 1.847 1.101 2.702.839 1.521 3.115 3.878 6.739 7.012.845.759 1.523 1.35 2.027 1.671.935.85 1.601 1.6 2.024 2.284.328.678.597 1.346.597 2.036 0 .837-.342 1.594-1.02 2.166-.766.603-1.601.862-2.612.862-1.446 0-2.535-.418-3.463-1.432-.929-.915-1.336-2.11-1.336-3.63 0-.242 0-.596.073-.932 0-.244.086-.576.173-.927-2.365 1.263-4.04 2.366-5.065 3.297-.928.91-1.602 1.938-2.017 3.206 1.855 1.859 3.88 3.28 6.073 4.202 2.099.926 4.389 1.442 6.651 1.442 3.557 0 6.423-.845 8.516-2.608 2.109-1.778 3.127-4.139 3.127-7.094 0-1.345-.154-2.53-.501-3.715z" fill="#fff"/></svg>