<svg width="107" height="48" viewBox="0 0 107 48" fill="none" xmlns="http://www.w3.org/2000/svg"><path d="M10.229 1.458c-.194 4.868-.326 13.108-.326 22.456 0 7.202.066 18.56.325 22.974H.689c.259-2.726.453-12.004.453-22.258 0-7.985-.129-16.55-.454-23.172h9.541zm8.24 17.135c1.754 3.051 15.056 20.573 22.39 28.295H28.983c-4.415-6.099-15.575-20.636-17.391-22.196l6.877-6.1zM37.333 1.805c-3.12 1.904-9.376 7.384-16.213 13.974-.631-.512.344.279-.287-.234 3.595-6.287 6.58-13.33 6.787-14.087h9.613c.103.35 0-.003.1.347zm13.455 7.378c0 4.933 3.895 7.202 7.981 9.084 7.92 3.57 13.825 7.269 13.825 15.707 0 7.005-4.53 12.576-12.524 13.445-.238-1.113.156.741-.078-.372 4.336-1.378 6.37-4.36 6.37-8.334 0-5.127-3.635-7.66-9.603-10.58-7.4-3.763-13.174-7.14-13.174-14.796 0-6.655 4.708-11.648 13.155-12.42.216 1.106-.143-.744.072.366-4.13 1.263-6.024 4.192-6.024 7.9zm3.145 38.261l-9.96-.687 1.438-8.444.366-.041c1.382 3.489 4.245 7.093 8.244 8.807-.144.6.059-.235-.088.365zm15.16-39.653c-1.467-2.654-3.637-5.023-6.922-6.537.14-.578-.053.213.09-.365l8.388.569-1.197 6.277c-.297.047-.063.013-.36.056zm20.595-6.333a801.747 801.747 0 0 0-.325 23.622c0 7.203.128 18.56.325 21.805h-9.541c.259-2.726.453-12.005.453-22.259 0-7.98-.131-16.55-.453-23.168h9.54zm13.63 18.185v7.331l-.306.153c-3.108-2.254-6.697-3.157-10.18-3.901.013-.541-.002.166.01-.375 3.867-.654 7.756-1.948 10.188-3.37.16.09.125.072.288.162zm2.142-18.182v7.672l-.341.122c-2.486-3.13-7.237-6.168-11.486-7.419.106-.766-.053.388.053-.378l11.774.003zm1.359 36.883v8.541h-12.73c-.103-.6.041.228-.065-.372 4.645-1.726 10.001-5.377 12.458-8.294.272.103.069.025.337.125z" fill="#F7F7F7"/></svg>