<svg width="140" height="55" viewBox="0 0 140 55" fill="none" xmlns="http://www.w3.org/2000/svg"><path d="M14.983.04c-.18.032-.737.147-1.228.245-3.422.688-5.829 2.31-7.728 5.242-.868 1.31-1.375 2.637-1.752 4.538-.115.54-.18 3.85-.18 8.846 0 8.24.033 8.813.72 11.008.213.72.754 1.753 1.523 2.981.508.836 2.522 2.752 3.324 3.178.36.197.737.426.851.525.115.081.884.393 1.72.671l1.506.508h112.089l1.228-.393c2.161-.672 3.471-1.475 5.092-3.178 1.146-1.18 1.588-1.819 2.128-2.9 1.179-2.457 1.179-2.424 1.245-11.99.065-8.224.049-8.618-.279-9.96-.573-2.343-1.473-4.063-2.98-5.652-1.67-1.737-3.307-2.687-5.943-3.391-.901-.246-5.763-.279-55.996-.312-30.257-.016-55.16 0-55.34.033zm110.272 2.21c3.373.41 6.254 2.687 7.548 5.964.769 1.883.802 2.424.802 10.713 0 7.175-.033 7.978-.311 9.14-.393 1.623-.688 2.294-1.605 3.687-1.179 1.785-3.176 3.145-5.517 3.751-1.114.295-3.373.311-56.421.311-61.006 0-56.045.082-58.272-1.032-1.277-.639-3.389-2.62-4.011-3.784-1.26-2.293-1.392-3.49-1.392-11.975 0-10.042.23-11.155 2.914-14.071 1.212-1.295 3.471-2.49 5.125-2.687 1.768-.23 109.388-.246 111.14-.016z" fill="#C94F49"/><path d="M41.016 9.262c-3.635.279-6.32 2.228-7.319 5.34-.54 1.639-.622 2.196-.622 4.03 0 3.08.606 5.34 1.834 6.913.753.95 1.212 1.327 2.341 1.884 1.752.869 2.833 1.065 5.73 1.082 2.833 0 3.8-.197 5.715-1.147 1.457-.737 2.947-2.425 3.52-4.014.77-2.178 1.08-5.16.655-6.536-.082-.311-.23-.9-.311-1.31-.508-2.67-2.292-4.735-4.797-5.586-.557-.18-1.114-.394-1.261-.476-.344-.18-3.93-.294-5.485-.18zm3.602 3.342c1.637.393 2.587 1.31 3.291 3.145.262.688.311 1.213.295 3.195-.033 2.703-.23 3.423-1.277 4.668-1.032 1.245-1.654 1.475-3.946 1.475-1.736-.017-2.047-.05-2.669-.393-.819-.443-1.997-1.737-1.997-2.18 0-.163-.115-.54-.279-.835-.213-.41-.262-1.015-.262-2.9 0-2.08.05-2.49.36-3.275.377-.918 1.016-1.704 1.883-2.343.966-.688 3.03-.934 4.601-.557zm-30.405 5.93c-.032 5.013 0 9.256.066 9.436.115.278.295.311 1.9.311 1.162 0 1.833-.065 1.964-.196.147-.148.197-1.213.197-3.752 0-2.817.049-3.587.229-3.735.147-.13 1.293-.18 3.798-.147l3.586.049.082 3.85.082 3.85 1.866.048c1.228.033 1.932-.016 2.08-.147.196-.164.229-1.704.229-9.223 0-4.963-.066-9.124-.131-9.239-.115-.147-.639-.197-2.096-.164l-1.948.05-.05 3.587c-.016 2.31-.098 3.67-.212 3.817-.262.295-6.828.311-7.237 0-.246-.164-.278-.64-.311-3.8l-.05-3.605-1.997-.049-2.014-.049-.033 9.108zm41.146-8.78c-.279.491-.23 10.893.049 12.63.41 2.572 1.44 4.112 3.356 5.029 1.195.573 3.488.852 7.073.852 2.145.016 2.767-.033 2.915-.213.13-.148.18-.737.147-1.606l-.049-1.36-3.356-.081c-3.57-.082-4.16-.213-5.06-1.032-.884-.82-.916-1-.998-7.978l-.082-6.47-1.916-.05c-1.768-.033-1.932-.016-2.08.279zm19.844-.131c-2.293.245-3.897 1.245-4.667 2.916-.31.639-.36 1.048-.36 2.637.017 1.573.066 2.015.36 2.637.459 1 1.392 1.819 2.587 2.294.917.36 1.228.393 5.55.475 2.522.049 4.7.147 4.83.23.836.49.983.785.983 1.9 0 2.03-.36 2.129-7.81 2.129-4.093 0-5.6.05-5.747.197-.245.245-.262 2.49-.032 2.932.163.295.409.311 5.566.311 6.386 0 8.334-.164 9.742-.835 1.228-.59 1.752-1.065 2.276-2.13.393-.753.426-1.016.426-2.785 0-2.13-.197-2.817-1.13-3.8-.999-1.081-1.965-1.262-7.302-1.409-4.601-.115-5.043-.197-5.649-.901-.327-.41-.245-2.031.131-2.54.639-.867 1.392-.966 7.335-.982 3.962-.016 5.452-.066 5.6-.213.213-.213.278-2.211.098-2.883l-.098-.36-5.682.016c-3.11.016-6.27.098-7.007.164zm22.873.065c-4.044.59-5.976 2.31-6.893 6.192-.442 1.819-.426 4.898.016 6.324.852 2.67 1.981 4.128 4.011 5.11 1.458.705 2.26.803 7.205.918 3.864.082 4.453.066 4.633-.164.147-.164.197-.688.164-1.622l-.049-1.36-4.012-.114c-2.521-.065-4.29-.18-4.764-.328-.966-.278-1.867-.966-2.26-1.736-.327-.655-.49-1.95-.278-2.293.082-.148 1.49-.197 5.567-.197 4.486 0 5.501-.05 5.648-.23.131-.147.181-.736.148-1.605l-.049-1.36-5.649-.081-5.649-.082-.049-.803c-.049-.704.017-.917.54-1.654.312-.475.787-.95 1.032-1.065 1.375-.672 1.555-.705 5.681-.803l4.094-.098.049-1.229c.033-.671 0-1.392-.049-1.589l-.082-.377-3.815.017c-2.079.016-4.42.115-5.19.23zm10.757.033c-.066.05-.115.754-.115 1.54 0 1.409 0 1.425.426 1.523.245.066 1.621.099 3.045.082 2.08-.016 2.653.017 2.767.197.082.13.148 3.555.148 7.617 0 6.602.032 7.42.262 7.503.147.049 1.047.098 2.03.098 1.277 0 1.817-.065 1.948-.213.115-.164.197-2.506.213-7.666l.049-7.438 3.029-.081c1.67-.05 3.127-.148 3.242-.213.262-.18.278-2.589 0-2.867-.147-.148-2.276-.197-8.563-.197-4.617 0-8.432.05-8.481.115zM45.928 45.465c-.917.426-1.965 1.573-2.358 2.605-.458 1.163-.475 3.08-.032 3.931.31.607.9 1.23 1.653 1.72.262.197.753.279 1.441.279 1.031 0 1.539-.18 2.456-.852.491-.36 1.506-1.687 1.506-1.966 0-.114.115-.507.246-.868 1.13-3.145-1.981-6.208-4.912-4.849zm2.505.901c.704.36 1.048.836 1.26 1.802.426 1.786-.474 3.915-1.899 4.554-.851.377-1.31.377-2.079-.016-1.768-.901-1.817-3.915-.098-5.7.737-.787 1.997-1.066 2.816-.64zm9.48-.917c-.737.36-1.67 1.245-2.014 1.916-.671 1.295-.884 3.08-.508 4.26.312.983.557 1.36 1.294 1.884.557.41.819.491 1.637.491 1.195 0 1.998-.393 2.833-1.343.95-1.114 1.08-1.77.327-1.77-.278 0-.491.197-.802.721-.737 1.245-1.932 1.704-3.078 1.147-.95-.459-1.146-.901-1.146-2.523 0-1.458.294-2.375.998-3.178.426-.491 1.425-.917 2.129-.917.54 0 .77.115 1.244.573.311.328.573.721.573.885 0 .344.262.491.704.377.803-.213-.065-1.983-1.26-2.556-.737-.344-2.145-.327-2.931.033zm44.371.016c-.737.344-1.834 1.376-2.194 2.048-.36.672-.704 2.146-.704 2.932 0 .868.409 2.048.867 2.54.197.212.655.54.999.72.901.459 2.636.36 3.864-.246l.901-.426.294-1.277c.148-.705.279-1.475.279-1.737v-.442h-1.703c-1.605 0-1.703.016-1.785.36-.147.541-.016.623 1.032.623.524 0 .998.065 1.048.147.049.066.032.459-.033.852-.115.639-.197.754-.852 1.081-1.277.623-2.505.426-3.258-.54-.278-.36-.344-.672-.344-1.786 0-1.982.59-3.161 1.916-3.833.966-.475 1.867-.459 2.489.082.278.23.507.508.507.622 0 .295.541.754.868.754.655 0 .524-.983-.229-1.9-.704-.852-2.734-1.147-3.962-.574zm33.302-.033c-.622.312-1.49 1.41-1.49 1.884 0 .508.606 1.54 1.097 1.868.246.164.966.573 1.588.885 1.376.688 1.736 1.179 1.425 1.916-.41.983-2.194 1.36-3.144.672-.278-.213-.54-.606-.655-1-.147-.573-.213-.622-.687-.573-.442.05-.524.115-.492.475.05.787.59 1.671 1.278 2.048.867.508 2.586.54 3.503.082 1.49-.77 1.965-2.408.999-3.506-.262-.311-.982-.803-1.588-1.114-1.736-.852-2.014-1.081-2.014-1.622 0-.704.72-1.31 1.555-1.31.803 0 1.654.491 1.932 1.097.246.59.443.721.803.525.72-.394.082-1.786-1.081-2.343-.72-.344-2.308-.327-3.029.017zm-135.42.132c-.41.491-.066.72 1.097.77 1.047.049 1.113.065 1.178.458.017.23-.065 1-.212 1.72-.655 3.113-.754 3.653-.852 4.456-.098.737-.065.885.18.966.426.164.819-.147.868-.688.016-.262.147-.999.295-1.621.147-.64.36-1.59.475-2.13.13-.54.262-1.31.327-1.72.164-1.245.41-1.474 1.62-1.474 1.098 0 1.54-.246 1.344-.737-.131-.36-6.01-.36-6.32 0zm10.74-.05c-.033.115-.18.803-.327 1.524-.164.72-.393 1.736-.524 2.244-.344 1.376-.295 2.883.098 3.473 1.048 1.605 3.864 1.687 5.076.147.638-.802.95-1.703 1.326-3.816.098-.492.278-1.31.41-1.819.13-.491.228-1.147.228-1.425 0-.475-.049-.524-.474-.524-.524 0-.459-.23-1.278 3.768-.49 2.408-.9 3.26-1.768 3.669-.753.36-1.555.328-2.063-.115-.753-.622-.835-.966-.573-2.113.393-1.654.737-3.424.852-4.357l.114-.852h-.524c-.278 0-.54.098-.573.196zm11.281.246c-.065.262-.196.934-.327 1.524-.115.59-.328 1.621-.475 2.293-.131.672-.36 1.786-.508 2.457-.343 1.524-.294 1.884.246 1.884.508 0 .737-.459.982-1.916.295-1.868.344-1.934 1.408-1.934.835 0 .983.05 1.441.557.279.295.639.901.802 1.344.606 1.654.82 1.95 1.343 1.95.426 0 .491-.05.442-.41-.049-.574-.655-1.95-1.113-2.572-.213-.279-.393-.59-.393-.688 0-.082.327-.312.72-.475 1.392-.623 2.047-2.08 1.49-3.326-.442-.966-.966-1.13-3.7-1.13h-2.276l-.082.442zm4.52.72c.818.427.67 1.705-.263 2.278-.475.295-.77.328-2.08.295-1.506-.05-1.522-.05-1.49-.459.05-.852.263-1.884.427-2.097.196-.245 2.947-.278 3.405-.016zm6.892-.966c-.114.115-.196.377-.196.606 0 .246-.099.902-.246 1.491-.131.59-.344 1.655-.491 2.376-.147.72-.377 1.801-.524 2.408-.131.606-.213 1.212-.148 1.36.132.36 3.75.343 4.716-.017 1.867-.72 2.669-2.752 1.523-3.833-.508-.475-.508-.607 0-1.016.736-.573.884-2.097.262-2.818-.54-.606-1.097-.753-2.931-.753-1.163 0-1.834.065-1.965.196zm3.799 1.13c.753.59.425 1.754-.59 2.098-.753.262-2.374.229-2.472-.05-.148-.393.147-2.08.393-2.244.13-.082.688-.147 1.228-.147.77 0 1.097.082 1.44.344zm-.328 3.523c.344.13.508 1.114.262 1.687-.295.704-1.146 1.032-2.62.967l-1.228-.05-.049-.54c-.032-.295.066-.901.213-1.343l.279-.82h1.44c.803 0 1.556.05 1.703.099zm30.47-3.997c-.13.458-.245.983-.245 1.163 0 .164-.099.753-.23 1.31-.229.934-.474 2.114-.9 4.292-.164.918-.05 1.098.638 1.032.36-.049.426-.147.524-.868a8.68 8.68 0 0 1 .279-1.392c.098-.312.18-.77.18-1.016 0-.672.442-.82 2.374-.754.933.017 1.735.099 1.8.164.116.115-.032.885-.507 2.736-.245.966-.196 1.163.262 1.163.573 0 .819-.197.9-.786.099-.59.312-1.655.852-4.292.131-.672.36-1.688.491-2.244.279-1.13.213-1.36-.343-1.36-.557 0-.754.328-.934 1.573-.262 1.818-.31 1.867-2.456 1.867-2.112 0-2.128-.016-1.719-1.49.148-.525.262-1.18.262-1.459 0-.442-.049-.491-.491-.491s-.508.082-.737.852zm12.591 0c-.262.475-.557 1.015-.671 1.195-.098.18-.41.77-.688 1.311-.491.95-.966 1.851-2.129 3.899-.573 1.048-.573 1.425.033 1.425.475 0 .737-.295 1.31-1.523l.459-.934h1.62c.901 0 1.67.065 1.72.164.049.098.147.622.213 1.195.114.95.147 1.016.572 1.065.263.033.475-.032.525-.164.098-.245-.115-2.277-.394-3.734a61.607 61.607 0 0 1-.425-2.54c-.377-2.31-.328-2.211-1.048-2.211-.573 0-.655.065-1.097.852zm.982 1.392c.36 1.868.459 2.523.377 2.752-.082.18-.36.246-1.162.246-1.065 0-1.409-.164-1.114-.54.098-.115.475-.803.835-1.557.377-.737.753-1.343.819-1.343.082 0 .196.196.245.442zm8.138-2.031c-.099.13-.213.475-.262.786-.05.311-.213 1.114-.344 1.786-.147.671-.36 1.785-.508 2.457a52.66 52.66 0 0 1-.475 2.195c-.261 1.065-.18 1.31.443 1.212.425-.049.605-.491.966-2.424.098-.59.262-1.163.36-1.278.098-.115.54-.197 1.064-.197.77 0 .95.066 1.326.492.246.262.573.835.737 1.261.639 1.688.917 2.179 1.244 2.179.623 0 .819-.164.672-.54-.655-1.688-.9-2.229-1.245-2.687-.213-.279-.393-.557-.393-.59 0-.049.377-.23.819-.426 1.932-.835 2.243-3.473.508-4.21-.754-.311-4.65-.328-4.912-.016zm4.519 1.13c.425.393.475.836.18 1.49-.344.705-1.146.95-2.833.902-1.67-.05-1.555.065-1.26-1.59.081-.474.261-.933.376-1.015.131-.082.884-.147 1.686-.147 1.278 0 1.523.049 1.85.36zm18.747-1.065c-.164.312-.361 1.147-.77 3.326-.147.77-.376 1.835-.507 2.375-.115.54-.246 1.343-.262 1.802l-.05.82 2.898.048c2.489.033 2.915 0 3.16-.23.148-.147.246-.392.213-.54-.049-.229-.393-.262-2.456-.31-2.603-.05-2.734-.1-2.423-.951.098-.23.164-.655.164-.95 0-.311.098-.623.213-.721.131-.115 1.129-.213 2.423-.23l2.194-.048.049-.541.049-.524H115.3c-1.686 0-2.145-.05-2.21-.23-.049-.13.032-.704.18-1.277l.278-1.032 2.374-.082 2.374-.082v-.82l-2.816-.048c-2.554-.033-2.832-.017-2.963.245zm10.789.082c-.147.393-.311 1.163-.753 3.408-.147.77-.376 1.834-.491 2.375-.131.54-.262 1.31-.278 1.72-.049.72-.033.737.442.737.458 0 .491-.05.606-.786a7.06 7.06 0 0 1 .278-1.294c.098-.279.18-.705.18-.934 0-.246.082-.524.197-.639.294-.295 1.784-.246 2.243.066.376.262 1.326 2.145 1.555 3.046.066.295.246.492.508.557.556.148.949-.032.851-.393-.246-.802-.573-1.507-1.048-2.293-.295-.475-.54-.934-.54-1.032 0-.082.327-.311.72-.492 1.736-.77 2.178-3.08.77-4.03-.508-.343-.737-.376-2.833-.376-2.194 0-2.276.016-2.407.36zm4.536.885c.54.377.507 1.425-.082 1.966-.573.524-.835.573-2.505.524l-1.392-.05.016-.736c0-.41.131-1.016.279-1.36l.262-.606h1.522c1.13 0 1.638.065 1.9.262z" fill="#C94F49"/></svg>