<svg width="161" height="81" viewBox="0 0 161 81" fill="none" xmlns="http://www.w3.org/2000/svg"><path d="M37.434.477v49.447h-9.24V47.76a20.736 20.736 0 0 1-10.319 2.627 17.66 17.66 0 0 1-6.97-1.364 17.709 17.709 0 0 1-5.877-4.001 17.777 17.777 0 0 1-3.837-5.996 17.823 17.823 0 0 1-1.18-7.027c0-11.125 8.162-18.388 18.018-18.388a21.35 21.35 0 0 1 10.165 2.781V.477h9.24zm-9.086 38.63V24.891a13.37 13.37 0 0 0-8.625-2.936 10.133 10.133 0 0 0-7.487 2.818 10.227 10.227 0 0 0-3.139 7.38c0 6.027 4.466 10.2 10.626 10.2a13.218 13.218 0 0 0 8.47-3.246h.155zm24.738-4.456a9.875 9.875 0 0 0 3.563 5.91 9.759 9.759 0 0 0 6.544 2.105 11.27 11.27 0 0 0 5.016-1.1 11.343 11.343 0 0 0 4.019-3.216l5.819 4.778a19.466 19.466 0 0 1-7.11 5.523 19.342 19.342 0 0 1-8.816 1.72 17.513 17.513 0 0 1-7.026-1.267 17.603 17.603 0 0 1-5.95-3.97 17.737 17.737 0 0 1-3.894-6.02 17.83 17.83 0 0 1-1.2-7.083 17.98 17.98 0 0 1 1.245-7.056 17.885 17.885 0 0 1 3.899-5.997 17.758 17.758 0 0 1 5.925-3.974 17.664 17.664 0 0 1 7-1.313c10.873 0 17.152 7.86 17.152 18.957v2.003H53.086zm0-5.856h17.61c-.306-4.007-2.45-7.86-8.575-7.86a9.157 9.157 0 0 0-5.91 2.359 9.266 9.266 0 0 0-2.972 5.655l-.153-.154zM85.878.477h9.542v49.177h-9.542V.477zm55.05 31.561c0 10.178-8.645 18.35-19.451 18.35-10.806 0-19.451-8.172-19.451-18.35 0-10.177 8.645-18.35 19.451-18.35 10.806 0 19.451 8.173 19.451 18.35zm-8.954 0a10.484 10.484 0 0 0-6.262-9.904 10.505 10.505 0 0 0-11.542 2.072 10.486 10.486 0 0 0-2.961 5.362 10.486 10.486 0 0 0 10.268 12.648 10.356 10.356 0 0 0 7.359-2.917 10.336 10.336 0 0 0 3.138-7.26zm19.019 18.348a5.507 5.507 0 0 1-5.196-3.288 5.506 5.506 0 0 1 7.107-7.316 5.501 5.501 0 0 1 3.435 5.099 5.336 5.336 0 0 1-1.509 3.883 5.352 5.352 0 0 1-3.837 1.622zm-15.937 20.781c0 5.192-3.609 9.315-10.355 9.315s-10.197-4.123-10.197-9.315V57.728h4.549v12.37c0 4.276 1.883 6.261 5.648 6.261 3.765 0 5.648-1.985 5.648-6.261v-12.37h4.55l.157 13.439zm17.968 4.703h-10.247l-2.019 4.612h-4.968l10.868-22.754h2.485l10.868 22.754h-4.968l-2.019-4.612zm-8.539-3.844h6.987l-3.571-7.379-3.416 7.38z" fill="#fff"/></svg>