<svg width="174" height="61" viewBox="0 0 174 61" fill="none" xmlns="http://www.w3.org/2000/svg"><path d="M75.169.125h-9.302l-.188.437c.937.624 2.997 4.87 2.997 5.994v28.096l-.624 10.926h8.865a41.832 41.832 0 0 1-1.748-10.864V.124zm-14.36 0h-9.24l-.187.437c.937.624 2.934 4.87 2.934 5.994v28.096l-.624 10.926h8.866a41.832 41.832 0 0 1-1.748-10.864V.124zM39.334.062h-9.24l-.25.437c1.124 1.874 3.62 7.493 3.246 8.492l-9.614 27.097-9.365-23.975c-.624-1.561-2.123-9.116-2.497-12.05H.25L0 .498l5.619 11.614 13.86 33.34h3.247L35.96 8.616 39.333 0v.062zm1.373 40.646l-.187-.187 7.055-18.856h-9.24l-.25.5c.624.749 1.873 2.684 1.498 3.746l-5.681 14.797c-1.061 2.685.25 5.12 2.934 5.12 2.685 0 4.808-1.81 6.868-3.684l4.183-3.746-.999-1.373s-4.995 3.059-6.243 3.683h.062zm5.62-30.968a4.682 4.682 0 0 0-4.746 4.683c0 2.247 1.124 3.746 3.746 3.746 2.685 0 4.62-2.31 4.62-4.745 0-2.31-1.498-3.684-3.62-3.684zm101.702 9.053c2.934 0 4.37 3.372 4.807 7.243l-9.365 2.185c0-5.62 1.561-9.365 4.558-9.365v-.063zm24.723 10.302c-1.685 0-3.933 1.561-4.807 2.56v.437c1.249 1.249 2.872 3.497 3.247 4.87-1.749 2.997-6.931 5.807-12.799 5.807-9.365 0-14.36-4.433-14.859-12.8 4.245-.5 12.923-1.373 15.733-1.436 0-7.492-3.059-12.05-10.114-12.05-7.305 0-12.362 6.056-12.362 14.485 0 10.24 6.368 17.295 17.856 17.295 9.365 0 19.354-6.243 19.354-14.922 0-1.249-.375-3.372-1.249-4.183v-.063zm-49.696 27.91c-4.558 0-9.802-.937-9.802-4.496 0-1.312.999-2.872 1.998-3.934h10.926c3.558 0 4.869.812 4.869 2.31 0 2.06-3.558 4.87-7.991 6.12zm-4.058-38.4c3.371 0 4.807 4.933 4.807 9.99 0 4.122-1.061 7.493-3.808 7.493-3.684 0-4.808-5.307-4.808-10.177 0-4.058 1.124-7.305 3.809-7.305zm9.115 23.477h-13.486c.313-1.124.999-2.747 1.873-4.059.812.125 1.624.188 2.498.188 7.055 0 11.862-4.058 11.862-11.738 0-1.936-.437-3.684-1.249-5.12l6.244.75V16.92c-1.873.874-5.932 2.248-7.617 2.685a11.549 11.549 0 0 0-8.616-3.247c-7.492 0-11.675 4.745-11.675 11.239 0 5.182 2.685 8.553 6.618 9.927-2.372 2.248-5.244 5.62-6.555 8.741.499 1.686 2.185 2.248 5.306 2.31-2.872 1.873-4.994 3.746-4.994 6.431 0 3.559 3.995 5.994 11.238 5.994 6.68-1.374 16.794-8.366 16.794-13.549 0-3.496-3.059-5.307-8.116-5.307l-.125-.062zM105.137 4.995c.874 0 1.123.75 1.248 1.998l-2.684.624c0-1.498.312-2.685 1.436-2.685v.063zm3.995 5.557l-.562-.437a4.365 4.365 0 0 1-2.559 1.061c-1.686 0-2.185-1.249-2.248-2.872l4.807-.312c-.062-2.373-1.248-3.871-3.308-3.871-2.373 0-3.934 1.623-3.934 4.495 0 2.498 1.436 4.37 3.996 4.37 1.686 0 2.872-.998 3.746-2.497l.062.063zm-25.347-9.49h1.685V8.99c0 .936-.124 2.997-.312 3.746h3.31c-.313-.812-.375-2.622-.375-3.746V.999h1.623c.624 0 1.748.624 2.497 1.061v8.117l-.187 2.498h3.059c-.25-.687-.437-1.811-.437-2.56V6.368c.624-.374 1.061-.624 1.56-.624 1.437 0 1.437 1 1.437 2.373v4.62h2.809c-.187-.5-.374-1.81-.374-2.56V6.993c0-1.748-.937-2.997-2.623-2.997-1.31 0-2.122.75-2.809 1.56V0H80.726v2.81h.25c.936-.75 2.372-1.749 2.809-1.749zm11.55 38.21c-1 1.311-2.497 2.435-3.871 2.435-2.248 0-3.434-1.748-3.434-3.996 0-2.56 1.436-3.995 3.621-5.12 1.499-.811 3.122-1.873 3.684-2.497v9.24-.062zm6.618-15.359c0-5.057-4.37-7.555-9.428-7.555-5.057 0-11.175 3.809-11.175 8.866 0 1 .187 1.873.437 2.498 1.873 0 5.37-1.312 6.368-2.31-.125-3.497.25-5.37.562-5.994.5-.375 1.249-.625 2.435-.625 2.56 0 4.183 2.81 4.183 6.306v2.373c-1 1.061-2.373 1.873-4.12 2.747-6.057 2.934-10.24 4.683-10.24 9.615 0 3.372 1.748 6.244 6.493 6.244 3.372 0 6.243-2.498 7.867-4.433v3.87h7.991a23.4 23.4 0 0 1-1.373-8.178V23.913z" fill="#fff"/></svg>