<svg width="127" height="71" viewBox="0 0 127 71" fill="none" xmlns="http://www.w3.org/2000/svg"><path d="M.008 1.71C.008.774.782 0 1.726 0h123.186c.952 0 1.718.766 1.718 1.71v57.36c0 .937-.774 1.71-1.726 1.71H22.721c-.952 0-2.43.333-3.281.751L1.563 70.075c-.867.41-1.563-.023-1.563-.96V1.71h.008z" fill="#fff"/><path d="M64.805 35.97a3.668 3.668 0 1 0 0-7.336 3.668 3.668 0 0 0 0 7.336zm-33.37-1.316c0 1.626-.596 2.88-1.788 3.754-1.191.874-2.801 1.315-4.82 1.315h-6.95V21.336h6.771c1.81 0 3.266.418 4.365 1.261 1.099.844 1.648 2.02 1.648 3.545 0 1.818-.828 3.157-2.484 4.016 1.06.441 1.873.99 2.43 1.672.557.673.836 1.578.836 2.716v.108h-.008zm-4.527-7.878c0-1.385-.852-2.074-2.562-2.074h-2.794v4.18h2.616c1.827-.009 2.74-.705 2.74-2.106zm.758 7.46c0-1.47-.952-2.205-2.848-2.205h-3.266v4.334h3.375c.874 0 1.547-.178 2.027-.542.472-.356.712-.89.712-1.587zm10.401 5.487h-3.76V21.336h3.76v18.387zM53.7 24.857h-4.55v14.866h-3.793V24.857h-4.574v-3.521h12.909v3.521h.008zm35.853 7.808c0 2.453-.619 4.31-1.857 5.572-1.238 1.261-2.933 1.888-5.092 1.888-2.16 0-3.854-.627-5.084-1.88-1.23-1.254-1.842-3.088-1.842-5.503V21.475h3.76v11.29c0 1.277.28 2.245.837 2.887.557.65 1.338.975 2.352.975 1.014 0 1.796-.317 2.353-.96.557-.642.836-1.578.836-2.824V21.467h3.737v11.198zm18.736 7.197h-3.893l-1.362-3.993h-6.268l-1.362 3.993h-3.792l6.532-18.488h3.606l6.539 18.488zm-6.408-7.351l-1.989-5.99-2.012 5.99h4.001z" fill="#000"/></svg>