<svg width="106" height="70" viewBox="0 0 106 70" fill="none" xmlns="http://www.w3.org/2000/svg"><path d="M.682.714h18.94v25.578h24.31V.714h18.942v68.342H43.932V43.088h-24.31v25.968H.682V.714z" fill="#fff"/><path d="M91.602 33.324c6.052-2.636 10.545-7.323 10.545-15.23 0-4.884-1.66-8.497-4.396-11.228C93.75 2.86 87.698.714 79.103.714H44.055v68.343H79.3c16.306 0 25.871-7.128 25.871-18.844 0-9.468-5.27-14.157-13.57-16.889zM77.154 53.826H62.507V41.23h.348V27.954h-.348V15.945h12.305c5.661 0 8.591 2.148 8.591 5.858 0 4.2-3.223 6.151-8.984 6.151h-7.635v13.277h10.174c6.346 0 9.274 2.442 9.274 6.154 0 4.197-3.319 6.44-9.078 6.44z" fill="#fff"/></svg>