<svg width="273" height="40" viewBox="0 0 273 40" fill="none" xmlns="http://www.w3.org/2000/svg"><path fill-rule="evenodd" clip-rule="evenodd" d="M252 .516c0 1.283 1.482 3.857 2.667 4.634.718.47 2.398 1.089 3.734 1.375 3.411.732 7.36-.579 8.962-2.974C269.274.696 268.957 0 265.75 0c-2.092 0-2.75.176-2.75.739 0 1.098-2.091 2.274-3.424 1.925-.634-.165-1.355-.833-1.602-1.483C257.576.137 257.206 0 254.762 0 253.197 0 252 .224 252 .516zM0 18.637c0 12.198.447 14.666 3.111 17.196C5.828 38.41 7.511 39 12.1 38.989c4.975-.013 7.498-.982 9.787-3.76 2.209-2.68 2.613-5.313 2.613-17.026V7.956l-3.625.147-3.625.147L17 19.42l-.25 11.168-1.403 1.206c-1.854 1.595-4.34 1.595-6.194 0L7.75 30.588 7.5 19.42 7.25 8.25l-3.625-.147L0 7.956v10.681zM36.235 8.382c-.45.322-9.777 29.262-9.747 30.243.006.206 1.663.375 3.68.375h3.67l2.621-9.125 3.161-11.003c.297-1.033.627-1.793.732-1.687.105.105 1.53 4.85 3.167 10.546 1.636 5.695 3.102 10.56 3.258 10.812.46.745 7.376.581 7.099-.168-.127-.343-2.205-6.925-4.617-14.625-2.413-7.7-4.591-14.394-4.84-14.875-.37-.712-1.127-.873-4.061-.867-1.984.004-3.84.173-4.123.375zM83.5 23.5V39H91V14.5h11V39h7.5V8h-26v15.5zm33 0V39H136v-6.5h-12v-5.462l4.625-.144 4.625-.144.149-3.125.149-3.125H124v-6h11.5V8h-19v15.5zm25-.044V39h8v-9.5l3.625-.011c7.775-.024 11.765-4.189 11.282-11.778-.161-2.527-.51-3.625-1.68-5.281-2.537-3.591-4.264-4.154-13.352-4.349l-7.875-.169v15.544zm27.5.022V39h38V8h-7.5v25h-7.482l-.135-12.375-.133-12.375h-7.5l-.133 12.375L183.982 33h-7.464l-.135-12.375-.133-12.375-3.625-.147L169 7.956v15.522zm45 .022V39h7.781l3.462-5.875c1.905-3.232 4.374-7.459 5.486-9.395l2.021-3.52-.172 9.395-.172 9.395H240V8h-7.48l-5.235 8.875a5906.507 5906.507 0 0 1-5.635 9.54c-.22.367-.335-3.627-.254-8.874L221.542 8H214v15.5zm33-.022V39l3.875-.019 3.875-.018L258 33.41a625.108 625.108 0 0 0 5.368-9.356l2.119-3.804.006 9.375L265.5 39h7.5V7.958l-3.842.146-3.843.146-3.486 5.75c-1.917 3.163-4.408 7.465-5.537 9.561l-2.052 3.812.005-9.562.005-9.561-3.625-.147L247 7.956v15.522zM59.382 10.782c-1.502.816-2.882 3.075-2.882 4.718 0 1.467 1.325 3.871 2.472 4.485.53.284 1.895.515 3.033.515 2.991 0 4.995-2.07 4.995-5.16 0-1.934-.239-2.446-1.767-3.788-1.956-1.717-3.687-1.944-5.852-.77zm96.485 4.871c.39.39.826 1.584.969 2.653.2 1.502.013 2.256-.824 3.319-.945 1.198-1.434 1.375-3.798 1.375H149.5v-8.64l2.829.292c1.556.16 3.148.611 3.538 1.002zM59.382 25.758c-1.507.845-2.882 3.108-2.882 4.742 0 1.871 1.508 4.054 3.326 4.814C63.288 36.761 67 34.239 67 30.441c0-3.851-4.343-6.52-7.618-4.683z" fill="#fff"/></svg>