<svg width="174" height="40" viewBox="0 0 174 40" fill="none" xmlns="http://www.w3.org/2000/svg"><path d="M56.169 3.616c0-1.022.408-1.847 1.217-2.46A4.359 4.359 0 0 1 60.109.23c1.055 0 1.974.297 2.757.893.783.596 1.175 1.43 1.175 2.494 0 1.157-.4 2.06-1.192 2.697-.791.647-1.736.97-2.825.97-1.072 0-1.983-.331-2.732-.987-.749-.655-1.123-1.549-1.123-2.68zM46.059 35.01H45.3v3.336h.758V35.01zm9.701 1.923h-1.234v.791h1.379v.622h-2.128V35.01h2.051v.621h-1.302v.69h1.234v.612zm5.592 0h-1.226v.791h1.37v.622H59.37V35.01h2.059v.621h-1.302v.69h1.226v.612zm9.727 0h-1.234v.791h1.378v.622h-2.127V35.01h2.05v.621h-1.301v.69h1.234v.612zm9.174 0h-1.226v.791h1.37v.622H78.27V35.01h2.05v.621h-1.293v.69h1.226v.612zm25.624-1.923h-.757v3.336h.757V35.01zm1.311.638h-.894v-.638h2.562v.638h-.911v2.698h-.757v-2.698zm7.752 0h-.893v-.638h2.561v.638h-.91v2.698h-.758v-2.698zm11.796 0h-.894v-.638h2.562v.638h-.911v2.698h-.757v-2.698zM11.677 18.108v6.128c0 .366-.034.663-.093.893.034.783.11 1.387.23 1.796.118.408.357.732.714.97.358.238.945.417 1.745.545.927.11 1.387.425 1.387.936 0 .604-.34.893-1.03.893-.638 0-1.753-.025-3.344-.085a99.952 99.952 0 0 0-3.549-.085c-.528 0-1.574.026-3.123.085-1.55.06-2.647.085-3.277.085-.332 0-.604-.05-.808-.161-.204-.102-.307-.35-.307-.732 0-.306.12-.536.366-.698a1.5 1.5 0 0 1 .843-.238c.868-.12 1.498-.298 1.89-.536.39-.239.646-.57.757-.988.11-.417.17-1.012.17-1.787V7.445c0-1.209-.145-2.051-.443-2.528-.29-.476-.995-.791-2.11-.953-.485-.06-.86-.144-1.107-.255-.246-.12-.366-.332-.366-.638 0-.383.086-.622.247-.707.17-.093.434-.136.775-.136.936 0 2.153.034 3.659.102 1.506.068 2.604.102 3.276.102.911 0 1.983-.034 3.209-.102a59.483 59.483 0 0 1 3.234-.102c.68 0 1.03.272 1.03.8 0 .298-.086.502-.264.604-.18.111-.494.213-.954.324-.936.161-1.59.366-1.957.621-.366.255-.596.63-.68 1.132-.086.502-.128 1.379-.128 2.63v5.693c0 .204-.034.366-.094.493.068.23.153.35.272.35.111 0 .511-.281 1.209-.843.28-.298.766-.792 1.447-1.472.68-.681 1.327-1.337 1.948-1.958.613-.621 1.77-1.83 3.473-3.617 1.106-1.166 1.66-1.94 1.66-2.331 0-.477-.435-.715-1.303-.715-.68-.068-1.174-.153-1.472-.256-.298-.11-.451-.366-.451-.757 0-.323.093-.528.28-.604.188-.077.503-.12.928-.12h11.08c.656 0 .988.213.988.63 0 .74-.817 1.107-2.46 1.107-1.88 0-3.497.612-4.868 1.838l-4.646 4.298C18.553 11.18 18 11.913 18 12.27c0 .29.213.63.63 1.03l10.366 12.127c1.072 1.302 1.795 2.094 2.178 2.374.323.264.775.426 1.362.503.587.076.962.136 1.123.195.162.06.247.29.247.69 0 .715-.613 1.072-1.83 1.072-.69 0-1.77-.026-3.234-.085a85.96 85.96 0 0 0-3.25-.085c-.673 0-1.694.025-3.047.085-1.353.06-2.35.085-2.979.085-.808 0-1.208-.357-1.208-1.064 0-.323.102-.536.306-.655.204-.12.494-.204.877-.256.374-.05.655-.11.834-.187.178-.076.272-.23.272-.468a1.09 1.09 0 0 0-.145-.527 3.627 3.627 0 0 0-.442-.58 38.837 38.837 0 0 1-.579-.637l-6.332-7.872c-.595-.724-1.012-1.124-1.25-1.209-.128 0-.23.264-.315.809.06.127.093.289.093.493z" fill="#fff"/><path d="M31.863 15.258c-.476-.978-.902-1.744-1.268-2.297-.365-.562-.663-.937-.91-1.132-.247-.196-.502-.315-.766-.34a8.304 8.304 0 0 0-.715-.069c-.868-.179-1.302-.527-1.302-1.03 0-.476.494-.723 1.472-.723h11.26c1.046 0 1.574.238 1.574.723 0 .417-.247.69-.724.826-.485.136-.97.272-1.455.4-.485.136-.732.408-.732.825 0 .281.239.92.724 1.924l3.31 7.02c.06.069.162.239.306.503.145.263.273.46.375.595.102.137.204.205.306.205.205 0 .383-.162.536-.485.154-.324.29-.622.4-.902l2.987-6.75c.332-.731.503-1.31.503-1.744 0-.493-.17-.825-.494-1.004-.332-.17-.817-.29-1.455-.357-.639-.068-1.098-.154-1.388-.273-.289-.119-.433-.374-.433-.774 0-.477.51-.723 1.523-.723h7.642c.468 0 .774.042.936.127.153.085.238.281.238.596 0 .604-.4.953-1.208 1.03-.715.068-1.234.17-1.557.323-.324.153-.681.545-1.073 1.166-.391.63-.978 1.753-1.744 3.379l-6.57 13.837c-.051.128-.477 1.157-1.285 3.072-.809 1.924-1.243 3.004-1.31 3.243-.392 1.174-.665 1.94-.818 2.272-.153.332-.425.587-.834.757-.4.17-1.072.256-2.017.256-1.327 0-2.306-.162-2.953-.477-.647-.315-.97-.979-.97-1.983 0-1.872.792-2.876 2.366-3.02.774.118 1.455.178 2.05.178.758 0 1.465-.307 2.111-.928.647-.613.98-1.31.98-2.068 0-.647-.299-1.455-.895-2.417l-6.723-13.76zm25.021 2.187v-.808c0-.732-.128-1.303-.383-1.711-.256-.4-.8-.621-1.626-.664a.608.608 0 0 0-.272.085c-.375-.076-.639-.153-.817-.255-.17-.094-.255-.298-.255-.596 0-.272.153-.476.46-.613.305-.127.79-.28 1.463-.459.936-.179 1.983-.562 3.123-1.132 1.14-.57 2.026-1.208 2.647-1.898.502-.51 1.03-.766 1.574-.766.273 0 .451.12.553.358.102.238.154.664.154 1.293v13.779c0 .834-.026 1.446-.086 1.83.026.671.069 1.148.137 1.446.068.298.187.502.366.63.17.127.442.221.817.272.374.051.842.12 1.412.187.332.034.579.145.758.34.178.188.263.358.263.511 0 .596-.46.894-1.387.894H54.603c-.953 0-1.43-.298-1.43-.894 0-.349.136-.587.409-.706.272-.12.672-.204 1.2-.238.527-.034.927-.094 1.208-.18a.72.72 0 0 0 .536-.527c.238-.519.358-1.719.358-3.582v-6.596zm11.752-2.825c-.485-1.03-.834-1.728-1.046-2.086-.213-.357-.469-.63-.784-.817-.306-.178-.774-.315-1.387-.4-.4-.06-.672-.136-.817-.23-.144-.093-.212-.289-.212-.578 0-.57.493-.851 1.472-.851h11.174c.927 0 1.387.272 1.387.808 0 .358-.12.587-.366.698-.247.11-.621.187-1.14.238-.52.051-.902.137-1.158.256-.255.119-.383.374-.383.774 0 .145.068.391.196.749.128.349.23.647.298.868l3.174 7.149c.332.868.588 1.302.766 1.302.23 0 .468-.375.706-1.124l2.375-5.276c.69-1.515 1.03-2.562 1.03-3.132-.086-.885-.758-1.404-2.017-1.557-.545-.068-.928-.145-1.15-.239-.22-.093-.323-.306-.323-.655 0-.57.375-.85 1.124-.85h7.872c.86 0 1.293.272 1.293.808 0 .46-.34.774-1.03.936-1.03.145-1.684.306-1.99.468-.299.17-.648.68-1.048 1.54l-7.335 15.293c-.417.792-.732 1.294-.945 1.515-.213.213-.604.323-1.166.323-.306 0-.562-.025-.757-.085a.949.949 0 0 1-.468-.28c-.111-.128-.247-.358-.392-.698-.145-.34-.247-.57-.306-.681l-6.647-14.187z" fill="#fff"/><path d="M99.588 13.964c0 .928.094 1.455.272 1.575.545.382 1.353.578 2.409.578 1.208 0 2.187-.298 2.953-.893a4.992 4.992 0 0 0 1.642-2.298 8.575 8.575 0 0 0 .502-2.91c0-1.66-.485-3.081-1.455-4.273-.97-1.191-2.247-1.787-3.812-1.787-.979 0-1.643.264-1.992.791-.349.528-.519 1.311-.519 2.358v6.859zm0 4.68v5.592c0 1.08.043 1.872.128 2.349.085.485.315.876.689 1.183.374.297.996.527 1.872.672.928.11 1.387.425 1.387.936 0 .596-.34.894-1.029.894-.639 0-1.753-.026-3.345-.085-1.591-.06-2.774-.085-3.549-.085-.527 0-1.574.025-3.123.085-1.549.06-2.647.085-3.276.085-.332 0-.605-.051-.809-.162-.204-.102-.306-.349-.306-.74 0-.307.119-.537.366-.698a1.48 1.48 0 0 1 .842-.239c.868-.119 1.498-.297 1.89-.536a1.62 1.62 0 0 0 .757-.987c.11-.417.17-1.013.17-1.787V7.445c0-.868-.05-1.515-.153-1.949a1.622 1.622 0 0 0-.69-1.004c-.357-.238-.927-.417-1.71-.536-.553-.068-.936-.145-1.149-.23-.212-.076-.323-.272-.323-.578 0-.622.34-.937 1.03-.937.893 0 1.914.034 3.046.103 1.132.068 2.043.093 2.732.093 1.472 0 3.123-.034 4.97-.093a128.95 128.95 0 0 1 4.647-.103c1.608 0 2.91.103 3.914.298a8.55 8.55 0 0 1 2.894 1.175c2.323 1.463 3.48 3.565 3.48 6.314a9.355 9.355 0 0 1-1.072 4.12c-.672 1.318-1.676 2.4-3.004 3.242-1.328.842-2.936 1.268-4.817 1.268-.774 0-1.446-.06-2.008-.188a35.718 35.718 0 0 1-2.179-.553c-.885-.247-1.472-.366-1.761-.366-.307 0-.494.196-.58.579.043.136.069.315.069.545zm21.607.001c0 1.634.239 3.25.707 4.85.468 1.6 1.149 2.91 2.034 3.932.885 1.03 1.932 1.549 3.123 1.549 1.455 0 2.638-.749 3.532-2.238.902-1.498 1.344-3.549 1.344-6.162 0-1.77-.255-3.42-.774-4.961-.519-1.54-1.217-2.757-2.102-3.66-.885-.902-1.847-1.353-2.902-1.353-.945 0-1.787.332-2.536.996-.749.664-1.345 1.608-1.779 2.842-.434 1.226-.647 2.63-.647 4.205zm-7.25 1.165c0-2.067.604-3.914 1.804-5.548 1.2-1.634 2.783-2.894 4.732-3.796a14.525 14.525 0 0 1 6.118-1.344c1.805 0 3.473.272 4.996.817 1.523.544 2.834 1.293 3.94 2.255a10.119 10.119 0 0 1 2.562 3.319c.604 1.26.91 2.57.91 3.932 0 2.17-.604 4.093-1.804 5.76-1.208 1.678-2.783 2.971-4.723 3.873a14.302 14.302 0 0 1-6.127 1.362c-2.094 0-4.085-.4-5.983-1.2-1.898-.8-3.447-2.009-4.63-3.626-1.208-1.608-1.795-3.54-1.795-5.804zm26.203 5.133c.076-.613.153-1.021.247-1.234.093-.213.366-.323.825-.323.4 0 .757.28 1.072.825.315.553.707 1.234 1.166 2.034a5.78 5.78 0 0 0 1.856 1.966c.774.51 1.829.757 3.157.757.596 0 1.234-.102 1.915-.306a4.497 4.497 0 0 0 1.736-.962c.485-.434.723-.979.723-1.642 0-.817-.315-1.464-.936-1.958-.621-.493-1.549-.944-2.783-1.344-1.753-.57-2.987-.979-3.693-1.234-.707-.255-1.49-.63-2.358-1.14a6.779 6.779 0 0 1-2.119-1.881c-.544-.75-.817-1.626-.817-2.63 0-1.217.409-2.34 1.226-3.379.817-1.038 1.915-1.855 3.285-2.46 1.378-.603 2.868-.901 4.476-.901 1.804 0 3.881.272 6.213.808.612.179.978.35 1.106.51.128.154.187.563.187 1.226V12.8c-.068.4-.145.834-.247 1.302-.102.468-.332.706-.689.706-.417 0-.936-.34-1.557-1.03-.758-1.03-1.268-1.685-1.524-1.982-.255-.298-.638-.554-1.14-.775-.502-.221-1.166-.332-2-.332-1.047 0-1.923.204-2.621.604s-1.047.988-1.047 1.77c0 .843.349 1.422 1.047 1.728.698.315 2.187.826 4.459 1.558 2.272.731 3.949 1.557 5.038 2.468 1.09.91 1.626 2.23 1.626 3.948 0 1.336-.392 2.604-1.175 3.796-.774 1.191-1.949 2.153-3.523 2.885-1.574.732-3.481 1.098-5.727 1.098-2.519 0-4.613-.443-6.272-1.345-.502-.255-.834-.528-1.005-.817-.161-.29-.246-.791-.246-1.506l.119-1.932zm27.675-11.362v7.438c0 1.26.043 2.323.145 3.174.093.851.298 1.54.612 2.068.315.528.783.792 1.405.792a2.71 2.71 0 0 0 1.183-.256 9.97 9.97 0 0 0 1.14-.663c.408-.273.698-.409.859-.409a.53.53 0 0 1 .375.17.63.63 0 0 1 .17.451c0 .409-.332.945-.987 1.626-.664.68-1.523 1.276-2.604 1.787a7.91 7.91 0 0 1-3.438.774c-1.685 0-3.021-.57-4.017-1.71-.996-1.14-1.489-2.851-1.489-5.14v-9.438c0-1.09-.06-1.77-.188-2.026-.119-.255-.459-.391-1.012-.391-.366 0-.698.025-.996.085-.621-.11-.936-.315-.936-.621 0-.239.11-.443.323-.604.221-.162.57-.366 1.064-.596 2.842-1.124 4.825-2.732 5.957-4.817.528-.979 1.047-1.472 1.566-1.472.477 0 .723.323.723.978v3.754c0 .57.043.91.128 1.038.085.119.357.212.817.263.179-.068.357-.102.536-.102h2.962c.374 0 .638.051.774.154.136.102.204.332.204.689 0 .596-.085.944-.263 1.064-.179.119-.613.178-1.311.178h-2.187c-.545 0-.911.026-1.089.077-.179.051-.29.179-.332.391-.077.222-.094.647-.094 1.294zM46.782 38.346V35.01h.885l.69 1.225c.195.35.39.766.544 1.14h.017a12.065 12.065 0 0 1-.068-1.395v-.97h.69v3.336h-.792l-.715-1.285a12.546 12.546 0 0 1-.579-1.175l-.017.009c.017.442.034.91.034 1.455v1.004h-.69v-.008zm4.238-.57c.068.017.17.017.264.017.68.008 1.132-.375 1.132-1.166.008-.69-.4-1.055-1.047-1.055-.17 0-.272.017-.34.034v2.17h-.009zm-.749-2.724a7.14 7.14 0 0 1 1.021-.068c.63 0 1.047.111 1.37.358.35.255.562.672.562 1.26 0 .638-.23 1.08-.553 1.353-.349.289-.885.434-1.54.434-.392 0-.673-.026-.86-.052v-3.285zm6.987 1.515c.068.017.145.017.255.017.4 0 .647-.204.647-.544 0-.307-.213-.494-.587-.494-.153 0-.255.017-.315.034v.987zm-.749-1.514c.23-.043.562-.069 1.021-.069.468 0 .8.085 1.022.264.212.17.357.443.357.775 0 .323-.11.604-.306.791-.256.238-.639.349-1.081.349-.102 0-.187 0-.255-.017v1.191h-.75v-3.285h-.008zm5.591 3.293V35.01h.885l.69 1.225c.196.35.391.766.544 1.14h.017a12.065 12.065 0 0 1-.068-1.395v-.97h.69v3.336h-.792l-.715-1.285a12.546 12.546 0 0 1-.578-1.175l-.017.009c.017.442.034.91.034 1.455v1.004h-.69v-.008zm4.247-.57c.06.017.17.017.264.017.68.008 1.132-.375 1.132-1.166.008-.69-.4-1.055-1.047-1.055-.17 0-.281.017-.34.034v2.17h-.01zm-.757-2.724c.28-.042.638-.068 1.02-.068.63 0 1.047.111 1.362.358.35.255.562.672.562 1.26 0 .638-.23 1.08-.553 1.353-.349.289-.885.434-1.54.434a6.38 6.38 0 0 1-.86-.052v-3.285h.008zm6.238 3.294V35.01h.885l.689 1.225c.196.35.4.766.545 1.14h.017a12.088 12.088 0 0 1-.068-1.395v-.97h.689v3.336h-.792l-.714-1.285a12.521 12.521 0 0 1-.58-1.175l-.016.009c.025.442.034.91.034 1.455v1.004h-.69v-.008zm5.914-.094c-.136.069-.45.145-.86.145-1.148 0-1.744-.723-1.744-1.668 0-1.14.808-1.77 1.821-1.77.392 0 .69.077.817.145l-.153.595a1.55 1.55 0 0 0-.63-.127c-.595 0-1.063.357-1.063 1.106 0 .664.4 1.09 1.072 1.09.23 0 .485-.052.63-.111l.11.595zm3.66.145c-.256 0-.434-.195-.434-.45 0-.273.178-.46.442-.46s.443.187.443.46a.429.429 0 0 1-.451.45zm4.28-.145c-.136.069-.45.145-.86.145-1.148 0-1.744-.723-1.744-1.668 0-1.14.809-1.77 1.821-1.77.392 0 .69.077.817.145l-.153.595a1.55 1.55 0 0 0-.63-.127c-.604 0-1.064.357-1.064 1.106 0 .664.4 1.09 1.073 1.09.23 0 .476-.052.63-.111l.11.595zm1.09-1.565c0 .655.306 1.114.808 1.114.51 0 .8-.485.8-1.132 0-.595-.29-1.114-.808-1.114-.503 0-.8.485-.8 1.132zm2.408-.043c0 1.09-.664 1.753-1.643 1.753-.987 0-1.565-.749-1.565-1.693 0-.996.638-1.745 1.625-1.745 1.03 0 1.583.766 1.583 1.685zm3.353.426c-.017-.4-.034-.886-.034-1.37h-.017a14.36 14.36 0 0 1-.374 1.293l-.4 1.302h-.588l-.357-1.285c-.11-.392-.221-.868-.298-1.31h-.008c-.017.45-.035.96-.06 1.378l-.06 1.268h-.698l.213-3.336h1.004l.324 1.115c.102.383.204.8.28 1.191h.018c.093-.383.204-.826.315-1.2l.357-1.106h.987l.179 3.336h-.74l-.043-1.277zm4.255 0a32.7 32.7 0 0 1-.034-1.37h-.017a17.81 17.81 0 0 1-.374 1.293l-.409 1.302h-.587l-.358-1.285c-.11-.392-.22-.868-.306-1.31h-.008c-.026.45-.034.96-.06 1.378l-.06 1.268h-.697l.212-3.336h1.005l.323 1.115c.102.383.204.8.28 1.191h.018c.093-.383.204-.826.315-1.2l.357-1.106h.987l.179 3.336h-.74l-.026-1.277zm2.162-2.06v1.923c0 .57.221.868.604.868.391 0 .613-.28.613-.868V35.01h.749v1.872c0 1.03-.52 1.523-1.388 1.523-.842 0-1.336-.468-1.336-1.532V35.01h.758zm2.68 3.336V35.01h.885l.69 1.225c.196.35.4.766.544 1.14h.017a12.164 12.164 0 0 1-.059-1.395v-.97h.689v3.336h-.791l-.715-1.285a12.547 12.547 0 0 1-.579-1.175l-.017.009c.026.442.034.91.034 1.455v1.004h-.698v-.008zm8.553 0v-1.362l-1.055-1.965h.859l.341.8c.102.246.17.425.255.638h.009c.076-.205.153-.4.255-.639l.34-.8h.843l-1.098 1.95v1.387h-.749v-.009zm2.289.051c-.255 0-.434-.195-.434-.45 0-.273.179-.46.443-.46s.443.187.443.46a.43.43 0 0 1-.452.45zm5.311-1.907h.298c.374 0 .595-.187.595-.476 0-.306-.204-.46-.553-.468-.178 0-.289.017-.34.026v.919zm-.749-1.438a6.317 6.317 0 0 1 1.004-.068c.494 0 .843.077 1.081.264.196.153.306.392.306.698 0 .425-.306.715-.587.817v.017c.23.094.358.315.443.621.102.375.204.809.272.936h-.774c-.051-.102-.128-.366-.23-.774-.094-.417-.23-.528-.536-.536h-.23v1.31h-.749v-3.285zm3.727-.042v1.923c0 .57.222.868.605.868.4 0 .612-.28.612-.868V35.01h.749v1.872c0 1.03-.519 1.523-1.387 1.523-.842 0-1.336-.468-1.336-1.532V35.01h.757zm2.664 2.562c.204.102.519.204.834.204.349 0 .528-.145.528-.358 0-.204-.162-.323-.562-.468-.553-.195-.919-.502-.919-.987 0-.57.477-1.004 1.26-1.004.374 0 .655.077.851.17l-.171.604a1.546 1.546 0 0 0-.698-.161c-.323 0-.485.144-.485.323 0 .213.188.306.622.468.587.213.868.528.868.996 0 .561-.434 1.038-1.345 1.038-.383 0-.757-.102-.945-.204l.162-.621z" fill="#fff"/></svg>