<svg width="357" height="60" viewBox="0 0 357 60" fill="none" xmlns="http://www.w3.org/2000/svg"><path d="M7.369 20.69c3.838 0 6.95-3.117 6.95-6.962 0-3.846-3.112-6.963-6.95-6.963-3.839 0-6.95 3.117-6.95 6.963 0 3.845 3.111 6.963 6.95 6.963zm0 36.421c3.838 0 6.95-3.117 6.95-6.963 0-3.845-3.112-6.963-6.95-6.963-3.839 0-6.95 3.118-6.95 6.963 0 3.846 3.111 6.963 6.95 6.963zm0-18.211c3.838 0 6.95-3.117 6.95-6.963 0-3.845-3.112-6.962-6.95-6.962-3.839 0-6.95 3.117-6.95 6.962 0 3.846 3.111 6.963 6.95 6.963zM25.01 57.111c3.839 0 6.95-3.117 6.95-6.963 0-3.845-3.111-6.963-6.95-6.963-3.838 0-6.95 3.118-6.95 6.963 0 3.846 3.112 6.963 6.95 6.963zm0-18.211c3.839 0 6.95-3.117 6.95-6.963 0-3.845-3.111-6.962-6.95-6.962-3.838 0-6.95 3.117-6.95 6.962 0 3.846 3.112 6.963 6.95 6.963zm0-18.21c3.839 0 6.95-3.117 6.95-6.962 0-3.846-3.111-6.963-6.95-6.963-3.838 0-6.95 3.117-6.95 6.963 0 3.845 3.112 6.963 6.95 6.963zM42.92 38.9c3.838 0 6.95-3.117 6.95-6.963 0-3.845-3.112-6.962-6.95-6.962-3.839 0-6.95 3.117-6.95 6.962 0 3.846 3.111 6.963 6.95 6.963zm0-18.21c3.838 0 6.95-3.117 6.95-6.962 0-3.846-3.112-6.963-6.95-6.963-3.839 0-6.95 3.117-6.95 6.963 0 3.845 3.111 6.963 6.95 6.963zM66.709 7.834h10.96v2.946h-7.752v18.478h-3.208V7.834zm263.025 0h5.882v21.424h-3.208V11.315h-2.674V7.834zM80.074 37.292V7.834h2.94v2.678c.802-1.072 1.337-1.875 2.406-2.41.802-.536 1.871-.804 3.208-.804 1.604 0 2.94.536 4.277 1.34 1.336 1.07 2.138 2.142 2.673 4.016.534 1.607 1.069 3.481 1.069 5.624 0 2.142-.267 4.285-1.07 5.892-.801 1.874-1.603 3.213-2.94 4.016-1.336.804-2.673 1.34-4.276 1.34-1.07 0-2.139-.268-2.94-.804-.803-.536-1.605-1.071-2.14-1.875v10.445h-3.207zm2.673-18.746c0 2.678.535 4.82 1.337 6.16 1.069 1.338 2.138 1.874 3.475 1.874 1.336 0 2.673-.804 3.742-2.143 1.07-1.339 1.604-3.481 1.604-6.427 0-2.678-.535-4.82-1.604-6.16-1.07-1.338-2.139-2.142-3.475-2.142-1.337 0-2.673.804-3.742 2.143-.802 1.874-1.337 4.017-1.337 6.695zm16.306 0c0-4.017 1.069-6.963 2.94-8.838 1.604-1.607 3.475-2.41 5.881-2.41 2.673 0 4.811 1.071 6.415 2.946 1.604 1.874 2.406 4.553 2.406 8.034 0 2.678-.268 4.82-1.07 6.427-.802 1.607-1.871 2.946-3.207 3.75-1.337.803-2.941 1.338-4.544 1.338-2.673 0-4.812-1.071-6.416-2.945-1.603-1.875-2.405-4.82-2.405-8.302zm3.207 0c0 2.678.535 4.82 1.604 6.16 1.069 1.338 2.406 2.142 4.01 2.142 1.603 0 2.94-.804 4.009-2.143 1.069-1.339 1.604-3.481 1.604-6.16 0-2.677-.535-4.552-1.604-6.159-1.069-1.339-2.406-2.142-4.009-2.142-1.604 0-2.941.803-4.01 2.142-1.069 1.34-1.604 3.214-1.604 6.16zm18.177-10.712h5.078l5.079 17.139 5.614-17.14h4.544v21.425h-3.208V11.85l-5.881 17.407h-2.672l-5.346-18.21v18.21h-3.208V7.834zm37.422 18.746c-1.069 1.07-2.406 1.874-3.475 2.41s-2.405.803-3.475.803c-2.138 0-3.742-.535-4.812-1.607-1.068-1.07-1.603-2.677-1.603-4.284 0-1.072.267-2.143.535-2.946.535-.803 1.068-1.607 1.603-2.142.803-.536 1.338-.804 2.406-1.072.535-.268 1.604-.268 2.941-.535 2.673-.268 4.544-.804 5.612-1.34v-1.07c0-1.607-.266-2.41-.801-3.214-.802-.803-2.138-1.34-3.743-1.34-1.603 0-2.673.269-3.207.804-.802.536-1.337 1.607-1.604 3.214l-3.207-.268c.267-1.607.801-2.678 1.336-3.75.535-.803 1.605-1.606 2.941-2.142 1.336-.535 2.673-.803 4.276-.803 1.604 0 2.941.268 4.009.536 1.07.535 1.872 1.07 2.139 1.606.535.536.802 1.607 1.069 2.41 0 .536.268 1.607.268 3.214v4.82c0 3.482 0 5.625.267 6.428 0 .803.535 1.874.801 2.678h-3.741c-.268-.536-.535-1.34-.535-2.41zm-.268-8.034c-1.068.535-2.939 1.07-5.345 1.339-1.337.267-2.138.535-2.673.803-.535.268-1.07.536-1.337 1.071-.266.536-.534 1.072-.534 1.607 0 1.071.268 1.875 1.069 2.41.535.536 1.603 1.072 2.94 1.072 1.336 0 2.406-.268 3.208-.804 1.069-.535 1.604-1.339 2.139-2.41.267-.803.533-2.143.533-3.75v-1.338zm10.693-10.712h13.097v18.478h2.139v9.105h-2.673v-6.16h-14.969v6.16h-2.673v-9.105h1.604c2.405-3.482 3.475-9.64 3.475-18.478zm2.673 2.946c-.267 6.962-1.069 12.05-2.94 15.532h10.158V10.779h-7.218zm28.334 10.444l3.207.535c-.267 2.41-1.336 4.285-2.673 5.892-1.336 1.339-3.207 2.142-5.345 2.142-2.673 0-4.544-1.071-6.149-2.945-1.603-1.875-2.406-4.553-2.406-8.302 0-2.41.268-4.285 1.07-6.16.803-1.606 1.604-2.946 3.208-4.017 1.336-.803 2.94-1.339 4.544-1.339 2.139 0 3.742.536 5.078 1.875 1.337 1.071 2.138 2.946 2.406 5.088l-3.207.536c-.267-1.34-.802-2.41-1.605-3.214-.801-.803-1.603-1.071-2.672-1.071-1.604 0-2.94.536-4.01 1.874-1.069 1.34-1.603 3.482-1.603 6.16 0 2.946.534 5.088 1.336 6.16 1.069 1.338 2.138 1.874 3.742 1.874 1.336 0 2.406-.536 3.207-1.34 1.07-.535 1.605-1.874 1.872-3.748zm5.88-13.39h3.209v8.301h4.009c2.673 0 4.544.536 6.147 1.875 1.337 1.071 2.14 2.678 2.14 4.82 0 1.875-.535 3.214-1.872 4.553-1.069 1.339-3.207 1.875-5.613 1.875h-8.02V7.834zm3.209 18.478h3.474c2.138 0 3.475-.268 4.277-.803.802-.536 1.337-1.34 1.337-2.678 0-.804-.268-1.875-1.07-2.41-.534-.804-2.138-1.072-4.277-1.072h-3.741v6.963zm15.77-18.478h3.208v9.373c1.069 0 1.604-.268 2.138-.536.535-.536 1.069-1.607 1.871-3.75.535-1.606 1.07-2.945 1.604-3.48.267-.536.802-.804 1.337-1.072.534-.268 1.336-.268 2.406-.268h.533v2.946h-.801c-.802 0-1.337.268-1.604.536-.267.268-.534 1.071-1.069 2.678-.535 1.339-.802 2.41-1.336 2.946-.535.535-1.07 1.07-1.872 1.607 1.337.535 2.673 1.874 4.01 4.284l3.475 6.695h-3.475l-3.475-6.695c-.802-1.339-1.336-2.142-1.871-2.678-.535-.535-1.07-.535-1.871-.535v9.908h-3.208V7.833zm29.137 14.46l3.206.537c-.534 2.142-1.603 4.017-2.94 5.088-1.336 1.339-3.207 1.874-5.345 1.874-2.674 0-5.079-1.071-6.683-2.945-1.604-1.875-2.406-4.553-2.406-8.034 0-3.75.802-6.428 2.406-8.302 1.604-1.875 3.742-2.946 6.415-2.946 2.406 0 4.544 1.071 6.148 2.946 1.604 1.874 2.405 4.82 2.405 8.302v1.07h-14.167c0 2.41.803 4.285 1.871 5.357 1.07 1.339 2.406 1.874 4.011 1.874 1.068 0 2.138-.267 2.94-1.071 1.069-1.071 1.604-2.142 2.139-3.75zm-10.426-5.89h10.426c-.268-1.875-.535-3.214-1.338-4.018-1.068-1.339-2.405-2.142-4.009-2.142-1.337 0-2.673.536-3.743 1.607-.801 1.07-1.336 2.678-1.336 4.552zm27.799 20.888V7.834h2.941v2.678c.802-1.072 1.336-1.875 2.406-2.41.802-.536 1.871-.804 3.208-.804 1.603 0 2.939.536 4.277 1.34 1.336 1.07 2.138 2.142 2.673 4.016.533 1.607 1.068 3.481 1.068 5.624 0 2.142-.267 4.285-1.068 5.892-.803 1.874-1.605 3.213-2.941 4.016-1.337.804-2.673 1.34-4.277 1.34-1.069 0-2.138-.268-2.94-.804s-1.604-1.071-2.138-1.875v10.445h-3.209zm2.941-18.746c0 2.678.535 4.82 1.604 6.16 1.069 1.338 2.138 1.874 3.475 1.874 1.336 0 2.673-.804 3.742-2.143 1.07-1.339 1.604-3.481 1.604-6.427 0-2.678-.534-4.82-1.604-6.16-1.069-1.338-2.139-2.142-3.475-2.142-1.337 0-2.673.804-3.742 2.143-1.069 1.874-1.604 4.017-1.604 6.695zm29.67 8.034c-1.068 1.07-2.406 1.874-3.474 2.41-1.07.536-2.138.803-3.476.803-2.138 0-3.741-.535-4.811-1.607-1.069-1.07-1.604-2.677-1.604-4.284 0-1.072.268-2.143.535-2.946.535-.803 1.069-1.607 1.604-2.142.802-.536 1.337-.804 2.406-1.072.534-.268 1.603-.268 2.94-.535 2.673-.268 4.544-.804 5.613-1.34v-1.07c0-1.607-.266-2.41-.801-3.214-.803-.803-2.139-1.34-3.743-1.34s-2.672.269-3.207.804c-.802.536-1.337 1.607-1.605 3.214l-3.207-.536c.268-1.607.801-2.678 1.336-3.749.535-.803 1.605-1.607 2.941-2.142 1.336-.536 2.673-.804 4.277-.804 1.603 0 2.94.268 4.009.536 1.07.535 1.872 1.071 2.139 1.607.534.535.801 1.607 1.069 2.41 0 .535.267 1.607.267 3.213v4.82c0 3.482 0 5.625.268 6.428.267.803.535 1.875.802 2.678h-3.208c-.802-.268-1.07-1.071-1.07-2.142zm-.267-8.034c-1.069.535-2.94 1.07-5.345 1.339-1.338.267-2.139.535-2.674.803-.534.268-1.069.536-1.337 1.071-.266.536-.533 1.072-.533 1.607 0 1.071.267 1.875 1.068 2.41.535.536 1.605 1.072 2.941 1.072 1.336 0 2.405-.268 3.208-.804 1.068-.535 1.603-1.339 2.138-2.41.268-.803.534-2.143.534-3.75v-1.338zm10.693-10.712h13.097v18.478h2.138v9.105h-2.672v-6.16h-14.969v6.16h-2.673v-9.105h1.603c2.406-3.482 3.476-9.64 3.476-18.478zm2.673 2.946c-.268 6.962-1.07 12.05-2.941 15.532h10.158V10.779h-7.217zm22.988 7.766c0-4.017 1.068-6.963 2.94-8.838 1.604-1.607 3.474-2.41 5.88-2.41 2.673 0 4.812 1.071 6.415 2.946 1.605 1.874 2.406 4.553 2.406 8.034 0 2.678-.266 4.82-1.069 6.427-.802 1.607-1.871 2.946-3.208 3.75-1.336.803-2.939 1.338-4.544 1.338-2.673 0-4.811-1.071-6.415-2.945-1.603-1.875-2.405-4.82-2.405-8.302zm3.208 0c0 2.678.533 4.82 1.603 6.16 1.069 1.338 2.406 2.142 4.009 2.142 1.605 0 2.941-.804 4.009-2.143 1.07-1.339 1.605-3.481 1.605-6.16 0-2.677-.535-4.552-1.605-6.159-1.068-1.339-2.404-2.142-4.009-2.142-1.603 0-2.94.803-4.009 2.142-1.07 1.34-1.603 3.214-1.603 6.16zM87.291 46.131l2.406 7.767 2.406-7.767h2.138c-1.069 3.214-2.94 8.034-4.277 11.248-.802 1.607-1.069 2.142-2.94 2.142-.267 0-.535 0-.802-.267v-1.34c.267 0 .535.268 1.07.268.801 0 .801-.268 1.603-2.142L85.42 46.4h1.871v-.269zm76.984 0l2.406 7.767 2.405-7.767h1.871c-1.068 3.214-2.939 8.034-4.276 11.248-.802 1.607-1.069 2.142-2.941 2.142-.266 0-.534 0-.801-.267v-1.34c.267 0 .535.268 1.068.268.803 0 .803-.268 1.605-2.142l-3.476-9.64h2.139v-.269zm-91.151 3.214c-.267-1.34-.802-2.142-2.138-2.142-1.871 0-2.673 1.874-2.673 3.48 0 1.608.267 3.75 2.673 3.75 1.07 0 1.871-.803 2.138-2.142h1.604c-.267 1.607-1.07 3.481-3.742 3.481-2.673 0-4.277-1.874-4.277-4.82s1.337-5.356 4.544-5.356c2.406 0 3.475 1.874 3.475 3.481l-1.604.268zm10.96-3.214v9.373h-1.603V47.47h-3.743v4.285c0 2.946-1.069 4.017-2.406 4.017-.534 0-.801 0-1.069-.268v-1.339h.535c.802 0 1.337-.268 1.337-3.213v-5.089l6.95.268s0-.268 0 0zm19.513 9.373h-2.138l-2.406-3.481-2.139 3.481h-2.138l3.475-4.82-3.208-4.553h2.139l2.138 3.214 2.139-3.214h1.871l-3.208 4.553 3.475 4.82zm1.069-6.694c0-2.143 1.604-3.214 4.01-3.214.802 0 3.475.268 3.475 2.678v5.356c0 .267.267.535.534.535h.535v1.34c-.267 0-.535.267-.802.267-1.336 0-1.604-.803-1.604-1.339-.534.536-1.603 1.607-3.475 1.607-1.603 0-2.94-1.071-2.94-2.678 0-1.071.267-2.678 3.742-2.946 2.406-.268 2.673-.268 2.673-1.339s-.802-1.607-2.138-1.607c-1.871 0-2.139 1.072-2.139 1.875h-1.871v-.536zm5.881 1.874c-.267.268-.535.268-2.673.535-.802 0-2.138.268-2.138 1.607 0 1.072.534 1.607 1.603 1.607 1.604 0 2.941-1.071 2.941-2.142v-1.607h.267zm5.88 2.411l4.544-6.963h1.604v9.373h-1.604v-6.963l-4.544 6.963h-1.604v-9.373h1.604v6.963zm2.406-9.106c1.336 0 1.603-.803 1.871-1.339h.802c0 .536-.267 2.41-2.673 2.41s-2.673-1.874-2.673-2.41h.802c.267.804.801 1.34 1.871 1.34zm13.099 2.142v1.34h-3.207v8.033h-1.605V47.47h-3.207v-1.339h8.019zm9.355 6.428c-.267 1.339-1.336 3.213-4.277 3.213-2.673 0-4.276-1.874-4.276-4.82s1.336-5.356 4.544-5.356c2.673 0 4.009 2.142 4.009 5.623h-6.95c0 1.875.803 3.214 2.673 3.214 1.604 0 2.406-1.071 2.406-1.874h1.871zm-1.603-2.41c0-1.34-.803-2.947-2.674-2.947-1.337 0-2.673 1.34-2.673 2.946h5.347zm21.115-4.018v8.034h1.07v4.017h-1.337v-2.678h-6.95v2.678h-1.336v-4.017h.802c.801-1.607 1.069-3.213 1.069-5.088v-3.214l6.682.268zm-1.603 1.339h-3.476v1.607c0 2.142-.266 3.481-1.068 5.088h4.544V47.47zm15.503-1.339l2.941 7.499 2.94-7.499h2.139v9.373h-1.604v-7.498l-2.941 7.498h-1.069l-2.94-7.498v7.498h-1.604v-9.373h2.138zm10.158 2.679c0-2.143 1.603-3.214 4.009-3.214.802 0 3.476.268 3.476 2.678v5.356c0 .267.267.535.534.535h.534v1.34c-.266 0-.534.267-.801.267-1.337 0-1.605-.803-1.605-1.339-.533.536-1.603 1.607-3.474 1.607-1.603 0-2.941-1.071-2.941-2.678 0-1.071.268-2.678 3.743-2.946 2.406-.268 2.672-.268 2.672-1.339s-.801-1.607-2.138-1.607c-1.871 0-2.138 1.072-2.138 1.875h-1.871v-.536zm5.881 1.874c-.267.268-.535.268-2.673.535-.802 0-2.138.268-2.138 1.607 0 1.072.533 1.607 1.603 1.607 1.603 0 2.941-1.071 2.941-2.142v-1.607h.267zm5.88 2.411l4.544-6.963h1.604v9.373h-1.604v-6.963l-4.544 6.963h-1.604v-9.373h1.604v6.963zm2.406-9.106c1.336 0 1.603-.803 1.871-1.339h.802c0 .536-.267 2.41-2.673 2.41s-2.673-1.874-2.673-2.41h.801c.267.804.802 1.34 1.872 1.34zm12.831 2.142v1.34h-2.941v8.033h-1.603V47.47h-3.208v-1.339h7.752zm9.356 6.428c-.268 1.339-1.338 3.213-4.277 3.213-2.673 0-4.278-1.874-4.278-4.82s1.337-5.356 4.544-5.356c2.673 0 4.011 2.142 4.011 5.623h-6.683c0 1.875.801 3.214 2.672 3.214 1.605 0 2.406-1.071 2.406-1.874h1.605zm-1.338-2.41c0-1.34-.801-2.947-2.673-2.947-1.336 0-2.672 1.34-2.672 2.946h5.345zm-75.646 5.354c.739 0 1.337-.6 1.337-1.339a1.338 1.338 0 1 0-2.673 0c0 .74.598 1.34 1.336 1.34zm80.458 0a1.338 1.338 0 0 0 0-2.678c-.738 0-1.336.6-1.336 1.34 0 .739.598 1.338 1.336 1.338zM334.012 5.157a2.14 2.14 0 0 0 2.139-2.142 2.14 2.14 0 0 0-2.139-2.142 2.14 2.14 0 0 0-2.138 2.142 2.14 2.14 0 0 0 2.138 2.142z" fill="#fff"/></svg>