<svg width="106" height="65" viewBox="0 0 106 65" fill="none" xmlns="http://www.w3.org/2000/svg"><path fill-rule="evenodd" clip-rule="evenodd" d="M104.948 32.62c-1.602-5.737-6.953-10.952-19.963-10.952-10.742 0-15.937 2.045-17.5 3.412-1.031.891-1.47 1.46-1.47 3.17v30.925c0 2.873 2.316 5.203 5.172 5.203h6.11c2.858 0 5.174-2.33 5.174-5.205V32.137c0-2.24 6.43-3.107 6.43 1.665 0 1.384-.043 25.374-.043 25.374 0 2.875 2.31 5.205 5.171 5.205h6.106c2.857 0 5.174-2.327 5.174-5.2V36.8c0-2.144-.263-3.793-.375-4.188l.014.006zM17.941 21.195c-12.719 0-16.794 3.937-17.398 4.987-1.057 1.85.532 5.459 3.258 5.659 2.206.16 9.7-4.011 18.308-1.537 3.018.868 2.55 4.628 2.55 5.82 0 1.193-.745 1.627-2.366 1.627S0 35.257 0 51.09c0 12.037 13.98 13.775 19.75 13.775s19.75.215 19.75-6.077V34.934c0-6.796-6.895-13.736-21.553-13.736l-.006-.001zm6.334 33.094c0 1.643-1.012 3.184-4.104 3.184-2.344 0-4.368-2.089-4.368-6.727 0-4.154 1.972-6.727 4.367-6.727 2.826 0 4.105 1.768 4.105 2.951v7.319z" fill="#fff"/><path d="M63.08 0H41.009c-2.341 0-2.49 2.44-2.49 2.44v16.74c0 3.296 3.338 3.221 3.338 3.221v3.385c-.062 2.521 1.703 2.585 4.633.895l7.62-4.331h8.823c2.44 0 2.84-2.638 2.84-2.638V2.986C65.772.25 63.08 0 63.08 0zm-.797 18.866h-6.477c-2.391 0-3.935.996-3.935.996l-7.047 4.215v-2.162c0-3.229-2.968-3.2-2.968-3.2V3.287h20.427v15.579z" fill="#fff"/><path style="mix-blend-mode:overlay" d="M63.08 0H41.009c-2.341 0-2.49 2.44-2.49 2.44v16.74c0 3.296 3.338 3.221 3.338 3.221v3.385c-.062 2.521 1.703 2.585 4.633.895l7.62-4.331h8.823c2.44 0 2.84-2.638 2.84-2.638V2.986C65.772.25 63.08 0 63.08 0zm-.797 18.866h-6.477c-2.391 0-3.935.996-3.935.996l-7.047 4.215v-2.162c0-3.229-2.968-3.2-2.968-3.2V3.287h20.427v15.579z" fill="#fff"/><path d="M59.146 12.788H45.543v2.544h13.603v-2.544z" fill="#fff"/><path style="mix-blend-mode:overlay" d="M59.146 12.788H45.543v2.544h13.603v-2.544z" fill="#fff"/><path d="M59.146 7.752H45.543v2.542h13.603V7.752z" fill="#fff"/><path style="mix-blend-mode:overlay" d="M59.146 7.752H45.543v2.542h13.603V7.752z" fill="#fff"/><path fill-rule="evenodd" clip-rule="evenodd" d="M56.291 26.574c-1.924 0-2.962.472-2.962.472s-6.413 3.418-7.085 3.78c-1.731.922-1.644 2.53-1.644 2.53v25.832c0 2.874 2.317 5.204 5.175 5.204h6.106c2.858 0 5.175-2.322 5.175-5.2V29.259c0-1.505-.7-2.683-2.162-2.683h-2.603v-.002z" fill="#fff"/></svg>