<svg width="174" height="85" viewBox="0 0 174 85" fill="none" xmlns="http://www.w3.org/2000/svg"><path d="M64.713 46.917h-4.906V27.048h7.199a7.694 7.694 0 0 1 5.33 1.655 5.96 5.96 0 0 1 2.081 4.857 6.493 6.493 0 0 1-1.746 4.705 6.981 6.981 0 0 1-5.21 1.776h-2.748v6.876zm0-10.853h1.519a3.478 3.478 0 0 0 2.4-.698c.47-.5.713-1.153.698-1.836a2.506 2.506 0 0 0-.699-1.807 3.571 3.571 0 0 0-2.49-.683h-1.413l-.015 5.024zM81.89 47.357a6.544 6.544 0 0 1-5.103-2.049 6.967 6.967 0 0 1-1.99-4.994 7.56 7.56 0 0 1 2.111-5.403 6.73 6.73 0 0 1 4.754-1.837 5.278 5.278 0 0 1 4.04 1.655v-1.215h4.556v13.388h-4.556v-1.29a4.547 4.547 0 0 1-3.813 1.745zm.85-10.336a3.364 3.364 0 0 0-2.248.926 3.27 3.27 0 0 0 0 4.553 3.433 3.433 0 0 0 2.445.987 3.108 3.108 0 0 0 2.112-.987 3.3 3.3 0 0 0 0-4.553 3.547 3.547 0 0 0-2.309-.926zm26.395 13.66h-4.131v-3.764H96.15v3.688h-4.115v-7.194h.121c.653-.06 1.26-.35 1.747-.79a4.767 4.767 0 0 0 1.123-3.855V33.53h12.15v9.866h1.975l-.016 7.285zm-11.147-7.21h4.556v-6.42h-3.265v2.413c.03.82-.076 1.655-.319 2.444a3.897 3.897 0 0 1-.972 1.488v.076zm17.435 3.446h-4.556V33.53h4.556v13.387zm-2.263-16.21a2.612 2.612 0 1 1 .046 0h-.046zm11.952 16.696a8.453 8.453 0 0 1-5.938-2.155 7.07 7.07 0 0 1 0-9.958 9.292 9.292 0 0 1 11.892 0 7.071 7.071 0 0 1 0 9.958 8.477 8.477 0 0 1-5.954 2.11v.045zm0-10.398a3.218 3.218 0 0 0-2.323.896 3.437 3.437 0 0 0 0 4.736 3.25 3.25 0 0 0 2.354.895 3.26 3.26 0 0 0 3.265-3.263 3.26 3.26 0 0 0-3.265-3.264h-.031zM68.829 78.748a11.111 11.111 0 0 1-7.959-2.854 10.477 10.477 0 0 1-.167-14.83l.167-.166a10.878 10.878 0 0 1 7.594-2.87 12.22 12.22 0 0 1 4.86 1.109h.091v5.677l-.258-.258A6.217 6.217 0 0 0 68.6 62.52a5.545 5.545 0 0 0-3.98 1.517 6.111 6.111 0 0 0-1.837 4.418 5.596 5.596 0 0 0 1.701 4.204 5.92 5.92 0 0 0 4.207 1.609 6.315 6.315 0 0 0 4.556-1.989l.243-.242v5.63h-.09a9.568 9.568 0 0 1-4.572 1.079zm14.928-.44H75.45V64.933h7.32a5.345 5.345 0 0 1 3.418.88 3.356 3.356 0 0 1 1.123 2.672 2.88 2.88 0 0 1-.85 2.216c-.213.228-.47.425-.76.561a4.002 4.002 0 0 1 1.52.866c.622.622.94 1.472.91 2.337a3.603 3.603 0 0 1-1.017 2.626 4.711 4.711 0 0 1-3.357 1.214zm-3.69-3.036h1.792a1.7 1.7 0 0 0 1.2-.32c.243-.242.38-.576.364-.925a.956.956 0 0 0-.364-.79 2.18 2.18 0 0 0-1.367-.318h-1.625v2.353zm0-5.055h1.625c.35.015.684-.076.987-.243a.942.942 0 0 0 .395-.85.973.973 0 0 0-.334-.789 2.158 2.158 0 0 0-1.109-.243h-1.518l-.046 2.125zm17.42 8.591a8.49 8.49 0 0 1-5.954-2.155 7.051 7.051 0 0 1 0-9.942 9.291 9.291 0 0 1 11.892 0 7.05 7.05 0 0 1 0 9.942 8.45 8.45 0 0 1-5.938 2.095v.06zm0-10.382a3.192 3.192 0 0 0-2.339.896 3.419 3.419 0 0 0 0 4.72 3.262 3.262 0 0 0 2.37.896 3.212 3.212 0 0 0 2.292-.896 3.419 3.419 0 0 0 0-4.72 3.222 3.222 0 0 0-2.323-1.017v.121zm17.556 10.382a7.717 7.717 0 0 1-5.619-1.973 9.344 9.344 0 0 1-2.415-6.86c0-2.293.349-6.497 2.688-8.926a8.962 8.962 0 0 1 4.86-2.367l1.079-.228a4.89 4.89 0 0 0 2.475-.926c.182-.197.289-.455.289-.729v-.136h4.085v.151a5.932 5.932 0 0 1-1.625 3.522 7.618 7.618 0 0 1-3.311 1.624l-1.792.501a8.05 8.05 0 0 0-3.265 1.412 4.175 4.175 0 0 0-1.306 2.413 6.112 6.112 0 0 1 4.556-1.7 7.577 7.577 0 0 1 5.285 1.882 6.813 6.813 0 0 1 1.99 4.872 7.32 7.32 0 0 1-2.203 5.359 7.837 7.837 0 0 1-5.771 2.049v.06zm0-10.352a3.238 3.238 0 0 0-2.293.896 3.33 3.33 0 0 0-.972 2.353 3.13 3.13 0 0 0 .942 2.277 3.295 3.295 0 0 0 2.384.895c.79 0 1.564-.288 2.157-.804a3.347 3.347 0 0 0 1.093-2.475 3.222 3.222 0 0 0-3.296-3.141h-.015zm17.541 10.292a8.49 8.49 0 0 1-5.953-2.156 7.05 7.05 0 0 1 0-9.942 9.292 9.292 0 0 1 11.892 0 7.053 7.053 0 0 1 0 9.942 8.455 8.455 0 0 1-5.939 2.156zm0-10.383a3.19 3.19 0 0 0-2.338.896 3.418 3.418 0 0 0 0 4.72 3.249 3.249 0 0 0 2.354.896 3.184 3.184 0 0 0 2.308-.895 3.418 3.418 0 0 0 0-4.721 3.188 3.188 0 0 0-2.324-.956v.06zm25.439 13.661h-4.131v-3.719h-8.854v3.658h-4.131V74.8h.137a3.043 3.043 0 0 0 1.716-.79 4.879 4.879 0 0 0 1.124-3.855v-5.22h12.15v9.85h1.989v7.24zM146.876 74.8h4.556v-6.344h-3.281v2.337a7.925 7.925 0 0 1-.303 2.459 4.064 4.064 0 0 1-.972 1.548zm18.665 3.947a6.53 6.53 0 0 1-5.103-2.034 7.004 7.004 0 0 1-1.99-5.01 7.632 7.632 0 0 1 2.111-5.388 6.747 6.747 0 0 1 4.739-1.821 5.298 5.298 0 0 1 4.055 1.64v-1.2h4.556v13.372h-4.556v-1.275a4.563 4.563 0 0 1-3.812 1.716zm.85-10.322c-.85 0-1.655.319-2.278.896a3.127 3.127 0 0 0-.941 2.276 3.16 3.16 0 0 0 .865 2.247 3.384 3.384 0 0 0 2.43.971 3.02 3.02 0 0 0 2.157-.865 3.278 3.278 0 0 0 .03-4.63l-.03-.03a3.568 3.568 0 0 0-2.202-.865h-.031zM55.22 25.682c-7.274.85-9.324 8.41-14.807 14.936-7.32 8.713-18.224 4.235-18.224 4.235 7.32-.91 9.43-8.53 15.035-15.027 7.487-8.576 17.997-4.144 17.997-4.144zm-26.364 12.78s9.112-7.24 5.179-17.91C31.043 12.507 25.332 6.8 28.355.092c0 0-9.022 7.346-5.255 17.91 2.87 8.075 8.793 13.752 5.756 20.46zm-.532-1.517s.881-11.733-9.219-16.196C11.208 17.26 2.931 17.577.107 10.777c0 0-1.124 11.672 9.583 16.18 7.928 3.4 15.78 3.173 18.605 9.973l.03.015zM16.326 56.677h20.442l4.784-9.623H16.296l.03 9.623zm3.265 28.278h1.671l11.74-26.988h-13.44l.03 26.988z" fill="#fff"/></svg>