<svg width="203" height="37" viewBox="0 0 203 37" fill="none" xmlns="http://www.w3.org/2000/svg"><path fill-rule="evenodd" clip-rule="evenodd" d="M132.469.913c0 .782.013.919.088.948.115.044 2.133.042 2.297-.002.124-.033.126-.046.126-.946V0h-2.511v.913zm4.086.02l.015.934h2.344l.015-.934.015-.933h-2.404l.015.933zm23.828 1.89c-.1.014-.182.05-.182.078 0 .029-.148.052-.33.052-.22 0-.359.028-.415.084-.047.047-.183.083-.311.083-.164 0-.227.023-.227.084 0 .06-.061.084-.217.084-.142 0-.229.029-.25.083-.017.046-.095.084-.173.084-.078 0-.141.022-.141.05 0 .027-.068.066-.151.087a.677.677 0 0 0-.276.173c-.069.075-.178.136-.242.136s-.13.037-.148.083c-.018.046-.067.084-.11.084s-.078.037-.078.083c0 .052-.052.084-.139.084-.087 0-.14.032-.14.084a.083.083 0 0 1-.083.083.084.084 0 0 0-.084.084c0 .046-.027.083-.06.083-.079 0-.554.475-.554.553 0 .033-.037.06-.083.06a.084.084 0 0 0-.084.084.084.084 0 0 1-.084.083c-.052 0-.084.053-.084.14 0 .086-.031.139-.083.139-.046 0-.084.035-.084.078 0 .042-.038.092-.084.11a.137.137 0 0 0-.083.117c0 .047-.025.085-.055.085s-.071.063-.09.14c-.019.076-.055.139-.08.139s-.062.075-.082.167c-.02.092-.06.167-.088.167-.029 0-.052.063-.052.14 0 .086-.031.139-.083.139-.062 0-.084.065-.084.25 0 .186-.022.251-.084.251-.06 0-.084.062-.084.218 0 .12-.029.229-.066.24-.039.014-.076.18-.091.41-.013.212-.049.402-.079.42-.073.047-.072 2.337.001 2.383.03.02.065.221.078.449.014.255.049.422.09.436.039.013.067.126.067.269 0 .181.022.246.084.246.061 0 .084.062.084.223 0 .16.023.223.084.223.055 0 .083.055.083.167 0 .092.025.167.055.167s.072.069.093.153a.579.579 0 0 0 .113.227.26.26 0 0 1 .074.153c0 .044.025.08.056.08s.056.038.056.084c0 .046.037.083.083.083.053 0 .084.053.084.141 0 .078.038.156.084.173.046.018.083.067.083.11s.038.078.084.078c.046 0 .084.037.084.083 0 .046.038.084.084.084.046 0 .083.037.083.083 0 .046.025.084.055.084s.071.063.09.14c.025.1.072.139.168.139.082 0 .134.032.134.083 0 .046.037.084.083.084.046 0 .084.037.084.083 0 .046.038.084.084.084.046 0 .083.038.083.084 0 .046.038.083.084.083.046 0 .084.023.084.05 0 .027.063.065.139.085.077.019.14.059.14.09 0 .03.038.054.084.054.046 0 .083.037.083.083 0 .056.056.084.168.084.111 0 .167.028.167.084 0 .055.056.083.167.083.112 0 .168.028.168.084 0 .052.053.083.143.083a.37.37 0 0 1 .228.084.402.402 0 0 0 .247.083c.09 0 .163.023.163.05 0 .027.113.066.251.087.138.02.251.057.251.082 0 .024.207.061.461.082.253.021.468.062.479.092.025.074 2.337.071 2.362-.003.01-.031.188-.073.395-.092.207-.02.377-.053.377-.075 0-.023.104-.055.231-.072.127-.017.246-.054.265-.082.019-.028.134-.067.257-.087.122-.019.231-.06.241-.092.011-.031.078-.057.15-.057a.35.35 0 0 0 .215-.083.367.367 0 0 1 .227-.084c.09 0 .143-.03.143-.084 0-.046.05-.083.112-.083.061 0 .112-.025.112-.055s.062-.07.139-.09c.077-.019.14-.057.14-.084 0-.027.037-.05.083-.05.046 0 .084-.035.084-.077 0-.043.063-.093.14-.113.076-.019.139-.06.139-.09s.031-.054.07-.055c.038 0 .157-.1.265-.222.107-.122.227-.222.265-.222.038 0 .07-.038.07-.084 0-.046.037-.084.083-.084.059 0 .084-.059.084-.195s-.025-.195-.084-.195c-.052 0-.083-.053-.083-.14 0-.086-.032-.139-.084-.139a.084.084 0 0 1-.084-.083.083.083 0 0 0-.083-.084c-.048 0-.084-.05-.084-.114 0-.063-.061-.17-.136-.24a.686.686 0 0 1-.173-.276c-.021-.082-.06-.15-.088-.15-.027 0-.05-.038-.05-.084a.083.083 0 0 0-.083-.083.084.084 0 0 1-.084-.084.084.084 0 0 0-.084-.083c-.047 0-.083-.05-.083-.114 0-.063-.063-.173-.14-.244-.077-.07-.139-.157-.139-.192s-.051-.063-.112-.063c-.061 0-.112.027-.112.06 0 .077-.141.218-.219.218-.033 0-.06.035-.06.078s-.062.093-.139.112c-.077.02-.14.06-.14.09s-.038.055-.085.055c-.047 0-.1.037-.118.083-.017.046-.067.084-.109.084-.043 0-.078.037-.078.083 0 .052-.053.084-.14.084-.086 0-.139.032-.139.084 0 .055-.056.083-.168.083-.111 0-.167.028-.167.084 0 .056-.056.083-.167.083-.092 0-.168.024-.168.054 0 .029-.094.07-.209.091-.115.021-.227.066-.249.1-.055.085-2.321.085-2.376 0-.021-.034-.134-.079-.249-.1-.115-.02-.209-.062-.209-.091 0-.03-.048-.054-.108-.054a.296.296 0 0 1-.183-.076.58.58 0 0 0-.2-.115c-.067-.021-.123-.062-.123-.091 0-.028-.037-.052-.083-.052a.084.084 0 0 1-.084-.084.084.084 0 0 0-.084-.083.084.084 0 0 1-.084-.084c0-.046-.025-.083-.055-.083-.073 0-.279-.207-.279-.279 0-.03-.038-.056-.084-.056-.052 0-.084-.052-.084-.139 0-.087-.031-.14-.083-.14a.084.084 0 0 1-.084-.083c0-.046-.023-.083-.051-.083-.029 0-.068-.076-.089-.168-.02-.091-.056-.167-.081-.167-.024 0-.06-.1-.08-.223-.019-.122-.06-.223-.09-.223-.031 0-.056-.112-.056-.25 0-.186-.021-.251-.083-.251-.072 0-.084-.15-.084-1.007 0-.82.016-1.022.084-1.09.049-.05.083-.186.083-.33 0-.183.022-.248.084-.248.056 0 .084-.055.084-.167 0-.092.022-.167.05-.167.027 0 .065-.063.084-.14.02-.076.06-.139.09-.139s.055-.038.055-.085c0-.047.038-.1.084-.117.046-.018.083-.093.083-.166 0-.081.033-.133.084-.133a.084.084 0 0 0 .084-.084c0-.046.028-.083.062-.083s.16-.1.279-.223c.119-.123.267-.223.328-.223.062 0 .112-.037.112-.084 0-.055.056-.083.167-.083.112 0 .168-.028.168-.084 0-.06.061-.083.217-.083.142 0 .228-.03.249-.084.025-.063.127-.084.425-.084.224 0 .392-.023.392-.055 0-.034.214-.056.53-.056.316 0 .53.022.53.056 0 .03.149.055.335.055.26 0 .335.019.335.084 0 .062.065.084.251.084s.251.021.251.083c0 .06.062.084.223.084s.223.023.223.083c0 .051.053.084.134.084.073 0 .148.037.166.083.017.046.07.084.117.084s.086.022.086.05c0 .027.062.065.139.084.077.02.14.06.14.09s.037.055.083.055c.046 0 .084.037.084.083 0 .052.053.084.14.084.086 0 .139.031.139.083 0 .046.025.084.056.084.097 0 .279-.219.279-.336 0-.062.035-.127.079-.143.043-.017.094-.091.112-.166.019-.074.059-.135.089-.135s.055-.035.055-.078c0-.042.037-.092.083-.11.046-.017.084-.095.084-.173 0-.088.031-.14.084-.14.047 0 .083-.05.083-.115 0-.063.062-.17.136-.24a.679.679 0 0 0 .174-.275c.02-.083.06-.15.087-.15.027 0 .05-.038.05-.084 0-.046.038-.084.084-.084.06 0 .083-.062.083-.223 0-.16-.023-.223-.083-.223a.084.084 0 0 1-.084-.083c0-.052-.053-.084-.14-.084-.086 0-.139-.031-.139-.083a.084.084 0 0 0-.084-.084.084.084 0 0 1-.084-.084.083.083 0 0 0-.083-.083c-.046 0-.084-.023-.084-.052 0-.028-.075-.067-.167-.088-.092-.02-.168-.059-.168-.086 0-.028-.063-.066-.139-.086-.077-.019-.14-.055-.14-.08s-.075-.062-.167-.082c-.092-.02-.168-.06-.168-.088 0-.028-.063-.051-.141-.051-.077 0-.155-.038-.173-.084-.021-.054-.107-.083-.244-.083-.136 0-.222-.03-.243-.084-.021-.055-.108-.084-.252-.084-.122 0-.23-.029-.242-.065-.013-.037-.177-.076-.382-.09-.197-.015-.376-.053-.397-.085-.039-.06-2.126-.108-2.487-.057zm-77.576.214c0 .046.023.083.051.083.029 0 .068.076.088.168.02.092.06.167.089.167.028 0 .051.063.051.14 0 .078.038.156.084.174.046.018.083.092.083.165 0 .082.033.134.084.134.056 0 .084.055.084.167 0 .111.028.167.083.167.056 0 .084.056.084.167 0 .092.025.167.055.167s.07.063.09.14c.019.076.055.14.08.14s.062.074.082.166c.02.092.057.167.082.167s.061.063.08.14c.02.076.06.139.09.139s.055.075.055.167c0 .112.028.167.084.167.055 0 .083.056.083.168 0 .111.028.167.084.167.051 0 .084.052.084.133 0 .073.037.148.084.165.046.018.083.093.083.168 0 .074.038.15.084.167.046.017.084.095.084.173 0 .078.022.141.05.141.027 0 .065.063.084.14.02.076.06.139.09.139s.055.048.055.107c0 .06.037.145.083.191a.366.366 0 0 1 .084.227c0 .09.031.143.084.143.05 0 .083.052.083.134 0 .073.038.147.084.165.046.018.084.093.084.167 0 .075.037.15.084.167.046.018.083.093.083.168 0 .074.038.15.084.167.046.017.084.083.084.145 0 .062.025.113.055.113.031 0 .056.05.056.112s.037.111.084.111c.056 0 .084.056.084.167 0 .112.028.167.083.167.052 0 .084.053.084.14 0 .076.025.139.055.139s.072.069.093.153a.582.582 0 0 0 .113.227c.04.04.074.122.074.181 0 .06.024.108.055.108.03 0 .07.062.09.139.019.077.057.14.084.14.027 0 .05.063.05.14 0 .078.037.156.084.174.046.017.083.092.083.167 0 .074.038.15.084.167.046.018.084.092.084.165 0 .082.032.134.083.134.056 0 .084.055.084.167 0 .111.028.167.084.167.055 0 .083.056.083.167 0 .092.024.167.052.167.03 0 .07.057.092.126a.354.354 0 0 0 .101.165c.034.022.062.162.062.31 0 .23-.026.298-.177.448-.107.107-.233.177-.32.177-.091 0-.144.031-.144.084 0 .117-.588.117-.706 0a.403.403 0 0 0-.247-.084c-.09 0-.163-.022-.163-.05 0-.027-.068-.066-.151-.087a.68.68 0 0 1-.276-.173c-.197-.212-.522-.213-.522-.002 0 .073-.038.147-.084.165-.046.018-.083.096-.083.173 0 .088-.032.141-.084.141a.084.084 0 0 0-.084.084c0 .046-.025.084-.056.084-.03 0-.055.063-.055.14 0 .078-.038.156-.084.174-.046.017-.084.092-.084.165 0 .082-.032.133-.083.133-.047 0-.084.05-.084.114 0 .062-.038.127-.084.145-.046.018-.084.069-.084.114a.288.288 0 0 1-.083.165.315.315 0 0 0-.084.19c0 .06-.025.108-.056.108-.03 0-.056.063-.056.14 0 .111.028.139.14.139.087 0 .14.032.14.084 0 .046.037.083.083.083.046 0 .084.038.084.084 0 .052.053.083.143.083.08 0 .181.038.227.084a.402.402 0 0 0 .248.083c.09 0 .163.025.163.055s.1.072.223.091c.123.02.223.054.223.076 0 .023.183.058.405.078.222.021.413.062.423.092.024.07 1.125.072 1.125.001 0-.029.151-.07.335-.09.184-.021.335-.058.335-.082s.1-.06.223-.081c.123-.021.223-.058.223-.083 0-.024.063-.06.14-.08.077-.019.14-.059.14-.09 0-.03.037-.054.083-.054a.084.084 0 0 0 .084-.083c0-.056.056-.084.167-.084.092 0 .168-.027.168-.06s.075-.135.167-.227c.092-.092.167-.192.167-.221 0-.03.063-.113.14-.184.077-.07.14-.157.14-.192s.037-.063.083-.063c.051 0 .084-.052.084-.133 0-.074.037-.148.084-.166a.137.137 0 0 0 .083-.117c0-.047.038-.086.084-.086.052 0 .084-.052.084-.139 0-.077.023-.14.051-.14.028 0 .068-.075.088-.166.02-.092.058-.168.084-.168.026 0 .063-.075.084-.167.02-.092.06-.167.088-.167.028 0 .051-.063.051-.141 0-.078.038-.156.084-.173.054-.021.083-.108.083-.25 0-.155.024-.216.084-.216.053 0 .084-.053.084-.143a.36.36 0 0 1 .084-.227.4.4 0 0 0 .083-.247c0-.09.023-.163.052-.163.028 0 .068-.075.088-.167.02-.092.056-.168.08-.168.025 0 .061-.1.08-.223.02-.122.061-.222.091-.222s.056-.074.056-.164c0-.09.037-.2.083-.246a.37.37 0 0 0 .084-.229c0-.08.038-.16.084-.177.054-.021.083-.108.083-.25 0-.155.024-.216.084-.216.053 0 .084-.053.084-.143a.36.36 0 0 1 .084-.227.4.4 0 0 0 .083-.247c0-.09.023-.163.052-.163.028 0 .068-.075.088-.167.02-.092.06-.167.088-.167.028 0 .051-.074.051-.164 0-.09.038-.2.084-.246a.366.366 0 0 0 .084-.227c0-.09.03-.144.083-.144.06 0 .084-.06.084-.216 0-.142.03-.229.084-.25.046-.017.083-.097.083-.177a.37.37 0 0 1 .084-.228.36.36 0 0 0 .084-.223.36.36 0 0 1 .084-.223.314.314 0 0 0 .083-.191c0-.06.022-.108.049-.108.027 0 .065-.1.084-.222.02-.123.06-.223.091-.223.03 0 .055-.076.055-.167 0-.112.028-.168.084-.168.06 0 .084-.062.084-.223 0-.16.023-.222.083-.222.056 0 .084-.056.084-.168 0-.092.025-.167.055-.167s.071-.1.091-.223c.02-.122.056-.223.082-.223.025 0 .063-.087.083-.195.02-.107.055-.195.079-.195.023 0 .058-.1.078-.223.02-.122.057-.222.084-.222.026 0 .064-.1.083-.223.02-.123.06-.223.091-.223.03 0 .055-.075.055-.167 0-.112.028-.168.084-.168.129 0 .099-.094-.042-.132-.069-.018-.885-.034-1.813-.034h-1.688v.14c0 .078-.038.156-.084.173-.055.021-.084.108-.084.251 0 .143-.029.23-.084.251-.054.02-.083.108-.083.249 0 .156-.024.217-.084.217-.06 0-.084.062-.084.227 0 .127-.036.263-.083.31a.401.401 0 0 0-.084.247c0 .09-.025.163-.055.163s-.071.1-.09.223c-.02.123-.055.223-.078.223s-.055.106-.073.236c-.017.13-.058.244-.091.255-.033.01-.06.091-.06.178a.392.392 0 0 1-.083.242.409.409 0 0 0-.084.251.408.408 0 0 1-.084.251c-.046.046-.083.17-.083.277 0 .12-.032.205-.084.225-.048.018-.084.101-.084.196 0 .09-.027.174-.06.185-.035.011-.076.138-.092.283-.016.145-.05.263-.075.263-.025 0-.062.113-.082.25-.021.139-.057.251-.08.251s-.056.106-.074.236c-.017.13-.058.245-.091.255-.033.011-.06.08-.06.155 0 .082-.032.135-.083.135-.06 0-.084-.062-.084-.223s-.023-.223-.084-.223c-.052 0-.083-.053-.083-.144a.366.366 0 0 0-.084-.226.401.401 0 0 1-.084-.247c0-.09-.023-.163-.051-.163-.028 0-.068-.076-.088-.168-.02-.092-.057-.167-.081-.167s-.06-.1-.08-.223c-.02-.122-.06-.223-.09-.223-.031 0-.056-.048-.056-.107a.314.314 0 0 0-.084-.191.367.367 0 0 1-.083-.227c0-.09-.031-.143-.084-.143-.051 0-.084-.052-.084-.134 0-.073-.037-.147-.084-.165-.046-.018-.083-.095-.083-.173 0-.078-.023-.141-.052-.141-.028 0-.067-.075-.088-.167-.02-.092-.06-.167-.088-.167-.028 0-.051-.064-.051-.142 0-.077-.035-.154-.077-.17-.043-.016-.093-.128-.113-.25-.019-.12-.06-.219-.09-.219s-.055-.062-.055-.139c0-.087-.032-.14-.084-.14-.055 0-.083-.054-.083-.16 0-.092-.036-.175-.084-.194-.046-.017-.084-.095-.084-.173 0-.077-.023-.14-.051-.14-.028 0-.068-.076-.088-.168-.02-.092-.058-.167-.084-.167-.026 0-.064-.075-.084-.167-.02-.092-.06-.168-.088-.168-.028 0-.051-.063-.051-.14 0-.078-.038-.156-.084-.174-.046-.017-.084-.092-.084-.165 0-.082-.032-.134-.083-.134a.084.084 0 0 1-.084-.083c0-.073-.239-.084-1.813-.084-1.575 0-1.814.011-1.814.084zm13.88-.045c-.092.024-.097.398-.097 6.87 0 6.188.008 6.846.088 6.877.115.044 3.168.044 3.283 0 .079-.03.088-.328.088-2.786V11.2h1.451v.168c0 .11.028.167.084.167.056 0 .083.055.083.167 0 .092.025.167.055.167s.071.063.09.14c.019.076.055.139.08.139s.062.075.082.167c.02.092.06.167.088.167.029 0 .052.036.052.08a.26.26 0 0 0 .074.153.58.58 0 0 1 .113.227c.021.084.063.153.093.153s.055.075.055.167c0 .111.027.167.083.167.052 0 .084.053.084.14 0 .086.032.139.084.139.055 0 .083.056.083.167 0 .111.028.167.084.167.046 0 .084.038.084.084 0 .046.025.083.056.083.03 0 .055.076.055.168 0 .111.028.167.084.167.052 0 .084.053.084.14 0 .078.037.156.083.174.047.018.084.092.084.165 0 .082.033.134.084.134.056 0 .084.055.084.167 0 .111.027.167.083.167.052 0 .084.053.084.14 0 .076.023.139.051.139.029 0 .068.075.088.167.021.092.058.167.084.167.026 0 .064.075.084.167.02.092.06.167.088.167.028 0 .051.036.051.08 0 .044.04.119.088.167.076.076.33.088 1.931.088h1.844l-.039-.153c-.021-.084-.059-.166-.085-.182-.026-.016-.064-.097-.085-.181-.021-.084-.058-.153-.082-.153s-.06-.063-.079-.14c-.019-.076-.06-.139-.09-.139s-.055-.05-.055-.111c0-.062-.037-.112-.083-.112-.052 0-.084-.052-.084-.139 0-.076-.023-.14-.051-.14-.029 0-.068-.074-.089-.166-.02-.092-.057-.168-.082-.168s-.061-.062-.08-.139c-.019-.076-.058-.14-.085-.14-.028 0-.067-.074-.087-.166-.021-.092-.06-.168-.088-.168-.029 0-.052-.037-.052-.083a.084.084 0 0 0-.084-.084c-.055 0-.083-.055-.083-.167 0-.111-.028-.167-.084-.167-.051 0-.084-.052-.084-.133 0-.074-.037-.148-.083-.166-.046-.017-.084-.095-.084-.173 0-.088-.031-.141-.084-.141-.052 0-.083-.053-.083-.14 0-.076-.024-.139-.052-.139-.028 0-.068-.075-.088-.167-.02-.092-.06-.167-.088-.167-.028 0-.051-.038-.051-.085 0-.047-.038-.1-.084-.118-.046-.017-.084-.092-.084-.165 0-.081-.032-.133-.084-.133-.055 0-.083-.056-.083-.168 0-.111-.028-.167-.084-.167-.051 0-.084-.052-.084-.133 0-.073-.037-.148-.083-.165-.046-.018-.084-.096-.084-.174 0-.088-.031-.14-.084-.14a.083.083 0 0 1-.083-.084c0-.046-.026-.084-.056-.084-.031 0-.056-.063-.056-.14 0-.079-.038-.156-.084-.174-.046-.018-.083-.092-.083-.165 0-.082-.033-.134-.084-.134-.056 0-.084-.056-.084-.167 0-.111-.028-.167-.084-.167-.051 0-.083-.052-.083-.133 0-.074-.038-.148-.084-.166-.046-.018-.084-.095-.084-.173 0-.088.032-.141.084-.141.056 0 .084-.056.084-.167 0-.112.028-.167.083-.167.053 0 .084-.053.084-.14 0-.086.032-.14.084-.14.046 0 .084-.049.084-.11 0-.062.024-.112.054-.112s.071-.063.09-.14c.019-.076.055-.139.08-.139s.062-.075.082-.167c.021-.092.058-.167.083-.167s.061-.063.08-.14c.019-.076.06-.139.09-.139s.054-.048.054-.107c0-.06.038-.145.084-.191.046-.046.084-.11.084-.143 0-.033.037-.06.083-.06.056 0 .084-.056.084-.167 0-.112.028-.167.084-.167.051 0 .084-.052.084-.134 0-.073.037-.147.083-.165.046-.018.084-.096.084-.173 0-.078.025-.141.056-.141.03 0 .056-.038.056-.084 0-.046.037-.083.083-.083.056 0 .084-.056.084-.168 0-.111.028-.167.084-.167.052 0 .083-.052.083-.14 0-.086.032-.138.084-.138.056 0 .084-.056.084-.168 0-.111.028-.167.083-.167.052 0 .084-.052.084-.133 0-.073.038-.148.084-.166a.138.138 0 0 0 .084-.117c0-.047.022-.085.049-.085.028 0 .066-.063.085-.14.019-.076.058-.139.085-.139.028 0 .067-.075.087-.167.021-.092.06-.167.089-.167.028 0 .051-.063.051-.14 0-.086.032-.139.084-.139.046 0 .083-.05.083-.111 0-.062.024-.112.052-.112.029 0 .07-.056.092-.125.021-.069.06-.14.086-.156.026-.016.054-.092.062-.167l.015-.137-1.674-.015c-.92-.009-1.73-.002-1.798.014a.236.236 0 0 0-.16.17c-.019.075-.057.138-.084.138-.028 0-.05.035-.05.08a.266.266 0 0 1-.074.153.58.58 0 0 0-.113.227c-.021.084-.063.153-.093.153s-.055.038-.055.085c0 .047-.038.1-.084.117-.046.018-.083.092-.083.166 0 .081-.033.133-.084.133-.056 0-.084.056-.084.167 0 .092-.024.167-.055.167-.03 0-.07.063-.089.14-.02.076-.056.14-.081.14s-.062.074-.082.166c-.02.092-.057.167-.082.167s-.061.063-.08.14c-.019.076-.06.139-.09.139s-.055.048-.055.107c0 .06-.037.146-.083.192a.295.295 0 0 0-.084.172.14.14 0 0 1-.084.122c-.046.017-.083.069-.083.113 0 .045-.038.12-.084.166a.315.315 0 0 0-.084.19c0 .06-.024.108-.055.108-.03 0-.07.063-.089.14-.02.076-.056.139-.081.139s-.062.075-.082.167c-.02.092-.057.167-.082.167s-.061.063-.08.14c-.019.076-.06.139-.09.139s-.055.075-.055.167c0 .111-.027.167-.083.167-.046 0-.084.025-.084.055s-.043.106-.096.167c-.086.1-.164.112-.725.112h-.63V5.74c0-1.708-.019-2.619-.056-2.619-.03 0-.055-.037-.055-.083 0-.073-.21-.083-1.577-.077-.867.003-1.62.018-1.674.032zm13.071 6.87v6.912l1.66-.015 1.66-.014.015-2.053c.012-1.652.03-2.067.091-2.129.061-.06.429-.08 1.795-.093 1.312-.012 1.723-.032 1.74-.086.014-.04.117-.07.242-.07.157 0 .219-.023.219-.083 0-.052.053-.083.143-.083a.367.367 0 0 0 .227-.084.317.317 0 0 1 .192-.084c.059 0 .107-.037.107-.083 0-.047.05-.084.115-.084.062 0 .172-.062.243-.14.071-.076.158-.138.193-.138s.063-.038.063-.084c0-.046.038-.084.084-.084a.084.084 0 0 0 .084-.083c0-.046.037-.084.083-.084a.084.084 0 0 0 .084-.083c0-.046.038-.084.084-.084a.083.083 0 0 0 .083-.083c0-.046.023-.084.05-.084.027 0 .066-.063.085-.14.019-.076.06-.139.09-.139s.054-.037.054-.083c0-.046.038-.084.084-.084.056 0 .084-.056.084-.167 0-.111.028-.167.083-.167.061 0 .084-.062.084-.223s.023-.223.084-.223c.062 0 .084-.064.084-.246 0-.147.028-.255.069-.27.054-.017.07-.349.07-1.406 0-1.058-.016-1.39-.07-1.407-.04-.014-.069-.117-.069-.242 0-.157-.024-.218-.084-.218-.059 0-.084-.059-.084-.195s-.025-.195-.084-.195c-.052 0-.083-.053-.083-.14 0-.076-.025-.139-.055-.139s-.07-.06-.089-.135c-.018-.074-.069-.149-.112-.165-.044-.017-.079-.06-.079-.095s-.1-.16-.223-.28c-.123-.119-.223-.253-.223-.299 0-.045-.063-.098-.14-.117-.077-.02-.139-.058-.139-.087 0-.028-.044-.067-.098-.087a.742.742 0 0 1-.215-.159.693.693 0 0 0-.237-.161c-.066-.021-.12-.062-.12-.09 0-.029-.064-.052-.141-.052-.078 0-.156-.038-.174-.084-.021-.054-.107-.083-.249-.083-.156 0-.217-.024-.217-.084 0-.066-.08-.084-.386-.084-.259 0-.394-.022-.409-.07-.018-.054-.717-.072-3.186-.085l-3.162-.017v6.913zm14.601-6.872c-.02.02-.037.094-.037.163s-.027.134-.059.145c-.033.011-.074.126-.091.256-.018.13-.051.235-.073.235-.023 0-.058.1-.077.223-.02.123-.061.223-.091.223s-.055.101-.055.225c0 .148-.029.235-.084.256-.055.021-.084.108-.084.25 0 .155-.023.216-.083.216-.061 0-.084.063-.084.227 0 .127-.037.264-.084.31a.401.401 0 0 0-.083.247c0 .09-.025.164-.056.164-.03 0-.071.1-.09.222-.02.123-.056.223-.081.223s-.063.113-.083.251c-.021.138-.06.25-.087.25-.028 0-.05.074-.05.164 0 .09-.038.2-.084.247a.408.408 0 0 0-.083.25.409.409 0 0 1-.084.251c-.046.046-.084.17-.084.277 0 .12-.031.205-.083.225-.055.021-.084.108-.084.25 0 .144-.029.23-.084.252-.046.017-.083.095-.083.173 0 .077-.022.14-.049.14-.027 0-.063.107-.08.236-.017.13-.058.245-.091.256-.033.01-.059.09-.059.178a.393.393 0 0 1-.084.242c-.046.046-.084.174-.084.284 0 .128-.031.213-.084.233-.054.021-.083.108-.083.25 0 .155-.024.216-.084.216-.061 0-.084.063-.084.227 0 .128-.036.264-.083.31a.393.393 0 0 0-.084.243c0 .087-.027.167-.059.178-.033.01-.074.126-.091.256-.018.13-.051.235-.073.235-.023 0-.058.1-.077.223-.02.123-.061.223-.091.223-.031 0-.055.073-.055.163 0 .09-.038.2-.084.247-.047.047-.084.183-.084.31 0 .165-.023.227-.084.227-.06 0-.083.061-.083.217 0 .141-.029.228-.084.25-.055.02-.084.108-.084.256 0 .123-.024.224-.055.224-.03 0-.071.1-.091.223-.019.123-.056.223-.081.223-.024 0-.062.113-.082.251-.021.138-.06.25-.088.25-.027 0-.049.076-.049.168 0 .111-.028.167-.084.167-.062 0-.083.065-.083.25v.252h1.729c1.672 0 1.73-.004 1.73-.108a.31.31 0 0 1 .084-.19c.046-.047.084-.184.084-.307 0-.124.037-.26.083-.307.047-.046.084-.182.084-.304 0-.145.029-.232.084-.253.058-.023.083-.114.083-.307 0-.192.025-.284.084-.306.055-.022.084-.109.084-.257 0-.124.023-.225.051-.225.028 0 .068-.075.088-.167l.037-.167h2.104c2.038 0 2.106.004 2.199.112a.573.573 0 0 1 .096.334c0 .16.024.223.084.223.064 0 .084.07.084.306 0 .235.019.307.083.307.061 0 .084.062.084.226 0 .128.037.264.084.311.049.05.084.185.084.33 0 .136.024.247.053.247.029 0 .07.094.092.209.021.115.066.227.1.25.034.023.808.041 1.721.042h1.661v-.25c0-.186-.022-.25-.084-.25-.055 0-.084-.056-.084-.163 0-.09-.027-.172-.059-.183-.033-.01-.074-.126-.091-.255-.018-.13-.051-.236-.073-.236-.023 0-.058-.1-.077-.223-.02-.122-.061-.223-.091-.223s-.055-.1-.055-.224c0-.148-.029-.236-.084-.257-.055-.02-.084-.107-.084-.249 0-.156-.023-.217-.083-.217-.06 0-.084-.061-.084-.217 0-.141-.029-.228-.084-.249-.055-.021-.083-.108-.083-.257 0-.123-.025-.224-.056-.224-.03 0-.071-.1-.09-.223-.02-.123-.057-.223-.081-.223-.025 0-.063-.113-.083-.25-.021-.139-.06-.251-.087-.251-.028 0-.05-.074-.05-.164 0-.09-.033-.196-.074-.237-.041-.04-.091-.174-.11-.296-.02-.122-.062-.23-.094-.24-.031-.011-.057-.118-.057-.238 0-.157-.023-.219-.083-.219-.062 0-.084-.064-.084-.25s-.022-.251-.084-.251c-.06 0-.083-.061-.083-.217 0-.141-.03-.228-.084-.249-.055-.021-.084-.108-.084-.257 0-.123-.025-.224-.056-.224-.03 0-.055-.064-.055-.141 0-.078-.038-.156-.084-.173-.055-.021-.084-.108-.084-.251 0-.143-.029-.23-.084-.25-.052-.02-.083-.106-.083-.226 0-.106-.038-.23-.084-.277a.409.409 0 0 1-.084-.25.408.408 0 0 0-.083-.251.401.401 0 0 1-.084-.247c0-.09-.025-.163-.055-.163-.031 0-.071-.1-.091-.223-.02-.123-.054-.223-.077-.223s-.056-.106-.073-.236c-.017-.13-.058-.244-.091-.255-.033-.01-.059-.091-.059-.178a.393.393 0 0 0-.084-.242c-.047-.047-.084-.184-.084-.31 0-.165-.023-.228-.084-.228-.06 0-.083-.061-.083-.217 0-.141-.029-.228-.084-.249-.053-.02-.084-.105-.084-.233 0-.11-.037-.238-.083-.284a.401.401 0 0 1-.084-.247c0-.09-.024-.163-.052-.163-.029 0-.07-.113-.09-.25-.021-.139-.058-.251-.083-.251s-.062-.076-.082-.168l-.037-.167h-1.772c-.974 0-1.788.017-1.809.037zm9.672 6.874v6.91l1.66-.015 1.66-.014.016-6.715c.009-3.693.002-6.796-.016-6.896l-.033-.18h-3.287v6.91zm6.343-6.874c-.021.02-.037 3.13-.037 6.91v6.873h3.348v-5.406h5.078v5.406h3.348l-.014-6.896-.014-6.896-1.66-.015-1.66-.014v5.574h-5.078V2.953h-1.637c-.9 0-1.654.017-1.674.037zm28.532 6.875v6.914l3.378-.017c2.389-.012 3.39-.035 3.418-.079.022-.034.164-.075.317-.092.152-.017.286-.058.298-.092.011-.033.093-.06.183-.06.107 0 .162-.03.162-.084 0-.056.056-.084.168-.084.111 0 .167-.028.167-.084 0-.046.038-.083.084-.083.046 0 .084-.023.084-.052 0-.029.054-.07.12-.09a.714.714 0 0 0 .244-.171c.067-.073.151-.133.186-.133s.063-.037.063-.083c0-.046.038-.084.084-.084a.084.084 0 0 0 .084-.084c0-.046.038-.083.084-.083a.083.083 0 0 0 .083-.084c0-.046.023-.083.05-.083.027 0 .066-.063.085-.14.019-.076.059-.139.09-.139.03 0 .054-.038.054-.085 0-.047.038-.1.084-.118.046-.017.084-.092.084-.165 0-.082.032-.133.083-.133.061 0 .084-.062.084-.223s.023-.223.084-.223c.061 0 .083-.065.083-.245 0-.166.027-.255.084-.277.071-.027.084-.232.084-1.367 0-1.113-.014-1.35-.084-1.419-.047-.047-.084-.183-.084-.31 0-.165-.023-.227-.083-.227-.056 0-.084-.056-.084-.167 0-.092-.025-.167-.055-.167s-.07-.063-.089-.14c-.02-.076-.056-.14-.081-.14s-.062-.074-.082-.166c-.02-.092-.06-.167-.088-.167-.028 0-.051-.038-.051-.084a.084.084 0 0 0-.084-.084.084.084 0 0 1-.084-.083.083.083 0 0 0-.083-.084c-.053 0-.084-.052-.084-.14 0-.086-.032-.138-.084-.138a.084.084 0 0 1-.084-.084.083.083 0 0 0-.083-.084.084.084 0 0 1-.084-.083c0-.052-.053-.084-.139-.084-.087 0-.14-.031-.14-.083a.084.084 0 0 0-.084-.084c-.046 0-.083-.023-.083-.051 0-.028-.076-.068-.168-.088-.092-.02-.167-.06-.167-.087 0-.028-.063-.066-.14-.085-.076-.02-.139-.058-.139-.085 0-.027-.076-.05-.169-.05-.099 0-.183-.034-.202-.083-.023-.06-.116-.084-.329-.084-.189 0-.327-.03-.38-.083-.071-.07-.332-.084-1.65-.084h-1.565l-.015-2.131-.015-2.132-1.66-.015-1.66-.014v6.913zm12.053-.002v6.91h1.642c.902 0 1.681-.016 1.729-.034.079-.03.089-.328.089-2.786V11.2h1.45v.168c0 .11.028.167.084.167.056 0 .084.055.084.167 0 .111.028.167.084.167.052 0 .083.053.083.14 0 .076.023.139.052.139.028 0 .068.075.088.167.02.092.057.167.082.167s.061.063.08.14c.019.076.06.139.09.139s.055.075.055.167c0 .111.028.167.083.167.056 0 .084.056.084.167 0 .111.028.167.084.167.051 0 .083.052.083.134 0 .073.038.147.084.165.046.018.084.095.084.173 0 .088.031.141.084.141.055 0 .083.056.083.167 0 .092.025.168.055.168s.07.062.09.139c.019.076.055.14.08.14s.062.074.082.166c.02.092.06.168.088.168.029 0 .052.038.052.085 0 .047.037.1.083.117.046.018.084.092.084.166 0 .073.025.133.055.133s.072.069.093.153a.579.579 0 0 0 .113.226c.04.041.074.11.074.154s.023.08.051.08c.028 0 .068.075.088.167.021.092.059.167.085.167.026 0 .055.07.065.154l.018.153 1.917.014 1.917.015-.038-.154c-.021-.085-.061-.162-.09-.172-.028-.01-.051-.055-.051-.098 0-.043-.038-.079-.084-.079-.056 0-.084-.056-.084-.167 0-.111-.028-.167-.083-.167-.052 0-.084-.052-.084-.134 0-.073-.038-.147-.084-.165-.046-.018-.084-.095-.084-.173 0-.088-.031-.141-.083-.141-.052 0-.084-.053-.084-.14 0-.076-.025-.139-.056-.139-.03 0-.056-.038-.056-.085 0-.047-.037-.1-.083-.118-.046-.017-.084-.092-.084-.165 0-.081-.033-.133-.084-.133-.055 0-.083-.056-.083-.168 0-.11-.028-.167-.084-.167-.056 0-.084-.055-.084-.167 0-.111-.028-.167-.083-.167-.053 0-.084-.053-.084-.14 0-.086-.032-.139-.084-.139-.046 0-.084-.05-.084-.111s-.024-.111-.054-.111-.071-.063-.09-.14c-.019-.076-.057-.14-.085-.14-.027 0-.05-.063-.05-.14 0-.078-.037-.156-.083-.173-.046-.018-.084-.092-.084-.166 0-.081-.033-.133-.084-.133-.055 0-.083-.056-.083-.167 0-.112-.028-.167-.084-.167-.051 0-.084-.052-.084-.134 0-.073-.037-.147-.083-.165a.136.136 0 0 1-.084-.118c0-.046-.025-.085-.055-.085s-.07-.063-.09-.14c-.019-.076-.055-.139-.08-.139s-.062-.075-.082-.167c-.02-.092-.06-.167-.088-.167-.028 0-.052-.063-.052-.14 0-.086-.031-.139-.083-.139-.056 0-.084-.055-.084-.167 0-.111-.028-.167-.084-.167a.083.083 0 0 1-.083-.083c0-.046-.023-.084-.05-.084-.027 0-.066-.066-.087-.146a.58.58 0 0 0-.117-.227c-.107-.106-.105-.401.003-.443.046-.017.083-.092.083-.165 0-.081.033-.133.084-.133.056 0 .084-.056.084-.168 0-.111.028-.167.083-.167.052 0 .084-.052.084-.14 0-.086.032-.138.084-.138.056 0 .083-.056.083-.168 0-.111.028-.167.084-.167a.084.084 0 0 0 .084-.083c0-.046.025-.084.056-.084.03 0 .055-.063.055-.14 0-.079.038-.156.084-.174.046-.018.084-.092.084-.166 0-.076.033-.133.078-.133.042 0 .093-.063.112-.14.019-.076.06-.138.09-.138s.055-.05.055-.112c0-.061.024-.111.054-.111s.071-.063.09-.14c.019-.076.056-.139.08-.139.025 0 .062-.075.083-.167.02-.092.057-.167.082-.167s.061-.063.08-.14c.019-.076.06-.139.09-.139s.054-.05.054-.111c0-.062.038-.112.084-.112.052 0 .084-.052.084-.14 0-.086.031-.138.084-.138.055 0 .083-.056.083-.168 0-.111.028-.167.084-.167.051 0 .084-.052.084-.133 0-.073.037-.148.083-.166a.138.138 0 0 0 .084-.117c0-.047.022-.085.05-.085.027 0 .065-.063.085-.14.019-.076.057-.139.085-.139.027 0 .067-.075.087-.167.02-.092.057-.167.082-.167s.061-.063.08-.14c.02-.076.06-.139.09-.139s.055-.075.055-.167c0-.111.028-.167.084-.167a.081.081 0 0 0 .083-.08c0-.043.025-.086.054-.097.03-.01.062-.08.07-.158l.016-.139-1.795-.015-1.795-.014-.037.168c-.02.092-.06.168-.087.168-.028 0-.066.062-.086.139-.019.077-.055.14-.08.14s-.062.074-.082.166c-.02.092-.06.168-.088.168-.028 0-.052.037-.052.083a.083.083 0 0 1-.083.084c-.056 0-.084.055-.084.167 0 .111-.028.167-.084.167-.055 0-.083.056-.083.167 0 .112-.028.167-.084.167-.052 0-.084.053-.084.14 0 .076-.023.14-.051.14-.028 0-.068.074-.088.166-.02.092-.057.167-.082.167s-.061.063-.081.14c-.019.076-.059.139-.089.139-.031 0-.055.048-.055.107 0 .06-.038.146-.084.192-.046.045-.084.12-.084.165a.132.132 0 0 1-.083.113.14.14 0 0 0-.084.122.296.296 0 0 1-.084.173.314.314 0 0 0-.083.19c0 .06-.025.108-.055.108s-.071.063-.09.14c-.019.076-.055.139-.08.139s-.062.075-.082.167c-.02.092-.057.167-.082.167s-.061.063-.081.14c-.019.076-.059.139-.089.139-.031 0-.055.075-.055.167 0 .111-.028.167-.084.167-.046 0-.084.025-.084.055s-.043.106-.096.167c-.085.1-.164.112-.725.112h-.629v-2.59c0-2.37-.009-2.6-.096-2.703-.093-.107-.163-.112-1.73-.112h-1.634v6.91zm13.169 0v6.91H203v-2.898h-5.58v-2.508h2.065c1.798 0 2.064-.01 2.064-.083 0-.046.038-.084.084-.084.072 0 .084-.185.084-1.337 0-.854-.021-1.337-.056-1.337-.031 0-.056-.038-.056-.084 0-.073-.27-.084-2.094-.084h-2.093l.015-1.184.015-1.184 2.602-.014 2.602-.015.034-.125c.044-.163.044-2.594 0-2.757l-.034-.126h-8.524v6.91zM0 14.13c0 9.563.01 10.852.084 10.925.06.06.083.204.083.498 0 .228.024.414.052.414.029 0 .07.138.09.306.021.169.058.307.082.307.023 0 .06.138.08.306.022.169.06.307.084.307.024 0 .06.1.08.223.02.122.06.223.091.223.03 0 .055.075.055.167 0 .111.028.167.084.167.056 0 .084.056.084.167 0 .111.027.167.083.167.056 0 .084.056.084.167 0 .112.028.168.084.168.052 0 .083.052.083.139 0 .077.024.14.052.14.028 0 .068.074.088.166.02.092.06.168.088.168.028 0 .051.037.051.083 0 .046.038.084.084.084.052 0 .084.052.084.14 0 .078.037.156.083.174.047.017.084.067.084.11 0 .042.038.077.084.077.052 0 .084.053.084.14 0 .086.031.139.083.139.046 0 .084.037.084.083 0 .046.038.084.084.084.046 0 .083.038.083.084 0 .046.026.083.056.083.03 0 .056.036.056.08 0 .043.075.154.167.246.092.092.168.194.168.227s.037.06.083.06c.047 0 .084.038.084.084 0 .046.038.083.084.083.046 0 .084.038.084.084 0 .046.027.083.06.083s.173.113.311.251.287.25.33.25c.044 0 .08.026.08.057 0 .03.037.055.083.055.047 0 .084.038.084.084 0 .046.038.084.084.084.046 0 .084.037.084.083 0 .046.037.084.083.084.046 0 .084.023.084.052 0 .028.054.069.12.09a.696.696 0 0 1 .24.167.66.66 0 0 0 .27.166c.083.021.151.06.151.088 0 .027.038.05.084.05.046 0 .084.037.084.083 0 .052.052.084.14.084.079 0 .157.038.174.083.018.046.092.084.166.084.081 0 .133.033.133.084 0 .052.054.083.144.083.079 0 .181.038.227.084a.316.316 0 0 0 .191.083c.06 0 .108.024.108.054 0 .029.088.07.195.09.108.02.196.058.196.085 0 .028.076.05.169.05.099 0 .182.035.201.084.021.054.108.083.25.083.155 0 .217.024.217.084 0 .064.07.083.306.083s.307.02.307.084c0 .065.074.084.33.084.196 0 .34.025.352.062.012.039.233.074.562.092.298.015.542.05.542.076 0 .026 1.143.048 2.539.048 1.396 0 2.539-.021 2.539-.047 0-.027.244-.063.543-.08.306-.019.551-.059.562-.092.011-.033.156-.06.322-.06.232 0 .303-.02.303-.083 0-.064.07-.084.306-.084s.307-.02.307-.083c0-.062.066-.084.252-.084.185 0 .25-.022.25-.084 0-.06.063-.083.224-.083.123 0 .223-.023.223-.051 0-.029.075-.068.167-.088.092-.02.168-.058.168-.084 0-.026.075-.063.167-.084.092-.02.168-.06.168-.087 0-.029.062-.052.14-.052.086 0 .139-.031.139-.083 0-.056.055-.084.167-.084.112 0 .167-.028.167-.084 0-.05.052-.083.134-.083.073 0 .148-.038.166-.084a.137.137 0 0 1 .117-.083c.047 0 .086-.025.086-.055s.062-.07.14-.09c.076-.019.139-.057.139-.084 0-.028.037-.05.083-.05a.082.082 0 0 0 .084-.08c0-.043.075-.095.167-.115.092-.02.168-.06.168-.088 0-.028.037-.051.083-.051a.084.084 0 0 0 .084-.084c0-.046.038-.083.084-.083a.084.084 0 0 0 .084-.084c0-.046.037-.084.083-.084.046 0 .084-.024.084-.054s.063-.07.14-.09c.076-.02.139-.07.139-.112 0-.043.038-.078.084-.078a.084.084 0 0 0 .083-.084c0-.046.027-.083.06-.083.077 0 .22-.142.22-.22 0-.032.037-.059.083-.059a.084.084 0 0 0 .084-.083c0-.046.037-.084.083-.084a.084.084 0 0 0 .084-.084c0-.046.035-.083.078-.083s.093-.063.113-.14c.019-.076.06-.139.09-.139s.054-.037.054-.083c0-.046.038-.084.084-.084a.084.084 0 0 0 .083-.083c0-.046.038-.084.084-.084a.084.084 0 0 0 .084-.084c0-.046.022-.083.05-.083.027 0 .065-.063.084-.14.02-.076.06-.139.09-.139s.055-.038.055-.085c0-.047.037-.1.084-.117.046-.018.083-.093.083-.166 0-.081.033-.133.084-.133a.084.084 0 0 0 .084-.084c0-.046.037-.084.083-.084.056 0 .084-.055.084-.167 0-.111.028-.167.084-.167.052 0 .083-.052.083-.14 0-.076.023-.138.052-.138.028 0 .068-.076.088-.168.02-.091.06-.167.088-.167.028 0 .051-.063.051-.14 0-.078.038-.156.084-.174.047-.018.084-.1.084-.19a.39.39 0 0 1 .084-.24.35.35 0 0 0 .083-.216c0-.073.037-.182.082-.241.045-.06.083-.2.084-.311 0-.128.033-.215.085-.235.06-.023.084-.117.084-.336 0-.168.027-.313.06-.324.033-.01.074-.226.092-.478.017-.252.053-.458.08-.458.026 0 .047-4.855.047-10.838V3.288H17.91l.037 7.425c.02 4.084.059 7.433.085 7.443.075.03.06 5.568-.015 5.593-.037.013-.074.236-.092.547-.019.33-.058.553-.105.6-.042.042-.076.15-.076.239 0 .09-.023.163-.051.163-.028 0-.068.075-.088.167-.02.092-.06.168-.088.168-.029 0-.052.062-.052.139 0 .087-.031.14-.083.14-.046 0-.084.047-.084.107a.31.31 0 0 1-.084.19c-.046.047-.083.111-.083.144 0 .033-.038.06-.084.06a.084.084 0 0 0-.084.083.084.084 0 0 1-.084.084c-.046 0-.083.027-.083.06s-.074.133-.163.223c-.09.09-.19.163-.223.163-.034 0-.06.037-.06.083a.084.084 0 0 1-.084.084.084.084 0 0 0-.084.083.084.084 0 0 1-.084.084c-.046 0-.083.024-.083.055 0 .03-.061.07-.136.088-.074.019-.149.07-.165.113-.017.043-.094.078-.172.078-.078 0-.141.023-.141.052 0 .028-.076.067-.168.088-.092.02-.167.06-.167.088 0 .028-.064.05-.141.05-.078 0-.156.038-.174.084-.023.06-.117.084-.333.084-.23 0-.3.02-.3.084 0 .125-2.65.125-2.7 0-.022-.059-.113-.084-.306-.084s-.284-.025-.307-.084c-.019-.048-.102-.083-.201-.083-.093 0-.17-.022-.17-.05 0-.027-.062-.065-.139-.084-.077-.02-.14-.058-.14-.086 0-.027-.075-.066-.167-.087-.092-.02-.167-.06-.167-.088 0-.028-.038-.05-.084-.05a.084.084 0 0 1-.084-.084c0-.052-.052-.084-.14-.084-.086 0-.139-.032-.139-.084a.084.084 0 0 0-.083-.083.084.084 0 0 1-.084-.084.084.084 0 0 0-.084-.083.084.084 0 0 1-.083-.084c0-.046-.027-.084-.06-.084-.072 0-.387-.304-.387-.373 0-.026-.05-.09-.111-.143-.062-.052-.112-.133-.112-.18 0-.046-.022-.084-.05-.084-.027 0-.065-.062-.085-.139-.019-.077-.06-.14-.09-.14s-.054-.075-.054-.166c0-.112-.028-.168-.084-.168-.052 0-.083-.053-.083-.143a.367.367 0 0 0-.084-.227c-.049-.048-.084-.185-.084-.325 0-.145-.028-.252-.07-.266-.055-.018-.072-2.202-.084-10.62L7.588 3.288H0V14.13zM37.752 3.538c-.021.138-.058.251-.083.251s-.062.1-.081.223c-.02.123-.06.223-.091.223-.03 0-.055.101-.055.225 0 .148-.029.235-.084.256-.052.02-.084.105-.084.225 0 .107-.037.231-.083.277a.409.409 0 0 0-.084.25.408.408 0 0 1-.084.252c-.046.046-.084.18-.084.297 0 .118-.026.224-.059.234-.033.011-.074.126-.09.256-.018.13-.053.235-.078.235-.024 0-.062.113-.082.251-.021.138-.06.251-.087.251-.028 0-.05.073-.05.163a.4.4 0 0 1-.084.247c-.047.047-.083.183-.083.31 0 .165-.023.227-.084.227-.062 0-.084.065-.084.251s-.021.25-.083.25c-.06 0-.084.062-.084.219 0 .12-.027.227-.06.238-.032.01-.073.126-.09.255-.018.13-.051.236-.074.236s-.06.113-.08.25c-.02.139-.058.252-.083.252s-.058.116-.074.257c-.016.142-.053.274-.082.293-.03.019-.07.135-.089.257-.02.123-.06.231-.092.242-.032.01-.057.117-.057.237 0 .157-.024.218-.084.218-.062 0-.084.065-.084.25 0 .187-.021.252-.083.252s-.084.065-.084.25c0 .138-.022.251-.049.251-.026 0-.065.1-.084.223-.02.123-.057.223-.084.223-.026 0-.062.106-.079.236s-.058.244-.091.255c-.033.01-.06.119-.06.24 0 .144-.028.23-.083.252-.052.02-.084.105-.084.225 0 .106-.038.23-.084.276-.049.05-.083.186-.083.33 0 .183-.022.248-.084.248-.06 0-.084.061-.084.218 0 .12-.026.227-.06.238-.032.01-.073.126-.09.255-.018.13-.053.236-.08.236-.026 0-.063.1-.083.223-.02.122-.058.223-.084.223-.027 0-.05.086-.05.19 0 .106-.037.23-.083.275-.047.047-.084.183-.084.31 0 .165-.023.228-.083.228-.06 0-.084.061-.084.217 0 .141-.029.228-.084.249-.054.02-.083.108-.083.252 0 .12-.027.229-.06.24-.032.01-.073.125-.09.255-.018.13-.051.236-.074.236-.022 0-.057.1-.077.222-.02.123-.057.223-.083.223-.027 0-.061.13-.076.29-.016.16-.057.3-.091.312-.035.011-.063.092-.063.18a.392.392 0 0 1-.084.241c-.047.047-.084.183-.084.31 0 .165-.023.227-.083.227-.062 0-.084.066-.084.251 0 .186-.022.251-.084.251-.06 0-.083.062-.083.223 0 .123-.022.223-.049.223-.026 0-.062.104-.08.23-.016.128-.053.247-.082.265-.028.019-.067.134-.086.257-.02.122-.061.23-.093.241-.03.01-.057.117-.057.237 0 .157-.023.219-.083.219-.061 0-.084.062-.084.227 0 .127-.037.263-.084.31-.046.046-.084.18-.084.297 0 .137-.029.224-.083.245-.055.02-.084.107-.084.252 0 .12-.027.229-.06.24-.032.01-.073.125-.09.255-.018.13-.054.235-.08.235-.026 0-.064.1-.083.223-.02.123-.055.223-.077.223-.023 0-.056.106-.073.236-.018.13-.059.244-.091.255-.033.011-.06.118-.06.238 0 .157-.023.218-.083.218-.062 0-.084.066-.084.251 0 .186-.022.25-.084.25-.062 0-.083.066-.083.252 0 .138-.025.25-.056.25-.03 0-.07.1-.09.223-.02.123-.055.223-.078.223-.024 0-.06.138-.081.307-.021.168-.058.306-.083.306-.024 0-.058.106-.076.236-.017.13-.058.244-.09.255-.034.011-.06.091-.06.178a.392.392 0 0 1-.084.243c-.047.047-.084.183-.084.31 0 .165-.023.227-.083.227-.06 0-.084.061-.084.217 0 .141-.03.228-.084.249-.055.02-.083.108-.083.252 0 .121-.027.229-.06.24-.033.01-.074.126-.09.255-.018.13-.054.236-.081.236-.027 0-.048.073-.048.163a.4.4 0 0 1-.084.247c-.047.047-.084.183-.084.31 0 .165-.023.227-.084.227-.059 0-.084.061-.085.209a.637.637 0 0 1-.084.317.62.62 0 0 0-.082.315c0 .131-.03.217-.083.238-.055.021-.084.108-.084.252 0 .121-.026.229-.057.24-.032.01-.073.112-.091.227l-.034.208h7.924l.036-.223c.02-.122.057-.223.083-.223.027 0 .06-.13.076-.29.016-.16.056-.3.091-.311.035-.011.063-.132.063-.267 0-.182.022-.246.084-.246.06 0 .083-.063.083-.227 0-.127.037-.264.084-.31.05-.05.084-.186.084-.33 0-.183.022-.248.083-.248.062 0 .084-.065.084-.25 0-.138.023-.251.05-.251.029 0 .069-.125.09-.279.02-.153.057-.278.081-.278s.058-.106.075-.236c.017-.13.058-.244.091-.255.033-.011.06-.13.06-.266 0-.182.022-.246.083-.246.064 0 .084-.072.084-.307s.02-.306.084-.306c.06 0 .083-.063.083-.227 0-.128.037-.264.084-.31.049-.05.084-.185.084-.326 0-.134.026-.251.06-.262.032-.011.073-.126.09-.256.018-.13.05-.235.073-.235.023 0 .057-.1.077-.223.02-.123.06-.223.091-.223.03 0 .055-.111.055-.247 0-.145.035-.281.084-.33.047-.047.084-.183.084-.31 0-.165.023-.227.083-.227.064 0 .084-.071.084-.301 0-.216.023-.31.084-.333.054-.02.083-.107.083-.252 0-.12.027-.229.06-.24.032-.01.073-.125.09-.255.018-.13.052-.235.077-.235.024 0 .062-.138.083-.307.02-.169.06-.306.087-.306.028 0 .05-.074.05-.164 0-.09.037-.2.083-.246.047-.047.084-.183.084-.307s.037-.26.084-.306c.047-.047.084-.183.084-.31 0-.165.023-.228.083-.228.06 0 .084-.062.084-.226 0-.128.037-.264.084-.311.048-.049.083-.185.083-.326 0-.133.027-.25.06-.262.032-.01.073-.125.09-.255.018-.13.051-.236.074-.236s.054-.13.069-.29c.015-.16.056-.3.09-.31.035-.012.064-.093.064-.18 0-.088.037-.197.083-.242.047-.047.084-.176.084-.287 0-.112.038-.24.084-.287.048-.048.084-.184.084-.324 0-.163.027-.251.083-.273.055-.021.084-.108.084-.252 0-.121.027-.229.06-.24.032-.01.073-.126.09-.255.018-.13.052-.236.077-.236.024 0 .061-.138.082-.306.021-.169.06-.307.088-.307.027 0 .05-.1.05-.224 0-.149.028-.236.083-.257.054-.02.084-.107.084-.245 0-.117.037-.25.083-.297.047-.046.084-.182.084-.305s.027-.232.06-.243c.032-.01.073-.125.09-.255.018-.13.052-.236.077-.236.024 0 .061-.138.082-.306.021-.169.058-.306.082-.306.023 0 .06-.113.08-.251.021-.138.059-.251.083-.251.025 0 .058-.13.074-.29.015-.16.056-.3.09-.311.035-.012.063-.12.063-.241 0-.144.03-.231.084-.252.057-.022.084-.112.084-.284 0-.233.009-.249.125-.217.07.018.145.034.168.034.023 0 .041.114.041.252 0 .137.023.25.051.25.028 0 .068.126.089.279.021.153.058.278.082.278.023 0 .057.107.075.236.017.13.058.245.09.255.033.011.06.13.06.262 0 .141.035.277.084.326.047.047.083.183.083.31 0 .165.023.227.084.227.062 0 .084.065.084.247 0 .135.027.255.061.266.034.011.075.145.092.297s.054.292.082.31c.029.02.066.138.083.265.017.128.051.231.076.231.024 0 .061.138.082.307.021.169.061.306.088.306.027 0 .05.102.05.225 0 .148.028.235.083.257.057.021.084.11.084.273 0 .14.035.276.084.324.047.047.083.183.083.31 0 .165.023.227.084.227.063 0 .084.068.084.274 0 .151.026.283.06.294.032.01.073.126.09.255.018.13.05.236.074.236.023 0 .06.138.08.306.021.17.059.307.083.307.024 0 .059.106.076.236s.058.244.091.255c.033.01.06.13.06.266 0 .182.021.246.083.246.065 0 .084.071.084.306 0 .236.02.307.084.307.06 0 .083.062.083.227 0 .127.037.263.084.31.049.049.084.185.084.326 0 .133.026.251.06.262.032.01.073.126.09.255.018.13.05.236.073.236.023 0 .054.13.07.29.015.16.056.3.09.311.035.012.063.12.063.241 0 .144.029.231.084.252.053.02.084.107.084.239a.62.62 0 0 0 .081.314c.045.06.083.2.084.313.001.112.03.213.063.224.034.011.075.145.092.297.017.153.054.292.082.311.029.019.066.138.083.265s.05.23.073.23c.022 0 .055.107.072.236.018.13.059.245.091.256.033.01.06.128.06.262 0 .14.035.277.083.325.047.047.084.183.084.31 0 .165.023.228.084.228.064 0 .084.07.084.306 0 .235.019.306.083.306.062 0 .084.065.084.247 0 .135.028.255.061.266.034.011.075.145.092.297.017.153.054.292.082.31.029.02.066.139.083.266s.05.23.073.23c.023 0 .054.131.069.29.015.16.056.3.09.312.035.011.064.119.064.239 0 .157.023.218.083.218.064 0 .084.07.084.3 0 .216.024.31.084.333.055.021.084.108.084.252 0 .121.026.23.059.24.033.011.073.126.09.256.018.13.052.235.075.235s.059.138.08.307c.021.168.058.306.083.306.024 0 .058.1.074.221.056.42-.234.392 4.002.392h3.802l-.039-.125c-.021-.07-.06-.134-.087-.144-.027-.01-.049-.13-.049-.265 0-.182-.021-.246-.083-.246-.06 0-.084-.062-.084-.227 0-.127-.037-.264-.084-.31-.046-.046-.083-.18-.083-.297 0-.138-.03-.224-.084-.245-.055-.02-.084-.108-.084-.252 0-.121-.026-.229-.06-.24-.032-.01-.073-.126-.09-.255-.018-.13-.05-.236-.073-.236-.023 0-.057-.1-.077-.223-.02-.122-.06-.223-.091-.223-.03 0-.055-.1-.055-.224 0-.149-.029-.236-.084-.257-.052-.02-.084-.107-.085-.235a.621.621 0 0 0-.084-.311.621.621 0 0 1-.082-.315c0-.131-.03-.217-.084-.238-.055-.021-.083-.108-.083-.257 0-.123-.025-.224-.055-.224s-.072-.1-.091-.223c-.02-.123-.056-.223-.081-.223s-.062-.113-.083-.25c-.02-.139-.06-.252-.087-.252-.027 0-.05-.1-.05-.224 0-.148-.028-.236-.083-.257-.055-.02-.084-.107-.084-.249 0-.156-.024-.217-.084-.217-.06 0-.084-.062-.084-.227 0-.127-.036-.263-.083-.31-.049-.049-.084-.185-.084-.325 0-.162-.027-.25-.084-.273-.052-.02-.083-.105-.083-.228 0-.109-.024-.197-.053-.197-.029 0-.069-.113-.09-.25-.02-.139-.056-.252-.08-.252-.023 0-.056-.106-.073-.235-.018-.13-.059-.245-.091-.256-.033-.01-.06-.118-.06-.238 0-.157-.023-.218-.083-.218-.062 0-.084-.065-.084-.25 0-.186-.022-.251-.084-.251-.06 0-.084-.063-.084-.227 0-.128-.036-.264-.083-.31-.046-.047-.084-.183-.084-.303s-.023-.22-.052-.22c-.03 0-.07-.112-.09-.25-.021-.138-.057-.25-.08-.25s-.056-.107-.074-.236c-.017-.13-.058-.245-.09-.256-.034-.01-.06-.09-.06-.178a.393.393 0 0 0-.084-.242c-.047-.047-.084-.183-.084-.31 0-.165-.023-.227-.083-.227-.061 0-.084-.063-.084-.227 0-.128-.037-.264-.084-.31a.393.393 0 0 1-.084-.243c0-.087-.028-.168-.062-.18-.035-.01-.076-.15-.091-.31s-.05-.29-.076-.29c-.027 0-.064-.101-.084-.224-.02-.122-.057-.223-.084-.223-.027 0-.049-.085-.049-.19 0-.106-.038-.23-.084-.275-.047-.047-.083-.183-.083-.31 0-.165-.023-.227-.084-.227-.06 0-.084-.062-.084-.217 0-.142-.029-.229-.083-.25-.055-.02-.084-.107-.084-.252 0-.12-.027-.228-.06-.24-.032-.01-.073-.125-.09-.255-.018-.13-.052-.235-.075-.235-.024 0-.06-.126-.082-.279-.021-.153-.058-.279-.082-.279-.023 0-.057-.106-.075-.235-.017-.13-.058-.245-.09-.256-.033-.01-.06-.118-.06-.24 0-.143-.029-.23-.084-.251-.054-.021-.083-.108-.083-.25 0-.155-.024-.216-.084-.216-.06 0-.084-.063-.084-.227 0-.128-.036-.264-.083-.31-.046-.047-.084-.17-.084-.275 0-.105-.022-.191-.049-.191-.027 0-.065-.1-.084-.223-.02-.123-.057-.223-.084-.223-.026 0-.06-.13-.076-.29-.015-.16-.056-.3-.09-.311-.035-.012-.063-.093-.063-.18a.393.393 0 0 0-.084-.242c-.047-.047-.084-.183-.084-.31 0-.165-.023-.227-.084-.227-.06 0-.083-.063-.083-.227 0-.128-.037-.264-.084-.31a.409.409 0 0 1-.084-.252.409.409 0 0 0-.083-.25.401.401 0 0 1-.084-.247c0-.09-.022-.163-.05-.163-.027 0-.066-.113-.087-.25-.02-.139-.06-.252-.09-.252-.029 0-.052-.098-.052-.219 0-.12-.038-.256-.084-.302-.047-.047-.084-.183-.084-.31 0-.165-.023-.227-.083-.227-.062 0-.084-.065-.084-.251s-.022-.25-.084-.25c-.06 0-.083-.062-.083-.22 0-.12-.027-.226-.06-.237-.032-.011-.073-.126-.09-.256-.018-.13-.051-.235-.075-.235-.023 0-.059-.113-.08-.25-.02-.139-.06-.252-.09-.252-.028 0-.052-.088-.052-.196 0-.124-.03-.21-.083-.23-.057-.021-.084-.11-.084-.272 0-.14-.035-.276-.084-.325-.047-.047-.083-.183-.083-.31 0-.165-.023-.227-.084-.227-.06 0-.084-.061-.084-.217 0-.141-.029-.228-.084-.249-.055-.021-.083-.108-.083-.257 0-.123-.023-.224-.05-.224-.027 0-.066-.113-.087-.251-.02-.138-.061-.25-.09-.25-.029 0-.052-.063-.052-.14v-.14h-8.86l-.038.251zm27.825 1.897c-.048.054-.183.082-.405.082-.183 0-.332.022-.332.049 0 .027-.114.066-.252.087-.138.02-.25.061-.25.09 0 .029-.062.052-.136.052a.355.355 0 0 0-.22.084.368.368 0 0 1-.227.083c-.079 0-.143.032-.143.071 0 .04-.113.121-.25.182-.139.06-.252.14-.252.18 0 .038-.038.069-.084.069-.046 0-.084.023-.084.052 0 .028-.054.069-.12.09a.71.71 0 0 0-.244.17c-.067.074-.151.134-.186.134s-.064.037-.064.083a.084.084 0 0 1-.083.084.084.084 0 0 0-.084.083c0 .046-.023.084-.052.084-.029 0-.07.054-.09.12a.695.695 0 0 1-.161.237.734.734 0 0 0-.16.214c-.02.054-.062.098-.093.098-.032 0-.058.062-.058.139 0 .087-.031.14-.083.14-.056 0-.084.055-.084.166 0 .112-.028.168-.084.168-.053 0-.084.053-.084.143 0 .079-.037.18-.083.227a.392.392 0 0 0-.084.242c0 .087-.03.168-.066.18-.04.014-.076.176-.09.395-.014.205-.047.373-.074.373-.027 0-.049.389-.049.864s.022.863.049.863c.027 0 .06.143.075.318.015.175.056.327.09.339.036.012.065.093.065.18s.038.196.084.242a.367.367 0 0 1 .084.227c0 .09.03.143.083.143.056 0 .084.056.084.167 0 .112.028.167.084.167.047 0 .083.05.083.114 0 .063.06.17.132.237a.736.736 0 0 1 .175.26c.048.152.486.615.582.615.033 0 .06.038.06.084 0 .046.037.083.084.083.046 0 .083.038.083.084 0 .046.038.084.084.084.046 0 .084.024.084.054s.063.07.14.09c.076.02.139.07.139.112 0 .043.037.078.083.078.046 0 .084.023.084.051 0 .028.075.068.167.088.092.02.168.06.168.087 0 .028.063.066.14.085.076.02.139.058.139.085 0 .027.075.05.167.05.112 0 .168.028.168.083 0 .062.065.084.25.084.187 0 .252.022.252.084 0 .066.08.083.39.083s.391.017.391.084c0 .07.124.083.781.083s.781-.013.781-.083c0-.067.081-.084.391-.084s.39-.017.39-.084c0-.061.066-.083.252-.083s.25-.022.25-.084c0-.055.057-.083.168-.083.092 0 .168-.025.168-.055s.062-.07.14-.09c.076-.019.139-.057.139-.084 0-.027.038-.05.085-.05.047 0 .1-.037.118-.083.017-.046.092-.084.165-.084.082 0 .134-.033.134-.084 0-.046.037-.083.084-.083a.084.084 0 0 0 .083-.084c0-.046.038-.083.084-.083.046 0 .084-.025.084-.055s.062-.07.14-.09c.076-.019.139-.07.139-.112 0-.043.035-.078.077-.078.043 0 .094-.062.113-.139.02-.077.06-.14.09-.14s.055-.037.055-.083c0-.046.037-.084.083-.084a.084.084 0 0 0 .084-.083c0-.046.037-.084.084-.084a.084.084 0 0 0 .083-.083c0-.046.023-.084.05-.084.027 0 .066-.063.085-.14.019-.076.06-.138.09-.138s.054-.049.054-.108.038-.145.084-.191a.327.327 0 0 0 .084-.2c0-.065.037-.132.083-.15.048-.018.084-.101.084-.193 0-.106.029-.162.084-.162.06 0 .084-.06.084-.218 0-.12.03-.228.066-.24.039-.013.076-.175.09-.395.013-.205.046-.372.073-.372.027 0 .05-.326.05-.725 0-.398-.022-.724-.05-.724-.026 0-.06-.143-.075-.318-.014-.174-.055-.327-.09-.339-.036-.011-.064-.12-.064-.24 0-.156-.024-.218-.084-.218-.06 0-.084-.062-.084-.223 0-.16-.023-.222-.084-.222-.055 0-.083-.056-.083-.168 0-.111-.028-.167-.084-.167a.084.084 0 0 1-.084-.083c0-.046-.022-.084-.05-.084-.027 0-.065-.063-.084-.14-.02-.076-.06-.139-.09-.139s-.055-.038-.055-.085c0-.047-.037-.1-.081-.116-.045-.018-.099-.086-.12-.152a.705.705 0 0 0-.17-.243c-.072-.067-.13-.149-.13-.181s-.039-.058-.085-.058c-.046 0-.083-.025-.083-.056 0-.03-.038-.056-.084-.056-.046 0-.084-.035-.084-.077 0-.043-.063-.094-.14-.113-.076-.02-.139-.06-.139-.09s-.037-.054-.083-.054c-.047 0-.084-.035-.084-.078 0-.042-.063-.093-.14-.112-.076-.02-.14-.06-.14-.09s-.05-.054-.11-.054c-.062 0-.112-.025-.112-.055s-.07-.072-.153-.093a.583.583 0 0 1-.227-.113c-.041-.04-.148-.074-.238-.074s-.163-.025-.163-.055-.101-.071-.224-.09c-.123-.02-.223-.055-.223-.079 0-.023-.18-.052-.4-.064-.246-.014-.41-.05-.424-.09-.035-.106-1.246-.089-1.34.018zm50.04.61c0 .053.053.085.14.085.087 0 .139.031.139.083 0 .046.038.084.084.084.046 0 .084.037.084.083 0 .046.035.084.079.084s.096.075.116.167c.02.092.06.167.088.167.028 0 .052.1.052.223 0 .161.023.223.083.223.068 0 .084.09.084.474 0 .383-.016.473-.084.473-.062 0-.083.065-.083.251 0 .138-.025.25-.055.25s-.071.063-.09.14c-.019.077-.057.14-.085.14-.027 0-.049.037-.049.083a.084.084 0 0 1-.084.084.084.084 0 0 0-.084.083c0 .046-.035.084-.078.084-.042 0-.092.037-.109.083-.018.046-.094.084-.169.084-.075 0-.147.031-.16.07-.017.052-.316.074-1.176.086l-1.154.017V5.962h1.256c1.079 0 1.255.012 1.255.084zm10.616.43c.015.16.056.3.091.312.036.012.063.148.063.322 0 .231.019.302.083.302.065 0 .084.074.084.33 0 .22.028.359.084.414.046.046.084.175.084.287 0 .112.037.24.083.287.049.048.084.184.084.325 0 .133.027.251.059.262.033.011.074.126.091.256.018.13.051.235.073.235.023 0 .054.13.07.29.015.16.056.3.09.312.035.011.063.12.063.24 0 .145.029.232.084.253.046.017.084.092.084.165v.133h-2.679v-.218c0-.12.027-.227.06-.238.032-.01.073-.126.091-.255.017-.13.05-.236.073-.236.024 0 .06-.138.081-.306.021-.169.058-.307.083-.307.024 0 .058-.106.076-.236.017-.13.058-.244.091-.255.032-.01.059-.129.059-.262 0-.14.035-.277.084-.326.046-.046.084-.174.084-.286 0-.112.037-.24.083-.287.049-.048.084-.185.084-.325 0-.138.029-.252.066-.265.04-.013.077-.175.091-.394.013-.205.043-.373.068-.373.024 0 .061-.1.082-.223.052-.308.12-.279.153.067zm48.532 3.862c0 .046.038.083.084.083.046 0 .084.023.084.05 0 .027.062.065.138.084a.24.24 0 0 1 .173.17c.018.073.069.147.112.164a.134.134 0 0 1 .079.116c0 .046.025.085.056.085.03 0 .055.098.055.219 0 .12.038.256.084.302.103.103.12.85.021.884-.035.011-.075.151-.091.31-.015.16-.05.29-.076.29-.027 0-.049.039-.049.085a.084.084 0 0 1-.084.083.084.084 0 0 0-.084.084.083.083 0 0 1-.083.083.084.084 0 0 0-.084.084.084.084 0 0 1-.084.083c-.046 0-.083.024-.083.052 0 .028-.076.068-.168.088-.092.02-.167.06-.167.088 0 .03-.495.051-1.172.051h-1.172v-3.622h1.256c1.079 0 1.255.012 1.255.084zM65.746 20.877c-.13.014-.237.05-.237.078 0 .029-.149.053-.33.053-.22 0-.36.028-.415.083-.046.046-.174.084-.285.084-.127 0-.213.03-.233.083-.018.048-.102.084-.194.084-.106 0-.161.028-.161.084 0 .051-.053.083-.14.083-.076 0-.14.022-.14.05 0 .027-.067.066-.15.087a.66.66 0 0 0-.27.167.696.696 0 0 1-.24.167c-.066.02-.12.061-.12.09 0 .029-.038.052-.084.052a.084.084 0 0 0-.084.084.084.084 0 0 1-.083.083.084.084 0 0 0-.084.084.084.084 0 0 1-.084.083.084.084 0 0 0-.084.084.084.084 0 0 1-.083.084.084.084 0 0 0-.084.083.084.084 0 0 1-.084.084.084.084 0 0 0-.083.083c0 .046-.025.084-.055.084s-.07.063-.09.14c-.019.076-.057.138-.084.138-.028 0-.05.038-.05.084a.084.084 0 0 1-.084.084c-.052 0-.084.052-.084.14 0 .078-.037.156-.083.174-.047.017-.084.092-.084.165 0 .082-.033.134-.084.134-.053 0-.084.053-.084.143a.367.367 0 0 1-.083.227.408.408 0 0 0-.084.25.408.408 0 0 1-.084.251c-.053.054-.083.192-.083.386 0 .167-.025.303-.056.303-.035 0-.056.316-.056.836 0 .46.022.835.05.835.026 0 .06.153.073.34.013.186.05.355.082.375.031.02.073.138.092.26.02.123.06.231.092.242.032.01.057.08.057.155s.038.151.084.169c.046.017.084.089.084.159s.037.142.084.16c.046.017.083.095.083.173 0 .088.032.14.084.14.046 0 .084.03.084.064 0 .035.063.121.14.192.076.071.139.18.139.244s.036.114.083.114c.046 0 .084.037.084.083 0 .046.038.084.084.084.046 0 .084.037.084.083 0 .046.037.084.083.084.046 0 .084.038.084.084 0 .046.037.083.084.083.046 0 .083.023.083.052 0 .029.054.07.12.09a.687.687 0 0 1 .238.163.691.691 0 0 0 .242.165c.07.021.126.063.126.091 0 .029.05.052.111.052.062 0 .112.037.112.084 0 .055.056.083.167.083.112 0 .168.028.168.084 0 .058.058.083.189.083.117 0 .202.032.222.084.02.055.108.084.257.084.123 0 .225.023.225.052 0 .029.175.07.39.09.215.022.39.061.39.088 0 .026.302.048.67.048.368 0 .67-.022.67-.048 0-.027.176-.066.39-.087.215-.021.391-.059.391-.084 0-.025.1-.061.223-.08.123-.02.224-.061.224-.091s.075-.056.167-.056c.111 0 .167-.027.167-.083 0-.056.056-.084.168-.084.111 0 .167-.028.167-.083 0-.052.053-.084.14-.084.086 0 .14-.032.14-.084 0-.046.037-.083.083-.083.046 0 .084-.022.084-.05 0-.027.066-.066.146-.086.156-.04.467-.317.467-.417 0-.033.038-.06.084-.06a.084.084 0 0 0 .084-.084c0-.046.037-.083.083-.083a.084.084 0 0 0 .084-.084c0-.046.038-.083.084-.083a.084.084 0 0 0 .084-.084c0-.046.037-.084.083-.084a.084.084 0 0 0 .084-.083c0-.046.025-.084.055-.084s.07-.062.09-.139c.019-.077.057-.14.084-.14.028 0 .05-.037.05-.083 0-.046.037-.084.084-.084.055 0 .083-.055.083-.167 0-.111.028-.167.084-.167.052 0 .084-.053.084-.14 0-.079.037-.156.083-.174.055-.02.084-.108.084-.249 0-.156.024-.217.084-.217.06 0 .084-.061.084-.218 0-.12.028-.228.064-.24.035-.012.076-.164.09-.339.015-.174.049-.317.076-.317.026 0 .048-.314.048-.697 0-.383-.021-.697-.047-.697s-.064-.169-.083-.375c-.02-.207-.06-.385-.092-.395-.031-.01-.056-.103-.056-.205 0-.103-.038-.224-.084-.27a.366.366 0 0 1-.084-.227c0-.09-.031-.143-.084-.143-.05 0-.083-.052-.083-.134 0-.073-.038-.148-.084-.165-.046-.018-.084-.084-.084-.148 0-.064-.063-.174-.14-.245-.076-.071-.139-.158-.139-.192 0-.035-.037-.064-.083-.064-.053 0-.084-.052-.084-.139 0-.087-.032-.14-.084-.14a.084.084 0 0 1-.084-.083.084.084 0 0 0-.083-.084.084.084 0 0 1-.084-.083.084.084 0 0 0-.084-.084.084.084 0 0 1-.083-.083.084.084 0 0 0-.084-.084.084.084 0 0 1-.084-.083c0-.052-.052-.084-.14-.084-.086 0-.139-.032-.139-.084a.084.084 0 0 0-.083-.083c-.047 0-.084-.025-.084-.056 0-.03-.038-.056-.084-.056a.084.084 0 0 1-.084-.083c0-.053-.052-.084-.14-.084-.078 0-.156-.037-.174-.083-.018-.046-.092-.084-.166-.084-.081 0-.133-.033-.133-.084 0-.052-.053-.083-.144-.083a.368.368 0 0 1-.227-.084.41.41 0 0 0-.251-.083.41.41 0 0 1-.251-.084c-.055-.055-.195-.084-.41-.084-.18 0-.335-.024-.345-.053-.02-.06-.952-.115-1.316-.076zm70.475.167c-.099.015-.181.05-.181.078 0 .03-.194.053-.432.055-.292 0-.468.028-.541.083-.06.045-.217.082-.349.082-.176 0-.24.022-.24.084 0 .06-.062.083-.223.083-.123 0-.224.023-.224.051 0 .029-.075.068-.167.088-.092.02-.167.058-.167.084 0 .026-.076.063-.168.084-.092.02-.167.06-.167.088 0 .028-.063.05-.14.05-.087 0-.139.032-.139.084 0 .046-.049.084-.108.084a.315.315 0 0 0-.191.084c-.046.046-.111.083-.144.083-.033 0-.059.038-.059.084 0 .046-.029.083-.064.083s-.121.063-.192.14c-.072.076-.154.139-.184.139s-.129.075-.221.167c-.093.092-.195.167-.228.167s-.06.038-.06.084a.084.084 0 0 1-.084.083.083.083 0 0 0-.083.084c0 .046-.026.084-.056.084-.031 0-.056.035-.056.079 0 .043-.075.154-.167.246-.093.092-.168.195-.168.228 0 .032-.038.06-.084.06-.046 0-.083.048-.083.107a.315.315 0 0 1-.084.191c-.046.046-.084.1-.084.12 0 .02-.037.073-.083.119a.315.315 0 0 0-.084.19c0 .06-.025.108-.055.108s-.07.063-.09.14c-.019.076-.057.139-.084.139-.027 0-.065.1-.084.223-.02.123-.055.223-.077.223-.023 0-.056.104-.073.23-.017.128-.054.247-.083.265-.029.019-.065.171-.081.338-.016.168-.057.314-.091.325-.045.015-.063.428-.063 1.404 0 1.177.012 1.387.083 1.414.061.023.084.117.084.336 0 .167.027.312.06.323.032.011.073.126.091.256.017.13.05.235.073.235.022 0 .057.1.077.223.019.123.058.223.086.223.028 0 .067.075.087.167.021.092.058.167.083.167.024 0 .061.063.08.14.019.076.06.139.09.139s.054.05.054.111c0 .062.025.112.055.112s.071.063.09.14c.019.076.07.139.112.139.043 0 .078.037.078.083 0 .046.025.084.056.084s.056.035.056.079.075.154.167.247c.092.091.168.194.168.227s.037.06.083.06c.046 0 .084.037.084.083 0 .046.038.084.084.084.046 0 .083.038.083.083 0 .046.038.084.084.084.046 0 .084.038.084.084 0 .046.027.083.06.083s.135.075.227.167c.092.092.203.167.247.167.044 0 .08.026.08.056 0 .03.037.056.083.056.046 0 .084.038.084.084 0 .051.053.083.139.083.087 0 .14.032.14.084 0 .046.05.083.112.083s.111.037.111.084c0 .052.053.084.14.084.076 0 .139.023.139.05 0 .029.075.069.168.089.092.02.167.06.167.087 0 .028.1.067.223.086.123.02.223.055.223.077 0 .023.107.056.236.073.13.018.245.059.256.091.011.033.129.06.262.06.141 0 .278.034.326.083.071.07.323.084 1.562.084 1.065 0 1.484-.018 1.5-.065.011-.035.164-.076.339-.09.175-.015.318-.048.318-.075 0-.026.101-.064.223-.083.123-.02.224-.055.224-.078s.113-.06.251-.08c.138-.02.251-.059.251-.084 0-.026.062-.062.139-.081.077-.02.14-.06.14-.09s.075-.054.167-.054c.112 0 .168-.028.168-.084 0-.046.037-.084.083-.084.046 0 .084-.024.084-.054s.061-.07.135-.089c.075-.019.149-.07.166-.113a.134.134 0 0 1 .116-.078c.047 0 .085-.025.085-.055s.063-.07.14-.09c.076-.018.139-.07.139-.112 0-.043.029-.077.063-.077.035 0 .122-.063.193-.14.071-.076.156-.139.188-.139s.058-.029.058-.063c0-.035.063-.122.14-.193.077-.07.139-.155.139-.187s.035-.059.078-.059.093-.062.113-.139c.019-.076.059-.14.089-.14.031 0 .055-.037.055-.083 0-.046.038-.083.084-.083a.084.084 0 0 0 .084-.084c0-.046.022-.083.049-.083.028 0 .066-.063.085-.14.019-.076.058-.14.085-.14.028 0 .067-.074.087-.166.021-.092.06-.167.089-.167.028 0 .051-.039.051-.086 0-.047.038-.1.084-.117.046-.018.083-.09.083-.162 0-.07.038-.167.084-.213a.416.416 0 0 0 .084-.254c0-.115.027-.171.083-.171.061 0 .084-.062.084-.219 0-.12.03-.228.066-.24.037-.012.076-.176.09-.38.014-.198.053-.377.085-.397.085-.054.088-2.488.003-2.542-.034-.021-.074-.201-.088-.398-.014-.205-.053-.369-.09-.381-.036-.012-.066-.12-.066-.24 0-.157-.023-.218-.084-.218-.06 0-.083-.062-.083-.217 0-.142-.029-.229-.084-.25-.046-.017-.084-.092-.084-.167 0-.074-.037-.15-.083-.167a.138.138 0 0 1-.084-.117c0-.047-.025-.085-.056-.085s-.056-.036-.056-.08a.266.266 0 0 0-.076-.156.574.574 0 0 1-.115-.199c-.022-.067-.063-.123-.091-.123-.029 0-.052-.038-.052-.085 0-.047-.038-.1-.084-.117-.046-.018-.084-.068-.084-.11 0-.043-.038-.078-.084-.078a.083.083 0 0 1-.083-.083c0-.046-.025-.084-.055-.084s-.071-.063-.09-.14c-.019-.076-.059-.139-.089-.139s-.167-.112-.305-.25c-.138-.138-.287-.251-.331-.251-.043 0-.079-.038-.079-.084a.084.084 0 0 0-.084-.083c-.046 0-.083-.025-.083-.056 0-.03-.038-.056-.084-.056a.084.084 0 0 1-.084-.083c0-.052-.052-.084-.139-.084-.087 0-.14-.031-.14-.083a.083.083 0 0 0-.083-.084c-.046 0-.084-.023-.084-.051 0-.029-.075-.068-.167-.088-.093-.02-.168-.057-.168-.082s-.063-.061-.139-.08c-.077-.02-.14-.06-.14-.09s-.076-.055-.169-.055c-.099 0-.183-.034-.201-.083-.02-.052-.105-.084-.223-.084-.119 0-.204-.032-.224-.084-.023-.06-.117-.083-.333-.083-.23 0-.301-.02-.301-.084 0-.067-.089-.083-.469-.083-.304 0-.478-.023-.491-.064-.022-.067-1.238-.117-1.593-.067zm-51.852 7.18v6.881h1.65c1.35 0 1.665-.014 1.73-.078.064-.065.081-.45.093-2.132l.015-2.052 1.493-.015c.82-.008 1.492-.036 1.492-.062 0-.025.17-.062.377-.082.207-.019.384-.06.395-.091.01-.031.093-.057.183-.057.095 0 .178-.035.197-.083.017-.046.092-.084.165-.084.074 0 .134-.023.134-.051 0-.029.075-.068.167-.088.093-.02.168-.073.168-.116 0-.047.056-.08.14-.08.086 0 .139-.031.139-.083 0-.046.038-.084.084-.084.046 0 .083-.025.083-.055s.038-.056.084-.056a.084.084 0 0 0 .084-.084c0-.046.037-.083.083-.083a.084.084 0 0 0 .084-.084c0-.046.038-.083.084-.083a.084.084 0 0 0 .083-.084c0-.046.025-.084.055-.084s.07-.06.089-.135c.019-.074.07-.149.112-.165a.133.133 0 0 0 .08-.116c0-.047.022-.085.049-.085.027 0 .066-.063.085-.14.019-.076.06-.139.09-.139s.054-.075.054-.167c0-.111.028-.167.084-.167.06 0 .084-.062.084-.223 0-.16.023-.223.083-.223.067 0 .084-.08.084-.385 0-.259.023-.393.07-.409.052-.017.07-.243.07-.877s-.019-.86-.07-.878c-.047-.016-.07-.15-.07-.409 0-.305-.017-.385-.084-.385-.052 0-.083-.053-.083-.143a.367.367 0 0 0-.084-.227.401.401 0 0 1-.084-.247c0-.108-.028-.163-.084-.163-.046 0-.083-.05-.083-.112 0-.061-.025-.111-.055-.111s-.07-.063-.09-.14c-.019-.076-.057-.139-.084-.139-.028 0-.05-.037-.05-.083a.084.084 0 0 0-.084-.084.084.084 0 0 1-.084-.084.084.084 0 0 0-.083-.083c-.052 0-.084-.053-.084-.14 0-.086-.032-.139-.084-.139a.084.084 0 0 1-.083-.083c0-.052-.053-.084-.14-.084-.087 0-.14-.031-.14-.083 0-.046-.034-.084-.077-.084s-.092-.038-.11-.084a.137.137 0 0 0-.118-.083c-.046 0-.085-.025-.085-.055s-.063-.07-.14-.09c-.076-.019-.139-.054-.139-.077s-.1-.059-.223-.078c-.123-.02-.223-.057-.223-.084 0-.026-.107-.062-.236-.079-.13-.017-.245-.058-.256-.09-.014-.042-1.09-.06-3.503-.06H84.37v6.882zm14.599-6.66c-.02.123-.058.224-.084.224-.026 0-.062.106-.08.235-.017.13-.058.245-.09.256-.033.01-.06.118-.06.238 0 .157-.023.218-.084.218-.061 0-.083.065-.083.25 0 .186-.022.251-.084.251-.06 0-.084.062-.084.219 0 .12-.026.227-.059.238-.033.01-.074.125-.091.255s-.053.236-.08.236c-.026 0-.063.1-.083.223-.02.122-.054.223-.077.223s-.055.106-.073.235c-.017.13-.058.245-.091.256-.033.01-.06.092-.06.182 0 .107-.028.162-.083.162-.06 0-.084.063-.084.227 0 .128-.037.264-.084.31a.393.393 0 0 0-.083.243c0 .087-.026.167-.057.177-.032.01-.074.12-.093.241-.02.122-.07.256-.11.296-.042.041-.075.148-.075.238s-.022.163-.048.163c-.027 0-.063.106-.08.236-.018.13-.059.244-.092.255-.032.01-.059.118-.059.238 0 .157-.023.218-.084.218-.06 0-.083.062-.083.223s-.024.223-.084.223c-.062 0-.084.065-.084.25 0 .186-.022.252-.084.252-.06 0-.083.06-.083.218 0 .12-.027.227-.06.238-.032.01-.073.126-.09.255-.018.13-.054.236-.08.236-.026 0-.064.1-.084.223-.02.122-.054.223-.077.223-.022 0-.055.106-.073.235-.017.13-.058.245-.09.256-.033.01-.06.09-.06.178a.393.393 0 0 1-.084.242.374.374 0 0 0-.083.23.374.374 0 0 1-.084.232.393.393 0 0 0-.084.242c0 .087-.026.167-.06.178-.032.011-.073.126-.09.256-.018.13-.05.235-.073.235-.023 0-.058.1-.077.223-.02.123-.057.223-.084.223-.026 0-.062.106-.08.236-.017.13-.058.244-.09.255-.033.01-.06.118-.06.238 0 .157-.023.218-.083.218-.062 0-.084.065-.084.251s-.022.25-.084.25c-.052 0-.083.053-.083.14v.14h1.757c1.526 0 1.758-.012 1.758-.084 0-.046.022-.084.05-.084.026 0 .066-.138.087-.306.021-.169.058-.307.083-.307.024 0 .059-.106.076-.235.017-.13.058-.245.091-.256.033-.01.06-.144.06-.295 0-.194.024-.285.083-.308.057-.022.084-.11.084-.277 0-.18.022-.245.084-.245.06 0 .083-.062.083-.223v-.222h4.4l.036.167c.02.092.057.167.081.167.025 0 .057.13.073.29.015.16.056.3.09.311.035.012.063.12.063.241 0 .144.029.231.084.252.06.023.084.117.084.333 0 .23.019.3.083.3.061 0 .084.062.084.223 0 .123.023.223.051.223.029 0 .068.075.088.167l.037.167h1.726c1.451 0 1.725-.012 1.725-.078 0-.044-.027-.088-.059-.1-.033-.01-.074-.125-.091-.255-.018-.13-.051-.235-.073-.235-.023 0-.058-.1-.077-.223-.02-.123-.058-.223-.084-.223-.026 0-.062-.106-.079-.236-.018-.13-.059-.244-.091-.255-.033-.01-.06-.106-.06-.212 0-.12-.032-.204-.084-.224-.054-.02-.083-.107-.083-.243s-.03-.223-.084-.243c-.053-.02-.084-.106-.084-.233 0-.11-.037-.239-.083-.284a.393.393 0 0 1-.084-.243c0-.087-.027-.167-.059-.178-.033-.01-.074-.126-.091-.255-.018-.13-.051-.236-.073-.236-.023 0-.058-.1-.077-.223-.02-.122-.058-.223-.084-.223-.026 0-.062-.106-.079-.235-.018-.13-.059-.245-.091-.256-.033-.01-.06-.118-.06-.238 0-.157-.023-.218-.084-.218-.062 0-.083-.065-.083-.25 0-.186-.022-.252-.084-.252-.06 0-.084-.06-.084-.216 0-.142-.029-.229-.083-.25-.056-.02-.084-.108-.084-.256 0-.124-.023-.225-.051-.225-.029 0-.068-.075-.089-.167-.02-.092-.056-.167-.08-.167-.025 0-.059-.106-.076-.236s-.058-.244-.091-.255c-.033-.011-.059-.118-.059-.238 0-.157-.024-.218-.084-.218-.062 0-.084-.065-.084-.251s-.022-.25-.084-.25c-.06 0-.083-.062-.083-.22 0-.12-.027-.226-.06-.237-.032-.011-.073-.126-.091-.256-.017-.13-.05-.235-.073-.235-.022 0-.057-.1-.077-.223-.019-.123-.06-.223-.09-.223-.031 0-.056-.073-.056-.163 0-.09-.033-.197-.074-.238-.041-.04-.09-.174-.11-.296-.02-.122-.062-.23-.093-.24-.032-.011-.057-.118-.057-.238 0-.157-.024-.218-.084-.218-.062 0-.084-.065-.084-.25 0-.186-.022-.252-.084-.252-.06 0-.083-.061-.083-.218 0-.12-.027-.227-.06-.238-.032-.01-.073-.126-.091-.255-.017-.13-.05-.236-.073-.236-.022 0-.057-.1-.077-.223-.019-.122-.06-.223-.09-.223-.031 0-.056-.056-.056-.125a1.202 1.202 0 0 0-.035-.25l-.033-.126h-3.712l-.035.223zm12.185 1.756c0 1.088-.021 1.978-.047 1.978s-.063.42-.082.933c-.021.557-.058.94-.092.952-.034.011-.058.217-.058.49 0 .367-.018.478-.083.503-.063.024-.084.123-.084.39s-.021.366-.084.39c-.06.023-.083.117-.083.332 0 .23-.02.3-.084.3-.06 0-.084.062-.084.22 0 .12-.027.226-.059.237-.033.011-.074.126-.091.255-.018.13-.052.236-.076.236s-.061.075-.081.167c-.02.092-.056.168-.081.168-.024 0-.06.1-.08.222-.019.123-.06.223-.09.223-.031 0-.056.063-.056.14 0 .086-.031.139-.083.139-.056 0-.084.056-.084.167 0 .111-.028.167-.084.167a.085.085 0 0 0-.083.088c0 .208-.136.247-.861.247h-.702v4.679l.126.03c.069.017.778.023 1.576.015l1.451-.016.015-.933.015-.934h3.928c2.161 0 3.968.016 4.017.034.075.03.088.166.088.947V37h2.902v-4.736h-1.451V21.342h-9.375v1.978zm13.002 4.904v6.881h3.348V21.342h-3.348v6.882zm-34.074-3.957c.018.046.096.084.174.084.077 0 .14.025.14.056 0 .03.037.055.08.055.103 0 .423.32.423.423 0 .043.023.079.051.079.029 0 .068.075.088.167.02.092.06.167.089.167.028 0 .051.32.051.725 0 .44-.022.724-.055.724-.03 0-.071.1-.09.223-.02.123-.058.223-.085.223-.027 0-.049.037-.049.083a.084.084 0 0 1-.084.084.084.084 0 0 0-.083.084.084.084 0 0 1-.084.083.084.084 0 0 0-.084.084c0 .051-.052.083-.135.083-.074 0-.144.028-.155.062-.011.033-.139.074-.284.09-.144.017-.263.052-.263.078 0 .027-.411.049-.915.049-.782 0-.92-.013-.948-.088-.019-.049-.034-.901-.034-1.895v-1.806h1.11c.935 0 1.115.013 1.142.083zm26.975 3.79c.009 2.114.002 3.926-.016 4.026l-.033.18h-4.129l.039-.208c.021-.115.058-.222.081-.238.024-.015.061-.097.082-.18.021-.085.061-.154.088-.154.028 0 .05-.073.05-.163 0-.09.038-.2.084-.247a.37.37 0 0 0 .083-.228c0-.08.038-.16.084-.177.058-.023.084-.113.084-.299s.025-.276.083-.299c.061-.023.084-.117.084-.334 0-.217.024-.311.084-.335.062-.023.084-.123.084-.395 0-.2.023-.364.051-.364.028 0 .069-.251.091-.558.022-.306.057-.557.08-.557.022 0 .057-.42.079-.933.021-.514.063-.942.092-.952.03-.01.053-.335.053-.74v-.72l1.353.015 1.353.015.016 3.845zm20.917-3.79c.021.055.108.084.249.084.156 0 .218.024.218.084 0 .055.055.083.167.083.112 0 .167.028.167.084 0 .046.038.083.084.083.046 0 .084.023.084.05 0 .027.063.065.139.085.077.019.14.06.14.09s.037.054.083.054c.046 0 .084.038.084.083 0 .046.038.084.084.084.046 0 .084.038.084.084 0 .046.037.083.083.083.046 0 .084.038.084.084 0 .046.038.083.084.083.052 0 .083.053.083.14 0 .086.032.139.084.139.046 0 .084.038.084.084 0 .046.023.083.051.083.028 0 .068.075.088.167.02.092.058.168.084.168.026 0 .063.075.084.167.02.092.06.167.088.167.028 0 .051.1.051.223 0 .16.023.223.084.223.071 0 .084.16.084 1.114 0 .953-.013 1.114-.084 1.114-.062 0-.084.066-.084.251 0 .138-.024.251-.055.251-.03 0-.07.063-.089.14-.02.076-.056.139-.081.139s-.062.075-.082.167c-.02.092-.057.167-.082.167s-.061.063-.08.14c-.019.076-.06.139-.09.139s-.055.037-.055.083a.083.083 0 0 1-.083.084c-.046 0-.084.025-.084.055 0 .031-.05.106-.112.168-.061.06-.136.111-.167.111s-.056.038-.056.084c0 .046-.025.083-.056.083-.03 0-.055.038-.055.084 0 .046-.035.083-.078.083s-.092.038-.11.084c-.018.046-.096.084-.173.084-.089 0-.142.03-.142.083a.083.083 0 0 1-.083.084c-.046 0-.084.022-.084.048 0 .027-.101.065-.223.085-.123.02-.223.06-.223.09s-.087.055-.192.055c-.105 0-.229.038-.275.084-.105.105-1.296.123-1.331.02-.011-.034-.151-.075-.311-.09s-.291-.048-.291-.072c0-.024-.075-.06-.167-.08-.092-.021-.168-.059-.168-.084 0-.026-.075-.064-.167-.084-.092-.02-.167-.06-.167-.087 0-.028-.063-.066-.14-.085-.077-.02-.139-.058-.139-.085 0-.027-.038-.05-.084-.05a.084.084 0 0 1-.084-.083.084.084 0 0 0-.084-.084.083.083 0 0 1-.083-.083.084.084 0 0 0-.084-.084c-.046 0-.084-.028-.084-.063s-.059-.119-.133-.186a.711.711 0 0 1-.171-.244c-.021-.066-.061-.12-.09-.12-.029 0-.052-.038-.052-.083a.084.084 0 0 0-.084-.084c-.056 0-.083-.056-.083-.167 0-.112-.028-.167-.084-.167-.061 0-.084-.062-.084-.223s-.023-.223-.084-.223c-.061 0-.083-.065-.083-.246 0-.148-.028-.256-.07-.27-.093-.03-.101-1.809-.008-1.868.034-.022.075-.165.092-.317s.058-.286.092-.297c.034-.011.061-.094.061-.183 0-.107.029-.163.084-.163.051 0 .084-.052.084-.133 0-.073.037-.148.083-.165a.138.138 0 0 0 .084-.118c0-.047.025-.085.055-.085s.07-.063.089-.14c.02-.076.07-.139.113-.139s.078-.037.078-.083c0-.046.037-.084.083-.084.046 0 .084-.025.084-.055 0-.095.188-.28.286-.28a.144.144 0 0 0 .125-.083c.018-.046.061-.083.097-.083.036 0 .123-.063.195-.14.071-.076.181-.139.245-.139s.13-.038.148-.084c.02-.052.105-.083.225-.083.107 0 .231-.038.277-.084.068-.067.264-.083 1.03-.083.79 0 .952.014.979.083zm-37.076.47c.05.058.109.246.131.417.021.171.057.311.08.311s.056.144.075.32c.018.176.059.328.091.339.032.01.059.155.059.321 0 .231.019.302.083.302.065 0 .084.071.084.306 0 .236.019.307.084.307.061 0 .083.064.083.246 0 .135.029.256.063.267.035.012.076.152.091.311.015.16.047.29.07.29.024 0 .06.113.08.251.021.138.062.25.09.25.029 0 .053.101.053.224v.223h-1.339c-1.154 0-1.34-.012-1.34-.084 0-.046.038-.084.084-.084.06 0 .084-.062.084-.226 0-.128.037-.264.084-.31a.393.393 0 0 0 .083-.243c0-.087.029-.168.063-.18.035-.011.076-.15.09-.31.016-.16.047-.29.07-.29.023 0 .055-.105.073-.232.017-.127.054-.246.083-.264.028-.019.065-.159.082-.31.017-.153.058-.287.092-.298.033-.011.061-.131.061-.267 0-.181.022-.246.084-.246.066 0 .083-.08.083-.39s.018-.39.084-.39c.065 0 .084-.074.084-.334 0-.356.032-.398.178-.228z" fill="#fff"/></svg>