<svg width="253" height="54" viewBox="0 0 253 54" fill="none" xmlns="http://www.w3.org/2000/svg"><path d="M45.855 48.054c-.593-.303-1.196.052-1.823.155-.792-.66-2.386-1.287-3.762-.54-1.236-.5-2.642-.885-4.444-1.002.315-.301.216-.883.229-1.39-.322-.219-.937-.24-1.14-.539.438-1.184 2.15-2.395 2.506-3.47.296-.892-.04-1.802.454-2.776-.015-.325-.442-.37-.454-.695 1.081-.015 1.45-.51 2.052-.85-.204-.633.096-1.608-.454-2.005-.384.01-1.502.182-1.938-.155-.767.435-2.587.424-2.621-.462 1.944-.176 2.924-1.005 3.876-1.852-.34-.514-.8-.95-1.14-1.466-.619-.157-.671.466-1.027.232.73-1.33 1.267-2.795 2.052-4.088.368.239.764.46 1.366.54-.167 1.272-2.63 1.734-2.052 3.008.275-.031.247.14.569.077.618-.12.358-.836 1.026-.924.086.418-.18.598-.114 1.002.188.13.667.06 1.026.077.349-.303.074-1.029.911-1.002.402.166.164.764.229 1.157-.374-.004-.436-.22-.912-.155-.39.352-1.285 1.534-.114 1.774.674-.134.195-1.052 1.026-1.08-.362.923.235 1.842.114 2.854.25.113.85-.008.912.233.046.637.05 1.303.797 1.466.65-.743-.54-1.726 0-2.623.387.458.711 1.284 1.824 1.002-.025-.647-1.057-.854-1.255-1.542-.16-.56.136-1.21-.114-1.929-.189-.26-.553-.397-.683-.694 1.273-1.52 1.369-4.653.228-6.324-.831-.046-1.446.606-2.166.154-.42.615-.708 1.323-1.48 1.697.03.38.043.749-.57.695.279-.856 1.129-2.81-.457-2.854-.75-.02-.93.778-1.823.85-1.178-.31-.918-1.59-1.938-2.007-.98.262-1.786.881-3.078.695.272-.716.597-1.632.343-2.469h-.683c-.69.486-.655 1.46-1.366 1.93-.226-.453-1.082-.668-1.823-.54-.044 1.108 1.183 1.36 1.366 2.313-.238.19-.584-.249-.912 0-.12.289.426.121.343.385-.352.301-1.085.345-1.938.307-.192-.152.003-.566-.569-.462-.24.764-.812 2.038-2.166 1.542.674-.908 1.49-1.717 2.392-2.468.278.148.603.313 1.026.154-.062-.91-.37-1.65-.457-2.546.933.049 1.539-.299 2.392-.077.405-.29.24-.969.569-1.312-.214-.297-.968-.772-.344-1.157.956.67 2.683 1.145 3.876.54 1.898-.96 3.465-3.416 3.19-5.631-.235-1.92-1.666-3.467-3.762-4.088-.281.17-.81.172-1.14.31-.207.27-.09.761-.569.85-.439-.011-.525-.262-1.026-.233-.463.893-1.52 1.93-1.709 3.085-.071.442.402 1.34-.569 1.467.124-.908.356-2.345-.343-2.93.526-.315 1.688-.43 1.255-1.158-.306-.196-.6.046-1.026 0 .182-.288.609-.41.683-.772-.167-.067-.362-.115-.343-.307-1.245-.046-1.428.627-2.506.694.098-.529-.683-.464-.683-.924.438-.494.04-1.099-.455-1.39.427-.236.386-.826.114-1.156 1.265-.199 2.325-.536 2.85-1.234-.223-.132-.705-.088-.912-.233.334-.303 1.24-.491.912-1.002-1.44.097-2.553 1.438-4.787 1.002-.405 1.14-2.034 1.45-3.079 2.16.795.26 2.031-.135 2.736.077-.263.514-1.326 1.656-.115 2.006.226-.105-.037-.538.343-.54.198.653-.389 2.326.912 2.159.34-.694-.114-1.927.229-2.623.952.41.92 1.485 1.255 2.313-.603.724-1.759 1.074-2.167 1.93.668.455 1.607-.25 2.281 0-.238.93-1.298 1.675-.912 2.775-.701.272-2.234-.02-2.277.695.32.374 1.313.295 1.594.694-.701.452-.692 1.383-1.823 1.542-.927-.53-3.211-.14-3.876-.85.022-.363.794-.67.798-1.079.003-.253-.374-.456-.57-.772-1.167-1.885-.645-4.437-.453-7.018.092-1.239-.013-2.305.114-3.548.17-1.68.927-3.228.912-4.397C18.615.942 18.74.167 17.82 0c-.553.475-.624 1.276-.683 2.084.124.2.411.286.455.54-.38 4.217-.912 8.566-.57 13.034-.611.433-1.047.987-1.254 1.697.281.247.995-.149 1.026.154-.383.51-1.289 1.425-.343 1.93.597-.08.757-.564 1.366-.233.062-.113-.133-.4.114-.385.031 1.013 1.385 1.4 2.507 1.234-.096.477.272.638.683.772.776-.245 1.144-.767 2.052-.924.09-.318-.176-.396-.114-.695.723 0 .612-.563 1.255-.617-.195.46.058 1.222-.458 1.464-.238-.044-.324-.19-.683-.154-.572 1.014-.111 2.221 0 3.393-.35.19-1.09.435-1.48.154.281-.523-.1-1.13-.229-1.619-.51.015-.825.161-1.14.31-.1.308.704.21.343.462-.263-.025-.44.013-.569.078-.142.7-.955 2.393-1.938 2.468-.457.036-1.047-.301-1.026-.617.037-.477 1.156-.546 1.71-.85-.49-.322.447-.755 0-.771-.582.104-1.101.954-1.824.462.497-.77 2.222-.707 2.62-1.544-1.22-.08-1.276.628-2.392.617-.55-.795.887-1.761 0-2.313-.562.82-.287 1.736-.568 2.7-.893.143-1.243.651-2.281.695-2.173-1.435-2.21-4.316-2.392-7.096-.983-.623-2.723-1.05-2.278-2.391-.915.027-.76-.67-1.595-.695-.219.419-.07 1.084-.114 1.62.34.154.977.11 1.026.462-.037.18-.117.332-.343.385-.695-.07-.726-.588-1.595-.54-.612.534.167.85.229 1.39.133 1.179-1.171 2.775-1.255 3.932-.021.322-.213.93.569 1.08.414-.362.158-1.18.229-1.774.318-.17.618-.354 1.254-.308.68-1.082.634-2.657 1.595-3.548.402 1.933.328 4.768 0 6.711-.41-.469-.244-1.326-1.255-1.39-.269 1.802 2.68 2.633 3.304 4.011.08.176-.034.419 0 .617.149.868 1.104 1.437 1.366 2.16.448 1.225-.933 2.204-1.026 3.78.473.376 1.95-.072 2.278.232-.405 1.14-.918 2.206-1.595 3.163 1.212 1.479 2.13 3.305 2.052 5.476-.037.99-.64 1.937-.457 2.854.16.792 1.233 1.435.457 2.158h-.07l.012.086c.04.165.055.335.105.504.065.032.126.067.182.105.053 1.301.563 2.295.454 3.703-.738.117-1.18.435-1.48.847-.763-.718-1.823-1.234-2.28-2.159-.455.05-.458-.203-.913-.155-.055.243.204.272.115.54-.72.197-1.406.416-2.284.506a2.582 2.582 0 0 1-.235.052c-.105.047-.21.095-.322.13a2.24 2.24 0 0 1-.349.08v.004c-.677.286-1.384.065-2.21.004h-.003c-.667.161-1.366.22-2.052.329a.84.84 0 0 1-.25.004c-.269.025-.54.04-.816.046-.362.125-.69.297-1.017.468-.037.048-.074.096-.117.143-.167.173-.353.334-.538.5-.257.232-.566.493-.785.767 1.264-.194 2.021-1.34 3.57-.797-.23.822-1.836.712-1.938 1.62.164.043.278.119.343.232 2.522-.145 2.76-2.245 5.013-2.314-.108.517-1.227.351-1.026 1.08 1.86.336 2.228-1.354 3.99-1.08-.55.912-2.266 1.037-2.507 2.159 1.104.412 1.916-.5 2.85-.695.037-.307-.204-.429-.115-.772.353-.351 1.144-.408 1.026-1.08-.154-.28-1.084-.037-1.366-.231 2.099-1.469 2.847 1.044 4.445 1.696 1.894.774 5.433.201 7.519-.232.352.174.906.21 1.366.308-.414.338-.522.88-1.255 1.002-.915-.57-2.126-.072-3.647 0-1.61.075-2.809-.385-3.76.077-.267-.128-.276-.43-.798-.385-.68.08-.782.552-1.48.617-.158-.98 1.344-.839 1.365-1.696-.83-.182-1.304-.61-2.052-.848-.154.308-.07.775-.343 1.003.328.01.89-.216 1.14 0 .032.79-1.053.667-1.025 1.311.065 1.416 3.996.301 5.241.078.186.234.353.483.798.54 1.974-.833 5.974-.015 8.32-.463-.263-.387-1.391-.19-1.71-.54.81-1.56 3.22-2.035 4.33-3.393.254.282.526-.272.798 0-.334.485-.9.885-1.48 1.312-.504.368-1.432.774-1.027 1.311 1.746-.056 2.167-1.669 3.647-2.159-.328.434-1.555 1.243-.454 1.697 1.381-.479 1.752-1.642 3.418-1.929-.544.634-1.298 1.128-1.48 2.007.423-.03.296.311.797.232 1.39-1.243 3.053-2.718 5.356-3.086-.52.916-3.554 1.163-2.507 2.391 1.509-.418 2.192-1.397 3.987-1.619-.247.63-1.576.527-1.366 1.466.164.044.278.12.343.233 1.277.04 1.697-.498 2.621-.695.63.854 3.944.962 4.787.155-.38-.412-1.78-.132-2.166-.54.3-.054.108-.441.457-.462.758.05 1.224-.096 1.71-.232.105-.406-.387-.408-.455-.695.374-.16.606-.416.575-.85zm-3.307-16.506c-.408.044-.346-.228-.343-.462.247.065.405.188.343.463zm-.229-3.395c-.117-.334.235-.355.343-.54.272.14.028.578-.343.54zm.115-1.464h.343v.772c-.26-.161-.393-.404-.343-.772zm0-2.084c.698.145.729.74.797 1.312-.748-.07-1.762-1.033-.797-1.312zm-.115 4.243c.325.337-.108.72-.114 1.08-.76-.101-1.252-1.174.114-1.08zm-13.672-8.175c-.68.1-.4-.45-.455-.772.399.07.69.516.455.771zm-.57-4.32c.996.226.984 1.324.684 2.006-.757-.341-1.827-1.532-.683-2.006zm9.801 8.562c.359 1-1.159 2.038-1.48 3.085-.285-.167-.705-.242-.912-.462.72-.927 1.48-1.826 2.392-2.623zm-2.85 0c.35-.056.22.211.57.155-.047.253-.1.498-.458.54a1.182 1.182 0 0 1-.111-.695zm.115 3.548c.377.027.495.23.683.385-.488.724-.93 1.479-1.14 2.39-.98-.853.37-1.899.457-2.775zm-.797-2.006c.568 1.987-2.494 4.125-.23 5.631.576.111.783-.28 1.141-.077.155.805-.707 1.57-1.709 1.851-.046-.686-1.369-.893-1.595-1.542-.203-.587.458-1.133.57-1.774.237-1.36-1.15-2.786-1.027-4.087-.021-.065.043-.073.114-.078.767-.171 2.077-.083 2.736.076zm-2.624-1.774c-.14.583.506.636.797.924-.3.124-1.094-.08-1.709 0 .114-.437.176-.91.912-.924zm-2.732 5.014c.058-.577.58-.84 1.14-1.08.553.346.606 1.032.797 1.62-.448-.184-1.069-.253-1.026-.772-.43-.006-.346.332-.911.232zm-.912-2.7c.03-.909.973-1.511.912-2.237 1.177.18.476 1.632 1.823 1.697.053.242-.306.203-.343.385-.399.014-.374-.262-.683-.308-.627.345-1.2.732-1.595 1.234-.534-.025-.918-.15-1.14-.385.154-.255.602-.313 1.026-.387zm-2.28.077c-.644.78-.78 2.345-.344 3.393-.43.404-.89.784-1.255 1.234-.123.416.31.46.229.85-1.134-.057-.603-1.237-1.255-1.62.968-.502.924-2.284-.228-2.623.877-.416 1.727-1.245 2.852-1.234zm-3.648 1.542c.047.198.05.485.229.771-.655.061-1.008-.742-.229-.771zm-5.584-4.473c-.52.11-.702.45-1.366.462-.736-.78 1.81-1.924 1.366-.462zm-3.076 7.25c-.544-.01-.151-.175-.228-.462.185-.02.194.074.343.078.046.184-.207.167-.115.385zm-.568-6.71c.73.33 1.378.711 1.366 1.544-.61-.413-1.091-.91-1.366-1.544zm1.251 3.47c-.358-.324.238-.659.343-.924.575.242-.105.742-.343.924zm2.507 23.989c.686-.645.157-1.51-.458-1.93.198-1.183-.333-2.296-.343-3.47-.006-1.136.458-2.236.23-3.318-.1-.462-.6-.912-.684-1.389-.263-1.479.12-3.138 0-4.627-.037-.475-.535-.933-.569-1.39-.043-.553.489-1.148.57-1.773.082-.642-.19-1.433-.115-1.851.578.07.661.479 1.026.694-.402 1.017.473 2.287.454 3.086-.006.32-.377.671-.454 1.002-.43 1.807 1.078 3.518 1.026 5.399-.012.452-.272.864-.229 1.312.028.265.257.498.343.772.334 1.06.14 2.627.229 4.01.096 1.466.986 2.935-1.026 3.473zm1.14-12.186c-.707-.3-.788-1.41-.568-2.084.744.31 1.06 1.412.568 2.084zm6.611 10.951c.702-.58 1.153-1.328 2.85-1.234-.374.5-1.25 1.312-2.85 1.234zm2.392-3.702c-.81.223-1.746.36-2.392.694.037.642-.597.83-.683 1.39-.096.373.739.116.683.461-1.938.212-3.706 2.603-5.585 1.157.22-.11.408-.238.569-.385-.46-3.062.535-5.28-.797-7.713.306-.102.605-.207.911-.31.755-2.273-.278-5.37 1.026-7.867-.09-.324-.608-.358-.683-.695.872-.18 1.323-.648 2.281-.771-.07-.467-.065-.986-.454-1.235-.59-.012-.47.452-1.026.463-.55-.22-.785-.651-1.026-1.08-.164-.113-.087-.245.229-.232-1.017-.211.058-1.839-1.255-1.851-.458-.055-.192.382-.455.462-.2.044-.67-.094-.683.077-.256-.033-.046-.38-.114-.54-.216-.135-.751-.056-1.14-.077-.127-.625.605-.67.457-1.311-.099-.19-.266-.335-.683-.31.13-.272.25-.55.569-.695-.266-.334-.569-.642-.455-1.234.63-.065.192.592.569.695.538.031.952-.025 1.366-.078 2.37.473 1.323 2.34 1.595 3.858.374.245.229-.297.683-.232.766.355.853 1.171 1.938 1.311.853 1.197.207 3.408.568 4.937-.333.084-.655.174-1.14.155.096.552.896.628 1.366.925 1.199-.854-.427-2.27.114-3.393.433.094.767.253 1.255.31.114.397.12.618-.229.849.146.416.637.596 1.14.771.702-.45 1.107-1.343.913-2.158-.582.037-1.808-.028-1.71-.695 1.595-.18 2.2-1.031 2.735-1.929 1.15-.188 2.52.007 3.419.233.142.596-.272.767-.229 1.156.108.946 1.969 1.555 1.938 2.391-.025.68-1.648 1.306-1.366 2.237.12.401.646.567 1.255.924-2.488 2.668-3.638 6.232-5.474 9.335zm4.787.464c.18.006.436-.038.455.077.123.27-.699.205-.455-.077zm1.71 1.08c.027-.317.386-.407.457-.695.284-.013.355.12.454.232-.055.322-.34.49-.912.462zm1.026-3.78c-2.037 1.09-3.075 2.855-6.382 3.085 1.066-3.52 2.997-6.456 4.898-9.41.362-.012.5-.175.912-.154.247-.965-.662-1.136-1.595-1.467.019-.784.566-1.211.912-1.774 1.014.23 2.077.782 3.532.462.829 1.841-1.035 3.887 0 5.632-1.023 1.03-1.77 2.247-2.277 3.625zm2.846 3.47c-.377-.207-.807-.379-1.026-.695.494-.613 1.882-.132 2.392.155-.099.42-1.144.203-1.366.54zm2.62.387c.029-.289.535-.536.798-.233-.018.245-.448.21-.797.233zm1.256 1.157c.055-.588 1.057-1.063 1.823-.695-.25.475-.878.693-1.823.695zm23.3-28.491c-.646 0-1.107.134-1.388.4-.133.128-.294.41-.476.85l-1.632 3.88c-.97 2.345-1.73 3.897-2.278 4.648-.692.958-1.505 1.44-2.441 1.44-.78 0-1.425-.229-1.941-.685-.516-.456-.776-1.008-.776-1.654 0-.381.14-.712.42-.988.282-.278.652-.416 1.113-.416.414 0 .745.123.995.372.25.25.374.546.374.894 0 .22-.062.422-.182.606-.17.256-.451.446-.84.571a58.13 58.13 0 0 0-.328.105c-.158.069-.238.138-.238.207 0 .184.163.341.491.469a2.7 2.7 0 0 0 .912.138c.377 0 .692-.063.949-.19.438-.22.822-.637 1.15-1.25l-4.964-9.394h-1.15v-.381h5.656v.38h-1.388l3.43 6.536 1.843-4.437c.133-.324.2-.636.2-.935 0-.358-.104-.643-.318-.85-.213-.207-.55-.311-1.014-.311h-.237v-.381h4.051v.377h.007zm13.045 10.592a3.42 3.42 0 0 1-1.972.623c-1.057 0-1.765-.305-2.117-.918-.195-.335-.368-1.071-.52-2.209-.15-1.138-.293-1.828-.429-2.071-.29-.521-.868-.78-1.734-.78h-1.13v5.357h1.532v.38h-5.878v-.38h1.533V21.495h-1.533v-.381h5.878v.38H69.51v4.837h1.113c.754 0 1.248-.134 1.48-.4.29-.347.44-1.108.44-2.288 0-1.121.265-1.895.803-2.322.377-.301.93-.45 1.66-.45.559 0 1.01.157 1.35.469.34.311.51.682.51 1.109 0 .403-.13.742-.393 1.014-.262.272-.612.408-1.05.408-.464 0-.801-.132-1.014-.4-.214-.265-.319-.59-.319-.97l.056-.469c0-.173-.037-.26-.108-.26-.232 0-.371.011-.42.036-.158.07-.285.256-.384.555a6.53 6.53 0 0 0-.22.893c-.048.295-.073.65-.073 1.067 0 .659-.08 1.128-.238 1.404a1.462 1.462 0 0 1-.711.623v.069c1.153 0 2.046.245 2.683.736.636.492 1.01 1.166 1.118 2.02.025.635.06 1.265.093 1.888.074.59.322.885.751.885.21 0 .399-.052.572-.157l.204.293zm12.266-7.853c0 1.109-.39 1.935-1.168 2.479-.853.6-2.219.901-4.107.901h-1.678v4.473h1.532v.38h-5.875v-.38h1.533V21.492h-1.533v-.38h5.767c1.4 0 2.5.132 3.304.4 1.48.483 2.225 1.39 2.225 2.719zm-3.195.485v-1.23c0-.715-.133-1.203-.402-1.456-.365-.358-1.119-.538-2.262-.538h-1.094v5.739h.911c1.264 0 2.093-.25 2.482-.745.244-.314.365-.902.365-1.77zm14.655 7.749H95.61v-.381h1.459l-1.15-2.929h-3.814l-.275.745c-.037.092-.086.24-.154.441-.065.203-.1.343-.1.425 0 .475.1.797.292.97.194.174.652.29 1.369.348v.38h-4.015v-.38c.464 0 .828-.105 1.094-.312.269-.207.572-.75.912-1.63l3.557-9.273h.986l4.252 11.215h1.113v.38h.003zm-5.294-3.71l-1.823-4.698-1.805 4.699h3.628zm11.936 3.71h-5.875v-.381h1.533V21.492h-1.533v-.38h5.875v.38h-1.533v10.592h1.533v.38zm14.454 0h-5.621v-.381h1.276v-5.427h-4.234v5.427h1.276v.38h-5.621v-.38h1.533V21.492h-1.533v-.38h5.621v.38h-1.276v4.785h4.234v-4.785h-1.276v-.38h5.621v.38h-1.532v10.592h1.532v.38zm11.334-4.021l-.146 4.023h-.51c-.074-.243-.225-.393-.457-.45a1.04 1.04 0 0 0-.383 0c-.634.243-1.175.418-1.623.53a6.57 6.57 0 0 1-1.551.165c-1.546 0-2.859-.624-3.941-1.873-1.023-1.177-1.533-2.554-1.533-4.125 0-1.653.615-3.05 1.842-4.194 1.181-1.099 2.519-1.647 4.015-1.647.522 0 .986.059 1.388.174.936.266 1.424.4 1.458.4.133 0 .251-.03.347-.086.157-.092.25-.256.272-.486h.509l.038 3.9h-.384c-.194-.97-.602-1.785-1.224-2.444-.67-.717-1.452-1.075-2.355-1.075-1.094 0-1.848.433-2.262 1.3-.303.623-.454 1.577-.454 2.859v2.393c0 1.515.238 2.648.711 3.406.476.757 1.137 1.136 1.99 1.136.729 0 1.4-.226 2.009-.676.924-.682 1.502-1.757 1.734-3.224h.51v-.006zm12.297.833c0 1.271-.59 2.16-1.771 2.669-.803.347-1.897.52-3.285.52h-5.421v-.38h1.533V21.495h-1.533v-.381h5.875v.38h-1.533v4.49h.767c1.483 0 2.689.226 3.613.676 1.174.564 1.755 1.437 1.755 2.617zm-3.193.623v-1.351c0-.705-.114-1.214-.346-1.525-.327-.44-.936-.66-1.823-.66h-.767v5.722h.659c.986 0 1.641-.243 1.972-.728.203-.303.305-.789.305-1.458zm16.717 2.184a3.417 3.417 0 0 1-1.971.623c-1.06 0-1.765-.305-2.117-.918-.195-.335-.368-1.071-.52-2.209-.151-1.138-.293-1.828-.429-2.071-.294-.521-.872-.78-1.734-.78h-1.131v5.357h1.533v.38h-5.875v-.38h1.532V21.495h-1.532v-.381h5.875v.38h-1.533v4.837h1.112c.754 0 1.249-.134 1.478-.4.293-.347.439-1.108.439-2.288 0-1.121.268-1.895.803-2.322.377-.301.93-.45 1.66-.45.559 0 1.01.157 1.35.469.34.311.51.682.51 1.109 0 .403-.13.742-.392 1.014-.263.272-.612.408-1.051.408-.464 0-.8-.132-1.014-.4-.213-.265-.318-.59-.318-.97l.056-.469c0-.173-.038-.26-.109-.26-.231 0-.37.011-.42.036-.158.07-.287.256-.383.555a6.13 6.13 0 0 0-.22.893c-.049.295-.074.65-.074 1.067 0 .659-.077 1.128-.238 1.404a1.457 1.457 0 0 1-.711.623v.069c1.153 0 2.046.245 2.683.736.637.492 1.011 1.166 1.119 2.02.025.635.059 1.265.093 1.888.074.59.321.885.751.885.21 0 .398-.052.571-.157l.207.293zm12.119.38h-5.529v-.38h1.458l-1.149-2.929h-3.814l-.272.745a7.36 7.36 0 0 0-.155.441c-.068.203-.102.343-.102.425 0 .475.099.797.294.97.195.174.652.29 1.369.348v.38h-4.015v-.38c.464 0 .829-.105 1.094-.312.269-.207.572-.75.912-1.63l3.557-9.273h.986l4.253 11.215h1.113v.38zm-5.295-3.708l-1.823-4.699-1.805 4.699h3.628zm25.423 3.709h-5.621v-.381h1.279V21.492h-4.271v10.592h1.276v.38h-5.621v-.38h1.533V21.492h-1.533v-.38h12.955v.38h-1.533v10.592h1.533v.38h.003zm12.829-8.234c0 1.109-.389 1.935-1.168 2.479-.853.6-2.219.901-4.107.901h-1.678v4.473h1.533v.38h-5.876v-.38h1.533V21.492h-1.533v-.38h5.767c1.4 0 2.501.132 3.304.4 1.484.483 2.225 1.39 2.225 2.719zm-3.192.485v-1.23c0-.715-.133-1.203-.402-1.456-.365-.358-1.119-.538-2.262-.538h-1.094v5.739h.912c1.264 0 2.092-.25 2.481-.745.241-.314.365-.902.365-1.77zm13.923 7.749h-5.529v-.381h1.459l-1.15-2.929h-3.814l-.272.745a7.41 7.41 0 0 0-.154.441c-.068.203-.102.343-.102.425 0 .475.099.797.293.97.195.174.652.29 1.369.348v.38h-4.014v-.38c.46 0 .828-.105 1.094-.312.269-.207.572-.75.912-1.63l3.56-9.273h.986l4.252 11.215h1.113v.38h-.003zm-5.291-3.71l-1.824-4.698-1.804 4.699h3.628zm17.391.676c0 1.272-.649 2.145-1.954 2.617-.766.279-1.789.417-3.066.417h-6.314v-.381h1.533V21.492h-1.533v-.38h5.82c1.935 0 3.304.23 4.107.692.68.394 1.023.96 1.023 1.699 0 .82-.476 1.468-1.424 1.941-.643.324-1.453.548-2.427.676l.019.104c1.508.279 2.615.716 3.322 1.318.597.509.894 1.138.894 1.89zm-3.487-5.2v-1.144c0-.672-.275-1.128-.822-1.37-.34-.151-.803-.227-1.387-.227h-1.295v4.437h1.295c.633 0 1.143-.127 1.533-.38.451-.287.676-.726.676-1.316zm.294 5.652V28.67c0-.646-.114-1.144-.346-1.492-.39-.577-1.069-.866-2.043-.866h-1.406v5.772h1.168c.899 0 1.552-.15 1.953-.45.448-.337.674-.92.674-1.75zm15.951 5.86h-.51c-.195-1.04-.622-1.837-1.277-2.393-.705-.59-1.619-.885-2.738-.885h-3.594c-.792 0-1.388.115-1.79.347-.841.475-1.4 1.45-1.678 2.929h-.603l.22-3.657h1.424c.353-.404.622-.814.804-1.23.269-.6.402-1.295.402-2.08l.275-4.506v-1.18c0-.53-.081-.911-.238-1.144-.22-.311-.634-.468-1.239-.468h-.384v-.364h10.477v.364h-1.533v10.608h1.808l.174 3.659zm-4.8-3.659V21.476h-1.972c-.754 0-1.218.069-1.388.207-.281.232-.42.84-.42 1.824l-.309 5.261c0 .753-.093 1.385-.284 1.893a5.392 5.392 0 0 1-.795 1.425h5.168v-.002zm17.081.38h-5.529v-.38h1.459l-1.15-2.929h-3.813l-.272.745a7.36 7.36 0 0 0-.155.441c-.068.203-.102.343-.102.425 0 .475.099.797.291.97.194.174.652.29 1.369.348v.38h-4.015v-.38c.464 0 .828-.105 1.094-.312.269-.207.572-.75.912-1.63l3.557-9.273h.986l4.253 11.215h1.112v.38h.003zm-5.294-3.708l-1.823-4.699-1.805 4.699h3.628zm-142.831-9.498c0 .285-.139.52-.42.711-.281.19-.631.285-1.051.285-.42 0-.77-.094-1.051-.285-.281-.19-.42-.427-.42-.711s.139-.52.42-.711c.281-.19.631-.285 1.051-.285.42 0 .77.094 1.051.285.281.19.42.427.42.711zm4.095 0c0 .285-.139.52-.42.711-.281.19-.631.285-1.051.285-.42 0-.77-.094-1.051-.285-.278-.19-.42-.427-.42-.711s.139-.52.42-.711c.281-.19.631-.285 1.051-.285.42 0 .77.094 1.051.285.281.19.42.427.42.711z" fill="#fff"/></svg>