<svg width="240" height="59" viewBox="0 0 240 59" fill="none" xmlns="http://www.w3.org/2000/svg">
<path d="M0.232049 25.8947C0.19325 22.3459 0.813145 18.8207 2.06027 15.498C3.19741 12.4588 4.92 9.67221 7.13037 7.29639C9.3363 4.97559 12.007 3.1463 14.9681 1.92805C18.1486 0.620506 21.5594 -0.0346701 24.998 0.00141334C27.9446 -0.014532 30.877 0.410699 33.6977 1.26297C36.4455 2.106 38.5938 3.1916 40.1427 4.51976V13.473C38.3121 11.3339 36.0169 9.64151 33.4323 8.52514C30.9549 7.48329 28.055 6.96335 24.7326 6.96534C22.3893 6.9361 20.0672 7.4111 17.9237 8.35813C15.8924 9.27535 14.0773 10.6107 12.5971 12.277C11.0494 14.0319 9.86357 16.0751 9.10771 18.2896C7.46927 23.2385 7.46927 28.5837 9.10771 33.5327C9.85784 35.7143 11.0191 37.732 12.5285 39.4766C13.9826 41.1276 15.7721 42.4494 17.7776 43.3537C19.9082 44.3017 22.2189 44.7768 24.5506 44.7465C27.0893 44.7461 29.6119 44.3435 32.0246 43.5536C34.2789 42.865 36.3847 41.7614 38.2339 40.2998L42.5495 45.2804C40.2088 47.39 37.4714 49.0121 34.497 50.0522C31.1973 51.2337 27.7153 51.8243 24.2106 51.7969C20.8499 51.841 17.5157 51.1964 14.4134 49.9031C11.5326 48.6887 8.94916 46.8643 6.84107 44.5557C4.68749 42.1714 3.02809 39.3838 1.95887 36.354C0.775002 32.9957 0.190506 29.4554 0.232049 25.8947Z" fill="white"/>
<path d="M50.2441 17.5232H64.3927C68.3314 17.5232 71.3755 18.243 73.5248 19.6825C75.6741 21.122 76.7478 23.2773 76.7458 26.1483C76.7458 29.5125 75.3739 31.9253 72.6301 33.3866C76.1712 34.9375 77.9417 37.6386 77.9417 41.4899C77.9417 44.5438 76.7796 46.8463 74.4553 48.3971C72.131 49.948 68.8215 50.7234 64.5269 50.7234H50.2441V17.5232ZM64.3927 30.8755C66.0747 30.8755 67.3671 30.5653 68.2698 29.9449C69.1725 29.3246 69.6258 28.3722 69.6298 27.0878C69.6298 25.8948 69.1764 25.0001 68.2698 24.4036C67.3631 23.8071 66.0708 23.5089 64.3927 23.5089H57.2856V30.8814L64.3927 30.8755ZM57.2856 36.2438V44.7437H64.5269C66.5151 44.7437 68.064 44.4007 69.1735 43.7147C70.2829 43.0288 70.8366 41.977 70.8347 40.5593C70.8513 39.9465 70.7166 39.3391 70.4425 38.7908C70.1683 38.2425 69.7632 37.7702 69.2629 37.4159C68.2211 36.6444 66.6384 36.2577 64.5149 36.2557L57.2856 36.2438Z" fill="white"/>
<path d="M86.045 17.5232H93.0835V50.7353H86.045V17.5232Z" fill="white"/>
<path d="M98.264 44.5558H102.648L112.744 23.6342H105.505V17.5232H132.469V44.6393H139.576L133.665 58.9847H126.361L129.681 50.7502H98.264V44.5558ZM110.021 44.6244H125.431V23.6342H120.182L110.021 44.6244Z" fill="white"/>
<path d="M160.563 16.5268C163.027 16.4996 165.473 16.9398 167.772 17.8242C169.871 18.615 171.78 19.8401 173.373 21.4194C174.967 22.9988 176.208 24.8968 177.017 26.9891C178.747 31.5693 178.747 36.6231 177.017 41.2033C176.197 43.286 174.967 45.1826 173.4 46.7804C171.808 48.3815 169.895 49.6267 167.787 50.4339C165.488 51.3182 163.042 51.7585 160.578 51.7312C158.132 51.7586 155.702 51.3182 153.421 50.4339C151.315 49.6253 149.4 48.3869 147.799 46.7977C146.198 45.2085 144.946 43.3032 144.121 41.2033C142.392 36.6231 142.392 31.5693 144.121 26.9891C144.94 24.9069 146.184 23.0178 147.772 21.4418C149.38 19.8704 151.289 18.6399 153.385 17.8242C155.673 16.9372 158.11 16.4968 160.563 16.5268ZM149.937 34.1231C149.918 35.698 150.189 37.263 150.736 38.7398C151.232 40.0737 151.974 41.3021 152.926 42.3605C153.859 43.3806 155.004 44.1847 156.281 44.7166C157.637 45.2801 159.094 45.5622 160.563 45.5457C162.055 45.5663 163.535 45.2842 164.915 44.7166C166.191 44.1847 167.336 43.3806 168.27 42.3605C169.22 41.3067 169.954 40.0765 170.429 38.7398C171.45 35.7425 171.45 32.4917 170.429 29.4944C169.955 28.1653 169.224 26.9423 168.279 25.8946C167.346 24.8735 166.2 24.0684 164.924 23.5355C163.544 22.9679 162.064 22.6858 160.572 22.7064C159.103 22.6899 157.646 22.972 156.29 23.5355C155.013 24.0684 153.868 24.8735 152.934 25.8946C151.983 26.9514 151.24 28.1789 150.745 29.5122C150.195 30.9885 149.921 32.5535 149.937 34.129V34.1231Z" fill="white"/>
<path d="M204.799 33.5327L223.063 16.7268V50.7263H216.024V31.3406L204.799 42.0982L193.573 31.4062V50.7352H186.534V16.7358L204.799 33.5327Z" fill="white"/>
<path d="M232.959 17.5232H240V50.7353H232.959V17.5232Z" fill="white"/>
</svg>
