<svg width="1029" height="209" viewBox="0 0 1029 209" fill="none" xmlns="http://www.w3.org/2000/svg">
<path fill-rule="evenodd" clip-rule="evenodd" d="M593.707 4.25C593.147 8.546 592.092 14.133 589.173 28.25L587.571 36H577H566.429L564.791 44.75C563.891 49.563 562.629 56.875 561.987 61C560.708 69.221 559.238 77.205 558.352 80.733C557.786 82.987 557.846 83 568.892 83C581.521 83 580.856 82.362 578.575 92.294C577.791 95.708 576.642 101.875 576.022 106C575.401 110.125 574.264 116.875 573.495 121C572.726 125.125 571.358 132.775 570.456 138C569.553 143.225 568.181 150.292 567.407 153.706C566.633 157.119 566.006 160.944 566.013 162.206C566.02 163.467 565.347 167.65 564.518 171.5C563.689 175.35 562.05 184.125 560.875 191C559.7 197.875 558.521 204.737 558.256 206.25L557.773 209H607.341H656.909L657.505 205.25C659.506 192.64 660.332 187.748 661.514 181.5C662.243 177.65 663.072 172.813 663.357 170.75L663.874 167H638.574H613.273L614.581 160.75C615.301 157.313 616.595 151.125 617.458 147C618.32 142.875 619.02 138.467 619.013 137.206C619.006 135.944 619.648 132.119 620.441 128.706C621.233 125.292 622.607 117.775 623.494 112C624.38 106.225 625.492 99.925 625.964 98C626.436 96.075 627.119 91.913 627.483 88.75L628.144 83H652.416H676.687L678.277 74.75C679.151 70.212 680.388 63.125 681.027 59C681.665 54.875 682.82 48.189 683.593 44.143C684.367 40.097 685 36.609 685 36.393C685 36.177 674.017 36 660.594 36H636.187L637.023 32.75C637.913 29.291 639.667 19.84 640.997 11.331C641.442 8.48799 642.11 4.77599 642.482 3.08099L643.159 0H618.71H594.26L593.707 4.25ZM246.5 26.994C205.865 33.042 173.484 62.805 163.627 103.164C161.203 113.093 161.403 138.168 163.981 147.5C168.281 163.063 174.18 173.876 183.66 183.574C199.494 199.771 217.712 207.542 242.589 208.71C266.832 209.847 288.203 204.395 305.5 192.66C313.535 187.208 317.284 183.82 326 174.132C329.609 170.12 335.342 162 336.683 159C337.052 158.175 338.399 155.821 339.677 153.77C344.055 146.741 344.948 147 316.341 147H290.682L285.937 151.872C268.598 169.673 237.241 172.2 221.962 157.027C219.539 154.621 215 148.227 215 147.22C215 146.718 214.355 145.001 213.566 143.404C212.777 141.807 211.819 137.688 211.437 134.25L210.742 128H277.754H344.767L345.376 125.75C346.847 120.311 347.22 103.819 346.051 95.877C344.583 85.907 343.055 81.166 337.874 70.5C328.949 52.131 311.464 36.773 292.465 30.614C279.898 26.541 260.048 24.977 246.5 26.994ZM449.5 26.695C447.85 26.913 442.736 28.013 438.134 29.139C414.269 34.982 394.009 49.855 378.588 72.85C376.615 75.793 375 78.368 375 78.573C375 78.778 373.919 81.32 372.597 84.223C366.34 97.966 364 109.199 364 125.5C364 156.837 375.288 179.152 399.149 194.984C413.275 204.358 429.615 208.997 448.5 208.997C480.165 208.997 505.626 196.065 524.677 170.305C530.228 162.798 540 144.983 540 142.369C540 141.248 535.588 141 515.614 141H491.228L489.596 144.439C486.429 151.113 478.256 158.802 470.22 162.667C463.687 165.809 461.442 166.36 453.483 166.776C440.587 167.451 433.463 165.046 424.71 157.061C415.919 149.043 412.281 136.776 413.487 119.226C414.551 103.743 419.658 92.127 429.89 81.917C441.936 69.899 456.077 65.598 471 69.415C482.243 72.291 489.62 78.546 494.966 89.739L497.957 96H521.572H545.188L544.52 90.75C543.781 84.94 541.973 79.191 538.38 71.223C537.071 68.32 536 65.709 536 65.419C536 64.17 524.403 49.36 520.634 45.797C515.17 40.631 503.066 33.512 495.542 31.038C482.971 26.906 462.527 24.977 449.5 26.695ZM772.5 27.542C750.719 31.613 732.931 41.4 716.65 58.273C701.873 73.587 693.927 89.279 690.458 110C687.857 125.534 689.124 141.928 693.973 155.5C702.32 178.859 722.222 197.401 747 204.902C769.024 211.57 797.17 209.796 817.682 200.449C839.413 190.546 859.354 171.324 868.981 151C874.806 138.703 877.97 124.428 878.087 109.912C878.254 89.257 872.532 72.25 860.333 57.138C856.448 52.325 854.326 50.248 845.108 42.232C840.803 38.488 825.07 31.346 816 29.017C804.758 26.132 783.842 25.422 772.5 27.542ZM12.25 35.747L0 36.062V122.531V209H46.792H93.584L96.358 202.75C97.883 199.313 99.533 195.6 100.024 194.5C100.515 193.4 102.96 188.085 105.458 182.69C107.956 177.294 110 172.663 110 172.398C110 171.946 111.047 169.642 119.616 151.228C121.477 147.229 123 143.75 123 143.497C123 143.245 124.734 139.317 126.852 134.769C128.971 130.221 132.404 122.675 134.482 118C136.559 113.325 140 105.761 142.129 101.191C144.258 96.621 146 92.693 146 92.463C146 92.232 147.614 88.546 149.586 84.272C155.246 72.004 156.527 69.194 161.8 57.5C164.528 51.45 167.714 44.387 168.88 41.805C170.046 39.223 171 36.635 171 36.055C171 35.342 162.595 35 145.089 35H119.178L117.027 39.75C113.856 46.752 112.032 51.008 108.564 59.5C107.891 61.15 106.631 64.075 105.766 66C104.901 67.925 103.283 71.525 102.172 74C101.061 76.475 96.264 87.725 91.513 99C81.74 122.189 79.515 127.305 77.451 131.331C76.653 132.888 76 134.603 76 135.143C76 135.682 74.928 138.458 73.618 141.312C72.308 144.165 69.895 149.425 68.256 153C66.617 156.575 64.673 161.188 63.937 163.25L62.598 167H54.299H46V101V35L35.25 35.216C29.337 35.335 18.988 35.574 12.25 35.747ZM912 39.544C912 41.494 911.359 45.881 910.575 49.294C909.791 52.708 908.648 58.875 908.034 63C906.358 74.262 903.961 87.742 902.395 94.706C901.628 98.119 901 102.076 901 103.5C901 104.924 900.359 108.881 899.575 112.294C898.791 115.708 897.642 121.875 897.022 126C896.401 130.125 895.264 136.875 894.495 141C893.726 145.125 892.362 152.775 891.464 158C890.565 163.225 889.192 170.425 888.412 174C887.633 177.575 887.002 181.4 887.01 182.5C887.019 183.6 886.373 187.65 885.576 191.5C884.779 195.35 883.727 200.862 883.237 203.75L882.346 209H906.432H930.518L932.26 201.25C933.217 196.987 934.001 192.629 934 191.564C934 190.499 934.624 186.899 935.386 183.564C936.148 180.229 937.538 173 938.474 167.5C939.41 162 940.775 154.575 941.506 151C942.238 147.425 943.364 141.125 944.01 137C946.987 117.975 950.328 104.803 952.668 102.86C953.401 102.252 954 101.231 954 100.59C954 99.189 962.364 91.055 966.32 88.607C973.508 84.16 976.788 83.619 1000 83.051L1022.5 82.5L1022.74 79.5C1022.88 77.85 1023.66 73.125 1024.49 69C1026.82 57.326 1029 42.984 1029 39.324V36H1001.68C970.755 36 974.81 34.947 967.014 45.003C962.227 51.179 961.82 51.555 959.171 52.246C957.364 52.718 956.972 52.514 957.423 51.34C957.743 50.507 958.25 47.952 958.549 45.663C958.849 43.373 959.287 40.262 959.522 38.75L959.95 36H935.975H912V39.544ZM275.066 71.17C282.036 74.364 288.963 81.305 292.377 88.514C297.285 98.88 300.704 98 255.517 98H216.034L218.136 94.25C228.027 76.606 243.049 67.622 261.5 68.318C267.491 68.544 270.898 69.26 275.066 71.17ZM800.54 69.54C810.45 72.102 820.754 80.387 824.742 89C828.848 97.87 830.403 113.79 828.063 123C823.928 139.269 820.943 144.96 811.899 153.816C793.356 171.974 761.555 171.451 746.771 152.745C742.562 147.421 741.405 144.996 739.513 137.54C736.492 125.639 738.595 107.891 744.507 95.393C747.855 88.314 758.21 77.693 765.605 73.753C776.132 68.144 789.09 66.581 800.54 69.54Z" fill="white"/>
</svg>
