<svg width="241" height="123" viewBox="0 0 241 123" fill="none" xmlns="http://www.w3.org/2000/svg"><path d="M121.27 35.25c.33.13.21.37.15.61a4226.108 4226.108 0 0 0-4.56 17.26 22095.49 22095.49 0 0 0-9.13 34.62c0 .18-.11.36-.17.58-2.61 0-5.19.17-7.61-1.14a8.56 8.56 0 0 1-4.17-5.25 202.1 202.1 0 0 1-2.75-9.85c-1.79-7-3.5-14.08-5.26-21.12-.117-.5-.302-.98-.55-1.43a1.18 1.18 0 0 0-2.2 0 8.864 8.864 0 0 0-.76 2.07c-2.29 9.11-4.54 18.24-6.85 27.35a26.503 26.503 0 0 1-1.52 4.39 8.25 8.25 0 0 1-6.82 4.85 38.087 38.087 0 0 1-3.86.16c-.46 0-.65-.13-.77-.59a3415.072 3415.072 0 0 0-4.89-18.46c-2.947-11.12-5.893-22.237-8.84-33.35a2.06 2.06 0 0 1 .06-.69h2.39c.21 0 .41.09.61.11a9.42 9.42 0 0 1 8.48 7.28c2.4 9.26 4.81 18.517 7.23 27.77 0 .21.13.42.23.72.08-.25.12-.4.16-.54 1.76-7.14 3.517-14.28 5.27-21.42a25.801 25.801 0 0 1 2.73-7.31 7.52 7.52 0 0 1 3.25-3.09 11 11 0 0 1 7.75-.71 7.881 7.881 0 0 1 4.93 3.67 20.364 20.364 0 0 1 2.19 5.1c1.913 7.22 3.807 14.44 5.68 21.66l.72 2.69c.08-.25.11-.35.14-.46 2.447-9.38 4.893-18.763 7.34-28.15a8.788 8.788 0 0 1 6.14-6.64c1-.31 2-.46 3-.68l2.26-.01zm65.94.34c-.66.95-1.33 1.89-2 2.84-5.18 7.673-10.363 15.34-15.55 23a.75.75 0 0 0 0 1c5.66 8.4 11.307 16.806 16.94 25.22.12.17.22.35.41.63l-1.64.08a21.525 21.525 0 0 1-5.6-.51 10.49 10.49 0 0 1-6.08-4.12c-1.21-1.56-2.41-3.12-3.54-4.74-2-2.83-3.88-5.71-5.82-8.56a1.31 1.31 0 0 0-2.42 0c-2.29 3.33-4.52 6.69-6.83 10-1 1.39-2 2.7-3.11 4a10.605 10.605 0 0 1-7.53 3.76c-1.76.16-3.55.15-5.32.22l-.07-.21c.11-.18.22-.37.34-.55 5.62-8.387 11.25-16.78 16.89-25.18a.909.909 0 0 0 0-1.19l-16.52-25.21-.33-.54 1.88-.28h2.62l1.57.22a9 9 0 0 1 6 3.11c.62.77 1.32 1.48 1.88 2.28 2.86 4.06 5.7 8.136 8.52 12.23 1 1.39 1.78 1.44 2.74 0 1.3-1.89 2.57-3.81 3.88-5.69 1.82-2.61 3.62-5.24 5.52-7.79a9.77 9.77 0 0 1 6.14-4c.82-.15 1.64-.26 2.46-.39h4.27c.37.01.29.18.3.37zm-62.28 52.53V52.69a4.356 4.356 0 0 1 2.6-4.33c1-.49 2-1 3-1.48a11.336 11.336 0 0 0 3.64-2.69c.089-.085.182-.165.28-.24V77.6c0 1.74-.12 3.48-.28 5.22-.24 2.72-2 4.21-4.43 4.94a12.38 12.38 0 0 1-4.81.36zm-.08-41.48s-2.44-12.14 9.5-11.46c0 0 .94 6.74-5.33 9.1a11.995 11.995 0 0 0-4.17 2.36z" fill="#676B6F"/></svg>