<svg width="241" height="123" viewBox="0 0 241 123" fill="none" xmlns="http://www.w3.org/2000/svg"><path fill-rule="evenodd" clip-rule="evenodd" d="M31 38.688c.018.344.532 2.087 1.143 3.875l1.11 3.25 2.358.152 2.357.153v38.83l-2.75.343-2.75.344v6.928h22v-6.92l-3.25-.349-3.25-.348V46.063l4.375.003c4.874.003 7.671.61 9.809 2.13 3.253 2.312 4.33 8.646 2.191 12.882-1.414 2.8-3.47 4.177-7.384 4.947-2.062.405-2.994.807-2.835 1.222.13.34.634 2.033 1.12 3.763.485 1.73 1.184 3.26 1.554 3.403 1.006.386 7.348-1.166 9.728-2.38 3.15-1.607 6.694-5.195 8.013-8.113 1.009-2.231 1.179-3.4 1.18-8.107 0-4.573-.182-5.892-1.075-7.825-2.07-4.477-6.261-7.679-12.016-9.178-3.85-1.002-31.678-1.11-31.628-.122zm101.43 13.336c-3.106 3.106-.944 8.039 3.523 8.039 2.934 0 4.515-1.663 4.515-4.75 0-3.087-1.581-4.75-4.515-4.75-1.612 0-2.381.319-3.523 1.461zM82.718 64c-2.23.59-4.347 1.797-5.935 3.386-5.107 5.107-5.575 15.773-.93 21.199 2.203 2.575 4.679 3.821 9.09 4.578 4.18.717 10.195.036 13.81-1.563l2.252-.996-1.328-2.645c-.731-1.455-1.385-2.71-1.454-2.789-.069-.078-1.894.451-4.057 1.177-4.187 1.406-6.77 1.45-9.48.164-1.525-.724-3.526-4.045-2.974-4.937.197-.319 3.96-.51 10.036-.51h9.72v-3.16c0-6.212-2.328-10.712-6.694-12.94-2.226-1.135-9.276-1.7-12.056-.964zm72.962 0c-4.464 1.16-8.134 4.826-9.245 9.236-.881 3.498-.389 10.607.907 13.11 1.348 2.601 4.452 5.407 6.936 6.268 2.487.862 9.301.88 12.124.033 2.955-.887 6.641-4.613 7.733-7.817 1.178-3.457 1.101-9.515-.164-12.895-1.073-2.87-3.654-5.71-6.486-7.137-1.933-.975-9.226-1.467-11.805-.798zm-50.507.75c-.146.379-.195 1.785-.11 3.125.15 2.346.216 2.443 1.78 2.593l1.625.157v15.938h-3.5v6h15.5v-6h-3.5l.002-5.375c.002-4.51.165-5.642 1.011-7.03 1.225-2.01 4.022-3.294 6.259-2.874l1.61.302.235-3.387c.129-1.862.143-3.555.03-3.761-.359-.654-4.639-.405-6.111.356-.778.402-1.888 1.471-2.466 2.375l-1.053 1.644-.008-2.375-.009-2.375h-5.515c-4.223 0-5.578.161-5.78.688zm24.5 0c-.146.379-.195 1.785-.11 3.125.15 2.346.216 2.443 1.78 2.593l1.625.157V86.5l-1.625.157c-1.606.155-1.626.19-1.775 3.032l-.15 2.875h15.05v-6h-3v-22.5h-5.765c-4.435 0-5.827.159-6.03.688zm51.42-.32l-4.625.17v2.98c0 2.98.001 2.982 1.5 2.982h1.5v16h-3v6h14.5v-6h-3V74.216l1.753-1.804c2.872-2.958 6.654-2.975 7.771-.036.262.688.476 4.162.476 7.72v6.467h-3v6h14.5v-3c0-2.973-.013-3-1.441-3h-1.441l-.199-8.125c-.184-7.515-.292-8.29-1.434-10.326-1.639-2.92-3.834-4.05-7.868-4.05-3.518 0-5.604.706-7.96 2.693l-1.594 1.344-.156-1.889c-.105-1.259-.407-1.899-.907-1.919-.412-.016-2.831.047-5.375.14zm-90.308 6.018c1.303 1.056 2.183 2.7 2.183 4.08 0 .985-.272 1.034-5.75 1.034-3.233 0-5.75-.205-5.75-.468 0-1.241 1.17-3.396 2.391-4.405 1.696-1.4 5.338-1.528 6.926-.241zm72.496.07c3.846 2.346 4.261 11.87.667 15.314-1.583 1.516-4.392 1.847-6.428.758-2.751-1.473-3.98-8.688-2.226-13.071 1.433-3.582 4.899-4.884 7.987-3z" fill="#676B6F"/></svg>