<svg width="241" height="123" viewBox="0 0 241 123" fill="none" xmlns="http://www.w3.org/2000/svg"><path d="M66.47 77.55v5.31a4.92 4.92 0 0 1-2.2 4.37c-6.71 4.47-14 5.92-21.77 3.65a18.64 18.64 0 0 1-13.5-14c-2.13-8.23-.44-15.64 5.72-21.7 4.42-4.35 9.93-5.94 16-5.69a22.1 22.1 0 0 1 12.18 3.9 3.66 3.66 0 0 1 1.75 3.55 3.56 3.56 0 0 1-5.79 2.4 15.818 15.818 0 0 0-5.67-2.75C42.05 53.91 35 63 35.8 72c.4 4.66 2.19 8.56 6.22 11.15a14.2 14.2 0 0 0 11.58 1.63 32 32 0 0 0 5.22-2.17 1.519 1.519 0 0 0 .63-1.12c.06-2 0-4.1 0-6.15 0-.64-.25-.81-.85-.81h-7.29a3 3 0 0 1-3-2.08 2.87 2.87 0 0 1 .93-3.32 4.11 4.11 0 0 1 2.24-.81c3.76-.08 7.52-.07 11.28 0a3.468 3.468 0 0 1 3.64 3.66c.1 1.84.07 3.71.07 5.57zm35.4-17.93a16.14 16.14 0 1 1 .14 32.27c-9.4 0-16.6-6.9-16.62-16a16.181 16.181 0 0 1 16.48-16.27zm9.35 16c0-.22 0-.66-.06-1.1a9.46 9.46 0 0 0-8.5-8.66 9 9 0 0 0-9.78 6.91c-1.41 5.17 1.07 10.53 5.81 12.25 5.89 2.2 12.48-1.6 12.53-9.35v-.05zm58.49-16a16.143 16.143 0 0 1 16.542 16.135 16.13 16.13 0 0 1-4.871 11.554 16.137 16.137 0 0 1-11.671 4.581c-9.32 0-16.47-6.9-16.48-15.94a16.115 16.115 0 0 1 4.772-11.664 16.125 16.125 0 0 1 11.708-4.666zM179 75.88v-.66a9.579 9.579 0 0 0-8.1-9.26 8.999 8.999 0 0 0-10.14 6.51c-1.45 4.66.49 9.92 4.43 12C171.78 88 179 83.48 179 75.88zm33-30.4a15.352 15.352 0 0 1-3 8.5c-2.36 3.28-4.68 6.58-7 9.88a4.936 4.936 0 0 1-4 2.048 4.93 4.93 0 0 1-4-2.048c-2.46-3.45-5-6.86-7.33-10.36-3.28-4.88-3.58-10-.6-15.1a13.057 13.057 0 0 1 13.5-6.72c5.89.66 9.78 4.09 11.69 9.68.352 1.352.599 2.73.74 4.12zM198 57.6c2.07-2.94 4.11-5.67 6-8.53a6.809 6.809 0 0 0-1.55-9 7 7 0 0 0-10.27 9.28c1.69 2.47 3.45 4.9 5.19 7.35.13.3.33.52.63.9zm-62.13 25.23l2.37-6 5.44-13.93c.125-.34.269-.675.43-1a3.412 3.412 0 0 1 4.55-1.72 3.321 3.321 0 0 1 1.79 4.35c-.74 1.94-1.62 3.84-2.44 5.75a8974.316 8974.316 0 0 1-7.9 18.15c-.85 1.93-2.06 3.37-4.46 3.32-2.22 0-3.34-1.41-4.14-3.2-1.38-3.12-2.73-6.25-4.09-9.38l-6-13.72c-.61-1.39-.9-2.78.12-4.12a3.57 3.57 0 0 1 6.22.85c.89 2 1.62 4.11 2.42 6.17l5.31 13.68c.09.2.18.37.38.8zM80 69.93v18a3.38 3.38 0 0 1-2.59 3.42 3.43 3.43 0 0 1-4-1.59 4.11 4.11 0 0 1-.48-1.89V51.78a3.421 3.421 0 0 1 3.55-3.6A3.47 3.47 0 0 1 80 51.83v18.1zm117.91 5.88a3.799 3.799 0 1 1 3.88-3.8 3.784 3.784 0 0 1-.288 1.478 3.783 3.783 0 0 1-2.109 2.065 3.766 3.766 0 0 1-1.483.257z" fill="#676B6F"/></svg>