<svg width="241" height="123" viewBox="0 0 241 123" fill="none" xmlns="http://www.w3.org/2000/svg"><path d="M125.28 14c1.56.28 3.17.43 4.69.85 10.83 3 17.86 9.93 20.48 20.88a27.927 27.927 0 0 1-10.667 28.722A27.92 27.92 0 1 1 115.22 15.22c1.74-.52 3.58-.72 5.37-1.07l.67-.15h4.02zm8.09 35.42a11.391 11.391 0 0 1-7.31 4.72c-4.72.88-9-.11-12.23-3.79a12.256 12.256 0 0 1-2.35-13 12.4 12.4 0 0 1 15.12-7.71 13.762 13.762 0 0 1 7.27 5.22 1.817 1.817 0 0 0 2.648.722 1.831 1.831 0 0 0 .796-1.281 1.834 1.834 0 0 0-.444-1.441 9.322 9.322 0 0 0-.57-.83 16.35 16.35 0 0 0-19.14-5.31C109 30 104.66 39.83 108 48a16.396 16.396 0 0 0 12.217 9.934A16.397 16.397 0 0 0 135.17 53c.097-.087.204-.16.32-.22-.08 1.09-.2 2.16-.22 3.23 0 1.48.7 2.39 1.83 2.38 1.13-.01 1.8-.88 1.81-2.4V45.8h-9.78c-1.33 0-2.17.73-2.17 1.88s.86 1.8 2.15 1.81l4.26-.07zM33.36 95.91c.217-.965.49-1.917.82-2.85a8.421 8.421 0 0 1 13.48-2.84c.15.15.31.3.53.49.1-.36.17-.67.28-1a2.71 2.71 0 0 1 5.23.61c.01.167.01.334 0 .5v13.09a10.519 10.519 0 0 1-1.5 5.62 7.781 7.781 0 0 1-5.45 3.43 18.871 18.871 0 0 1-10.67-.87 2.407 2.407 0 0 1-1.71-1.85 2.2 2.2 0 0 1 3-2.39c1.578.7 3.275 1.094 5 1.16.669.003 1.337-.04 2-.13 2.68-.35 4.34-2.52 3.86-5.66a18.755 18.755 0 0 1-2.89 2 8.456 8.456 0 0 1-7.468-.317 8.454 8.454 0 0 1-4.302-6.113 6.994 6.994 0 0 0-.2-.79l-.01-2.09zm10.24-3.5a4.51 4.51 0 1 0-.06 9 4.528 4.528 0 0 0 3.474-1.134 4.524 4.524 0 0 0 1.126-5.163 4.52 4.52 0 0 0-4.54-2.703zm169.57-.81c-1 2.33-2 4.65-3 7-1.39 3.3-2.77 6.62-4.17 9.92a16.958 16.958 0 0 1-1 2 6.513 6.513 0 0 1-8.94 2.11 2.328 2.328 0 0 1-1-2.82 2.15 2.15 0 0 1 2.41-1.34c.661.124 1.329.208 2 .25a1.625 1.625 0 0 0 1.463-.748 1.616 1.616 0 0 0 .057-1.642c-2-4.7-4-9.38-6-14.08a4.813 4.813 0 0 1-.41-2 2.41 2.41 0 0 1 2.13-2.21 2.51 2.51 0 0 1 2.92 1.5c.55 1.27 1 2.58 1.48 3.87l2.58 7c.09.22.19.44.36.82.24-.6.42-1.05.58-1.51l3.29-9.12a7.07 7.07 0 0 1 .5-1.13 2.58 2.58 0 0 1 4.55-.09l.26.42-.06 1.8zm-86.38-.86c4.28-4 8-3.94 11.15.07.36-.33.7-.67 1.07-1a7.808 7.808 0 0 1 7.19-1.75 5.596 5.596 0 0 1 4.43 5.44c.15 2.62.11 5.25.13 7.87a39.252 39.252 0 0 1-.09 4 2.566 2.566 0 0 1-2.61 2.3 2.71 2.71 0 0 1-2.72-2.2 5.567 5.567 0 0 1 0-1v-7.38c.01-.498-.02-.997-.09-1.49a3.168 3.168 0 0 0-3.239-2.847 3.169 3.169 0 0 0-3.081 3.017c-.13 2.86-.08 5.74-.12 8.61.014.496-.043.991-.17 1.47a2.677 2.677 0 0 1-3 1.79 2.627 2.627 0 0 1-2.23-2.52v-7.79c.004-.69-.053-1.38-.17-2.06a2.847 2.847 0 0 0-3-2.49 3 3 0 0 0-3.15 2.51 10.792 10.792 0 0 0-.17 1.89v7.87a2.666 2.666 0 0 1-2.26 2.59 2.7 2.7 0 0 1-3-1.8 5.56 5.56 0 0 1-.17-1.47V90.61a2.696 2.696 0 0 1 2.26-2.59 2.75 2.75 0 0 1 3 1.79c-.11.34-.05.63.04.93zm-32.44.12a6.88 6.88 0 0 1 5.64-3 6.44 6.44 0 0 1 5.74 3.2 2.9 2.9 0 0 1 .4-.81 7.892 7.892 0 0 1 7.37-2.22 5.702 5.702 0 0 1 4.65 5.08c.078.436.122.877.13 1.32v10.52a2.739 2.739 0 0 1-2.18 2.77 2.681 2.681 0 0 1-3-1.55c-.194-.483-.289-1-.28-1.52v-8.29c-.08-2.19-1.18-3.43-3.08-3.49-1.9-.06-3.28 1.17-3.36 3.39-.09 2.63 0 5.25 0 7.88v1.08a2.709 2.709 0 0 1-4.686 1.771 2.706 2.706 0 0 1-.734-1.941v-7.79a11.975 11.975 0 0 0-.16-1.9 2.843 2.843 0 0 0-2.87-2.48 2.94 2.94 0 0 0-3.22 2.18 8.578 8.578 0 0 0-.27 2.21v8a2.598 2.598 0 0 1-2.24 2.51 2.656 2.656 0 0 1-3-1.8 4.638 4.638 0 0 1-.16-1.39V90.75a2.71 2.71 0 0 1 2.26-2.59 2.75 2.75 0 0 1 3 1.71c-.13.21-.07.51.05.99zm-13.82 14.59a7.236 7.236 0 0 1-4.11 2.16 9.697 9.697 0 0 1-4.51-.25 5.407 5.407 0 0 1-3.83-5.17 5.48 5.48 0 0 1 3.23-5.58 12.81 12.81 0 0 1 8.53-.36l.63.16a2.59 2.59 0 0 0-1.36-3.13 7.27 7.27 0 0 0-2.79-.59 17.647 17.647 0 0 0-3.52.49c-1.47.31-2.69-.23-3.06-1.5a2.29 2.29 0 0 1 1.73-2.85 16.3 16.3 0 0 1 9.15-.51 6.41 6.41 0 0 1 5.11 5.82c.149 1.371.212 2.75.19 4.13v6.05c0 2.05-.66 2.94-2.06 3.22-1.4.28-2.53-.29-3.33-2.09zm-3.36-6.53c-.852.153-1.69.37-2.51.65a2.208 2.208 0 0 0-1.29 2.45 1.998 1.998 0 0 0 1.72 1.87 8.815 8.815 0 0 0 3.16-.12 3.142 3.142 0 0 0 2.41-3.41c0-.46-.14-.74-.6-.84l-2.89-.6zm87.9-2.49a2.998 2.998 0 0 0-1.529-3.264 3.001 3.001 0 0 0-1.231-.346 36.267 36.267 0 0 0-4.76.27c-.482.092-.97.145-1.46.16a2.207 2.207 0 0 1-1.899-1.848 2.208 2.208 0 0 1 1.239-2.342 15.1 15.1 0 0 1 10.69-.4c2.83 1 4.07 3.36 4.2 6.19.17 3.42.09 6.85.07 10.28a2.42 2.42 0 0 1-2.32 2.46 2.518 2.518 0 0 1-2.88-1.91 2.094 2.094 0 0 0-.13-.27 6.711 6.711 0 0 1-4.11 2.17c-1.394.151-2.801.1-4.18-.15a5.207 5.207 0 0 1-4.16-5c-.13-3 1.11-5.07 3.77-6a13.31 13.31 0 0 1 8-.1l.69.1zm-4 7.71a11.306 11.306 0 0 0 1.59-.31 3.22 3.22 0 0 0 2.46-3.48 1.062 1.062 0 0 0-.51-.77 7.68 7.68 0 0 0-4.71-.32 2.418 2.418 0 0 0-2.07 2.6c.09 1.24.91 2 2.38 2.21.25.03.47.04.89.07h-.03zm31.23-9.7v10.52a2.686 2.686 0 0 1-1.292 2.38 2.693 2.693 0 0 1-2.708.05 2.616 2.616 0 0 1-1.4-2.37V84.05a2.782 2.782 0 0 1 2.28-3 2.708 2.708 0 0 1 3.15 2.78c-.01 3.54-.03 7.07-.03 10.61zM62.29 91.39c.299-.567.633-1.115 1-1.64a6.477 6.477 0 0 1 1.43-1.34 2.558 2.558 0 0 1 3.62 1 2.63 2.63 0 0 1-1.41 3.7c-.153.057-.31.104-.47.14a5.11 5.11 0 0 0-4.06 4.86c-.2 2.16-.11 4.35-.19 6.53a4.338 4.338 0 0 1-.31 1.6 2.677 2.677 0 0 1-2.89 1.468 2.68 2.68 0 0 1-2.19-2.388c-.07-1 0-2 0-3.06v-11.1a2.92 2.92 0 0 1 1-2.51 2.55 2.55 0 0 1 2.72-.4 2.61 2.61 0 0 1 1.68 2.27c.04.23.05.48.07.87zm116.54-.12c.45-.69.8-1.31 1.24-1.86a2.997 2.997 0 0 1 3.1-1.29 2.404 2.404 0 0 1 1.94 2.11 2.48 2.48 0 0 1-1.36 2.76 3.433 3.433 0 0 1-.7.25 5.119 5.119 0 0 0-4.11 4.81c-.2 2.08-.13 4.19-.18 6.29.009.466-.028.931-.11 1.39a2.684 2.684 0 0 1-3 2 2.591 2.591 0 0 1-2.35-2.48V90.67a2.67 2.67 0 0 1 2.37-2.58 2.71 2.71 0 0 1 2.9 1.84c.114.441.201.889.26 1.34z" fill="#676B6F"/></svg>