<svg width="1485" height="182" viewBox="0 0 1485 182" fill="none" xmlns="http://www.w3.org/2000/svg"><mask id="a" maskUnits="userSpaceOnUse" x="0" y="0" width="1485" height="182"><path fill="#BF7373" d="M0 0h1485v182H0z"/></mask><g mask="url(#a)" fill="#fff"><path opacity=".2" d="M806.74 143.431a43.03 43.03 0 0 0-9.35.84 51.987 51.987 0 0 0-32.751-25.435 52.012 52.012 0 0 0-40.939 6.605 51.918 51.918 0 0 0-58.77-8.92c-18.93-63.86-119.06-80-158.39-15a51.937 51.937 0 0 0-66.005 7.979 51.935 51.935 0 0 0-11.935 20.631 51.935 51.935 0 0 0-60.93 6.31c-26.67-83.78-151.93-86.72-187.19-11.08-27.33-33-74.55-21.93-87.35 14.8a38.892 38.892 0 0 0-44.858 2.016A38.875 38.875 0 0 0 38 154.241a32.189 32.189 0 0 0-7-.63c-17 0-30.91 12.37-32 30.26h850.53c-1.47-23.92-20.03-40.44-42.79-40.44z"/><path opacity=".1" d="M1165.36 146.001a40.54 40.54 0 0 1 8.74.78 48.66 48.66 0 0 1 12.82-15.068 48.564 48.564 0 0 1 56.02-2.522 48.534 48.534 0 0 1 54.9-8.33c17.68-59.66 111.21-74.7 148-14a48.528 48.528 0 0 1 43.08-4.81 48.509 48.509 0 0 1 18.58 12.265 48.501 48.501 0 0 1 11.15 19.275 48.524 48.524 0 0 1 56.91 5.9c24.88-78.28 141.92-81 174.86-10.37 25.53-30.79 69.64-20.47 81.59 13.83 4.2-2.693 8.9-4.492 13.83-5.287 4.92-.795 9.95-.569 14.78.666a36.376 36.376 0 0 1 13.3 6.509 36.41 36.41 0 0 1 9.59 11.272c2.15-.436 4.35-.633 6.54-.59 15.9 0 28.87 11.55 29.9 28.26H1125.4c1.37-22.35 18.71-37.78 39.96-37.78z"/><path opacity=".1" d="M1403.93 164.131c-2.44-18.45-25.22-23.16-36.79-12.46-10.69-37.38-58.92-48-85.7-17.28-37.44-68.38-140.81-60.48-167.58 3.64a57.452 57.452 0 0 0-39.8-15.263 57.467 57.467 0 0 0-39.37 16.363 39.328 39.328 0 0 0-52.81 2.88 39.337 39.337 0 0 0-47.59 5.29c-22.29-42.17-85.2-35.7-95.65 9.83a29.595 29.595 0 0 0-21.81-9.037 29.59 29.59 0 0 0-21.48 9.797 42.645 42.645 0 0 0-16.139-10.593 42.656 42.656 0 0 0-51.011 17.593 29.584 29.584 0 0 0-32.65 1.24 51.747 51.747 0 0 0-72.79-7.59 29.567 29.567 0 0 0-38.15-.09c-15.19-29.9-57.5-28.91-69.74.43-37.26-16.37-61.14 19-56.18 29.52H907.4v-.05l536-2.9c.98-21.58-21.23-33.06-39.47-21.32z"/><path opacity=".3" d="M257.11 172.021c-2.19-16.59-22.67-20.82-33.07-11.19-9.61-33.61-53-43.18-77-15.54-32.57-59.43-120.49-54.76-148.04-2.29v49.8l293.62-1.58c.85-19.4-19.12-29.72-35.51-19.2z"/></g></svg>