<svg width="184" height="61" viewBox="0 0 184 61" fill="none" xmlns="http://www.w3.org/2000/svg"><g clip-path="url(#a)" fill="#676B6F"><path d="M38.47 46.55v5.31a4.92 4.92 0 0 1-2.2 4.37c-6.71 4.47-14 5.92-21.77 3.65a18.64 18.64 0 0 1-13.5-14c-2.13-8.23-.44-15.64 5.72-21.7 4.42-4.35 9.93-5.94 16-5.69a22.1 22.1 0 0 1 12.18 3.9 3.66 3.66 0 0 1 1.75 3.55 3.559 3.559 0 0 1-5.79 2.4 15.821 15.821 0 0 0-5.67-2.75C14.05 22.91 7 32 7.8 41c.4 4.66 2.19 8.56 6.22 11.15a14.2 14.2 0 0 0 11.58 1.63 32 32 0 0 0 5.22-2.17 1.52 1.52 0 0 0 .63-1.12c.06-2 0-4.1 0-6.15 0-.64-.25-.81-.85-.81h-7.29a2.999 2.999 0 0 1-3-2.08 2.87 2.87 0 0 1 .93-3.32 4.11 4.11 0 0 1 2.24-.81c3.76-.08 7.52-.07 11.28 0a3.47 3.47 0 0 1 3.64 3.66c.1 1.84.07 3.71.07 5.57zm35.4-17.93a16.139 16.139 0 0 1 6.432 31.13c-2 .796-4.14 1.183-6.292 1.14-9.4 0-16.6-6.9-16.62-16a16.181 16.181 0 0 1 16.48-16.27zm9.35 16c0-.22 0-.66-.06-1.1a9.46 9.46 0 0 0-8.5-8.66 9 9 0 0 0-9.78 6.91c-1.41 5.17 1.07 10.53 5.81 12.25 5.89 2.2 12.48-1.6 12.53-9.35v-.05zm58.49-16a16.141 16.141 0 1 1 0 32.27c-9.32 0-16.47-6.9-16.48-15.94a16.114 16.114 0 0 1 4.772-11.665 16.125 16.125 0 0 1 11.708-4.665zM151 44.88v-.66a9.578 9.578 0 0 0-8.1-9.26 8.998 8.998 0 0 0-10.14 6.51c-1.45 4.66.49 9.92 4.43 12C143.78 57 151 52.48 151 44.88zm33-30.4a15.352 15.352 0 0 1-3 8.5c-2.36 3.28-4.68 6.58-7 9.88a4.936 4.936 0 0 1-4 2.048 4.929 4.929 0 0 1-4-2.048c-2.46-3.45-5-6.86-7.33-10.36-3.28-4.88-3.58-10-.6-15.1a13.057 13.057 0 0 1 13.5-6.72c5.89.66 9.78 4.09 11.69 9.68.352 1.352.599 2.73.74 4.12zM170 26.6c2.07-2.94 4.11-5.67 6-8.53a6.809 6.809 0 0 0-1.55-9 7 7 0 0 0-10.27 9.28c1.69 2.47 3.45 4.9 5.19 7.35.13.3.33.52.63.9zm-62.13 25.23l2.37-6 5.44-13.93c.125-.34.269-.674.43-1a3.41 3.41 0 0 1 4.55-1.72 3.322 3.322 0 0 1 1.79 4.35c-.74 1.94-1.62 3.84-2.44 5.75a8949.69 8949.69 0 0 1-7.9 18.15c-.85 1.93-2.06 3.37-4.46 3.32-2.22 0-3.34-1.41-4.14-3.2-1.38-3.12-2.73-6.25-4.09-9.38l-6-13.72c-.61-1.39-.9-2.78.12-4.12a3.57 3.57 0 0 1 6.22.85c.89 2 1.62 4.11 2.42 6.17l5.31 13.68c.09.2.18.37.38.8zM52 38.93v18a3.38 3.38 0 0 1-2.59 3.42 3.43 3.43 0 0 1-4-1.59 4.11 4.11 0 0 1-.48-1.89V20.78a3.42 3.42 0 0 1 3.55-3.6A3.469 3.469 0 0 1 52 20.83v18.1zm117.91 5.88a3.8 3.8 0 1 1 3.88-3.8 3.78 3.78 0 0 1-2.396 3.542 3.774 3.774 0 0 1-1.484.258z"/></g><defs><clipPath id="a"><path fill="#fff" d="M0 0h184v61H0z"/></clipPath></defs></svg>