<svg width="209" height="55" viewBox="0 0 209 55" fill="none" xmlns="http://www.w3.org/2000/svg"><path d="M64.17.65v54.27h-9.74V32.75h-22v22.16h-9.87V32.7H.8v-9.93h21.72V.65h9.93v22.07h22V.65h9.72zm144.6 29.94a24.832 24.832 0 0 1-1.81 3.7 7.783 7.783 0 0 1-5.72 3.11 10.64 10.64 0 0 1-7.83-1.68 10.125 10.125 0 0 1-3.91-6.79 13.09 13.09 0 0 1 1.38-9.23 9.851 9.851 0 0 1 13.49-3.44 10.522 10.522 0 0 1 4.23 6.23c.049.12.105.237.17.35v4.55h-15.72a7.17 7.17 0 0 0 1.16 4.35A6.384 6.384 0 0 0 200 34.3a4.87 4.87 0 0 0 5-3.69c.14-.46.37-.54.78-.53h2.94l.05.51zm-3.52-6.53a6.14 6.14 0 0 0-3-5.08 5.89 5.89 0 0 0-6.42.09 6.003 6.003 0 0 0-2.76 5l12.18-.01zm-126.88-8.6H82v2.7a6.37 6.37 0 0 1 4.14-2.94c3.68-.79 7.05-.31 9.75 2.56a11.231 11.231 0 0 1 2.79 6.12 14.71 14.71 0 0 1-.8 7.71 9.61 9.61 0 0 1-14.76 3.89l-1-.93v10.61h-3.68l-.07-29.72zM88.55 34.3a5.41 5.41 0 0 0 5.33-3.17 11.48 11.48 0 0 0 .83-7.24 7.33 7.33 0 0 0-1.81-3.86 6.08 6.08 0 0 0-6.28-1.67 6 6 0 0 0-4.25 4.41 11.999 11.999 0 0 0-.15 6.43 6.24 6.24 0 0 0 6.33 5.1zm57.86-8.03a13.096 13.096 0 0 1 1.26-5.85 9.35 9.35 0 0 1 7.88-5.46 10.47 10.47 0 0 1 7.22 1.55 9.997 9.997 0 0 1 4.3 6.72 13.557 13.557 0 0 1-1 9 9.35 9.35 0 0 1-8.46 5.22 10.798 10.798 0 0 1-6-1.29 9.904 9.904 0 0 1-4.84-7.35c-.25-.81-.28-1.68-.36-2.54zm3.78 0c.116 1.08.293 2.15.53 3.21a6.372 6.372 0 0 0 5.48 4.84 6.188 6.188 0 0 0 6.48-3.76 10.578 10.578 0 0 0 .12-8.3 6.226 6.226 0 0 0-7.977-3.774 6.232 6.232 0 0 0-2.653 1.844 9 9 0 0 0-1.98 5.91v.03zm-19.11 3.81c.57 3.6 3 4.09 5.34 4.17a12.757 12.757 0 0 0 3.68-.5 2.642 2.642 0 0 0 1.487-3.898 2.638 2.638 0 0 0-1.187-1.042c-1.77-.6-3.58-1.1-5.39-1.58a13 13 0 0 1-5.56-2.44c-1.79-1.56-1.9-5-.5-6.89a7.535 7.535 0 0 1 5.52-2.91 13.798 13.798 0 0 1 5.88.44c3.2 1 4.22 3.19 4.58 5.9 0 .14-.34.47-.54.48-1 .05-2 0-2.9 0-.08-.07-.15-.1-.16-.14-.47-2.82-2.34-3.33-4.46-3.51a10.78 10.78 0 0 0-3.35.48 2.182 2.182 0 0 0-1.337 3.285 2.18 2.18 0 0 0 1.047.865 44.46 44.46 0 0 0 4.23 1.37c1.58.48 3.23.79 4.77 1.38a5.201 5.201 0 0 1 3.67 5.22 5.879 5.879 0 0 1-4 5.82 13.7 13.7 0 0 1-10.19 0c-3-1.17-4-3.61-4.22-6.15 0-.12.35-.38.55-.39 1.01.02 1.96.04 3.04.04zm-9-14.64h3.64v21.64h-3.32V34a28.115 28.115 0 0 1-2.46 2.32c-2.28 1.71-7.54 1.7-9.76-.26a6.279 6.279 0 0 1-2-3.71 12.971 12.971 0 0 1-.18-2.41V15.47h3.66v.91c0 4.75 0 9.49.05 14.23a3.736 3.736 0 0 0 3.58 3.68c4.31.3 6.85-2.35 6.85-6.41V15.44h-.06zm47.37.01h3.28v3.13a8.32 8.32 0 0 1 4-3.2 9.75 9.75 0 0 1 6.18 0 5.713 5.713 0 0 1 4.08 5.22c.19 1.86.17 3.74.19 5.62v10.85h-3.66V21.93a3.769 3.769 0 0 0-3.82-3.76c-4.28-.13-6.7 2.29-6.74 6.82v12.1h-3.5l-.01-21.64zm-68.52-8.22h3.62v29.91h-3.19c-.16 0-.4-.46-.41-.71V7.23h-.02z" fill="#676B6F"/></svg>