<svg width="39" height="40" viewBox="0 0 39 40" fill="none" xmlns="http://www.w3.org/2000/svg"><path opacity=".5" d="M27.68 13.75a3.56 3.56 0 0 0-2-2 6 6 0 0 0-1.95-.36c-1.1-.05-1.44-.06-4.24-.06-2.8 0-3.13 0-4.23.06a5.998 5.998 0 0 0-2 .36 3.559 3.559 0 0 0-2 2 5.998 5.998 0 0 0-.36 2c-.05 1.1-.06 1.44-.06 4.24 0 2.8 0 3.13.06 4.23.005.682.127 1.359.36 2a3.56 3.56 0 0 0 2 2 6 6 0 0 0 2 .36c1.1 0 1.43.06 4.23.06 2.8 0 3.14 0 4.24-.06a6 6 0 0 0 1.95-.36 3.561 3.561 0 0 0 2-2 6.001 6.001 0 0 0 .36-2c.05-1.1.06-1.44.06-4.23 0-2.79 0-3.14-.06-4.24a6 6 0 0 0-.36-2zM19.5 25.32a5.39 5.39 0 1 1 5.39-5.38 5.38 5.38 0 0 1-5.39 5.38zm5.6-9.72a1.26 1.26 0 1 1 0-2.52 1.26 1.26 0 0 1 0 2.52z" fill="#fff"/><path opacity=".5" d="M19.5 16.44a3.5 3.5 0 1 0 0 7 3.5 3.5 0 0 0 0-7z" fill="#fff"/><path opacity=".5" d="M19.55.51A19.43 19.43 0 1 0 39 19.94 19.419 19.419 0 0 0 19.55.51zm10.38 23.75a7.87 7.87 0 0 1-.49 2.54 5.36 5.36 0 0 1-3.07 3.07 7.662 7.662 0 0 1-2.54.49c-1.12 0-1.48.06-4.33.06s-3.2 0-4.32-.06a7.61 7.61 0 0 1-2.54-.49 5.36 5.36 0 0 1-3.07-3.07 7.61 7.61 0 0 1-.49-2.54c-.05-1.12-.06-1.48-.06-4.32 0-2.84 0-3.21.06-4.33a7.61 7.61 0 0 1 .49-2.54A5.36 5.36 0 0 1 12.64 10a7.87 7.87 0 0 1 2.54-.49c1.12-.05 1.48-.06 4.32-.06 2.84 0 3.21 0 4.33.06a7.92 7.92 0 0 1 2.54.49 5.36 5.36 0 0 1 3.07 3.07 7.87 7.87 0 0 1 .49 2.54c0 1.12.06 1.48.06 4.33s.01 3.2-.06 4.32z" fill="#fff"/></svg>