<svg width="34" height="34" viewBox="0 0 34 34" fill="none" xmlns="http://www.w3.org/2000/svg"><g opacity=".5" fill="#fff"><path opacity=".5" d="M16.82 33.59a16.66 16.66 0 1 1 16.66-16.65 16.67 16.67 0 0 1-16.66 16.65zm0-30.81A14.16 14.16 0 1 0 31 16.94 14.168 14.168 0 0 0 16.82 2.78z"/><path opacity=".5" d="M14.11 32.94c-5.89-10.82-5.89-21.6 0-32l2.18 1.23c-5.52 9.77-5.52 19.45 0 29.61l-2.18 1.16zm5.42 0l-2.2-1.19c5.53-10.25 5.54-19.93 0-29.6L19.5.91c5.92 10.34 5.92 21.09.03 32.03z"/><path opacity=".5" d="M16.9 13.38a44.441 44.441 0 0 1-15.15-2.72l.84-2.35a41.17 41.17 0 0 0 28.61 0l.85 2.35a44.52 44.52 0 0 1-15.15 2.72zm14.3 12.06a41.06 41.06 0 0 0-28.61 0l-.84-2.36a43.63 43.63 0 0 1 30.3 0l-.85 2.36z"/></g></svg>