<svg width="454" height="145" viewBox="0 0 454 145" fill="none" xmlns="http://www.w3.org/2000/svg"><path opacity=".5" d="M190.11 34.45h-7.35V76H209v-6.31h-18.89V34.45zm46.87-.93c-12.09 0-19.71 8.26-19.71 21.47 0 13.21 7.6 21.43 19.71 21.43 12.11 0 19.68-8.23 19.68-21.43S249.07 33.52 237 33.52h-.02zm0 36.57c-7.42 0-12.09-5.87-12.09-15.1s4.69-15.14 12.09-15.14c7.4 0 12.13 5.87 12.13 15.14s-4.73 15.1-12.13 15.1zm54-16v-.23a9.232 9.232 0 0 0 7.63-9c0-6.31-4.9-10.36-12.5-10.36h-17.73V76h17.9c8.94 0 14.39-4.49 14.39-11.8.04-5.52-3.96-9.58-9.67-10.13l-.02.02zm-15.24-13.84H284c4.34 0 6.83 2 6.83 5.6 0 3.8-2.86 6-8 6h-7.06l-.03-11.6zm8.74 30h-8.74v-13.2h8.44c5.75 0 8.78 2.24 8.78 6.52 0 4.28-2.91 6.62-8.44 6.62l-.04.06zm49.59-16.12v-.23a9.232 9.232 0 0 0 7.64-9c0-6.31-4.91-10.36-12.51-10.36h-17.72V76h17.9c8.93 0 14.39-4.49 14.39-11.8.04-5.52-3.97-9.58-9.66-10.13l-.04.06zm-15.24-13.84h8.21c4.35 0 6.83 2 6.83 5.6 0 3.8-2.86 6-8 6h-7.07l.03-11.6zm8.74 30h-8.74V57.05h8.45c5.74 0 8.77 2.24 8.77 6.52 0 4.28-2.9 6.62-8.44 6.62l-.04.1zM370 52.32h-.17l-10-17.87h-8.13l14.48 25.15V76h7.36V59.32l14.4-24.87h-8L370 52.32zm67.65 2.52l13.91-20.92h-8.36l-9.78 15.77h-.23l-9.66-15.77h-8.8l13.48 20.75v.52L414.59 76h8.13l10-15.24h.23L442.79 76h8.59l-13.66-20.62-.07-.54z" fill="#fff"/><path opacity=".75" d="M189.59 103.3h-6.31V98h-2.63v13.14h2.63v-5.74h6.31v5.78h2.63V98h-2.63v5.3zm15.24 3a2.823 2.823 0 0 1-1.947 2.792 2.819 2.819 0 0 1-1.203.118c-2 0-3.16-1.18-3.16-2.91V98h-2.62v8.41c0 2.81 2.22 4.73 5.78 4.73s5.78-1.94 5.78-4.73V98h-2.63v8.3zm12.89 1.24h-.18l-4.2-9.46h-2.76v12.61h2.11v-8.93h.15l3.75 8.41h1.72l3.75-8.41h.64v8.93h2.1V98h-2.91l-4.17 9.54zM232 98l-4.79 12.61h2.52l1.13-3.15h4.86l1.11 3.15h2.67L234.72 98H232zm-.66 7.88l1.88-5.25h.16l1.85 5.25h-3.89zm19.74 1.12h-.19l-6.75-9h-2.52v12.61h2.63v-8.41h.15l6.68 8.94h2.1V98h-2.1v9zm16.7 2.47c-2.46 0-4-1.89-4-4.94 0-3.05 1.53-4.92 4-4.92a3.459 3.459 0 0 1 3.57 2.66h2.54c-.3-2.81-2.83-4.81-6.11-4.81-4.09 0-6.62 2.7-6.62 7.08s2.54 7.08 6.63 7.08c3.33 0 5.78-1.86 6.11-4.62h-2.54a3.386 3.386 0 0 1-1.338 1.881 3.385 3.385 0 0 1-2.232.589h-.01zm12-11.4L275 110.65h2.52l1.14-3.15h4.85l1.11 3.15h2.68l-4.8-12.61-2.72.03zm-.65 7.88l1.87-5.25h.15l1.85 5.25h-3.87zm16.73-7.88H290v12.61h2.63v-4.2h3.19c3 0 5-1.7 5-4.21s-2-4.2-5-4.2h.04zm-1.43 6.83h-2.4v-4.73h2.4c1.75 0 2.73.83 2.73 2.38 0 1.55-1 2.35-2.72 2.35h-.01zm8.12 5.78h2.62V98h-2.62v12.68zM318.86 98h-11v2.1H312v11h2.62v-11h4.21l.03-2.1zm4.73 0l-4.79 12.61h2.52l1.13-3.15h4.86l1.11 3.15h2.67L326.3 98h-2.71zm-.65 7.88l1.87-5.25h.16l1.85 5.25h-3.88zM336.2 98h-2.63v12.61h8.94v-2.1h-6.31V98zm20.12 0h-5.91v12.61H353v-4.2h3.19c3 0 5-1.7 5-4.21s-2-4.2-5-4.2h.13zm-1.44 6.83h-2.39v-4.73h2.4c1.74 0 2.73.83 2.73 2.38 0 1.55-1 2.35-2.72 2.35h-.02zM365.63 98H363v12.61h8.94v-2.1h-6.31V98zm12.78 0l-4.75 12.61h2.52l1.13-3.15h4.86l1.11 3.15H386L381.16 98h-2.75zm-.65 7.88l1.87-5.25h.17l1.85 5.25h-3.89zm8.37-5.78h4.2v11H393v-11h4.2V98h-11l-.07 2.1zm13.14 10.51h2.62v-4.73h5.79v-2.1h-5.79v-3.68h6.31V98h-8.93v12.61zm17.74-13c-4 0-6.52 2.59-6.52 6.75s2.48 6.75 6.52 6.75c4.04 0 6.5-2.62 6.5-6.75s-2.48-6.75-6.48-6.75h-.02zm0 11.46c-2.48 0-4-1.84-4-4.73 0-2.89 1.58-4.73 4-4.73s4 1.83 4 4.73c0 2.9-1.51 4.73-4 4.73zM436.2 102c0-2.42-1.77-3.94-4.61-3.94h-5.48v12.61h2.63v-4.73h2.91l2.89 4.73h2.06l-2.94-5.07a3.69 3.69 0 0 0 2.54-3.6zm-4.73 2.37h-2.77v-4.21h2.71c1.53 0 2.46.8 2.46 2.1s-.85 2.11-2.4 2.11zM451 98l-4.21 9.46h-.17l-4.2-9.46h-2.76v12.61h2.1v-8.93h.13l3.75 8.41h1.72l3.75-8.41h.64v8.93h2.1V98H451z" fill="#fff"/><path d="M113.47 54.26l-.94 3-25.28-7.89.94-3 25.28 7.89zm-82.54 43l3-.94 7.89 25.28-3 .94-7.89-25.28z" fill="#FCD57C"/><path d="M6.7 143.16L5 140.49l36.06-22.87 1.7 2.67L6.7 143.16z" fill="#FCD57C"/><path d="M76.2 108l.89 3-37.91 11-.89-3 37.91-11z" fill="#FCD57C"/><path d="M37.51 119.93l2.49-2 17.37 22.11-2.48 1.96-17.38-22.07zm14.31-47.64l3.15.43-3.58 29.06-3.16-.43 3.59-29.06z" fill="#FCD57C"/><path d="M50.07 100l-.52 3.11-19-3.15.53-3.12L50.07 100zm56.09-78.66l2.41-2 17.24 18.77-2.41 2-17.24-18.77z" fill="#FCD57C"/><path d="M106.75 20.42l-1-3 42.21-15 1.05 3-42.26 15zm-3.6 51.12l-2.71 1.62L85.86 48.7l2.71-1.62 14.58 24.46z" fill="#FCD57C"/><path d="M88.74 48.79l-.72-3.08 36.58-8.47.72 3.08-36.58 8.47zm-2.43-2.5l-.33 3.16-29.09-1.51.33-3.15 29.09 1.5z" fill="#FCD57C"/><path d="M76.1 31.3l1.94 2.49L58 49.46 56 47l20.1-15.7z" fill="#FCD57C"/><path d="M77.06 31.09l-.45 3.12-25.45-3.74.46-3.13 25.44 3.75z" fill="#FCD57C"/><path d="M53.6 29.29l-3.11-.52 4.28-25.7 3.12.52-4.29 25.7zm46.78 43.93l3.15-.16 1.58 30-3.16.17-1.57-30.01z" fill="#FCD57C"/><path d="M102.68 105.71l1-3 22.61 6.29-1 3-22.61-6.29z" fill="#FCD57C"/><path d="M100.38 142.84l-3.16-.38L102 103l3.16.38-4.78 39.46zm48.18-1.55L147 144l-26.85-15.8 1.6-2.72 26.81 15.81z" fill="#FCD57C"/><path d="M120.05 125.52l1.71 2.66-22.12 14.19-1.71-2.63 22.12-14.22z" fill="#FCD57C"/><path d="M122.15 125.89l-2.49 2-18.15-23.13 2.48-1.95 18.16 23.08z" fill="#FCD57C"/><path d="M123 110.74l3.09.62-3.09 15.8-3.1-.62 3.1-15.8zM76 108l-.88 3-27.33-7.94.89-3L76 108z" fill="#FCD57C"/><path d="M48.4 100.87l2.82 1.41-9.46 19-2.82-1.42 9.46-18.99zm4.9-26.24l-1-3 24.49-7.7 1 3-24.49 7.7z" fill="#FCD57C"/><path d="M74.78 66.86l1-3 26.5 6.87-1 3-26.5-6.87z" fill="#FCD57C"/><path d="M77.57 109.08h-3.08l.61-45.16h3.07l-.6 45.16z" fill="#FCD57C"/><path d="M77.06 111.35l-2.33-2.13 16.54-18.17 2.34 2.1-16.55 18.2z" fill="#FCD57C"/><path d="M92.64 94.21L89.73 93l10.76-23.61 2.9 1.24-10.75 23.58z" fill="#FCD57C"/><path d="M92.79 92.69l-2.8 1.46L75.27 66l2.8-1.46 14.72 28.15z" fill="#FCD57C"/><path d="M89.77 93.22L92 91l14.22 14.19-2.22 2.22-14.23-14.19z" fill="#FCD57C"/><path d="M101.53 103.92l.57 3.11-26.6 4.84-.57-3.11 26.6-4.84zm-51.24-.57l-2.57-1.84 27.71-37.84L78 65.51l-27.71 37.84z" fill="#FCD57C"/><path d="M56.58 47.39l2.27-2.2 18.63 19.27-2.27 2.2-18.63-19.27z" fill="#FCD57C"/><path d="M84.76 47.11l2.77 1.51L78.07 66l-2.77-1.52 9.46-17.37zm-28.61-1l3.12.47L54.89 73l-3.13-.46 4.39-26.43z" fill="#FCD57C"/><path d="M58.3 45.55l-.39 3.16-23.84-2.4-1.44-3.16 25.67 2.4z" fill="#FCD57C"/><path d="M35.41 45.25l-2.83-2.16L37.2 16l3.11.53-4.9 28.72z" fill="#FCD57C"/><path d="M39.25 14.77l-1 3-33.17-11 1-3 33.17 11z" fill="#FCD57C"/><path d="M39.41 18.26l-2.29-2.18L55.39 1.89l1.93 2.5-17.91 13.87z" fill="#FCD57C"/><path d="M37.68 17.63l2.19-2.28L53.8 28.67 51.61 31 37.68 17.63z" fill="#FCD57C"/><path d="M50.65 29.4l3-1 5.56 19-3 1-5.56-19z" fill="#FCD57C"/><path d="M51.1 27.14l1.89 2.53L35 46l-1.89-2.52L51.1 27.14zm36.39 18.3l-2.7 1.65-8.48-13.88 2.7-1.64 8.48 13.87z" fill="#FCD57C"/><path d="M77.6 34.15l-1.28-2.89 30.1-14.1 1.27 2.89-30.09 14.1z" fill="#FCD57C"/><path d="M107.58 18.56L105 20.34 93.64 3.71l2.63-1.77 11.31 16.62z" fill="#FCD57C"/><path d="M138.74 20l-.16 3.15-32-1.63.17-3.15L138.74 20z" fill="#FCD57C"/><path d="M105.44 18.46l2.49 1.94-20.37 29-2.5-1.94 20.38-29zM98 144.29l-.72-3.16h52l3 3.16H98zm-40.3-3.16v3.16H.21l3.86-3.16H57.7z" fill="#FCD57C"/><path d="M31.33 95.68l2.65 1.71-28.43 44.23-5.42 2.63 31.2-48.57z" fill="#FCD57C"/><path d="M33.66 97.83l-2.45-2 20.53-25.28 2.46 2-20.54 25.28z" fill="#FCD57C"/><path d="M54.29 72.29L51.66 74 33 45.59l2.63-1.75 18.66 28.45z" fill="#FCD57C"/><path d="M35.78 43.71l-2.83 2L.13.81h4.33l31.32 42.9z" fill="#FCD57C"/><path d="M3.55 4V.81h54.09L56.49 4H3.55zm90.55-.53L93.28.32h58.86l-2.35 3.15H94.1z" fill="#FCD57C"/><path d="M148.17 1.1l4-.63-12 21.25-3.42-.83L148.17 1.1z" fill="#FCD57C"/><path d="M137.89 19.5l2.3 2.22L127 38.81l-3.22-.9 14.11-18.41z" fill="#FCD57C"/><path d="M124.4 37l2.6 1.8-23.75 33.66-2.58-1.82L124.4 37zM93.22.47l2.21 2.34-17.38 31.6-2.77-1.53L93.22.47z" fill="#FCD57C"/><path d="M78.88 32.18L76.25 34 54.55 2.21l3-1.47 21.33 31.44zm-21.17 112l-2.77-1.52 9.34-18.29L67 126l-9.29 18.18z" fill="#FCD57C"/><path d="M66.94 126.12l-2.66-1.7 11-17.37 2.67 1.69-11.01 17.38z" fill="#FCD57C"/><path d="M75.35 110.35L78 108.6l9.46 14.19-2.63 1.75-9.48-14.19zm9.48 14.22l2.63-1.76 12.64 19-2.17 2.46-13.1-19.7zm42.11-16l-2.66 1.7-24.43-37.36 2.67-1.7 24.42 37.36z" fill="#FCD57C"/><path d="M124.28 110.26l2.57-1.84 25.69 35.81-4.27-.45-23.99-33.52z" fill="#FCD57C"/></svg>