<svg width="27" height="27" viewBox="0 0 27 27" fill="none" xmlns="http://www.w3.org/2000/svg"><path d="M13.15.6a13.06 13.06 0 1 0 0 26.12 13.06 13.06 0 0 0 0-26.12zM7.64 9.01h11.1c.152.001.302.035.44.1l-5.44 5.31a.78.78 0 0 1-1.08 0L7.3 9.08A1 1 0 0 1 7.64 9v.01zm-1 8.93V10a1.42 1.42 0 0 1 0-.2l4.14 4.13-4.11 4.33a1 1 0 0 1-.06-.32h.03zm12.13 1H7.67c-.06.005-.12.005-.18 0l4-4.26.45.45a1.79 1.79 0 0 0 2.49 0l.46-.45 4 4.25c-.048.027-.098.05-.15.07l.03-.06zm1-1a.861.861 0 0 1-.08.36l-4.08-4.31 4.14-4v.09l.02 7.86z" fill="#4FADCF"/></svg>