<svg width="208" height="41" viewBox="0 0 208 41" fill="none" xmlns="http://www.w3.org/2000/svg"><path d="M130.32 13.79a8.45 8.45 0 1 0-16.9 0 8.45 8.45 0 1 0 16.9 0zM5 23.58v17.16H0V.89h5v3.68a11.34 11.34 0 0 1 11.08-4 12.3 12.3 0 0 1 7.94 4.72 14.13 14.13 0 0 1-1.08 18.37 12.569 12.569 0 0 1-9 3.69A12 12 0 0 1 5 23.58zm8.3-1.49a8.25 8.25 0 1 0-8.29-8.22 8.27 8.27 0 0 0 8.26 8.22h.03zm194.58-8.28A13.51 13.51 0 1 1 194.37.36a13.482 13.482 0 0 1 13.51 13.45zM194.43 5.6a8.248 8.248 0 0 0-8.127 9.83 8.25 8.25 0 0 0 16.347-1.55 8.32 8.32 0 0 0-8.22-8.28zM77.84 13.9A13.511 13.511 0 1 1 64.43.36 13.46 13.46 0 0 1 77.84 13.9zm-13.49 8.19a8.25 8.25 0 1 0-8.29-8.23 8.3 8.3 0 0 0 8.29 8.23zM83.16 6V.87H104L91.14 21.6h12v5.17H82.31L95.08 6H83.16zM167.78.87v4.8A12.16 12.16 0 0 1 178.13.36v5.46a23.454 23.454 0 0 0-3.58.19 8.06 8.06 0 0 0-6.63 7.58c-.21 3.9-.12 7.81-.15 11.71v1.53h-5.18v-26l5.19.04zM146 26.82h-5.17V.91H146v5.34A11.453 11.453 0 0 1 156.41.36v5.26a26.197 26.197 0 0 0-5.05.87c-3.74 1.43-5.24 4.54-5.34 8.36-.09 3.49 0 7 0 10.48l-.02 1.49zM32.6.85h5.09v4.82l.25.17C40.3 2.08 43.73.43 48.12.36V6a19.71 19.71 0 0 0-3.53 0 8.11 8.11 0 0 0-6.72 7.64c-.18 3.86-.1 7.73-.13 11.59v1.57H32.6V.85z" fill="#676B6F"/></svg>