<svg width="40" height="40" viewBox="0 0 40 40" fill="none" xmlns="http://www.w3.org/2000/svg"><path opacity=".5" d="M24.31 14.64L14 21.19c.5 1.65 1.08 3.54 1.65 5.41l.45-3.85L24.69 15c.31-.22 0-.6-.38-.36z" fill="#fff"/><path opacity=".5" d="M19.66.51a19.43 19.43 0 1 0 19.43 19.43A19.42 19.42 0 0 0 19.66.51zm6 28.12a1.291 1.291 0 0 1-1.82.63l-4.94-3.79-3.17 2.89a.55.55 0 0 1-.52.07s-.23 0-.52-1c-.29-1-1.77-5.77-1.77-5.77L8 20.06a.84.84 0 0 1-.66-.85 1 1 0 0 1 .69-.9l19.48-7.64s1.61-.71 1.61.46l-3.46 17.5z" fill="#fff"/></svg>