<svg width="40" height="40" viewBox="0 0 40 40" fill="none" xmlns="http://www.w3.org/2000/svg"><path opacity=".5" d="M20.34.43a19.43 19.43 0 1 0 0 38.86 19.43 19.43 0 0 0 0-38.86zm8.84 15v.59a13 13 0 0 1-20 10.93 9.18 9.18 0 0 0 6.76-1.94 4.56 4.56 0 0 1-4.26-3.17c.28.06.564.09.85.09a4.84 4.84 0 0 0 1.21-.16 4.57 4.57 0 0 1-3.66-4.48v.01a4.48 4.48 0 0 0 2.06.58 4.58 4.58 0 0 1-2-3.8c0-.805.214-1.595.62-2.29a12.94 12.94 0 0 0 9.4 4.76 4.426 4.426 0 0 1-.12-1 4.571 4.571 0 0 1 7.9-3.12c1.021-.197 2-.572 2.89-1.11a4.59 4.59 0 0 1-2 2.53 9.251 9.251 0 0 0 2.62-.72 9.3 9.3 0 0 1-2.27 2.32v-.02z" fill="#fff"/></svg>