<svg width="157" height="55" viewBox="0 0 157 55" fill="none" xmlns="http://www.w3.org/2000/svg"><path d="M48.92.25h7.61v19.24a20 20 0 0 1 29.85 2.16 20.25 20.25 0 0 1-1.21 26.13A19.779 19.779 0 0 1 71 54.17a19.229 19.229 0 0 1-14.51-5.68v4.74h-7.56L48.92.25zM56.4 34a13.3 13.3 0 1 0 13.34-13.37A13.321 13.321 0 0 0 56.4 34zM35 .26h7.9v53h-7.83v-4.82l-.51.45a20.33 20.33 0 0 1-27.82-.39 19.94 19.94 0 0 1-5.62-12.34A29.8 29.8 0 0 1 1 33V.26h8v32.56a16.18 16.18 0 0 0 1.32 6.76 12.86 12.86 0 0 0 23.9-1.35 16.71 16.71 0 0 0 .84-5.38V.25L35 .26zm97.93 36.21H101.3c1.09 5 3.74 8.62 8.54 10.2 6.19 2 11.35.19 15.47-4.89l5.48 4.05c-.11.16-.18.28-.26.39-4.73 5.89-10.91 8.4-18.36 7.8a19.471 19.471 0 0 1-14.32-7.53c-9-11.49-3.24-29.39 11.89-32.26 10.92-2.07 20.77 4.58 22.67 15.75.36 2.09.35 4.23.52 6.49zm-31.38-6.13H125a11.862 11.862 0 0 0-11.63-9.79 12 12 0 0 0-11.82 9.79zm43.13 22.9h-7.63V14.67h7.53v4.46c2.92-4.26 7.11-5.19 11.89-4.74v7.06h-1.54a20.83 20.83 0 0 0-3.72.28c-3.53.85-5.44 3.32-6.21 6.73a13.563 13.563 0 0 0-.3 3v20.9l-.02.88z" fill="#676B6F"/></svg>