<svg width="27" height="26" viewBox="0 0 27 26" fill="none" xmlns="http://www.w3.org/2000/svg"><path d="M.41 25.26h9.64a1.34 1.34 0 0 0 .42-.56 39.424 39.424 0 0 1 2.44-4.31c.14-.21.2-.3.29-.3.09 0 .15.1.29.32l2.25 3.36.67 1c.119.206.292.375.5.49H26a.21.21 0 0 0 .19-.1.23.23 0 0 0 0-.24 2.299 2.299 0 0 0-.35-.56l-.17-.21c-2.48-3.37-4.91-6.92-7.42-10.85a.62.62 0 0 1 0-.79l.51-.8.83-1.31 2.68-4v-.07L25.83.96c.09-.14.26-.43.19-.56-.07-.13-.08-.07-.17-.07h-9.83c-.14 0-.25.22-.34.4l-.07.14c-.41.72-.81 1.47-1.21 2.19l-.86 1.57c-.14.24-.2.35-.29.36-.09.01-.16-.09-.32-.33-.58-.82-1.18-1.72-1.76-2.58L10.43.97l-.09-.13C10.2.6 10.07.4 9.75.4H.62a.42.42 0 0 0-.47.31c-.07.15.07.34.16.48.36.51.75 1 1.12 1.46a92.185 92.185 0 0 1 5.51 7.83l1.31 2a.49.49 0 0 1 0 .71c-.23.24-.43.5-.63.75l-.23.29-.72.86a21.608 21.608 0 0 0-1.44 1.84c-1.34 2-2.65 4.09-4 6.19l-.34.51c-.28.421-.533.858-.76 1.31-.09.15 0 .28.23.28l.05.04zm1.81-1.04l4.36-2.71c.13-.08.32-.29.5 0l.06.08c.75 1 2.23 2.68 2.23 2.68l-7.15-.05zm7.3-18l-.18-.6 3.39.63-.95.56-1.55.9a.3.3 0 0 1-.14 0h-.05c-.08 0-.1-.13-.13-.21-.13-.42-.26-.85-.39-1.31v.03zm0 1.82a.22.22 0 0 1-.19.07h-.06l-1.93-.2-.88-.1L8.89 5.6v.06c.07.22.13.43.19.63.16.53.31 1 .45 1.54v.2l-.01.01zm.92.99l1.26 1.28.07.07.73.73c.07.07.1.13.08.19-.02.06-.06.1-.15.13l-1.61.59-1.12.4.12-.93c.1-.81.2-1.58.3-2.35 0-.11.05-.18.1-.2a.23.23 0 0 1 .22.09zm-.59 3.87h.14c.76-.28 1.55-.57 2.37-.79h.1L9.2 16.9h-.17c0-.19.05-.37.08-.56.06-.42.13-.88.2-1.33 0-.2.07-.41.1-.62.03-.21.1-.62.15-.93.05-.31.08-.33.28-.4l.01-.16zm1.06 6.23l.75.27v.15l-4.15 1.2v-.08l.31-.62c.26-.51.5-1 .74-1.49.1-.2.24-.17.37-.12l1.95.68.03.01zm-2.81-.67c-.26.49-.51 1-.78 1.53l-.37.72-.26-.82c-.18-.57-.37-1.16-.55-1.75a.24.24 0 0 1 0-.24.27.27 0 0 1 .25-.05l.38.07 1.13.18a.27.27 0 0 1 .21.12v.24H8.1zm4.29 1.56a27.372 27.372 0 0 0-2.34 4.06l-.14.26s-1.47-1.57-2-2.2l-.38-.49c-.06-.07-.12-.14-.1-.21.02-.07.08-.1.19-.14l3.38-1 1.35-.39.09.14-.05-.03zm.44-6c-.1 1.56-.21 3.17-.31 4.77 0 .15 0 .23-.09.27a.17.17 0 0 1-.1 0 .413.413 0 0 1-.17 0l-2.24-.79-.52-.19c-.1 0-.19-.07-.22-.15-.03-.08 0-.12.06-.21l2.68-3.94.85-1.25h.15l-.09 1.49zM10.7 8.87l.11-.17h.43l2.19.11h.18c.41 0 .62.06.68.17.06.11 0 .3-.25.69l-.37.69-.32.58c0 .07-.08.15-.15.16a.19.19 0 0 1-.16-.08L10.7 8.87zm6.36 4.32l-.88 2-.44 1-1.94-3.89h.06c.285 0 .569.043.84.13l.3.07c.42.08.86.19 1.27.29l.52.12c.1 0 .21 0 .25.12a.28.28 0 0 1 0 .23l.02-.07zm.27.81l.07-.12.21 3.89v.28l-.52-.53-.81-.85a.3.3 0 0 1-.09-.35c.34-.76.69-1.55 1.12-2.3l.02-.02zm-1.24-1.72l-2.31-.53c-.08 0-.14-.05-.16-.11a.249.249 0 0 1 0-.2l.76-1.38.44-.8 2.19 3.24-.92-.22zm-2.92 6.58a.36.36 0 0 1-.12-.36l.34-5.53c.17 0 .2.09.23.16l.62 1.25c.32.63.64 1.28 1 1.92a.42.42 0 0 1-.07.58l-1.44 1.41-.55.54-.01.03zm.43.21h-.08.06l.55-.53 1.45-1.39c.18-.18.31-.08.42 0l.74.75.33.32c.08.08.16.17.13.25-.03.08-.08.09-.19.11l-3.08.54h-.39l.06-.05zm3.55 2.62c-.09.8-.23 2-.32 2.75l-.13-.12c-.26-.4-.53-.79-.79-1.18l-1.82-2.74c-.23-.35-.33-.52-.28-.63.05-.11.25-.16.66-.23l.55-.1h.09l2-.35a.33.33 0 0 1 .29 0 .3.3 0 0 1 .05.27l-.27 2.29-.03.04zm.17 2.58v-.05l.59-5a.72.72 0 0 1 .32.21v.06l.6.82 1.24 1.67a.5.5 0 0 1 .15.36c0 .09-.1.17-.25.27l-2.77 1.63.12.03zm1.11-5.34l.72.21 1.6.46c.147.047.207.137.18.27-.08.4-.15.79-.24 1.23l-.14.72-2.12-2.89zm-.6 5.46l.41-.26c.34-.22.69-.43 1-.63.31-.2.74-.44 1.11-.68a.43.43 0 0 1 .52 0c.54.32 1.1.59 1.64.85.54.26.9.43 1.36.68l.13.08-6.17-.04zm3.67-4.56l3.14 4.39s-2.95-1.5-3.51-1.83a.32.32 0 0 1-.14-.37c.1-.49.51-2.19.51-2.19zm-3-4.58l1.6 2.4.61.94.32.5.06.09h-.1l-.79-.23h-.05c-.7-.2-1.36-.39-2-.6-.23-.06-.24-.28-.24-.44v-.07c0-.69-.06-1.38-.09-2v-1.56l.68.97zm.19-4.78l-.84 1.32-.35.56-2.21-3.31h.1l.5.15.86.26 1.8.57h.05c.09 0 .18 0 .21.13a.28.28 0 0 1-.06.23l-.06.09zm1.89-2.98l-.35.54v.06c-.32.49-.61.94-.89 1.39a.34.34 0 0 1-.28.18h-.17l-.21-.07c-.84-.27-1.72-.55-2.59-.89l-.11-.05 4.69-1.22-.09.06zm.1-.68s-.07.09-.17.12l-3.76 1-1.27.33.66-1 1.11-1.59.3-.42.58-.84a.32.32 0 0 1 .21-.17c.08 0 .15 0 .25.15.5.56 1 1.12 1.52 1.67.16.16.31.33.46.49.15.16.13.16.11.23v.03zm2-2.29s-.34.52-.51.76c-.17.24-.27.36-.42.53-.15.17-.23.28-.34.43-.11.15-.17.18-.25.18a.38.38 0 0 1-.27-.16l-1.3-1.46-.5-.56v-.16l3.59.39v.05zm1.91-3c-.36.62-.66 1.12-1 1.57-.4.61-.76.86-1.21.86h-.2c-.74-.11-1.51-.19-2.24-.28h-.52V3.5l5-2 .17.02zm-7.75-.42c0-.13.15-.12.24-.12h6.83v.14l-1 .41-2.69 1.08-.51.2-.92.37a.68.68 0 0 1-.22 0 .41.41 0 0 1-.32-.18c-.25-.34-.51-.67-.76-1l-.54-.7c-.06-.08-.13-.18-.11-.26v.06zm-2.9 4.09l.53-1c.48-.88 1-1.87 1.55-2.83.06-.1.11-.14.17-.15.06-.01.14.06.21.15l.22.28 1.09 1.41a.33.33 0 0 1 .1.26.31.31 0 0 1-.18.18l-1.89.94h-.11l-1.53.76h-.19.03zm-.13.83a.35.35 0 0 1 .19-.19l2.31-1.14 1.1-.55h.18a.441.441 0 0 1-.14.33l-.06.07-.79 1.13c-.46.66-.95 1.34-1.41 2-.11.17-.2.24-.28.24-.1 0-.17-.11-.26-.28-.24-.48-.52-1-.76-1.38-.07-.12-.1-.2-.07-.27l-.01.04zm-.59.45a.22.22 0 0 1 .17 0c.08 0 .13.1.17.18l.13.23.63 1.11c0 .1.09.2 0 .27a.22.22 0 0 1-.18.07l-2.43-.13h-1l-.06-.14.7-.4 1.89-1.1-.02-.09zM9.73 2.56l.24-.95 2.87 4.24-.8-.15-1.51-.28-.36-.08-.28-.06c-.41-.08-.62-.12-.7-.25-.08-.13 0-.33.06-.72l.46-1.78.02.03zm-.4-.52c-.06.21-.11.43-.16.64-.15.59-.3 1.2-.45 1.81a.25.25 0 0 1-.12.19h-.05a.31.31 0 0 1-.16-.07c-.48-.33-1-.66-1.43-1-.1-.06-.14-.12-.14-.18s0-.1.11-.15l1.67-1 .61-.38.12.14zm-7.4-1h7.2v.12a.28.28 0 0 1 0 .08c-.63.39-1.3.82-2.06 1.33a1 1 0 0 1-.6.2 1.25 1.25 0 0 1-.4-.07l-1.49-.54-2.27-.81a.64.64 0 0 1-.21-.14c-.06-.06-.14-.13-.19-.13l.02-.04zm3.53 5.83H5.3a36.181 36.181 0 0 0-2.7-3.84c-.28-.35-.56-.72-.83-1.08a.45.45 0 0 1 .41 0h.07l1.24.41 2.37.79c.28.09.41.19.33.53-.18.76-.36 1.54-.52 2.29-.07.3-.13.59-.2.88l-.01.02zm.57.57H6l.19-.86c.17-.75.33-1.5.5-2.25 0-.1.04-.16.12-.18.06 0 .13 0 .22.06l.85.6c.15.1.3.2.44.31.14.11.15.11.15.2 0 .09 0 .11-.09.17-.77.7-1.49 1.33-2.19 2l-.16-.05zm.4.93h.08l.78.08 1.55.16c.86.11.88.14.76 1-.08.63-.16 1.26-.24 1.92l-.13 1-.06-.09-2.74-4.07zm-.29 8.55l1.61-2c.35-.43 1.22-1.4 1.27-1.44h.08l-.14.88c-.1.68-.19 1.32-.29 2 0 .1 0 .21-.05.31 0 .2-.07.42-.09.63a.43.43 0 0 1-.14.31.35.35 0 0 1-.18 0h-.12l-1.81-.31c-.11 0-.21 0-.24-.12s0-.14.09-.24l.01-.02zm-4.81 7.34l4.24-6.57.27.85c.25.81.49 1.57.73 2.33a.31.31 0 0 1-.17.37l-5.09 3 .02.02z" fill="#F0D37F"/></svg>