<svg width="27" height="27" viewBox="0 0 27 27" fill="none" xmlns="http://www.w3.org/2000/svg"><path d="M13.15.56a13.06 13.06 0 1 0 0 26.12 13.06 13.06 0 0 0 0-26.12zm5.52 18.3a.1.1 0 0 1-.09 0h-3.86a.6.6 0 0 1-.21-.21l-.28-.43-1-1.43c-.06-.09-.09-.13-.12-.13s-.06 0-.12.12c-.373.588-.707 1.2-1 1.83a.53.53 0 0 1-.18.24H7.73c-.12 0-.14-.05-.1-.12.14-.25 3.34-4.88 3.44-5a.22.22 0 0 0 0-.31l-.55-.84a37.54 37.54 0 0 0-2.34-3.32c-.15-.19-.32-.4-.47-.62 0-.06-.1-.14-.07-.2a.19.19 0 0 1 .2-.14h3.87c.13 0 .19.09.25.19l.31.47.74 1.09c.07.1.1.14.14.14.04 0 .07 0 .12-.15l.37-.66c.16-.3.34-.62.51-.92V8.4c0-.08.08-.17.14-.17h4.17a.08.08 0 0 1 .07 0c0 .05 0 .18-.08.24l-1.51 2.27-1.13 1.7-.35.55c-.08.11-.15.23-.22.34a.27.27 0 0 0 0 .34 90.9 90.9 0 0 0 3.14 4.59l.07.09c.062.073.116.154.16.24a.138.138 0 0 1 .147.21.142.142 0 0 1-.087.06z" fill="#4FADCF"/></svg>