<svg width="115" height="29" viewBox="0 0 115 29" fill="none" xmlns="http://www.w3.org/2000/svg"><path d="M78.26 28.091h-3.071l.635-2.758h3.072l-.636 2.758zm2.907 0l2.305-10.062h2.872l-.352 1.573h.068c.503-.526 1.074-.951 1.623-1.205a5.968 5.968 0 0 1 2.477-.524c.595 0 1.69.078 2.458.816.57.563.725 1.283.725 1.863 0 .331-.043.623-.09.855l-1.515 6.684h-2.982l1.402-6.08a2.89 2.89 0 0 0 .088-.622c0-.388-.107-.756-.436-1.03-.2-.154-.504-.33-1.1-.33-.679 0-1.336.195-1.93.604a3.248 3.248 0 0 0-1.38 2.037l-1.254 5.421h-2.979zm16.18-4.234c-.042.194-.087.387-.087.562 0 .604.307 1.108.77 1.42.703.465 1.665.505 2.147.505.683 0 1.297-.08 1.932-.216a15.048 15.048 0 0 0 1.777-.485l-.461 1.98c-1.232.39-2.591.624-3.906.624-1.338 0-2.94-.292-3.928-1.07-.636-.523-1.424-1.476-1.424-3.126 0-1.455.503-2.99 1.906-4.291 1.21-1.088 2.94-1.884 5.045-1.884 1.736 0 2.742.622 3.335 1.224.506.524 1.011 1.342 1.011 2.584 0 .544-.11 1.126-.219 1.573l-.155.602h-7.742v-.002zm5.09-1.808c.045-.174.067-.406.067-.64 0-.408-.09-.836-.374-1.165-.263-.292-.725-.546-1.495-.546-.767 0-1.38.312-1.885.758a3.369 3.369 0 0 0-.99 1.593h4.677zm4.042-2.251l.417-1.893h1.822l.558-2.093 2.981-.742-.657 2.834h2.632l-.419 1.894h-2.633l-1.088 4.737c-.061.214-.153.564-.153.874 0 .272.067.545.286.681.242.174.68.214.878.214.461 0 .987-.098 1.27-.174l-.436 1.863c-.678.138-1.513.254-2.195.254-.855 0-1.69-.176-2.194-.564-.547-.427-.702-1.03-.702-1.593 0-.35.062-.7.131-.953l1.217-5.34h-1.715zm-67.006-5.303l-3.112 13.597h-5.879l2.28-9.905h-2.85l-.55 2.33c-.79 3.379-1.381 7.808-7.152 7.808a14.11 14.11 0 0 1-2.915-.331l.81-3.495c.306.078.898.136 1.25.136.616 0 1.183-.29 1.625-.853.328-.428.809-1.358 1.621-4.952l.987-4.332h13.885v-.003zm8.073 0h-5.875l-.891 3.877 5.939-.044.827-3.833zm-8.681 12.203l-.311 1.395h5.88l2.11-9.334c-5.004.517-6.783 3.917-7.68 7.939zm34.431 1.394h-6.188l-.373-2.913h-4.628l-1.69 2.913h-5.88l8.491-13.597h7.918l2.35 13.597zm-6.493-6.117l-.614-4.254h-.086l-2.567 4.254h3.267zm-8.274-3.594l2.415-3.886H49.742l-3.115 13.597h5.877l2.238-9.711h3.787z" fill="#000"/><path fill-rule="evenodd" clip-rule="evenodd" d="M9.052 18.63a10.287 10.287 0 0 1-3.432-1.113c2.61-.086 6.428-1.03 6.961-3.682a2.777 2.777 0 0 0 0-.9c2.562-.042 6.673-.983 7.207-3.727.477-2.441-3-3.295-3.82-5.216-.29-.692-.29-1.975.386-2.53 3.625 1.923 5.703 5.69 4.93 9.586-1.019 5.055-6.527 8.48-12.232 7.581zm-3.674-1.2C1.797 15.464-.283 11.694.496 7.8 1.508 2.744 6.972-.679 12.727.221c1.208.214 2.367.595 3.38 1.109-2.56.09-6.377 1.03-6.913 3.682a2.844 2.844 0 0 0 0 .943c-2.608.043-6.673.943-7.2 3.682-.487 2.486 2.993 3.297 3.819 5.223.29.685.29 1.974-.435 2.57zM9.247 6.04c.483 1.716 3.09 2.568 3.772 4.2.287.722.287 2.052-.485 2.566-.486-1.711-3.095-2.566-3.772-4.198-.29-.68-.29-2.012.485-2.568z" fill="#000"/></svg>