<svg width="116" height="29" viewBox="0 0 116 29" fill="none" xmlns="http://www.w3.org/2000/svg"><path fill-rule="evenodd" clip-rule="evenodd" d="M14.54 7.618a6.794 6.794 0 0 0-6.795 6.795 6.794 6.794 0 0 0 6.795 6.795 6.801 6.801 0 0 0 5.659-3.025l5.658 3.769a13.577 13.577 0 0 1-11.308 6.05C7.026 28.012.942 21.928.942 14.414.942 6.907 7.026.823 14.54.823c4.718 0 8.872 2.404 11.309 6.051l-5.659 3.77a6.787 6.787 0 0 0-5.65-3.026zm13.59-2.265v18.128l6.795 4.53V.823l-6.795 4.53zm82.43.303a2.54 2.54 0 0 1 2.543 2.543 2.54 2.54 0 0 1-2.543 2.543 2.54 2.54 0 0 1-2.543-2.543 2.551 2.551 0 0 1 2.543-2.543zM74.607 18.093a2.54 2.54 0 0 1 2.543 2.543 2.54 2.54 0 0 1-2.543 2.543 2.54 2.54 0 0 1-2.543-2.543 2.54 2.54 0 0 1 2.543-2.543zm0-2.568c2.82 0 5.11 2.29 5.11 5.11a5.112 5.112 0 0 1-5.11 5.111 5.112 5.112 0 0 1-5.11-5.11 5.107 5.107 0 0 1 5.11-5.11zm-8.553 5.094c0-.654-.188-1.177-.572-1.553-.385-.376-.933-.573-1.636-.58v4.186c.703 0 1.251-.172 1.636-.524.384-.351.572-.858.572-1.529zm-6.991 0c0 .67.188 1.178.572 1.521.385.352.932.524 1.636.524v-4.179c-.712.008-1.251.205-1.636.58-.384.377-.572.9-.572 1.554zm-3.95 4.947h-2.567v-3.95h-3.598v3.95h-2.567v-9.86h2.567v3.605h3.598v-3.606h2.568v9.861zm-10.711 0h-2.576v-9.86h2.568v9.86h.008zm54.694-20.13v1.733h.924c.311 0 .548-.082.728-.238a.825.825 0 0 0 .262-.63.825.825 0 0 0-.262-.629c-.172-.155-.417-.237-.728-.237h-.924zm0 3.793v1.734h1.971c.302 0 .54-.074.72-.213.179-.147.269-.36.269-.654 0-.286-.09-.507-.269-.646-.18-.147-.418-.213-.72-.213h-1.97V9.23zm1.096-5.96c.466 0 .908.073 1.317.212.408.139.76.335 1.062.589.303.253.532.564.704.915.171.36.253.76.253 1.194 0 .67-.204 1.219-.613 1.66a2.7 2.7 0 0 1 1.21.891c.294.393.45.883.45 1.472 0 .442-.082.834-.254 1.194-.171.36-.4.662-.703.916-.294.253-.646.45-1.055.597-.4.147-.842.212-1.324.212h-4.604V3.268h3.557zm-4.693 2.313h-2.96v7.548H89.97V5.582h-2.96V3.268h8.49v2.314zm-26.297 5.233h3.312V5.582h-1.897l-1.415 5.233zm-3.704 2.315v-2.315h1.047l2.02-7.547h6.516v7.547h1.047v2.315h-10.63zm-1.284 0h-2.567V3.268h2.567v9.861zm-4.546 0H57.1V5.582h-1.897l-2.027 7.548H50.51l2.641-9.862h6.517v9.861zM45.653 3.088c1.774 0 3.336.908 4.252 2.274l-2.134 1.43a2.552 2.552 0 0 0-2.118-1.128 2.54 2.54 0 0 0-2.543 2.543 2.54 2.54 0 0 0 2.543 2.543c.883 0 1.66-.45 2.118-1.128l2.142 1.422a5.112 5.112 0 0 1-9.362-2.837 5.102 5.102 0 0 1 5.102-5.119zm36.346 0c1.774 0 3.336.908 4.252 2.274l-2.143 1.422a2.552 2.552 0 0 0-2.118-1.128 2.54 2.54 0 0 0-2.542 2.543 2.54 2.54 0 0 0 2.543 2.543c.883 0 1.66-.45 2.117-1.129l2.143 1.423A5.112 5.112 0 0 1 76.889 8.2a5.107 5.107 0 0 1 5.11-5.11zm-18.153 13.23a6.019 6.019 0 0 1 1.89.303 4.283 4.283 0 0 1 1.48.826c.416.36.735.801.972 1.324.237.516.352 1.113.352 1.775 0 .67-.115 1.267-.352 1.79a3.94 3.94 0 0 1-.973 1.35 4.317 4.317 0 0 1-1.48.842c-.572.196-1.202.294-1.889.31v1.21H61.28v-1.21a6.017 6.017 0 0 1-1.89-.31 4.455 4.455 0 0 1-1.48-.842 3.758 3.758 0 0 1-.972-1.341c-.237-.532-.352-1.129-.352-1.791 0-.654.115-1.251.352-1.774.237-.524.556-.965.973-1.325.417-.36.908-.638 1.48-.826.572-.196 1.202-.294 1.889-.31v-1.12h2.567v1.12zm46.714-13.23a5.113 5.113 0 0 1 5.111 5.11 5.113 5.113 0 0 1-5.111 5.111 5.112 5.112 0 0 1-5.11-5.11 5.112 5.112 0 0 1 5.11-5.11z" fill="#000"/></svg>