<svg width="96" height="71" viewBox="0 0 96 71" fill="none" xmlns="http://www.w3.org/2000/svg"><path fill-rule="evenodd" clip-rule="evenodd" d="M12.51 18.172S5.355 10.563 9.002 8.078c2.1-1.439 3.47.4 3.47.4s1.37-1.839 3.47-.4c3.654 2.485-3.432 10.094-3.432 10.094zm-.061-8.286a4.964 4.964 0 0 0-.731-.77c-.2-.153-1.016-.792-2.085-.069-.324.216-.477.477-.516.862-.008.07-.008.146-.008.223 0 1.677 1.824 4.409 3.401 6.294 1.554-1.877 3.347-4.593 3.347-6.27 0-.078 0-.155-.015-.232-.046-.392-.2-.654-.524-.877-1.061-.723-1.654-.277-2.015.008a4.84 4.84 0 0 0-.854.83z" fill="#010202"/><path clip-rule="evenodd" d="M1 1h23.082v23.082H1V1z" stroke="#010202" stroke-width="1.25" stroke-miterlimit="10"/><path clip-rule="evenodd" d="M1 24.074h93.436v23.067H1V24.074zm0 23.09h63.714v22.951H1v-22.95z" stroke="#010202" stroke-width="1.25" stroke-miterlimit="10"/><path d="M15.65 41.279h-1.663v-9.595h-2.662v9.587H9.663V30.253h5.986v11.026zm2.8-8.919c0-1.692 1.493-2.292 2.785-2.292 1.277 0 2.77.6 2.77 2.293v6.801c0 1.678-1.492 2.278-2.77 2.278-1.292 0-2.785-.6-2.785-2.278v-6.801zm3.893 0c0-.63-.6-.861-1.108-.861-.508 0-1.123.215-1.123.862v6.801c0 .631.615.862 1.123.862s1.108-.23 1.108-.862v-6.801zm4.186 8.918V30.252h3.047c1.4 0 2.43.862 2.43 2.17v1.354c0 .662-.338 1.247-.938 1.74.862.43 1.262 1.03 1.262 1.907v1.354c0 1.34-.877 2.493-2.524 2.493H26.53v.008zm3.816-8.687c0-.461-.23-.923-.908-.923h-1.246v3.2h1.246c.677 0 .908-.476.908-.922V32.59zm.323 4.817c0-.585-.354-1.108-1.154-1.108h-1.323v3.555h1.323c.816 0 1.154-.508 1.154-1.093v-1.354zm9.095 3.87h-4.878V30.252h4.878v1.431h-3.217v3.186h2.663v1.43h-2.663v3.525h3.217v1.454zm2.585 0V30.252h2.846c1.755 0 2.878.954 2.878 2.724v1.354c0 1.755-1.123 2.709-2.878 2.709H44.01v4.231h-1.662v.008zm4.062-8.302c0-.63-.354-1.293-1.216-1.293H44.01v3.94h1.184c.862 0 1.216-.677 1.216-1.293v-1.354zm9.833 8.302h-1.662V36.3H51.92v4.97h-1.662V30.252h1.662v4.617h2.662v-4.617h1.662v11.026zm7.356 0v-6.94l-2.785 6.94H59.29V30.252h1.662v6.94l2.785-6.94h1.508V41.27H63.6v.008zm8.355-3.855h1.662v1.74c0 1.677-1.493 2.277-2.77 2.277-1.293 0-2.785-.6-2.785-2.278v-6.801c0-1.693 1.492-2.293 2.785-2.293 1.277 0 2.77.6 2.77 2.293V34.1h-1.662v-1.74c0-.63-.6-.861-1.108-.861-.508 0-1.123.215-1.123.862v6.801c0 .631.615.862 1.123.862s1.108-.23 1.108-.862v-1.739zm10.08 1.124c0 1.785-1.124 2.723-2.878 2.723h-2.847V30.252h1.662v4.217h1.185c1.754 0 2.877.938 2.877 2.724v1.354zm-2.878 1.277c.862 0 1.216-.646 1.216-1.277v-1.354c0-.508-.354-1.293-1.216-1.293h-1.185v3.924h1.185zM18.327 64.347l-2.431-4.97h-.416v4.97h-1.662v-4.97h-.4l-2.447 4.97H9.325v-.277l2.524-5.325-2.401-5.14v-.276h1.662l2.231 4.616h.477v-4.616h1.662v4.616h.492l2.216-4.616h1.662v.277l-2.37 5.14 2.509 5.324v.277h-1.662zm7.986-.002v-6.94l-2.785 6.94h-1.523V53.319h1.662v6.94l2.785-6.94h1.508v11.018h-1.647v.008zm4.401 0V53.319h3.047c1.4 0 2.431.862 2.431 2.17v1.354c0 .662-.338 1.247-.938 1.739.861.43 1.262 1.031 1.262 1.908v1.354c0 1.34-.877 2.493-2.524 2.493h-3.278v.008zm3.817-8.687c0-.461-.231-.923-.908-.923h-1.247v3.2h1.247c.677 0 .908-.476.908-.922v-1.355zm.323 4.825c0-.585-.354-1.108-1.154-1.108h-1.324v3.554H33.7c.815 0 1.154-.508 1.154-1.092v-1.355zm8.217 3.862v-6.94l-2.785 6.94h-1.524V53.319h1.662v6.94l2.785-6.94h1.508v11.018h-1.646v.008zm10.479 0V56.82l-2.215 4.401-2.201-4.4v7.524h-1.662V53.319h1.523l2.34 4.71 2.354-4.71h1.492v11.018h-1.63v.008z" fill="#010202"/></svg>