<svg width="107" height="31" viewBox="0 0 107 31" fill="none" xmlns="http://www.w3.org/2000/svg"><path d="M22.847.765v11.451c0 6.692-5.143 9-11.395 9-6.615 0-11.394-2.725-11.394-8.969V.766h5.675v11.6c0 2.898 2.376 4.65 5.648 4.65 3.006 0 5.782-1.39 5.782-5.003V.765h5.684zm19.88 5.238C39.42 4.7 37.451 4.197 35.51 4.197c-2.04 0-3.343.652-3.343 1.657 0 3.047 11.599 2.191 11.599 9.236 0 3.88-3.671 6.126-8.752 6.126-3.973 0-5.95-.919-8.22-1.956v-4.35c3.272 1.924 5.276 2.607 7.785 2.607 2.173 0 3.343-.683 3.343-1.87 0-3.314-11.598-2.104-11.598-9.353 0-3.495 3.405-5.804 8.69-5.804 2.536 0 4.841.471 7.723 1.57v3.943h-.009zM70.721 20.95h-6.118l-1.871-3.998H52.543l-1.702 3.998h-6.012L54.015.765h6.58L70.72 20.95zM57.394 5.587l-3.343 7.846h7.014l-3.671-7.846zM78.906 20.95h-5.684V.765h5.684V20.95zM93.847.765c8.318 0 12.601 4.587 12.601 10.124 0 5.796-4.141 10.06-13.23 10.06h-9.435V.766h10.064zm-4.38 16.485h3.706c5.71 0 7.413-3.432 7.413-6.393 0-3.463-2.101-6.393-7.484-6.393h-3.644V17.25h.009zM2.968 25.928H.85v1.335h2.12v.62H.848v2.24h-.78V25.3h2.908v.628h-.009zm2.216-.618c1.1 0 1.79.517 1.79 1.35 0 .558-.327.974-.912 1.178.496.29.798.738 1.214 1.335.231.33.364.495.745.958h-.93l-.719-.99c-.718-.989-1.046-1.099-1.445-1.099h-.329v2.097h-.78v-4.822h1.366v-.008zm-.586 2.104h.506c.842 0 1.082-.385 1.073-.786-.009-.455-.31-.73-1.073-.73h-.506v1.516zm6.146-2.168c1.8 0 2.926 1.13 2.926 2.474 0 1.303-1.1 2.474-2.944 2.474-1.782 0-2.909-1.17-2.909-2.474 0-1.336 1.162-2.474 2.927-2.474zm0 4.311c1.223 0 2.119-.785 2.119-1.837 0-1.06-.904-1.838-2.12-1.838-1.214 0-2.119.777-2.119 1.838 0 1.052.905 1.837 2.12 1.837zm8.786.574h-.78v-3.754h-.017l-1.676 1.87h-.124l-1.676-1.87h-.018v3.754h-.78V25.31h.736l1.8 1.98 1.809-1.98h.727v4.822zm7.237-4.201h-1.88v4.201h-.78V25.93h-1.88v-.62h4.549v.62h-.01zm5.267 4.201h-.78v-2.097h-3.05v2.097h-.781V25.31h.78v2.097h3.05V25.31h.78v4.822zm4.274-4.201h-2.306v1.453h2.226v.62h-2.226v1.5h2.377v.62h-3.157v-4.822h3.086v.629zm7.732 4.2h-.798l-.727-1.421H40.2l-.682 1.422h-.798l2.34-4.854h.55l2.43 4.854zm-3.538-2.041h1.694l-.878-1.744-.816 1.744zm9.116 2.042h-.78v-3.754h-.019l-1.675 1.862h-.124l-1.676-1.87h-.018v3.755h-.78V25.3h.736l1.808 1.98 1.81-1.98h.727v4.83h-.01zm4.238-4.201h-2.305v1.453h2.225v.62h-2.225v1.5h2.376v.62h-3.166v-4.822h3.086v.629h.01zm2.297-.62c1.1 0 1.791.517 1.791 1.35 0 .558-.328.974-.913 1.178.496.29.798.738 1.215 1.335.23.33.363.495.744.958h-.94l-.718-.99c-.718-.989-1.046-1.099-1.445-1.099h-.328v2.097h-.78v-4.822h1.374v-.008zm-.594 2.104h.505c.843 0 1.073-.385 1.073-.786-.009-.455-.31-.73-1.073-.73h-.505v1.516zm4.575 2.717h-.78V25.31h.78v4.822zm5.684-3.747c-.674-.345-1.25-.502-1.88-.502-1.241 0-2.172.785-2.172 1.845 0 1.084.895 1.83 2.199 1.83.612 0 1.285-.188 1.897-.541v.753a4.445 4.445 0 0 1-1.968.425c-2.04 0-2.935-1.39-2.935-2.404 0-1.468 1.25-2.544 2.988-2.544.559 0 1.126.117 1.871.392v.746zm5.64 3.746h-.798l-.727-1.421h-2.315l-.682 1.422h-.799l2.341-4.854h.55l2.43 4.854zm-3.538-2.04h1.693l-.877-1.744-.816 1.744zm9.089 2.041h-.674l-3.645-3.715v3.715h-.736V25.31h.621l3.689 3.73v-3.73H77v4.822h.009zm5.276-4.821c1.188 0 1.729.62 1.729 1.381 0 .754-.576 1.351-1.836 1.351h-.806v2.09h-.78v-4.823h1.693zm-.913 2.112h.886c.585 0 .958-.275.958-.754 0-.354-.213-.738-.922-.738h-.922v1.492zm6.41-1.492h-2.305v1.453h2.226v.62h-2.226v1.5h2.376v.62h-3.156v-4.822h3.085v.629zm3.592-.684c1.8 0 2.926 1.13 2.926 2.474 0 1.303-1.1 2.474-2.944 2.474-1.782 0-2.908-1.17-2.908-2.474 0-1.336 1.161-2.474 2.926-2.474zm0 4.311c1.223 0 2.119-.785 2.119-1.837 0-1.06-.904-1.838-2.12-1.838-1.214 0-2.119.777-2.119 1.838 0 1.052.905 1.837 2.12 1.837zm5.382-4.247c1.188 0 1.73.62 1.73 1.381 0 .754-.577 1.351-1.836 1.351h-.816v2.09h-.78v-4.823h1.702zm-.922 2.112h.887c.585 0 .957-.275.957-.754 0-.354-.212-.738-.922-.738h-.922v1.492zm4.106 2.088h2.456v.621h-3.245V25.31h.78v4.202h.009zm6.145-3.58h-2.306v1.453h2.226v.62h-2.226v1.5h2.377v.62h-3.157v-4.822h3.086v.629z" fill="#000"/></svg>