<svg width="202" height="143" viewBox="0 0 202 143" fill="none" xmlns="http://www.w3.org/2000/svg"><path d="M135.234 109.087h1.8c.35 0 .676.033.964.096.292.063.539.167.747.313.205.146.368.334.481.572.117.238.171.53.171.877 0 .334-.055.622-.167.864a1.623 1.623 0 0 1-.476.605 2.11 2.11 0 0 1-.735.359c-.284.08-.601.121-.948.121h-1.039v2.501h-.798v-6.308zm1.737 3.156c.551 0 .96-.104 1.228-.313.267-.209.4-.539.4-.985 0-.455-.137-.773-.417-.948-.28-.175-.693-.263-1.244-.263h-.906v2.509h.939zm6.158 1.228h-2.3l-.606 1.924h-.818l2.133-6.308h.902l2.134 6.308h-.856l-.589-1.924zm-.204-.643l-.297-.961c-.117-.35-.225-.701-.326-1.052-.1-.35-.204-.705-.308-1.073h-.038a34.389 34.389 0 0 1-.622 2.125l-.297.961h1.888zm6.028 2.567l-1.52-2.663h-1.143v2.663h-.798v-6.308h1.971c.321 0 .618.029.889.092.271.062.505.163.701.305.197.141.347.325.455.546.109.226.163.501.163.827 0 .493-.129.889-.384 1.182-.259.296-.601.496-1.027.605l1.595 2.751h-.902zm-2.663-3.315h1.056c.492 0 .872-.1 1.135-.304.263-.201.397-.51.397-.919 0-.417-.129-.71-.397-.877-.263-.167-.643-.25-1.135-.25h-1.056v2.35zm4.713-2.993h.797v5.624h2.76v.68h-3.557v-6.304zm4.672 0h.797v6.308h-.797v-6.308zm5.498 4.384h-2.3l-.606 1.924h-.818l2.134-6.308h.901l2.134 6.308h-.856l-.589-1.924zm-.2-.643l-.297-.961c-.117-.35-.225-.701-.325-1.052-.1-.35-.205-.705-.309-1.073h-.038a47.78 47.78 0 0 1-.296 1.073c-.1.351-.213.702-.326 1.052l-.296.961h1.887zm2.584-3.741h.96l1.211 3.365c.075.217.154.438.225.66l.226.659h.037c.08-.217.151-.438.218-.659.066-.222.137-.443.217-.66l1.194-3.365h.972v6.308h-.751v-3.469c0-.28.013-.593.038-.931.025-.338.05-.651.066-.931h-.037l-.501 1.432-1.194 3.269h-.53l-1.194-3.269-.501-1.432h-.038c.021.284.042.593.063.931.02.338.033.651.033.931v3.469h-.722v-6.308h.008zm6.855 0h3.637v.672h-2.835v1.979h2.392v.685h-2.392v2.288h2.935v.68h-3.733v-6.304h-.004zm4.981 0h.827l2.279 3.962.681 1.307h.037c-.017-.322-.042-.652-.062-.994-.021-.342-.034-.68-.034-1.014v-3.261h.76v6.308h-.827l-2.287-3.97-.681-1.299h-.038c.025.322.051.648.071.977.021.33.034.664.034.994v3.298h-.76v-6.308zm7.49.672h-1.904v-.672h4.613v.672h-1.903v5.636h-.806v-5.636zm-29.901 17.054a2.86 2.86 0 0 1-.898-.137 1.719 1.719 0 0 1-.722-.464 2.32 2.32 0 0 1-.476-.843c-.117-.347-.171-.772-.171-1.278v-3.703h.797v3.72c0 .38.038.697.117.952.08.255.18.463.313.614.13.154.289.263.468.329.18.067.372.101.576.101.213 0 .405-.034.585-.101.179-.066.338-.179.471-.329.134-.155.243-.359.318-.614.079-.259.117-.576.117-.952v-3.72h.768v3.703c0 .506-.059.931-.171 1.278a2.32 2.32 0 0 1-.476.843 1.772 1.772 0 0 1-.714.464 2.921 2.921 0 0 1-.902.137zm3.778-6.42h.798v3.164h.029l2.626-3.164h.906l-1.971 2.404 2.28 3.904h-.894l-1.882-3.277-1.086 1.277v2h-.797v-6.308h-.009zm9.031 6.308l-1.52-2.664h-1.144v2.664h-.797v-6.308h1.97c.322 0 .618.029.89.091.271.063.505.163.701.301.196.142.346.326.455.547.109.225.163.501.163.827 0 .492-.13.885-.384 1.181-.255.296-.601.497-1.027.605l1.595 2.752h-.902v.004zm-2.664-3.319h1.056c.493 0 .873-.1 1.136-.301.263-.2.392-.509.392-.918 0-.418-.129-.71-.392-.877-.263-.167-.643-.25-1.136-.25h-1.056v2.346zm7.749 1.394h-2.301l-.605 1.925h-.818l2.133-6.308h.902l2.133 6.308h-.856l-.588-1.925zm-.201-.643l-.296-.96a31.307 31.307 0 0 1-.326-1.052c-.1-.351-.204-.706-.309-1.073h-.037c-.096.367-.196.722-.297 1.073-.1.351-.213.701-.325 1.052l-.297.96h1.887zm2.451-3.74h.797v6.308h-.797v-6.308zm2.43 0h.826l2.28 3.962.681 1.306h.037l-.063-.993c-.02-.343-.033-.681-.033-1.015v-3.26h.76v6.308h-.827l-2.288-3.97-.68-1.299h-.038a70 70 0 0 1 .071.977c.021.33.034.664.034.994v3.298h-.76v-6.308zm6.041 0h3.636v.672h-2.834v1.979h2.392v.684h-2.392v2.288h2.935v.681h-3.733v-6.304h-.004zm-71.041 6.358c-.188 0-.342-.013-.471-.033a1.423 1.423 0 0 1-.326-.092l.25-1.232c.059.017.117.038.184.05a1.2 1.2 0 0 0 .288.025c.297 0 .497-.096.606-.288l.087-.184-2.125-4.634h1.499l.731 1.829.53 1.499h.037l.489-1.499.664-1.829h1.423l-1.933 4.847c-.192.48-.442.856-.747 1.128-.305.279-.701.413-1.186.413zm9.749-.112h-1.491l-1.661-2.664h-.693v2.664h-1.411v-6.271h1.411v2.463h.693l.818-1.444c.121-.213.242-.389.363-.535.117-.146.247-.259.38-.351.134-.087.276-.154.422-.192a1.995 1.995 0 0 1 .768-.037.814.814 0 0 1 .246.067l-.229 1.277a.611.611 0 0 0-.155-.033c-.05-.004-.092-.004-.125-.004a.555.555 0 0 0-.359.116c-.1.076-.213.226-.342.451l-.664 1.153 2.029 3.34zm.768-6.271h2.154c.347 0 .668.033.973.1.301.067.564.179.789.338.226.159.401.367.534.626.13.259.197.581.197.956 0 .368-.067.681-.197.952a1.808 1.808 0 0 1-.534.664 2.3 2.3 0 0 1-.781.384 3.432 3.432 0 0 1-.943.125h-.781v2.125h-1.411v-6.27zm2.108 3.018c.769 0 1.153-.334 1.153-.998 0-.325-.105-.559-.309-.693-.205-.133-.501-.2-.885-.2h-.656v1.895h.697v-.004zm6.087 1.762h-1.912l-.384 1.49h-1.444l1.962-6.27h1.703l1.962 6.27h-1.498l-.389-1.49zm-.292-1.106l-.146-.577a26.832 26.832 0 0 1-.259-.997 61.585 61.585 0 0 0-.25-1.019h-.038c-.079.334-.154.676-.234 1.023-.079.351-.167.68-.254.993l-.155.577h1.336zm2.609-4.138a.63.63 0 0 1-.484-.192.662.662 0 0 1-.188-.48c0-.192.063-.35.188-.48a.646.646 0 0 1 .484-.192.648.648 0 0 1 .673.672.662.662 0 0 1-.188.48.644.644 0 0 1-.485.192zm.364.464h1.411v6.271h-1.411v-6.271zm1.77-.464a.642.642 0 0 1-.484-.192.657.657 0 0 1-.188-.48.66.66 0 0 1 .188-.48.646.646 0 0 1 .484-.192c.2 0 .363.063.484.192.125.13.188.288.188.48a.662.662 0 0 1-.188.48.642.642 0 0 1-.484.192zm1.085.464h1.411v2.413h2.163v-2.413h1.424v6.27h-1.424v-2.617h-2.163v2.617h-1.411v-6.27zm9.423 4.78h-1.912l-.384 1.49h-1.445l1.963-6.27h1.703l1.962 6.27h-1.499l-.388-1.49zm-.288-1.106l-.146-.577a26.832 26.832 0 0 1-.259-.997 61.585 61.585 0 0 0-.25-1.019h-.038c-.079.334-.154.676-.234 1.023-.079.351-.167.68-.254.993l-.155.577h1.336zm-88.897-14.956h3.637v.673h-2.835v1.979h2.392v.684h-2.392v2.288h2.93v.681h-3.732v-6.305zm7.181 6.426a2.82 2.82 0 0 1-.897-.138 1.703 1.703 0 0 1-.723-.464c-.2-.212-.359-.496-.476-.843-.117-.346-.17-.772-.17-1.277v-3.704h.797v3.72c0 .38.037.698.117.952.075.255.179.464.313.614.133.154.288.263.467.33.18.066.372.1.576.1.213 0 .41-.034.585-.1.18-.067.338-.18.472-.33a1.64 1.64 0 0 0 .317-.614 3.4 3.4 0 0 0 .117-.952v-3.72h.768v3.704c0 .505-.059.931-.171 1.277a2.305 2.305 0 0 1-.476.843c-.2.213-.443.368-.718.464-.28.092-.576.138-.898.138zm7.319-.117l-1.52-2.664h-1.144v2.664h-.797v-6.309h1.97c.322 0 .618.03.89.092.271.063.505.163.701.305.196.142.347.326.455.547.109.225.163.501.163.827 0 .492-.13.889-.384 1.181-.255.297-.601.497-1.027.605l1.595 2.752h-.902zm-2.664-3.315h1.056c.493 0 .873-.1 1.136-.305.263-.2.393-.509.393-.918 0-.418-.134-.71-.393-.877-.263-.167-.643-.251-1.135-.251h-1.057v2.351zm7.094 3.432a2.53 2.53 0 0 1-1.09-.23 2.414 2.414 0 0 1-.852-.659 3.015 3.015 0 0 1-.551-1.04 4.373 4.373 0 0 1-.196-1.369c0-.505.067-.96.196-1.361a3.02 3.02 0 0 1 .551-1.019 2.37 2.37 0 0 1 .852-.639c.33-.146.693-.221 1.09-.221.396 0 .76.075 1.09.226.329.15.613.367.855.643.242.279.426.617.56 1.018.129.401.196.852.196 1.353a4.5 4.5 0 0 1-.197 1.369 2.99 2.99 0 0 1-.559 1.04 2.515 2.515 0 0 1-.856.659 2.56 2.56 0 0 1-1.09.23zm0-.701c.283 0 .538-.063.764-.184a1.78 1.78 0 0 0 .588-.522c.163-.225.288-.501.38-.818a4.04 4.04 0 0 0 .134-1.073c0-.393-.046-.743-.134-1.056a2.475 2.475 0 0 0-.38-.798 1.745 1.745 0 0 0-.588-.505 1.648 1.648 0 0 0-.764-.179c-.284 0-.54.058-.765.179-.23.117-.421.288-.584.505a2.391 2.391 0 0 0-.38.798 3.931 3.931 0 0 0-.134 1.056c0 .396.046.756.134 1.073.088.317.217.588.38.818.163.226.359.401.584.522.23.121.485.184.765.184zm4.078-5.725h1.8c.35 0 .676.034.968.096.293.063.539.167.743.314.205.146.368.334.48.572.118.238.172.53.172.876 0 .334-.054.622-.167.864a1.618 1.618 0 0 1-.476.606c-.205.158-.451.28-.735.359a3.536 3.536 0 0 1-.948.121h-1.04v2.501h-.797v-6.309zm1.741 3.157c.551 0 .96-.105 1.228-.313.267-.209.4-.539.4-.986 0-.455-.137-.772-.417-.947-.28-.176-.693-.263-1.244-.263h-.906v2.509h.94zm3.653-3.157h3.637v.673h-2.835v1.979h2.392v.684h-2.392v2.288h2.93v.681h-3.732v-6.305zm8.087 4.384h-2.296l-.605 1.925h-.819l2.134-6.309h.902l2.133 6.309h-.856l-.593-1.925zm-.204-.643l-.297-.96a25.342 25.342 0 0 1-.325-1.052c-.105-.351-.205-.706-.31-1.073h-.037c-.096.367-.196.722-.296 1.073-.105.351-.213.701-.326 1.052l-.296.96h1.887zm2.559-3.741h.827l2.279 3.962.68 1.307h.038c-.017-.321-.042-.651-.063-.993-.02-.343-.033-.681-.033-1.015v-3.261h.76v6.309h-.827l-2.288-3.971-.684-1.298h-.038c.025.321.05.647.071.977.021.33.033.664.033.994v3.298h-.76v-6.309h.005zm9.869 3.858l-1.895-4.037h1.52l.559 1.444c.088.238.175.468.255.689.079.221.167.455.254.697h.038c.088-.242.18-.476.263-.697.088-.221.175-.451.263-.689l.568-1.444h1.482l-1.895 4.037v2.229h-1.412v-2.229zm6.204 2.347c-.421 0-.81-.076-1.16-.226a2.522 2.522 0 0 1-.898-.647 3.017 3.017 0 0 1-.58-1.027 4.233 4.233 0 0 1-.209-1.374c0-.513.071-.968.209-1.369a2.82 2.82 0 0 1 .58-1.01c.251-.272.551-.48.898-.626.35-.147.734-.218 1.16-.218.422 0 .81.071 1.157.218.35.146.647.354.897.63.251.275.443.614.581 1.014a4.2 4.2 0 0 1 .208 1.361c0 .514-.071.973-.208 1.374a2.93 2.93 0 0 1-.581 1.027c-.25.284-.551.497-.897.647-.351.15-.735.226-1.157.226zm0-1.224c.43 0 .768-.183 1.019-.551.25-.367.376-.868.376-1.503 0-.626-.126-1.119-.376-1.469a1.19 1.19 0 0 0-1.019-.53c-.43 0-.768.175-1.018.53-.251.35-.376.843-.376 1.469 0 .635.125 1.136.376 1.503.246.368.588.551 1.018.551zm6.325 1.223c-.814 0-1.436-.242-1.866-.722-.43-.48-.643-1.248-.643-2.296v-3.365h1.424v3.511c0 .614.092 1.044.28 1.29.187.242.455.367.805.367.351 0 .627-.121.819-.367.192-.242.288-.672.288-1.29v-3.511h1.365v3.365c0 1.052-.209 1.816-.631 2.296-.421.48-1.035.722-1.841.722zm5.039-5.193h-1.72v-1.194h4.864v1.194h-1.724v5.077h-1.424v-5.077h.004zm3.992-1.194h1.411v2.413h2.163v-2.413h1.423v6.271h-1.423v-2.613h-2.163v2.613h-1.411v-6.271zm48.145-66.837l-8.634 1.37-5.615-3.712.296 4.538-8.604 1.361 8.78 1.466.3 4.534 5.148-3.65 8.763 1.45-5.598-3.695 5.164-3.662zm-36.051 27.78l-3.594.58-2.334-1.544.138 1.887-3.603.58 3.657.593.113 1.896 2.158-1.528 3.641.609-2.338-1.545 2.162-1.528zm-30.568-30.539l-5.945.96-3.892-2.576.172 3.152-5.945.952 6.062.998.217 3.148 3.553-2.53 6.112 1.002-3.887-2.572 3.553-2.534zm22.674.204l-.025.008.025-.008zm13.447-9.552l-8.609 1.36-5.615-3.71.301 4.538-8.634 1.365 8.805 1.457.276 4.55 5.139-3.648 8.788 1.44-5.594-3.699 5.143-3.653zm-37.963-4.075l-8.608 1.366-5.616-3.712.28 4.542-8.613 1.366 8.81 1.452.275 4.551 5.144-3.653 8.784 1.445-5.595-3.7 5.14-3.656zm-33.136 7.803l-8.592 1.374-5.615-3.707.275 4.546-8.608 1.361 8.805 1.457.28 4.547 5.139-3.658 8.788 1.45-5.615-3.717 5.143-3.653zm88.321 57.41l-8.605 1.36-5.623-3.715.3 4.563-8.608 1.361 8.788 1.44.275 4.551 5.14-3.648 8.809 1.452-5.62-3.711 5.144-3.653zm21.154-14.613l-8.604 1.362-5.62-3.708.297 4.555-8.605 1.361 8.784 1.449.28 4.546 5.139-3.653 8.809 1.453-5.615-3.707 5.135-3.657zm5.436-18.027l-8.609 1.365-5.598-3.695.275 4.543-8.604 1.365 8.788 1.44.292 4.56 5.144-3.65 8.788 1.44-5.616-3.71 5.14-3.658zm-52.496-2.245l-3.598.576-2.334-1.54.108 1.89-3.578.568 3.666.601.129 1.908 2.138-1.524 3.661.602-2.333-1.541 2.141-1.54zm-12.057-4.79l-3.603.576-2.35-1.553.129 1.904-3.578.568 3.666.597.012.292.092 1.603 2.138-1.52 3.665.602-2.334-1.545 2.163-1.524zm-15.046-1.62l-3.599.58-2.334-1.544.129 1.883-3.598.576 3.665.597.13 1.912 2.137-1.54 3.662.617-2.355-1.553 2.163-1.528zm-13.118 3.09l-3.599.576-2.33-1.54.105 1.895-3.578.568 3.666.597.125 1.908 2.138-1.516 3.665.593-2.334-1.54 2.142-1.54zm34.957 22.753l-3.574.564-2.351-1.553.126 1.908-3.574.563 3.661.606.113 1.887 2.134-1.516 3.665.601-2.334-1.54 2.134-1.52zm10.554-12.925l-3.574.564-2.359-1.55.134 1.9-3.62.568 3.691.614.1 1.891 2.163-1.528 3.661.601-2.329-1.54 2.133-1.52zm12.328-12.746l-5.965.944-3.892-2.572.218 3.148-5.991.952 6.107.997.197 3.165 3.573-2.547 6.083 1.015-3.887-2.572 3.557-2.53zm-20.056-7.979l-5.962.944-3.891-2.572.197 3.156-5.971.944 6.083 1.01.109 1.361.113 1.791 3.552-2.534 6.104 1.006-3.887-2.571 3.553-2.535zM85.03 44.45l-5.97.96-3.89-2.563.2 3.136-5.95.951 6.067.998.217 3.152 3.553-2.534 6.079 1.015-3.883-2.568 3.578-2.547zm58.133 37.808l-5.966.935-3.887-2.563.217 3.148-5.966.94 6.087 1.014.184 3.16.025-.013 3.557-2.53 6.083 1.01-3.891-2.567 3.557-2.534zm13.944-9.627l-5.966.944-3.887-2.568.192 3.157-5.966.939 6.074 1.014.226 3.152 3.553-2.538 6.108 1.006-3.891-2.567 3.557-2.539zm3.586-11.865l-5.962.944-3.887-2.568.192 3.16-5.966.936 6.083 1.014.213 3.148 3.557-2.526 6.108.998-3.887-2.572-.025.013 3.574-2.547z" fill="#fff"/></svg>