<svg width="106" height="96" viewBox="0 0 106 96" fill="none" xmlns="http://www.w3.org/2000/svg"><path d="M22.73 91.169L0 43.513 29.907 0l52.637 4.14 22.731 47.658-29.907 43.514-52.637-4.143z" fill="#fff"/><path style="mix-blend-mode:multiply" opacity=".71" d="M29.907 0l52.637 4.14-7.176 91.172L29.907 0z" fill="#fff"/><path opacity=".6" d="M46.495 93.009L83.188 5.497l-.648-1.36-33.48-2.672L16.344 77.61l6.393 13.577 23.76 1.822z" fill="#fff"/><path d="M64.651 53.333h-6.324v11.835h-6.415V33.104h12.741c6.787 0 10.848 4.602 10.848 10.114 0 5.512-4.063 10.115-10.85 10.115zm-.323-14.58h-6.001v8.885h6c2.91 0 4.755-1.77 4.755-4.424 0-2.654-1.845-4.46-4.754-4.46zm21.249-5.695h-6.42v32.074h6.42V33.058zM48.516 48.492c0-8.466-4.14-13.13-12.623-13.741v-1.686h-6.418v1.672c-8.422.619-12.593 5.298-12.593 13.755 0 8.506 3.66 13.449 12.593 14.028v2.615h.214v.012h6.03v-.012h.178v-2.612c8.997-.564 12.619-5.514 12.619-14.031zm-25.552.278c0-5.31 1.722-7.964 6.52-8.277v16.634c-4.724-.412-6.52-3.227-6.52-8.357zm12.93 8.366V40.484c4.852.301 6.593 2.941 6.593 8.282 0 5.16-1.827 7.977-6.594 8.37z" fill="#000"/></svg>