<svg width="140" height="18" viewBox="0 0 140 18" fill="none" xmlns="http://www.w3.org/2000/svg"><path fill-rule="evenodd" clip-rule="evenodd" d="M4.559.098L6.96 2.549 9.41.098h4.511v6.275H12.06l-.638.735.638.687h1.862v1.47h-2.451l-4.51-4.51v1.422l4.07 4.117 2.891.049v1.324h-3.481c-1.177-1.08-2.304-2.305-3.48-3.383v1.323l3.137 3.138 3.823.048v1.324H9.51l-2.5-2.45-2.402 2.45H0V7.794h1.912l.686-.687-.686-.735H0V4.999h2.55l1.078 1.079.686-.735L2.99 4.019H0v-1.47h3.432l1.814 1.764.735-.687-2.06-2.108H0V.096h4.559v.002zm69.656 7.108h.05L76.028.049 80.539 0l.049.098 1.716 6.96.048.05C82.99 4.756 83.48 2.353 84.02 0h5.05l-3.825 14.118h-5l-1.91-6.765-1.912 6.765h-4.951L67.55 0h5.098l1.567 7.206zm45-1.667l.196.98v7.549h-4.559V7.794c-.098-.196-.245-.49-.539-.54-.392-.147-.834.05-1.128.344-.294.343-.246.49-.246 1.323 0 1.716.049 5 0 5.147h-4.363V4.166h4.314c.049.49.098.638.098 1.275.932-1.127 2.207-1.764 3.775-1.52.981.147 2.011.687 2.452 1.618zM107.941 3.97l-.049 3.775c-1.079-.196-2.353-.05-2.991 1.03 0 0-.196.049-.294.735v4.559h-4.508V4.216h4.461c.048.44.048.735.098 1.225.685-1.176 1.911-1.715 3.283-1.47zm-51.373 0v3.775c-1.128-.196-2.402-.05-2.99 1.03 0 0-.196.049-.294.735v4.559h-4.51V4.216h4.461c0 .44.05.735.05 1.225.686-1.176 1.96-1.715 3.283-1.47zM140 7.893c-.98-.246-2.156-.098-2.842.637a1.579 1.579 0 0 0-.392 1.03v4.509h-4.657V4.216h4.461c.098.343 0 .881.098 1.176.735-1.176 2.058-1.618 3.333-1.373v3.874H140zm-9.363-1.716c.638 1.029.932 2.058.834 3.627h-6.96c-.05.392-.001.881.293 1.226.294.342.686.54 1.177.49.442 0 .784-.392 1.03-.784h4.411c-.196 1.422-1.519 2.598-2.843 3.088-2.206.832-5.342.882-7.156-.932-1.422-1.274-1.814-3.382-1.226-5.245.344-1.568 1.716-2.891 3.186-3.431 2.499-.784 5.784-.49 7.254 1.96zm-5.292.54c-.49.195-.784.783-.784 1.274h2.352c0-.491-.148-.834-.442-1.128-.295-.245-.785-.245-1.126-.147zm-77.648.44c.785 1.862.392 4.315-1.079 5.735-1.765 1.814-4.804 2.01-7.01 1.079-1.862-.686-3.087-2.647-3.186-4.56.05-1.911 1.03-3.676 2.745-4.655 2.108-1.079 5.245-.981 7.157.538.638.54 1.03 1.177 1.373 1.863zm-5.638.588c-.539.098-.98.54-1.127 1.079-.147.638 0 1.274.49 1.716.343.196.637.342 1.079.294.539-.05 1.029-.49 1.176-.98.196-.736.098-1.422-.588-1.912-.294-.197-.686-.245-1.03-.197zm21.569-2.401c.147-.588.05-.54.098-1.03 0 0 3.039 0 4.607-.05v9.707c.05 1.421-1.078 2.598-2.303 3.137-2.059.93-4.707.93-6.765.147-1.079-.49-2.207-1.568-2.451-2.744h4.46c.147.244.441.538.736.636a1.514 1.514 0 0 0 1.666-.734c.196-.442.196-.932.098-1.47-1.274 1.078-3.382 1.274-4.852.44-1.765-.98-2.304-2.893-2.157-4.853.049-1.618.93-3.236 2.5-3.922 1.324-.638 3.334-.442 4.363.736zm-.686 2.5c-.441-.246-1.079-.099-1.422.293-.392.343-.49.882-.343 1.373.146.49.49.834 1.128.932.392.048.686-.05 1.029-.294.54-.49.49-.98.392-1.57-.147-.343-.44-.637-.784-.735zm31.47-2.697c.049-.49 0-.638.049-.931h4.658c.049 3.039.049 6.52.049 9.852H94.46c0-.539-.048-.49-.048-1.127-.882 1.029-2.108 1.667-3.578 1.42-1.324-.195-2.599-1.274-3.039-2.596-.736-2.06-.736-5.05.93-6.668 1.03-1.128 2.795-1.52 4.217-.93.538.196.93.49 1.47.98zm-1.274 2.648c-.391 0-.784.196-1.078.539-.246.442-.344 1.03-.148 1.47.196.345.54.54.881.686.54.098 1.079 0 1.422-.44.343-.392.392-1.079.196-1.52-.244-.49-.734-.687-1.273-.735zM30.54.049c1.764 0 3.676.44 4.51 2.157.44 1.029.391 2.353-.295 3.235-.392.686-1.078.882-1.617 1.324 1.029.343 2.157.833 2.647 1.96.588 1.324.196 3.04-.784 4.118-1.03.93-2.353 1.275-3.774 1.275h-7.844V.048h7.157zm-2.06 3.285v1.96c.785-.098 1.864.295 2.256-.588.05-.245.147-.392 0-.784-.392-.883-1.47-.49-2.255-.588zm0 5.244v2.256c.834-.098 2.06.342 2.305-.736.098-.343.098-.784-.098-1.03-.441-.735-1.422-.44-2.206-.49z" fill="#212121"/></svg>