<svg width="140" height="37" viewBox="0 0 140 37" fill="none" xmlns="http://www.w3.org/2000/svg"><path d="M18.39 4.484c.878-1.49 1.69-3.017 2.606-4.484 2.262 3.988 4.575 7.948 6.849 11.93.18.2-.012.423-.104.613a2853.267 2853.267 0 0 0-6.394 11.094c-.092.196-.28.366-.287.593.195.11.424.066.639.078 4.419-.012 8.839.004 13.258-.005 2.324 4.055 4.68 8.091 6.987 12.156-4.657 0-9.313.004-13.97-.002-2.208-3.9-4.481-7.762-6.69-11.662-.1-.153-.172-.345-.345-.428-.878 1.432-1.676 2.913-2.526 4.361-1.476 2.58-2.982 5.141-4.443 7.73H0c2.318-4.06 4.656-8.107 6.99-12.157 4.662.01 9.324-.008 13.987.008a1869.906 1869.906 0 0 0-6.79-11.799c-.07-.163-.26-.357-.11-.534 1.423-2.506 2.888-4.988 4.314-7.492zm31.95-3.346a272.1 272.1 0 0 1 3.25-.007c.749 2.214 1.643 4.376 2.333 6.613.752-2.233 1.643-4.412 2.457-6.619l3.137.01c.004 4.693-.006 9.386.007 14.079-.778-.052-1.824.43-2.418-.181-.045-3.399-.171-6.817.11-10.209-1.23 2.622-2.182 5.36-3.299 8.03-1.03-2.663-2.163-5.285-3.108-7.981-.033 3.483.006 6.968-.02 10.454-.784-.11-1.74.22-2.414-.281-.09-4.635-.004-9.273-.036-13.908zm17.633-.013c2.799.006 5.597-.01 8.396 0v2.084c-.965.003-1.927.003-2.89.003-.035 4.03.004 8.06-.022 12.092-.858 0-1.714.004-2.572.01-.049-4.004-.01-8.007-.02-12.008-.955-.006-1.91-.01-2.866-.006-.013-.725-.02-1.45-.026-2.175zm9.374 1.942C78.612.532 82.569.03 84.38 2.235c.833.828 1.004 2.032 1.153 3.146-.82.01-1.643.01-2.463.003-.165-.534-.178-1.14-.526-1.596-.436-.34-.966-.517-1.46-.747-.732.408-1.762.835-1.704 1.854.32 1.136 1.52 1.596 2.444 2.14 1.572.815 3.415 1.812 3.831 3.7.475 2.029-1.046 4.103-2.995 4.598-1.647.298-3.567.224-4.83-1.022-1.061-.923-1.213-2.396-1.416-3.697h2.489c.274.813.358 1.923 1.287 2.276.836.463 1.782.084 2.628-.15.177-.766.536-1.656-.084-2.326-1.3-1.415-3.412-1.68-4.732-3.091-1.127-1.068-1.304-2.894-.655-4.256zm9.838-1.933c.83-.003 1.663-.006 2.495-.006.03 3.415-.045 6.836.023 10.25.068 1.674 2.444 2.272 3.544 1.182.652-.525.597-1.425.614-2.172-.013-3.088-.01-6.172-.007-9.26.833 0 1.669.003 2.505.01.003 3.181-.01 6.363.01 9.541.006.88-.036 1.8-.472 2.586-1.588 3.023-6.727 2.949-8.247-.103-.497-.949-.468-2.056-.484-3.091.023-2.978-.003-5.959.02-8.937zm11.534-.006c1.988.029 3.979-.088 5.965.048 2.117.256 3.628 2.651 2.901 4.68-.28.99-1.242 1.496-2.101 1.9 1.478.525 2.721 1.926 2.634 3.56a3.635 3.635 0 0 1-1.372 3.127c-.845.706-1.998.751-3.04.835-1.66.049-3.319.016-4.975.03-.022-4.73-.003-9.455-.012-14.18zm2.611 2.2c-.007 3.26-.003 6.52 0 9.778.978-.029 1.985.094 2.947-.148 1.443-.37 1.769-2.586.591-3.438-.743-.615-1.76-.56-2.66-.67.003-.686.006-1.372.013-2.055.597-.084 1.213-.084 1.788-.281.949-.292 1.391-1.57.817-2.386-.717-1.23-2.341-.67-3.496-.8zm8.347-2.207c.888 0 1.775.003 2.666.007-.026 4.732.026 9.467-.029 14.199a329.35 329.35 0 0 0-2.627-.01c-.02-4.732-.004-9.464-.01-14.196zm5.404 1.609c1.391-2.026 4.586-2.524 6.436-.841 1.049.85 1.385 2.223 1.488 3.511-.784.013-1.569.017-2.353.03-.265-.82-.449-2.014-1.517-2.098-1.201-.356-2.644.77-2.043 2.055 1.526 1.878 4.396 2.156 5.655 4.344 1.223 2.007-.023 4.787-2.176 5.505-1.833.518-4.106.398-5.465-1.107-.926-.915-1.036-2.268-1.078-3.492.794-.003 1.592 0 2.386 0 .242 1.003.542 2.33 1.791 2.46 1.282.44 2.896-.67 2.366-2.097-.968-1.848-3.347-2.03-4.793-3.37-1.472-1.113-1.766-3.414-.697-4.9zm9.496-1.599l2.602-.02c0 1.865.003 3.726-.004 5.59 1.772.036 3.545.036 5.317.004-.007-1.865-.004-3.726-.004-5.59.811.003 1.621.007 2.431.007-.01 4.728.029 9.46-.019 14.189-.801-.003-1.598-.003-2.395 0-.046-2.123.029-4.243-.055-6.363-.191 2.123-.075 4.256-.168 6.386a99.79 99.79 0 0 1 .077-6.357c-1.649.026-3.302-.062-4.948.029-.31.385-.203.913-.242 1.369 0 1.648.029 3.292-.013 4.94-.859-.007-1.714-.01-2.573-.014-.009-4.722 0-9.448-.006-14.17zm12.782-.016c.878.003 1.759.006 2.641.006-.007 4.732.009 9.467-.01 14.2-.875-.004-1.746 0-2.618.002-.032-4.735-.01-9.473-.013-14.208zm-73.443.016c.926-.01 1.85-.01 2.776-.006-.004 4.731.006 9.463-.007 14.198-.846 0-1.694.03-2.537-.032-.297-.379-.203-.893-.242-1.337.02-4.275.007-8.55.01-12.823zm17.069 19.605c1.823-.246 3.78.56 4.825 2.1 1.327 1.926 1.524 4.402 1.282 6.67-.226 1.823-.93 3.74-2.473 4.846-2.32 1.67-6.068.98-7.408-1.634-1.407-2.577-1.407-5.768-.436-8.493.633-1.823 2.273-3.28 4.21-3.49zm-.03 2.482c-1.168.356-1.755 1.563-2.004 2.674-.442 1.9-.387 4.032.584 5.764.546 1.02 1.805 1.463 2.896 1.155 1.375-.644 2.03-2.217 2.06-3.667.067-1.692.112-3.563-.905-5.01-.565-.838-1.668-1.243-2.63-.916zm19.378-2.505c1.652-.162 3.415.492 4.457 1.815 1.288 1.567 1.637 3.677 1.64 5.652-.058 2.071-.584 4.288-2.108 5.783-1.533 1.476-3.996 1.638-5.855.735-1.834-.961-2.796-3.033-3.028-5.017-.161-2.01-.123-4.14.785-5.984.768-1.593 2.32-2.826 4.109-2.984zm-.062 2.473c-1.33.394-1.962 1.825-2.182 3.09-.197 1.609-.252 3.324.397 4.842.39.926 1.224 1.806 2.298 1.774 1.301.126 2.286-1.03 2.628-2.172.6-1.97.562-4.198-.291-6.084-.439-1.101-1.701-1.774-2.85-1.45zm18.357-.091c1.162-2.537 4.913-3.224 6.892-1.262 1 .822 1.275 2.133 1.381 3.36-.826.006-1.649.006-2.472-.004-.201-.699-.226-1.608-.991-1.948-.82-.324-1.944-.204-2.437.611-.268.59-.236 1.418.332 1.823 1.708 1.42 4.167 1.942 5.355 3.958 1.152 2.04-.152 4.764-2.327 5.412-1.889.488-4.261.352-5.539-1.324-.807-.87-.83-2.097-.93-3.21a80.71 80.71 0 0 1 2.508.057c.178.632.158 1.399.697 1.865 1.114 1.074 3.719.492 3.406-1.366-.575-1.838-2.776-2.1-4.161-3.114-1.678-.903-2.563-3.094-1.714-4.858zm-55.419-2.172c1.078-.003 2.153-.003 3.23-.013.837 2.207 1.673 4.415 2.376 6.668.746-2.25 1.598-4.464 2.47-6.665 1.046.007 2.091.007 3.137.01.004 4.713.01 9.428 0 14.14H71.95c-.03-3.446.032-6.893-.039-10.337-.933 2.696-2.085 5.311-3.109 7.975-1.036-2.68-2.159-5.324-3.089-8.043-.022 3.467 0 6.936-.012 10.406h-2.486c-.016-4.713-.01-9.428-.006-14.14zm23.896 0c2.792-.003 5.587.003 8.379-.003v2.162c-.971 0-1.94.003-2.911.013.01 3.99.012 7.981 0 11.972-.862-.003-1.724-.003-2.583-.003-.016-3.994-.003-7.988-.006-11.982h-2.876c-.004-.719-.004-1.44-.004-2.159z" fill="#212121"/><path d="M107.999 35.067c-.023-4.716-.013-9.435-.004-14.15 2.241.165 4.597-.386 6.747.404 2.895 1.055 3.324 5.816.51 7.205l-.585.36c1.156 2.074 2.425 4.084 3.567 6.168-1.01.007-2.024.01-3.034.02-1.272-2.493-2.56-4.978-3.764-7.503.759-.178 1.666-.058 2.299-.599 1.084-.844 1.094-2.86-.175-3.534-.913-.482-1.988-.34-2.982-.405-.023 4.01.003 8.017-.013 12.028-.856 0-1.711.003-2.566.006z" fill="#212121"/></svg>