<svg width="158" height="40" viewBox="0 0 158 40" fill="none" xmlns="http://www.w3.org/2000/svg">
<path fill-rule="evenodd" clip-rule="evenodd" d="M32.0923 30.1914C37.4899 24.7968 41.9062 20.2106 41.9062 20C41.9062 19.7894 37.4899 15.2033 32.0923 9.80864L22.2784 0V4.72087V9.44137L27.5628 14.7156L32.8476 19.9902L27.5628 25.2844L22.2784 30.5783V35.289V40L32.0923 30.1914ZM20.0136 9.42438V4.99264C20.0136 2.55502 19.8849 0.560903 19.7279 0.560903C19.5705 0.560903 15.0674 4.93791 9.72107 10.2873L0 20.0136L2.37006 22.3625L4.74013 24.7114L12.3769 17.0679L20.0136 9.42438ZM157.031 4.71295C157.031 3.48319 156.793 2.90718 155.928 2.04167C153.58 -0.305743 149.482 1.27015 149.482 4.52006C149.482 6.28921 149.99 7.20832 151.362 7.91757C154.149 9.3587 157.031 7.72959 157.031 4.71295ZM152.167 7.31439C150.153 6.18541 149.895 3.55415 151.667 2.20775C153.911 0.503152 157.018 3.14234 155.912 5.81286C155.278 7.3427 153.493 8.05798 152.167 7.31439ZM154.778 4.31661C154.967 4.01012 154.935 3.59454 154.698 3.31031C154.477 3.04382 153.723 2.82565 153.022 2.82565H151.747V4.71295C151.747 6.13898 151.885 6.60024 152.313 6.60024C152.627 6.60024 152.879 6.26468 152.879 5.84532C152.879 5.43012 153.065 5.0904 153.292 5.0904C153.519 5.0904 153.794 5.43012 153.902 5.84532C154.011 6.26053 154.33 6.60024 154.612 6.60024C154.994 6.60024 155.039 6.37414 154.79 5.71963C154.604 5.22855 154.598 4.60763 154.778 4.31661ZM153.445 4.33549C153.134 4.33549 152.879 4.16563 152.879 3.95803C152.879 3.75043 153.134 3.58057 153.445 3.58057C153.757 3.58057 154.011 3.75043 154.011 3.95803C154.011 4.16563 153.757 4.33549 153.445 4.33549ZM148.53 15.3312C147.345 12.6905 145.326 10.6647 142.74 9.52063C140.611 8.57888 136.686 8.32258 134.382 8.97483C126.121 11.3136 123.378 22.0168 129.477 28.1154C131.816 30.4549 134.065 31.3238 137.781 31.3238C140.528 31.3238 141.297 31.1724 143.134 30.2707C147.031 28.3566 149.128 25.0965 149.401 20.5258C149.552 17.9893 149.451 17.3835 148.53 15.3312ZM68.7057 12.6396V10.7523V8.86499H60.4017H52.0976V20V31.135H54.1736H56.2496V26.2281V21.3211H61.534H66.8185V19.4338V17.5465H61.534H56.2496V15.0931V12.6396H62.4777H68.7057ZM91.7307 12.6396V10.7523V8.86499H81.7281H71.7254V10.7523V12.6396H75.6887H79.652V21.8873V31.135H81.7281H83.8041V21.8873V12.6396H87.7674H91.7307ZM108.525 19.8113C108.455 19.8113 106.649 17.3484 104.513 14.3381L100.628 8.86499H98.8213H97.0151V20V31.135H99.0828H101.151L101.253 23.946L101.356 16.7569L104.888 21.8692C108.406 26.9611 108.423 26.9781 109.066 26.133C109.421 25.666 111.059 23.3484 112.706 20.9822L115.699 16.6799L115.802 23.9075L115.904 31.135H117.972H120.04V20V8.86499H118.184H116.329L112.491 14.3381C110.38 17.3484 108.596 19.8113 108.525 19.8113ZM131.044 17.5084C131.954 14.8262 133.644 13.299 136.46 12.6162C140.872 11.5457 144.952 15.0927 144.952 20C144.952 24.4442 142.136 27.4144 137.921 27.4144C134.997 27.4144 132.883 26.1133 131.589 23.5172C130.528 21.3883 130.359 19.5271 131.044 17.5084ZM20.0136 22.6547V18.2131C20.0136 15.7706 19.8845 13.7719 19.7264 13.7719C19.5682 13.7719 16.5553 16.6595 13.0302 20.1891L6.62176 26.6059L8.97559 28.9597L11.3298 31.314L15.6717 26.9841L20.0136 22.6547ZM16.5134 36.4995C18.215 38.2011 19.7033 39.498 19.8203 39.381C19.937 39.264 19.986 36.4225 19.9287 33.0665L19.8249 26.9649L16.6221 30.185L13.4194 33.4054L16.5134 36.4995Z" fill="black"/>
</svg>
