<svg width="111" height="40" viewBox="0 0 111 40" fill="none" xmlns="http://www.w3.org/2000/svg">
<g clip-path="url(#clip0_15_15)">
<path d="M76.4881 11.164C76.4881 4.54887 76.4896 0.138794 70.0146 0.138794H63.5396V39.831H67.586V22.0519H67.8563L73.2521 39.831H77.3901L72.0208 21.8785C76.4378 21.0731 76.4881 16.9903 76.4881 11.164ZM67.586 4.27286H71.9027C72.2009 4.27286 72.4431 4.5187 72.4431 4.82336V17.3658C72.4431 17.6705 72.2024 17.9179 71.9027 17.9179H67.586V4.27286Z" fill="black"/>
<path d="M89.1709 23.0157H88.9006L84.3138 0.137207H80.2673V39.8309H84.3138V17.503H84.5839L89.1709 39.8309H93.2173V0.137207H89.1709V23.0157Z" fill="black"/>
<path d="M103.74 0C97.2654 0 97.2654 4.54883 97.2654 11.1639V28.8058C97.2654 35.4208 97.2654 39.9697 103.74 39.9697C110.215 39.9697 110.215 35.4208 110.215 28.8058V11.1639C110.215 4.54883 110.215 0 103.74 0ZM106.169 35.282C106.169 35.5867 105.927 35.8341 105.628 35.8341H101.851C101.552 35.8341 101.31 35.5867 101.31 35.282V4.68608C101.31 4.38142 101.552 4.13407 101.851 4.13407H105.628C105.927 4.13407 106.169 4.38142 106.169 4.68608V35.282Z" fill="black"/>
<path d="M12.95 13.369V11.1639C12.95 4.54883 12.4111 0 6.475 0C0 0 0 4.54883 0 11.1639C0 17.7791 0 22.0519 6.475 22.0519H8.36317C8.66139 22.0519 8.9035 22.2992 8.9035 22.6024V35.282C8.9035 35.5867 8.66139 35.8341 8.36317 35.8341H4.58683C4.28861 35.8341 4.04651 35.5867 4.04651 35.282V26.5992H0V28.8042C0 35.4193 0 39.9682 6.475 39.9682C12.95 39.9682 12.95 35.4193 12.95 28.8042C12.95 22.1891 12.95 17.9162 6.475 17.9162H4.58683C4.28861 17.9162 4.04651 17.669 4.04651 17.3643V4.68608C4.04651 4.38142 4.28861 4.13407 4.58683 4.13407H8.36465C8.66286 4.13407 8.90497 4.38142 8.90497 4.68608V13.369H12.95Z" fill="black"/>
<path d="M55.1749 28.2537C55.1749 28.5584 54.9328 28.8042 54.6346 28.8042H50.8583C50.56 28.8042 50.318 28.5568 50.318 28.2537V0.137207H46.2715V20.6733C46.2715 28.3909 46.2715 32.9397 52.7465 32.9397C59.2215 32.9397 59.2215 28.3909 59.2215 20.6733V0.137207H55.1749V28.2537Z" fill="black"/>
<path d="M16.5935 39.8309H27.3852V35.6953H20.64V22.0518H26.306V17.9162H20.64V4.27278H27.3852V0.137207H16.5935V39.8309Z" fill="black"/>
<path d="M43.7986 0.137207H39.6621L34.535 17.9162H34.2647V0.137207H30.2183V39.8309H34.2647V22.0518H34.535L39.9308 39.8309H44.0688L38.1327 19.9841L43.7986 0.137207Z" fill="black"/>
<path d="M59.2215 35.6953H46.2715V39.8294H59.2215V35.6953Z" fill="black"/>
</g>
<defs>
<clipPath id="clip0_15_15">
<rect width="110.227" height="40" fill="white"/>
</clipPath>
</defs>
</svg>
