<svg width="192" height="40" viewBox="0 0 192 40" fill="none" xmlns="http://www.w3.org/2000/svg">
<path fill-rule="evenodd" clip-rule="evenodd" d="M6.06966 0.219128C3.31451 0.945992 0.958899 3.24438 0.26203 5.88566C-0.385333 8.33985 0.189664 11.123 1.73425 13.0119C3.37042 15.0127 5.46933 16.0095 8.02951 16.0018C9.51047 15.9973 10.237 15.8289 11.6027 15.1739C15.5933 13.2599 17.1864 8.17473 15.0563 4.15034C14.4778 3.05757 13.1142 1.66747 12.0092 1.04428C10.2775 0.0675528 7.8973 -0.263118 6.06966 0.219128ZM33.4435 7.35206C31.3774 7.72525 29.3835 8.52186 27.6123 9.6819C26.2845 10.5515 24.0978 12.6938 23.2538 13.9516C22.3447 15.3065 21.4306 17.3553 20.9647 19.0822C20.5809 20.5051 20.5574 20.7635 20.5583 23.5768C20.5592 26.3906 20.582 26.6419 20.958 27.9615C22.0534 31.8077 23.9381 34.6607 26.8441 36.8713C30.5525 39.6922 35.798 40.7029 40.5054 39.5035C41.8524 39.1603 44.0227 38.1865 45.3104 37.3477C48.7599 35.1004 51.2823 31.4348 52.0067 27.6167C52.3931 25.5791 52.4823 25.7824 50.2129 23.5337L48.1992 21.5383H40.0961H31.993L31.9118 21.8659C31.8671 22.0461 31.8494 23.0125 31.8726 24.0136L31.9147 25.8336L39.8138 25.8714L47.7129 25.9089V26.3868C47.7129 27.1284 47.3168 28.4941 46.7587 29.6773C45.0198 33.3644 41.0709 35.662 36.4737 35.662C32.4789 35.662 29.2681 34.0898 27.1745 31.1085C24.5472 27.3675 24.2728 21.4735 26.5197 17.0395C27.3068 15.486 29.0251 13.7108 30.6042 12.8197C34.1895 10.7964 39.3132 10.899 42.7623 13.0632C43.8462 13.7433 44.9277 14.6827 45.456 15.4029C45.6962 15.7304 45.9317 15.9999 45.979 16.0018C46.153 16.0088 49.0276 13.1601 49.0255 12.9829C49.0219 12.678 46.7681 10.5439 45.7149 9.84789C43.7524 8.55112 41.8239 7.75233 39.6682 7.34347C38.2383 7.07221 34.9679 7.07672 33.4435 7.35206ZM141.046 7.3525C138.237 7.9224 135.763 9.75208 134.645 12.0869C133.337 14.8186 133.554 18.0672 135.218 20.6416C136.215 22.1829 137.835 23.4984 139.819 24.3764C140.734 24.7812 143.636 25.6563 144.613 25.8218C146.4 26.1246 148.253 27.0489 148.977 27.9984C149.473 28.6494 149.782 29.665 149.782 30.645C149.782 32.5235 148.729 34.0631 146.843 34.9417C145.82 35.4183 145.71 35.4376 144.031 35.4406C142.36 35.4435 142.241 35.4231 141.287 34.9714C139.953 34.3398 139.287 33.7874 138.578 32.7256C137.978 31.8272 137.65 30.9103 137.481 29.6558C137.429 29.2666 137.313 28.9661 137.215 28.9685C137.12 28.9709 136.125 29.3229 135.004 29.7507L132.965 30.5287L133.004 31.166C133.026 31.5166 133.179 32.2294 133.345 32.7499C134.436 36.181 138.028 39.0973 141.948 39.7335C147.634 40.656 152.806 37.6195 154.09 32.6043C154.418 31.3227 154.309 28.6753 153.877 27.4592C153.211 25.5847 152.118 24.1928 150.478 23.1309C149.248 22.3347 148.063 21.9093 145.031 21.1753C141.066 20.2153 139.527 19.3725 138.76 17.7388C137.475 15.0061 139.015 12.1782 142.135 11.542C145.175 10.922 148.013 12.5382 148.638 15.2455L148.813 16.0053H151.118H153.423V15.3576C153.423 14.4302 152.791 12.5585 152.138 11.5529C150.94 9.70621 148.852 8.20808 146.577 7.56173C145.119 7.14748 142.538 7.04993 141.046 7.3525ZM178.831 7.33138C175.894 7.91279 173.516 9.56818 172.332 11.8555C171.657 13.1593 171.421 14.1682 171.429 15.714C171.443 18.2327 172.175 20.1553 173.764 21.8397C175.523 23.7039 177.917 24.863 181.743 25.7033C184.383 26.2831 185.713 26.9325 186.576 28.0645C187.192 28.8714 187.396 29.6693 187.315 30.9451C187.128 33.8976 184.606 35.6961 180.965 35.4751C179.945 35.4132 179.581 35.3168 178.708 34.8771C177.524 34.2811 177.107 33.9427 176.373 32.981C175.643 32.0247 175.249 31.0709 175.166 30.0562C175.127 29.5757 175.071 29.1067 175.043 29.0138C175.01 28.904 174.239 29.1278 172.834 29.6554C171.648 30.1009 170.647 30.4904 170.611 30.5208C170.489 30.6235 170.61 31.6526 170.839 32.4587C171.746 35.648 174.586 38.3103 178.321 39.4718C179.259 39.7634 179.711 39.8106 181.525 39.8057C183.979 39.7988 184.867 39.6081 186.766 38.6807C189.114 37.5341 190.998 35.2165 191.642 32.6829C191.901 31.664 191.931 29.4498 191.7 28.3525C191.479 27.2961 190.708 25.6725 190.067 24.912C188.475 23.0211 186.547 22.053 182.617 21.17C179.608 20.4941 178.418 20.009 177.347 19.0221C176.348 18.1008 175.953 17.1994 175.953 15.8378C175.953 14.8347 176.006 14.6201 176.456 13.7958C177.142 12.5388 178.109 11.8669 179.704 11.5401C181.603 11.1509 183.33 11.566 184.704 12.7421C185.449 13.3801 186.036 14.3519 186.25 15.3039C186.339 15.6976 186.458 16.0165 186.516 16.0124C186.574 16.0085 187.645 16.0053 188.896 16.0053H191.172L191.075 15.2408C190.606 11.5615 187.977 8.64853 184.143 7.56261C182.732 7.16277 180.232 7.054 178.831 7.33138ZM56.5168 8.03233C56.4783 8.13294 56.4639 15.1607 56.4845 23.6496L56.522 39.0838H65.9136H75.3052V36.9725V34.8612L68.132 34.8235L60.9589 34.7856L60.9974 30.1641L61.0358 25.5424L67.9885 25.5046L74.9412 25.4669V23.3583V21.2498L67.9885 21.2121L61.0358 21.1743L60.9974 16.6982L60.9588 12.2223L68.132 12.1844L75.3052 12.1467V10.0354V7.92414L65.9458 7.88672C58.5356 7.85702 56.572 7.88731 56.5168 8.03233ZM80.911 23.504V39.1566H83.0951H85.2792V27.479C85.2792 20.5865 85.3326 15.8581 85.4098 15.9397C85.4815 16.0159 87.0352 18.7317 88.8622 21.9751C90.6894 25.2185 93.6074 30.3947 95.3466 33.4779L98.5089 39.0838L100.994 39.1237L103.48 39.1634V23.5037V7.84377L101.259 7.88396L99.0389 7.92414V19.245C99.0389 25.6746 98.9837 30.5475 98.9111 30.5233C98.8409 30.4999 95.9378 25.5365 92.46 19.4935C88.9821 13.4508 86.0404 8.35907 85.9229 8.17895C85.7157 7.8611 85.6378 7.85134 83.3101 7.85134H80.911V23.504ZM110.323 23.5029V39.1566H119.715H129.106V36.9725V34.7884H121.97H114.833L114.871 30.1654L114.91 25.5424L121.79 25.5046L128.67 25.4667V23.3583V21.25L121.79 21.2121L114.91 21.1743L114.871 16.6969L114.833 12.2195H121.974H129.114L129.074 10.0718L129.034 7.92414L119.679 7.88672L110.323 7.84916V23.5029ZM159.684 10.0324V12.2195H160.048H160.412V23.504V34.7884H160.048H159.684V36.9725V39.1566H162.669H165.653V36.9725V34.7884H165.289H164.925V23.504V12.2195H165.293H165.661L165.621 10.0718L165.581 7.92414L162.632 7.88469L159.684 7.84537V10.0324Z" fill="black"/>
</svg>
