<svg width="161" height="40" viewBox="0 0 161 40" fill="none" xmlns="http://www.w3.org/2000/svg">
<path fill-rule="evenodd" clip-rule="evenodd" d="M136.083 0.121102C132.331 0.706238 129.243 2.49473 126.669 5.57472C125.221 7.30625 123.924 9.99787 123.458 12.2375C123.047 14.2089 123.028 17.131 123.415 18.9801C124.517 24.2547 127.953 28.4792 132.721 30.4224C134.962 31.3359 136.91 31.5941 139.801 31.3605C141.524 31.2212 142.939 30.8105 144.695 29.9402C146.224 29.1817 147.135 28.5397 148.336 27.3722C149.946 25.8084 150.696 24.8022 151.586 23.013C152.681 20.8122 153.086 19.3211 153.192 17.1062C153.288 15.093 153.18 13.1368 152.913 12.063C152.48 10.3199 151.65 8.33982 150.794 7.00358C148.653 3.66312 145.266 1.22392 141.57 0.362342C140.009 -0.00143319 137.559 -0.10914 136.083 0.121102ZM107.369 0.489277C106.241 0.666724 104.919 1.16599 104.227 1.6756C103.371 2.30555 102.567 3.43329 102.186 4.537C101.976 5.14536 101.876 6.47059 101.855 8.93025C101.846 9.99909 101.823 11.121 101.805 11.4235L101.771 11.9734H99.8637H97.956V13.4807V14.9879H99.8573H101.759L101.813 19.6453C101.842 22.2068 101.867 26.8263 101.867 29.9108V35.519H103.944H106.022V25.2535V14.9879H108.629H111.236V13.4807V11.9734H108.629H106.022L106.023 9.71255C106.026 6.15334 106.125 5.6566 106.967 5.01419C107.648 4.49366 107.95 4.4372 110.045 4.4372H111.91L111.87 2.70126C111.848 1.74648 111.794 0.929962 111.751 0.886781C111.462 0.597472 108.43 0.322339 107.369 0.489277ZM136.33 0.712267C136.33 0.7473 135.917 1.02113 135.413 1.32095C134.909 1.62077 134.396 1.93061 134.272 2.00964L134.048 2.15319L133.712 1.8172C133.527 1.63242 133.398 1.44568 133.425 1.40218C133.48 1.31231 134.141 1.11303 135.27 0.845638C136.125 0.64326 136.33 0.617514 136.33 0.712267ZM141.651 0.984793C142.666 1.23198 142.929 1.3326 142.929 1.47412C142.929 1.66827 142.585 2.03375 142.402 2.03375C142.227 2.03375 139.996 0.777282 139.996 0.678537C139.996 0.614337 140.556 0.71797 141.651 0.984793ZM137.016 1.32087C136.855 1.61441 135.721 3.25584 135.68 3.25584C135.549 3.25584 134.7 2.65881 134.7 2.56658C134.7 2.45317 135.38 1.99017 136.248 1.51233C136.789 1.21479 137.12 1.1321 137.016 1.32087ZM140.1 1.47387C140.692 1.77157 141.663 2.38637 141.742 2.51322C141.792 2.59428 141.123 3.07725 140.797 3.19629C140.691 3.23458 140.519 3.03041 140.043 2.30473C139.703 1.78714 139.426 1.33105 139.426 1.29129C139.426 1.169 139.573 1.20892 140.1 1.47387ZM138.875 1.64676C139.268 2.12696 139.996 3.25429 139.996 3.38302C139.996 3.44144 139.932 3.50914 139.853 3.5335C139.502 3.64251 138.569 3.80994 138.512 3.77442C138.423 3.71983 138.431 1.3005 138.52 1.3005C138.559 1.3005 138.719 1.45636 138.875 1.64676ZM137.878 2.56333V3.74468L137.654 3.74338C137.393 3.74191 136.508 3.54328 136.435 3.46971C136.407 3.44209 136.424 3.33683 136.471 3.2358C136.626 2.90624 137.718 1.38197 137.799 1.38197C137.846 1.38197 137.878 1.85631 137.878 2.56333ZM47.443 3.94836V6.3518H49.9279H52.4128V3.94836V1.54492H49.9279H47.443V3.94836ZM133.14 2.04695L133.482 2.46751L133.297 2.66818C133.195 2.77849 132.794 3.15482 132.406 3.50433C132.018 3.85385 131.722 4.16092 131.748 4.18667C131.773 4.21241 131.935 4.23351 132.106 4.23351C132.377 4.23351 132.52 4.14781 133.193 3.58173C133.619 3.22325 133.985 2.92995 134.006 2.92995C134.103 2.92995 135.352 3.77026 135.352 3.83593C135.352 3.87715 135.187 4.23938 134.985 4.64088C134.784 5.04237 134.619 5.42456 134.619 5.49007C134.619 5.55565 134.699 5.6658 134.798 5.73481C134.974 5.85783 134.986 5.84341 135.463 4.96538C135.792 4.35988 135.994 4.07057 136.09 4.07057C136.241 4.07057 137.501 4.29625 137.735 4.36526C137.863 4.40322 137.878 4.54116 137.878 5.73848V7.06958L137.572 7.03935C137.404 7.02281 136.998 6.99153 136.671 6.96994L136.075 6.93067L136.239 7.19122C136.422 7.47938 136.599 7.5532 137.144 7.56689C137.346 7.57194 137.594 7.59825 137.694 7.62522L137.878 7.67435V9.98687V12.2993H138.153C138.395 12.2993 138.433 12.2695 138.478 12.0447C138.506 11.9047 138.529 11.6663 138.529 11.5151C138.529 11.291 138.561 11.2402 138.699 11.2402C139.141 11.2402 140.88 11.0585 141.103 10.989C141.241 10.9458 141.459 10.8013 141.586 10.668C141.866 10.3762 142.005 10.3843 140.014 10.5764C139.195 10.6554 138.508 10.7027 138.487 10.6814C138.465 10.6602 138.448 9.9722 138.448 9.15275V7.66278L138.713 7.62253C139.505 7.50212 140.989 7.30381 141.363 7.26829C141.691 7.23717 141.829 7.25941 141.942 7.36141C142.023 7.43514 142.248 8.00391 142.441 8.62522L142.791 9.755L143.034 9.68534C143.168 9.64705 143.287 9.60541 143.298 9.59287C143.31 9.58024 143.141 8.98516 142.923 8.2704C142.705 7.55564 142.535 6.96472 142.545 6.95731C142.554 6.94981 142.929 6.78817 143.377 6.59801C143.825 6.40794 144.365 6.16474 144.576 6.05769C145.22 5.73139 145.303 5.76544 145.847 6.57585C146.315 7.27318 147.084 8.56476 147.084 8.65259C147.084 8.67687 146.928 8.75965 146.738 8.83647C146.547 8.9133 146.3 9.01408 146.188 9.06044L145.984 9.14477L146.188 9.20669C146.3 9.24074 146.596 9.27219 146.846 9.27667C147.224 9.28343 147.333 9.32026 147.498 9.49624C147.752 9.7682 148.319 10.0738 148.194 9.87126C148.172 9.83541 148.08 9.61991 147.991 9.39252L147.828 8.97913L149.097 8.22087L150.366 7.4626L150.53 7.66082C150.763 7.94223 151.586 9.68591 151.875 10.5098C153.673 15.6404 152.743 21.2243 149.393 25.4164C148.715 26.2645 147.729 27.298 147.34 27.5677C146.917 27.8603 146.798 27.8185 146.111 27.1393C145.376 26.412 145.11 25.861 145.063 24.9649C145.03 24.3333 145.039 24.286 145.21 24.1943C145.311 24.1405 145.772 24.0636 146.235 24.0235C147.222 23.9378 147.795 23.746 148.591 23.2346C149.317 22.7688 150.537 21.5269 150.936 20.8478C151.745 19.4709 152.019 17.2381 151.596 15.4767C151.43 14.784 150.858 13.5993 150.389 12.975C149.462 11.7425 147.901 10.6438 146.589 10.3001C146.186 10.1946 145.841 10.1721 145.088 10.2023C143.542 10.2641 143.033 10.5244 141.382 12.098C140.809 12.6443 140.238 13.1135 140.046 13.1971C139.687 13.3532 139.102 13.4789 138.346 13.5628C137.744 13.6293 137.68 13.7374 137.855 14.3902C138.011 14.9712 137.966 15.1372 137.635 15.2034C137.401 15.2502 137.389 15.2724 137.389 15.6552C137.389 16.1627 137.291 16.3456 136.984 16.4131C136.764 16.4613 136.736 16.5054 136.687 16.8702C136.655 17.1136 136.535 17.4235 136.384 17.6508C136.065 18.1327 135.996 18.8106 136.228 19.1808C136.311 19.3137 136.758 19.7536 137.22 20.1585C138.365 21.1616 138.513 21.383 138.658 22.3085C138.722 22.7184 138.833 23.3929 138.906 23.8073C139.136 25.1139 139.14 25.4545 138.931 25.7925C138.703 26.1606 138.292 26.3485 137.434 26.4764C136.606 26.5999 135.652 26.8951 133.878 27.5766C132.297 28.1836 131.768 28.296 130.68 28.2551L129.933 28.2272L129.416 27.8291C129.132 27.6101 128.751 27.2901 128.57 27.118C128.242 26.8054 128.241 26.8039 128.286 26.3097C128.312 26.0189 128.42 25.6321 128.547 25.3724L128.763 24.9303L129.186 25.1479C129.918 25.5252 130.96 25.5028 133.437 25.0566C134.011 24.9531 134.159 24.954 134.692 25.0643C135.381 25.2067 135.728 25.1735 136.127 24.9272C136.698 24.5737 137.211 22.9691 136.863 22.6213C136.753 22.5106 136.638 22.4936 136.283 22.5353C135.846 22.5866 135.841 22.5846 135.841 22.3724C135.841 22.1716 135.816 22.1575 135.47 22.1575C135.171 22.1575 135.005 22.2211 134.619 22.4834C134.064 22.8602 133.919 22.8746 132.582 22.6849C131.508 22.5327 131.28 22.4571 130.995 22.1592C130.79 21.9456 130.759 21.8382 130.701 21.1462C130.617 20.156 130.504 19.3159 130.256 17.8284C130.006 16.3349 130.004 16.1241 130.24 15.9043C130.525 15.6379 130.776 15.6182 131.585 15.7984C132.855 16.0813 133.234 16.0212 133.706 15.4626C133.809 15.3407 133.963 15.2186 134.05 15.191C134.222 15.1364 134.619 14.4193 134.619 14.1627C134.619 14.0695 134.722 13.9446 134.865 13.8638L135.111 13.7251L135.089 13.0326C135.067 12.3426 135.068 12.3381 135.414 11.7904C135.994 10.8731 136.108 10.5052 136.117 9.52924C136.124 8.71484 136.111 8.64925 135.858 8.16245C135.312 7.11357 133.865 5.87568 132.543 5.32557C132.007 5.10258 131.908 5.08898 130.828 5.08898H129.682L129.043 5.40477C128.189 5.82647 127.485 6.52681 127.096 7.34104C126.593 8.39514 126.52 9.33957 126.806 11.1111C126.993 12.2701 126.981 12.7193 126.754 13.0658C126.673 13.1902 126.273 13.5138 125.866 13.7849C125.46 14.0559 124.805 14.5155 124.411 14.8062C124.017 15.0969 123.672 15.3113 123.643 15.2826C123.554 15.1932 123.782 13.282 123.998 12.3057C124.271 11.0777 124.582 10.2039 125.206 8.91542C126.518 6.20613 128.354 4.16149 130.886 2.58915C131.474 2.22424 132.613 1.63796 132.751 1.62932C132.776 1.62769 132.951 1.81565 133.14 2.04695ZM144.552 2.04337C145.382 2.48715 146.641 3.31735 146.875 3.57603C147.011 3.72635 146.994 3.74965 146.381 4.23694C145.391 5.02364 145.458 5.02046 144.807 4.3101C144.501 3.97671 143.954 3.44738 143.59 3.13372C143.226 2.82013 142.929 2.5344 142.929 2.4988C142.929 2.4258 143.661 1.62639 143.728 1.62639C143.751 1.62639 144.122 1.81402 144.552 2.04337ZM142.904 3.32444C143.454 3.78338 144.803 5.12572 144.803 5.2142C144.803 5.34374 142.64 6.3518 142.361 6.3518C142.27 6.3518 141.055 3.95667 141.055 3.7771C141.055 3.72529 141.16 3.63942 141.289 3.5863C141.417 3.53309 141.701 3.36567 141.92 3.21421C142.139 3.06283 142.343 2.93688 142.375 2.93443C142.406 2.93199 142.644 3.10748 142.904 3.32444ZM121.035 4.82851C120.621 5.28549 120.157 5.82427 120.003 6.02591C119.604 6.54701 119.162 7.46896 119.019 8.0743C118.891 8.61902 118.852 9.98825 118.96 10.1588C119.032 10.271 119.911 9.28751 120.313 8.64566C120.812 7.8509 121.287 6.60445 121.578 5.3334C121.729 4.67176 121.847 3.98551 121.808 3.99341C121.796 3.99586 121.448 4.37161 121.035 4.82851ZM141.075 5.21119C141.378 5.81612 141.625 6.37225 141.625 6.44713C141.625 6.60119 140.987 6.77131 139.874 6.91356C138.773 7.05434 138.493 7.05573 138.47 6.92048C138.458 6.85416 138.476 6.2511 138.51 5.58042L138.57 4.36094L139.303 4.22472C140.539 3.99521 140.44 3.93997 141.075 5.21119ZM148.472 5.02787C148.946 5.50954 149.507 6.13207 149.719 6.4112L150.105 6.91877L149.552 7.27073C148.282 8.07829 147.624 8.41754 147.556 8.29867C147.52 8.2361 147.192 7.68999 146.827 7.08506C146.462 6.48012 146.086 5.84863 145.992 5.68177L145.821 5.37829L145.989 5.26023C146.081 5.19538 146.448 4.9222 146.804 4.65318C147.16 4.38424 147.487 4.16149 147.531 4.15815C147.575 4.15481 147.998 4.54612 148.472 5.02787ZM154.663 4.25388C154.664 4.30994 154.737 4.68569 154.826 5.08898C155.265 7.0796 156.07 8.79867 157.047 9.83191C157.538 10.3502 157.579 10.3173 157.588 9.40703C157.595 8.62065 157.46 7.86002 157.221 7.33534C156.896 6.62205 156.166 5.58832 155.462 4.8444C154.821 4.16728 154.659 4.04792 154.663 4.25388ZM122.499 7.8918C121.247 8.75443 120.524 9.50944 120.004 10.4985C119.536 11.3899 119.241 12.7237 119.365 13.3864L119.424 13.6994L119.943 13.1827C120.602 12.5254 121.614 11.003 122.231 9.73829C122.688 8.80152 123.169 7.5844 123.107 7.52224C123.091 7.50627 122.817 7.67256 122.499 7.8918ZM153.52 7.56966C153.52 7.61218 153.613 7.93979 153.726 8.29761C154.164 9.68395 155.528 12.0454 156.523 13.1375C156.908 13.5607 157.038 13.66 157.076 13.5602C157.16 13.3417 157.047 11.8818 156.905 11.3624C156.6 10.2408 155.648 8.99787 154.347 8.02101C153.642 7.49169 153.52 7.42545 153.52 7.56966ZM158.711 8.3689C158.298 9.40271 158.048 11.089 157.955 13.484C157.915 14.5062 157.929 15.2122 158.001 15.8017L158.105 16.6495L158.298 16.4094C158.572 16.0679 159.099 15.034 159.293 14.4534C159.785 12.988 159.656 10.6743 158.954 8.39668L158.844 8.03812L158.711 8.3689ZM117.525 8.36369C117.382 8.72755 117.202 9.42968 117.048 10.2218C116.835 11.3154 116.857 13.2639 117.091 14.1324C117.401 15.2792 118.179 16.7103 118.338 16.4262C118.575 16.0039 118.609 13.1138 118.399 11.3624C118.255 10.1657 117.847 8.38112 117.677 8.20074C117.642 8.16465 117.574 8.23798 117.525 8.36369ZM33.3736 11.4462C31.3797 11.9835 29.689 13.1739 28.6631 14.7628C28.4393 15.1095 28.2331 15.3936 28.205 15.3942C28.1769 15.3948 28.127 14.607 28.0941 13.6436L28.0345 11.8919H26.0066H23.9789V23.7462V35.6005H26.091H28.2033L28.2396 28.2476C28.277 20.6477 28.2994 20.1111 28.6296 18.8996C28.8906 17.9419 29.2167 17.3476 29.8579 16.6609C30.8205 15.6302 31.8937 14.9703 32.9816 14.7401C33.6572 14.597 35.1385 14.6166 35.8239 14.7775C36.6046 14.9609 37.4566 15.4305 38.0078 15.9815C38.5489 16.5223 39.0539 17.4859 39.2575 18.366C39.4639 19.2579 39.5337 21.9298 39.537 29.0623L39.5401 35.6005H41.6225H43.7049L43.6722 26.6181C43.6369 16.9621 43.6546 17.374 43.2218 16.1282C42.3751 13.6909 40.163 11.9455 37.2847 11.4435C36.3722 11.2844 33.9681 11.286 33.3736 11.4462ZM64.0777 11.4091C62.0905 11.6671 60.1521 12.6234 58.7258 14.0498C56.3043 16.4714 55.113 20.5596 55.4232 25.3832C55.5746 27.7366 55.9349 29.3077 56.6988 30.946C57.9859 33.7062 60.0467 35.3278 63.0776 35.9654C63.7812 36.1134 66.3206 36.1355 67.2961 36.0021C68.0106 35.9045 69.1391 35.5518 69.7858 35.2241C72.3565 33.9214 74.1376 31.2898 74.4524 28.329L74.5109 27.7791H72.395H70.2789L70.2321 28.3381C70.1703 29.0751 69.7375 30.3613 69.3489 30.9624C68.4888 32.2931 67.1587 32.9934 65.4911 32.9934C63.9819 32.9934 62.9916 32.5991 62.0266 31.614C61.6905 31.271 61.2902 30.7784 61.1371 30.5194C59.3754 27.5384 59.2814 20.7346 60.9541 17.2691C61.3817 16.3832 62.4209 15.3395 63.2543 14.9589C64.0809 14.5814 64.6191 14.4655 65.5299 14.4688C66.7942 14.4735 67.8736 14.8925 68.6696 15.6875C69.3701 16.3871 70.0924 18.1273 70.0924 19.1153V19.4689H72.2147H74.337L74.2863 18.9597C73.9329 15.4092 71.9256 12.7723 68.7848 11.7326C67.6751 11.3652 65.5443 11.2188 64.0777 11.4091ZM85.2072 11.4125C83.1259 11.7156 81.4878 12.5347 80.0288 14.0021C78.1832 15.8582 77.2051 17.9995 76.7317 21.2206C76.5765 22.276 76.5532 25.2677 76.6908 26.4755C77.0303 29.4583 78.0078 31.822 79.5839 33.4717C80.8278 34.7737 82.3774 35.5934 84.3277 35.981C85.3923 36.1925 87.8876 36.1703 89.1812 35.9377C92.2207 35.3912 94.3672 33.8988 95.6192 31.4618C96.0493 30.6245 96.4732 29.3437 96.5438 28.6681L96.5942 28.1865H94.3978H92.2014L92.0939 28.7364C91.659 30.961 90.5369 32.2747 88.6274 32.7942C87.8658 33.0014 86.2152 33.044 85.4599 32.876C82.6359 32.2477 80.9282 29.4451 80.9282 25.4389V24.6017L87.5071 24.6014C91.1255 24.6013 94.7234 24.577 95.5025 24.5474L96.9189 24.4937L96.8631 22.6535C96.7637 19.3631 96.5005 18.0088 95.6167 16.238C94.3042 13.6082 92.0699 12.0198 88.9249 11.4803C87.9358 11.3106 86.1325 11.2777 85.2072 11.4125ZM0.0513278 20.3855C0.0825318 25.5461 0.136793 29.1665 0.189668 29.6117C0.350658 30.9689 1.09108 32.7194 1.93856 33.747C3.10199 35.1574 4.65861 36.0072 6.38917 36.1764C7.46102 36.2813 9.49107 36.1501 10.2915 35.9243C12.1034 35.413 13.6797 34.3161 14.8251 32.7693C15.0656 32.4445 15.2988 32.1786 15.3433 32.1786C15.3943 32.1786 15.4242 32.8114 15.4242 33.8896V35.6005H17.5018H19.5793V23.7462V11.8919H17.4203H15.2613L15.2611 18.3894C15.2609 25.1054 15.212 26.5126 14.9321 27.8588C14.5593 29.6511 14.1206 30.5687 13.1934 31.4952C12.6654 32.0227 12.3922 32.2229 11.8394 32.4878C10.6709 33.0477 9.23875 33.2201 7.97666 32.9527C6.20944 32.5783 5.24578 31.5484 4.59343 29.3369L4.34396 28.4912V25.0934C4.34396 23.2245 4.3196 19.4897 4.28986 16.7937L4.23576 11.8919H2.11788H0L0.0513278 20.3855ZM47.8503 23.7055V35.519H49.9686H52.0869V23.7055V11.8919H49.9686H47.8503V23.7055ZM121.154 12.9715C120.465 13.746 120.025 14.4048 119.622 15.2656C119.223 16.1175 119.06 16.8386 119.06 17.758C119.06 18.4577 119.236 19.5172 119.375 19.6564C119.481 19.7619 119.821 19.2011 120.305 18.1246C120.832 16.9516 121.288 15.5525 121.487 14.4946C121.655 13.6095 121.79 12.3808 121.72 12.3808C121.697 12.3808 121.443 12.6465 121.154 12.9715ZM154.746 12.7212C154.733 14.2656 155.655 17.3808 156.64 19.1226C156.824 19.4476 157.003 19.7133 157.038 19.7133C157.072 19.7133 157.165 19.5025 157.243 19.2448C157.438 18.6015 157.437 17.0216 157.241 16.2915C156.947 15.1977 156.182 13.9199 155.118 12.7474L154.749 12.34L154.746 12.7212ZM88.2393 14.6262C88.9644 14.8098 89.9931 15.3525 90.5106 15.8245C91.6961 16.9057 92.3264 18.5229 92.4419 20.7797L92.4777 21.4794L88.8079 21.5333C86.7895 21.5629 84.2092 21.5872 83.0739 21.5872H81.0097V21.0276C81.0097 19.8249 81.4076 18.3312 82.0188 17.2392C82.4234 16.5163 83.2972 15.5998 83.9542 15.2092C84.5004 14.8845 85.3002 14.606 86.0052 14.4949C86.5467 14.4097 87.6366 14.4737 88.2393 14.6262ZM116.043 15.1179C116.044 16.2267 116.199 17.8698 116.366 18.5222C116.568 19.3105 117.072 20.3934 117.541 21.0449C118.111 21.8367 119.227 22.8328 119.34 22.6502C119.471 22.4378 118.93 20.2342 118.428 18.9393C117.824 17.3816 116.575 14.9556 116.205 14.6206C116.044 14.4752 116.043 14.4799 116.043 15.1179ZM160.186 14.7251C159.752 15.2406 158.465 17.8139 157.966 19.1657C157.438 20.5916 157.028 22.3594 157.166 22.6064C157.269 22.7901 158.473 21.7004 158.984 20.9615C159.801 19.7788 160.218 18.488 160.359 16.7029C160.507 14.8318 160.468 14.39 160.186 14.7251ZM154.571 17.4413C154.49 17.7582 154.459 18.4577 154.461 19.9577C154.463 22.2465 154.582 23.3534 154.955 24.5345C155.137 25.1105 155.175 25.1711 155.291 25.0757C155.478 24.9223 156.011 23.7526 156.156 23.1759C156.354 22.3903 156.39 21.8389 156.293 21.0729C156.143 19.8796 155.643 18.5148 154.961 17.4413L154.683 17.0024L154.571 17.4413ZM121.593 17.3147C121.302 17.6825 120.645 19.1024 120.402 19.8887C120.196 20.5548 120.185 20.6673 120.213 21.9255C120.241 23.2049 120.252 23.2799 120.494 23.8304C120.633 24.1455 120.857 24.582 120.993 24.8002L121.24 25.1971L121.376 24.935C121.556 24.5856 121.794 23.4631 121.922 22.3612C122.069 21.0841 122.056 17.9067 121.901 17.4369L121.782 17.075L121.593 17.3147ZM116.641 21.8892C116.784 22.7856 117.497 24.4703 118.15 25.4571C119.007 26.7527 120.245 27.9325 121.356 28.5143C122.117 28.9127 122.642 29.1079 122.642 28.9922C122.642 28.9464 122.512 28.6281 122.354 28.2849C121.821 27.1318 120.45 25.2318 119.008 23.6474C118.397 22.9768 117.138 21.8624 116.765 21.6628C116.596 21.5722 116.591 21.5805 116.641 21.8892ZM159.652 21.6972C159.286 21.8951 157.987 23.1059 157.211 23.9726C155.644 25.7233 154.399 27.4942 153.974 28.5801L153.785 29.0621L153.958 29.0199C154.811 28.8115 156.316 27.8384 157.107 26.983C158.231 25.7668 159.071 24.3284 159.584 22.7375C159.921 21.6941 159.93 21.5469 159.652 21.6972ZM122.815 22.2529C122.77 22.3716 122.676 22.7454 122.606 23.0836C122.46 23.7938 122.433 26.1315 122.566 26.72C122.611 26.9216 122.818 27.4324 123.027 27.855C123.334 28.4787 123.529 28.7472 124.063 29.2808C124.425 29.6423 124.84 30.0044 124.985 30.0854L125.249 30.2325V29.5802C125.249 27.7987 123.926 23.3767 123.053 22.2399L122.897 22.0372L122.815 22.2529ZM153.365 22.3103C152.435 23.6163 150.969 28.7451 151.19 29.9213C151.243 30.2037 151.259 30.2182 151.426 30.1298C151.753 29.9566 152.786 28.8965 153.158 28.352C153.896 27.2716 154.176 25.9281 154.015 24.2375C153.929 23.3287 153.751 22.4274 153.606 22.1687C153.56 22.0857 153.499 22.1213 153.365 22.3103ZM125.695 27.669C125.788 28.4092 126.209 29.8022 126.562 30.5345C127.166 31.7864 128.324 32.7158 129.527 32.9125C130.081 33.003 131.003 33.0101 131.218 32.9253C131.678 32.7431 129.353 30.1331 126.939 28.1226C126.225 27.5284 125.79 27.2088 125.696 27.2088C125.664 27.2088 125.664 27.4159 125.695 27.669ZM150.335 27.4659C149.709 27.9148 148.143 29.3296 146.991 30.4861C145.835 31.6475 145.185 32.4938 145.227 32.7841C145.248 32.9353 145.315 32.9551 145.876 32.9763C147.659 33.0439 149.129 32.153 149.925 30.5216C150.38 29.589 150.981 27.2088 150.761 27.2088C150.724 27.2088 150.532 27.3245 150.335 27.4659ZM119.546 28.7848C119.546 29.0298 120.889 30.9201 121.499 31.5329C122.202 32.24 123.11 32.8322 123.965 33.1416C124.507 33.3377 124.664 33.356 125.82 33.3579C127.496 33.3606 127.514 33.3513 126.954 32.7808C125.823 31.6279 122.951 29.8637 120.891 29.0559C119.959 28.6907 119.546 28.6075 119.546 28.7848ZM156.229 28.8014C155.363 29.0345 152.607 30.4711 151.163 31.4417C150.258 32.0505 149.448 32.7388 149.265 33.0538L149.125 33.297L149.551 33.3482C150.268 33.4344 151.414 33.4039 151.982 33.2836C153.719 32.9153 155.347 31.4772 156.853 28.9808L157.037 28.6753L156.847 28.6807C156.743 28.6836 156.464 28.738 156.229 28.8014ZM129.427 33.7324C128.303 33.8188 125.502 34.3916 125.099 34.6176C124.869 34.7463 127.129 35.5012 128.418 35.7259C129.986 35.9995 132.092 35.9554 133.054 35.629C133.475 35.486 133.993 35.1538 134.479 34.7142L134.794 34.4298L135.284 34.5311C135.861 34.6503 137.14 35.0751 137.249 35.1835C137.295 35.2298 137.043 35.4483 136.596 35.7486C136.196 36.0179 135.594 36.4584 135.26 36.7274C134.635 37.23 132.582 39.2972 132.582 39.4236C132.582 39.5496 133.153 40 133.313 40C133.409 40 133.781 39.6471 134.279 39.0834C135.135 38.1159 136.357 36.9911 137.282 36.3189C138.256 35.6108 138.164 35.6208 138.927 36.1427C139.853 36.7768 140.762 37.5904 141.993 38.8871C142.574 39.4992 143.106 40 143.175 40C143.245 40 143.424 39.8976 143.574 39.7724C143.801 39.5835 143.836 39.5112 143.784 39.3456C143.749 39.236 143.185 38.6128 142.53 37.9607C141.668 37.1019 141.042 36.5646 140.257 36.0122C139.63 35.5703 139.204 35.2189 139.246 35.1772C139.356 35.0672 140.971 34.5392 141.34 34.4928C141.639 34.4551 141.71 34.4877 142.202 34.8884C143.119 35.6353 143.635 35.8116 145.145 35.8939C146.151 35.9489 147.503 35.8462 148.515 35.6382C149.182 35.501 150.95 34.9384 151.314 34.7477C151.518 34.6411 151.515 34.6386 151.09 34.5123C149.336 33.9913 147.598 33.7341 145.41 33.6716C142.813 33.5975 141.282 33.8024 139.14 34.5106L138.243 34.8072L137.225 34.4762C136.096 34.1089 134.953 33.8567 133.845 33.7302C133.014 33.6354 130.674 33.6365 129.427 33.7324Z" fill="black"/>
</svg>
