<svg width="91" height="40" viewBox="0 0 91 40" fill="none" xmlns="http://www.w3.org/2000/svg">
<path fill-rule="evenodd" clip-rule="evenodd" d="M56.2682 0.117636C56.1401 0.174529 55.949 0.299255 55.8434 0.394835C55.4047 0.791859 55.4068 0.769015 55.4068 5.07168V9.10171L28.1484 9.1242L0.890153 9.14661L0.648403 9.32709C0.515449 9.42635 0.325514 9.61628 0.226258 9.74923C0.0458643 9.99072 0.0457768 10.0011 0.0228446 24.406L0 38.8209L0.197899 39.2136C0.342845 39.501 0.500481 39.6589 0.786433 39.8031L1.17698 40H29.052H56.9271L57.3015 39.8187C57.5213 39.7123 57.7586 39.5045 57.8761 39.3154C58.0763 38.9936 58.0764 38.9909 58.0994 34.9672L58.1225 30.9409L74.0011 30.8972C89.8682 30.8534 89.88 30.8532 90.1215 30.6729C90.2544 30.5737 90.4444 30.3837 90.5436 30.2508C90.724 30.0093 90.7241 29.9989 90.747 15.594L90.7699 1.17908L90.572 0.786432C90.427 0.498992 90.2694 0.341094 89.9834 0.196937L89.5929 0L73.0469 0.00708916C60.522 0.0125159 56.4444 0.0393868 56.2682 0.117636ZM71.3193 9.20788C71.3889 9.27746 71.4243 9.65523 71.4243 10.3282C71.4243 11.0012 71.3889 11.379 71.3193 11.4486C71.2539 11.514 70.9303 11.5536 70.4615 11.5536C70.0475 11.5536 69.6713 11.591 69.6256 11.6367C69.575 11.6874 69.5518 13.2071 69.5662 15.5316L69.5898 19.3435H70.4896C71.0726 19.3435 71.4263 19.3805 71.4944 19.4486C71.5639 19.5182 71.5994 19.8959 71.5994 20.5689C71.5994 21.2419 71.5639 21.6197 71.4944 21.6893C71.4165 21.7671 70.5673 21.7943 68.2151 21.7943C65.1666 21.7943 65.0374 21.7876 64.9504 21.625C64.9006 21.5319 64.8598 21.0457 64.8598 20.5445C64.8598 19.3686 64.869 19.3591 66.0446 19.3251L66.9167 19.2998V15.4486V11.5974L66.0852 11.5732C65.431 11.5543 65.2303 11.5181 65.1442 11.4033C64.9723 11.1743 64.9952 9.41759 65.1723 9.24035C65.292 9.12079 65.695 9.10284 68.2621 9.10284C70.4415 9.10284 71.2417 9.13033 71.3193 9.20788ZM76.4324 9.22188C76.4979 9.28735 77.121 10.9213 77.8172 12.853C78.5133 14.7847 79.1125 16.3657 79.1486 16.3664C79.1848 16.3671 79.2143 14.8092 79.2143 12.9045C79.2143 10.6847 79.2468 9.38066 79.3049 9.27212C79.387 9.11869 79.4973 9.10284 80.4815 9.10284C81.5046 9.10284 81.5755 9.11413 81.7038 9.29742C81.8239 9.4688 81.8401 10.1961 81.8401 15.4186C81.8401 19.0576 81.8072 21.4319 81.7547 21.5698L81.6694 21.7943H80.3212C79.349 21.7943 78.9481 21.7638 78.8833 21.6849C78.834 21.6248 78.2404 20.1386 77.5644 18.3823C76.8883 16.626 76.2937 15.1752 76.243 15.1583C76.1795 15.1372 76.1508 16.1343 76.1508 18.356C76.1508 20.7501 76.1237 21.6114 76.0458 21.6893C75.9006 21.8345 73.8628 21.8345 73.7175 21.6893C73.5656 21.5373 73.5656 9.35983 73.7175 9.20788C73.8753 9.05015 76.273 9.06249 76.4324 9.22188ZM55.4068 24.4464C55.4068 34.1532 55.3825 37.1009 55.3018 37.1816C55.2206 37.2628 49.2796 37.2867 29.0945 37.2867C14.7383 37.2867 2.92998 37.2628 2.85383 37.2335C2.72849 37.1854 2.71536 35.9871 2.71536 24.5567C2.71536 17.6136 2.74162 11.9066 2.77374 11.8746C2.80578 11.8424 14.6614 11.8162 29.1195 11.8162H55.4068V24.4464ZM9.64753 18.3107C9.51982 18.4384 9.50319 20.371 9.62801 20.5689C9.69427 20.674 9.97427 20.7058 11.0271 20.7284L12.3434 20.7566V25.682C12.3434 30.3425 12.3519 30.6152 12.5035 30.7523C12.7316 30.9588 14.5391 30.9646 14.7442 30.7597C14.8659 30.6378 14.8817 30.0564 14.8817 25.6831V20.744H16.1446C17.1759 20.744 17.4326 20.7188 17.545 20.6065C17.6544 20.4971 17.6825 20.2589 17.6825 19.4424C17.6825 18.7606 17.6473 18.3805 17.5775 18.3107C17.4263 18.1596 9.79869 18.1596 9.64753 18.3107ZM19.616 18.3275C19.5415 18.4172 19.5214 19.7175 19.5396 23.2557L19.5644 28.0619L19.8929 28.7263C20.2326 29.4136 20.9783 30.216 21.5538 30.5136C23.8114 31.681 26.5941 30.8608 27.6411 28.7194L27.967 28.0525L27.9924 23.2517C28.0112 19.6989 27.9914 18.4191 27.9161 18.3283C27.782 18.1667 25.8243 18.1514 25.665 18.3107C25.5862 18.3896 25.5599 19.4968 25.5595 22.7527C25.5592 25.6309 25.5267 27.2061 25.4629 27.4357C25.3401 27.8782 24.9042 28.314 24.4618 28.4368C23.3808 28.737 22.2856 28.3048 22.0588 27.4886C22.0072 27.3027 21.9722 25.4118 21.9719 22.7965C21.9715 19.5065 21.9452 18.3896 21.8663 18.3107C21.7077 18.152 19.7495 18.1667 19.616 18.3275ZM30.2165 18.3107C30.1367 18.3905 30.1114 19.8992 30.1114 24.5659C30.1114 30.5567 30.1158 30.7183 30.2807 30.8066C30.3738 30.8564 30.8837 30.8972 31.4137 30.8972C32.3101 30.8972 32.3867 30.8836 32.5134 30.7026C32.6307 30.5352 32.6497 30.065 32.6497 27.3328C32.6497 25.4686 32.6828 24.1575 32.7299 24.1575C32.8106 24.1575 32.9099 24.4038 34.4428 28.4026C34.9498 29.7251 35.3535 30.6514 35.4634 30.744C35.7194 30.9598 37.9008 30.9727 38.114 30.7597C38.2363 30.6372 38.2515 29.9505 38.2515 24.519C38.2515 19.8888 38.2261 18.3904 38.1464 18.3107C38.0016 18.1659 36.0506 18.1659 35.9057 18.3107C35.8276 18.3889 35.8007 19.3055 35.8007 21.8942C35.8007 25.1026 35.7641 25.6778 35.5793 25.3787C35.5471 25.3267 34.9568 23.7253 34.2674 21.8201C33.5779 19.9148 32.9615 18.3228 32.8975 18.2822C32.709 18.1627 30.3393 18.1879 30.2165 18.3107ZM40.4572 18.3107C40.3052 18.4627 40.3052 30.6402 40.4572 30.7921C40.5352 30.8702 41.4403 30.8972 43.9884 30.8972C47.1966 30.8972 47.4239 30.887 47.5596 30.7371C47.676 30.6085 47.7042 30.3891 47.7031 29.6211C47.7023 29.0954 47.6644 28.6061 47.6188 28.5339C47.5498 28.4244 47.147 28.3954 45.1913 28.3589L42.8467 28.3151V27.0897V25.8643L45.0348 25.8206C46.2383 25.7965 47.2723 25.7449 47.3324 25.706C47.4923 25.6025 47.486 23.5154 47.3253 23.3821C47.249 23.3187 46.4576 23.2773 45.0277 23.262L42.8467 23.2385V22.0131V20.7877L45.0873 20.744C46.8067 20.7104 47.3614 20.6723 47.4724 20.5801C47.6796 20.4079 47.6853 18.5492 47.4794 18.3432C47.359 18.2229 46.9169 18.2057 43.952 18.2057C41.4322 18.2057 40.5352 18.2326 40.4572 18.3107Z" fill="black"/>
</svg>
