<svg width="136" height="40" viewBox="0 0 136 40" fill="none" xmlns="http://www.w3.org/2000/svg">
<path fill-rule="evenodd" clip-rule="evenodd" d="M54.0446 0.148794C50.9503 0.593084 49.115 2.34927 49.115 4.86586C49.115 6.20691 49.4154 6.89537 50.4082 7.82947C51.3329 8.69938 52.0983 9.06648 54.0775 9.5888C56.296 10.1741 57.5368 10.6257 57.9777 11.0083C58.4929 11.4551 58.4344 12.393 57.8487 13.0737C57.4225 13.5692 57.1598 13.6629 55.9879 13.7374C54.3219 13.8435 53.1512 13.3804 52.8118 12.4807C52.5909 11.896 52.5737 11.891 50.7472 11.891C48.9642 11.891 48.9052 11.9065 48.9052 12.3743C48.9052 12.6401 49.154 13.3567 49.458 13.9667C50.515 16.0876 52.6156 17.0375 55.9103 16.8839C59.6488 16.7096 61.8931 14.905 61.9063 12.062C61.9122 10.8006 61.6288 10.0692 60.7968 9.19779C59.8803 8.2381 58.6144 7.63355 56.1496 6.97844C54.9999 6.67302 53.7727 6.25642 53.4226 6.05273C51.9207 5.17925 52.9527 3.23155 54.9338 3.20093C56.2505 3.18079 57.2163 3.60935 57.5492 4.36158C57.8164 4.9655 57.828 4.96865 59.6808 4.96865H61.5438L61.4146 4.32256C60.8228 1.36356 57.7407 -0.38192 54.0446 0.148794ZM99.8859 0.256615C97.559 0.909205 95.6918 2.5519 94.5589 4.94285C93.9509 6.22579 93.9006 6.5008 93.9006 8.53471C93.9006 10.5674 93.9509 10.8426 94.553 12.1008C95.5072 14.0948 96.6805 15.3048 98.561 16.2343C100.051 16.9708 100.275 17.0209 102.082 17.0209C103.888 17.0209 104.112 16.971 105.604 16.233C106.611 15.7356 107.482 15.1189 107.969 14.5597C108.721 13.6954 109.732 11.8386 109.736 11.3141C109.737 11.1241 109.229 11.0519 107.885 11.0519H106.033L105.34 11.9132C104.493 12.968 103.61 13.3594 102.08 13.3594C99.4767 13.3594 97.5808 11.3263 97.5808 8.53471C97.5808 5.76912 99.5476 3.65004 102.115 3.65004C103.38 3.65004 104.857 4.39388 105.324 5.26589C105.604 5.78905 105.681 5.80772 107.571 5.80772C109.806 5.80772 109.803 5.81129 108.996 4.19166C108.322 2.83971 106.704 1.3172 105.219 0.637345C103.747 -0.0366414 101.502 -0.196905 99.8859 0.256615ZM1.64039 0.310316L0 0.371988L0.0671259 6.28872C0.131525 11.9858 0.152502 12.2464 0.629725 13.3021C1.26784 14.7134 2.57134 15.9049 4.13664 16.508C5.12611 16.8892 5.80409 16.9873 7.47594 16.9913C10.5138 16.9989 12.4225 16.212 13.7059 14.4227C14.8199 12.8696 14.9227 12.1547 14.9227 5.95771L14.9229 0.248854L13.1921 0.282417L11.4615 0.316189L11.3567 5.94617C11.2574 11.2705 11.227 11.6162 10.7943 12.3105C10.2088 13.2503 9.32296 13.7663 8.03351 13.9191C6.12252 14.1454 4.24341 13.0619 3.80415 11.4807C3.69046 11.0719 3.59711 8.40654 3.59648 5.55789C3.59585 2.70923 3.52453 0.349333 3.4379 0.313672C3.35147 0.278011 2.5424 0.276543 1.64039 0.310316ZM18.1565 0.336327C18.1085 0.384364 18.0693 4.0893 18.0693 8.56974V16.7157H19.847H21.6248L21.6825 13.3143L21.7402 9.91289L24.7819 13.308L27.8235 16.7029L30.0101 16.7094L32.197 16.7157L31.7755 16.2437C28.0534 12.0746 24.9813 8.46192 25.0321 8.31404C25.0676 8.21125 26.5833 6.38312 28.4004 4.25166C30.2174 2.1202 31.7042 0.347655 31.7042 0.312623C31.7042 0.277592 30.7368 0.265216 29.5541 0.285144L27.404 0.321434L24.5721 3.58627L21.7402 6.85111L21.6353 3.58271L21.5304 0.314092L19.8871 0.281578C18.9832 0.263537 18.2043 0.28829 18.1565 0.336327ZM34.7983 0.313882L34.0117 0.37912V1.8347V3.2905H37.7942C41.865 3.2905 42.6778 3.44845 43.3189 4.36388C43.8179 5.07605 43.7565 6.30299 43.189 6.96082C42.5245 7.73088 41.5377 7.89471 37.5253 7.90037L34.0117 7.90541V12.3105V16.7157H35.7947H37.5777V13.7789V10.8422H38.8254H40.0731L41.6756 13.7789L43.278 16.7157H45.2525C46.3385 16.7157 47.2271 16.6693 47.2271 16.6127C47.2271 16.5561 46.431 15.1695 45.4579 13.5312L43.6887 10.5527L44.4615 10.1986C45.4352 9.75242 46.4799 8.66141 46.9017 7.64991C47.3985 6.45905 47.32 4.44045 46.7285 3.18561C46.1296 1.91609 45.5479 1.35433 44.2255 0.769499C43.3369 0.376393 42.785 0.321224 39.4036 0.287241C37.3034 0.266055 35.2311 0.278221 34.7983 0.313882ZM64.6379 1.7573V3.26554L68.7137 3.33056C72.4669 3.39035 72.8363 3.4302 73.381 3.83506C74.5591 4.71063 74.501 6.58701 73.2697 7.42315C72.7928 7.74703 72.1409 7.8108 68.6759 7.87226L64.6379 7.944V12.3298V16.7157H66.3102H67.9824L68.0407 13.8314L68.0991 10.9471L71.1407 10.8325C74.4322 10.7085 74.892 10.59 76.0594 9.5651C78.1298 7.74703 78.422 4.37626 76.7042 2.12418C76.4151 1.74513 75.6663 1.18442 75.0401 0.878159C73.921 0.330454 73.822 0.320385 69.2696 0.284934L64.6379 0.248854V1.7573ZM80.0385 0.336327C79.9904 0.384364 79.951 4.0893 79.951 8.56974V16.7157H85.8245H91.698V15.2519V13.7879L87.66 13.7311L83.6219 13.674L83.5613 11.8386L83.5007 10.0031H87.4945H91.4883V8.42983V6.85656H87.5027H83.5171V5.07353V3.2905H87.6075H91.698V1.76968V0.248854H85.912C82.7296 0.248854 80.0865 0.28829 80.0385 0.336327ZM4.71623 23.0048C1.96134 23.5898 0.238926 25.3661 0.238926 27.622C0.238926 30.2277 1.87554 31.6418 6.06609 32.6564C8.32593 33.2035 9.3347 33.7848 9.42931 34.5949C9.58559 35.9338 8.40836 36.7387 6.49548 36.6005C5.1429 36.5025 4.29774 36.0253 3.8459 35.104C3.5818 34.5655 3.51048 34.546 1.80065 34.546C-0.216691 34.546 -0.22697 34.5586 0.36269 36.2892C1.32993 39.128 5.4716 40.5605 9.28939 39.377C11.8547 38.5815 13.1424 36.9361 12.9962 34.6402C12.8385 32.162 11.3143 30.8002 7.70396 29.9116C6.65554 29.6534 5.50034 29.319 5.13702 29.1682C3.6634 28.5569 3.41545 27.6555 4.44856 26.6665C5.01116 26.1278 5.24442 26.0512 6.30355 26.0571C7.69075 26.0649 8.55164 26.5058 8.75406 27.3117C8.88118 27.8185 8.93803 27.8334 10.75 27.8334C12.5458 27.8334 12.6151 27.8158 12.6107 27.3614C12.5974 26.0021 11.1328 24.1874 9.44861 23.4436C8.33809 22.9529 5.98659 22.735 4.71623 23.0048ZM35.5367 23.0201C32.4235 23.6345 30.5725 25.7808 30.9553 28.3325C31.2622 30.3792 32.867 31.6237 36.3737 32.5348C39.6687 33.391 40.5665 34.0442 40.1052 35.2502C39.7797 36.1012 39.0914 36.5088 37.8253 36.6003C36.257 36.7138 35.204 36.2816 34.6145 35.2825L34.1705 34.5299L32.4655 34.5905C30.7829 34.6501 30.7611 34.6578 30.8247 35.1753C31.0464 36.981 32.1212 38.4041 33.856 39.1882C34.7994 39.6147 35.2835 39.6851 37.2631 39.6843C39.31 39.6835 39.7008 39.6218 40.7243 39.1387C42.8226 38.148 43.7336 36.8528 43.7336 34.8607C43.7336 32.283 42.2438 30.9057 38.3986 29.9286C35.053 29.0784 34.1323 28.4151 34.6842 27.2526C35.478 25.5807 38.7371 25.6264 39.5089 27.3201C39.731 27.8076 39.8348 27.8334 41.5747 27.8334H43.4066L43.209 26.9419C42.552 23.981 39.2418 22.2888 35.5367 23.0201ZM100.712 23.0721C98.1455 23.6513 96.5303 25.2166 96.3583 27.291C96.1384 29.9403 97.9282 31.6462 101.892 32.5654C104.852 33.252 105.999 34.0837 105.562 35.2269C105.228 36.1012 104.55 36.508 103.273 36.6003C101.705 36.7138 100.652 36.2816 100.062 35.2825L99.6183 34.5299L97.9133 34.5905L96.2081 34.6509L96.2802 35.3796C96.4378 36.9712 97.5713 38.3806 99.3546 39.202C100.25 39.6149 100.74 39.6847 102.711 39.6814C105.315 39.677 106.52 39.2918 107.816 38.0489C108.821 37.0851 109.151 36.3255 109.148 34.9878C109.141 32.2757 107.71 30.9105 103.844 29.928C100.441 29.0631 99.4064 28.2712 100.166 27.1122C101.201 25.5331 104.202 25.6634 104.957 27.3201C105.178 27.8049 105.288 27.8334 106.94 27.8334H108.689V27.2704C108.689 26.4152 107.902 24.9699 107.056 24.273C105.62 23.0889 102.91 22.576 100.712 23.0721ZM14.3612 23.7876C14.6374 24.2246 16.0567 26.403 17.5153 28.6287L20.1669 32.6755V36.1279V39.5805H21.95H23.733V36.2202V32.8597L26.7398 28.1965C28.3936 25.6317 29.8153 23.4153 29.8987 23.271C30.016 23.0689 29.5944 23.0087 28.0624 23.0087H26.0738L24.1169 26.2532C23.0404 28.0377 22.0823 29.4751 21.9879 29.4474C21.8933 29.4197 20.942 27.9832 19.8741 26.2553L17.9323 23.1136L15.8956 23.0534L13.859 22.9934L14.3612 23.7876ZM45.3392 24.582V26.1553H47.7515H50.1639V32.8679V39.5805H51.9469H53.7299V32.8679V26.1553H56.1423H58.5546V24.582V23.0087H51.9469H45.3392V24.582ZM60.9577 23.2716C60.9023 23.4161 60.8816 27.1213 60.912 31.505L60.9669 39.4756L66.788 39.5314L72.6091 39.5872V38.0106V36.4339H68.5186H64.4281V34.546V32.6581H68.4137H72.3993V31.1943V29.7306L68.4662 29.6735L64.533 29.6165L64.4722 27.8859L64.4111 26.1553H68.5102H72.6091V24.582V23.0087H66.834C62.3994 23.0087 61.0353 23.0698 60.9577 23.2716ZM75.5459 31.2946V39.5805H77.3255H79.1052L79.161 33.9209L79.2168 28.2613L81.1863 32.7762L83.156 37.2908L84.5405 37.2296L85.925 37.1681L87.8408 32.8072C88.8945 30.4088 89.8158 28.3872 89.8882 28.3146C89.9607 28.2423 90.0199 30.7475 90.0199 33.8817V39.5805H91.8054H93.5908L93.536 31.347L93.4811 23.1136H90.9915H88.5022L86.6216 27.4139C85.5873 29.779 84.6712 31.7871 84.5858 31.8763C84.5002 31.9654 83.5462 30.0068 82.4655 27.5236L80.5006 23.0087H78.0232H75.5459V31.2946ZM118.339 37.273V40H127.149H135.959V37.273V34.546H127.149H118.339V37.273Z" fill="black"/>
</svg>
