<svg width="124" height="35" viewBox="0 0 124 35" fill="none" xmlns="http://www.w3.org/2000/svg">
<g clip-path="url(#clip0_17_56)">
<path d="M11.3888 0.0494385L15.0888 15.089L0.0493164 11.3889V23.6112L15.089 19.911L11.3888 34.9507H23.6111L19.9106 19.9108L34.9505 23.6112V11.3889L19.9108 15.0891L23.6111 0.0494385H11.3888Z" fill="#FFDF00" stroke="#806600" stroke-width="1.50501"/>
<path d="M15.9994 15.9997L12.2392 0.716064H22.7603L19.0001 15.9997L34.2837 12.2394V22.7606L19.0001 19.0003L22.7603 34.2839H12.2392L15.9994 19.0003L0.71582 22.7606V12.2394L15.9994 15.9997Z" fill="#D50663" stroke="#806600" stroke-width="1.50501"/>
<path d="M24.4752 17.5C24.4752 19.35 23.7403 21.1243 22.4321 22.4324C21.124 23.7405 19.3498 24.4754 17.4998 24.4754C15.6498 24.4754 13.8756 23.7405 12.5675 22.4324C11.2593 21.1243 10.5244 19.35 10.5244 17.5C10.5244 15.6501 11.2593 13.8758 12.5675 12.5677C13.8756 11.2596 15.6498 10.5247 17.4998 10.5247C19.3498 10.5247 21.124 11.2596 22.4321 12.5677C23.7403 13.8758 24.4752 15.6501 24.4752 17.5Z" fill="#FFDF00" stroke="#806600" stroke-width="1.50501"/>
<path d="M23.7556 17.5001C23.7556 19.1592 23.0965 20.7504 21.9233 21.9235C20.7501 23.0967 19.159 23.7558 17.4999 23.7558C15.8407 23.7558 14.2496 23.0967 13.0764 21.9235C11.9032 20.7504 11.2441 19.1592 11.2441 17.5001C11.2441 15.841 11.9032 14.2498 13.0764 13.0766C14.2496 11.9035 15.8407 11.2444 17.4999 11.2444C19.159 11.2444 20.7501 11.9035 21.9233 13.0766C23.0965 14.2498 23.7556 15.841 23.7556 17.5001Z" fill="#001788" stroke="#806600" stroke-width="1.50501"/>
<path d="M17.4998 12.2424C17.2548 12.5205 17.1055 12.8844 17.1055 13.2839C17.12 14.161 17.2276 15.0364 17.2369 15.9132C17.2564 16.7305 17.0113 17.498 16.7132 18.2468C16.6139 18.4537 16.5065 18.6562 16.399 18.8589L16.0827 18.7953C15.7981 18.7383 15.613 18.4616 15.6699 18.177C15.7197 17.9279 15.9389 17.7549 16.1833 17.7538L16.2984 17.7661L16.0416 15.6216C15.9577 14.6666 15.4651 13.8289 14.7395 13.2839C14.6148 13.1903 14.4827 13.1046 14.3452 13.0292V20.6461H16.1032C16.2347 21.3598 16.6274 21.9816 17.1794 22.4086C17.3107 22.4991 17.4207 22.6185 17.4998 22.7578C17.5789 22.6185 17.6889 22.4991 17.8202 22.4086C18.3722 21.9816 18.7649 21.3598 18.8964 20.6461H20.6544V13.0292C20.5169 13.1046 20.3848 13.1903 20.2601 13.2839C19.5345 13.8289 19.0419 14.6666 18.958 15.6216L18.7013 17.7661L18.8163 17.7538C19.0608 17.755 19.2799 17.9279 19.3297 18.177C19.3866 18.4616 19.2015 18.7383 18.9169 18.7953L18.6006 18.8589C18.4931 18.6562 18.3857 18.4537 18.2864 18.2468C17.9884 17.498 17.7432 16.7305 17.7627 15.9132C17.772 15.0364 17.8796 14.161 17.8941 13.2839C17.8941 12.8844 17.7448 12.5205 17.4998 12.2424V12.2424ZM14.871 14.1261C15.2112 14.5255 15.4396 15.0232 15.5077 15.5702L15.7192 17.3389C15.4498 17.473 15.2456 17.719 15.1688 18.0167H14.871V14.1261V14.1261ZM20.1286 14.1261V18.0167H19.8308C19.754 17.719 19.5498 17.473 19.2804 17.3389L19.492 15.5702C19.5601 15.0232 19.7884 14.5255 20.1286 14.1261V14.1261ZM17.4998 17.6819C17.641 18.1439 17.8353 18.5826 18.0769 18.9904C17.8472 19.0602 17.6472 19.196 17.4998 19.3786C17.3525 19.196 17.1525 19.0602 16.9227 18.9904C17.1643 18.5826 17.3586 18.1439 17.4998 17.6819ZM14.871 18.5426H15.1688C15.2627 18.9055 15.546 19.1923 15.9061 19.2924L16.1587 19.3499C16.0911 19.5951 16.054 19.8535 16.054 20.1202H14.871V18.5426V18.5426ZM19.8308 18.5426H20.1286V20.1202H18.9457C18.9457 19.8535 18.9086 19.5951 18.8409 19.3499L19.0935 19.2924C19.4537 19.1923 19.737 18.9055 19.8308 18.5426ZM16.6721 19.4711C16.9911 19.5162 17.2369 19.7888 17.2369 20.1202H16.5797C16.5797 19.8948 16.6131 19.6775 16.6721 19.4711ZM18.3275 19.4711C18.3865 19.6775 18.4199 19.8948 18.4199 20.1202H17.7627C17.7627 19.7888 18.0085 19.5162 18.3275 19.4711ZM16.6393 20.6461H17.2369V21.7533C16.9469 21.45 16.7362 21.0692 16.6393 20.6461ZM17.7627 20.6461H18.3603C18.2634 21.0692 18.0527 21.45 17.7627 21.7533V20.6461Z" fill="#FFDF00"/>
</g>
<path d="M43.4202 8.35307L41.7508 7.9647C42.1102 6.58125 43.1323 5.88953 44.8172 5.88953C45.8142 5.88953 46.5658 6.1098 47.072 6.55034C47.5821 6.98701 47.8372 7.50097 47.8372 8.09222C47.8372 8.49798 47.7213 8.8651 47.4894 9.19357C47.2575 9.51817 46.9097 9.80414 46.446 10.0515C47.0102 10.2447 47.4334 10.519 47.7155 10.8746C47.9976 11.2262 48.1386 11.661 48.1386 12.1788C48.1386 12.9246 47.8642 13.5275 47.3155 13.9873C46.7706 14.4472 45.9533 14.6771 44.8636 14.6771C43.9748 14.6771 43.2734 14.5303 42.7594 14.2366C42.2454 13.939 41.859 13.3845 41.6001 12.573L43.171 12.0571C43.3333 12.5672 43.5477 12.8976 43.8144 13.0483C44.0849 13.199 44.4172 13.2743 44.8114 13.2743C45.3524 13.2743 45.7466 13.1584 45.9939 12.9265C46.2412 12.6908 46.3649 12.4222 46.3649 12.1208C46.3649 11.773 46.2238 11.4929 45.9417 11.2803C45.6635 11.0678 45.2423 10.9615 44.6781 10.9615H44.2897V9.68048H44.4868C45.0123 9.68048 45.4142 9.56261 45.6925 9.32689C45.9707 9.09116 46.1098 8.77815 46.1098 8.38785C46.1098 8.0787 45.9958 7.81785 45.7678 7.60531C45.5437 7.39277 45.221 7.2865 44.7998 7.2865C44.081 7.2865 43.6212 7.64202 43.4202 8.35307Z" fill="black"/>
<path d="M49.2708 6.03444H55.6238V7.4604H50.9866V9.43123H53.282C53.9158 9.43123 54.4413 9.50851 54.8587 9.66309C55.276 9.81766 55.6315 10.1036 55.9252 10.521C56.2228 10.9383 56.3716 11.4272 56.3716 11.9875C56.3716 12.5633 56.2228 13.056 55.9252 13.4656C55.6277 13.8753 55.2876 14.1554 54.905 14.3061C54.5263 14.4568 53.9853 14.5322 53.282 14.5322H49.2708V6.03444ZM50.9866 13.1062H52.656C53.1893 13.1062 53.5641 13.0811 53.7805 13.0309C53.9969 12.9768 54.1843 12.857 54.3428 12.6715C54.5051 12.486 54.5862 12.258 54.5862 11.9875C54.5862 11.5933 54.4452 11.3074 54.1631 11.1296C53.8849 10.948 53.4076 10.8572 52.7313 10.8572H50.9866V13.1062Z" fill="black"/>
<path d="M57.353 14.5322V6.03444H60.1064C61.1498 6.03444 61.8299 6.07695 62.1468 6.16197C62.6337 6.28949 63.0414 6.56773 63.3699 6.99667C63.6983 7.42175 63.8626 7.97243 63.8626 8.64869C63.8626 9.17038 63.7679 9.60899 63.5785 9.96451C63.3892 10.32 63.1477 10.6002 62.854 10.805C62.5642 11.006 62.2685 11.1393 61.9671 11.205C61.5575 11.2861 60.9643 11.3267 60.1876 11.3267H59.0688V14.5322H57.353ZM59.0688 7.47199V9.88336H60.0079C60.6841 9.88336 61.1363 9.83892 61.3643 9.75004C61.5923 9.66116 61.77 9.52204 61.8975 9.33268C62.0289 9.14333 62.0946 8.92306 62.0946 8.67188C62.0946 8.36273 62.0038 8.10768 61.8222 7.90673C61.6406 7.70578 61.4106 7.58019 61.1324 7.52996C60.9276 7.49131 60.516 7.47199 59.8977 7.47199H59.0688Z" fill="black"/>
<path d="M64.3456 10.3355C64.3456 9.46987 64.475 8.74337 64.7339 8.15598C64.9271 7.72317 65.1899 7.3348 65.5223 6.99088C65.8585 6.64695 66.2256 6.3919 66.6236 6.22573C67.153 6.0016 67.7636 5.88953 68.4553 5.88953C69.7074 5.88953 70.7082 6.2779 71.4579 7.05464C72.2115 7.83138 72.5883 8.91147 72.5883 10.2949C72.5883 11.6668 72.2153 12.7411 71.4695 13.5178C70.7237 14.2907 69.7267 14.6771 68.4785 14.6771C67.2148 14.6771 66.2101 14.2926 65.4643 13.5236C64.7185 12.7507 64.3456 11.688 64.3456 10.3355ZM66.1135 10.2775C66.1135 11.2398 66.3357 11.9701 66.7801 12.4686C67.2245 12.9633 67.7887 13.2106 68.4727 13.2106C69.1567 13.2106 69.717 12.9652 70.1537 12.4744C70.5942 11.9798 70.8145 11.2398 70.8145 10.2543C70.8145 9.28051 70.6 8.55401 70.1711 8.07483C69.746 7.59565 69.1799 7.35606 68.4727 7.35606C67.7655 7.35606 67.1955 7.59951 66.7627 8.08642C66.3299 8.56947 66.1135 9.29984 66.1135 10.2775Z" fill="black"/>
<path d="M73.5407 6.03444H75.1464V11.6919L78.5895 6.03444H80.2995V14.5322H78.6939V8.98489L75.2565 14.5322H73.5407V6.03444ZM77.9461 3.9187H78.7403C78.6939 4.44426 78.5084 4.85774 78.1838 5.15916C77.863 5.45672 77.4457 5.6055 76.9317 5.6055C76.4178 5.6055 75.9985 5.45672 75.6739 5.15916C75.3531 4.85774 75.1696 4.44426 75.1232 3.9187H75.9173C75.9444 4.19307 76.041 4.40175 76.2072 4.54473C76.3733 4.68385 76.6148 4.75341 76.9317 4.75341C77.2486 4.75341 77.4901 4.68385 77.6563 4.54473C77.8225 4.40175 77.9191 4.19307 77.9461 3.9187Z" fill="black"/>
<path d="M81.6404 14.5322V6.03444H83.3562V9.37906H86.7182V6.03444H88.4339V14.5322H86.7182V10.8166H83.3562V14.5322H81.6404Z" fill="black"/>
<path d="M89.7458 14.5322V6.03444H91.4616V14.5322H89.7458Z" fill="black"/>
<path d="M47.6458 25.1213L49.3094 25.6488C49.0544 26.5762 48.6293 27.266 48.0342 27.7182C47.4429 28.1664 46.6913 28.3906 45.7793 28.3906C44.6509 28.3906 43.7235 28.0061 42.997 27.237C42.2705 26.4642 41.9072 25.4092 41.9072 24.0721C41.9072 22.6578 42.2724 21.5603 43.0028 20.7797C43.7331 19.9952 44.6934 19.603 45.8837 19.603C46.9232 19.603 47.7675 19.9102 48.4168 20.5246C48.8032 20.8879 49.093 21.4096 49.2862 22.0897L47.5879 22.4955C47.4874 22.0549 47.2768 21.7071 46.956 21.4521C46.6391 21.197 46.2527 21.0695 45.7967 21.0695C45.1668 21.0695 44.6548 21.2956 44.2606 21.7477C43.8703 22.1998 43.6752 22.9321 43.6752 23.9446C43.6752 25.0189 43.8684 25.784 44.2548 26.24C44.6413 26.696 45.1436 26.924 45.7619 26.924C46.2179 26.924 46.6102 26.7791 46.9386 26.4893C47.2671 26.1995 47.5028 25.7435 47.6458 25.1213Z" fill="black"/>
<path d="M50.3952 19.7479H52.0009V25.4053L55.444 19.7479H57.154V28.2456H55.5484V22.6983L52.111 28.2456H50.3952V19.7479Z" fill="black"/>
<path d="M59.0977 19.7479H65.0508V28.2456H63.335V21.1854H60.7787V24.8141C60.7787 25.8536 60.7439 26.5801 60.6744 26.9936C60.6048 27.4032 60.4348 27.724 60.1643 27.9558C59.8976 28.1838 59.4784 28.2978 58.9064 28.2978C58.7055 28.2978 58.3403 28.2785 57.8109 28.2398V26.9124L58.1935 26.9182C58.5528 26.9182 58.7944 26.8699 58.918 26.7733C59.0417 26.6767 59.1035 26.4391 59.1035 26.0603L59.0977 24.5996V19.7479Z" fill="black"/>
<path d="M66.4322 19.7479H68.0379V25.4053L71.481 19.7479H73.191V28.2456H71.5854V22.6983L68.148 28.2456H66.4322V19.7479Z" fill="black"/>
<path d="M76.5509 19.7479H78.4696L80.452 24.1591L82.1446 19.7479H83.9357L81.0664 26.2053C80.7534 26.9047 80.4346 27.438 80.11 27.8051C79.7854 28.1684 79.3661 28.35 78.8522 28.35C78.3459 28.35 77.9498 28.3171 77.6639 28.2514V26.9762C77.9073 26.9917 78.1276 26.9994 78.3247 26.9994C78.7227 26.9994 79.0067 26.9279 79.1768 26.7849C79.3507 26.6381 79.5168 26.3251 79.6753 25.8459L76.5509 19.7479Z" fill="black"/>
<path d="M84.4129 19.7479H86.1287V23.3649C86.5113 23.3263 86.7702 23.2278 86.9054 23.0693C87.0407 22.9109 87.2493 22.4703 87.5314 21.7477C87.887 20.828 88.2444 20.2561 88.6038 20.0319C88.9593 19.8078 89.5332 19.6957 90.3254 19.6957C90.364 19.6957 90.4471 19.6938 90.5746 19.6899V20.9594L90.3312 20.9536C89.9795 20.9536 89.7225 20.998 89.5602 21.0869C89.3979 21.1719 89.2666 21.3033 89.1661 21.4811C89.0656 21.6588 88.9168 22.024 88.7197 22.5766C88.6154 22.8703 88.5014 23.1157 88.3777 23.3128C88.258 23.5099 88.0435 23.6953 87.7343 23.8692C88.1169 23.9774 88.4318 24.1958 88.6792 24.5243C88.9304 24.8527 89.2047 25.3165 89.5023 25.9154L90.6616 28.2456H88.6444L87.63 26.0487C87.6145 26.0178 87.5817 25.9579 87.5314 25.8691C87.5121 25.8381 87.4406 25.7048 87.317 25.4691C87.0967 25.0517 86.9151 24.7909 86.7721 24.6866C86.633 24.5822 86.4185 24.5281 86.1287 24.5243V28.2456H84.4129V19.7479Z" fill="black"/>
<path d="M91.2141 28.2456V19.7479H93.9675C95.0109 19.7479 95.691 19.7904 96.0079 19.8754C96.4948 20.0029 96.9025 20.2812 97.2309 20.7101C97.5594 21.1352 97.7236 21.6859 97.7236 22.3621C97.7236 22.8838 97.629 23.3224 97.4396 23.678C97.2503 24.0335 97.0087 24.3136 96.715 24.5185C96.4252 24.7194 96.1296 24.8527 95.8282 24.9184C95.4185 24.9996 94.8254 25.0401 94.0486 25.0401H92.9299V28.2456H91.2141ZM92.9299 21.1854V23.5968H93.8689C94.5452 23.5968 94.9973 23.5524 95.2253 23.4635C95.4533 23.3746 95.6311 23.2355 95.7586 23.0461C95.89 22.8568 95.9557 22.6365 95.9557 22.3853C95.9557 22.0762 95.8649 21.8211 95.6833 21.6202C95.5016 21.4192 95.2717 21.2936 94.9935 21.2434C94.7887 21.2048 94.3771 21.1854 93.7588 21.1854H92.9299Z" fill="black"/>
<path d="M105.336 28.2456H103.47L102.728 26.3154H99.3311L98.6298 28.2456H96.8096L100.119 19.7479H101.934L105.336 28.2456ZM102.177 24.8836L101.006 21.7303L99.8586 24.8836H102.177Z" fill="black"/>
<path d="M105.785 28.2456V19.7479H107.5V28.2456H105.785ZM104.66 19.261V17.864H106.057V19.261H104.66ZM107.153 19.261V17.864H108.555V19.261H107.153Z" fill="black"/>
<path d="M108.708 28.2456V19.7479H110.424V23.0925H113.786V19.7479H115.501V28.2456H113.786V24.5301H110.424V28.2456H108.708Z" fill="black"/>
<path d="M116.889 19.7479H118.494V25.4053L121.937 19.7479H123.647V28.2456H122.042V22.6983L118.604 28.2456H116.889V19.7479Z" fill="black"/>
<defs>
<clipPath id="clip0_17_56">
<rect width="35" height="35" fill="white"/>
</clipPath>
</defs>
</svg>
