<svg width="110" height="31" viewBox="0 0 110 31" fill="none" xmlns="http://www.w3.org/2000/svg"><path fill-rule="evenodd" clip-rule="evenodd" d="M12.56 6.353v6.354H0v5.586h12.56V31h5.485V18.293H30.66V31h5.484V0H30.66l-.014 6.34-.014 6.34h-12.56l-.014-6.34L18.044 0H12.56v6.353zm42.342 6.244v7.613h1.755V4.984h-1.755v7.613zm-7.166-3.592c-1.133.216-1.977.72-2.38 1.424l-.16.279-.001-.753V9.2h-1.811v15.172h1.81l.003-2.835c.003-2.635.01-2.824.092-2.697.049.075.254.299.455.497.441.433 1.054.756 1.781.937.691.173 1.934.172 2.578-.001a4.58 4.58 0 0 0 2.931-2.39c.45-.922.604-1.608.645-2.884.025-.771.012-1.08-.064-1.533-.386-2.31-1.662-3.877-3.567-4.379-.565-.148-1.745-.191-2.312-.083zm24.251-.04c-1.728.215-2.963 1.093-3.298 2.345-.095.352-.095 1.181 0 1.534.157.589.437.973.998 1.373.63.449 1.323.7 2.794 1.013 2.211.47 3.05.907 3.21 1.673.197.951-.45 1.685-1.659 1.881-.507.082-1.513.069-1.973-.026-1.052-.218-1.697-.812-1.867-1.72l-.062-.336-.88.015-.88.015.016.274c.088 1.557 1.161 2.799 2.769 3.203 1.204.304 2.862.279 3.967-.06 1.267-.387 2.181-1.274 2.406-2.334.163-.764.085-1.556-.206-2.107a2.43 2.43 0 0 0-.907-.99c-.639-.416-1.136-.586-2.93-1.002a27.371 27.371 0 0 1-1.443-.365c-1.114-.363-1.647-.917-1.539-1.597.084-.523.454-.871 1.154-1.088.517-.16 1.645-.171 2.138-.021.824.251 1.36.74 1.48 1.35.083.416 0 .383.974.383h.882l-.037-.355c-.084-.82-.46-1.614-.997-2.104-.353-.322-1.028-.665-1.56-.793-.682-.164-1.905-.242-2.55-.162zm10.53-.004c-1.346.204-2.265.658-3.082 1.522-.98 1.038-1.453 2.409-1.455 4.223-.003 2.534 1.032 4.38 2.95 5.265.572.263 1.203.402 2 .44 1.622.078 2.922-.356 3.927-1.31.739-.7 1.2-1.528 1.49-2.67.135-.529.147-.665.148-1.698.001-.895-.02-1.217-.1-1.588-.467-2.129-1.748-3.545-3.652-4.035-.405-.105-.7-.14-1.293-.155a10.27 10.27 0 0 0-.932.006zm11.505.024a4.42 4.42 0 0 0-1.27.449c-.39.222-.973.777-1.212 1.156-.105.167-.21.305-.233.307-.022.001-.04-.38-.04-.847v-.849H89.62V20.21h1.75l.02-3.491c.02-3.882.013-3.797.403-4.606a2.63 2.63 0 0 1 .533-.74c.532-.53 1.113-.771 2.01-.837 1.1-.08 1.898.328 2.295 1.175l.146.311.016 4.094.015 4.094h1.812l-.02-4.149c-.022-4.659-.014-4.559-.43-5.425-.378-.785-.995-1.282-1.914-1.544-.472-.134-1.747-.195-2.236-.107zm9.78.027c-1.884.356-3.394 1.867-3.921 3.926-.382 1.493-.165 3.565.516 4.917a4.725 4.725 0 0 0 2.649 2.306c1.045.36 2.555.354 3.658-.013 1.363-.452 2.234-1.354 2.683-2.775.228-.723.287-.668-.728-.668h-.871l-.065.26c-.16.634-.672 1.275-1.254 1.57-.877.444-2.372.404-3.242-.086-.635-.357-1.129-.9-1.367-1.505-.15-.377-.283-1.045-.283-1.414v-.304h8.189l-.038-.626c-.095-1.59-.473-2.827-1.153-3.779-.598-.837-1.52-1.496-2.43-1.736-.573-.15-1.737-.187-2.343-.073zm-45.377 4.393c.018 4.132.02 4.21.139 4.63.34 1.21 1.11 1.971 2.293 2.267.543.136 1.994.135 2.492-.002.881-.242 1.689-.821 2.139-1.533.105-.167.21-.305.233-.307.022-.001.041.392.041.874v.876h1.645V9.201H65.66l-.02 3.437c-.02 3.338-.025 3.45-.142 3.875-.308 1.122-.888 1.79-1.865 2.15-.545.202-1.498.237-2.02.076-.458-.143-.82-.4-1.053-.752-.375-.564-.361-.393-.38-4.801l-.017-3.985h-1.756l.018 4.204zm-9.254-2.807c1.561.328 2.517 1.685 2.642 3.752.058.975-.127 1.977-.517 2.793-.194.406-.328.599-.611.881-.59.587-1.2.818-2.162.816-.985-.001-1.616-.257-2.29-.928-.485-.484-.746-.963-.94-1.727-.11-.432-.126-.623-.123-1.534.004-1.187.078-1.57.455-2.355.661-1.376 2.007-2.02 3.546-1.698zm34.759-.002c.978.207 1.765.844 2.236 1.81.555 1.136.64 2.768.21 4.063-.492 1.48-1.668 2.372-3.128 2.372-.9 0-1.588-.285-2.244-.931-.326-.32-.467-.513-.645-.876-.387-.792-.466-1.186-.466-2.328 0-.846.017-1.048.12-1.424.25-.912.698-1.641 1.28-2.089a3.188 3.188 0 0 1 2.637-.597zm21.446 0c1.268.269 2.232 1.372 2.43 2.782l.036.26h-6.279l.037-.28c.259-1.95 1.91-3.157 3.776-2.762z" fill="#000"/></svg>