<svg width="129" height="29" viewBox="0 0 129 29" fill="none" xmlns="http://www.w3.org/2000/svg"><path fill-rule="evenodd" clip-rule="evenodd" d="M12.995.03c-.492.037-1.519.206-2.15.354C5.756 1.575 1.604 5.594.212 10.674L0 11.446v6.128l.206.752a14.937 14.937 0 0 0 2.531 5.071c.554.717 2.026 2.168 2.742 2.703 2.032 1.519 4.187 2.401 6.887 2.822.753.117 3.03.1 3.863-.03 3.29-.51 5.991-1.877 8.294-4.196A14.446 14.446 0 0 0 28.39 11.38c-.457-2.093-1.437-4.147-2.8-5.87-.426-.537-1.505-1.662-1.997-2.082-.531-.452-1.62-1.224-1.727-1.224-.032 0-.116.1-.187.22-.107.182-.115.228-.046.267.59.33 1.982 1.505 2.593 2.188.89.995.864.949.863 1.553-.003.961-.351 1.691-1.226 2.572-1.464 1.473-3.83 2.45-7.127 2.943-1.12.168-4.408.152-5.582-.027-.8-.122-2.232-.416-2.287-.47-.052-.05.197-1.044.487-1.94 1.211-3.744 3.377-6.805 6.05-8.549l.45-.295.412.054c.771.1 1.594.292 2.405.559.446.147.818.258.828.249.01-.01.06-.119.111-.24.093-.223.093-.224-.073-.289a15.33 15.33 0 0 0-3.96-.95c-.574-.056-1.954-.066-2.583-.02zm43.85 1.02l-.674.216v1.328c0 .73-.018 2.666-.04 4.301l-.04 2.974h1.652l-.038-2.47a183.772 183.772 0 0 0-.074-3.278c-.03-.71-.024-.798.052-.719.048.05.73 1.168 1.514 2.485 2.187 3.676 2.427 4.07 2.486 4.092.066.024 1.568-.4 1.623-.458.02-.023.05-1.96.064-4.307l.025-4.267h-1.65l.028 2.56c.016 1.408.04 2.876.055 3.263.014.388.007.704-.016.704s-.234-.317-.468-.704C58.532 2.115 57.744.857 57.63.847c-.061-.006-.415.086-.786.204zm10.3-.13c-.486.13-.905.37-1.247.712-.598.598-.818 1.322-.694 2.282.119.923.32 1.135 1.817 1.915 1.001.522 1.404.794 1.6 1.08.362.53.135 1.264-.496 1.6-.196.105-.347.132-.734.131-.457 0-.52-.016-1.035-.273l-.549-.273-.296.573c-.163.316-.297.603-.297.64 0 .036.183.15.407.254 1.177.542 2.539.578 3.498.092.409-.207.943-.75 1.145-1.165.383-.785.332-2.081-.1-2.584-.156-.18-.858-.608-1.894-1.155-.723-.38-1.256-.808-1.38-1.107-.113-.273-.047-.735.14-.98.258-.339.638-.488 1.245-.488.503 0 .534.009 1.091.297.316.163.584.284.595.27.076-.1.642-1.145.642-1.187 0-.084-.936-.487-1.424-.611-.543-.14-1.561-.15-2.034-.024zm37.207.122c-.36.113-.662.213-.672.222-.009.01-.036 1.95-.059 4.312l-.042 4.293h.79c.625 0 .797-.017.823-.084.018-.047.003-1.505-.034-3.242-.036-1.737-.054-3.17-.039-3.184.014-.014.908 1.451 1.985 3.257a271.262 271.262 0 0 0 2.008 3.336c.027.03.395-.043.854-.17l.806-.225.035-1.445c.02-.796.046-2.733.059-4.306l.023-2.86h-1.668l.042 3.28c.022 1.803.025 3.263.005 3.245a277.36 277.36 0 0 1-2.039-3.323c-1.405-2.308-2.036-3.294-2.113-3.3-.061-.006-.404.082-.764.194zm12.152-.13c-1.698.386-2.939 1.674-3.301 3.423-.121.586-.087 1.914.062 2.45.435 1.563 1.751 2.774 3.388 3.12.622.132 1.835.085 2.454-.094.455-.131 1.379-.575 1.379-.661 0-.083-.604-1.077-.654-1.077-.027 0-.22.077-.431.17-.465.209-.781.287-1.37.34-1.419.127-2.538-.652-3.031-2.107-.134-.396-.159-.572-.159-1.128.001-.86.181-1.44.635-2.039.557-.735 1.201-1.057 2.135-1.067.757-.008 1.371.203 2.076.714.126.092.137.08.472-.489.259-.44.329-.606.285-.677-.101-.162-.853-.592-1.329-.758-.398-.14-.569-.162-1.354-.18-.616-.016-1.011.003-1.257.06zm5.36.308c-.378.216-.698.404-.711.417-.025.025.199.379 1.864 2.945l1.018 1.569-.012 1.859-.011 1.86h1.665l.039-.674c.022-.37.039-1.208.039-1.86l.001-1.186 1.071-1.598c.589-.88 1.268-1.889 1.508-2.243.269-.396.416-.666.381-.699a10.39 10.39 0 0 0-.705-.425c-.544-.312-.662-.359-.726-.29-.042.045-.581.87-1.198 1.833-.617.964-1.14 1.75-1.161 1.749-.021-.002-.19-.25-.374-.554-.912-1.497-1.924-3.096-1.96-3.096-.022 0-.349.177-.728.393zm-90.904.475v.689h2.475l-.041 3.743-.042 3.742h.803c.782 0 .804-.003.84-.134.019-.074.036-1.375.036-2.89 0-1.515.019-3.138.04-3.608l.04-.853h2.36l.038-.278c.02-.153.038-.462.038-.689v-.41H30.96v.688zm8.204.46c0 .636-.018 2.633-.04 4.438l-.04 3.28.834-.017.833-.016.016-1.79.016-1.79.382.03c.21.018.442.073.514.123.072.05.67.842 1.328 1.76a88.472 88.472 0 0 0 1.272 1.744c.06.062.212-.004.803-.35l.729-.428-.468-.608c-.258-.334-.643-.837-.857-1.117-.213-.28-.57-.744-.792-1.03l-.404-.522.37-.187c.473-.239.918-.684 1.119-1.121.124-.27.163-.461.183-.894.054-1.202-.508-2.088-1.576-2.483-.338-.125-.475-.134-2.29-.156L39.163.998v1.157zm10.679-1.044c-.02.058-.112.294-.205.524-.42 1.047-2.892 7.28-3 7.565-.066.175-.107.332-.09.349.076.076 1.438.444 1.481.4.027-.027.242-.548.479-1.157.236-.61.455-1.155.485-1.213.051-.096.19-.105 1.575-.105h1.519l.069.195.432 1.242c.2.577.371 1.058.381 1.069.02.02 1.538-.403 1.574-.439.026-.026-.138-.478-1.636-4.522l-1.18-3.189-.303-.823h-.772c-.682 0-.777.012-.81.104zm22.616 2.157c0 1.249-.018 3.246-.04 4.438l-.04 2.167.834-.017.833-.016.016-1.722.016-1.722h.433c.238-.001.672-.027.963-.058 1.364-.143 2.31-.798 2.622-1.816.103-.335.12-.515.098-1.018-.033-.754-.18-1.17-.57-1.603-.334-.372-.596-.544-1.1-.722-.358-.127-.499-.137-2.223-.158L72.459.998v2.27zm9.36-.57c-.368.93-1.13 2.848-1.692 4.262-.562 1.413-1.011 2.58-.999 2.592.04.04 1.482.45 1.502.429.011-.012.242-.581.512-1.265l.492-1.244 1.535.016 1.536.016.424 1.224c.233.673.449 1.232.48 1.242.03.01.395-.083.812-.206l.757-.224-.863-2.335c-.474-1.285-.956-2.592-1.07-2.905-.115-.313-.433-1.175-.708-1.916l-.5-1.347-.774-.016-.773-.016-.67 1.692zm6.968-.09c-.02.882-.045 2.869-.053 4.417l-.016 2.815.814.016.814.017.04-.55c.02-.302.038-1.115.038-1.805V6.262l.352.026c.194.014.42.07.502.123.083.055.71.875 1.393 1.824.684.948 1.252 1.735 1.263 1.748.011.013.345-.17.742-.408.474-.284.707-.456.679-.503-.043-.07-.634-.85-1.8-2.37-.339-.441-.616-.819-.615-.838 0-.02.124-.088.277-.15.152-.063.444-.271.65-.463.453-.424.67-.862.724-1.464.125-1.365-.66-2.43-1.999-2.713-.192-.04-.997-.067-2.043-.067h-1.725l-.037 1.602zm8.144.21c-.02.997-.044 2.984-.052 4.417l-.015 2.605h4.788l.017-.704.017-.704h-3.117V5.977h3.054V4.66h-3.057l.016-1.123.016-1.123 1.542-.016 1.542-.016V1.007h-4.713l-.038 1.811zM10.387 1.297c-.031.027-.374.283-.76.568-1.493 1.1-2.945 2.711-4 4.441-.333.547-.957 1.8-1.17 2.35-.092.24-.19.435-.216.435-.026 0-.211-.206-.41-.457-.385-.483-.71-1.064-.73-1.3C3.073 7 4.164 5.521 5.208 4.478c1.356-1.355 2.868-2.345 4.583-3 .648-.248.681-.258.596-.182zm32.003 1.12c.923.274 1.183 1.402.495 2.143-.287.309-.456.36-1.28.388l-.764.025V2.324h.617c.385 0 .737.035.932.093zm33.2-.03c.756.21 1.148 1.238.739 1.936-.3.512-.723.696-1.602.696h-.591V2.324h.614c.337 0 .715.03.84.064zm16.6.099c.475.25.69.587.69 1.078 0 .424-.123.742-.392 1.01-.306.308-.594.385-1.431.385h-.633V3.682c0-.703.02-1.298.045-1.323.025-.025.369-.036.764-.023.588.018.762.046.958.15zM51.1 4.3c.25.84.47 1.601.493 1.692l.04.165h-1.055c-.58 0-1.054-.017-1.054-.037 0-.07 1.09-3.385 1.106-3.366.01.01.22.706.47 1.546zm32.198-1.429c0 .06.867 3.014.942 3.21.023.06-.206.076-1.062.076-.847 0-1.084-.017-1.063-.075.016-.041.267-.796.56-1.677.465-1.402.623-1.79.623-1.534zM12.51 6.091c-.644.206-1.1.625-1.417 1.303-.142.305-.163.422-.16.918.002.484.025.619.157.899.317.673.806 1.112 1.467 1.316.671.208 1.29.127 1.917-.25.886-.531 1.298-1.645.985-2.663a2.329 2.329 0 0 0-2.949-1.523zm15 5.397c.488 2.835.099 5.555-1.16 8.113a12.597 12.597 0 0 1-2.248 3.252 13.428 13.428 0 0 1-6.146 3.69c-.474.129-1.464.333-1.615.333-.094 0-.707-1.74-.952-2.7a21.502 21.502 0 0 1-.64-4.551l-.036-1.114-1.113-.037a20.923 20.923 0 0 1-3.24-.342 10.384 10.384 0 0 0-.713-.118c-.07 0-.077.195-.046 1.212.051 1.658.208 2.74.613 4.216.248.906.575 1.82.918 2.56.135.292.246.552.246.577 0 .025-.127.013-.282-.027-.333-.084-.418-.207-.897-1.292-1.022-2.315-1.615-4.73-1.809-7.366-.03-.412-.046-.763-.034-.781.01-.019.426.068.923.193 2.734.685 5.998.768 8.716.222 2.328-.468 4.538-1.435 6.25-2.734.69-.524 1.626-1.515 2.134-2.26.277-.405.717-1.247.865-1.657.066-.18.078-.187.121-.078.026.067.092.377.146.689zm-25.953.349c0 .082.658 1.152.889 1.446.116.148.325.39.463.539l.252.27.033 1.466c.054 2.445.41 4.265 1.247 6.37.13.326.226.6.215.611-.032.033-.785-.928-1.107-1.411a13.282 13.282 0 0 1-2.176-6.079c-.102-1.006-.011-3.263.132-3.263.029 0 .052.023.052.05zm97.91.128c-1.173.146-2.06.576-2.86 1.387-.633.643-.97 1.226-1.186 2.057-.157.601-.145 1.753.024 2.382.423 1.575 1.629 2.738 3.333 3.217.444.124 1.683.144 2.258.036 1.761-.333 3.105-1.55 3.594-3.252.19-.663.189-1.877-.002-2.552-.552-1.948-2.132-3.16-4.293-3.294a5.706 5.706 0 0 0-.868.019zm-62 .21c-.357.11-.658.21-.669.22-.01.01-.038 1.94-.063 4.286l-.044 4.267h1.652l-.04-2.26a238.318 238.318 0 0 0-.075-3.25c-.032-.873-.026-.977.053-.898.049.05.957 1.545 2.018 3.324a567.953 567.953 0 0 0 1.947 3.252c.01.01.383-.082.828-.204l.81-.223.035-.844c.02-.464.043-2.4.051-4.302l.014-3.458h-1.626l.027 3.279c.015 1.803.014 3.265-.003 3.248a107.5 107.5 0 0 1-1.064-1.736 420.12 420.12 0 0 0-1.35-2.216c-.174-.28-.61-.994-.97-1.587-.455-.75-.688-1.08-.768-1.088-.063-.006-.406.08-.763.19zm30.54.002c-.357.11-.656.207-.665.218-.009.01-.034 1.94-.055 4.286l-.04 4.267h1.689l-.032-.165c-.018-.09-.048-1.377-.067-2.86-.018-1.481-.049-2.862-.067-3.068-.018-.206-.01-.374.017-.373.027 0 .912 1.447 1.965 3.215 1.055 1.768 1.958 3.265 2.008 3.327.09.11.112.108.869-.105.427-.12.793-.237.814-.26.02-.022.056-1.96.08-4.307l.04-4.267h-1.64l.026 3.292c.014 1.81.02 3.286.014 3.279-.022-.025-3.513-5.756-3.792-6.225-.202-.34-.307-.461-.395-.457-.066.002-.411.094-.769.203zm39.104-.001c-.357.11-.663.213-.68.23-.017.017-.045 1.946-.063 4.287l-.033 4.255h1.635v-.374c.001-.206-.029-1.587-.065-3.07-.036-1.482-.056-2.775-.045-2.874.017-.152.316.315 1.989 3.114a313.497 313.497 0 0 0 2.013 3.343c.024.026.409-.052.854-.175l.81-.223.038-2.58c.021-1.42.045-3.355.052-4.302l.013-1.722h-1.654l.041 3.279c.026 2.097.02 3.257-.017 3.218-.031-.032-.953-1.535-2.048-3.338-1.391-2.29-2.021-3.277-2.091-3.273-.055.003-.391.095-.749.205zm-73.91-.023c-.024.038-.056 2.032-.073 4.432l-.03 4.363h1.616l.04-2.47c.021-1.359.04-3.353.04-4.432v-1.96h-.776c-.513 0-.789.022-.817.067zm12.052-.028c-.023.022-.04.345-.04.719v.678h2.495l-.028 3.713-.03 3.713h1.616l.04-1.716c.021-.944.04-2.615.04-3.713v-1.997h2.459l-.018-.703-.017-.704-3.238-.015c-1.78-.009-3.256.002-3.278.025zm7.904.004c-.016.026-.048 2.02-.073 4.432l-.044 4.387h4.808V19.57h-3.114v-2.456h3.054v-1.316h-3.054v-.464c0-.255.018-.767.039-1.138l.039-.674h3.04l-.017-.703-.017-.704L55.5 12.1c-1.274-.008-2.329.005-2.344.03zm6.403.007c-.017.027-.05 2.021-.073 4.43l-.042 4.382h1.696v-3.533h.306c.167 0 .39.04.494.091.136.066.538.575 1.445 1.832.691.957 1.273 1.75 1.294 1.763.04.025 1.232-.66 1.365-.785.07-.066.003-.184-.435-.756l-1.234-1.618-.717-.94.37-.198c.474-.252.888-.668 1.104-1.108.156-.318.17-.403.17-1.006 0-.76-.1-1.11-.446-1.567-.439-.58-1.045-.877-1.994-.977-.68-.072-3.26-.08-3.303-.01zm19.55.084c-.028.074-.53 1.334-1.112 2.8-1.844 4.634-2.244 5.65-2.23 5.663.035.031 1.495.451 1.508.434.009-.01.24-.579.513-1.263l.497-1.244 1.533.016 1.533.016.422 1.21c.232.666.436 1.226.454 1.243.05.051 1.58-.416 1.57-.48-.028-.153-3.091-8.388-3.146-8.454-.045-.053-.272-.076-.776-.076-.684 0-.715.006-.766.135zm5.247-.095c-.023.022-.04.345-.04.719v.678h2.464l-.02 3.713-.02 3.713h1.648V19.58c0-.752.018-2.422.04-3.712l.04-2.346h2.44l-.018-.703-.017-.704-3.238-.015c-1.78-.009-3.256.002-3.278.025zm7.836.017c-.02.033-.054 2.027-.074 4.433l-.037 4.373H93.7l.039-2.111c.022-1.16.041-3.148.043-4.416l.004-2.306-.778-.017c-.473-.01-.792.007-.815.044zm26.035.018c-.032.041-.248.56-.482 1.153-.233.593-.927 2.344-1.542 3.892-1.347 3.39-1.367 3.443-1.327 3.484.06.06 1.438.438 1.472.404.019-.02.25-.578.513-1.242l.48-1.209 1.535-.016c1.421-.014 1.538-.008 1.576.09.023.058.218.618.433 1.244s.399 1.146.408 1.155c.017.02 1.542-.407 1.581-.443.013-.011-.1-.352-.25-.756a323.37 323.37 0 0 1-.582-1.573c-.887-2.409-2.179-5.893-2.249-6.063l-.08-.195h-.715c-.501 0-.731.022-.771.075zm6.069-.03c-.016.027-.049 2.022-.073 4.434l-.044 4.384h4.809V19.57h-3.192l.04-1.003c.021-.552.04-2.23.041-3.728l.002-2.725-.776-.017c-.427-.009-.79.006-.807.032zm-23.425 1.245c.515.134.882.357 1.292.783.602.627.897 1.41.895 2.377-.003 1.458-.801 2.681-2.025 3.102-1.103.38-2.374.088-3.146-.722-1.148-1.204-1.175-3.408-.055-4.617.803-.868 1.933-1.212 3.039-.923zm-37.913.26c.424.21.637.567.637 1.069 0 .606-.208.978-.688 1.232-.194.103-.374.131-.949.15-.393.014-.734 0-.765-.031-.033-.034-.04-.564-.015-1.329l.041-1.273.724.02c.618.017.767.04 1.015.163zm56.503 1.915c.267.901.485 1.662.485 1.692 0 .03-.472.053-1.048.053-.576 0-1.048-.02-1.048-.044 0-.08 1.088-3.38 1.108-3.36.01.012.237.758.503 1.659zm-39.075-.007c.26.881.484 1.636.499 1.677.02.058-.217.075-1.063.075s-1.082-.017-1.06-.075c.015-.04.265-.796.555-1.677.29-.88.543-1.601.562-1.601.02 0 .247.72.507 1.601zm-47.2 9.881c.018 1.765.024 1.852.15 2.088.213.398.42.605.784.784.293.143.415.167.851.167.437 0 .558-.024.852-.168a2.07 2.07 0 0 0 .55-.411c.371-.433.395-.584.395-2.545v-1.756h-.839v1.632c0 .897-.027 1.727-.06 1.845-.157.564-.917.8-1.452.45a1.043 1.043 0 0 1-.281-.358c-.115-.237-.123-.363-.123-1.911v-1.658h-.845l.018 1.841zm5.079.584v2.425h.838v-.673l.002-.674.355-.418c.196-.23.377-.425.404-.433.026-.007.343.484.705 1.092l.658 1.106h.497c.493 0 .497 0 .427-.13-.039-.073-.42-.698-.847-1.391a44.682 44.682 0 0 1-.807-1.335c-.031-.082.156-.322 1.144-1.466.218-.252.396-.474.396-.494 0-.018-.222-.034-.494-.034l-.494.001-.898 1.08c-.494.594-.907 1.106-.918 1.137-.011.032-.045.057-.075.057-.031 0-.055-.488-.055-1.137v-1.138h-.838v2.425zm4.97 0v2.425h.838v-1.98l.462.017.461.017.373.869c.205.477.385.915.401.973.024.088.103.104.512.104.477 0 .483-.002.431-.134a49.12 49.12 0 0 0-.447-1.017c-.218-.486-.396-.906-.396-.934 0-.028.061-.08.136-.113a1.94 1.94 0 0 0 .338-.232c.584-.491.568-1.635-.03-2.09-.382-.292-.602-.33-1.889-.33h-1.19v2.425zm6.174-2.29l-.897 2.37c-.465 1.23-.846 2.26-.846 2.29 0 .03.196.055.434.055h.435l.185-.524.185-.524.88-.016.88-.017.109.256c.06.141.155.384.212.541l.104.284h.444c.244 0 .444-.008.444-.019 0-.01-.199-.543-.442-1.183-.242-.64-.65-1.722-.906-2.406l-.466-1.242h-.352c-.31 0-.358.016-.403.135zm3.647 2.29v2.425h.838v-4.85h-.839v2.425zm2.395 0v2.425h.839v-1.646c0-.906.02-1.647.045-1.646.024 0 .15.183.279.404.128.222.6.962 1.047 1.645l.814 1.242h.405l.404.001v-4.85h-.839v1.692l-.002 1.691-.27-.419c-.147-.23-.639-.99-1.09-1.69l-.823-1.27-.405-.002-.404-.002v2.425zm5.33 0v2.425h3.3l-.019-.374-.017-.374-1.183-.016-1.183-.017v-1.255h2.036v-.779H61.68v-1.256h2.396v-.779h-3.294v2.426zm-15.36-1.648c.42.097.61.517.42.92-.15.317-.383.399-1.133.399h-.635v-.649c0-.357.018-.667.04-.689.06-.059 1.031-.045 1.308.019zm4.724 1.325c.152.481.276.892.276.913 0 .021-.286.039-.635.039-.483 0-.629-.018-.607-.075.015-.041.158-.472.319-.957.16-.485.309-.863.33-.838.023.024.165.437.317.918z" fill="#000"/></svg>