<svg width="65" height="28" viewBox="0 0 65 28" fill="none" xmlns="http://www.w3.org/2000/svg"><path fill-rule="evenodd" clip-rule="evenodd" d="M7.122.07c-.388.144-.566.326-1.081 1.104-.232.35-.442.637-.467.637-.025 0-.118-.066-.206-.146a2.145 2.145 0 0 0-.43-.273c-.244-.116-.302-.127-.674-.127-.388 0-.42.007-.714.153-.454.224-.791.63-.94 1.133-.089.297-.078.774.021.994.205.452.911 1.211 1.458 1.567 1.32.86 2.885.466 4.14-1.044.408-.489 1.057-1.477 1.158-1.762.304-.857-.077-1.7-.968-2.14-.277-.138-.338-.152-.692-.163-.31-.01-.433.004-.605.068zm-4.19 6.705a.82.82 0 0 0-.425.483c-.072.237-.097 1.363-.04 1.815.087.7.186 1.091.667 2.64.684 2.198.762 2.753.611 4.347a41.46 41.46 0 0 0-.104 1.82c-.094 2.578-.136 3.07-.41 4.765-.224 1.399-.273 1.804-.304 2.527-.029.685-.003.84.172 1.048.09.106.092.119.027.137-.286.08-2.035.461-2.514.548l-.59.107-.01.432-.012.431.12.063A.583.583 0 0 0 .34 28c.163 0 .979-.148 2.553-.465 2.259-.453 2.471-.48 3.719-.481.829-.001 1.128.013 1.417.068a9.722 9.722 0 0 1 1.74.516c.56.223.679.234.88.074.247-.194.3-.522.115-.718-.177-.19-1.154-.59-1.985-.814-.277-.074-.328-.1-.303-.155.053-.117.064-.842.018-1.26-.057-.526-.154-.99-.474-2.276-.322-1.29-.413-1.834-.62-3.704a64.117 64.117 0 0 0-.206-1.717c-.082-.472-.092-1.695-.019-2.219.118-.844.341-1.607.754-2.58.695-1.642.94-2.419 1.067-3.377.072-.54.078-1.135.016-1.424-.136-.636-1.02-.88-1.389-.386-.074.1-.082.174-.086.784-.007.976-.138 1.62-.556 2.72-.36.948-.291.844-.556.844-.196 0-.26.02-.444.144-.296.199-.404.214-.602.083-.09-.06-.162-.126-.162-.148 0-.022-.085-.095-.19-.16a.642.642 0 0 0-.362-.121H4.49l-.121-.394c-.4-1.294-.52-2.274-.4-3.246.044-.356.042-.399-.03-.543-.118-.239-.256-.319-.574-.334-.202-.01-.313.007-.435.064zM5.355 7.89c-.167.072-.33.274-.387.48a.656.656 0 0 1-.141.258c-.212.198-.258.331-.258.746 0 .608.155 1.003.512 1.303.147.124.376.227.502.227a.892.892 0 0 0 .564-.244c.19-.19.24-.428.27-1.275.026-.767-.003-1.055-.124-1.237-.177-.267-.632-.392-.938-.258zm18.067 4.371c-.957.129-1.48.32-2.055.752-.583.438-1.066 1.197-1.24 1.95-.076.331-.087.469-.07.924.016.463.036.585.148.918.071.211.204.509.294.662.181.306.63.8.92 1.013.273.2.792.449 1.2.575.34.105.402.11 1.147.11.925 0 1.173-.051 1.839-.377.7-.343 1.182-.82 1.535-1.518.26-.514.352-.9.358-1.496.007-.77-.154-1.329-.563-1.945-.513-.774-1.332-1.306-2.294-1.49-.31-.06-1.018-.104-1.219-.078zm18.814.02c-1.568.194-2.664 1.09-3.097 2.532-.092.305-.108.432-.11.9-.004.807.128 1.256.565 1.926.48.734 1.32 1.281 2.27 1.477.579.12 1.534.09 2.049-.065 1.033-.308 1.783-.92 2.22-1.81.24-.49.31-.763.335-1.317.036-.779-.12-1.412-.501-2.023-.503-.806-1.35-1.372-2.338-1.563a5.464 5.464 0 0 0-1.393-.057zm-26.41.149a927.387 927.387 0 0 1-.992 2.597 1191.916 1191.916 0 0 0-1.04 2.718l-.104.272h-.755v2.344h1.294V19.11h4.688v1.252h1.293V18.02l-.392-.012-.392-.012-.54-1.334-1.101-2.707c-.308-.756-.579-1.424-.602-1.486l-.042-.11h-.644c-.575 0-.646.007-.67.07zm12.305 3.304v3.375h1.63c1.487 0 1.658-.007 1.94-.08 1.055-.27 1.644-.98 1.643-1.98-.002-.798-.394-1.413-1.131-1.772-.502-.244-.801-.29-1.858-.29h-.89V13.37h3.394v-1.011h-4.728v3.375zm5.739 0v3.375h1.334v-2.82l.9-.02c.981-.022 1.142-.05 1.556-.27.625-.334.98-.94.98-1.674-.002-.582-.181-1.026-.568-1.405a2.123 2.123 0 0 0-.449-.332c-.444-.215-.572-.229-2.225-.229H33.87v3.375zm13.054 0v3.375l1.606-.001c1.822 0 1.965-.017 2.5-.28.56-.277.958-.783 1.063-1.354.205-1.11-.362-1.998-1.512-2.369-.252-.081-.394-.094-1.313-.115l-1.03-.024-.012-.798-.01-.798h3.396v-1.011h-4.688v3.375zm5.35-2.86c.161.284.767 1.343 1.347 2.355a446.84 446.84 0 0 1 1.165 2.04c.061.112.136.239.166.283.08.116.069.185-.064.395-.266.42-.822.495-1.425.194l-.237-.118.012.592.01.592.203.08c.31.122 1.165.117 1.481-.01.668-.266.795-.473 2.54-4.15l.505-1.05.569-1.182.255-.536h-1.36l-.087.204c-.048.113-.269.586-.49 1.053l-.48 1.018a51.64 51.64 0 0 1-.745 1.552c-.012.012-.07-.057-.127-.154-.28-.47-.686-1.162-.758-1.288-.077-.136-.414-.708-1.082-1.84l-.31-.524-.69-.012-.692-.01.294.516zm6.653-.01v.506h2.385v5.739h1.334v-5.74h2.183v-1.01h-5.9v.505zm-22.38.562c.485.114.724.399.728.869.003.324-.069.503-.276.685-.25.22-.45.266-1.17.268l-.605.001-.011-.94-.011-.94.556.001c.325 0 .654.024.79.056zm-12.078.064c.421.108.74.286 1.028.573.288.288.466.607.573 1.028.15.586.074 1.31-.19 1.808-.14.263-.617.741-.882.883-.601.323-1.488.37-2.167.116-.881-.33-1.423-1.155-1.42-2.164.002-1.144.65-2.007 1.694-2.26.358-.087.992-.08 1.364.016zm18.965-.005c.794.208 1.361.748 1.6 1.522.114.37.121 1.054.015 1.414a2.2 2.2 0 0 1-1.162 1.387c-.412.197-.654.25-1.138.25-.474-.002-.807-.08-1.205-.288-.914-.475-1.366-1.59-1.088-2.679.21-.818.792-1.4 1.618-1.617.326-.086 1.014-.08 1.36.01zm-26.669 1.087l.636 1.647.527 1.364c.077.195.14.372.14.394 0 .026-.54.04-1.516.04-.834 0-1.516-.008-1.516-.019 0-.01.026-.088.058-.172.032-.084.225-.625.429-1.203.204-.578.5-1.419.66-1.868.158-.45.298-.819.311-.819.013 0 .135.286.271.636zm14.348 1.486c.306.072.437.136.59.289.379.373.345 1.13-.064 1.442-.333.253-.468.284-1.356.302l-.819.017v-2.111h.698c.473 0 .778.02.951.06zm18.95.038c.535.185.809.7.659 1.241-.065.233-.367.54-.637.645-.211.083-.3.091-1.04.094l-.808.002-.01-.99c-.007-.544-.002-1.014.01-1.044.034-.089 1.544-.045 1.826.052zm-43.9 4.841c.09.78.165 1.152.445 2.175.283 1.031.392 1.655.4 2.281l.006.485-.303-.013c-.394-.017-1.316.054-1.884.147l-.448.072.013-.264c.079-1.486.168-2.284.396-3.559a21 21 0 0 0 .216-1.415l.03-.262.201-.034c.112-.02.339-.076.506-.127.166-.052.314-.095.327-.098.013-.002.056.274.095.612z" fill="#000"/></svg>