<svg xmlns="http://www.w3.org/2000/svg" viewBox="0 0 119.03 52.97"><defs><style>.cls-1{fill:#b1b2b3;}.cls-2{fill:#1a1a18;}</style></defs><g id="Шар_2" data-name="Шар 2"><g id="logo"><path class="cls-1" d="M14.31,16.42a2.13,2.13,0,1,0-2.13-2.13A2.12,2.12,0,0,0,14.31,16.42Z"/><path class="cls-1" d="M38.66,12.19a2.12,2.12,0,1,0,2.13,2.12A2.12,2.12,0,0,0,38.66,12.19Z"/><path class="cls-1" d="M14.29,36.54a2.13,2.13,0,1,0,2.13,2.12A2.12,2.12,0,0,0,14.29,36.54Z"/><path class="cls-1" d="M39.08,36.59a3,3,0,0,0-.42,0,2.13,2.13,0,0,0-.41,4.21,2,2,0,0,0,.41,0,2.13,2.13,0,0,0,.42-4.21Z"/><rect class="cls-2" x="65.71" y="6.14" width="0.91" height="40.69" rx="0.02"/><path class="cls-2" d="M26.49,48.72a2.13,2.13,0,1,0,2.12,2.13A2.13,2.13,0,0,0,26.49,48.72Z"/><path class="cls-2" d="M26.49,10.39a2.13,2.13,0,1,0-2.13-2.12A2.12,2.12,0,0,0,26.49,10.39Z"/><path class="cls-2" d="M26.49,4.25a2.13,2.13,0,1,0-2.13-2.13A2.12,2.12,0,0,0,26.49,4.25Z"/><path class="cls-2" d="M20.35,10.4a2.12,2.12,0,1,0-2.12-2.12A2.12,2.12,0,0,0,20.35,10.4Z"/><path class="cls-2" d="M32.62,6.16a2.12,2.12,0,1,0,2.12,2.12A2.12,2.12,0,0,0,32.62,6.16Z"/><path class="cls-2" d="M50.85,24.36A2.13,2.13,0,1,0,53,26.48,2.12,2.12,0,0,0,50.85,24.36Z"/><path class="cls-2" d="M8.27,28.61a2.13,2.13,0,1,0-2.13-2.13A2.12,2.12,0,0,0,8.27,28.61Z"/><path class="cls-2" d="M2.12,24.36a2.13,2.13,0,1,0,2.13,2.12A2.12,2.12,0,0,0,2.12,24.36Z"/><path class="cls-2" d="M8.28,30.5a2.12,2.12,0,1,0,2.12,2.12A2.12,2.12,0,0,0,8.28,30.5Z"/><path class="cls-2" d="M8.28,18.23a2.12,2.12,0,1,0,2.12,2.12A2.12,2.12,0,0,0,8.28,18.23Z"/><path class="cls-2" d="M26.48,46.83a2.13,2.13,0,1,0-2.12-2.13A2.13,2.13,0,0,0,26.48,46.83Z"/><path class="cls-2" d="M32.62,42.57a2.12,2.12,0,1,0,2.12,2.12A2.12,2.12,0,0,0,32.62,42.57Z"/><path class="cls-2" d="M20.35,42.57a2.12,2.12,0,1,0,2.12,2.12A2.12,2.12,0,0,0,20.35,42.57Z"/><path class="cls-2" d="M44.7,24.36a2.13,2.13,0,1,0,2.13,2.12A2.12,2.12,0,0,0,44.7,24.36Z"/><path class="cls-2" d="M44.69,22.47a2.12,2.12,0,1,0-2.12-2.12A2.12,2.12,0,0,0,44.69,22.47Z"/><path class="cls-2" d="M44.69,30.5a2.12,2.12,0,1,0,2.12,2.12A2.12,2.12,0,0,0,44.69,30.5Z"/><path class="cls-1" d="M34.38,26.49a7.92,7.92,0,1,0-7.92,7.92A7.91,7.91,0,0,0,34.38,26.49Zm-7.92,4.63a4.63,4.63,0,1,1,4.64-4.63A4.63,4.63,0,0,1,26.46,31.12Z"/><path class="cls-2" d="M26.49,16.54a2.13,2.13,0,1,0-2.13-2.13A2.12,2.12,0,0,0,26.49,16.54Z"/><path class="cls-2" d="M14.41,24.36a2.13,2.13,0,1,0,2.13,2.12A2.12,2.12,0,0,0,14.41,24.36Z"/><path class="cls-2" d="M24.36,38.56a2.13,2.13,0,1,0,2.12-2.13A2.12,2.12,0,0,0,24.36,38.56Z"/><path class="cls-2" d="M38.56,28.61a2.13,2.13,0,1,0-2.13-2.13A2.12,2.12,0,0,0,38.56,28.61Z"/><polygon class="cls-2" points="79.66 25.34 77.32 25.34 77.32 21.55 75.32 21.55 75.32 31.47 77.32 31.47 77.32 27.06 79.66 27.06 79.66 31.47 81.66 31.47 81.66 21.55 79.66 21.55 79.66 25.34"/><polygon class="cls-2" points="85.6 27.16 88.94 27.16 88.94 25.52 85.6 25.52 85.6 23.19 89.14 23.19 89.14 21.55 83.6 21.55 83.6 31.47 89.28 31.47 89.28 29.83 85.6 29.83 85.6 27.16"/><path class="cls-2" d="M93,29.37h2.64l.45,2.1h2.09l-2.63-9.92H93.05l-2.63,9.92h2.09Zm1.3-6.1h0l1,4.46h-2Z"/><polygon class="cls-2" points="101.4 21.55 99.4 21.55 99.4 31.47 104.94 31.47 104.94 29.83 101.4 29.83 101.4 21.55"/><polygon class="cls-2" points="108.72 31.47 108.72 23.19 110.89 23.19 110.89 21.55 104.55 21.55 104.55 23.19 106.72 23.19 106.72 31.47 108.72 31.47"/><polygon class="cls-2" points="118.64 31.47 118.64 21.55 116.64 21.55 116.64 25.34 114.3 25.34 114.3 21.55 112.3 21.55 112.3 31.47 114.3 31.47 114.3 27.06 116.64 27.06 116.64 31.47 118.64 31.47"/><path class="cls-2" d="M79.55,42a2.55,2.55,0,0,1-.27.76.83.83,0,0,1-.39.36,1.39,1.39,0,0,1-.5.09,1.13,1.13,0,0,1-.56-.13,1,1,0,0,1-.4-.52,3.79,3.79,0,0,1-.24-1.07,17.55,17.55,0,0,1-.08-1.82c0-.71,0-1.3.06-1.79a6.05,6.05,0,0,1,.19-1.18,1.31,1.31,0,0,1,.39-.65.89.89,0,0,1,.62-.2,1,1,0,0,1,.93.49,3.64,3.64,0,0,1,.26,1.58h2a9.7,9.7,0,0,0-.08-1.16,3,3,0,0,0-.38-1.16,2.37,2.37,0,0,0-.92-.88,4.39,4.39,0,0,0-3.48,0,2.48,2.48,0,0,0-1,1.06,4.53,4.53,0,0,0-.46,1.63,19.09,19.09,0,0,0-.11,2.08,18.81,18.81,0,0,0,.11,2.08,4.59,4.59,0,0,0,.46,1.63,2.38,2.38,0,0,0,1,1,3.76,3.76,0,0,0,1.79.36,3.65,3.65,0,0,0,1.6-.3,2.28,2.28,0,0,0,1-.85,3.32,3.32,0,0,0,.47-1.27,9.27,9.27,0,0,0,.12-1.52h-2A7.6,7.6,0,0,1,79.55,42Z"/><polygon class="cls-2" points="85 40.19 88.33 40.19 88.33 38.55 85 38.55 85 36.22 88.54 36.22 88.54 34.58 83 34.58 83 44.5 88.68 44.5 88.68 42.86 85 42.86 85 40.19"/><polygon class="cls-2" points="94.75 41.37 94.72 41.37 92.31 34.58 90 34.58 90 44.5 91.83 44.5 91.83 37.55 91.86 37.55 94.31 44.5 96.59 44.5 96.59 34.58 94.75 34.58 94.75 41.37"/><polygon class="cls-2" points="97.58 36.22 99.75 36.22 99.75 44.5 101.75 44.5 101.75 36.22 103.92 36.22 103.92 34.58 97.58 34.58 97.58 36.22"/><path class="cls-2" d="M77.32,14.48h1.07a4.28,4.28,0,0,0,1.29-.18,2.76,2.76,0,0,0,1-.54,2.53,2.53,0,0,0,.64-.93,3.59,3.59,0,0,0,.23-1.33,4.4,4.4,0,0,0-.14-1.09,2.67,2.67,0,0,0-.46-1,2.35,2.35,0,0,0-.84-.67,2.93,2.93,0,0,0-1.29-.26h-3.5v9.92h2Zm0-4.48h.84a1.32,1.32,0,0,1,1.07.39,1.73,1.73,0,0,1,.32,1.13,1.55,1.55,0,0,1-.37,1.13,1.34,1.34,0,0,1-1,.36h-.89Z"/><path class="cls-2" d="M87.58,15.44a4.86,4.86,0,0,1,0,.69,1.9,1.9,0,0,1-.18.54A1,1,0,0,1,87,17a1.11,1.11,0,0,1-.58.13,1.13,1.13,0,0,1-.58-.13,1,1,0,0,1-.36-.36,1.43,1.43,0,0,1-.18-.54,4.86,4.86,0,0,1-.05-.69V8.52h-2v6.92a4.17,4.17,0,0,0,.27,1.63,2.29,2.29,0,0,0,.7,1,2.35,2.35,0,0,0,1,.45,5.63,5.63,0,0,0,2.36,0,2.33,2.33,0,0,0,1-.49,2.35,2.35,0,0,0,.71-1,3.9,3.9,0,0,0,.27-1.56V8.52h-2Z"/><path class="cls-2" d="M96.79,18.21a2.49,2.49,0,0,0,1-.64,2.16,2.16,0,0,0,.52-.92,4,4,0,0,0,.16-1.11,2.48,2.48,0,0,0-.49-1.6,2,2,0,0,0-1.32-.71v0a2,2,0,0,0,1.13-.79A2.54,2.54,0,0,0,98.12,11a3.07,3.07,0,0,0-.21-1.2,1.89,1.89,0,0,0-.58-.77,2.2,2.2,0,0,0-.9-.42,5,5,0,0,0-1.13-.13H92v9.92h3.38A4.1,4.1,0,0,0,96.79,18.21ZM94,10h.72a1.66,1.66,0,0,1,1.1.29,1.25,1.25,0,0,1,.35,1,1.23,1.23,0,0,1-.38,1,2.07,2.07,0,0,1-1.22.29H94Zm0,7V14h.86a2.77,2.77,0,0,1,.61.07,1.1,1.1,0,0,1,.48.25,1.08,1.08,0,0,1,.32.45,1.87,1.87,0,0,1,.12.72,1.38,1.38,0,0,1-.44,1.18,2,2,0,0,1-1.17.32Z"/><polygon class="cls-2" points="106.05 16.8 102.51 16.8 102.51 8.52 100.51 8.52 100.51 18.44 106.05 18.44 106.05 16.8"/><rect class="cls-2" x="107.87" y="8.52" width="2" height="9.92" rx="0.02"/><path class="cls-2" d="M113.57,18.23a3.76,3.76,0,0,0,1.79.37,3.64,3.64,0,0,0,1.6-.31,2.22,2.22,0,0,0,1-.85,3.33,3.33,0,0,0,.47-1.26,9.31,9.31,0,0,0,.12-1.53h-2a7.52,7.52,0,0,1-.09,1.3,2.45,2.45,0,0,1-.27.76.83.83,0,0,1-.39.36,1.39,1.39,0,0,1-.5.09,1.13,1.13,0,0,1-.56-.13,1,1,0,0,1-.4-.51,3.87,3.87,0,0,1-.24-1.08,17.85,17.85,0,0,1-.07-1.82c0-.7,0-1.3.05-1.78a5.2,5.2,0,0,1,.2-1.18,1.27,1.27,0,0,1,.38-.66,1.1,1.1,0,0,1,1.55.29,3.64,3.64,0,0,1,.26,1.58h2a8,8,0,0,0-.08-1.16A2.9,2.9,0,0,0,118,9.56a2.3,2.3,0,0,0-.92-.88,3.49,3.49,0,0,0-1.69-.35,3.63,3.63,0,0,0-1.79.38,2.54,2.54,0,0,0-1,1.06,4.58,4.58,0,0,0-.46,1.64,18.76,18.76,0,0,0-.11,2.07,19,19,0,0,0,.11,2.09,4.47,4.47,0,0,0,.46,1.62A2.33,2.33,0,0,0,113.57,18.23Z"/><path class="cls-2" d="M118.67,43.85c0-.28-.07-.68-.09-1.21,0-.27,0-.51,0-.73s0-.42,0-.61a2.08,2.08,0,0,0-.43-1.21,1.76,1.76,0,0,0-1.09-.48v0a1.88,1.88,0,0,0,1.25-.81,3.07,3.07,0,0,0,.4-1.63,2.45,2.45,0,0,0-.7-1.93,2.78,2.78,0,0,0-1.94-.63h-3.7V44.5h2V40.3h1.07a1,1,0,0,1,.89.34,1.45,1.45,0,0,1,.29.91l.06,1.91a5,5,0,0,0,.06.56,1,1,0,0,0,.19.48H119v-.08A.78.78,0,0,1,118.67,43.85Zm-2.42-5.28a1.62,1.62,0,0,1-1.11.34h-.84V36.05h1a1.23,1.23,0,0,1,1.39,1.38A1.44,1.44,0,0,1,116.25,38.57Z"/><polygon class="cls-2" points="107.37 40.19 110.7 40.19 110.7 38.55 107.37 38.55 107.37 36.22 110.91 36.22 110.91 34.58 105.37 34.58 105.37 44.5 111.05 44.5 111.05 42.86 107.37 42.86 107.37 40.19"/></g></g></svg>