<svg width="143" height="38" viewBox="0 0 143 38" fill="none" xmlns="http://www.w3.org/2000/svg"><path fill-rule="evenodd" clip-rule="evenodd" d="M18.493.1c-.653.233-1.026.752-1.026 1.429 0 1.311 1.523 2.008 2.505 1.146.877-.77.61-2.185-.486-2.571-.389-.138-.615-.138-.993-.004zm.024 4.398c-.587.184-1.09.875-1.089 1.498 0 .249.306.879.521 1.077.84.771 2.315.284 2.525-.834.212-1.128-.862-2.084-1.957-1.741zM47.09 18.996v14.611h.659V4.385h-.66v14.611zM13.949 4.557c-.543.249-.868.774-.868 1.403 0 .64.284 1.081.897 1.39.384.195 1.077.128 1.463-.14.419-.29.698-.87.652-1.353-.047-.485-.267-.88-.635-1.14-.255-.18-.392-.221-.799-.24-.305-.012-.574.017-.71.08zm8.824-.017c-.345.137-.732.592-.85 1-.123.422-.093.697.124 1.125.538 1.063 2.115 1.058 2.686-.01.372-.696.091-1.634-.608-2.03-.315-.179-1.005-.222-1.352-.085zM9.908 8.775a1.558 1.558 0 0 0-1.172 1.31c-.138 1.164 1.07 2.045 2.137 1.56.59-.267.976-.944.893-1.564-.116-.862-1.035-1.508-1.858-1.306zm17.15.126c-.922.486-1.14 1.67-.45 2.43.519.571 1.581.602 2.159.063.584-.544.611-1.556.058-2.164-.39-.43-1.267-.593-1.767-.329zm-8.752.09c-.498.274-.879.865-.879 1.363 0 .09.05.309.113.484.414 1.174 1.96 1.385 2.696.37.203-.28.23-.376.23-.806 0-.605-.18-.985-.613-1.29-.402-.285-1.143-.342-1.547-.12zm72.232 1.546c-.746.157-1.156.542-1.394 1.314-.19.616-.183 3.092.011 3.682.295.9.867 1.27 1.95 1.261.511-.004.688-.037.989-.188.69-.346.952-.957 1.031-2.407.056-1.012-.06-2.15-.269-2.634-.175-.409-.51-.757-.875-.909-.34-.142-1.052-.2-1.443-.119zm22.447 0c-.637.112-1.097.515-1.346 1.177-.16.425-.23 2.69-.105 3.409.183 1.052.697 1.57 1.665 1.68 1.344.151 2.119-.5 2.204-1.85l.038-.607h-1.171l-.078.56c-.121.86-.453 1.177-.995.95-.399-.166-.509-.636-.507-2.174.002-1.69.188-2.266.729-2.266.441 0 .642.242.726.876l.049.37h1.245l-.052-.458c-.096-.846-.421-1.345-1.029-1.576-.314-.12-.968-.163-1.373-.091zm14.303.003c-1.121.233-1.544 1.103-1.54 3.17.004 2.168.454 2.94 1.801 3.092.973.11 1.727-.246 2.059-.971.264-.577.371-1.829.26-3.057-.115-1.279-.374-1.78-1.082-2.096-.365-.162-1.068-.227-1.498-.138zm8.785-.029c-1.365.256-1.752 1.087-1.664 3.576.044 1.252.159 1.735.507 2.131.393.448.727.574 1.523.573 1.059-.002 1.525-.281 1.854-1.113.322-.816.305-3.337-.028-4.112-.177-.41-.512-.758-.877-.91-.283-.118-1.024-.2-1.315-.145zm-82.01 3.157l.02 3.058 1.666.02 1.666.02v1.168h1.099v-2.197H58v-5.126h-1.242l-.02 2.544-.019 2.546h-1.391l-.02-2.546-.019-2.544h-1.244l.019 3.057zm5.347 0l.02 3.058h3.441l.022-.494.022-.495h-2.277v-1.684h2.05v-1.026h-2.05V11.64l1.08-.02 1.08-.02.022-.495.022-.495H59.39l.02 3.058zm4.45.021v3.08l.604-.022.605-.021.02-1.376.02-1.376.675.021.676.021.037 1.355.036 1.355.605.021.604.021V10.61h-1.245v2.344h-1.392v-2.343H63.86v3.078zm4.76-2.566v.513h1.318l.02 2.545.019 2.545h1.17l.02-2.545.019-2.545h1.316V10.61h-3.881v.512zm4.761 2.566v3.08l.604-.022.605-.021.02-1.227.02-1.227h.575c1.314 0 1.984-.608 1.984-1.799 0-.27-.04-.625-.09-.79-.119-.399-.6-.889-.971-.991-.162-.044-.845-.08-1.52-.081H73.38v3.078zm7.195-.02l.02 3.057.603.021.605.021v-5.132h2.05V10.61h-3.298l.02 3.057zm3.937.014v3.085l.605-.02.604-.022.02-1.227.02-1.227h.575c.903 0 1.442-.252 1.773-.83.15-.262.175-.402.175-1 0-.607-.023-.738-.183-1.023a2 2 0 0 0-.5-.549l-.318-.223-1.385-.025-1.386-.025v3.086zm9.539-.017l.019 3.06h1.099l.024-2.344.025-2.343.528 2.343.528 2.344.428.022c.236.012.456-.005.49-.039.034-.034.294-1.096.577-2.362.284-1.265.532-2.316.55-2.335.02-.019.035 1.042.035 2.358v2.393h1.099V10.61h-1.811l-.149.713a412.3 412.3 0 0 0-.425 2.088c-.151.755-.295 1.354-.319 1.331-.023-.023-.225-.954-.448-2.07l-.406-2.026-.932-.02-.931-.02.019 3.059zm7.719-2.671c-.06.211-.361 1.34-.669 2.508a494.725 494.725 0 0 1-.7 2.634c-.077.281-.113.538-.079.571.033.034.32.051.638.04l.578-.022.141-.641.14-.64h1.637l.087.475c.159.862.14.842.811.842.321 0 .598-.024.615-.055.027-.046-.26-1.158-1.455-5.639l-.122-.457h-1.512l-.11.384zm4.838 1.282c-.048 1.782-.136 2.384-.447 3.064-.162.353-.206.396-.406.396h-.223v2.197h1.098v-1.171h2.93v1.17h1.172v-2.188l-.275-.023-.275-.023-.019-2.544-.019-2.546h-3.492l-.044 1.667zm9.909 1.42v3.086l1.227-.04c.679-.022 1.341-.08 1.483-.13.683-.241 1.028-.746 1.083-1.582.044-.674-.087-1.216-.37-1.54-.35-.398-.59-.486-1.445-.532l-.769-.041-.02-1.154-.02-1.153h-1.169v3.086zm4.632-.029l.019 3.058h1.172l.037-.952c.032-.84.057-.985.211-1.232.096-.153.201-.252.233-.22.032.033.295.538.584 1.122.29.584.577 1.12.639 1.19.091.103.234.128.72.128.334 0 .621-.024.638-.055.017-.03-.378-.823-.879-1.763l-.91-1.708.81-1.274c.445-.7.81-1.291.81-1.313 0-.021-.294-.038-.654-.038h-.653l-.756 1.188-.757 1.188-.02-1.188-.02-1.188h-1.243l.019 3.057zm9.683-2.966c-.019.05-.026 1.427-.016 3.058l.02 2.966.604.021.604.021v-5.132h2.051V10.61h-1.614c-1.224 0-1.622.022-1.649.091zm-39.337.864c.303.239.371.626.375 2.12.002 1.154-.018 1.408-.134 1.71-.157.408-.461.591-.85.514-.54-.108-.69-.688-.645-2.511.033-1.381.118-1.736.452-1.898.254-.123.598-.095.802.066zm36.762-.002c.328.257.382.564.38 2.16-.001 1.217-.022 1.51-.125 1.741-.271.604-1.038.612-1.338.014-.132-.262-.147-.437-.147-1.756 0-1.595.054-1.902.382-2.16a.801.801 0 0 1 .424-.147c.13 0 .321.066.424.148zm8.559-.068c.082.043.209.216.282.384.274.63.253 3.149-.031 3.699-.081.156-.204.252-.4.31-.362.109-.637-.012-.848-.372-.138-.236-.15-.375-.15-1.794 0-1.697.057-2.014.391-2.195.235-.127.553-.141.756-.032zm-61.062.292c.152.181.19.302.19.619 0 .7-.188.904-.891.968l-.428.039v-1.851h.47c.434 0 .483.016.659.225zm11.108-.011c.188.188.214.266.214.643 0 .277-.042.488-.12.599-.153.219-.528.374-.903.374h-.296v-1.83h.446c.394 0 .469.024.659.214zm22.075 1.91V15.7l-.796.02-.797.021.048-.167c.295-1.03.407-1.894.409-3.155l.001-.79.568.021.567.021v2.014zm-6.008-.63c.143.642.259 1.21.259 1.264 0 .073-.14.098-.549.098-.479 0-.549-.017-.549-.13 0-.073.115-.654.256-1.293.141-.639.259-1.182.262-1.206.012-.093.07.137.321 1.268zm-97.624.147c-.51.226-.911.84-.913 1.398-.001.45.297 1.015.664 1.259.274.18.38.206.873.206s.596-.025.853-.203c.96-.665.85-2.084-.204-2.621-.326-.167-.943-.186-1.273-.04zm26.073.035c-.545.252-.842.745-.842 1.4 0 .845.636 1.464 1.501 1.464.874 0 1.504-.621 1.5-1.48-.002-.434-.181-.89-.448-1.134-.424-.39-1.171-.5-1.711-.25zm-13.589.224c-2.936.62-4.907 3.467-4.432 6.403.458 2.825 2.768 4.804 5.607 4.804 2.282 0 4.202-1.233 5.165-3.319.363-.784.492-1.407.49-2.355-.004-1.595-.54-2.893-1.642-3.973-.933-.915-1.766-1.354-3.021-1.595-.732-.14-1.39-.13-2.167.035zm100.965.548c.365.239.414 1.207.078 1.542-.166.166-.909.32-1.068.222-.086-.054-.105-1.814-.02-1.9.087-.09.817.01 1.01.136zm-98.703 1.887c1.297.415 2.209 1.704 2.209 3.125 0 .897-.283 1.607-.9 2.26-1.599 1.69-4.328 1.266-5.365-.833-.235-.475-.278-.641-.31-1.2-.04-.72.04-1.153.325-1.718a3.13 3.13 0 0 1 1.082-1.24c.93-.616 1.871-.742 2.959-.394zM.795 17.665c-.97.512-1.073 1.868-.195 2.566.297.236.83.33 1.338.235.317-.06.824-.495.962-.827.232-.553.07-1.362-.352-1.756-.442-.412-1.205-.507-1.753-.218zm4.584-.073c-.39.152-.596.337-.803.717-.172.317-.197.435-.17.804.037.52.312.964.757 1.222.403.234 1.206.208 1.584-.051.758-.52.91-1.54.336-2.238-.4-.485-1.128-.68-1.704-.454zm4.321.042c-.543.251-.916.813-.914 1.378 0 .465.306 1.012.705 1.265.472.3 1.136.314 1.61.036.36-.211.656-.659.726-1.1.183-1.14-1.068-2.07-2.127-1.58zm17.397-.058a1.485 1.485 0 0 0-.955 1.42c0 .497.125.805.45 1.113.315.298.561.389 1.06.389.919 0 1.538-.663 1.48-1.585-.037-.57-.304-.993-.786-1.248-.345-.182-.913-.223-1.25-.089zm4.407-.004c-1.099.44-1.3 1.914-.364 2.659.297.236.83.33 1.338.235.317-.06.824-.495.963-.827.232-.553.069-1.362-.353-1.756-.368-.343-1.131-.493-1.584-.311zm4.416.02c-.407.16-.618.355-.813.753-.363.742-.113 1.579.596 1.99.403.234 1.206.208 1.585-.051 1.228-.842.652-2.8-.819-2.782a1.904 1.904 0 0 0-.55.09zm94.148 1.44v.514h.878V18.52h-.878v.513zm1.391.004v.516l.494-.021.495-.022.021-.494.022-.495h-1.032v.516zm-76.332.877c-.49.124-.856.413-1.049.827-.097.21-.177.487-.178.618v.238h1.165l.073-.265c.114-.413.27-.54.663-.54.53 0 .625.11.625.724 0 .654-.139.827-.714.885l-.384.038-.022.458-.022.458h.242c.385 0 .783.14.897.315.295.45.166 1.328-.222 1.505-.229.104-.581.108-.767.009-.197-.105-.362-.455-.362-.764v-.26h-1.266l.04.439c.057.632.286 1.058.7 1.3.29.17.438.203 1.047.227 1.511.06 2.265-.556 2.26-1.85-.003-.701-.298-1.193-.831-1.386-.122-.044-.11-.07.103-.214.312-.212.528-.638.568-1.119.056-.677-.233-1.213-.814-1.51-.342-.174-1.3-.247-1.752-.133zm10.271.046c-.181.062-.44.217-.574.344-.567.537-.697 1.13-.653 2.984.037 1.564.12 1.893.598 2.37.366.366.72.48 1.48.48.961-.002 1.526-.365 1.832-1.177.09-.242.13-.655.156-1.621.048-1.861-.07-2.423-.63-3.008-.446-.466-1.446-.634-2.209-.372zm9.515-.007c-.606.187-1.009.72-1.159 1.532-.044.237-.08.93-.08 1.54s.036 1.303.08 1.54c.204 1.104.786 1.573 1.953 1.573.69 0 1.04-.104 1.405-.416.488-.418.605-.85.646-2.378.05-1.857-.09-2.506-.654-3.04-.46-.435-1.42-.588-2.19-.35zm25.591-.013c-.903.296-1.225.918-1.313 2.536-.055 1.012.062 2.163.268 2.63.345.78.904 1.07 1.974 1.018.558-.026.693-.06.998-.249.71-.438.96-1.38.883-3.326-.061-1.537-.305-2.134-1.026-2.5-.383-.196-1.341-.255-1.784-.11zm4.723-.003c-.679.192-1.057.623-1.137 1.298l-.042.362h1.18l.051-.238c.083-.393.299-.567.701-.567.292 0 .373.032.507.201.133.169.154.272.128.634-.041.566-.255.776-.793.776h-.363v.952h.239c.395.001.781.143.906.334.147.224.17.87.041 1.176-.148.35-.68.513-1.043.319-.196-.105-.362-.455-.362-.764v-.26h-1.266l.044.474c.06.642.26 1.01.687 1.26.292.171.447.206 1.015.231 1.506.066 2.215-.476 2.284-1.745.038-.707-.149-1.12-.627-1.382l-.317-.173.229-.139c.282-.172.586-.792.586-1.199.001-.669-.283-1.162-.828-1.44-.377-.192-1.327-.25-1.82-.11zm-45.782 1.788c-.04 1.82-.08 2.107-.391 2.857-.18.434-.203.457-.439.457h-.248v2.197h1.172v-1.171h2.93v1.171h1.099v-2.197h-.587v-5.053h-3.499l-.037 1.74zm9.762 1.303v3.043l.604-.022.604-.02.02-1.191.02-1.19h.451c1.063 0 1.768-.418 1.995-1.181.295-.993-.05-2.003-.798-2.343-.251-.114-.494-.135-1.596-.136l-1.3-.002v3.042zM78.672 23l.019 3.027h1.391c1.21 0 1.428-.018 1.666-.136.744-.37 1.099-1.247.857-2.118-.1-.36-.464-.77-.75-.844l-.226-.058.265-.164c.408-.253.59-.697.557-1.358-.022-.45-.06-.579-.231-.803-.372-.488-.501-.522-2.12-.548l-1.447-.024.019 3.026zm4.743-2.356v.66h.225c.216 0 .224.01.175.237-.053.25-.154.418-.309.517-.05.032-.091.188-.091.348 0 .347.136.38.516.124.45-.304.543-.563.571-1.611l.026-.934h-1.113v.66zm2.994-.558c-.71.254-1.022.717-1.074 1.593-.053.885.235 1.502.848 1.817.167.086.167.086-.458 1.282-.344.658-.626 1.216-.626 1.241 0 .025.297.045.659.045h.659l.586-1.172c.562-1.122.597-1.172.806-1.172h.22v2.35l.604-.022.604-.02.02-3.022.018-3.021-1.3.003c-.87.002-1.389.035-1.566.098zm6.453 2.938v3.04h1.1v-2.356c0-1.296.016-2.34.036-2.32.032.033 1.062 4.53 1.062 4.64 0 .023.222.033.494.02l.494-.02.513-2.293.513-2.292.019 2.31.02 2.31h1.169v-6.078h-.91c-.803 0-.916.015-.951.128-.022.07-.207.952-.41 1.96a76.223 76.223 0 0 1-.417 1.977c-.026.086-.189-.56-.396-1.575a404.36 404.36 0 0 0-.433-2.106l-.082-.384h-1.82v3.04zm18.262-2.984c.018.03.4 1.038.848 2.239l.815 2.184-.16.284c-.174.31-.478.465-.768.393-.17-.043-.174-.034-.174.44v.484h.551c.304 0 .66-.045.791-.1.28-.117.594-.467.754-.843.115-.266 1.712-5.029 1.712-5.103 0-.021-.288-.03-.641-.018l-.641.022-.401 1.407c-.221.774-.423 1.384-.45 1.355-.027-.029-.137-.35-.245-.712-.108-.362-.296-.98-.416-1.373l-.22-.714h-.694c-.382 0-.68.025-.661.055zm5.028 2.984v3.04h1.172v-.865c0-.838.007-.875.224-1.217.122-.194.246-.33.274-.301.028.028.315.567.637 1.198l.586 1.148.678.021c.372.012.677-.007.677-.042s-.401-.816-.891-1.736c-.866-1.624-.889-1.679-.78-1.862.062-.104.342-.552.623-.995l.707-1.117.196-.311-.678.001-.678.002-.733 1.169c-.402.643-.757 1.17-.787 1.17-.03.001-.055-.526-.055-1.17v-1.172h-1.172v3.04zm4.907 0v3.04h1.245v-2.397l.644-.037c.765-.043 1.196-.21 1.531-.591a1.68 1.68 0 0 0 .311-.544c.099-.357.098-1.077-.002-1.438-.104-.377-.598-.904-.936-.997-.146-.04-.835-.074-1.529-.075h-1.264v3.04zm5.459-2.508c-.074.292-.426 1.626-.783 2.963-.356 1.338-.648 2.468-.648 2.512 0 .051.219.071.636.057l.636-.02.117-.55c.064-.302.143-.59.174-.641.04-.064.289-.092.821-.092.866 0 .757-.093.934.806l.094.476.638.021c.43.015.638-.005.638-.06 0-.044-.346-1.392-.769-2.993a194.555 194.555 0 0 1-.769-2.962c0-.026-.357-.048-.792-.048h-.791l-.136.53zm4.135 2.508v3.04h1.246v-6.079h-1.246v3.04zm2.491 0v3.04h1.168l.02-1.337.02-1.337.714-.02.714-.021v2.715h1.245v-6.079h-1.245v2.27h-1.465v-2.27h-1.171v3.04zm5.053.003v3.042l.675-.02.676-.022.533-1.391a319.9 319.9 0 0 1 .734-1.905l.202-.512.019 1.922.02 1.923h1.169v-6.079h-.68c-.673 0-.68.002-.758.201L140.1 22c-.334.886-.636 1.643-.67 1.68-.034.04-.061-.777-.061-1.812v-1.882h-1.172v3.042zm-71.499-2.072c.267.286.327.741.299 2.263-.022 1.175-.049 1.458-.154 1.653-.152.28-.328.387-.64.387-.546 0-.716-.297-.807-1.414-.037-.451-.05-1.1-.028-1.442.08-1.277.254-1.611.836-1.611.259 0 .378.04.494.164zm9.587.114c.218.325.265.788.233 2.295-.036 1.627-.153 1.894-.828 1.894-.327 0-.58-.231-.691-.631-.103-.37-.102-2.835 0-3.214.13-.477.325-.633.758-.607.321.019.385.05.528.263zm25.472-.106c.274.274.354.853.317 2.312-.034 1.311-.082 1.57-.347 1.834-.2.2-.652.2-.906-.001-.306-.24-.375-.626-.377-2.12-.001-1.141.02-1.41.133-1.703.158-.41.27-.49.693-.492.235-.002.358.041.487.17zm-30.427-.006c.535.268.582 1.365.07 1.63-.115.06-.375.108-.579.108h-.37v-1.831h.349c.19.002.43.043.53.093zm9.722.162c.124.144.166.284.166.558 0 .464-.203.691-.678.763-.598.09-.601.086-.625-.693-.012-.379-.003-.737.02-.796.032-.085.137-.099.496-.066.372.034.486.077.621.234zm6.96.715l-.02.97-.22.02a2.25 2.25 0 0 1-.586-.073c-.304-.077-.387-.136-.494-.35-.149-.297-.166-.835-.034-1.098.13-.26.533-.439.988-.439h.387l-.02.97zm35.162-.889c.305.106.449.398.449.91 0 .357-.029.44-.214.626-.19.19-.265.214-.66.214h-.445v-1.831h.319c.175 0 .423.036.551.081zm-61.382 2.061l.02 2.032h-1.6l.137-.457c.182-.609.287-1.58.288-2.661 0-.487.024-.909.052-.937.029-.028.284-.042.568-.03l.516.02.02 2.033zm65.925-.66c.137.655.264 1.232.282 1.283.025.068-.118.091-.568.091-.457 0-.593-.022-.566-.093.02-.052.146-.628.281-1.282.135-.653.262-1.188.284-1.188.021 0 .15.535.287 1.19zm-122.41-.318c-1.503.696-1.024 2.885.631 2.888a1.494 1.494 0 0 0 1.457-1.847c-.222-.928-1.239-1.435-2.089-1.041zm26.035.034c-.475.242-.751.668-.791 1.218-.038.53.062.818.418 1.194.713.754 1.948.545 2.436-.411.222-.436.167-1.111-.125-1.526a1.545 1.545 0 0 0-1.242-.644c-.237 0-.482.06-.696.169zm49.611 1.362c.251.096.411.435.411.874 0 .516-.191.72-.778.827-.693.127-.687.135-.687-.89v-.881h.435c.24 0 .518.032.619.07zM18.465 26.22c-.134.039-.384.212-.557.384-.812.813-.487 2.158.61 2.526.336.112.587.105.968-.03 1.316-.464 1.348-2.307.049-2.85-.302-.125-.699-.137-1.07-.03zm-8.755.098c-1.076.383-1.332 1.816-.461 2.581.651.572 1.75.441 2.226-.266.844-1.252-.35-2.82-1.765-2.316zm17.503 0c-.344.123-.759.504-.896.824-.056.13-.101.412-.101.629 0 1.34 1.585 2 2.562 1.066.305-.291.44-.629.44-1.094 0-.465-.15-.795-.515-1.123-.432-.392-.947-.496-1.49-.302zm-13.154 4.31c-.14.044-.391.217-.557.383a1.499 1.499 0 0 0 .733 2.528c1.505.337 2.496-1.453 1.407-2.541-.433-.433-.982-.562-1.583-.37zm4.473-.012c-1.09.314-1.437 1.71-.626 2.522.589.589 1.445.623 2.061.081.895-.785.601-2.247-.519-2.58-.41-.122-.559-.125-.916-.023zm4.351.004a1.522 1.522 0 0 0-.796 2.234c.642 1.039 2.17.947 2.674-.161.54-1.19-.649-2.503-1.878-2.073zm-4.241 4.388c-.601.14-1.05.605-1.178 1.22-.174.837.598 1.767 1.472 1.772.646.003 1.115-.285 1.396-.859.162-.33.184-.453.148-.804a1.506 1.506 0 0 0-1.838-1.33z" fill="#000"/></svg>