<svg width="115" height="21" viewBox="0 0 115 21" fill="none" xmlns="http://www.w3.org/2000/svg"><path fill-rule="evenodd" clip-rule="evenodd" d="M8.681.037c-.02.02-.167.059-.326.085-.583.096-.647.111-.677.159-.017.027-.103.049-.192.049-.09 0-.162.025-.162.055S7.249.44 7.158.44c-.09 0-.165.025-.165.055S6.92.55 6.828.55c-.09 0-.165.025-.165.055S6.626.66 6.582.66a.87.87 0 0 0-.277.11.87.87 0 0 1-.277.11c-.045 0-.08.025-.08.056-.001.03-.05.055-.111.055-.06 0-.11.018-.11.041 0 .023-.186.138-.413.256-.227.119-.413.236-.413.262 0 .026-.033.046-.072.046-.04 0-.126.05-.19.11-.066.061-.147.11-.182.11-.034 0-.132.075-.217.166-.085.09-.17.165-.188.165-.09 0-1.684 1.564-1.684 1.654 0 .025-.031.078-.069.118-.038.04-.142.172-.232.293-.09.121-.194.251-.23.29a.536.536 0 0 0-.103.178c-.019.06-.057.11-.086.11-.028 0-.051.05-.051.11 0 .061-.025.11-.055.11s-.055.038-.055.083c0 .046-.025.083-.055.083s-.055.037-.055.082c0 .046-.025.083-.055.083s-.056.036-.056.08a.87.87 0 0 1-.11.278.87.87 0 0 0-.11.277c0 .044-.025.08-.055.08s-.055.05-.055.11c0 .061-.019.111-.041.111-.023 0-.07.08-.103.179a26.82 26.82 0 0 1-.206.564c-.08.212-.145.441-.145.51 0 .068-.025.124-.056.124-.03 0-.055.099-.055.22s-.022.22-.05.22c-.052 0-.1.314-.149.978-.016.22-.052.399-.08.399-.03 0-.051.456-.051 1.074 0 .615.022 1.073.05 1.073.028 0 .065.168.081.372.053.661.099.95.15.95.027 0 .05.099.05.22s.024.22.054.22.056.056.056.125c0 .068.065.297.145.509.08.212.172.466.206.564.033.099.08.18.103.18.022 0 .041.049.041.11 0 .06.025.11.055.11s.055.047.055.106.025.122.055.141c.03.019.055.082.055.141 0 .059.025.107.055.107s.055.05.055.11.025.11.056.11c.03 0 .055.037.055.083 0 .045.024.082.055.082.03 0 .055.037.055.083 0 .045.025.083.055.083s.055.05.055.11.023.11.051.11c.029 0 .067.05.086.11.02.06.065.14.1.179.036.038.213.267.394.51.334.447 1.581 1.734 1.681 1.734.03 0 .056.025.056.055s.027.055.06.055.13.074.215.165c.085.091.189.165.23.165.042 0 .112.05.155.11.044.061.124.11.178.11.054 0 .098.021.098.047s.186.143.413.262c.227.118.413.233.413.256 0 .023.05.041.11.041s.11.025.11.055.05.056.11.056.11.024.11.055c0 .03.048.055.107.055s.122.024.141.055c.019.03.082.055.141.055.059 0 .107.024.107.055 0 .03.074.055.165.055.09 0 .165.025.165.055s.075.055.165.055c.091 0 .166.025.166.055s.073.055.162.055c.089 0 .175.022.192.05.016.026.11.062.21.08.098.017.315.06.482.097.418.092 3.932.092 4.35 0 .167-.036.384-.08.482-.098.1-.017.194-.053.21-.08.017-.027.103-.049.192-.049.09 0 .162-.025.162-.055s.075-.055.165-.055c.091 0 .166-.025.166-.055s.074-.055.165-.055c.09 0 .165-.025.165-.055s.047-.055.105-.055c.058 0 .2-.047.317-.105.665-.328 1.04-.523 1.065-.551.045-.053.35-.23.454-.263.053-.016.097-.052.097-.079 0-.027.037-.049.082-.049.046 0 .083-.024.083-.055 0-.03.037-.055.082-.055.046 0 .083-.024.083-.055 0-.03.026-.055.057-.055.032 0 .12-.062.196-.137.075-.076.16-.138.188-.138.028 0 .134-.08.235-.18.453-.438.475-.451.856-.493.638-.069.862-.108.916-.159.028-.027.109-.05.179-.05.07 0 .126-.024.126-.054s.062-.055.138-.055c.076 0 .137-.025.137-.055s.037-.055.08-.055c.119 0 .73-.595.907-.883.204-.33.37-.824.424-1.265.069-.558.05-8.23-.021-8.59-.097-.488-.133-.606-.184-.606-.027 0-.05-.05-.05-.11s-.022-.11-.05-.11c-.029 0-.07-.055-.09-.121-.049-.154-.634-.737-.789-.786-.064-.02-.116-.06-.116-.088 0-.028-.036-.051-.08-.051-.043 0-.094-.05-.113-.11-.02-.061-.056-.11-.083-.11-.026 0-.062-.047-.08-.104a.794.794 0 0 0-.128-.217 9.041 9.041 0 0 1-.315-.427c-.19-.27-.345-.45-.95-1.097-.248-.266-.837-.794-.957-.857a.927.927 0 0 1-.22-.17c-.048-.056-.116-.102-.15-.102-.035 0-.063-.025-.063-.055s-.037-.055-.083-.055c-.045 0-.082-.025-.082-.055s-.037-.055-.083-.055c-.045 0-.082-.022-.082-.049 0-.027-.044-.062-.097-.08-.102-.032-.408-.208-.454-.261-.054-.062-.796-.436-.866-.436-.039 0-.07-.025-.07-.055s-.05-.056-.11-.056-.11-.024-.11-.055c0-.03-.075-.055-.166-.055-.09 0-.165-.024-.165-.055 0-.03-.062-.055-.138-.055-.075 0-.137-.025-.137-.055S14.077.44 13.987.44c-.091 0-.166-.025-.166-.055S13.75.33 13.66.33c-.089 0-.175-.022-.192-.05-.017-.026-.136-.064-.265-.083a171.2 171.2 0 0 0-.454-.067c-.121-.017-.244-.054-.273-.081-.06-.057-3.737-.069-3.794-.012zm71.012 2.807c-.054.022-.069.811-.069 3.685 0 2.402-.018 3.658-.055 3.658-.03 0-.055-.038-.055-.085 0-.122-.391-.962-.448-.962-.026 0-.047-.044-.047-.098 0-.053-.05-.133-.11-.177-.061-.044-.11-.111-.11-.15 0-.038-.025-.07-.056-.07a.056.056 0 0 1-.055-.056c0-.072-.645-.715-.717-.715a.055.055 0 0 1-.054-.055c0-.03-.031-.055-.07-.055-.039 0-.106-.05-.15-.11s-.123-.11-.177-.11c-.054 0-.098-.025-.098-.056 0-.03-.05-.055-.11-.055s-.11-.024-.11-.055c0-.03-.045-.055-.1-.055a.248.248 0 0 1-.151-.051c-.029-.029-.25-.107-.493-.174-.716-.198-1.79-.17-2.643.072a1.075 1.075 0 0 0-.273.108.27.27 0 0 1-.151.045c-.055 0-.1.025-.1.055s-.043.055-.097.055c-.054 0-.134.05-.177.11-.044.061-.124.11-.178.11-.054 0-.098.021-.098.046 0 .026-.068.081-.151.123-.203.104-1.005.9-1.005.997 0 .042-.05.113-.11.156-.06.044-.11.124-.11.178 0 .053-.025.098-.055.098s-.056.05-.056.11-.019.11-.043.11c-.023 0-.075.118-.114.261-.04.144-.093.324-.119.4-.142.422-.164 1.046-.164 4.754v3.89h2.368v-1.789c0-1.156.02-1.79.055-1.79.03 0 .055.02.056.042 0 .05.767.416 1.07.511.31.098 1.628.085 2.013-.019.453-.123.936-.314.936-.372 0-.028.038-.051.085-.051.046 0 .138-.05.203-.11.065-.061.15-.11.19-.11.04 0 .072-.025.072-.056 0-.03.026-.055.056-.055.073 0 .88-.807.88-.88 0-.03.021-.056.046-.056.025 0 .081-.068.124-.151.043-.084.091-.164.107-.18.075-.071.377-.708.41-.866.096-.455.139-.071.152 1.376l.015 1.556 1.17.015 1.168.014.018-2.713c.018-2.713.035-2.97.225-3.334.112-.215.406-.507.51-.507.042 0 .075-.025.075-.056 0-.032.202-.055.496-.055.293 0 .495.023.495.055 0 .03.028.056.063.056.09 0 .323.286.323.399 0 .053.025.096.055.096s.055.062.055.138c0 .076.025.137.055.137s.055.087.055.193c0 .106.025.193.055.193s.055.074.055.165c0 .091.025.165.055.165s.055.075.055.165c0 .091.025.166.055.166s.056.041.056.092c0 .09.08.373.169.596.143.359.546 1.638.546 1.732 0 .062.025.113.055.113s.055.074.055.165c0 .09.025.165.055.165s.056.073.056.162c0 .09.024.177.055.196.03.019.055.107.055.196 0 .09.025.162.055.162s.055.074.055.165c0 .091.025.165.055.165s.055.075.055.165c0 .091.025.166.055.166s.055.076.055.169c0 .313.05.326 1.221.325.592 0 1.101-.024 1.147-.054.055-.035.06-.053.014-.054-.038 0-.07-.063-.07-.14a.568.568 0 0 0-.053-.233c-.03-.053-.216-.591-.414-1.197-.198-.606-.384-1.145-.414-1.197a.565.565 0 0 1-.054-.234c0-.076-.025-.138-.055-.138s-.055-.075-.055-.166c0-.09-.025-.165-.055-.165s-.056-.074-.056-.165c0-.091-.024-.165-.055-.165-.03 0-.055-.075-.055-.165 0-.091-.025-.166-.055-.166s-.055-.073-.055-.162c0-.089-.025-.177-.055-.196-.03-.018-.055-.09-.055-.157 0-.068-.02-.147-.045-.176-.024-.028-.191-.498-.37-1.043-.179-.545-.345-1-.368-1.01-.024-.01-.043-.066-.043-.124 0-.058-.025-.105-.055-.105s-.055-.062-.055-.138c0-.076-.025-.138-.055-.138s-.055-.044-.055-.098c0-.053-.05-.133-.11-.177-.06-.044-.11-.112-.11-.152 0-.085-.357-.454-.44-.454-.03 0-.056-.022-.056-.049 0-.027-.167-.13-.372-.23-.468-.226-1.059-.28-1.512-.14-.358.113-.835.322-.86.378-.01.023-.054.041-.096.041-.043 0-.079.025-.079.055s-.037.056-.082.056c-.046 0-.083.024-.083.055 0 .03-.025.055-.055.055-.036 0-.055-.845-.055-2.423V2.808l-1.115.004c-.613.003-1.146.017-1.184.032zM29.515 5.258c0 1.56-.02 2.396-.055 2.396a.055.055 0 0 1-.055-.055c0-.03-.037-.055-.083-.055-.045 0-.082-.025-.082-.056 0-.03-.037-.055-.083-.055-.045 0-.082-.024-.082-.055 0-.03-.05-.055-.11-.055-.061 0-.11-.022-.11-.048 0-.051-.017-.056-.634-.195-.448-.101-1.342-.114-1.72-.025-.56.131-.73.184-.73.225 0 .024-.049.043-.107.043-.06 0-.123.025-.141.055-.019.03-.082.055-.141.055-.059 0-.107.025-.107.055s-.037.056-.083.056c-.045 0-.082.024-.082.055 0 .03-.037.055-.083.055-.045 0-.082.024-.082.055 0 .03-.038.055-.084.055-.077 0-.797.673-.797.745a.63.63 0 0 1-.134.164.786.786 0 0 0-.169.245c-.02.062-.054.112-.076.112-.023 0-.114.155-.203.344-.09.19-.18.353-.203.363-.023.01-.041.078-.041.151 0 .074-.023.133-.05.133-.082 0-.129.43-.129 1.184 0 .743.044 1.174.13 1.264a.3.3 0 0 1 .049.169c0 .064.05.219.11.344.06.125.11.256.11.29 0 .034.03.095.069.136.037.041.155.229.261.417.19.337.928 1.152 1.043 1.152.032 0 .059.025.059.055s.037.056.082.056c.045 0 .083.024.083.055 0 .03.037.055.082.055.046 0 .083.018.083.04 0 .049.19.147.578.3.91.359 2.203.359 3.15 0 .357-.135.896-.44 1.014-.571.049-.055.118-.1.153-.1.078 0 .473-.39.695-.688a6.47 6.47 0 0 1 .26-.327c.054-.059.097-.14.097-.18 0-.039.022-.071.048-.071.027 0 .08-.075.117-.166.038-.09.09-.165.117-.165.027 0 .048-.05.048-.11s.016-.11.036-.11c.069 0 .181.195.183.317 0 .068.023.124.05.124.027 0 .08.074.117.165.037.09.088.165.113.165.024 0 .06.048.079.107.045.143.936 1.05 1.03 1.05.042 0 .11.049.154.11.044.06.124.11.178.11.054 0 .098.018.098.041 0 .083.66.346 1.266.506.286.075 1.492.051 1.864-.037.26-.062 1.181-.498 1.21-.574.01-.026.054-.046.097-.046.043 0 .078-.025.078-.056 0-.03.037-.055.083-.055.045 0 .082-.024.082-.055 0-.03.037-.055.083-.055.07 0 .082-.162.082-1.125 0-.62-.021-1.14-.048-1.156-.027-.017-.142.044-.255.134-.114.09-.227.165-.252.165-.025 0-.107.062-.183.138-.076.075-.176.137-.223.137-.046 0-.085.025-.085.055s-.05.055-.11.055-.11.025-.11.055-.05.055-.11.055-.11.025-.11.055-.075.056-.166.056c-.09 0-.165.024-.165.055 0 .03-.122.055-.272.055-.15 0-.287.024-.306.055-.044.072-.688.072-.688 0 0-.03-.072-.055-.159-.055-.087 0-.188-.036-.225-.08-.055-.067.011-.158.38-.521.244-.243.444-.455.444-.472 0-.056.602-.634.66-.634.03 0 .056-.023.056-.05 0-.027.589-.646 1.308-1.375 1.45-1.47 1.445-1.466 1.445-1.546 0-.075-.967-1.05-1.042-1.05-.032 0-.059-.024-.059-.054s-.037-.055-.082-.055c-.046 0-.083-.025-.083-.055s-.037-.055-.083-.055c-.045 0-.082-.025-.082-.055s-.05-.055-.11-.055-.11-.025-.11-.056c0-.03-.05-.055-.11-.055-.061 0-.11-.024-.11-.055 0-.03-.048-.055-.106-.055-.058 0-.114-.02-.124-.046-.01-.025-.224-.1-.474-.165-.569-.149-1.449-.162-1.923-.03a7.305 7.305 0 0 1-.472.116c-.083.015-.165.05-.182.077-.017.026-.078.048-.137.048-.059 0-.107.025-.107.055s-.05.055-.11.055-.11.025-.11.055-.05.056-.11.056-.11.024-.11.055c0 .03-.032.055-.07.055-.04 0-.107.05-.15.11-.044.06-.114.11-.156.11-.113 0-.545.497-1 1.15-.044.064-.1.116-.123.116-.024 0-.043-1.412-.043-3.138V2.863h-2.313v2.395zm33.865-1.79c0 .031-.05.056-.112.056-.115 0-.494.336-.494.438 0 .032-.018.057-.041.057-.05 0-.179.395-.179.551 0 .156.128.55.179.55.023 0 .041.034.041.075 0 .116.437.531.559.531.037 0 .147.03.246.065.146.053.23.048.46-.026.156-.05.318-.123.36-.161l.15-.132c.34-.299.456-.795.295-1.258-.098-.284-.463-.686-.624-.688-.068-.001-.124-.027-.124-.057 0-.031-.156-.055-.358-.055-.202 0-.358.024-.358.055zm-49.497.672c.117.066.214.152.214.192 0 .04.024.073.055.073.03 0 .055.037.055.082 0 .046.025.083.055.083s.055.044.055.098c0 .054.05.134.11.177.06.044.11.124.11.178 0 .054.025.098.055.098s.056.03.057.068c0 .038.085.184.188.324l.187.255 1.914.023c1.433.017 1.92.039 1.936.089.013.037.082.067.156.067.073 0 .133.024.133.055 0 .03.038.055.084.055.109 0 .576.467.576.577 0 .046.025.084.056.084.03 0 .055.061.055.137 0 .076.024.138.055.138s.055.174.055.413c0 .238.023.413.055.413.036 0 .055 1.266.055 3.69 0 2.422-.019 3.689-.055 3.689-.031 0-.055.156-.055.357 0 .202-.024.358-.055.358-.03 0-.055.05-.055.11 0 .061-.025.11-.055.11s-.056.04-.056.087c0 .194-.636.608-1.128.737-.31.08-12.94.08-13.376-.001-.473-.087-.969-.408-.969-.627 0-.047-.025-.085-.055-.085s-.055-.075-.055-.165c0-.091-.025-.166-.055-.166-.036 0-.055-1.486-.055-4.35 0-2.863.019-4.35.055-4.35.03 0 .055-.087.055-.193 0-.106.025-.192.055-.192s.055-.05.055-.11c0-.061.019-.11.042-.11.023 0 .074-.075.115-.166.04-.09.108-.165.15-.165.044 0 .079-.025.079-.055s.037-.055.082-.055c.046 0 .083-.019.083-.042 0-.023.08-.074.179-.113.098-.04.228-.1.289-.133.07-.04.725-.073 1.79-.093 1.674-.032 1.68-.032 1.733-.156.03-.068.074-.124.097-.124.023 0 .042-.022.042-.048 0-.05.343-.65.43-.754.028-.032.082-.117.12-.188.083-.155.265-.343.415-.43.075-.044.66-.064 1.89-.065 1.732-.002 1.789.002 1.997.119zm54.288.595c0 .03-.062.055-.138.055-.076 0-.138.025-.138.055s-.074.055-.165.055c-.09 0-.165.025-.165.055s-.074.056-.165.056c-.091 0-.165.024-.165.055 0 .03-.057.055-.127.055s-.15.02-.179.043a1.252 1.252 0 0 1-.273.115 5 5 0 0 0-.399.152l-.179.08v1.427h-.55V9.36h.55v2.199c0 1.407.02 2.212.055 2.233.03.02.056.103.056.186 0 .148.215.653.346.814.404.495.792.753 1.43.953.284.09 1.537.09 1.927.002l.316-.072v-1.093c0-.692-.02-1.092-.055-1.092a.055.055 0 0 0-.055.055c0 .03-.072.055-.16.055-.089 0-.17.026-.18.058-.012.035-.212.061-.489.065-.388.005-.49-.012-.595-.1-.278-.233-.283-.27-.283-2.3 0-1.679.01-1.9.087-1.93.048-.018.457-.033.909-.033h.821V6.938h-1.707V4.68h-.165c-.09 0-.165.025-.165.055zm30.561 0c0 .03-.062.055-.138.055-.075 0-.137.025-.137.055s-.062.055-.138.055c-.076 0-.138.025-.138.055s-.062.056-.137.056c-.076 0-.138.024-.138.055 0 .03-.06.055-.134.055-.074 0-.15.024-.169.055-.018.03-.08.055-.136.055-.056 0-.11.018-.12.041-.01.023-.13.08-.267.129l-.248.088-.015.721-.015.722-.288.017-.287.016-.015 1.198-.015 1.198h.608l.002 2.188c.002 2.098.035 2.603.179 2.747.021.021.039.084.039.14 0 .055.025.1.055.1s.055.04.055.086c0 .134.638.727.954.889.634.323 1.647.4 2.57.193l.193-.043.015-1.085c.013-.941.004-1.085-.069-1.085-.046 0-.084.024-.084.055 0 .03-.062.055-.137.055-.076 0-.138.021-.138.048 0 .044-.511.149-.633.13-.35-.057-.553-.187-.67-.43-.03-.062-.042-.917-.03-2.047l.022-1.941h1.752V8.183c0-1.024-.012-1.183-.088-1.212-.047-.018-.444-.033-.88-.033h-.794V4.68h-.193c-.106 0-.193.025-.193.055zM11.702 7c-.213.02-.498.066-.634.102a9.512 9.512 0 0 1-.4.094c-.082.017-.15.053-.15.08 0 .026-.05.048-.11.048-.061 0-.11.025-.11.055s-.05.055-.11.055c-.062 0-.111.025-.111.055s-.05.056-.11.056-.11.024-.11.055c0 .03-.044.055-.098.055-.054 0-.134.05-.178.11-.043.06-.098.11-.122.11-.024 0-.16.111-.305.247-.143.136-.28.248-.302.248-.023 0-.042.038-.042.083 0 .046-.024.083-.055.083-.03 0-.055.027-.055.06s-.074.13-.165.215c-.09.085-.165.194-.165.242 0 .049-.025.088-.055.088s-.055.05-.055.11c0 .061-.019.11-.042.11-.106 0-.375.835-.478 1.485-.085.535-.085.616-.001 1.154.086.546.254 1.124.362 1.241a.259.259 0 0 1 .049.152c0 .054.024.099.055.099.03 0 .055.05.055.11s.02.11.046.11c.025 0 .08.068.123.151a.98.98 0 0 0 .175.24c.053.05.096.106.096.126 0 .059.599.64.66.64.03 0 .056.019.056.043 0 .024.143.128.317.232.174.104.329.204.344.221.042.048.653.275.965.358.604.16 1.513.154 2.256-.017.283-.065 1.019-.397 1.019-.46 0-.026.044-.047.098-.047.054 0 .134-.05.177-.11.044-.061.114-.11.156-.11.041 0 .145-.075.23-.166.085-.09.175-.165.202-.165.026 0 .096-.066.156-.147.06-.08.14-.178.179-.216.037-.038.069-.096.069-.129 0-.032.024-.059.055-.059.03 0 .055-.031.055-.07 0-.039.05-.106.11-.15s.11-.123.11-.177c0-.054.025-.098.055-.098s.055-.05.055-.11c0-.061.025-.11.055-.11s.055-.05.055-.11c0-.061.02-.11.043-.11.047 0 .194-.469.293-.934.1-.47.037-1.656-.11-2.095-.132-.395-.34-.844-.405-.872-.023-.01-.041-.066-.041-.124 0-.058-.025-.106-.055-.106s-.055-.037-.055-.082c0-.046-.025-.083-.055-.083a.055.055 0 0 1-.055-.054c0-.134-.928-1.047-1.064-1.047-.038 0-.104-.05-.148-.11-.043-.06-.123-.11-.177-.11-.054 0-.098-.025-.098-.056 0-.03-.05-.055-.11-.055s-.11-.024-.11-.055c0-.03-.045-.055-.1-.055a.27.27 0 0 1-.151-.045c-.063-.055-.39-.15-.768-.224A4.376 4.376 0 0 0 11.701 7zm31.414.052c-.463.127-.636.184-.685.227a.27.27 0 0 1-.152.045c-.054 0-.099.025-.099.055s-.045.055-.1.055c-.055 0-.153.05-.218.11-.065.061-.15.11-.19.11-.04 0-.11.05-.153.11-.043.061-.11.11-.149.11-.067 0-.547.415-.727.628a7.261 7.261 0 0 1-.266.287c-.099.1-.18.222-.18.268 0 .046-.024.084-.054.084s-.056.05-.056.11c0 .061-.024.11-.055.11-.03 0-.055.05-.055.11 0 .061-.024.11-.055.11-.03 0-.055.063-.055.139 0 .075-.024.137-.055.137-.03 0-.055.07-.055.156s-.018.175-.041.197c-.141.141-.17.933-.175 4.672l-.004 3.896h2.368v-1.79c0-.984.01-1.79.024-1.79.013 0 .143.074.289.165.145.09.438.228.65.307.348.13.462.143 1.157.144.51 0 .874-.027 1.078-.082.327-.087 1.002-.405 1.032-.485.01-.027.054-.048.096-.048.086 0 .179-.071.591-.455.155-.144.302-.261.325-.261.024 0 .044-.026.044-.058 0-.031.056-.115.124-.186.225-.233.29-.33.552-.839.143-.277.26-.562.261-.633l.002-.129.107.138a.53.53 0 0 1 .11.261c0 .069.025.124.055.124s.055.05.055.11.025.11.056.11c.03 0 .055.05.055.11 0 .061.024.11.055.11.03 0 .055.05.055.11 0 .061.025.111.055.111s.055.037.055.083c0 .045.025.082.055.082s.055.025.055.056c0 .084.572.715.65.715.022 0 .077.05.12.11.044.06.119.11.166.11.047 0 .122.05.165.11.044.061.124.11.178.11.053 0 .098.022.098.048 0 .04.226.151.798.392.402.17 1.744.21 2.322.072.28-.066 1.23-.512 1.23-.576 0-.025.033-.045.074-.045.041 0 .152-.075.248-.166a.982.982 0 0 1 .202-.165c.054 0 .522-.492.522-.55 0-.03.025-.056.055-.056s.055-.037.055-.082c0-.046.025-.083.055-.083s.055-.035.055-.078.02-.086.045-.096c.082-.034.484-.894.575-1.23.165-.61.214-1.124.152-1.57-.071-.503-.216-1.11-.282-1.18a.257.257 0 0 1-.05-.152c0-.054-.024-.1-.054-.1s-.055-.049-.055-.11c0-.06-.025-.11-.055-.11s-.056-.043-.056-.097c0-.054-.049-.134-.11-.178-.06-.043-.11-.118-.11-.165 0-.047-.05-.121-.11-.165-.06-.044-.11-.105-.11-.136 0-.097-.831-.855-.937-.855a.055.055 0 0 1-.054-.055c0-.03-.037-.055-.083-.055-.045 0-.082-.025-.082-.055s-.05-.055-.11-.055c-.061 0-.11-.025-.11-.056 0-.03-.05-.055-.11-.055-.061 0-.11-.024-.11-.055 0-.03-.058-.055-.128-.055s-.15-.02-.178-.047a1.135 1.135 0 0 0-.3-.11c-.908-.235-1.993-.147-2.712.219a.48.48 0 0 1-.179.048c-.046 0-.083.025-.083.055s-.05.056-.11.056-.11.024-.11.055c0 .03-.044.055-.098.055-.054 0-.134.05-.178.11-.043.06-.1.11-.126.11-.053 0-.076.02-.507.44-.171.167-.352.371-.401.455-.05.083-.11.151-.134.151-.024 0-.043.044-.043.098 0 .054-.05.134-.11.177-.06.044-.11.124-.11.178 0 .054-.025.098-.055.098s-.056.062-.056.137c0 .076-.024.138-.055.138-.03 0-.055.058-.055.13a.36.36 0 0 1-.11.228c-.107.097-.11.096-.11-.02 0-.144-.459-1.074-.61-1.236-.058-.062-.106-.136-.106-.164 0-.027-.074-.12-.165-.204-.09-.085-.165-.182-.165-.215s-.019-.061-.042-.062c-.022 0-.131-.081-.242-.179-.34-.301-.431-.37-.488-.37a.055.055 0 0 1-.054-.055c0-.03-.05-.055-.11-.055s-.11-.025-.11-.056c0-.03-.05-.055-.11-.055-.061 0-.11-.024-.11-.055 0-.03-.05-.055-.11-.055-.061 0-.111-.022-.111-.049 0-.026-.068-.062-.151-.079a8.728 8.728 0 0 1-.4-.096c-.316-.083-1.673-.117-1.927-.048zm16.217.002c-.411.091-.802.226-.879.303a.275.275 0 0 1-.163.077c-.048 0-.087.025-.087.055s-.027.056-.06.056c-.088 0-.53.482-.613.668-.038.086-.088.158-.111.158-.023 0-.042.037-.042.082 0 .046-.025.083-.055.083s-.055.062-.055.137c0 .076-.025.138-.055.138s-.055.1-.055.22c0 .121-.025.22-.055.22-.033 0-.055.192-.055.465 0 .256.024.48.055.5.03.018.055.119.055.223 0 .104.024.19.055.19.03 0 .055.049.055.11 0 .06.025.11.055.11s.055.049.055.11c0 .06.025.11.055.11s.056.03.056.069c.002.086.567.646.652.646.035 0 .063.025.063.056 0 .03.05.055.11.055s.11.024.11.055c0 .03.05.055.11.055.061 0 .11.025.11.055s.05.055.11.055c.061 0 .11.025.11.055s.05.055.112.055c.06 0 .154.023.206.05.053.028.182.09.288.138.253.114.441.277.441.382 0 .046.025.1.055.118.03.02.055.107.055.196 0 .09-.025.162-.055.162s-.055.04-.055.087c0 .111-.133.244-.244.244-.047 0-.086.024-.086.055 0 .03-.1.055-.22.055-.122 0-.22-.025-.22-.055s-.048-.055-.106-.055c-.097 0-.568-.427-.878-.796l-.13-.155-.138.159a7.881 7.881 0 0 0-.283.351 3.52 3.52 0 0 1-.285.33 2.87 2.87 0 0 0-.274.331 2.846 2.846 0 0 1-.206.267c-.103.107-.034.273.214.51.117.113.213.24.213.28 0 .042.073.119.163.172.09.053.2.133.245.178.124.124.752.444.968.492.276.063 1.255.057 1.515-.008.202-.051.502-.193.767-.364.206-.132.802-.755.802-.838 0-.046.019-.083.042-.083.023 0 .074-.08.115-.18l.118-.288c.192-.472.253-.98.164-1.377a26.135 26.135 0 0 1-.09-.427c-.017-.083-.053-.151-.08-.151-.027 0-.049-.05-.049-.11s-.024-.11-.055-.11c-.03 0-.055-.045-.055-.098 0-.054-.05-.134-.11-.178-.06-.043-.11-.1-.11-.127 0-.076-.504-.534-.587-.534-.04 0-.074-.024-.074-.055 0-.03-.037-.055-.082-.055-.046 0-.083-.024-.083-.055 0-.03-.05-.055-.11-.055s-.11-.025-.11-.055-.05-.055-.11-.055-.11-.025-.11-.055-.075-.055-.166-.055c-.09 0-.165-.025-.165-.055s-.05-.055-.11-.055-.11-.025-.11-.055-.027-.055-.06-.055c-.225 0-.58-.464-.524-.684.041-.167.22-.363.329-.363.05 0 .09-.024.09-.055 0-.03.062-.055.137-.055.076 0 .138.025.138.055s.074.055.165.055c.091 0 .165.025.165.055s.039.056.086.056c.103 0 .273.169.486.482.088.128.19.233.23.233.038 0 .206-.13.373-.289.166-.159.452-.425.635-.592.184-.166.334-.335.336-.375.006-.198-.945-1.277-1.126-1.277-.046 0-.084-.019-.084-.042 0-.068-.441-.241-.825-.322-.399-.085-.69-.09-1.02-.016zm3.221 4.345v4.405h2.368v-8.81h-2.368v4.405zM91.216 7.06a1.87 1.87 0 0 0-.316.103.533.533 0 0 1-.207.05c-.06 0-.11.025-.11.055s-.05.055-.11.055c-.061 0-.11.025-.11.055s-.05.055-.111.055c-.06 0-.11.025-.11.055s-.044.056-.098.056c-.054 0-.134.05-.177.11-.044.06-.111.11-.15.11-.087 0-.842.732-.842.817 0 .035-.024.064-.055.064-.03 0-.055.032-.055.07 0 .039-.05.106-.11.15s-.11.122-.11.173c0 .051-.019.101-.041.112-.065.028-.273.477-.405.871-.151.45-.207 1.616-.108 2.232.064.394.22.923.297 1 .02.02.037.081.037.137 0 .055.025.1.055.1s.055.05.055.11c0 .061.025.11.055.11s.055.033.055.073c0 .04.05.126.11.19.06.066.11.132.11.148 0 .085.63.746.711.746.033 0 .06.025.06.055s.032.055.07.055c.04 0 .107.05.15.11.044.061.124.11.178.11.054 0 .098.022.098.048 0 .06.667.368 1.052.485.37.113 1.385.125 1.811.022.324-.079 1.117-.43 1.147-.507.01-.026.05-.047.09-.047.04 0 .174-.1.298-.22.125-.122.258-.221.296-.222.038 0 .138-.094.222-.207a153.973 153.973 0 0 0 .52-.7c.107-.14.29-.52.29-.6 0-.049.025-.089.056-.089.03 0 .055-.05.055-.11s.024-.11.055-.11c.03 0 .055-.087.055-.193 0-.106.022-.192.05-.192.069 0 .124-.526.124-1.184 0-.659-.055-1.184-.124-1.184-.028 0-.05-.075-.05-.165 0-.091-.025-.166-.055-.166s-.055-.062-.055-.137c0-.076-.025-.138-.055-.138s-.055-.05-.055-.11-.025-.11-.056-.11c-.03 0-.055-.05-.055-.11 0-.061-.024-.11-.055-.11-.03 0-.055-.05-.055-.11 0-.061-.018-.111-.041-.111-.023 0-.103-.093-.179-.206-.186-.277-.858-.95-.949-.95-.04 0-.109-.05-.152-.11-.044-.06-.124-.11-.178-.11-.053 0-.098-.02-.098-.043 0-.053-.383-.22-.743-.325a42.847 42.847 0 0 1-.444-.132c-.215-.065-1.248-.054-1.538.016zm13.078-.012a.467.467 0 0 1-.21.054c-.069 0-.229.05-.354.111a1.12 1.12 0 0 1-.328.11c-.055 0-.1.025-.1.055s-.044.055-.098.055c-.053 0-.133.05-.177.11-.044.061-.118.11-.165.11-.047 0-.122.05-.165.11-.044.061-.105.111-.136.111-.052 0-.418.37-.814.82-.083.095-.152.21-.152.255 0 .045-.024.081-.055.081-.03 0-.055.05-.055.11 0 .061-.018.11-.041.11-.023 0-.075.081-.115.18l-.118.289c-.117.287-.17.464-.223.743-.075.396-.075 1.583.001 1.884.12.48.305 1.034.345 1.034.023 0 .041.05.041.11 0 .061.025.11.055.11.031 0 .055.045.055.099 0 .054.05.133.11.177.061.044.111.118.111.165 0 .047.049.122.11.165.06.044.11.1.11.125 0 .058.368.426.426.426.025 0 .081.05.124.11.044.06.112.11.15.11.039 0 .071.025.071.055s.037.056.082.056c.046 0 .083.024.083.055 0 .03.049.055.11.055s.11.02.11.047c0 .073.817.428 1.157.502.333.072 1.374.05 1.734-.036.256-.062.983-.398 1.01-.467.01-.025.056-.046.101-.046.046 0 .153-.075.238-.166.085-.09.183-.165.217-.165.077 0 .364-.285.583-.578.09-.121.207-.268.26-.327.053-.059.097-.14.097-.179 0-.04.024-.072.055-.072.03 0 .055-.05.055-.11s.025-.11.055-.11.055-.05.055-.11c0-.061.025-.11.055-.11s.055-.063.055-.138c0-.076.025-.138.055-.138s.055-.074.055-.165c0-.091.025-.165.055-.165s.055-.095.055-.21c0-.115.026-.235.058-.267.038-.038.049-.326.032-.823-.029-.868-.078-1.289-.15-1.289-.028 0-.05-.074-.05-.165 0-.09-.025-.165-.055-.165s-.055-.062-.055-.138c0-.075-.025-.137-.055-.137s-.055-.05-.055-.11-.025-.11-.055-.11-.055-.05-.055-.11c0-.061-.023-.11-.052-.11-.028 0-.066-.047-.084-.104a.869.869 0 0 0-.144-.234c-.381-.449-.627-.709-.672-.709-.028 0-.12-.074-.205-.165-.085-.091-.182-.165-.217-.165-.034 0-.116-.05-.181-.11-.065-.061-.163-.11-.218-.11-.055 0-.099-.025-.099-.056 0-.03-.05-.055-.111-.055-.06 0-.11-.02-.11-.043 0-.039-.1-.072-.722-.235-.26-.068-1.374-.066-1.48.003zm7.076.031c-.579.129-.634.146-.634.196 0 .026-.049.048-.11.048-.06 0-.11.025-.11.055s-.038.055-.084.055c-.082 0-.594.487-.728.693-.584.896-.685 1.9-.271 2.707.16.311.674.863.859.922.063.02.114.06.114.087 0 .029.049.052.11.052s.11.024.11.055c0 .03.062.055.138.055.076 0 .137.025.137.055s.049.055.107.055c.059 0 .123.025.141.055.019.03.095.055.169.055.074 0 .134.025.134.055s.05.055.11.055c.061 0 .11.025.11.055s.045.055.1.055c.148 0 .45.32.46.489.018.306-.023.418-.216.595-.152.139-.249.183-.406.183-.114 0-.222-.025-.24-.055-.019-.03-.083-.055-.141-.055-.059 0-.107-.025-.107-.055s-.05-.055-.11-.055c-.061 0-.111-.025-.111-.056a.056.056 0 0 0-.056-.055c-.061 0-.439-.358-.439-.415 0-.075-.163-.188-.233-.16-.042.015-.118.1-.17.188a2.863 2.863 0 0 1-.3.38c-.325.345-.564.627-.564.665 0 .018-.049.07-.11.113-.115.084-.149.22-.055.22.03 0 .055.026.055.057 0 .073.697.77.77.77.031 0 .056.02.056.046 0 .072.736.396 1.091.48.41.098 1.031.099 1.404.002.284-.074.75-.281.809-.36.015-.02.114-.095.22-.168.106-.072.23-.179.276-.237.045-.057.134-.158.197-.225.157-.166.464-.734.464-.86 0-.057.024-.119.055-.138.03-.018.055-.179.055-.356 0-.204.025-.335.068-.355.056-.026.056-.038 0-.064-.044-.02-.068-.157-.068-.386 0-.198-.024-.353-.055-.353s-.055-.074-.055-.165c0-.091-.025-.165-.056-.165-.03 0-.055-.031-.055-.07-.002-.182-.794-.974-.977-.976-.038 0-.069-.025-.069-.056 0-.03-.049-.055-.11-.055s-.11-.024-.11-.055c0-.03-.05-.055-.11-.055-.061 0-.11-.025-.11-.055s-.062-.055-.138-.055c-.076 0-.138-.025-.138-.055s-.037-.055-.083-.055a.485.485 0 0 1-.179-.048c-.617-.31-.729-.387-.729-.499 0-.032-.025-.059-.055-.059s-.055-.088-.055-.195c0-.209.196-.466.355-.466.047 0 .086-.024.086-.055 0-.03.049-.055.11-.055.06 0 .11.025.11.055s.086.055.192.055c.106 0 .193.025.193.055s.028.056.062.056c.08 0 .489.409.489.489 0 .034.025.061.055.061s.055.037.055.083c0 .045.023.082.051.082.121 0 1.484-1.333 1.393-1.363-.037-.012-.067-.058-.067-.1 0-.043-.025-.078-.055-.078-.031 0-.055-.038-.055-.083 0-.045-.025-.083-.056-.083a.057.057 0 0 1-.055-.058c0-.061-.573-.657-.632-.657a.505.505 0 0 1-.151-.11c-.065-.061-.151-.11-.191-.11-.039 0-.072-.02-.072-.044 0-.08-.942-.29-1.257-.28a3.69 3.69 0 0 0-.532.08zm-94.066.143c-.068.035-.124.096-.124.137 0 .041-.024.074-.055.074-.032 0-.055.184-.055.44 0 .258.023.441.055.441.03 0 .055.027.055.06 0 .166.164.216.704.216.749 0 .783-.031.783-.713 0-.667-.016-.684-.71-.703-.318-.009-.578.01-.653.048zm-4.501.64c.333.062.507.122.908.312.355.168.576.33.909.663.355.355.743.9.743 1.042 0 .048.025.087.055.087s.055.06.055.135c0 .074.025.15.055.168.03.019.056.107.056.196 0 .09.024.162.055.162.034 0 .055.285.055.744 0 .458-.022.743-.056.743-.03 0-.054.1-.054.22 0 .121-.025.22-.056.22-.03 0-.055.062-.055.138 0 .076-.024.138-.055.138-.03 0-.055.05-.055.11s-.025.11-.055.11-.055.039-.055.087a.27.27 0 0 1-.069.16c-.038.04-.13.156-.206.257-.217.288-.755.805-.879.844-.062.02-.112.06-.112.087 0 .029-.05.052-.11.052-.061 0-.11.025-.11.055s-.05.055-.11.055c-.061 0-.11.025-.11.055s-.063.055-.139.055c-.075 0-.137.025-.137.055s-.1.055-.22.055c-.122 0-.22.025-.22.055 0 .034-.267.055-.69.055-.421 0-.687-.021-.687-.055 0-.03-.1-.055-.22-.055-.122 0-.22-.025-.22-.055s-.075-.055-.166-.055c-.091 0-.165-.02-.165-.045 0-.024-.087-.079-.193-.12-.106-.042-.193-.096-.193-.12 0-.025-.036-.045-.08-.045-.107 0-.495-.343-.896-.793-.152-.17-.248-.335-.573-.982a.715.715 0 0 1-.048-.262c0-.091-.024-.166-.055-.166-.034 0-.055-.321-.055-.853 0-.533.02-.854.055-.854.03 0 .055-.074.055-.165 0-.091.025-.165.055-.165s.055-.05.055-.109c0-.103.11-.328.318-.652.183-.286.322-.436.696-.754.142-.12.292-.25.332-.286.116-.105.756-.402.867-.402.055 0 .1-.025.1-.055s.123-.055.272-.055c.15 0 .289-.027.309-.06.04-.065.642-.04 1.099.047zm-1.074.95c-.417.06-.606.112-.606.17 0 .026-.062.048-.137.048-.076 0-.138.025-.138.055s-.037.055-.083.055c-.045 0-.082.025-.082.055s-.026.056-.057.056c-.073 0-.66.586-.66.66 0 .03-.024.055-.054.055s-.055.05-.055.11c0 .061-.025.11-.055.11s-.055.05-.055.11c0 .061-.023.11-.05.11-.068 0-.121.325-.152.937-.025.492.02.804.152 1.06a.47.47 0 0 1 .05.178c0 .046.024.084.055.084.03 0 .055.037.055.082 0 .046.024.083.055.083.03 0 .055.037.055.082 0 .046.025.083.055.083s.055.026.055.057c0 .074.365.439.439.439.03 0 .056.024.056.055 0 .03.038.055.083.055.046 0 .083.018.083.041 0 .047.192.138.62.295.394.144 1.173.144 1.568 0 .427-.157.62-.248.62-.295 0-.023.037-.041.083-.041.045 0 .082-.025.082-.055s.026-.055.057-.055c.074 0 .439-.365.439-.44 0-.03.025-.056.055-.056s.055-.037.055-.083c0-.045.019-.082.042-.082.023 0 .074-.08.113-.18.04-.098.096-.221.124-.274a.59.59 0 0 0 .051-.234c0-.076.027-.138.059-.138.04 0 .05-.195.033-.592-.029-.667-.08-1.005-.153-1.005-.027 0-.049-.05-.049-.11s-.025-.11-.055-.11-.055-.044-.055-.098c0-.054-.05-.134-.11-.178-.06-.043-.11-.099-.11-.123 0-.065-.483-.537-.55-.537a.056.056 0 0 1-.056-.056c0-.03-.05-.055-.11-.055s-.11-.024-.11-.055c0-.03-.05-.055-.11-.055s-.11-.02-.11-.043c0-.13-.937-.244-1.432-.174zm16.134.383c0 .03.074.056.165.056.091 0 .165.024.165.055 0 .03.05.055.11.055.061 0 .11.024.11.055 0 .03.038.055.083.055.17 0 .683.56.877.958.318.655.361.951.225 1.547-.11.479-.656 1.294-.867 1.294-.04 0-.109.05-.152.11-.044.061-.124.11-.178.11-.053 0-.097.025-.097.056 0 .03-.06.055-.133.055-.074 0-.142.026-.153.057-.026.079-1.25.08-1.33.002-.032-.033-.115-.06-.185-.06-.07 0-.127-.024-.127-.054s-.037-.055-.082-.055c-.046 0-.083-.025-.083-.056 0-.03-.038-.055-.084-.055-.095 0-.467-.35-.467-.438a.056.056 0 0 0-.055-.057c-.03 0-.055-.037-.055-.083 0-.045-.02-.082-.046-.082-.048 0-.215-.319-.347-.661-.115-.297-.084-1.065.057-1.432.064-.166.141-.31.171-.321.03-.01.055-.06.055-.112 0-.051.05-.129.11-.173.06-.043.11-.1.11-.124 0-.081.242-.29.496-.429.136-.074.256-.153.266-.176.01-.023.103-.041.207-.041.103 0 .188-.025.188-.056 0-.032.21-.055.523-.055.312 0 .523.023.523.055zm8.205 0c0 .03.062.056.137.056.195 0 .173.07-.11.36-.136.14-.248.264-.248.274 0 .018-.873.929-1.796 1.873l-.447.458-.068-.147c-.2-.44-.235-.633-.17-.944.09-.423.411-1.058.663-1.308.281-.28.51-.455.593-.456.038 0 .07-.025.07-.055s.074-.055.164-.055c.091 0 .166-.025.166-.056 0-.032.21-.055.523-.055.312 0 .523.023.523.055zm8.48 0c0 .03.074.056.165.056.09 0 .165.018.165.041 0 .023.08.077.176.12.187.082.76.624.76.718 0 .031.019.057.042.057.05 0 .179.267.179.369 0 .039.022.071.049.071.057 0 .112.276.152.768.027.332-.028.66-.152.897a.471.471 0 0 0-.05.18c0 .045-.024.083-.054.083s-.056.037-.056.082c0 .045-.024.083-.055.083-.03 0-.055.037-.055.082 0 .046-.025.083-.055.083a.056.056 0 0 0-.055.057c0 .075-.253.328-.328.328a.057.057 0 0 0-.057.055c0 .03-.037.055-.083.055-.045 0-.082.025-.082.055s-.05.056-.11.056c-.061 0-.11.024-.11.055 0 .03-.061.055-.135.055-.074 0-.15.024-.169.055-.019.031-.302.055-.66.055-.359 0-.642-.024-.661-.055-.019-.03-.082-.055-.141-.055-.059 0-.107-.025-.107-.055s-.05-.055-.11-.055-.11-.025-.11-.056c0-.03-.04-.055-.089-.055-.12 0-.68-.59-.834-.878a1.046 1.046 0 0 1-.123-.366c0-.073-.025-.132-.056-.132-.033 0-.055-.23-.055-.578 0-.35.022-.579.056-.579.03 0 .054-.074.054-.165 0-.09.025-.165.056-.165.03 0 .055-.05.055-.11s.024-.11.055-.11c.03 0 .055-.033.055-.073 0-.099.595-.71.785-.805.083-.042.15-.098.15-.123 0-.025.075-.045.166-.045.091 0 .165-.025.165-.056 0-.033.248-.055.634-.055.385 0 .633.022.633.055zm8.37 0c0 .03.074.056.165.056.09 0 .165.018.165.041 0 .023.068.072.152.11.248.11.894.778.894.923 0 .045.025.082.055.082s.056.06.056.133c0 .073.027.142.062.154.041.014.062.245.062.704 0 .46-.02.69-.062.704-.035.012-.063.093-.063.182 0 .088-.024.16-.055.16-.03 0-.055.037-.055.083 0 .045-.024.083-.055.083a.057.057 0 0 0-.055.058c0 .032-.074.137-.165.234-.09.096-.165.194-.165.217 0 .023-.032.041-.07.041-.04 0-.107.05-.15.11-.044.06-.124.11-.178.11-.054 0-.098.025-.098.055s-.05.056-.11.056-.11.024-.11.055c0 .03-.1.055-.22.055-.121 0-.22.026-.22.06 0 .039-.125.05-.372.03-.5-.037-.785-.092-.785-.151 0-.027-.05-.05-.11-.05s-.11-.024-.11-.055c0-.03-.037-.055-.082-.055-.089 0-.197-.08-.53-.395-.118-.11-.214-.228-.214-.261s-.025-.06-.055-.06-.055-.049-.055-.11c0-.06-.025-.11-.055-.11s-.055-.05-.055-.11-.025-.11-.056-.11c-.03 0-.055-.124-.055-.275 0-.152-.024-.276-.055-.276-.03 0-.055-.111-.055-.247 0-.137.025-.248.055-.248s.055-.124.055-.276c0-.15.025-.275.055-.275s.056-.032.056-.072c0-.1.13-.367.179-.368.022 0 .04-.03.04-.067 0-.09.556-.65.646-.65.039 0 .07-.024.07-.054s.05-.055.11-.055c.061 0 .111-.025.111-.055s.074-.055.165-.055c.091 0 .165-.025.165-.056 0-.033.23-.055.578-.055.35 0 .579.022.579.055zm22.907 0c0 .03.074.056.165.056.09 0 .165.024.165.055 0 .03.05.055.11.055.061 0 .11.024.11.055 0 .03.031.055.07.056.087.001.646.519.646.6 0 .032.025.06.055.06s.055.037.055.082c0 .046.025.083.056.083.03 0 .055.05.055.11s.024.11.055.11c.03 0 .055.06.055.135 0 .073.025.15.055.168.031.02.055.303.055.664 0 .383-.022.63-.055.63-.03 0-.055.062-.055.138 0 .075-.025.137-.055.137s-.055.05-.055.11c0 .061-.025.11-.055.11s-.056.034-.056.076c0 .09-.57.695-.655.695-.033 0-.06.025-.06.055s-.05.056-.11.056c-.061 0-.11.024-.11.055 0 .03-.075.055-.166.055-.09 0-.165.024-.165.055 0 .033-.248.055-.633.055-.386 0-.634-.022-.634-.055 0-.03-.074-.055-.165-.055-.09 0-.165-.025-.165-.055s-.05-.055-.11-.055-.11-.025-.11-.056a.055.055 0 0 0-.055-.055c-.18 0-.881-.808-.881-1.014 0-.048-.025-.087-.055-.087s-.055-.111-.055-.248c0-.136-.025-.248-.055-.248-.031 0-.055-.155-.055-.357 0-.202.023-.358.055-.358.03 0 .055-.1.055-.22 0-.122.024-.22.055-.22.03 0 .055-.033.055-.072 0-.102.13-.368.179-.369.022 0 .041-.03.041-.067 0-.09.556-.65.645-.65.039 0 .07-.024.07-.054s.05-.055.111-.055c.06 0 .11-.025.11-.055s.062-.055.138-.055c.076 0 .137-.025.137-.056 0-.033.239-.055.606-.055s.606.022.606.055zm16.795 0c0 .03.062.056.137.056.076 0 .138.024.138.055 0 .03.038.055.085.055.191 0 .798.636.958 1.005.07.159.148.332.175.384.068.134.063 1.254-.006 1.254-.03 0-.055.06-.055.134 0 .074-.025.15-.056.169-.03.018-.055.071-.055.117 0 .175-.696.956-.852.956-.046 0-.084.025-.084.055s-.05.056-.11.056-.11.024-.11.055c0 .03-.098.055-.217.055-.12 0-.232.024-.251.055-.019.03-.156.055-.306.055s-.272-.025-.272-.055-.1-.055-.22-.055c-.122 0-.22-.025-.22-.055s-.063-.055-.138-.055c-.076 0-.138-.025-.138-.056 0-.03-.037-.055-.083-.055-.045 0-.082-.024-.082-.055a.056.056 0 0 0-.057-.055c-.089 0-.549-.483-.549-.576 0-.047-.025-.085-.055-.085s-.055-.037-.055-.082c0-.045-.025-.083-.055-.083s-.055-.074-.055-.165c0-.09-.025-.165-.055-.165-.08 0-.07-1.223.013-1.488.038-.12.087-.22.11-.22.023 0 .042-.049.042-.11 0-.06.025-.11.055-.11s.055-.037.055-.083c0-.095.511-.632.602-.632.032 0 .059-.019.06-.041 0-.056.272-.18.395-.18.055 0 .1-.024.1-.055 0-.033.238-.055.605-.055s.606.022.606.055zm12.995-.006c0 .026.072.062.159.08.087.017.197.07.244.117.047.046.113.085.147.085.064 0 .547.493.55.56.001.02.033.071.07.112.108.118.207.31.207.4 0 .047.022.084.05.084.027 0 .063.118.08.262.017.144.046.364.066.489.021.142.012.242-.026.265-.033.02-.06.11-.06.2 0 .196-.12.601-.179.601-.023 0-.041.028-.041.063 0 .085-.454.647-.525.65-.031.002-.092.053-.136.113-.044.06-.124.11-.177.11-.054 0-.098.021-.098.047 0 .066-.257.174-.413.174-.072 0-.147.024-.166.055-.018.03-.181.055-.361.055-.181 0-.327-.025-.327-.055s-.099-.055-.22-.055-.22-.025-.22-.055-.05-.055-.111-.055c-.06 0-.11-.025-.11-.056 0-.03-.037-.055-.082-.055-.046 0-.083-.024-.083-.055 0-.03-.028-.055-.061-.055-.081 0-.49-.409-.49-.489 0-.034-.024-.061-.055-.061-.03 0-.055-.038-.055-.083 0-.045-.024-.082-.055-.082-.03 0-.055-.05-.055-.11 0-.061-.025-.11-.055-.11s-.055-.1-.055-.221-.025-.22-.055-.22c-.032 0-.055-.192-.055-.465 0-.256.025-.48.055-.499.03-.019.055-.12.055-.223 0-.105.025-.19.055-.19s.055-.05.055-.11.025-.11.055-.11c.031 0 .055-.037.055-.082 0-.177.678-.854.854-.854.046 0 .082-.025.082-.055s.075-.055.166-.055c.09 0 .165-.025.165-.056 0-.033.229-.055.578-.055.318 0 .578.022.578.049zm-95.097.902c0 .008-.05.15-.11.316-.217.593-.114 1.351.256 1.885.179.258.609.648.715.648.04 0 .075.025.075.055s.05.055.11.055.11.022.11.05c0 .055.406.121.743.121.338 0 .744-.066.744-.121 0-.028.047-.05.105-.05.058 0 .117-.03.13-.069.014-.038.043-.051.066-.03.055.05-.22.32-.326.32-.047 0-.085.024-.085.054s-.05.055-.11.055c-.061 0-.11.022-.11.05 0 .059-.286.114-.785.152-.247.018-.372.008-.372-.032 0-.033-.1-.06-.22-.06-.122 0-.22-.024-.22-.055 0-.03-.038-.055-.083-.055-.138 0-.851-.632-.853-.757 0-.037-.026-.068-.056-.068-.03 0-.055-.05-.055-.11 0-.061-.025-.11-.055-.11s-.055-.075-.055-.166c0-.09-.025-.165-.055-.165-.033 0-.055-.23-.055-.578 0-.35.022-.579.055-.579.03 0 .055-.074.055-.165 0-.09.02-.165.046-.165.025 0 .08-.068.124-.151.095-.185.174-.285.23-.287.022-.002.04.004.04.012z" fill="#000"/></svg>