<svg width="114" height="28" viewBox="0 0 114 28" fill="none" xmlns="http://www.w3.org/2000/svg"><path fill-rule="evenodd" clip-rule="evenodd" d="M9.395.034C8.84.082 7.987.24 7.38.405 3.396 1.496.532 4.54.044 8.2c-.09.68-.033 2.194.106 2.796.255 1.105.812 2.35 1.449 3.234.724 1.008 1.799 2.008 2.893 2.692l.475.296.177-.192c.5-.545.588-1.71.19-2.497-.26-.517-.646-.921-1.644-1.726-1.595-1.287-2.036-1.85-2.099-2.688-.036-.479.065-.937.321-1.464.232-.476.948-1.186 1.549-1.537 1.166-.68 2.917-1.148 4.748-1.271l.558-.038-.031-.278a2.404 2.404 0 0 1 .052-.672c.24-1.133 1.19-2.112 2.665-2.747.972-.419 2.423-.756 3.613-.84.286-.02.5-.055.476-.078-.158-.156-1.64-.69-2.496-.899C12.054.05 10.494-.06 9.395.034zm6.33 1.486c-.336.4-.485 1.222-.343 1.894.168.791.58 1.302 1.915 2.37.948.76 1.45 1.256 1.712 1.693.893 1.492-.085 3.333-2.297 4.325-1.095.49-3.084.931-4.203.931h-.34l-.004.45c-.007.766-.27 1.363-.883 2.013-1.02 1.081-2.953 1.828-5.32 2.056-.36.035-.662.07-.67.079-.028.027 1.016.469 1.48.625 1.552.524 3.645.711 5.287.472 2.36-.343 4.465-1.345 6.076-2.891 1.486-1.426 2.366-3.031 2.687-4.9.155-.908.119-2.335-.082-3.19-.557-2.36-2.139-4.47-4.353-5.802a7.274 7.274 0 0 0-.5-.287.82.82 0 0 0-.161.162zm-7.14 4.634c-.244.284-.361.619-.4 1.136-.057.772.178 1.409.75 2.032.18.197.702.659 1.157 1.026.456.368.949.78 1.095.914.316.293.766.914.854 1.18.061.186.064.188.173.09.366-.326.561-.951.516-1.65-.065-1.017-.44-1.536-2.027-2.81C9.707 7.273 9.22 6.77 8.985 6.29a3.102 3.102 0 0 0-.193-.36c-.008 0-.102.102-.207.225zm16.458 8.253c-.015.053-.264 1.136-.552 2.409-.87 3.84-1.25 5.215-1.697 6.142-.264.548-.723 1.03-1.18 1.239-.309.14-.389.154-.91.146a6.256 6.256 0 0 1-.83-.059l-.255-.05-.194.822c-.625 2.65-.619 2.615-.508 2.658.056.022.45.094.876.159 1.025.156 2.702.17 3.466.03 2.546-.472 4.057-1.997 4.9-4.945.158-.554.24-.897.875-3.611l.318-1.361 1.43-.015c1.344-.013 1.427-.009 1.398.082-.073.235-2.212 9.577-2.212 9.663 0 .09.163.095 2.902.081l2.901-.014 1.537-6.695c.846-3.682 1.539-6.713 1.54-6.735.002-.023-3.097-.041-6.887-.041-6.516 0-6.892.005-6.918.095zm15.988-.063c0 .017-.17.77-.379 1.673-.208.903-.402 1.747-.43 1.874l-.052.232 2.946-.014 2.947-.014.397-1.824c.219-1.003.399-1.854.4-1.891.002-.054-.616-.068-2.913-.068-1.604 0-2.916.014-2.916.032zm6.496 6.676c-.846 3.69-1.538 6.727-1.537 6.75 0 .022 1.31.04 2.91.04h2.91l.077-.34 1.109-4.817 1.031-4.477h3.762l1.172-1.886c.644-1.037 1.18-1.906 1.19-1.932.01-.025-2.48-.046-5.534-.046h-5.551l-1.539 6.708zm10.548-.017c-2.3 3.68-4.182 6.717-4.182 6.75 0 .04.87.057 2.884.057h2.885l.854-1.47.854-1.469h4.565l.027.123c.026.116.356 2.691.356 2.776 0 .022 1.388.04 3.084.04h3.083l-.031-.15c-.017-.082-.534-3.064-1.149-6.626a1443.6 1443.6 0 0 0-1.146-6.6l-.028-.122h-7.874l-4.182 6.69zm51.633-5.77c-.92.23-1.45.389-1.478.44-.023.045-.145.473-.271.952-.126.48-.241.913-.256.965-.024.083-.13.096-.935.109l-.909.015-.171.77a62.48 62.48 0 0 1-.207.911l-.035.142h.846c.503 0 .845.021.845.052 0 .029-.287 1.297-.638 2.817-.606 2.621-.639 2.796-.641 3.363-.002.735.093 1.021.473 1.422.487.514 1.185.727 2.387.726.709 0 1.125-.037 1.828-.164l.33-.06.207-.897c.114-.494.199-.906.188-.916-.01-.01-.203.018-.428.062-.568.112-1.278.072-1.563-.088-.46-.258-.49-.56-.185-1.854.124-.523.405-1.736.625-2.694l.401-1.742 1.315-.014c.723-.008 1.315-.028 1.315-.043 0-.016.086-.412.19-.88.105-.467.191-.87.191-.895 0-.025-.576-.046-1.28-.046-1.079 0-1.281-.012-1.281-.078 0-.043.135-.66.301-1.369.166-.71.295-1.307.286-1.327-.008-.02-.661.124-1.45.322zm-43.996 4.331c.156 1.108.282 2.045.281 2.082-.001.053-.36.068-1.608.068H62.78l1.026-1.7c1.53-2.538 1.542-2.557 1.585-2.509.022.025.167.952.322 2.06zm22.815-1.875a5.385 5.385 0 0 0-3.12 1.432c-.174.162-.287.236-.287.186 0-.078.246-1.217.306-1.416.027-.09-.065-.096-1.394-.096-1.088 0-1.428.016-1.448.068-.043.116-2.26 9.803-2.26 9.877 0 .056.307.07 1.472.07.809 0 1.471-.014 1.471-.031 0-.052 1.086-4.741 1.233-5.324.223-.886.58-1.463 1.186-1.918.684-.513 1.293-.726 2.089-.727.99-.002 1.541.473 1.541 1.33 0 .141-.33 1.69-.735 3.44a533.602 533.602 0 0 0-.736 3.208c0 .012.661.022 1.47.022h1.469l.053-.204c.03-.112.38-1.624.778-3.36l.724-3.158.001-.762.001-.762-.202-.423c-.448-.937-1.293-1.405-2.659-1.474a7.134 7.134 0 0 0-.953.022zm10.86 0c-1.606.138-3.362.906-4.294 1.878-.165.172-.389.4-.498.509-.342.337-.803 1.093-1.012 1.662-.226.614-.296 1.001-.326 1.801-.027.717-.016.875.085 1.28.182.73.45 1.202.988 1.746.389.393.547.51.981.722.558.273 1.292.481 2.054.582.707.094 2.444.037 3.26-.108.728-.13 1.66-.367 1.744-.446.048-.045.517-1.904.49-1.94-.005-.009-.118.023-.25.07-.355.125-1.427.39-2.015.496-.775.141-2.12.128-2.69-.027-.706-.192-1.15-.503-1.424-.998-.14-.253-.16-.345-.16-.725 0-.24.017-.479.039-.53.036-.09.273-.096 3.875-.096h3.835l.091-.34c.263-.983.332-2.098.17-2.738a3.644 3.644 0 0 0-2.302-2.513c-.722-.262-1.684-.366-2.641-.284zm-54.023.904c-.06.013-.305.06-.544.107a8.095 8.095 0 0 0-2.825 1.146c-.582.384-1.531 1.355-1.963 2.008-.762 1.155-1.347 2.679-1.803 4.696-.137.61-.25 1.142-.25 1.184 0 .065.451.076 2.905.076h2.905l1.022-4.53c.563-2.493 1.035-4.575 1.05-4.627.023-.08-.007-.095-.18-.09a2.326 2.326 0 0 0-.317.03zm55.301 1.073c.584.281.828.75.821 1.577-.002.264-.026.503-.054.53-.03.03-.983.046-2.336.037-2.632-.016-2.393.055-2.07-.613.345-.71 1.042-1.34 1.76-1.59.317-.11.45-.125.967-.11.522.016.64.037.912.169zm-25.681 5.393c0 .014-.135.606-.3 1.316-.165.71-.3 1.324-.3 1.364 0 .06.278.07 1.51.059l1.512-.015.312-1.333a94.46 94.46 0 0 0 .315-1.375c.001-.022-.684-.04-1.524-.04-.839 0-1.525.01-1.525.024z" fill="#000"/></svg>