<svg width="115" height="27" viewBox="0 0 115 27" fill="none" xmlns="http://www.w3.org/2000/svg"><path fill-rule="evenodd" clip-rule="evenodd" d="M11.943.081C7.023.678 2.84 3.845.988 8.375.294 10.074 0 11.6 0 13.504c0 1.51.15 2.572.553 3.901 1.416 4.678 5.267 8.25 10.023 9.298 1.122.247 1.968.321 3.307.29 2.156-.05 3.804-.456 5.714-1.411a12.825 12.825 0 0 0 3.507-2.518c.686-.681 1.76-2.01 1.681-2.079-.125-.108-5.507-3.656-5.57-3.67-.05-.013-.166.096-.302.287-.294.413-1.122 1.196-1.59 1.504-2.092 1.375-4.65 1.534-6.857.426-1.317-.662-2.531-1.93-3.119-3.26a6.738 6.738 0 0 1 1.289-7.425c1.29-1.353 2.998-2.082 4.88-2.081 1.075 0 1.943.189 2.898.629.903.416 1.905 1.223 2.483 2l.273.365 2.797-1.86a875.484 875.484 0 0 0 2.817-1.876c.025-.021-.392-.607-.761-1.071-.418-.525-1.385-1.48-1.993-1.97C20.02 1.368 17.665.386 15.06.08c-.818-.096-2.322-.095-3.117.001zm18.52 2.165l-3.376 2.246v18.042l3.368 2.24c1.852 1.233 3.378 2.232 3.39 2.22.012-.012.016-6.09.008-13.508L33.84 0l-3.376 2.246zm13.3.05c-.962.146-2.033.684-2.756 1.387-1.004.974-1.524 2.212-1.525 3.628 0 .775.086 1.246.343 1.89.495 1.236 1.586 2.346 2.785 2.832a5.282 5.282 0 0 0 3.953-.03c.767-.327 1.644-1.023 2.11-1.677l.124-.173-1.054-.703-1.055-.702-.333.338c-1.011 1.03-2.578 1.035-3.598.013a2.468 2.468 0 0 1 .055-3.586c.844-.788 1.947-.926 2.986-.374.177.095.444.305.593.468.15.163.302.284.339.269.037-.016.514-.332 1.059-.704l.992-.676-.112-.16c-.2-.288-.824-.902-1.17-1.15a5.568 5.568 0 0 0-1.72-.787c-.536-.131-1.5-.18-2.016-.102zm36.14.025c-1.987.358-3.523 1.774-4.056 3.739-.176.649-.176 1.89 0 2.533.518 1.89 2.046 3.33 3.942 3.713.622.126 1.768.087 2.355-.08.571-.164 1.324-.546 1.777-.904.376-.296 1.066-1.04 1.064-1.146 0-.03-.47-.366-1.045-.746l-1.045-.69-.298.32a2.558 2.558 0 0 1-1.433.76c-1.08.182-2.215-.431-2.697-1.456-.152-.323-.177-.441-.195-.916-.017-.453 0-.607.098-.9a2.526 2.526 0 0 1 4.227-.971l.318.324 1.036-.685c.57-.377 1.036-.709 1.036-.737 0-.128-.669-.847-1.097-1.179a5.164 5.164 0 0 0-3.987-.98zm28.73-.046c-1.694.23-3.163 1.264-3.915 2.756-.343.681-.493 1.272-.525 2.062-.034.839.067 1.447.361 2.16.279.675.622 1.17 1.195 1.721.995.958 2.124 1.412 3.513 1.412 1.355 0 2.511-.46 3.49-1.389.494-.468.809-.9 1.1-1.507.361-.754.457-1.2.461-2.152.004-.906-.06-1.25-.374-1.994-.398-.942-1.183-1.851-2.042-2.364-.943-.563-2.242-.843-3.264-.705zm-56.614.144c0 .021-2.558 9.562-2.603 9.707-.027.09.06.096 1.302.096h1.33l1.01-3.751 1.01-3.752.944-.015.943-.014v7.532h2.57V2.4h-3.253c-1.79 0-3.253.009-3.253.019zm8.474 4.891v4.912h2.57l-.014-4.897-.014-4.897-1.27-.015-1.272-.015V7.31zm6.81-4.568l-1.006 3.75-.913 3.41-.532.016-.532.016v2.288h10.607V9.93h-1.039V2.4h-6.494l-.092.342zm18.504.803V4.69l1.463.015 1.462.014.014 3.752.014 3.75h2.514l.014-3.75.014-3.752 1.462-.014 1.463-.015V2.4h-8.42v1.145zm9.568 3.764v4.92l2.693-.02c3.01-.022 2.891-.008 3.716-.434 1.315-.68 1.867-2.255 1.251-3.57a2.498 2.498 0 0 0-1.068-1.086c-.168-.081-.304-.166-.304-.188 0-.022.046-.081.103-.133.167-.15.395-.722.452-1.133.161-1.16-.473-2.332-1.54-2.844-.753-.362-.886-.378-3.212-.406l-2.091-.024v4.918zm3.845-2.652c.641.268.686 1.206.073 1.518-.177.09-.362.121-.842.142l-.616.027V4.583h.604c.385 0 .667.027.781.074zm-27.9 2.654v2.62h-1.64c-.903 0-1.64-.014-1.64-.03 0-.05 1.378-5.125 1.403-5.168.013-.022.44-.04.95-.04h.927V7.31zm38.666-2.401c.724.223 1.25.684 1.579 1.385.226.484.279 1.16.132 1.701-.329 1.214-1.592 2.031-2.82 1.824-1.359-.228-2.309-1.491-2.123-2.82.218-1.556 1.751-2.547 3.232-2.09zm-9.614 3.57c.398.197.542.857.267 1.224-.248.332-.372.36-1.64.38l-1.163.02V8.34l1.162.018c1.015.015 1.189.03 1.374.122zm-40.26 6.358v.544l-.178.027c-.098.014-.342.04-.542.057-.868.075-1.887.475-2.534.996-.656.529-1.133 1.337-1.32 2.237-.123.594-.079 1.696.09 2.226a4.04 4.04 0 0 0 2.214 2.486 5.537 5.537 0 0 0 1.481.402c.178.02.428.047.556.063l.232.029v1.194h2.57v-1.194l.232-.029c.128-.016.38-.044.56-.063 1.196-.127 2.355-.728 3.007-1.56.62-.79.86-1.53.86-2.638 0-1.241-.334-2.1-1.13-2.897-.803-.805-1.635-1.143-3.215-1.307l-.314-.032v-1.084h-2.57v.543zm12.374-.138c-2.652.505-4.47 2.984-4.123 5.624a5.102 5.102 0 0 0 1.398 2.893 5.108 5.108 0 0 0 2.357 1.4c.583.168 1.924.18 2.5.025 1.014-.273 1.64-.638 2.388-1.393 1.051-1.06 1.476-2.097 1.476-3.604 0-2.254-1.476-4.187-3.69-4.834-.61-.178-1.684-.23-2.306-.111zm-31.73 4.997v4.91h2.516v-9.82h-2.516v4.91zm4.539 0v4.91h2.514V20.68h3.608v3.928h2.57v-9.821h-2.57v3.6H47.81v-3.6h-2.516v4.91zm28.86-2.407c.46.142.753.326 1.09.682.53.559.8 1.403.675 2.109a2.593 2.593 0 0 1-1.743 2.02c-.29.097-.447.114-.881.097-.47-.019-.575-.043-.945-.218a2.508 2.508 0 0 1-.702-4.084 2.428 2.428 0 0 1 1.092-.635c.38-.103 1.034-.09 1.415.029zM60.11 19.65v2.082l-.345-.033c-.778-.072-1.345-.422-1.633-1.005-.174-.352-.181-.393-.18-.996 0-.533.02-.678.13-.953.27-.672 1.01-1.155 1.796-1.171l.232-.005v2.081zm3.562-1.915c.836.319 1.227 1.008 1.186 2.092-.017.47-.043.6-.173.864-.287.586-.87.946-1.636 1.01l-.369.03v-4.178l.342.032c.188.018.48.085.65.15z" fill="#000"/></svg>