<svg width="111" height="26" viewBox="0 0 111 26" fill="none" xmlns="http://www.w3.org/2000/svg"><path fill-rule="evenodd" clip-rule="evenodd" d="M11.815.03C6.961.45 2.625 3.724.85 8.31c-.545 1.407-.8 2.7-.843 4.28-.064 2.301.32 4.102 1.308 6.125 1.787 3.662 5.263 6.316 9.253 7.065.88.165 1.486.22 2.448.22 1.51 0 2.737-.196 4.144-.663a13.084 13.084 0 0 0 8.769-10.361c.122-.778.165-2.444.083-3.247a13.009 13.009 0 0 0-7.251-10.42A12.625 12.625 0 0 0 12.946.001c-.5.005-1.01.018-1.13.028zm1.875 5.352c1.897.176 3.557.969 4.852 2.316.512.532.92 1.086 1.014 1.377.173.535-.245 1.09-.823 1.09-.343 0-.509-.12-.962-.687-2.079-2.605-5.54-3.159-8.16-1.306-1.675 1.185-2.644 3.283-2.452 5.31.256 2.7 1.966 4.675 4.518 5.221.74.16 1.98.158 2.68-.002.97-.223 1.737-.594 2.46-1.192.41-.339 1.016-1.037.927-1.066-.031-.01-.23.008-.44.04-.504.078-1.701.076-1.939-.003-.599-.199-.836-.914-.454-1.367.284-.337.217-.33 2.965-.33h2.51v5.262l-.124.186c-.213.314-.464.449-.79.423-.35-.028-.606-.201-.744-.504-.13-.285-.14-1.034-.022-1.646.045-.238.082-.445.082-.462 0-.017-.217.178-.482.433a6.745 6.745 0 0 1-1.814 1.29c-1.134.575-2.143.81-3.464.81-.962-.001-1.605-.1-2.434-.376-2.663-.884-4.655-3.186-5.113-5.907-.114-.675-.114-1.917 0-2.592.561-3.337 3.42-5.99 6.803-6.315.68-.065.74-.065 1.405-.003zm86.817.3a3.36 3.36 0 0 1-.21.053c-.086.018-.265.135-.4.259-.428.393-.41.157-.41 5.49 0 5.33-.017 5.097.407 5.487.38.35.805.427 1.246.227.309-.14.473-.29.626-.573l.119-.22V6.562l-.123-.228a1.577 1.577 0 0 0-.323-.394c-.251-.206-.709-.332-.932-.258zM35.935 8.683c-1.435.19-2.556 1.095-3.004 2.426-.522 1.552-.178 3.299.85 4.321.72.714 1.407 1.007 2.456 1.046.81.03 1.153-.035 1.74-.328a2.99 2.99 0 0 0 .832-.61l.392-.391-.031.547c-.033.583-.148.973-.398 1.351-.554.834-2.182 1.055-3.75.51-.852-.297-.96-.318-1.227-.246-.525.14-.84.744-.65 1.241.129.337.38.533.932.733.774.28 1.447.397 2.46.432 1.37.047 2.185-.084 3.02-.484.969-.464 1.583-1.295 1.845-2.496.116-.53.12-.666.122-3.849.002-3.274.001-3.3-.117-3.52-.232-.43-.58-.632-1.094-.632-.54 0-.997.35-1.126.862l-.062.244-.343-.305c-.77-.686-1.79-.991-2.847-.852zm30.451.006c-.757.063-1.42.38-2.029.972-.257.25-.33.294-.367.228a2.43 2.43 0 0 0-1.214-1.05c-.463-.183-1.459-.213-1.967-.058-.483.146-.841.376-1.272.814-.292.297-.344.331-.346.226-.001-.166-.197-.588-.346-.748-.235-.252-.518-.352-.927-.329-.456.026-.77.217-.967.59l-.129.243v3.402c0 2.946.012 3.43.086 3.606.108.258.274.435.53.566.464.238.948.182 1.32-.154.42-.378.404-.271.435-2.819.027-2.26.029-2.285.16-2.573.233-.516.665-.781 1.273-.781.432 0 .714.106.975.365.403.402.417.495.453 3.072.036 2.51.025 2.439.428 2.77a1.17 1.17 0 0 0 1.521-.04c.41-.37.395-.27.426-2.813.028-2.26.03-2.285.16-2.573.233-.516.666-.781 1.273-.781.428 0 .715.106.966.356.413.412.428.516.455 3.052.026 2.493.02 2.458.435 2.799.483.397 1.175.341 1.609-.128.124-.134.244-.313.268-.398.024-.085.043-1.355.043-2.822 0-2.409-.01-2.7-.1-3.02-.417-1.469-1.45-2.116-3.152-1.974zm14.157-.002c-.768.069-1.459.396-2.065.979a13.8 13.8 0 0 1-.294.278c-.003 0-.1-.13-.215-.289a2.362 2.362 0 0 0-1.04-.803c-.318-.133-.407-.145-1.12-.145h-.775l-.438.216c-.314.155-.554.33-.85.618-.226.222-.415.403-.42.403-.004 0-.02-.114-.036-.253-.109-.962-1.436-1.307-2.07-.54a1.335 1.335 0 0 0-.226.44c-.04.157-.06 1.316-.06 3.447 0 3.637-.01 3.55.412 3.938.594.546 1.498.37 1.869-.362.077-.152.09-.438.09-2.09.003-2.506.063-2.93.472-3.334.25-.247.46-.328.918-.355.378-.022.46-.009.723.12.19.093.352.224.45.366.28.403.302.609.303 2.855 0 1.34.021 2.141.06 2.284.086.307.501.712.819.797a1.226 1.226 0 0 0 1.397-.634c.07-.14.088-.53.105-2.392.02-2.163.024-2.234.146-2.54.229-.575.577-.817 1.233-.856.378-.022.46-.009.723.12.357.174.55.428.668.884.07.267.085.713.086 2.42.001 2.362 0 2.349.428 2.734.532.478 1.323.378 1.746-.222l.168-.238.015-2.648c.018-2.969.002-3.163-.316-3.816-.513-1.057-1.467-1.51-2.906-1.382zm-37.014.159c-.27.142-.52.455-.593.744-.04.158-.06 1.316-.06 3.448 0 3.637-.008 3.55.413 3.938.47.432 1.133.427 1.619-.014.311-.282.339-.422.34-1.75.002-1.371.064-2.189.2-2.6.289-.883.726-1.315 1.623-1.604.244-.078.52-.206.613-.285.56-.47.463-1.526-.173-1.86-.319-.169-.799-.175-1.113-.015-.315.16-.669.55-.913 1.006l-.21.393-.032-.4c-.037-.482-.223-.787-.597-.985-.313-.164-.822-.172-1.117-.016zm6.947-.055c-.478.074-1.192.266-1.465.395-.324.151-.524.453-.552.83-.026.349.087.59.39.832.182.145.255.168.523.165.172-.002.548-.057.836-.123.659-.15 1.525-.163 2.005-.028.605.17 1.026.736 1.026 1.38 0 .157-.016.182-.096.151a9.074 9.074 0 0 0-.565-.154c-.64-.159-2.027-.17-2.66-.023-1.366.32-2.136 1.235-2.136 2.54 0 1.227.678 2.11 1.905 2.481.456.138 1.522.138 1.982 0 .454-.136 1-.432 1.284-.695.13-.12.247-.22.261-.22.014 0 .026.052.026.114 0 .402.61.878 1.126.876.419-.001.972-.39 1.082-.763.04-.133.053-1.039.041-2.728l-.017-2.53-.169-.47c-.306-.852-.71-1.326-1.43-1.677-.644-.314-.932-.368-2.067-.386-.56-.009-1.16.006-1.33.033zm36.801.002c-1.368.21-1.94.54-2 1.15-.034.36.01.51.223.75.328.373.612.424 1.294.229.358-.102.569-.122 1.283-.124.84-.002.86.001 1.185.163.448.224.656.506.747 1.015.038.213.06.399.046.411-.012.013-.258-.04-.546-.119-.464-.126-.63-.142-1.488-.147-.852-.004-1.015.01-1.403.122-1.43.413-2.06 1.252-2.004 2.674.019.487.043.601.206.951.307.66.88 1.125 1.688 1.37.456.137 1.523.137 1.98 0 .487-.148.947-.398 1.247-.677l.266-.249.037.157c.198.835 1.38 1.113 1.97.462.108-.119.224-.31.259-.426.044-.147.056-.947.042-2.684-.02-2.41-.023-2.485-.147-2.86-.376-1.137-.988-1.738-2.101-2.065-.348-.102-.576-.124-1.433-.138-.561-.009-1.169.007-1.35.035zm7.085.003a1.324 1.324 0 0 0-.622.56l-.124.23v6.82l.123.228c.208.388.662.678 1.062.678.498 0 1.047-.443 1.151-.928.037-.17.062-.874.062-1.732 0-1.25.015-1.502.107-1.863.246-.96.724-1.475 1.649-1.773.516-.167.752-.34.897-.657.241-.53.027-1.255-.443-1.499-.315-.163-.802-.171-1.101-.019-.275.14-.707.616-.922 1.015l-.17.318-.037-.312c-.085-.72-.526-1.132-1.205-1.124-.16.002-.352.028-.427.058zm9.05.055c-.414.205-.661.67-.598 1.129.019.134.683 1.742 1.495 3.617.804 1.857 1.462 3.422 1.462 3.478 0 .169-.274.517-.473.6-.24.1-.453.098-.87-.01-.433-.113-.753-.077-1 .11-.257.197-.367.425-.37.77-.006.674.515 1.063 1.588 1.184 1.432.163 2.326-.335 2.99-1.667.123-.246.911-2.093 1.752-4.104 1.468-3.51 1.53-3.673 1.55-4.069.02-.381.01-.431-.141-.665-.23-.358-.557-.51-1.032-.48-.398.026-.558.116-.825.464-.115.152-.437.973-1.07 2.733-.498 1.383-.922 2.496-.943 2.473-.021-.024-.441-1.132-.935-2.463-.494-1.33-.942-2.506-.995-2.612-.121-.237-.361-.469-.567-.546-.263-.1-.756-.071-1.018.058zm-65.53 1.897c.61.213 1.124.783 1.25 1.382.15.724-.06 1.397-.585 1.876-.42.383-.797.52-1.43.52-.62 0-1.006-.137-1.407-.496-.958-.86-.798-2.482.308-3.13.486-.283 1.297-.35 1.864-.152zm14.985 2.93l.373.12v.384c0 .45-.081.672-.353.972-.521.576-1.734.745-2.353.329-.304-.205-.437-.45-.436-.804.002-.529.258-.854.834-1.059.406-.144 1.396-.114 1.935.059zm36.822 0l.372.12v.369c-.002.76-.42 1.258-1.24 1.476-.764.203-1.588-.025-1.815-.502-.108-.226-.112-.685-.01-.93.101-.242.402-.477.762-.596.41-.136 1.412-.103 1.93.063z" fill="#000"/></svg>