<svg width="116" height="28" viewBox="0 0 116 28" fill="none" xmlns="http://www.w3.org/2000/svg"><path fill-rule="evenodd" clip-rule="evenodd" d="M75.877.215c-.702.343-1.48 1.135-1.799 1.832-.359.785-.406 1.106-.442 3.039-.017.857-.044 1.86-.061 2.228l-.031.67H70.82v2.171l.944.036c.519.02 1.13.035 1.358.035h.415l.036 3.323c.02 1.827.036 5.15.036 7.383v4.06h3.062v-14.82h3.777l-.015-1.08-.015-1.08-1.877-.015-1.877-.014.02-2.01c.026-2.37.032-2.4.507-2.85.563-.533 1.007-.634 2.608-.596l1.084.026v-1.19c0-.654-.015-1.229-.033-1.276C80.82.01 80.568 0 78.566 0l-2.25.001-.439.214zM95.54.24c-1.546.696-2.9 1.77-4.112 3.265-.788.97-1.645 2.654-2.03 3.987-.404 1.399-.525 3.606-.28 5.127.43 2.67 1.834 5.212 3.803 6.882 1.737 1.474 3.822 2.375 5.892 2.547.858.07 2.627-.01 3.29-.15 1.15-.244 2.691-.901 3.719-1.587 1.019-.68 2.229-1.87 2.957-2.911.414-.591 1.237-2.254 1.494-3.017.414-1.228.524-2.026.524-3.801 0-1.235-.055-1.771-.266-2.608-.794-3.144-2.688-5.73-5.278-7.21a16.96 16.96 0 0 0-1.054-.553L103.74 0l-.751.006c-.8.006-.799-.003-.04.209.202.056.334.124.344.177.023.115-.247.428-.368.428-.052 0-.241-.093-.418-.207a15.188 15.188 0 0 0-.688-.41L101.455 0h-3.089l-.36.2c-.2.111-.52.308-.716.438l-.354.236-.26-.256c-.142-.14-.25-.266-.237-.278a6.25 6.25 0 0 1 .587-.178l.564-.154-.766-.001-.765-.001-.52.234zm3.5.015c0 .099-.914 1.384-.985 1.385-.116.001-.656-.37-.656-.452 0-.07.622-.487 1.176-.788.319-.173.465-.22.465-.145zm2.352.222c.195.105.523.3.729.434.323.209.365.253.304.327-.082.098-.595.401-.682.402-.057 0-.953-1.302-.953-1.386 0-.066.213.012.602.223zm-.547.72c.209.311.368.587.353.611-.015.024-.218.085-.45.135-.233.05-.466.102-.518.116-.089.024-.096-.044-.096-.891V.25l.165.19c.091.104.336.444.546.756zM34.29 2.16v1.777h3.609V.384H34.29V2.16zM99.66.67c.045.37.046.964.002 1.183-.027.135-.062.17-.167.17-.163 0-.892-.162-.892-.199 0-.1.912-1.441.98-1.441.024 0 .059.129.078.287zm-3.491.08c.332.409.333.359-.014.686-.173.164-.47.442-.661.62l-.348.323.228.045c.27.053.311.031.99-.547.26-.22.486-.4.504-.4.043 0 .751.435.87.534.082.07.083.098.01.304a4.915 4.915 0 0 1-.269.571c-.104.19-.189.379-.189.421 0 .075.2.248.285.248.023 0 .163-.24.31-.534.391-.778.362-.762 1.106-.623.336.062.624.127.64.143.052.053.082 1.785.031 1.836-.029.028-.297.029-.65 0-.33-.026-.609-.04-.618-.03-.038.038.16.355.25.402.052.027.285.062.517.08.232.016.448.045.479.064.037.023.056.614.056 1.703v1.668l.205-.017.205-.017.017-.369c.011-.26.037-.369.088-.369.325 0 1.775-.182 1.911-.24.094-.04.232-.139.305-.218l.132-.143-.269.001a17.6 17.6 0 0 0-1.062.08c-.437.044-.861.08-.944.081l-.15.002V4.878l.342-.037c.188-.02.575-.074.861-.118.987-.152 1.163-.156 1.279-.027.057.063.212.465.345.894.133.428.249.786.257.794.009.008.093 0 .188-.02.228-.045.225-.11-.046-.952-.12-.375-.232-.768-.249-.873l-.031-.191.4-.16c.22-.087.63-.265.911-.396.281-.13.546-.237.59-.237.149 0 1.359 1.96 1.266 2.053a2.41 2.41 0 0 1-.342.158c-.169.07-.308.148-.309.174 0 .073.215.119.589.125.244.004.344.028.367.088.033.086.531.424.569.386.012-.012-.033-.172-.1-.356s-.108-.348-.091-.365c.017-.017.419-.262.892-.544.95-.567.923-.563 1.132-.164.674 1.283 1.02 2.26 1.308 3.695.111.557.125.782.124 1.968-.002 1.24-.014 1.391-.149 2.024-.357 1.677-.83 2.828-1.703 4.145-.612.924-1.844 2.286-2.184 2.414-.14.053-.252.003-.572-.256-.563-.454-.94-1.197-.941-1.851 0-.403.075-.452.802-.515.939-.083 1.56-.345 2.284-.966 1.187-1.017 1.727-2.068 1.813-3.53.122-2.083-.767-3.792-2.565-4.934-.765-.487-1.457-.667-2.358-.615-1.025.06-1.435.27-2.505 1.284-.519.493-.871.783-1.054.866-.303.14-.968.294-1.264.294-.219 0-.376.07-.421.187-.017.044.016.243.073.441.102.357.102.364-.003.469a.37.37 0 0 1-.216.106c-.093 0-.11.036-.11.242 0 .349-.078.509-.29.598-.167.07-.191.109-.248.398a1.88 1.88 0 0 1-.227.567c-.139.208-.164.299-.164.595 0 .444.087.588.64 1.06 1.087.925 1.092.933 1.248 2.063.047.346.137.847.199 1.114.13.56.11.788-.091 1.052-.187.244-.352.323-.848.404-.89.145-1.314.273-2.848.863-1.056.406-1.26.45-2.072.45h-.648l-.429-.32a6.321 6.321 0 0 1-.613-.516c-.177-.186-.183-.209-.162-.543.015-.234.072-.45.173-.657l.15-.308.357.167.357.167.803-.027a8.613 8.613 0 0 0 1.542-.178l.738-.151.501.098c.6.117.892.064 1.159-.212.238-.247.443-.732.481-1.14.044-.466-.034-.553-.468-.527-.28.017-.307.008-.323-.103-.013-.09-.067-.13-.206-.157-.222-.041-.424.032-.806.295l-.273.188-.47-.036c-1.05-.082-1.63-.226-1.805-.448-.07-.088-.118-.262-.14-.502-.057-.64-.135-1.209-.336-2.473-.223-1.398-.216-1.478.127-1.621.19-.08.245-.077.787.037.39.082.696.114.924.097.322-.023.354-.038.574-.274.128-.138.279-.265.335-.283.102-.032.303-.415.371-.705a.475.475 0 0 1 .209-.258l.173-.105-.013-.508-.014-.509.274-.43c.15-.238.314-.545.364-.684.116-.327.165-1.22.084-1.522-.145-.535-.902-1.426-1.632-1.92-.743-.504-1.209-.664-2.048-.705-.569-.028-.682-.018-1.03.094a3.17 3.17 0 0 0-1.966 1.886c-.194.513-.213 1.426-.053 2.507.177 1.2.136 1.302-.763 1.886a19.9 19.9 0 0 0-.96.677c-.281.213-.51.35-.538.323-.054-.054.09-1.415.208-1.974.158-.747.578-1.91.982-2.717.856-1.711 1.958-2.986 3.54-4.098.542-.38 1.67-1.006 1.814-1.006.034 0 .136.091.226.202zm8.367.114c.671.352 1.668 1.03 1.668 1.136 0 .104-.941.844-1.073.844-.024 0-.339-.29-.702-.644a32.827 32.827 0 0 0-.894-.85l-.235-.206.263-.296c.144-.162.287-.296.317-.297.03 0 .325.14.656.313zm-1.227.907c.531.443 1.309 1.227 1.309 1.318 0 .09-.626.423-1.286.685-.227.09-.423.163-.437.163-.061 0-.915-1.793-.89-1.868.014-.042.846-.572.921-.587.017-.003.189.127.383.289zM87.42 2.885c-.978 1.073-1.348 1.753-1.465 2.69-.056.449-.019 1.21.06 1.203.043-.004.595-.65.823-.965.392-.54.787-1.492 1.04-2.506.116-.46.204-1.065.156-1.065-.016 0-.292.29-.614.643zm14.172-.461c.155.198.726 1.361.741 1.512.013.12-.016.143-.259.205-.236.06-.887.161-1.709.266l-.232.03V2.52l.178-.032c1.247-.224 1.16-.22 1.281-.065zm10.19-.031c.003.201.227 1.105.417 1.681.33.998.864 1.949 1.378 2.454.259.254.273.26.31.142.058-.18.039-1.05-.03-1.432-.08-.442-.249-.808-.642-1.39-.494-.731-1.236-1.551-1.404-1.551-.017 0-.029.043-.029.096zm-4.533.502c.52.53 1.196 1.334 1.196 1.422 0 .057-.265.23-1.075.702l-.666.387-.331-.592a18.97 18.97 0 0 0-.543-.911 7.004 7.004 0 0 1-.302-.494l-.088-.173.586-.442c.322-.243.609-.442.638-.442.029 0 .292.244.585.543zm3.748 2.095c.391 1.316 1.528 3.306 2.332 4.08.244.234.284.174.272-.411-.027-1.347-.615-2.432-1.855-3.42-.384-.308-.723-.535-.796-.536-.021 0 0 .13.047.287zm-22.48.044c-.89.596-1.61 1.42-1.95 2.23-.262.629-.387 1.47-.276 1.866.036.13.049.123.392-.219.695-.692 1.568-2.12 2.069-3.387.153-.39.28-.721.28-.737 0-.072-.13-.01-.514.247zm26.173.394c-.159.424-.32 1.227-.419 2.086-.113.976-.133 3.104-.034 3.554l.071.322.126-.158c.245-.306.686-1.216.793-1.638.21-.817.198-2.088-.029-3.168-.084-.4-.346-1.285-.381-1.285-.011 0-.068.129-.127.287zm-29.685-.171c-.222.281-.465 1.59-.497 2.673-.029.978.054 1.579.312 2.258.15.396.652 1.159.719 1.092.181-.182.195-2.813.02-4.06-.09-.652-.293-1.542-.42-1.856-.06-.146-.087-.167-.134-.107zM24.359 7.55c-.393.066-1.19.354-1.609.58a5.441 5.441 0 0 0-1.997 1.8c-.17.252-.332.46-.36.46-.028 0-.05-.53-.05-1.23V7.93h-3.006v17.172h3.062l.001-4.334c.001-4.313.051-6.441.168-7.14.166-.995.48-1.673 1.044-2.257.913-.945 1.546-1.28 2.678-1.417.864-.105 2.07.118 2.612.482.868.583 1.377 1.484 1.546 2.736.042.319.073 2.334.095 6.187l.032 5.715h3.008v-6.289c0-6.76 0-6.75-.285-7.655-.17-.543-.334-.871-.689-1.386-.783-1.137-2.285-1.974-3.938-2.195-.498-.066-1.908-.065-2.31.002zm22.098.005a6.393 6.393 0 0 0-2.553.821 5.945 5.945 0 0 0-1.556 1.207c-1.028 1.07-1.728 2.507-2.066 4.239-.322 1.652-.343 3.83-.053 5.536.362 2.135 1.446 4.014 2.876 4.985.99.672 2.517 1.142 3.704 1.14 1.657-.005 2.537-.16 3.528-.623 1.476-.69 2.631-2.001 3.166-3.595.158-.471.364-1.444.364-1.721v-.186h-3.062v.16c0 .426-.327 1.56-.592 2.055-.08.15-.319.448-.53.662-.593.606-1.225.877-2.16.93-1.56.09-2.768-.635-3.473-2.084-.483-.992-.691-1.947-.798-3.666-.136-2.18.179-4.297.832-5.602.24-.48.802-1.133 1.227-1.425.559-.384 1.517-.634 2.238-.583.527.037 1.213.244 1.588.479.768.481 1.395 1.646 1.498 2.785l.033.356 1.5.014c.825.008 1.517-.004 1.538-.027.055-.061-.045-.898-.17-1.434a5.63 5.63 0 0 0-1.468-2.698c-.483-.497-1.221-1.023-1.787-1.273-.972-.43-2.46-.606-3.824-.452zm15.172.017c-1.668.27-2.77.82-3.852 1.915a7.588 7.588 0 0 0-1.543 2.307c-.592 1.381-.834 2.59-.876 4.384-.057 2.404.226 4.047.968 5.62.9 1.907 2.412 3.091 4.541 3.555.379.083.698.101 1.723.1 1.769-.002 2.623-.164 3.816-.723a6.055 6.055 0 0 0 2.8-2.746c.3-.59.691-2.004.613-2.21-.032-.08-.19-.088-1.603-.075l-1.569.015-.151.618c-.381 1.549-1.091 2.333-2.448 2.702-.572.156-1.891.172-2.408.029-1.943-.537-3.074-2.402-3.092-5.1l-.005-.82 5.756-.013 5.756-.014-.002-.861c-.003-2.631-.304-4.133-1.108-5.54-.958-1.674-2.487-2.696-4.632-3.096-.637-.119-2.087-.144-2.684-.047zM.003 13.002c.003 5.413.054 7.72.181 8.217.485 1.881 1.42 3.126 2.908 3.871.738.37 1.025.422 2.322.42 1.564 0 2.05-.096 3.105-.61.89-.433 1.575-1.013 2.19-1.849.335-.457.363-.482.398-.355.021.075.04.647.044 1.272l.005 1.135 1.49-.014 1.49-.015.015-8.572.013-8.572h-3.118l-.002 2.857c-.005 4.014-.085 7.672-.181 8.217-.106.598-.333 1.477-.474 1.835-.377.957-1.367 1.883-2.335 2.184-1.01.313-2.308.254-3.09-.143-.384-.194-.94-.74-1.165-1.141-.1-.181-.275-.6-.386-.93-.28-.829-.289-1.06-.293-7.479l-.003-5.4H0l.003 5.072zm34.56 3.459v8.531h3.061V7.93h-3.062v8.53zM87.582 8.7c-.642.677-1.177 1.58-1.395 2.356-.147.522-.16 1.605-.027 2.126.05.194.11.373.134.397.167.173 1.15-2.06 1.447-3.289.154-.637.268-1.476.242-1.781l-.018-.213-.383.404zm24.277.09c.076.952.452 2.364.923 3.466.293.684.663 1.36.745 1.36.103 0 .236-.61.263-1.206.022-.472.005-.75-.064-1.094-.11-.548-.493-1.38-.892-1.938-.326-.454-.874-1.066-.955-1.066-.039 0-.046.155-.02.478zm-48.23 1.108c.699.152 1.399.51 1.846.942.793.768 1.187 1.739 1.31 3.227.034.413.052.762.039.774-.013.012-1.878.03-4.146.041l-4.123.02.035-.56c.04-.657.193-1.407.384-1.879.296-.733.872-1.507 1.456-1.954.348-.267 1.16-.584 1.75-.683.348-.059 1-.026 1.449.072zm20.263.608c.003 1.383.13 2.18.472 2.968.282.648.572 1.11.97 1.543.316.345.81.732.934.732.132 0-.147-1.302-.494-2.301-.435-1.255-1.47-3.33-1.796-3.6-.08-.067-.087-.007-.086.658zm31.838-.458c-.398.504-1.349 2.49-1.717 3.59-.317.946-.525 2.111-.377 2.111.128 0 .897-.716 1.233-1.148.369-.476.735-1.285.926-2.051.156-.623.265-2.604.147-2.677-.027-.017-.123.062-.212.175zm-3.972 1.697c-.154.483-.189 2.694-.061 3.788.092.78.197 1.275.366 1.716.143.373.185.352.484-.242.371-.74.465-1.132.463-1.942-.003-.822-.113-1.326-.465-2.127-.24-.546-.652-1.29-.715-1.29-.023 0-.055.044-.072.097zm-23.874.105c-.2.253-.703 1.31-.862 1.81-.14.443-.15.539-.15 1.405.001.917.004.937.18 1.4.148.389.445.94.58 1.074.117.118.4-1.053.533-2.2.144-1.256.069-3.494-.122-3.612-.023-.014-.095.04-.159.123zm-3.61 3.177c0 .168.264 1.022.462 1.49.684 1.622 2.011 3.055 3.366 3.634.246.106.47.192.497.192.096 0 .047-.18-.168-.621-.488-1.003-1.49-2.358-2.626-3.554-.363-.382-1.387-1.24-1.48-1.24-.028 0-.052.045-.052.099zm31.144-.031c-.232.128-.736.577-1.352 1.204-1.101 1.119-2.21 2.585-2.616 3.46-.262.561-.298.683-.206.682.12-.001.878-.349 1.24-.568.764-.464 1.73-1.558 2.327-2.634.328-.593.76-1.802.733-2.054-.015-.133-.03-.143-.126-.09zm-4.601.517c-.425.708-.767 1.611-1.176 3.103-.304 1.11-.462 2.325-.33 2.534.064.1.376-.141.917-.707.506-.53.807-1.027 1.001-1.658.119-.384.136-.544.138-1.286.002-.466-.029-1.02-.067-1.23-.075-.413-.218-.902-.284-.975-.023-.025-.112.074-.199.219zm-22.172.332c-.12.477-.133.645-.13 1.6.003.962.015 1.1.127 1.421a4.6 4.6 0 0 0 1.125 1.77c.257.244.652.527.737.527.111 0 .065-.896-.082-1.599-.142-.678-.192-.877-.445-1.764-.316-1.108-.944-2.488-1.132-2.488-.04 0-.122.22-.2.533zm2.207 3.5c.064.734.469 1.881.896 2.536.394.605 1.102 1.107 1.757 1.244.36.076 1.36.081 1.405.007.122-.197-.89-1.441-2.028-2.494-.943-.872-1.906-1.662-2.024-1.662-.021 0-.023.166-.006.369zm17.715-.085c-.98.738-3.008 2.72-3.396 3.32-.231.358-.275.515-.163.584.035.022.279.038.543.036 1.592-.013 2.68-.936 3.19-2.707.195-.676.326-1.41.263-1.472-.032-.032-.196.057-.437.239zm-22.215.826c0 .118.797 1.307 1.176 1.754.61.719 1.522 1.325 2.324 1.544.393.108 1.8.133 2.104.038l.163-.051-.41-.409c-.835-.834-2.898-2.086-4.444-2.697-.351-.138-.913-.249-.913-.18zm26.442.093c-.714.229-2.929 1.428-3.81 2.064-.85.613-1.315 1.105-1.118 1.18.041.016.33.045.642.066 1.942.126 3.332-.72 4.663-2.84.168-.268.306-.508.306-.533 0-.078-.338-.047-.683.063zm-18.267 3.48c-.956.036-1.784.132-2.583.296-1.04.215-1.558.368-1.532.452.03.09 1.59.606 2.283.754.489.104.75.123 1.75.127 1.067.003 1.212-.008 1.559-.117a3.04 3.04 0 0 0 1.182-.7l.252-.235.35.074c.46.097 1.375.42 1.399.493.01.032-.257.24-.594.465-.797.529-1.658 1.298-2.463 2.198-.41.46-.385.533.18.533h.374l.945-.948c.874-.877 1.6-1.487 2.111-1.774l.208-.117.367.241c.625.41 1.18.89 2.039 1.76l.827.838h.384c.283 0 .392-.02.414-.078.041-.106-.177-.394-.773-1.021-.565-.596-.969-.937-1.87-1.581-.346-.248-.629-.476-.629-.509 0-.073.443-.246 1.132-.442l.53-.15.358.303c.401.34.73.523 1.209.67.461.142 2.401.14 3.087-.002.93-.193 2.408-.667 2.447-.784.032-.097-.981-.363-2.133-.56-.87-.149-2.859-.236-3.786-.167-1.123.084-2.13.278-2.885.555l-.589.217c-.108.04-.257.008-.68-.143-1.423-.508-3.013-.72-4.87-.648z" fill="#000"/></svg>