<svg width="105" height="28" viewBox="0 0 105 28" fill="none" xmlns="http://www.w3.org/2000/svg"><path fill-rule="evenodd" clip-rule="evenodd" d="M41.916.065c-.012.035-.14.08-.286.099-.145.02-.3.07-.343.114-.044.044-.154.08-.246.08-.094 0-.182.038-.201.088a.146.146 0 0 1-.125.089c-.05 0-.09.026-.09.058s-.066.074-.145.094c-.079.02-.158.074-.175.12a.141.141 0 0 1-.123.083.09.09 0 0 0-.09.089.09.09 0 0 1-.09.088.09.09 0 0 0-.089.09c0 .048-.026.088-.058.088s-.074.065-.094.144c-.02.079-.074.158-.12.175a.141.141 0 0 0-.083.123c0 .05-.024.09-.053.09-.029 0-.07.074-.093.163-.023.089-.07.18-.105.201-.035.022-.076.189-.091.37-.016.183-.051.332-.08.332-.028 0-.052.24-.052.532 0 .293.024.533.052.533.029 0 .065.152.08.337.015.186.059.348.096.36.038.013.069.088.069.168 0 .08.04.16.088.179.05.019.09.099.09.177 0 .08.04.16.088.178.049.019.089.071.089.117 0 .045.04.082.089.082.048 0 .088.04.088.089 0 .049.04.089.09.089a.09.09 0 0 1 .088.088c0 .05.04.089.089.089a.09.09 0 0 1 .089.089c0 .049.037.089.082.089.046 0 .098.04.117.088a.146.146 0 0 0 .125.09c.05 0 .09.025.09.057s.073.077.163.099a.6.6 0 0 1 .24.12c.044.043.155.078.248.078s.18.034.193.074c.019.056.289.074 1.08.074.793 0 1.063-.018 1.082-.074.013-.04.1-.074.193-.074s.204-.035.247-.079a.619.619 0 0 1 .241-.119c.09-.022.163-.067.163-.099s.04-.058.09-.058c.05 0 .106-.04.125-.089.019-.048.068-.088.11-.088.104 0 .543-.435.59-.587.022-.068.065-.124.095-.124s.055-.04.055-.09c0-.05.04-.106.09-.125.048-.019.088-.07.088-.112 0-.043.035-.114.079-.157.043-.043.096-.185.117-.315.021-.13.065-.244.099-.255.037-.013.06-.334.06-.84 0-.505-.023-.826-.06-.838-.034-.011-.078-.126-.1-.256-.02-.13-.073-.271-.116-.315a.313.313 0 0 1-.079-.192c0-.063-.025-.115-.055-.115s-.072-.054-.093-.12c-.043-.135-.596-.708-.684-.708-.03 0-.056-.04-.056-.089a.09.09 0 0 0-.089-.089.089.089 0 0 1-.089-.088c0-.06-.06-.09-.178-.09s-.177-.029-.177-.088c0-.06-.06-.089-.178-.089-.111 0-.178-.03-.178-.081 0-.056-.104-.09-.337-.11-.186-.015-.348-.058-.36-.096-.03-.09-1.356-.095-1.386-.005zM13.857 5.92c0 3.22-.02 4.675-.062 4.675-.034 0-.122-.064-.195-.143a.721.721 0 0 0-.294-.184c-.087-.022-.16-.062-.16-.088 0-.027-.08-.066-.177-.088-.098-.021-.178-.06-.178-.085 0-.026-.11-.062-.245-.08-.135-.018-.265-.063-.288-.1-.023-.038-.152-.084-.287-.102-.135-.018-.246-.053-.246-.077 0-.025-.153-.064-.34-.087-.188-.024-.355-.065-.372-.092-.017-.028-.303-.069-.636-.092-.333-.023-.606-.064-.606-.092 0-.028-.333-.05-.74-.05s-.74.022-.74.05c0 .028-.257.066-.572.084-.314.019-.587.06-.607.092-.02.031-.189.076-.376.1-.187.023-.34.062-.34.087 0 .024-.11.059-.246.077-.135.018-.261.058-.281.089-.02.03-.103.076-.184.1-.081.026-.164.071-.184.102-.02.03-.146.07-.281.089-.152.02-.246.063-.246.114 0 .044-.04.08-.088.08-.05 0-.09.025-.09.055s-.08.072-.177.094c-.098.02-.178.06-.178.088 0 .028-.08.068-.177.089-.098.021-.178.077-.178.123s-.04.084-.089.084c-.049 0-.089.025-.089.055s-.08.072-.177.093c-.098.021-.178.077-.178.123s-.04.084-.089.084a.09.09 0 0 0-.089.089.09.09 0 0 1-.088.089c-.05 0-.09.026-.09.059s-.04.06-.088.06a.09.09 0 0 0-.089.088.09.09 0 0 1-.089.089.089.089 0 0 0-.089.088c0 .05-.04.09-.088.09a.09.09 0 0 0-.09.088c0 .049-.04.089-.088.089a.09.09 0 0 0-.089.088.09.09 0 0 1-.089.09c-.049 0-.088.052-.088.118 0 .065-.04.118-.09.118a.09.09 0 0 0-.088.089c0 .049-.04.088-.089.088-.055 0-.089.056-.089.149 0 .092-.033.147-.089.147a.09.09 0 0 0-.088.09.09.09 0 0 1-.09.088c-.049 0-.088.053-.088.118 0 .066-.04.119-.089.119-.06 0-.089.059-.089.177 0 .119-.03.178-.089.178-.055 0-.088.056-.088.148s-.034.148-.09.148c-.058 0-.088.059-.088.177 0 .119-.03.178-.089.178-.06 0-.089.059-.089.177 0 .119-.03.178-.089.178-.06 0-.088.06-.088.182 0 .1-.04.221-.09.27a.434.434 0 0 0-.088.267c0 .097-.04.217-.089.266-.051.051-.089.196-.089.344 0 .173-.029.267-.089.29-.069.027-.088.144-.088.533 0 .388-.02.506-.09.532-.074.03-.088.224-.088 1.251s.014 1.223.089 1.251c.069.027.089.144.089.531 0 .402.017.497.088.497.067 0 .09.072.09.291 0 .18.033.326.088.38a.434.434 0 0 1 .089.267c0 .098.04.218.089.266a.39.39 0 0 1 .089.241c0 .096.033.153.088.153.063 0 .09.062.09.207 0 .144.026.207.088.207.06 0 .089.059.089.177 0 .119.03.178.089.178.055 0 .089.056.089.148s.033.148.088.148c.06 0 .09.059.09.177 0 .119.029.178.088.178a.09.09 0 0 1 .089.089c0 .049.04.088.089.088.059 0 .089.06.089.178s.03.178.088.178a.09.09 0 0 1 .09.088c0 .05.04.09.088.09.049 0 .089.039.089.088 0 .049.04.089.089.089.049 0 .089.04.089.088 0 .05.04.09.088.09.05 0 .09.052.09.117 0 .066.039.119.088.119a.09.09 0 0 1 .089.089c0 .048.04.088.089.088.049 0 .088.04.088.09 0 .048.04.088.09.088.048 0 .088.027.088.06 0 .032.04.058.089.058a.09.09 0 0 1 .089.09c0 .048.04.088.089.088a.09.09 0 0 1 .088.089c0 .048.04.088.09.088a.09.09 0 0 1 .088.09c0 .048.04.088.089.088a.09.09 0 0 1 .089.089c0 .059.059.088.177.088.119 0 .178.03.178.09 0 .048.04.088.089.088a.09.09 0 0 1 .089.089c0 .059.059.088.177.088.119 0 .178.03.178.09 0 .058.06.088.178.088s.177.03.177.089.06.089.178.089.178.03.178.088c0 .06.059.09.177.09.111 0 .178.03.178.08s.094.094.25.115c.138.018.26.062.272.096.011.035.139.063.282.063.184 0 .262.025.262.082 0 .06.114.089.425.106.26.015.435.052.45.096.034.103 2.776.102 2.81-.001.016-.046.192-.08.48-.095.337-.017.454-.044.454-.106 0-.057.078-.082.262-.082.143 0 .27-.027.281-.06.011-.034.127-.078.256-.1.13-.02.272-.073.315-.116a.313.313 0 0 1 .193-.079c.063 0 .114-.026.114-.058s.105-.076.233-.096c.129-.02.248-.074.265-.12a.136.136 0 0 1 .117-.08c.047 0 .095-.026.106-.056.01-.03.093-.073.182-.095l.163-.04v.361c0 .282.02.362.089.362.049 0 .089.04.089.088 0 .078.361.09 2.895.09 2.586 0 2.9-.01 2.932-.094.02-.052.036-5.99.036-13.197V1.245h-6.04V5.92zm65.851 0c0 4.117-.01 4.675-.088 4.675-.05 0-.09-.024-.09-.054s-.077-.072-.172-.093c-.095-.02-.187-.076-.205-.123a.143.143 0 0 0-.124-.085c-.05 0-.09-.026-.09-.058s-.107-.076-.237-.097c-.13-.02-.237-.058-.237-.084 0-.026-.08-.065-.178-.086-.098-.022-.178-.06-.178-.086 0-.026-.11-.061-.245-.08-.135-.017-.261-.058-.281-.089-.02-.03-.183-.076-.362-.1-.179-.024-.34-.066-.356-.092-.017-.027-.304-.068-.637-.09-.333-.024-.606-.065-.606-.093 0-.028-.36-.05-.8-.05-.439 0-.799.022-.799.05 0 .027-.245.067-.544.089-.3.02-.56.06-.577.089-.019.027-.163.064-.322.082-.159.017-.305.057-.326.088-.02.031-.141.073-.269.093-.127.02-.248.063-.268.095-.02.032-.149.077-.286.099-.138.022-.25.06-.25.087 0 .025-.08.064-.178.085-.097.022-.177.062-.177.09 0 .027-.08.066-.178.088-.098.021-.178.063-.178.093s-.034.055-.075.055c-.042 0-.122.053-.177.118-.056.065-.142.119-.191.119-.05 0-.09.026-.09.059 0 .032-.034.059-.075.059-.042 0-.122.053-.177.118-.056.065-.142.119-.191.119a.09.09 0 0 0-.09.088c0 .05-.04.09-.088.09-.05 0-.09.026-.09.058 0 .033-.04.06-.088.06a.089.089 0 0 0-.089.088c0 .05-.04.09-.089.09a.09.09 0 0 0-.089.088.09.09 0 0 1-.088.089.089.089 0 0 0-.09.088.09.09 0 0 1-.088.09.09.09 0 0 0-.089.088.09.09 0 0 1-.089.089.09.09 0 0 0-.089.088c0 .05-.04.09-.088.09a.089.089 0 0 0-.09.088c0 .049-.04.089-.088.089a.09.09 0 0 0-.089.089c0 .048-.04.088-.089.088-.049 0-.089.053-.089.119s-.039.118-.088.118c-.056 0-.09.056-.09.148s-.033.148-.088.148c-.05 0-.089.053-.089.118 0 .066-.04.119-.089.119-.055 0-.089.056-.089.148s-.033.148-.088.148c-.05 0-.09.052-.09.118s-.039.118-.088.118c-.06 0-.089.06-.089.178s-.03.177-.089.177-.088.06-.088.178-.03.178-.09.178c-.063 0-.088.065-.088.236 0 .171-.025.237-.089.237-.066 0-.089.069-.089.266s-.023.266-.089.266c-.065 0-.088.07-.088.267s-.023.266-.09.266c-.07 0-.088.089-.088.444s-.018.444-.089.444c-.073 0-.089.108-.089.621s-.015.622-.089.622c-.076 0-.088-.198-.088-1.42 0-1.224-.013-1.421-.09-1.421-.07 0-.088-.085-.088-.414 0-.33-.018-.415-.089-.415-.067 0-.089-.072-.089-.295 0-.224-.021-.296-.088-.296-.065 0-.09-.066-.09-.237 0-.171-.024-.237-.088-.237-.06 0-.089-.059-.089-.177 0-.119-.03-.178-.089-.178-.06 0-.089-.059-.089-.177 0-.119-.03-.178-.088-.178-.06 0-.09-.06-.09-.178s-.029-.177-.088-.177c-.05 0-.089-.053-.089-.118 0-.066-.04-.119-.089-.119-.055 0-.089-.056-.089-.148s-.033-.148-.088-.148c-.05 0-.09-.052-.09-.118s-.039-.118-.088-.118a.09.09 0 0 1-.089-.09.089.089 0 0 0-.089-.088.089.089 0 0 1-.089-.089.089.089 0 0 0-.088-.088.09.09 0 0 1-.09-.09.089.089 0 0 0-.088-.088.089.089 0 0 1-.089-.089.09.09 0 0 0-.089-.088.089.089 0 0 1-.089-.09.089.089 0 0 0-.088-.088.089.089 0 0 1-.09-.089.09.09 0 0 0-.088-.089c-.049 0-.089-.026-.089-.059 0-.032-.04-.059-.089-.059-.049 0-.089-.038-.089-.084 0-.046-.08-.102-.177-.123-.098-.021-.178-.061-.178-.089 0-.027-.08-.067-.178-.089-.097-.021-.177-.063-.177-.092 0-.03-.067-.07-.148-.09-.082-.02-.148-.06-.148-.088 0-.027-.093-.067-.207-.089-.114-.021-.208-.06-.208-.086 0-.027-.08-.066-.178-.087-.097-.022-.177-.06-.177-.087 0-.026-.153-.067-.34-.09-.188-.023-.356-.066-.373-.094-.018-.028-.224-.07-.46-.091-.234-.022-.426-.063-.426-.09 0-.028-.52-.051-1.155-.051s-1.155.023-1.155.05c0 .028-.192.069-.426.09-.235.023-.442.062-.46.089-.017.027-.136.065-.264.085-.127.02-.247.061-.266.09-.019.03-.148.074-.286.097-.139.023-.252.064-.252.091 0 .027-.08.067-.177.088-.098.022-.178.062-.178.09 0 .026-.08.066-.178.088-.098.021-.177.063-.177.093s-.04.055-.09.055c-.049 0-.135.053-.19.118-.056.065-.136.119-.178.119-.041 0-.075.026-.075.059 0 .032-.04.059-.087.059-.047 0-.138.056-.202.124-.08.085-.154.112-.24.085-.109-.035-.123-.086-.123-.445 0-.223-.016-.448-.036-.499-.032-.084-.353-.094-3.014-.094-2.66 0-2.981.01-3.013.094-.02.051-.036 4.073-.036 8.936 0 7.901.01 8.843.09 8.843.05 0 .106.04.125.088.03.078.41.09 2.923.09h2.888l.036-.134c.02-.073.036-2.616.036-5.652 0-3.639.021-5.518.06-5.518.033 0 .06-.053.06-.118 0-.066.04-.119.089-.119a.09.09 0 0 0 .088-.089.09.09 0 0 1 .09-.088.09.09 0 0 0 .088-.09c0-.048.028-.088.062-.088s.124-.066.2-.148c.075-.081.167-.148.204-.148.037 0 .067-.037.067-.082 0-.046.069-.1.153-.12a.704.704 0 0 0 .284-.18.714.714 0 0 1 .291-.182c.088-.022.16-.06.16-.085 0-.025.11-.06.246-.078.135-.018.266-.067.292-.109.062-.1 1.755-.114 1.818-.016.024.036.143.084.265.107.122.022.222.064.222.092 0 .029.08.07.177.091.098.021.178.061.178.089 0 .027.08.067.178.088.097.022.177.077.177.123 0 .047.04.085.09.085a.09.09 0 0 1 .088.088c0 .05.037.09.082.09.046 0 .1.066.12.147.02.082.063.148.095.148s.058.04.058.09c0 .05.04.107.09.125.048.02.088.099.088.178 0 .079.04.159.089.177.057.023.089.114.089.262 0 .155.033.246.103.285.098.055.105.383.125 5.306.02 5.056.025 5.252.133 5.36.107.107.245.112 2.984.112h2.873v-4.35c0-3.827.01-4.35.088-4.35.074 0 .09.113.09.652s.014.65.088.65c.07 0 .089.086.089.415 0 .329.018.414.089.414.069 0 .089.08.089.355 0 .276.02.355.088.355.063 0 .09.063.09.208 0 .144.026.207.088.207.064 0 .089.065.089.236 0 .171.025.237.089.237.059 0 .089.06.089.178s.03.177.088.177c.06 0 .09.06.09.178s.029.177.088.177c.06 0 .089.06.089.178s.03.177.089.177c.049 0 .088.04.088.09 0 .048.04.088.09.088.059 0 .088.06.088.177 0 .119.03.178.089.178a.09.09 0 0 1 .089.089c0 .049.04.088.089.088a.09.09 0 0 1 .088.09c0 .048.04.088.09.088.049 0 .088.053.088.118 0 .066.04.119.089.119.055 0 .089.056.089.148s.033.148.089.148c.049 0 .088.04.088.088 0 .05.04.09.09.09a.09.09 0 0 1 .088.088c0 .049.04.089.089.089.049 0 .089.04.089.088 0 .05.04.09.089.09.048 0 .088.037.088.083 0 .047.08.102.178.123.098.022.178.064.178.094s.04.054.089.054a.09.09 0 0 1 .088.09c0 .048.04.088.09.088.048 0 .088.037.088.082 0 .046.067.1.148.12.081.02.148.063.148.095s.053.058.119.058c.065 0 .118.04.118.089 0 .055.056.088.15.088.082 0 .165.039.183.086.018.047.11.102.205.123.095.02.173.06.173.087 0 .028.08.068.177.09.098.02.178.063.178.093s.065.054.145.054c.08 0 .166.036.193.08.025.044.151.096.279.116.128.02.248.06.266.089.02.028.14.068.267.089.128.02.248.06.266.09.02.03.22.066.446.08.244.015.42.054.434.096.033.1 2.658.1 2.692 0 .014-.042.19-.081.434-.096.226-.014.428-.053.45-.086.02-.033.18-.073.353-.09s.351-.066.395-.11c.044-.044.171-.08.283-.08.141 0 .203-.027.203-.09 0-.058.06-.088.178-.088.098 0 .177-.026.177-.058s.074-.076.163-.099a.618.618 0 0 0 .24-.12.314.314 0 0 1 .194-.078c.063 0 .114-.04.114-.089 0-.059.06-.088.178-.088h.177v.384c0 .303.02.385.09.385.048 0 .088.026.088.059 0 .039 1.005.06 2.895.06h2.895l.035-.134c.047-.175.049-26.045.002-26.167-.032-.084-.354-.094-3.02-.094h-2.985V5.92zM28.914 9.215c-.302.013-.548.045-.548.072 0 .026-.218.065-.485.085-.266.021-.5.062-.518.092-.018.03-.187.073-.374.097-.187.023-.34.064-.34.09 0 .028-.12.067-.267.09-.147.021-.267.062-.267.09 0 .027-.093.066-.207.088-.114.021-.207.062-.207.09 0 .03-.107.07-.237.09-.13.021-.237.061-.237.09 0 .028-.04.051-.09.051a.143.143 0 0 0-.124.085c-.018.047-.11.103-.205.123-.095.021-.173.063-.173.092 0 .03-.067.07-.148.09-.081.02-.148.061-.148.09 0 .03-.04.053-.09.053a.144.144 0 0 0-.125.087c-.018.047-.088.104-.155.125a.746.746 0 0 0-.253.18c-.072.077-.161.14-.198.14-.037 0-.067.04-.067.09 0 .048-.03.088-.067.088-.084 0-.822.74-.822.825 0 .035-.04.063-.088.063a.09.09 0 0 0-.09.089.09.09 0 0 1-.088.088.09.09 0 0 0-.089.091c0 .05-.038.105-.084.123-.045.017-.1.096-.119.175-.02.08-.062.144-.094.144s-.058.04-.058.09c0 .05-.038.106-.084.123-.046.018-.1.097-.12.176-.02.079-.062.144-.093.144-.032 0-.059.051-.059.114s-.035.15-.078.193a.619.619 0 0 0-.12.24c-.022.09-.067.163-.099.163s-.058.051-.058.114-.04.154-.089.203a.385.385 0 0 0-.089.238c0 .082-.036.17-.08.196-.044.026-.095.178-.112.336-.017.159-.057.305-.089.326-.031.02-.07.18-.087.354-.017.174-.056.334-.09.355-.032.02-.072.303-.088.627-.019.36-.057.598-.097.612-.092.03-.094 1.65-.002 1.68.039.014.078.28.097.672.018.357.059.666.091.687.033.02.072.18.089.355.016.177.065.338.11.364.046.027.08.145.08.275 0 .147.032.24.09.261.058.023.088.116.088.273 0 .173.025.239.09.239.058 0 .088.058.088.17 0 .098.038.187.089.206.049.019.089.099.089.178 0 .078.04.158.089.177.048.019.088.102.088.184 0 .094.034.15.09.15.049 0 .088.052.088.118s.04.119.089.119c.055 0 .089.055.089.148 0 .092.033.147.088.147.05 0 .09.037.09.083 0 .045.04.098.088.116a.146.146 0 0 1 .089.125c0 .05.026.09.058.09s.075.067.095.149c.02.081.075.148.12.148s.082.04.082.088c0 .05.04.09.09.09a.09.09 0 0 1 .088.088c0 .049.04.089.089.089.049 0 .089.04.089.088 0 .05.04.09.088.09a.09.09 0 0 1 .09.088c0 .049.04.089.088.089.049 0 .089.037.089.082 0 .045.067.1.148.12.081.02.148.063.148.095s.04.058.089.058a.09.09 0 0 1 .089.089c0 .049.052.088.118.088.065 0 .119.037.119.083 0 .045.066.099.148.12.081.02.148.063.148.094 0 .032.04.058.09.058.05 0 .106.04.125.09.019.048.098.088.176.088.086 0 .142.035.142.089 0 .049.051.088.114.088s.15.036.193.08a.62.62 0 0 0 .241.119c.09.022.162.067.162.099s.081.058.18.058c.105 0 .194.037.213.088.02.05.108.09.202.09.091 0 .202.035.246.078.043.044.196.095.338.114.143.02.276.06.295.09.02.03.18.07.354.085.174.017.334.057.355.089.02.032.304.074.629.093.335.02.6.061.612.097.03.09 2.303.087 2.333-.004.014-.04.252-.078.61-.097.379-.02.616-.06.668-.11.044-.045.2-.08.346-.08.158 0 .303-.037.356-.09a.434.434 0 0 1 .266-.088c.098 0 .218-.04.267-.09.049-.048.18-.088.292-.088.14 0 .203-.027.203-.089 0-.059.059-.088.177-.088.098 0 .178-.026.178-.058s.073-.077.162-.1a.619.619 0 0 0 .241-.119.314.314 0 0 1 .193-.078c.063 0 .115-.04.115-.09 0-.053.055-.088.141-.088.078 0 .157-.04.176-.089a.146.146 0 0 1 .125-.088c.05 0 .09-.027.09-.059s.065-.074.144-.094c.08-.02.158-.073.176-.12a.141.141 0 0 1 .123-.083c.05 0 .09-.04.09-.088a.09.09 0 0 1 .09-.09c.048 0 .088-.04.088-.088 0-.049.028-.089.063-.089.085 0 .648-.559.648-.643 0-.037.04-.067.089-.067.049 0 .089-.03.089-.067 0-.037.063-.126.14-.198a.747.747 0 0 0 .18-.253c.022-.067.078-.137.126-.155a.144.144 0 0 0 .086-.124c0-.05.024-.09.053-.09.03 0 .07-.07.092-.156a.612.612 0 0 1 .125-.24.328.328 0 0 0 .086-.2c0-.063.024-.115.054-.115s.072-.08.094-.177c.021-.098.062-.178.09-.178.03 0 .07-.1.093-.222.023-.122.065-.237.095-.256.029-.02.058-.153.065-.296l.012-.261-3.005-.016c-2.224-.011-3.006.002-3.006.052 0 .085-.526.607-.666.66-.057.022-.103.067-.103.1 0 .034-.066.062-.146.062-.08 0-.166.036-.192.08-.026.044-.18.095-.341.113-.162.017-.304.061-.316.097-.028.081-1.848.091-1.848.01 0-.03-.152-.074-.338-.097-.186-.024-.375-.079-.419-.123a.286.286 0 0 0-.17-.08.307.307 0 0 1-.177-.09.335.335 0 0 0-.203-.088c-.063 0-.114-.026-.114-.058s-.067-.075-.148-.095c-.082-.02-.148-.074-.148-.12 0-.045-.04-.082-.09-.082a.089.089 0 0 1-.088-.089.09.09 0 0 0-.089-.088.089.089 0 0 1-.089-.09c0-.048-.037-.088-.082-.088-.045 0-.1-.067-.12-.148-.02-.081-.063-.148-.095-.148s-.058-.04-.058-.09c0-.05-.04-.107-.089-.125-.049-.019-.089-.097-.089-.173 0-.076-.035-.16-.08-.186-.088-.053-.169-.45-.117-.583.028-.074.886-.086 6.23-.087 3.801 0 6.23-.022 6.285-.057.076-.048.088-.33.087-1.955-.002-1.29-.023-1.913-.067-1.94-.035-.023-.082-.221-.106-.44-.023-.22-.065-.4-.093-.4-.028 0-.069-.12-.09-.267-.023-.146-.063-.266-.09-.266-.026 0-.066-.12-.088-.266-.022-.147-.063-.267-.09-.267-.028 0-.067-.093-.089-.207-.021-.114-.06-.207-.087-.207-.026 0-.065-.08-.087-.177-.02-.098-.063-.178-.092-.178-.03 0-.07-.066-.09-.148-.02-.081-.06-.148-.086-.148-.026 0-.065-.077-.086-.172-.02-.095-.076-.188-.123-.206-.047-.018-.085-.063-.085-.101 0-.038-.067-.131-.148-.207-.082-.075-.148-.163-.148-.196 0-.032-.093-.15-.207-.26-.114-.11-.208-.22-.208-.243 0-.056-.565-.627-.62-.627-.025 0-.146-.104-.27-.23-.123-.128-.28-.25-.348-.271-.068-.022-.124-.064-.124-.095 0-.03-.04-.055-.09-.055a.142.142 0 0 1-.123-.083c-.018-.046-.097-.1-.176-.12-.079-.02-.144-.06-.144-.09 0-.028-.08-.07-.177-.091-.098-.022-.178-.062-.178-.09 0-.027-.08-.067-.178-.088-.097-.021-.177-.061-.177-.089 0-.027-.08-.067-.178-.089-.098-.021-.178-.062-.178-.09 0-.029-.093-.07-.207-.091-.114-.021-.207-.06-.207-.085 0-.025-.12-.064-.267-.086-.146-.022-.266-.063-.266-.09 0-.029-.147-.07-.326-.093-.179-.022-.326-.062-.326-.088 0-.026-.206-.066-.458-.09-.253-.023-.473-.063-.49-.088-.036-.056-1.716-.108-2.471-.076zm65.732 0c-.3.013-.547.046-.547.073 0 .027-.214.068-.474.09-.26.023-.474.064-.474.09 0 .027-.147.067-.326.09-.179.022-.325.061-.325.087 0 .026-.11.062-.246.08-.135.018-.262.06-.283.094-.02.033-.15.079-.287.1-.138.023-.25.062-.25.088 0 .025-.08.064-.178.085-.098.022-.178.062-.178.09 0 .027-.08.066-.177.088-.098.021-.178.061-.178.089 0 .027-.078.066-.172.087-.096.021-.188.077-.206.123a.143.143 0 0 1-.123.086c-.05 0-.091.025-.091.055s-.058.073-.128.095a.738.738 0 0 0-.251.172.78.78 0 0 1-.228.168c-.057.021-.104.064-.104.096 0 .03-.053.074-.119.094-.128.041-1.065.95-1.065 1.035 0 .028-.08.13-.178.228-.097.098-.177.207-.177.243 0 .037-.038.08-.084.098-.046.018-.1.097-.12.176-.02.079-.062.143-.094.143s-.058.041-.058.091c0 .05-.038.105-.085.123-.047.018-.102.11-.123.206-.02.095-.063.172-.092.172-.03 0-.055.038-.055.085a.284.284 0 0 1-.082.166.662.662 0 0 0-.123.27c-.023.104-.062.19-.088.19-.026 0-.064.106-.085.236-.02.13-.06.237-.089.237-.028 0-.065.11-.083.245-.018.135-.058.262-.088.281-.03.02-.07.153-.089.296-.019.143-.058.276-.088.296-.03.02-.072.262-.093.539-.021.276-.065.512-.098.523-.08.026-.082 2.655-.001 2.683.032.01.076.232.098.493.021.26.062.488.09.507.029.019.069.179.09.355.02.177.061.337.091.357.03.02.07.146.088.281.018.135.054.245.08.245.025 0 .065.085.088.19a.662.662 0 0 0 .123.27.32.32 0 0 1 .081.196c0 .063.026.114.058.114s.077.073.1.162c.022.09.075.198.119.241a.277.277 0 0 1 .079.163c0 .047.024.085.054.085s.072.08.094.177c.021.098.077.178.123.178s.084.04.084.089c0 .049.027.088.06.088.032 0 .058.034.058.076 0 .042.054.121.119.177.065.056.118.142.118.19 0 .05.04.09.09.09.048 0 .088.025.088.056 0 .073.76.832.832.832.031 0 .056.04.056.088 0 .05.04.09.09.09.048 0 .088.04.088.088 0 .049.04.089.089.089.049 0 .088.04.088.089 0 .055.056.088.149.088.092 0 .148.034.148.09 0 .048.052.088.118.088s.118.04.118.089c0 .055.057.088.15.088.083 0 .165.038.182.084.018.046.097.1.176.12.08.02.144.062.144.093 0 .032.053.058.118.058.066 0 .119.04.119.09 0 .058.059.088.173.088.096 0 .21.036.252.079a.618.618 0 0 0 .242.12c.089.022.162.066.162.098s.091.058.203.058c.111 0 .243.04.292.089a.435.435 0 0 0 .266.089c.098 0 .214.036.258.08.045.044.236.093.425.109s.36.056.382.089c.022.033.291.074.6.091.332.019.569.058.582.097.03.09 2.303.093 2.333.003.012-.036.276-.078.612-.097.325-.02.608-.061.629-.093.02-.032.18-.072.355-.088.174-.017.333-.055.353-.086.02-.03.153-.07.295-.09.143-.019.295-.07.339-.114.043-.043.154-.079.246-.079.094 0 .182-.039.201-.089.019-.048.099-.088.178-.088.079 0 .159-.04.177-.09.019-.048.099-.088.178-.088.079 0 .159-.04.178-.089.018-.049.098-.088.177-.088.079 0 .159-.04.178-.09.019-.048.102-.088.184-.088.094 0 .15-.033.15-.089 0-.049.037-.088.082-.088.046 0 .098-.04.117-.09.019-.048.102-.088.184-.088.094 0 .15-.033.15-.089a.09.09 0 0 1 .089-.089.09.09 0 0 0 .089-.088c0-.05.025-.09.055-.09.073 0 1.011-.936 1.011-1.009 0-.03.037-.055.082-.055.045 0 .099-.067.12-.148.02-.082.063-.148.095-.148s.058-.041.058-.09a.14.14 0 0 1 .083-.124c.046-.017.1-.096.12-.175.02-.08.062-.144.094-.144s.058-.04.058-.09c0-.05.04-.107.089-.125.049-.019.089-.099.089-.178 0-.079.04-.159.089-.177.05-.02.088-.107.088-.201 0-.092.036-.203.079-.246.044-.043.096-.185.117-.314.021-.13.066-.245.099-.256.033-.011.061-.112.061-.223v-.202h-2.978c-2.91 0-2.98.003-3.079.119-.056.065-.102.145-.102.177 0 .033-.04.059-.089.059a.089.089 0 0 0-.089.089.09.09 0 0 1-.09.089.142.142 0 0 0-.123.083c-.018.046-.097.1-.176.12-.079.02-.144.06-.144.089 0 .03-.08.07-.177.092-.098.022-.178.06-.178.086 0 .026-.113.062-.25.08-.138.019-.26.062-.272.097-.027.082-1.965.087-1.965.006 0-.032-.133-.075-.296-.097-.163-.021-.296-.062-.296-.09 0-.028-.105-.067-.233-.088-.129-.02-.248-.074-.265-.12a.14.14 0 0 0-.122-.08c-.05 0-.09-.026-.09-.056 0-.03-.055-.072-.12-.093-.162-.051-.869-.764-.92-.928a.619.619 0 0 0-.123-.212.283.283 0 0 1-.082-.166c0-.046-.023-.085-.052-.085-.03 0-.07-.093-.092-.207-.021-.114-.064-.207-.095-.207-.084 0-.069-.115.028-.211.072-.072.984-.085 6.233-.085 3.381-.001 6.208-.017 6.281-.037l.133-.036v-1.763c0-1.114-.021-1.771-.058-1.784-.033-.01-.077-.232-.098-.493-.022-.26-.064-.49-.094-.509-.03-.02-.07-.153-.089-.296-.018-.143-.057-.275-.086-.294-.029-.02-.069-.139-.09-.266-.021-.127-.073-.267-.116-.31a.31.31 0 0 1-.079-.193c0-.063-.027-.114-.059-.114s-.075-.105-.096-.233c-.02-.128-.074-.247-.119-.265a.14.14 0 0 1-.082-.122c0-.05-.026-.09-.058-.09s-.076-.073-.098-.163a.632.632 0 0 0-.12-.24c-.043-.044-.079-.114-.079-.158 0-.043-.04-.093-.089-.112a.145.145 0 0 1-.088-.125.09.09 0 0 0-.089-.09.09.09 0 0 1-.089-.089c0-.049-.025-.089-.055-.089-.031 0-.073-.053-.093-.119-.042-.13-.952-1.064-1.037-1.064-.029 0-.144-.093-.254-.207-.111-.114-.232-.207-.27-.207-.037 0-.068-.027-.068-.059 0-.031-.064-.074-.143-.094-.08-.02-.159-.073-.176-.12a.142.142 0 0 0-.123-.083c-.05 0-.091-.024-.091-.054s-.08-.072-.177-.094c-.098-.02-.178-.063-.178-.092 0-.03-.067-.07-.148-.09-.081-.02-.148-.06-.148-.085 0-.027-.08-.066-.178-.088-.097-.021-.177-.06-.177-.087 0-.026-.094-.065-.208-.086-.114-.022-.207-.061-.207-.089 0-.027-.12-.068-.266-.09-.147-.022-.267-.061-.267-.088 0-.027-.147-.067-.326-.09-.179-.022-.325-.063-.325-.09 0-.028-.207-.07-.46-.092-.252-.024-.471-.063-.488-.088-.036-.055-1.834-.108-2.59-.076zm-55.029 9.28c0 8.829.001 8.909.119 9.026.115.115.197.118 2.983.118h2.866l.035-.133c.047-.175.049-17.701.002-17.823-.032-.084-.354-.094-3.02-.094h-2.985v8.907zm-8.882-4.592c0 .028.146.07.325.093.18.022.326.063.326.09 0 .028.08.068.178.09.097.021.177.063.177.093s.041.055.09.055c.05 0 .107.039.125.086.018.048.088.104.155.126.146.046.4.307.4.412 0 .04.04.089.089.107a.146.146 0 0 1 .089.125c0 .05.026.09.058.09s.075.067.095.149c.02.081.059.147.085.147.027 0 .067.087.09.193.023.106.066.207.095.226.029.018.059.178.066.355l.014.321-3.45.016-3.449.015v-.178c0-.098.025-.178.055-.178s.073-.085.096-.19a.66.66 0 0 1 .123-.27.319.319 0 0 0 .081-.195c0-.063.027-.114.058-.114.032 0 .075-.065.095-.144.02-.08.073-.158.12-.176a.141.141 0 0 0 .083-.123c0-.05.04-.09.089-.09.048 0 .088-.026.088-.059 0-.078.19-.296.258-.296.03 0 .115-.066.19-.146a.717.717 0 0 1 .288-.184c.084-.02.153-.06.153-.086 0-.027.08-.066.177-.087.098-.022.178-.062.178-.09 0-.027.147-.068.326-.09.179-.023.325-.065.325-.093 0-.03.373-.053.83-.053.456 0 .829.024.829.053zm65.792-.001c0 .028.133.07.296.09.163.022.296.064.296.092 0 .03.08.07.177.092.098.021.178.06.178.087 0 .026.07.066.156.087.164.041.8.64.867.817.022.057.065.104.096.104.03 0 .074.08.095.177.022.098.06.178.086.178.026 0 .065.112.087.25.022.137.063.264.092.281.029.018.06.139.071.268l.02.236-3.45.016-3.45.015v-.208c0-.114.027-.207.059-.207s.075-.107.096-.237c.021-.13.06-.237.085-.237.026 0 .065-.08.086-.177.022-.098.064-.178.096-.178.03 0 .073-.046.095-.103.067-.18.881-.954 1.045-.995.086-.021.156-.06.156-.087 0-.027.08-.066.177-.087.098-.022.178-.063.178-.092 0-.028.133-.07.296-.091.163-.022.296-.063.296-.091 0-.028.387-.052.859-.052s.859.024.859.052zm-85.335.365c.017.025.183.064.37.087.188.024.341.064.341.09 0 .026.08.065.178.087.097.021.177.061.177.089 0 .027.08.067.178.088.098.022.178.062.178.09 0 .027.08.066.177.088.098.021.178.077.178.123s.04.084.089.084c.049 0 .089.027.089.06 0 .032.04.058.088.058.05 0 .09.04.09.09 0 .048.04.088.088.088a.09.09 0 0 1 .089.089c0 .049.04.088.089.088a.09.09 0 0 1 .089.09c0 .048.04.088.088.088.078 0 .09.365.09 2.93 0 2.564-.012 2.929-.09 2.929a.09.09 0 0 0-.088.089c0 .049-.04.088-.09.088-.048 0-.088.037-.088.083 0 .045-.069.1-.153.12a.717.717 0 0 0-.288.184c-.075.08-.166.146-.204.146-.038 0-.085.04-.103.089-.02.049-.098.089-.176.089-.08 0-.142.035-.142.08 0 .05-.093.094-.245.114-.135.018-.262.058-.282.088-.02.03-.142.071-.272.092-.13.02-.246.064-.257.098-.026.078-2.142.083-2.142.005 0-.03-.126-.075-.28-.098-.153-.023-.315-.078-.359-.122-.044-.044-.158-.08-.253-.08-.115 0-.174-.03-.174-.089a.089.089 0 0 0-.089-.088c-.049 0-.088-.025-.088-.055s-.08-.072-.178-.093c-.098-.022-.178-.077-.178-.123a.087.087 0 0 0-.089-.084.089.089 0 0 1-.088-.09.089.089 0 0 0-.09-.088.09.09 0 0 1-.088-.089.09.09 0 0 0-.089-.089.089.089 0 0 1-.089-.088.089.089 0 0 0-.089-.09.09.09 0 0 1-.088-.088.09.09 0 0 0-.09-.089c-.054 0-.088-.056-.088-.148s-.034-.148-.089-.148c-.05 0-.089-.052-.089-.118s-.04-.118-.089-.118c-.059 0-.088-.06-.088-.178s-.03-.177-.09-.177c-.065 0-.088-.07-.088-.267s-.023-.266-.089-.266c-.07 0-.089-.089-.089-.444s-.017-.444-.089-.444-.088-.095-.088-.503c0-.407.016-.503.088-.503s.09-.088.09-.444c0-.355.017-.443.088-.443.062 0 .089-.063.089-.208 0-.144.027-.207.089-.207.059 0 .089-.059.089-.177 0-.119.03-.178.088-.178.06 0 .09-.059.09-.177 0-.119.029-.178.088-.178.055 0 .089-.056.089-.148s.034-.148.089-.148a.09.09 0 0 0 .089-.089.09.09 0 0 1 .088-.088c.05 0 .09-.04.09-.09 0-.048.04-.088.088-.088a.09.09 0 0 0 .089-.089.09.09 0 0 1 .089-.088.09.09 0 0 0 .089-.09c0-.048.04-.088.088-.088a.087.087 0 0 0 .09-.084c0-.046.08-.102.177-.123.098-.021.178-.061.178-.089 0-.027.08-.067.177-.089.098-.021.178-.06.178-.087 0-.026.073-.066.162-.088.09-.023.179-.068.199-.1.02-.033.147-.074.282-.092.135-.018.245-.055.245-.081 0-.105 1.884-.098 1.954.007zm65.852-.003c.016.023.134.058.261.078.128.02.248.06.267.089.019.029.139.069.266.089.128.02.248.06.267.09.019.029.1.074.182.099a.754.754 0 0 1 .272.178.751.751 0 0 0 .263.177c.077.024.307.21.513.414l.373.37v2.79c0 2.426-.011 2.795-.088 2.825-.05.019-.09.071-.09.117 0 .045-.026.082-.058.082-.033 0-.163.107-.29.237-.126.13-.26.236-.296.236-.036 0-.066.038-.066.085 0 .046-.08.101-.177.123-.098.021-.178.061-.178.088 0 .028-.08.068-.178.09-.098.02-.178.06-.178.088 0 .027-.08.067-.177.089-.098.021-.178.06-.178.086 0 .025-.133.064-.296.086-.163.021-.296.065-.296.096 0 .082-2.234.076-2.261-.006-.012-.034-.134-.078-.272-.096-.138-.019-.25-.055-.25-.08 0-.026-.08-.065-.178-.086-.098-.022-.178-.062-.178-.09 0-.027-.08-.066-.177-.088-.098-.021-.178-.077-.178-.123s-.028-.084-.062-.084-.124-.066-.2-.148c-.075-.081-.167-.148-.204-.148-.037 0-.067-.04-.067-.089a.09.09 0 0 0-.089-.088.089.089 0 0 1-.089-.09.089.089 0 0 0-.088-.088.089.089 0 0 1-.09-.089.09.09 0 0 0-.088-.088c-.05 0-.089-.053-.089-.119s-.04-.118-.089-.118c-.055 0-.089-.056-.089-.148s-.033-.148-.088-.148c-.06 0-.09-.06-.09-.178s-.029-.177-.088-.177c-.062 0-.089-.063-.089-.207 0-.145-.026-.207-.089-.207-.069 0-.088-.08-.088-.355 0-.277-.02-.356-.09-.356-.074 0-.088-.134-.088-.851 0-.703.016-.858.089-.886.064-.025.089-.125.089-.362 0-.251.02-.327.088-.327.063 0 .09-.063.09-.207 0-.145.026-.207.088-.207.06 0 .089-.06.089-.178s.03-.177.089-.177c.055 0 .088-.056.088-.148s.034-.148.09-.148c.048 0 .088-.037.088-.083 0-.045.04-.097.089-.116a.146.146 0 0 0 .089-.125c0-.05.04-.09.089-.09.049 0 .088-.04.088-.09a.09.09 0 0 1 .09-.088.09.09 0 0 0 .088-.089c0-.049.03-.089.067-.089.037 0 .128-.065.203-.145a.718.718 0 0 1 .288-.184c.084-.021.153-.075.153-.12 0-.046.038-.083.084-.083.046 0 .093-.027.104-.06.01-.034.126-.078.256-.099.13-.02.253-.061.273-.091.02-.03.146-.07.281-.088.135-.018.245-.055.245-.081 0-.103 1.88-.099 1.955.004z" fill="#000"/></svg>