<svg width="119" height="30" viewBox="0 0 119 30" fill="none" xmlns="http://www.w3.org/2000/svg"><path fill-rule="evenodd" clip-rule="evenodd" d="M82.168.375c-.083.092-.09.467-.09 4.273v4.173l-.23-.292c-.886-1.127-2.215-1.9-3.807-2.217-.658-.131-2.203-.13-2.874.002-1.079.211-2.225.719-3.042 1.346-1.634 1.255-2.628 3.117-2.995 5.608-.135.92-.08 2.72.111 3.623.186.881.37 1.449.688 2.128 1.011 2.16 2.626 3.505 4.898 4.08.624.158 2.111.203 2.794.083 1.71-.298 3.076-1.16 4.16-2.627l.269-.363.03.89c.03.92.07 1.105.323 1.46.06.085.227.212.371.283.232.115.337.129.945.129.61 0 .712-.014.948-.13.319-.158.494-.404.61-.86.076-.297.084-1.396.07-10.094-.015-9.32-.02-9.778-.118-10.117-.163-.573-.341-.896-.66-1.196l-.297-.282h-1.007c-.906 0-1.016.01-1.097.1zm5.4.083a2.013 2.013 0 0 0-.737.951c-.18.456-.182 1.433-.002 1.887.155.39.544.829.89 1.005.804.407 1.979.4 2.743-.016 1.282-.698 1.29-3.102.014-3.906-.148-.093-.282-.103-1.403-.103h-1.239l-.266.182zM98.575.404a4.257 4.257 0 0 0-2.615 2.361c-.402.9-.555 1.772-.618 3.511l-.039 1.05-1.236.017c-1.141.017-1.254.028-1.456.136-.465.25-.576.487-.572 1.222.004.727.13.986.591 1.214.236.117.343.128 1.459.154l1.203.028.028 5.937c.025 5.466.035 5.953.121 6.145.158.35.303.512.576.646.231.115.336.129.944.129.604 0 .714-.015.94-.126.233-.116.426-.332.569-.639.03-.064.062-2.585.078-6.1l.027-5.992 1.615-.029c1.353-.024 1.645-.043 1.811-.12.234-.11.523-.423.582-.632.053-.192.054-1.035 0-1.226-.059-.211-.294-.47-.554-.608-.216-.116-.296-.121-1.887-.138l-1.662-.017.027-1.187c.022-.964.049-1.265.14-1.606.21-.78.516-1.196 1.088-1.477.855-.421 2.261-.195 3.176.511l.293.227.148-.11c.33-.244.613-.87.613-1.358 0-.862-.632-1.567-1.736-1.938-.312-.104-.461-.113-1.805-.111-1.37.002-1.49.01-1.849.126zM19.322 2.252a2.16 2.16 0 0 0-1.583 1.187c-.133.283-.146.37-.146.968 0 .742.064.968.398 1.407.224.294.73.587 1.216.703.166.04.535.069.821.065 1.17-.017 1.91-.485 2.168-1.369.123-.424.108-1.212-.032-1.663-.315-1.018-1.438-1.53-2.842-1.298zm9.543-.023c-.79.105-1.472.604-1.732 1.267-.177.451-.174 1.376.006 1.836.315.806 1.116 1.252 2.246 1.252.865 0 1.538-.258 1.913-.732.634-.802.557-2.343-.152-3.048-.474-.472-1.366-.697-2.281-.575zM6.933 6.239c-2.353.295-4.376 1.424-5.097 2.846-.464.915-.336 1.682.365 2.19.278.201.888.395 1.169.371.194-.016.222-.044.501-.496.946-1.53 2.669-2.382 4.584-2.265 1.552.094 2.677.745 3.22 1.86.255.525.353.978.375 1.732l.017.575-1.012.037c-.557.02-1.382.064-1.833.097-3.724.275-6.187 1.145-7.345 2.593-.34.424-.456.624-.644 1.102-.39.99-.401 2.219-.031 3.298.22.639.455 1.008.988 1.548.743.75 1.562 1.155 2.845 1.402.715.137 2.117.125 2.819-.026 1.053-.227 1.877-.564 2.667-1.091.386-.259 1.162-.982 1.453-1.355l.171-.218.003.246c.002.135.038.413.081.616.247 1.165.84 1.682 1.926 1.682.42 0 .954-.113 1.1-.233.057-.046.068-1.158.055-5.67-.016-5.597-.017-5.617-.14-6.162-.167-.742-.26-1.012-.54-1.574-.788-1.577-2.267-2.615-4.314-3.028-.506-.102-2.77-.153-3.383-.077zm35.888.002c-.61.07-.934.143-1.607.363-1.678.548-3.091 1.624-4.11 3.13-.618.914-1.167 2.393-1.351 3.643-.108.735-.077 2.665.053 3.289.376 1.806 1.056 3.128 2.193 4.271 1.201 1.207 2.635 1.92 4.518 2.25.7.122 2.49.12 3.255-.002 2.128-.342 3.96-1.307 4.755-2.507.69-1.043.362-2.14-.767-2.56-.563-.21-.53-.22-.847.255-.637.953-1.644 1.705-2.683 2.005-.804.231-1.13.274-2.044.272-.797-.003-.933-.018-1.513-.17-1.515-.399-2.691-1.323-3.355-2.637-.252-.499-.577-1.662-.577-2.065v-.125l6.088-.015c5.7-.014 6.098-.02 6.264-.111a.777.777 0 0 0 .269-.274c.262-.503.07-2.756-.337-3.956-.634-1.865-1.83-3.331-3.43-4.202-.563-.306-1.582-.661-2.233-.777-.573-.102-1.956-.144-2.541-.077zm17.725-.017c-1.486.201-2.945 1.047-3.938 2.283l-.382.475-.064-.428c-.108-.718-.38-1.351-.713-1.668a2.261 2.261 0 0 0-.484-.301c-.285-.133-.394-.154-.82-.153-.399.001-.556.027-.822.137l-.328.136-.015 7.55c-.012 5.652 0 7.61.049 7.787.095.349.344.659.64.795.22.102.353.119.94.118.603-.001.715-.016.94-.127a1.19 1.19 0 0 0 .404-.343c.3-.433.298-.378.298-5.672 0-4.883 0-4.887.117-5.118.267-.526.821-1.192 1.322-1.589.302-.238.941-.595 1.286-.716 1.024-.362 2.584-.338 3.358.05 1.005.505 1.583 1.296 1.941 2.654.084.318.097.86.125 5.116.028 4.348.04 4.779.125 4.969.257.567.565.75 1.331.791.9.049 1.38-.142 1.652-.658l.151-.287v-5.088c0-5.522.01-5.308-.306-6.481-.612-2.273-2.324-3.855-4.536-4.191-.476-.073-1.856-.098-2.27-.041zm27.781.26c-.355.111-.61.335-.771.68l-.144.307v7.195c0 5.758.014 7.242.071 7.43.096.317.398.64.712.76.362.14 1.356.14 1.718 0 .296-.114.546-.373.653-.675.061-.173.074-1.507.074-7.515V7.361l-.116-.252c-.138-.298-.41-.52-.765-.628-.32-.096-1.12-.094-1.432.003zm15.794.046c-.441.15-.756.352-.953.611l-.149.195.223.532.478 1.135c.408.962.675 1.597.954 2.27.144.347.501 1.196.794 1.888.292.692.624 1.48.736 1.751.112.271.433 1.034.713 1.696.86 2.035 1.101 2.608 1.313 3.12.53 1.274.633 1.492.801 1.702.202.25.439.383.814.453.139.026.262.057.275.07.019.019-.624 1.644-1.955 4.942-.674 1.67-.668 1.652-.564 1.81.05.077.241.237.424.355l.333.215h1.827l.299-.314c.369-.39.581-.758.843-1.464l.441-1.19c.43-1.156.731-1.972.975-2.64.131-.361.355-.965.496-1.34.141-.377.375-1.005.519-1.396l.519-1.395c.141-.376.352-.943.468-1.259l.482-1.313c.299-.813.684-1.85 1.077-2.9.141-.376.365-.98.498-1.34l.467-1.259c.123-.331.317-.86.431-1.176.262-.723.593-1.61.881-2.36.177-.46.211-.603.165-.689-.085-.16-.398-.382-.816-.58-.334-.158-.418-.174-.889-.174-.446 0-.558.02-.79.137-.34.172-.692.535-.898.927-.133.253-1.185 3.213-1.625 4.572a633.08 633.08 0 0 1-1.813 5.28 92.281 92.281 0 0 0-.606 1.792c-.047.158-.103.287-.123.287-.021 0-.242-.536-.492-1.19-.25-.655-.56-1.461-.689-1.792-.129-.331-.36-.934-.513-1.34-.154-.407-.375-.986-.492-1.286a806.752 806.752 0 0 1-1.536-3.995c-.662-1.741-.895-2.29-1.111-2.614-.506-.758-1.349-1.035-2.232-.734zm-78.484.739c.237.146.497.46.58.703.04.116.073.382.072.593-.002.48-.202.963-.458 1.11-.091.051-.166.112-.167.135 0 .022.405.04.9.04h.9l.02 4.802c.02 4.716.022 4.81.14 5.317.07.301.23.745.385 1.067.562 1.165 1.471 1.857 2.82 2.144.561.12 1.611.158 2.194.08.632-.084 1.429-.348 1.824-.604.432-.28.853-.758.99-1.125.276-.737-.001-1.605-.613-1.921-.157-.082-.16-.08-.497.243-.56.538-1.188.788-1.981.788-.839 0-1.394-.283-1.706-.869-.38-.711-.364-.492-.384-5.472l-.017-4.498 2.122-.017 2.123-.016.255-.15c.359-.211.495-.456.526-.947.038-.587-.02-.87-.223-1.102-.346-.394-.035-.371-5.264-.388-4.599-.014-4.702-.012-4.541.087zm-8.956.02c-.287.077-.615.377-.692.635-.036.119-.064.41-.063.647.001.513.116.814.39 1.023.261.2.567.254 1.425.256h.75l.018 4.748c.02 5.294.01 5.156.409 6.162.452 1.144 1.1 1.796 2.204 2.221.256.098.65.212.876.253.573.103 1.98.099 2.491-.007.577-.119 1.305-.439 1.663-.73.399-.324.465-.405.666-.819.236-.483.242-.964.018-1.407-.16-.317-.523-.681-.676-.68-.047.001-.209.126-.36.278-.312.316-.57.481-1.039.661-.274.106-.431.127-.957.127-.564 0-.661-.014-.93-.141-.425-.2-.638-.399-.825-.768-.352-.698-.343-.562-.365-5.451l-.02-4.446 1.165-.001h1.166l-.202-.178c-.335-.292-.454-.591-.454-1.134 0-.414.018-.498.162-.759a1.46 1.46 0 0 1 .355-.424l.192-.13-3.583.005c-2.135.003-3.664.027-3.784.06zm7.697.342c-.263.097-.506.37-.553.62-.054.286.007.718.125.879.058.08.216.204.35.273.2.105.302.123.582.103.434-.032.667-.166.823-.475.236-.465.09-1.107-.301-1.332-.239-.137-.747-.17-1.026-.068zm20.503 1.21c1.185.236 2.249 1.062 2.825 2.195.308.606.556 1.533.556 2.077v.24h-9.53l.036-.233c.105-.66.446-1.534.834-2.134.311-.481.961-1.146 1.425-1.458 1.064-.714 2.463-.964 3.854-.687zm33.594.247c.625.138.967.27 1.488.575.793.465 1.711 1.552 2.067 2.447.109.275.112.356.085 2.282-.031 2.285-.06 2.5-.453 3.334-.473 1.002-1.278 1.8-2.324 2.3-.65.31-1.212.445-1.997.48-1.011.044-1.718-.125-2.541-.607-1.194-.7-2.054-1.99-2.39-3.585-.231-1.093-.185-2.613.11-3.7.207-.757.713-1.676 1.225-2.223 1.139-1.218 2.907-1.705 4.73-1.303zm-66.45 7.124c-.029 1.195-.081 1.455-.433 2.145-.573 1.125-1.64 1.95-2.98 2.301-.805.211-2.182.198-2.837-.028-.433-.148-.922-.458-1.12-.709-.397-.5-.587-1.206-.49-1.814.1-.614.252-.917.674-1.34.605-.606 1.334-.922 2.817-1.222 1.06-.214 2.34-.333 4.075-.378l.32-.009-.026 1.054z" fill="#000"/></svg>