<svg width="161" height="30" viewBox="0 0 161 30" fill="none" xmlns="http://www.w3.org/2000/svg"><path fill-rule="evenodd" clip-rule="evenodd" d="M13.032.068c0 .039-.2.07-.46.07-.296.002-.507.038-.593.103-.073.056-.277.1-.46.1-.18 0-.328.03-.328.068 0 .038-.123.068-.273.068-.196 0-.272.029-.272.103 0 .071-.072.102-.239.102-.131 0-.239.03-.239.068 0 .037-.09.068-.2.068a.491.491 0 0 0-.301.102.398.398 0 0 1-.244.103c-.077 0-.14.03-.14.068 0 .037-.075.068-.166.068a.434.434 0 0 0-.268.102.398.398 0 0 1-.244.103c-.077 0-.141.027-.141.06 0 .034-.077.08-.17.104-.094.024-.17.073-.17.11 0 .036-.064.067-.14.067-.077 0-.211.076-.298.17-.087.094-.224.17-.304.17-.08 0-.145.03-.145.067 0 .037-.077.086-.17.11-.095.023-.171.07-.171.104 0 .033-.033.06-.073.06-.04 0-.116.039-.168.086-.205.183-.3.255-.34.255-.021 0-.11.077-.197.17-.087.094-.195.171-.239.171-.044 0-.152.077-.239.17-.087.094-.192.171-.235.171a.075.075 0 0 0-.077.073c0 .08-.168.268-.238.268-.075 0-1.126 1.079-1.126 1.155 0 .04-.033.072-.073.072-.08 0-.268.168-.268.239 0 .07-.188.239-.268.239-.04 0-.073.046-.073.102 0 .056-.03.102-.068.102-.038 0-.068.046-.068.102 0 .056-.092.19-.205.297-.112.107-.204.246-.204.307 0 .062-.031.112-.068.112-.038 0-.069.046-.069.103a.103.103 0 0 1-.102.102c-.059 0-.102.061-.102.145 0 .08-.077.217-.17.304-.094.087-.171.205-.171.263 0 .059-.03.106-.068.106-.038 0-.068.063-.068.14 0 .076-.077.21-.17.297-.095.087-.171.21-.171.275a.367.367 0 0 1-.103.218.434.434 0 0 0-.102.268c0 .091-.03.166-.068.166-.038 0-.068.077-.068.172 0 .095-.046.19-.103.212-.056.022-.102.113-.102.202 0 .09-.03.164-.068.164-.038 0-.068.104-.068.231 0 .143-.04.246-.102.27-.065.025-.103.13-.103.28 0 .133-.03.241-.068.241-.037 0-.068.12-.068.268 0 .148-.046.314-.102.37-.061.061-.103.228-.103.414 0 .172-.03.312-.068.312-.038 0-.068.192-.068.438 0 .299-.033.471-.102.54-.15.151-.149 3.83.002 4.03.063.083.1.29.1.562 0 .241.03.43.068.43.038 0 .068.14.068.312 0 .186.042.353.103.414.056.056.102.223.102.37s.03.268.068.268c.038 0 .068.108.068.24 0 .152.038.256.103.28.063.025.102.128.102.271 0 .127.03.231.068.231.037 0 .068.074.068.163 0 .09.046.181.102.203.057.021.103.117.103.212 0 .095.03.172.068.172.037 0 .068.075.068.166 0 .091.046.212.102.268.057.056.103.15.103.21 0 .058.03.106.068.106.037 0 .068.047.068.105 0 .057.046.122.102.143.056.022.103.113.103.203 0 .09.03.163.068.163.037 0 .068.047.068.105 0 .059.077.177.17.264.094.087.17.224.17.304 0 .084.044.145.103.145.056 0 .102.046.102.102 0 .057.031.103.069.103.037 0 .068.05.068.112 0 .061.092.2.204.307.113.108.205.241.205.297 0 .056.03.102.068.102.037 0 .068.046.068.102 0 .056.033.102.073.102.08 0 .268.168.268.24 0 .07.188.238.268.238.04 0 .073.033.073.073 0 .093.858.95.952.95.039 0 .07.046.07.102 0 .056.034.102.074.102.094 0 .268.174.268.268 0 .04.034.073.077.073s.148.077.235.17c.087.094.195.17.24.17.043 0 .15.078.238.171.087.094.19.17.23.17a.07.07 0 0 1 .07.069c0 .037.062.068.137.068.076 0 .136.046.136.102 0 .057.046.103.103.103.056 0 .102.027.102.06 0 .034.076.08.17.104.094.024.17.073.17.11 0 .036.066.066.146.066.08 0 .217.077.304.171.087.094.22.17.297.17.077 0 .14.031.14.069 0 .037.062.068.139.068.076 0 .156.046.177.102.022.056.113.102.203.102.09 0 .163.028.163.061s.107.08.239.105c.13.025.238.074.238.11 0 .036.064.065.141.065.078 0 .188.046.244.102a.491.491 0 0 0 .302.103c.11 0 .2.03.2.068 0 .038.104.068.23.068.144 0 .247.04.272.102.024.065.128.103.28.103.132 0 .24.03.24.068 0 .037.171.068.38.068.247 0 .416.036.482.102.07.07.242.103.54.103.248 0 .44.03.44.068 0 .042.363.068.954.068h.954V0h-.954c-.591 0-.955.026-.955.068zm76.91 14.693v14.762h1.022V0h-1.023v14.761zm-65.28-5.93a.565.565 0 0 1-.29.1c-.087 0-.158.032-.158.069 0 .037-.033.068-.073.068-.04 0-.116.039-.168.085-.226.203-.303.256-.37.256-.039 0-.07.046-.07.102 0 .057-.03.103-.065.103-.034 0-.084.066-.11.147a.97.97 0 0 1-.209.31c-.09.09-.162.238-.162.33 0 .092-.031.167-.068.167-.038 0-.069.12-.069.265 0 .146-.046.353-.102.46-.151.292-.152 5.843 0 6.206.056.135.102.349.102.475 0 .127.031.23.069.23.037 0 .068.044.068.097 0 .054.053.198.119.321.115.217.16.281.34.498a.357.357 0 0 1 .086.173c0 .039.033.07.073.07.04 0 .116.039.168.086.215.192.288.241.43.286.08.026.147.076.147.11 0 .036.092.064.205.064.112 0 .204.03.204.068 0 .043.375.069.99.069.613 0 .988-.026.988-.069 0-.037.092-.068.204-.068.137 0 .205-.034.205-.102 0-.058.061-.102.142-.102.143 0 .676-.481.676-.611 0-.04.046-.071.102-.071a.103.103 0 0 0 .103-.102c0-.057.03-.103.068-.103.037 0 .068-.062.068-.138 0-.076.046-.157.102-.178.063-.024.102-.128.102-.27 0-.128.027-.232.06-.232.032 0 .075-.145.095-.322.02-.177.07-.332.111-.346.117-.039.09-.403-.032-.45-.06-.023-.29-.041-.512-.041-.352 0-.403.017-.403.13 0 .073-.035.143-.077.157-.043.014-.092.185-.111.38-.019.196-.061.356-.094.356-.032 0-.06.076-.06.17 0 .094-.028.17-.063.17s-.085.068-.111.15c-.056.176-.194.328-.298.328-.04 0-.073.046-.073.102 0 .064-.064.102-.17.102-.094 0-.17.031-.17.069 0 .037-.105.068-.234.068-.128 0-.244.033-.258.075-.013.04-.169.09-.345.11-.255.03-.329.014-.363-.074-.03-.08-.128-.111-.342-.111-.165 0-.3-.031-.3-.069 0-.037-.046-.068-.102-.068a.103.103 0 0 1-.102-.102c0-.056-.033-.102-.073-.102-.095 0-.268-.174-.268-.268 0-.04-.046-.073-.102-.073-.064 0-.103-.065-.103-.17 0-.094-.03-.171-.068-.171-.037 0-.068-.15-.068-.335 0-.208-.032-.346-.085-.364-.066-.022-.09-.663-.105-2.828-.016-2.441-.006-2.813.086-2.904.066-.067.104-.23.104-.45 0-.19.03-.346.068-.346.038 0 .068-.063.068-.139 0-.076.046-.156.103-.178.056-.021.102-.068.102-.104 0-.077.172-.261.243-.261.026 0 .12-.077.206-.17a.497.497 0 0 1 .4-.171c.133 0 .242-.03.242-.068 0-.038.169-.068.375-.068s.375.03.375.068c0 .037.123.068.273.068.197 0 .272.028.272.102 0 .057.06.103.136.103.177 0 .41.202.41.356 0 .066.03.12.068.12.038 0 .068.047.068.103 0 .056.046.102.102.102.074 0 .103.076.103.273 0 .15.03.273.068.273.037 0 .068.133.068.296 0 .406.141.522.636.522h.387v-.511c0-.296-.029-.512-.068-.512-.038 0-.069-.123-.069-.273 0-.15-.03-.272-.067-.272-.036 0-.086-.077-.11-.17-.023-.094-.07-.171-.103-.171-.033 0-.06-.077-.06-.17 0-.094-.033-.171-.073-.171-.095 0-.268-.173-.268-.268 0-.04-.04-.073-.087-.073-.047 0-.143-.077-.214-.17-.07-.094-.185-.17-.254-.17-.07 0-.127-.032-.127-.069 0-.037-.09-.068-.2-.068a.491.491 0 0 1-.302-.102c-.146-.146-1.79-.145-1.983.002zm13.748.001a.386.386 0 0 1-.255.1c-.093 0-.169.023-.17.051 0 .028-.122.11-.272.181-.15.072-.272.156-.272.188 0 .031-.046.057-.102.057a.103.103 0 0 0-.102.102c0 .057-.031.103-.069.103-.037 0-.068.057-.068.126 0 .07-.076.185-.17.255-.094.07-.17.192-.17.27a.54.54 0 0 1-.1.273c-.056.073-.102.263-.103.422-.001.16-.033.29-.07.29-.045 0-.069 1.09-.069 3.136 0 2.046.024 3.137.069 3.137.037 0 .068.139.068.309 0 .211.032.321.102.348.056.021.102.113.102.202 0 .09.031.163.069.163.037 0 .068.077.068.17 0 .107.038.171.102.171.056 0 .102.047.102.104 0 .129.455.578.586.578.053 0 .096.03.096.068 0 .038.042.069.094.069s.132.046.179.102a.36.36 0 0 0 .247.102c.089 0 .162.03.162.068 0 .043.386.069 1.023.069.636 0 1.022-.026 1.022-.069 0-.037.077-.068.17-.068.107 0 .171-.039.171-.102 0-.06.062-.102.146-.102.08 0 .246-.108.37-.24.124-.13.258-.238.298-.238.04 0 .073-.035.073-.077 0-.043.076-.149.17-.235.094-.087.17-.221.17-.298 0-.077.031-.14.069-.14.037 0 .068-.074.068-.165 0-.091.046-.212.102-.268.061-.061.102-.228.102-.414 0-.172.031-.312.069-.312.114 0 .078-.39-.04-.436-.06-.023-.29-.041-.511-.041-.358 0-.404.015-.404.136 0 .075-.03.137-.068.137-.038 0-.068.154-.068.343 0 .242-.03.354-.102.382-.057.022-.103.113-.103.202 0 .09-.03.163-.068.163-.037 0-.068.05-.068.11 0 .141-.431.572-.573.572-.06 0-.109.031-.109.069 0 .037-.11.068-.243.068-.134 0-.29.046-.346.102-.056.056-.223.102-.37.102-.193 0-.268-.028-.268-.102 0-.076-.08-.102-.312-.102-.285 0-.34-.03-.681-.37-.21-.21-.37-.433-.37-.512 0-.08-.045-.141-.103-.141-.077 0-.102-.083-.102-.34 0-.188-.031-.342-.069-.342-.044 0-.068-1.011-.068-2.898 0-1.886.024-2.897.068-2.897.038 0 .069-.155.069-.343 0-.242.03-.355.102-.383.056-.021.102-.1.102-.173 0-.139.485-.67.611-.67.04 0 .071-.045.071-.102 0-.074.076-.102.273-.102.15 0 .272-.03.272-.068 0-.038.182-.068.41-.068.227 0 .409.03.409.068 0 .037.122.068.272.068.197 0 .273.028.273.102 0 .057.06.103.136.103.075 0 .137.03.137.068 0 .037.046.068.102.068.064 0 .102.064.102.17 0 .107.039.17.103.17.056 0 .102.047.102.103 0 .056.03.102.068.102.038 0 .07.1.07.222a.701.701 0 0 0 .103.354.71.71 0 0 1 .1.363c0 .336.127.425.609.425h.413v-.504c0-.385-.024-.513-.102-.543-.064-.025-.102-.13-.102-.28 0-.133-.03-.241-.068-.241-.038 0-.068-.077-.068-.17 0-.107-.04-.171-.103-.171-.058 0-.102-.061-.102-.141 0-.151-.148-.336-.268-.336a.073.073 0 0 1-.073-.073c0-.095-.173-.268-.268-.268-.04 0-.073-.046-.073-.103 0-.063-.064-.102-.17-.102-.094 0-.17-.03-.17-.068 0-.037-.075-.068-.166-.068a.433.433 0 0 1-.268-.102c-.147-.147-1.877-.145-2.007.002zm70.705 0c-.049.055-.179.1-.29.1-.111 0-.202.03-.202.068 0 .037-.057.068-.127.068s-.184.077-.255.17c-.07.094-.166.171-.214.171-.047 0-.086.033-.086.073 0 .095-.173.268-.268.268-.04 0-.073.046-.073.102 0 .057-.027.103-.06.103-.034 0-.081.076-.104.17-.024.094-.073.17-.11.17-.037 0-.067.077-.067.17 0 .095-.03.171-.068.171-.037 0-.068.109-.068.241 0 .151-.038.255-.102.28-.089.034-.102.461-.102 3.27 0 2.828.012 3.232.102 3.232.071 0 .102.072.102.239 0 .131.031.238.068.238.038 0 .068.092.068.205 0 .112.029.204.064.204s.085.068.111.15c.056.176.194.328.298.328.04 0 .073.033.073.073 0 .094.173.268.268.268.04 0 .073.032.073.073 0 .118.184.267.329.267.073 0 .151.047.173.103.024.064.129.102.28.102.132 0 .241.03.241.068 0 .043.386.069 1.022.069.637 0 1.023-.026 1.023-.069 0-.037.077-.068.17-.068.094 0 .171-.03.171-.067 0-.037.077-.086.17-.11.094-.023.171-.07.171-.103 0-.034.076-.06.17-.06.106 0 .171-.04.171-.103 0-.056.033-.102.073-.102.094 0 .268-.174.268-.268 0-.04.046-.073.102-.073.057 0 .102-.06.102-.137 0-.075.031-.136.068-.136.038 0 .069-.048.069-.107a.36.36 0 0 1 .102-.21.435.435 0 0 0 .102-.267c0-.091.031-.166.068-.166.038 0 .068-.11.068-.244s.046-.289.103-.345c.087-.088.102-.518.102-3.025 0-2.506-.015-2.936-.102-3.024-.057-.056-.103-.212-.103-.346 0-.134-.03-.243-.068-.243-.037 0-.068-.075-.068-.166a.435.435 0 0 0-.102-.268c-.056-.056-.102-.135-.102-.175 0-.04-.031-.073-.069-.073-.037 0-.068-.057-.068-.127s-.077-.184-.17-.255c-.094-.07-.171-.166-.171-.214 0-.047-.046-.086-.102-.086-.056 0-.102-.03-.102-.067 0-.037-.077-.086-.171-.11-.094-.023-.17-.07-.17-.103 0-.033-.077-.06-.171-.06-.093 0-.17-.032-.17-.069 0-.037-.077-.068-.171-.068-.106 0-.17-.039-.17-.102 0-.15-1.967-.147-2.099.002zM29.395 9a.07.07 0 0 0 .069.068c.038 0 .068.104.068.232 0 .142.04.246.102.27.057.022.103.117.103.212 0 .095.03.173.068.173.037 0 .068.107.068.238 0 .167.03.239.102.239.074 0 .103.076.103.272 0 .15.03.273.068.273.037 0 .068.064.068.141 0 .078.046.188.102.244a.491.491 0 0 1 .103.302c0 .11.03.2.068.2.037 0 .068.107.068.238 0 .167.03.239.102.239s.102.072.102.239c0 .13.031.238.069.238.037 0 .068.08.068.175a.45.45 0 0 0 .102.278.434.434 0 0 1 .102.268c0 .091.031.165.069.165.037 0 .068.089.068.197 0 .108.046.234.102.28a.362.362 0 0 1 .102.248c0 .089.03.162.068.162.038 0 .069.104.069.231 0 .143.039.247.102.27.064.025.102.13.102.28 0 .133.03.242.068.242.038 0 .069.074.069.165 0 .091.046.212.102.268.068.068.102.239.102.511 0 .273-.034.444-.102.512-.056.056-.102.212-.102.346 0 .133-.031.243-.069.243-.037 0-.068.075-.068.166a.434.434 0 0 1-.102.268.398.398 0 0 0-.102.243c0 .078-.031.141-.069.141-.037 0-.068.046-.068.102a.103.103 0 0 1-.102.103.103.103 0 0 0-.102.102.103.103 0 0 1-.103.102c-.056 0-.102.031-.102.069 0 .038-.193.068-.443.068-.585 0-.716.119-.716.648v.375h.682c.409 0 .682-.028.682-.069 0-.037.076-.068.17-.068.106 0 .17-.039.17-.102 0-.056.047-.102.103-.102.056 0 .102-.026.102-.058 0-.031.077-.092.17-.135.094-.042.171-.124.171-.181 0-.057.03-.104.068-.104.038 0 .068-.046.068-.102 0-.056.046-.102.103-.102.063 0 .102-.065.102-.17 0-.095.03-.171.068-.171.038 0 .068-.077.068-.17 0-.107.039-.171.103-.171.071 0 .102-.072.102-.239 0-.131.03-.238.068-.238.038 0 .068-.123.068-.273 0-.197.029-.273.102-.273.078 0 .103-.083.103-.34 0-.188.03-.342.068-.342.038 0 .068-.07.068-.157s.045-.217.1-.29a.7.7 0 0 0 .102-.354c.002-.122.033-.221.07-.221.038 0 .07-.123.07-.273 0-.197.027-.273.101-.273.076 0 .103-.08.103-.307 0-.168.03-.306.068-.306.037 0 .068-.09.068-.2 0-.11.046-.246.102-.302.056-.056.102-.212.102-.346 0-.134.027-.243.06-.243.032 0 .075-.145.095-.322.02-.177.07-.333.112-.347.04-.013.074-.13.074-.258s.031-.232.069-.232c.037 0 .068-.123.068-.273 0-.197.028-.273.102-.273.072 0 .102-.072.102-.243 0-.134.046-.29.103-.346.056-.056.102-.223.102-.37 0-.148.03-.268.068-.268.038 0 .068-.104.068-.232 0-.142.04-.246.102-.27.065-.025.103-.129.103-.28 0-.133.03-.24.068-.24.038 0 .068-.108.068-.24v-.238h-.482c-.548 0-.677.077-.677.406 0 .125-.042.228-.102.251-.07.027-.102.135-.102.339 0 .164-.027.3-.06.3s-.079.122-.103.272c-.024.15-.074.273-.111.273-.037 0-.067.11-.067.243 0 .134-.046.29-.103.346-.056.056-.102.207-.102.336 0 .129-.03.234-.068.234-.038 0-.068.12-.068.265 0 .173-.036.28-.103.305-.064.025-.102.129-.102.28 0 .132-.03.24-.068.24-.038 0-.068.121-.068.269 0 .147-.046.313-.102.37-.057.056-.103.196-.103.311 0 .116-.03.21-.068.21-.037 0-.068.123-.068.272 0 .197-.029.273-.102.273a.103.103 0 0 1-.103-.102c0-.056-.03-.102-.068-.102-.037 0-.068-.108-.068-.239 0-.167-.03-.239-.102-.239s-.103-.072-.103-.238c0-.131-.03-.239-.068-.239-.037 0-.068-.09-.068-.2a.491.491 0 0 0-.102-.301.398.398 0 0 1-.102-.244c0-.078-.031-.141-.069-.141-.037 0-.068-.11-.068-.244s-.046-.29-.102-.346a.433.433 0 0 1-.102-.267c0-.091-.031-.166-.069-.166-.037 0-.068-.108-.068-.24 0-.152-.038-.256-.102-.28-.063-.025-.102-.128-.102-.271 0-.127-.031-.232-.068-.232-.038 0-.069-.07-.069-.157a.564.564 0 0 0-.1-.29.57.57 0 0 1-.102-.286c-.001-.084-.033-.153-.07-.153-.038 0-.069-.108-.069-.24 0-.152-.038-.256-.102-.28-.056-.022-.102-.098-.102-.17 0-.116-.056-.128-.58-.128-.34 0-.58.028-.58.068zm14.933 5.424v5.491l.494-.02.494-.02.018-4.96.017-4.96H49.1v9.954h1.023V8.931h-5.795v5.493zm8.181-.003v5.488h1.023V8.931H52.51v5.49zm3.614-3.614c0 1.204-.024 1.875-.068 1.875-.044 0-.068.554-.068 1.527 0 1.294-.016 1.532-.103 1.566-.084.032-.102.212-.102 1.03 0 .615-.026.99-.068.99-.038 0-.068.121-.068.268 0 .148-.046.314-.102.37-.057.057-.103.123-.103.147 0 .024-.09.134-.2.243-.133.134-.267.2-.408.2h-.21v1.023h.41c.226 0 .408-.03.408-.069 0-.037.077-.068.17-.068.107 0 .171-.039.171-.102 0-.056.033-.102.073-.102.095 0 .268-.174.268-.268 0-.04.046-.073.102-.073.064 0 .103-.065.103-.17 0-.095.03-.171.068-.171.037 0 .068-.077.068-.17 0-.107.039-.171.102-.171.078 0 .102-.083.102-.341 0-.188.031-.341.069-.341.041 0 .068-.305.068-.78 0-.601.023-.802.102-.88.085-.085.102-.354.102-1.54 0-.912.025-1.436.069-1.436.043 0 .068-.614.068-1.705V9.955h2.795v9.96l.495-.02.494-.02.017-5.472.018-5.471h-4.841v1.875zm7.227 3.614v5.488h1.875c1.622 0 1.875-.014 1.875-.102 0-.072.072-.102.239-.102.131 0 .239-.028.239-.06 0-.034.053-.079.119-.101.295-.1.971-.725.971-.899 0-.055.028-.1.061-.1.034 0 .08-.076.104-.17.023-.094.073-.17.11-.17.036 0 .066-.123.066-.273 0-.15.031-.273.069-.273.042 0 .068-.386.068-1.023 0-.636-.026-1.022-.068-1.022-.038 0-.069-.123-.069-.273 0-.197-.028-.273-.102-.273-.059 0-.102-.061-.102-.146 0-.166-.778-.97-1.012-1.043-.08-.026-.147-.076-.147-.11 0-.036-.077-.065-.17-.065-.094 0-.171-.03-.171-.068 0-.037-.167-.068-.37-.068-.238 0-.407-.036-.473-.102-.081-.082-.303-.102-1.096-.102h-.993V8.932H63.35v5.489zm7.568.003v5.491l.495-.02.494-.02.018-2.472.018-2.471h3.748v4.977h1.023V8.931h-1.023v4.978h-3.75V8.932h-1.023v5.492zm8.046-.003v5.488h5.318v-1.023h-4.295v-3.954h1.875c1.62 0 1.875-.014 1.875-.103 0-.056.046-.102.102-.102.08 0 .102-.09.102-.409v-.409h-3.954V9.955h1.937c1.066 0 1.986-.02 2.046-.042.084-.032.108-.146.108-.511v-.47h-5.114v5.489zm17.66 0v5.488h1.363v-3.954c0-3.47.012-3.955.102-3.955.071 0 .102.072.102.239 0 .13.03.238.068.238.038 0 .069.078.069.173 0 .095.046.19.102.212.063.024.102.127.102.27 0 .127.03.232.068.232.038 0 .069.073.069.162 0 .089.046.2.102.247.056.046.102.173.102.28 0 .109.03.197.068.197.038 0 .068.107.068.239 0 .166.031.238.103.238.063 0 .102.065.102.17 0 .095.03.171.068.171.038 0 .068.109.068.24 0 .152.038.256.103.281.056.022.102.113.102.202 0 .09.03.163.068.163.038 0 .068.108.068.24 0 .166.031.238.102.238.069 0 .103.068.103.204 0 .113.03.205.068.205.037 0 .068.107.068.238v.24h1.568v-.171c0-.094.031-.17.069-.17.037 0 .068-.075.068-.166 0-.091.046-.212.102-.268a.442.442 0 0 0 .102-.273.44.44 0 0 1 .103-.273.399.399 0 0 0 .102-.243c0-.078.03-.141.068-.141.037 0 .068-.089.068-.197 0-.107.046-.234.102-.28a.359.359 0 0 0 .103-.248c0-.089.03-.162.068-.162.037 0 .068-.104.068-.231 0-.143.039-.246.102-.27.06-.024.103-.126.103-.247 0-.113.03-.206.068-.206.037 0 .068-.092.068-.205 0-.136.034-.204.102-.204.072 0 .103-.072.103-.239 0-.131.03-.239.068-.239.037 0 .068-.077.068-.172 0-.095.046-.19.102-.212.063-.024.102-.128.102-.27 0-.128.031-.232.069-.232.044 0 .068 1.364.068 3.954v3.955h1.363V8.931h-1.5v.171c0 .106-.038.17-.102.17-.063 0-.102.065-.102.171 0 .094-.031.17-.068.17-.038 0-.068.075-.068.166a.436.436 0 0 1-.103.268.399.399 0 0 0-.102.244c0 .077-.031.14-.068.14-.038 0-.068.072-.068.158a.565.565 0 0 1-.1.29.563.563 0 0 0-.103.286c-.001.084-.033.153-.07.153-.038 0-.068.077-.068.17 0 .107-.039.171-.103.171-.071 0-.102.072-.102.239 0 .131-.031.238-.068.238-.038 0-.068.078-.068.173 0 .095-.046.19-.102.212-.064.024-.103.128-.103.27 0 .128-.03.232-.068.232-.037 0-.068.076-.068.17 0 .106-.039.17-.102.17-.072 0-.103.073-.103.24 0 .13-.03.238-.068.238-.037 0-.068.078-.068.173 0 .095-.046.19-.102.211-.063.025-.103.128-.103.27 0 .128-.03.232-.068.232-.037 0-.068.075-.068.166a.435.435 0 0 1-.102.268.46.46 0 0 0-.102.283c0 .237-.163.189-.192-.057-.012-.1-.051-.183-.086-.183-.035 0-.063-.094-.063-.209 0-.115-.046-.255-.103-.312a.493.493 0 0 1-.102-.301c0-.11-.031-.2-.068-.2-.038 0-.068-.108-.068-.239 0-.166-.031-.239-.103-.239-.063 0-.102-.064-.102-.17 0-.094-.031-.17-.068-.17-.037 0-.068-.105-.068-.232 0-.143-.04-.246-.103-.27-.056-.022-.102-.102-.102-.178s-.03-.138-.068-.138c-.037 0-.068-.08-.068-.176a.45.45 0 0 0-.102-.277.433.433 0 0 1-.103-.268c0-.091-.03-.166-.068-.166-.037 0-.068-.073-.068-.163 0-.09-.046-.18-.102-.203-.06-.022-.103-.125-.103-.245 0-.114-.03-.207-.068-.207-.037 0-.068-.092-.068-.205 0-.136-.034-.204-.102-.204-.064 0-.103-.065-.103-.17 0-.094-.03-.171-.068-.171-.037 0-.068-.107-.068-.239 0-.166-.03-.238-.102-.238-.068 0-.102-.069-.102-.205 0-.112-.031-.204-.069-.204-.037 0-.068-.062-.068-.137 0-.128-.045-.136-.784-.136h-.784v5.489zm18.698-.018l.017 5.472 2.062.018c1.805.016 2.063.005 2.063-.085 0-.073.071-.104.239-.104.131 0 .238-.03.238-.068 0-.037.077-.068.171-.068.106 0 .17-.039.17-.102 0-.056.033-.102.074-.102.093 0 .608-.517.608-.611 0-.04.046-.071.102-.071.064 0 .103-.064.103-.17 0-.094.03-.171.068-.171.037 0 .068-.075.068-.166a.44.44 0 0 1 .102-.268c.082-.081.102-.302.102-1.088 0-.814-.017-.993-.102-1.025-.056-.022-.102-.117-.102-.212 0-.095-.031-.173-.068-.173-.038 0-.068-.077-.068-.17 0-.094-.033-.17-.074-.17-.079 0-.267-.169-.267-.24 0-.07-.189-.238-.268-.238-.04 0-.073-.046-.073-.102 0-.064-.065-.103-.171-.103-.136 0-.17-.034-.17-.17s.034-.17.17-.17c.127 0 .171-.037.171-.142 0-.15.147-.336.268-.336.04 0 .073-.076.073-.17 0-.094.03-.17.068-.17.037 0 .068-.09.068-.2 0-.11.046-.246.102-.302.08-.08.103-.285.103-.926 0-.686-.018-.823-.103-.823-.074 0-.102-.075-.102-.273 0-.15-.031-.272-.068-.272-.038 0-.068-.077-.068-.17 0-.107-.039-.171-.103-.171a.102.102 0 0 1-.102-.102c0-.057-.031-.103-.068-.103-.038 0-.068-.061-.068-.136 0-.076-.046-.136-.103-.136a.103.103 0 0 1-.102-.103c0-.056-.06-.102-.136-.102-.075 0-.137-.027-.137-.06 0-.034-.076-.08-.17-.104-.094-.024-.17-.073-.17-.11 0-.037-.093-.067-.205-.067-.113 0-.205-.03-.205-.068 0-.044-.704-.068-1.977-.068h-1.978l.018 5.471zm8.437-5.246a.699.699 0 0 1-.1.358c-.082.11-.1.465-.102 1.99-.001 1.192-.027 1.859-.07 1.859-.043 0-.068.5-.068 1.365 0 1.152-.017 1.372-.103 1.405-.082.032-.102.185-.102.782 0 .45-.027.743-.068.743-.038 0-.068.108-.068.24 0 .152-.039.256-.103.28-.056.023-.102.083-.102.135 0 .14-.252.368-.409.368-.075 0-.136.029-.136.063 0 .035-.062.083-.137.107-.122.04-.136.103-.136.619v.575h.477c.273 0 .477-.03.477-.069 0-.037.06-.068.134-.068.162 0 .957-.757.957-.912 0-.06.031-.11.069-.11.037 0 .068-.08.068-.176a.45.45 0 0 1 .102-.278c.063-.063.102-.23.102-.438 0-.185.031-.336.068-.336.042 0 .069-.297.069-.755 0-.58.023-.778.102-.857.084-.084.102-.348.102-1.495 0-.883.025-1.393.068-1.393.044 0 .069-.557.069-1.536v-1.535l1.21.018 1.21.019.017 4.895.018 4.894.664-.02.665-.019.017-5.472.017-5.471h-4.978v.225zm7.176 5.246l.018 5.472 2.744.018 2.744.018v-1.229h-4.159v-3.748l1.892-.018 1.892-.018v-1.16l-1.893-.018-1.893-.018.018-1.788.018-1.789 1.96-.018 1.961-.018V8.932h-5.319l.017 5.471zm7.211.018v5.488h1.363v-4.978h3.478v4.984l.664-.02.665-.019.018-5.472.017-5.471h-1.364v4.772h-3.478V8.932h-1.363v5.489zm8.25 0v5.488h1.363v-4.978h3.408l.018 2.472.018 2.472.664.02.665.019V8.932h-1.363v4.772h-3.41V8.932h-1.363v5.489zM156.555 9c0 .037-.092.068-.205.068-.112 0-.204.03-.204.067 0 .037-.077.086-.171.11-.093.023-.17.07-.17.103 0 .034-.048.061-.106.061-.122 0-.575.47-.576.597 0 .047-.031.085-.068.085-.038 0-.068.046-.068.102a.103.103 0 0 1-.103.103c-.063 0-.102.064-.102.17 0 .094-.031.17-.068.17-.038 0-.068.109-.068.241 0 .151-.038.255-.102.28-.086.033-.103.23-.103 1.184s.017 1.151.103 1.184c.064.024.102.128.102.28 0 .132.03.24.068.24.037 0 .068.077.068.17 0 .107.039.171.102.171.057 0 .103.046.103.103 0 .056.03.102.068.102.037 0 .069.038.07.085.003.104.236.392.317.392.031 0 .14.077.241.17.101.094.247.171.323.171.079 0 .14.045.14.102 0 .064.064.103.17.103.125 0 .171.036.171.136 0 .075-.031.136-.068.136-.038 0-.069.043-.069.095 0 .053-.046.113-.102.135-.056.021-.102.101-.102.177 0 .076-.028.139-.061.139s-.08.077-.104.17c-.023.094-.073.17-.109.17-.037 0-.067.047-.067.103 0 .056-.031.102-.068.102-.038 0-.068.077-.068.17 0 .107-.039.171-.103.171-.059 0-.102.062-.102.146 0 .08-.077.216-.17.303-.094.087-.171.221-.171.298 0 .077-.031.14-.068.14-.038 0-.068.058-.068.129 0 .07-.046.146-.103.168-.056.021-.102.102-.102.178s-.031.138-.068.138c-.038 0-.068.046-.068.102a.102.102 0 0 1-.102.103c-.064 0-.103.064-.103.17 0 .094-.027.17-.061.17-.033 0-.08.077-.103.171-.024.094-.073.17-.11.17-.037 0-.067.047-.067.103 0 .085.133.102.784.102.652 0 .785-.017.785-.102 0-.056.03-.102.068-.102.037 0 .068-.077.068-.17 0-.107.039-.171.102-.171.057 0 .102-.061.102-.137 0-.075.031-.136.069-.136.037 0 .068-.047.068-.105 0-.057.046-.122.102-.143.056-.022.102-.1.102-.173a.4.4 0 0 1 .086-.23c.217-.242.255-.307.255-.437 0-.077.031-.14.068-.14.038 0 .069-.045.069-.102 0-.056.046-.102.102-.102.063 0 .102-.064.102-.17 0-.094.027-.17.061-.17.033 0 .08-.078.104-.171.023-.094.072-.17.109-.17.037 0 .067-.047.067-.103 0-.056.031-.102.068-.102.038 0 .068-.063.068-.139 0-.076.046-.156.103-.178.056-.021.102-.097.102-.168 0-.07.031-.129.068-.129.038 0 .068-.044.068-.097 0-.214.206-.312.653-.312h.438v4.16h1.364V8.931h-1.875c-1.205 0-1.875.024-1.875.068zm-45.589 1.193c.056.056.135.103.175.103.04 0 .073.03.073.068 0 .037.033.068.073.068.091 0 .268.172.268.26 0 .037.046.084.102.105.056.022.102.102.102.178s.031.139.069.139c.037 0 .068.15.068.333 0 .237.03.346.104.374.092.035.103.347.086 2.575-.015 1.954-.039 2.542-.105 2.564-.053.018-.085.156-.085.364 0 .184-.031.335-.068.335-.038 0-.069.077-.069.17 0 .107-.038.171-.102.171-.056 0-.102.033-.102.073 0 .095-.174.268-.268.268-.04 0-.073.046-.073.102a.103.103 0 0 1-.102.102c-.057 0-.103.031-.103.069 0 .104-1.623.088-1.741-.017-.225-.203-.302-.256-.369-.256-.039 0-.071-.046-.071-.102 0-.057-.03-.103-.067-.103-.037 0-.086-.076-.11-.17-.023-.094-.07-.17-.103-.17-.034 0-.061-.095-.061-.21 0-.115-.046-.255-.103-.312-.087-.087-.102-.503-.102-2.895 0-2.42.014-2.798.102-2.832.067-.025.103-.131.103-.304 0-.146.027-.266.061-.266.033 0 .08-.076.103-.17.024-.094.073-.17.11-.17.037 0 .067-.047.067-.103 0-.056.046-.102.102-.102.056 0 .102-.03.102-.068 0-.038.058-.069.129-.069.071 0 .147-.046.169-.102.031-.082.185-.102.786-.102.573 0 .771.024.85.102zm7.519 0c.056.056.21.103.341.103.234 0 .433.123.433.267 0 .04.033.073.073.073.145 0 .268.2.268.434 0 .131.046.284.103.34.068.07.102.24.102.517 0 .322-.023.414-.102.414-.074 0-.103.076-.103.273 0 .15-.03.272-.068.272-.037 0-.068.055-.068.122 0 .109-.217.356-.313.356-.021 0-.084.046-.14.102a.433.433 0 0 1-.268.102c-.091 0-.165.03-.165.068 0 .043-.364.069-.955.069h-.954v-1.762c0-.969.02-1.782.045-1.807.025-.025.411-.045.857-.045.631 0 .835.023.914.102zm40.44 2.13l-.018 2.234-.76.019c-.61.015-.78-.001-.864-.085-.058-.058-.201-.105-.319-.105-.168 0-.293-.08-.584-.37-.34-.34-.371-.396-.371-.682 0-.231-.026-.311-.102-.311-.084 0-.102-.121-.102-.677 0-.511.025-.702.102-.78.056-.056.102-.2.102-.32 0-.161.063-.277.239-.444.131-.123.239-.257.239-.297 0-.04.046-.073.102-.073.056 0 .102-.03.102-.068 0-.038.122-.069.27-.069.152 0 .309-.043.358-.1.067-.075.27-.1.856-.101l.768-.003-.018 2.233zm-92.493 2.138c.014.041.17.091.347.111.177.02.321.063.321.096s.046.06.103.06c.056 0 .102.03.102.066 0 .037.077.086.17.11.107.027.17.09.17.171 0 .072.032.13.069.13.037 0 .068.042.068.095 0 .052.046.112.102.134.065.024.103.129.103.28 0 .132.03.24.068.24.04 0 .068.273.068.682 0 .41-.027.682-.068.682-.038 0-.068.108-.068.24 0 .152-.038.256-.103.281-.056.022-.102.1-.102.173 0 .145-.15.329-.268.329a.073.073 0 0 0-.073.073c0 .118-.184.268-.329.268-.073 0-.151.046-.173.102-.033.086-.242.102-1.302.102h-1.264v-4.5h1.017c.678 0 1.025.025 1.042.075zm52.146.539c0 .037.12.068.267.068.148 0 .314.046.371.103.056.056.123.102.149.102.112 0 .576.542.576.674 0 .082.044.144.103.144.084 0 .102.133.102.784s-.018.784-.102.784c-.059 0-.103.061-.103.142 0 .129-.337.54-.443.54-.024 0-.09.046-.146.102-.056.056-.208.102-.336.102-.129 0-.234.031-.234.069 0 .042-.398.068-1.057.068h-1.056v-3.75h.954c.591 0 .955.026.955.068z" fill="#000"/></svg>