<svg width="133" height="36" viewBox="0 0 133 36" fill="none" xmlns="http://www.w3.org/2000/svg"><path fill-rule="evenodd" clip-rule="evenodd" d="M4.569.17a.84.84 0 0 0-.222.36c-.035.173-.277 2.433-.363 3.39-.02.231-.072.457-.114.501-.042.044-.077.279-.077.522s-.038.465-.084.494c-.046.029-.084.218-.084.421 0 .204-.038.393-.085.422-.046.029-.084.145-.084.259 0 .114-.06.444-.133.733l-.22.862c-.046.186-.12.403-.16.484a.914.914 0 0 0-.077.353c0 .114-.038.23-.084.26-.047.028-.085.142-.085.252 0 .11-.038.224-.084.253-.046.029-.084.164-.084.3 0 .136-.033.248-.074.248-.04 0-.098.123-.127.274-.054.28-.341 1.085-.48 1.347a.712.712 0 0 0-.078.274c0 .07-.038.128-.084.128-.046 0-.084.07-.084.155 0 .085-.133.427-.295.76-.163.334-.295.627-.295.652 0 .066-.53 1.165-.586 1.215-.11.1-.426.788-.426.93 0 .153.162.586.251.671.08.076.334.537.697 1.265.197.394.387.729.422.744.034.016.063.1.063.19 0 .089.038.161.084.161.047 0 .085.095.085.211 0 .116.038.21.084.21.046 0 .084.07.084.153a.4.4 0 0 0 .073.231c.04.044.177.365.304.713.126.347.264.698.306.778a.81.81 0 0 1 .076.316c0 .094.038.17.084.17.046 0 .084.114.084.253s.038.253.085.253c.046 0 .084.111.084.248 0 .136.034.269.075.294.041.026.096.17.121.321.026.151.108.54.183.865.266 1.144.308 1.352.352 1.728.024.209.078.415.12.46.042.043.076.278.076.521s.033.462.074.487c.04.025.096.34.123.7.028.36.12 1.429.205 2.373.144 1.599.168 1.73.35 1.876.185.15.431.158 5.107.158 5.762 0 5.257.092 5.37-.98.04-.365.111-.986.16-1.38.05-.395.109-.926.132-1.18.023-.256.077-.5.12-.544.042-.044.076-.26.076-.48 0-.22.038-.423.084-.452.047-.028.085-.187.085-.353 0-.166.035-.439.078-.606.043-.168.178-.722.3-1.232.12-.51.256-.993.3-1.074.044-.08.08-.26.08-.4s.038-.254.085-.254c.046 0 .084-.107.084-.236 0-.13.03-.273.068-.317.038-.044.18-.42.317-.838.136-.417.276-.771.31-.787.035-.015.064-.099.064-.185s.037-.18.084-.208c.046-.029.084-.145.084-.258 0-.113.038-.206.084-.206.047 0 .085-.095.085-.21 0-.117.038-.211.084-.211.046 0 .084-.052.084-.115s.133-.369.295-.68c.163-.312.295-.617.295-.68 0-.062.029-.125.063-.141.054-.024.689-1.196.985-1.819.05-.104.119-.189.154-.19.034 0 .063-.133.063-.295 0-.162-.038-.295-.085-.295-.046 0-.084-.076-.084-.169 0-.092-.028-.169-.063-.17-.035 0-.177-.265-.316-.588-.14-.324-.282-.588-.316-.59-.035 0-.064-.076-.064-.169 0-.093-.037-.168-.084-.168-.046 0-.084-.076-.084-.17 0-.092-.029-.168-.064-.168s-.11-.15-.168-.333a13.048 13.048 0 0 0-.618-1.457.715.715 0 0 1-.077-.274c0-.07-.038-.127-.085-.127-.046 0-.084-.096-.084-.212a.948.948 0 0 0-.074-.358c-.197-.386-.684-1.71-.684-1.857a.686.686 0 0 0-.077-.25 3.749 3.749 0 0 1-.18-.527 25.356 25.356 0 0 0-.22-.744c-.198-.623-.62-2.389-.62-2.592 0-.107-.037-.217-.084-.246-.046-.029-.084-.218-.084-.421 0-.204-.033-.39-.074-.415-.04-.025-.097-.246-.125-.49a78.61 78.61 0 0 0-.134-1.034 32.765 32.765 0 0 1-.14-1.202C14.99.538 14.939.379 14.77.21L14.56 0H9.656c-4.81 0-4.907.003-5.087.17zm24.765 6.363v6.532h1.684l.022-3.013.022-3.013h5.142l.022 3.013.022 3.014h1.768V0H36.25l-.023 2.803-.022 2.803h-5.143l-.022-2.803L31.018 0h-1.684v6.533zM59.111.103c-.104.05-.19.142-.19.205 0 .062-.038.113-.084.113-.047 0-.084.227-.084.51 0 .429.033.543.207.717.17.17.29.206.68.206.279 0 .514-.044.573-.108.411-.45.423-1.011.03-1.44-.234-.256-.335-.305-.611-.3a1.541 1.541 0 0 0-.521.097zm67.92.36c0 .256.038.464.084.464.046 0 .084.06.084.133 0 .073.048.18.106.239.058.058.18.207.272.33.093.124.216.225.274.225.059 0 .107.029.108.064 0 .075.409.274.564.274.06 0 .109.038.109.084 0 .051.378.084.965.084.552 0 .986-.036 1.016-.084.029-.046.145-.084.258-.084.113 0 .206-.038.206-.085 0-.046.051-.084.114-.084.158 0 .609-.446.774-.765.147-.284.374-.98.375-1.153.001-.076-.196-.105-.704-.105h-.706l-.045.338c-.032.237-.134.426-.346.638-.271.271-.35.303-.795.316-.772.023-1.156-.238-1.359-.925L128.276 0h-1.245v.464zM13.861 1.75c.028.267.088.668.133.892.046.223.083.553.083.732 0 .18.038.35.084.378.047.029.085.218.085.422 0 .203.038.392.084.421.046.029.084.2.084.38s.038.35.085.379c.046.028.084.183.084.343 0 .16.033.357.075.438.04.08.142.45.225.82.082.371.181.71.22.755.038.044.07.186.07.316s.038.236.084.236c.046 0 .085.111.085.248 0 .136.037.271.084.3.046.028.084.163.084.3 0 .136.038.248.084.248.047 0 .085.074.085.164 0 .09.035.252.078.358.043.107.179.479.302.826.237.672.352.964.472 1.2a.68.68 0 0 1 .075.232c0 .047.133.372.295.724.162.35.295.692.295.759 0 .066.038.12.084.12.047 0 .084.073.084.163 0 .09.038.188.085.216.046.029.084.126.084.216s.038.163.084.163c.047 0 .085.076.085.17 0 .092.038.168.084.168.046 0 .084.05.084.111 0 .062.114.321.252.577l.253.466-.358.708c-.197.39-.386.721-.42.737-.036.015-.064.1-.064.19 0 .088-.038.161-.084.161-.047 0-.085.076-.085.169 0 .092-.037.168-.084.168a.085.085 0 0 0-.084.085c0 .047-.095.281-.21.521-.117.24-.212.487-.212.548 0 .06-.038.11-.084.11-.046 0-.084.095-.084.211 0 .116-.038.211-.084.211-.047 0-.085.057-.085.128 0 .07-.033.193-.074.274-.126.246-.242.546-.4 1.031-.082.255-.18.5-.217.544-.037.044-.067.186-.067.316s-.038.236-.085.236c-.046 0-.084.076-.084.17a.814.814 0 0 1-.076.316 3.64 3.64 0 0 0-.178.525c-.057.209-.134.474-.172.59-.037.116-.132.515-.209.886-.077.37-.175.74-.216.82-.042.08-.076.278-.076.438 0 .16-.038.314-.085.343-.046.029-.084.24-.084.469 0 .229-.034.416-.077.416-.042 0-.097.218-.122.485-.025.267-.082.731-.127 1.032-.044.302-.12.928-.17 1.391-.048.464-.09.853-.09.865-.002.012-1.872.012-4.155 0l-4.152-.022-.192-1.812c-.198-1.87-.285-2.544-.44-3.414-.05-.278-.112-.657-.138-.843-.026-.185-.082-.373-.123-.417-.042-.044-.076-.174-.076-.29 0-.114-.035-.325-.078-.467a34.968 34.968 0 0 1-.213-.765l-.225-.843a3.197 3.197 0 0 0-.167-.483.814.814 0 0 1-.076-.316c0-.094-.038-.17-.084-.17-.046 0-.084-.093-.084-.206 0-.113-.038-.229-.085-.258-.046-.028-.084-.121-.084-.206a1.11 1.11 0 0 0-.126-.395 1.092 1.092 0 0 1-.126-.384c0-.078-.039-.166-.085-.195-.046-.028-.084-.125-.084-.215s-.038-.164-.085-.164c-.046 0-.084-.076-.084-.169 0-.092-.038-.168-.084-.168-.047 0-.085-.074-.085-.164 0-.09-.038-.187-.084-.215-.046-.03-.084-.126-.084-.216s-.038-.164-.084-.164c-.047 0-.085-.058-.085-.128s-.088-.27-.196-.443a5.524 5.524 0 0 1-.316-.588c-.065-.15-.148-.274-.183-.274s-.063-.076-.063-.168c0-.093-.034-.169-.075-.169-.14 0-.173-.375-.049-.564a.752.752 0 0 0 .124-.318c0-.071.038-.13.084-.13.046 0 .084-.075.084-.168 0-.093.038-.169.084-.169.047 0 .085-.072.085-.161 0-.09.028-.175.063-.19.087-.038.358-.637.358-.79 0-.067.038-.123.085-.123.046 0 .084-.074.084-.164 0-.09.038-.187.084-.215.046-.03.084-.126.084-.216s.03-.164.066-.164c.037 0 .118-.18.181-.4.063-.22.144-.438.18-.485.035-.046.09-.226.123-.4.033-.174.093-.316.134-.316.041 0 .075-.093.075-.206 0-.113.038-.23.084-.258.047-.029.085-.145.085-.258 0-.113.038-.206.084-.206.046 0 .084-.111.084-.248 0-.136.034-.268.075-.294.041-.025.095-.17.12-.32.024-.152.146-.636.27-1.076.32-1.129.389-1.42.437-1.876.023-.22.072-.4.11-.4.037 0 .089-.18.114-.4.026-.22.084-.629.129-.907s.162-1.17.26-1.98c.097-.812.194-1.523.214-1.581.028-.083.937-.106 4.163-.106h4.127l.05.485zm29.045 1.655c-.54.138-1.012.327-1.012.406 0 .037-.039.068-.087.068-.112 0-.84.728-.84.84a.086.086 0 0 1-.084.087c-.047 0-.085.072-.085.161 0 .09-.04.175-.088.191-.049.017-.111.247-.138.513l-.05.483h.77c.632 0 .77-.023.77-.127 0-.07.034-.194.075-.274.041-.08.118-.241.172-.357.315-.68 1.631-.908 2.385-.414.37.243.487.624.487 1.593v.76h-1.175c-.692 0-1.196.034-1.227.084-.029.046-.164.084-.3.084-.136 0-.248.033-.248.074 0 .04-.106.095-.236.12-.24.049-1.197.898-1.197 1.063 0 .05-.03.092-.065.092-.144 0-.356 1.001-.356 1.679 0 .947.178 1.44.718 1.983.512.515 1.073.721 1.964.721.837 0 1.284-.187 1.872-.783l.232-.234.094.268c.051.148.093.339.093.425 0 .141.08.155.854.155h.854l-.06-.316-.133-.695c-.04-.209-.074-1.735-.077-3.392-.005-2.8-.063-3.67-.257-3.857a1.945 1.945 0 0 1-.17-.295c-.147-.296-.46-.632-.586-.632-.048 0-.088-.029-.088-.064-.002-.19-1.335-.534-2.007-.517a4.206 4.206 0 0 0-.774.107zm22.13.09c-.323.108-.601.238-.618.29-.018.051-.084.094-.147.094-.132 0-.966.807-.966.934 0 .046-.068.156-.15.245-.132.142-.22.375-.53 1.397-.044.143-.08.977-.08 1.855 0 1.497.014 1.64.226 2.312.125.394.258.73.296.745.038.015.069.092.069.17 0 .08.076.198.169.265.092.067.168.153.168.191 0 .09.393.483.483.483.039 0 .125.076.191.17.067.092.186.168.265.168.079 0 .156.036.171.08.05.145 1.02.341 1.687.341.602 0 1.072-.101 1.692-.364.127-.054.232-.127.232-.162s.041-.064.092-.064c.124 0 .817-.739.88-.938.028-.087.086-.158.13-.158.042 0 .078-.076.078-.168 0-.093.038-.169.084-.169.046 0 .084-.095.084-.21 0-.117.038-.211.085-.211.046 0 .084-.133.084-.295 0-.163.038-.295.084-.295.054 0 .084-.689.084-1.897 0-1.208-.03-1.897-.084-1.897-.046 0-.084-.106-.084-.237 0-.473-.792-1.852-1.18-2.055a1.77 1.77 0 0 1-.324-.217c-.33-.313-1.374-.612-2.106-.604-.263.003-.742.093-1.065.201zm18.373-.046c-.521.146-1.054.415-1.054.532 0 .036-.043.066-.096.066-.168 0-.831.775-.831.97 0 .07-.038.126-.085.126-.046 0-.084.093-.084.207 0 .113-.045.306-.1.427-.14.308-.003.375.785.376.694.002.746-.027.902-.49.106-.314.533-.75.855-.872.688-.262 1.941.098 1.941.557 0 .072.04.132.088.132.056 0 .078.323.063.906l-.024.906-1.137.024c-.624.013-1.172.06-1.218.105-.044.045-.166.082-.27.082-.104 0-.213.038-.241.084-.029.047-.126.085-.216.085s-.163.035-.163.078c0 .044-.071.101-.158.129-.234.074-.938.767-.938.922 0 .074-.032.135-.071.135-.039 0-.124.161-.19.358-.15.455-.156 2.355-.007 2.405.055.018.1.106.1.194 0 .09.037.162.083.162.047 0 .085.042.085.093 0 .116.543.666.659.666.047 0 .098.028.114.063.066.15.909.359 1.45.359.553 0 1.401-.217 1.401-.358 0-.035.04-.064.087-.064.048 0 .223-.136.388-.301.166-.165.323-.279.35-.251.027.027.071.21.097.406l.048.356.853.024.853.024-.06-.325c-.032-.18-.093-.38-.135-.446-.042-.066-.096-1.675-.12-3.576l-.043-3.456-.231-.494c-.127-.271-.367-.618-.532-.769-.71-.65-2.04-.882-3.198-.557zM49.396 8.26v4.803l2.971.022 2.972.023.023 1.412.023 1.412h.663c.653 0 .663-.004.716-.232.03-.128.078-1.076.106-2.108l.053-1.875h-.95l-.022-4.11-.022-4.109-.78-.024-.78-.024v8.27l-1.706-.023-1.707-.022-.022-4.11-.022-4.109h-1.516V8.26zm9.408-4.67c-.028.073-.051 2.235-.051 4.804v4.671h1.601V3.457h-.75c-.605 0-.759.026-.8.133zM72.07 8.26v4.806h1.602V9.018h3.372v4.048h1.601V3.45l-.78.024-.78.024-.022 2.086-.022 2.087h-3.369V5.697c0-1.086-.023-2.034-.051-2.108-.042-.107-.195-.133-.801-.133h-.75v4.805zm18.882-3.034c0 1.124-.03 1.77-.084 1.77-.053 0-.085.49-.085 1.302 0 .777-.034 1.323-.084 1.354-.046.028-.084.194-.084.369 0 .442-.225 1.054-.481 1.311-.164.164-.303.216-.573.216h-.356l-.053.443c-.03.243-.053.59-.054.77v.328l.7-.043c.386-.024.793-.096.904-.16.507-.29 1.177-1.17 1.177-1.545 0-.071.038-.13.085-.13.046 0 .084-.133.084-.295 0-.162.038-.295.084-.295.048 0 .084-.239.084-.548 0-.301.033-.548.074-.548.04 0 .1-.977.131-2.17.032-1.194.078-2.237.101-2.318.038-.132.173-.148 1.26-.148h1.216v8.176H96.6V3.457h-5.648v1.77zm8.26 3.042v4.812l2.333-.028c1.77-.022 2.341-.054 2.367-.134.019-.058.108-.105.197-.105.089 0 .161-.038.161-.085 0-.046.041-.084.091-.084.213 0 .882-.732 1.072-1.173.453-1.054.462-2.02.028-3.08-.156-.382-.942-1.226-1.141-1.226-.074 0-.134-.034-.134-.075 0-.136-.534-.2-1.96-.235l-1.412-.035V3.456h-1.601v4.812zm8.655-4.756c-.031.031-.056 2.193-.056 4.805v4.748h1.598l.023-2.001.022-2.002h3.456l.023 2.002.023 2.002h1.43v-9.61h-1.43l-.023 2.086-.023 2.087h-3.456l-.022-2.087-.023-2.086h-.743c-.409 0-.768.025-.799.056zm9.216 4.749v4.805h.843c.693 0 .843-.023.843-.127 0-.07.038-.126.084-.126.047 0 .084-.055.084-.122s.095-.3.211-.519c.116-.218.211-.447.211-.51s.038-.114.084-.114c.047 0 .085-.072.085-.161 0-.09.03-.175.067-.19.061-.025.482-.868.783-1.566.065-.151.147-.274.182-.274s.063-.076.063-.169c0-.093.038-.169.085-.169.046 0 .084-.045.084-.1 0-.13.613-1.366.695-1.403.035-.015.064-.1.064-.19 0-.088.037-.161.084-.161.046 0 .084-.076.084-.169 0-.092.038-.168.084-.168.047 0 .085-.072.085-.16 0-.088.057-.181.126-.208.111-.042.127.356.127 3.279v3.326h1.601V3.45l-.809.024-.809.024-.203.36c-.111.199-.202.417-.202.485 0 .069-.038.125-.084.125-.047 0-.084.047-.084.104 0 .133-.948 2.035-1.033 2.073-.035.016-.063.1-.063.19 0 .089-.038.161-.085.161-.046 0-.084.047-.084.103 0 .134-.778 1.701-.862 1.738-.036.015-.065.076-.065.135 0 .158-.441 1.007-.612 1.177-.139.14-.147-.024-.147-3.273v-3.42h-1.517v4.805zm9.188 0v4.805h.843c.693 0 .843-.023.843-.127 0-.07.038-.126.084-.126.047 0 .084-.076.084-.169 0-.093.038-.168.085-.168.046 0 .084-.073.084-.162 0-.089.029-.174.063-.19.083-.037.696-1.272.696-1.403 0-.055.038-.1.084-.1.046 0 .084-.076.084-.169 0-.092.038-.168.085-.168.046 0 .084-.076.084-.169 0-.092.028-.169.063-.17.035 0 .177-.265.316-.588.139-.324.282-.589.316-.59.035 0 .064-.076.064-.169 0-.093.037-.169.084-.169.046 0 .084-.075.084-.168 0-.093.038-.169.084-.169.047 0 .085-.076.085-.168 0-.093.028-.17.063-.17s.177-.269.316-.596c.139-.326.319-.63.4-.676.14-.077.148.102.148 3.251v3.332h1.517V3.457h-.709c-.815 0-.977.042-.977.255 0 .084-.028.165-.063.18-.08.036-.864 1.62-.864 1.747 0 .052-.038.094-.084.094-.047 0-.084.076-.084.169 0 .092-.038.168-.085.168-.046 0-.084.076-.084.169 0 .092-.038.168-.084.168-.047 0-.085.045-.085.1 0 .133-.609 1.368-.692 1.404-.037.015-.066.1-.066.19 0 .088-.038.16-.085.16-.046 0-.084.047-.084.104 0 .133-.61 1.363-.694 1.4-.036.016-.065.085-.065.154a.433.433 0 0 1-.126.251c-.112.113-.126-.253-.126-3.293v-3.42h-1.602v4.805zM12.776 4.32c-.08.335-.166.734-.19.885-.025.151-.079.296-.12.321-.041.026-.075.196-.075.379 0 .182-.034.332-.075.332-.042 0-.096.142-.12.316a7.892 7.892 0 0 1-.127.653c-.3 1.218-.45 1.803-.522 2.03a1.8 1.8 0 0 0-.083.437c0 .098-.038.202-.084.23-.047.03-.085.18-.085.338 0 .156-.034.306-.075.331-.042.026-.095.19-.12.364-.052.372-.107.602-.523 2.17-.173.65-.332 1.323-.354 1.497-.023.175-.075.338-.117.364-.041.025-.075.177-.075.336 0 .16-.038.29-.084.29-.047 0-.085.112-.085.25 0 .136-.034.335-.075.442a8.95 8.95 0 0 0-.22.868c-.08.37-.179.74-.22.82a1.06 1.06 0 0 0-.075.396c0 .137-.038.272-.084.301-.046.029-.084.183-.084.342 0 .16-.038.29-.085.29-.046 0-.084.152-.084.337 0 .186-.034.338-.075.338-.042 0-.096.142-.121.316-.025.174-.109.562-.186.864-.078.301-.16.69-.183.864-.024.174-.077.316-.118.316-.042 0-.076.13-.076.29 0 .16-.037.313-.084.342-.046.029-.084.18-.084.337 0 .157-.034.306-.075.332-.041.025-.094.17-.118.32-.039.245-.144.704-.41 1.793-.046.185-.104.46-.129.612-.025.15-.08.295-.12.32-.042.026-.075.177-.075.337 0 .16-.038.29-.085.29-.046 0-.084.133-.084.296 0 .163-.034.362-.075.443-.08.156-.43 1.54-.43 1.697 0 .066.933.093 3.275.093h3.277l.055-.569c.031-.313.095-.835.142-1.159.047-.325.107-.808.132-1.075.025-.266.076-.485.114-.485.038 0 .088-.18.112-.4.044-.399.081-.59.352-1.791.078-.348.162-.774.186-.948.023-.174.077-.317.118-.317.042 0 .076-.132.076-.294 0-.163.038-.296.084-.296.046 0 .084-.111.084-.247 0-.137.038-.272.085-.3.046-.03.084-.164.084-.3 0-.137.038-.248.084-.248.046 0 .084-.065.084-.143 0-.21.445-1.58.523-1.614.037-.015.068-.12.068-.231 0-.112.037-.204.084-.204.046 0 .084-.076.084-.17 0-.093.034-.235.075-.316.04-.08.111-.241.156-.357.213-.544.576-1.31.633-1.335.035-.015.063-.098.063-.184s.038-.18.085-.209c.046-.029.084-.126.084-.216s.038-.163.084-.163c.046 0 .084-.114.084-.253 0-.14-.038-.253-.084-.253-.046 0-.084-.076-.084-.169 0-.092-.038-.168-.084-.168-.047 0-.085-.045-.085-.1 0-.13-.612-1.367-.695-1.404-.035-.015-.063-.12-.063-.231 0-.112-.038-.204-.085-.204-.046 0-.084-.095-.084-.21 0-.117-.038-.211-.084-.211-.047 0-.085-.093-.085-.206 0-.113-.037-.23-.084-.258-.046-.029-.084-.137-.084-.241a.504.504 0 0 0-.07-.27c-.039-.043-.137-.326-.219-.627a5.574 5.574 0 0 0-.225-.694.8.8 0 0 1-.076-.311c0-.091-.038-.189-.085-.217-.046-.029-.084-.162-.084-.295 0-.134-.038-.267-.084-.295-.046-.029-.084-.162-.084-.295 0-.134-.034-.264-.076-.29-.041-.026-.095-.189-.12-.363a13.828 13.828 0 0 0-.183-.907c-.244-1.046-.306-1.342-.352-1.686-.025-.185-.08-.373-.12-.417-.043-.044-.077-.279-.077-.522s-.037-.465-.084-.494c-.046-.028-.084-.258-.084-.51 0-.685-.192-.606-.374.152zm54.31.605c.265.138.602.422.602.508 0 .034.069.162.153.285.347.507.437 1.052.436 2.657 0 1.539-.063 1.974-.364 2.553-.166.32-.433.62-.551.62-.053 0-.096.037-.096.084 0 .046-.073.084-.163.084-.09 0-.187.038-.216.084-.029.046-.293.084-.587.084-.79 0-1.385-.339-1.665-.948-.06-.127-.136-.232-.17-.232-.036 0-.065-.095-.065-.21 0-.116-.038-.211-.084-.211-.046 0-.084-.144-.084-.32 0-.177-.041-.362-.09-.412-.061-.06-.077-.495-.049-1.302.046-1.319.115-1.903.232-1.976.041-.025.075-.12.075-.21s.038-.163.085-.163a.085.085 0 0 0 .084-.086c0-.15.375-.671.485-.672.058 0 .105-.036.105-.078 0-.078.565-.31.885-.366.22-.038.759.08 1.042.227zm36.042 3.293c.274.075.806.562.806.739 0 .061.046.158.101.213.063.063.1.365.099.797-.003.56-.039.758-.19 1.022-.234.408-.382.558-.552.558-.073 0-.132.038-.132.085 0 .052-.464.084-1.222.084h-1.223V8.083l1.033.034c.568.019 1.144.065 1.28.102zM45.181 9.59c0 1.157 0 1.162-.244 1.458-.408.494-1.502.947-1.845.763a.987.987 0 0 0-.392-.094c-.119 0-.216-.038-.216-.085 0-.046-.057-.084-.126-.084a.127.127 0 0 1-.127-.126c0-.07-.038-.127-.084-.127-.047 0-.084-.092-.084-.205 0-.114-.038-.23-.085-.258-.046-.029-.084-.238-.084-.464 0-.226.038-.435.084-.463.047-.03.085-.14.085-.246 0-.382.888-1.061 1.387-1.061.118 0 .214-.038.214-.084 0-.05.31-.085.759-.085h.758V9.59zm40.63.062c0 .758-.032 1.222-.084 1.222-.047 0-.085.057-.085.126 0 .07-.028.127-.064.127-.035 0-.158.085-.274.19-.412.372-1.296.647-1.585.492a.86.86 0 0 0-.337-.092c-.09 0-.274-.113-.41-.25-.302-.31-.534-1.196-.377-1.446a.696.696 0 0 0 .097-.307c0-.39.899-1.116 1.383-1.116.115 0 .232-.038.26-.084.03-.047.373-.085.765-.085h.711v1.223zm-50.98 8.994a.453.453 0 0 0-.105.274.643.643 0 0 1-.115.32c-.157.208-.861.569-1.109.569-.113 0-.206.038-.206.084 0 .047-.133.085-.295.085-.162 0-.295.037-.295.084 0 .046-.075.084-.166.084-.441 0-1.456.78-1.859 1.428-.649 1.044-.896 1.73-1.17 3.256-.11.606-.124 4.075-.019 4.353.04.106.12.345.175.53.168.554.38 1.053.447 1.054.035 0 .063.057.063.127s.228.354.506.632.563.506.632.506c.07 0 .127.03.127.069 0 .145.918.352 1.559.352.641 0 1.56-.208 1.56-.353 0-.037.05-.068.11-.068s.192-.076.291-.169c.1-.093.212-.169.25-.169.036 0 .142-.1.235-.224a4.05 4.05 0 0 1 .257-.316c.157-.16.645-1.214.736-1.587.123-.509.175-3.27.063-3.381-.048-.049-.088-.17-.088-.27s-.052-.29-.116-.425a15.834 15.834 0 0 1-.231-.519c-.064-.15-.144-.274-.18-.274-.035 0-.063-.054-.063-.12 0-.188-.634-.761-1.075-.972-.22-.105-.466-.225-.547-.266-.2-.103-1.643-.095-1.708.01-.028.046-.144.084-.258.084-.113 0-.205.038-.205.084 0 .046-.04.084-.088.084-.104 0-.535.292-.86.583l-.232.207v-.205c-.001-.238.264-1.035.358-1.076.035-.016.063-.082.063-.148 0-.066.038-.12.084-.12.047 0 .085-.056.085-.126s.038-.126.084-.126c.046 0 .084-.04.084-.09 0-.114.213-.332.324-.332.046 0 .096-.03.112-.066.06-.14.554-.42.997-.563.255-.083.55-.184.657-.224.107-.04.287-.074.4-.074.114 0 .207-.038.207-.084 0-.047.075-.085.167-.085.326 0 1.182-.607 1.182-.839 0-.048.034-.088.075-.088.04 0 .103-.085.138-.19.1-.299.266-1.326.22-1.371-.087-.088-1.163-.036-1.259.06zm37.24.658c0 .047.034.152.076.232.128.248.514 1.325.514 1.434 0 .057.038.103.085.103.046 0 .084.114.084.253 0 .14.038.253.084.253.046 0 .084.095.084.21 0 .117.03.212.066.212.037 0 .118.18.181.4.131.457.486 1.424.602 1.643.043.08.079.222.079.316 0 .093.037.17.084.17.046 0 .084.092.084.205 0 .113.03.225.068.248.037.023.178.376.312.784.135.41.275.756.312.771.037.016.067.14.067.274 0 .136.038.246.084.246.047 0 .084.095.084.211 0 .116.038.21.085.21.046 0 .084.088.084.195 0 .106.03.23.067.274.037.044.135.29.219.548.14.434.142.491.017.79-.074.177-.134.412-.134.522 0 .11-.038.2-.085.2-.046 0-.084.082-.084.182 0 .1-.148.327-.33.506-.309.302-.365.324-.832.324h-.5l-.058.634c-.032.35-.035.672-.007.717.028.045.37.082.76.082.86 0 1.188-.13 1.748-.693.395-.398.905-1.298.905-1.598 0-.084.038-.153.084-.153.047 0 .085-.114.085-.253 0-.14.037-.253.084-.253.046 0 .084-.093.084-.206 0-.113.038-.23.084-.258.047-.029.085-.137.085-.24 0-.105.031-.226.07-.27.038-.044.14-.319.225-.61.085-.293.187-.551.225-.575.038-.023.07-.133.07-.244 0-.11.038-.224.084-.252.046-.03.084-.145.084-.258 0-.113.038-.206.085-.206.046 0 .084-.095.084-.212 0-.117.036-.278.08-.358.044-.08.18-.45.3-.82.122-.372.256-.741.3-.822a.706.706 0 0 0 .078-.275.83.83 0 0 1 .085-.296l.168-.335a.817.817 0 0 0 .085-.296c0-.07.036-.195.08-.275.123-.221.678-1.924.678-2.077 0-.074.038-.135.085-.135.046 0 .084-.113.084-.253 0-.139.038-.252.084-.252.047 0 .085-.093.085-.206 0-.113.037-.23.084-.258.046-.029.084-.107.084-.174 0-.098-.182-.121-.971-.121h-.972l-.05.255c-.029.14-.085.275-.125.3-.04.025-.073.135-.073.246 0 .11-.038.224-.085.253-.046.028-.084.163-.084.3 0 .136-.038.248-.084.248-.047 0-.085.095-.085.211a.932.932 0 0 1-.076.359c-.041.08-.217.601-.39 1.158a45.358 45.358 0 0 1-.378 1.18 8.843 8.843 0 0 0-.172.548c-.06.208-.14.415-.178.459a.424.424 0 0 0-.07.237c0 .086-.085.401-.19.7-.19.547-.4.72-.4.332 0-.116-.038-.211-.085-.211-.046 0-.084-.114-.084-.253 0-.14-.038-.253-.084-.253-.046 0-.084-.092-.084-.206 0-.113-.038-.229-.085-.258-.046-.028-.084-.144-.084-.257 0-.114-.034-.206-.075-.206-.04 0-.096-.105-.122-.232-.113-.547-.267-1.033-.328-1.033-.036 0-.065-.092-.065-.205 0-.113-.038-.23-.084-.258-.047-.029-.085-.145-.085-.258 0-.113-.037-.206-.084-.206-.046 0-.084-.076-.084-.17a.81.81 0 0 0-.077-.316c-.042-.08-.182-.487-.31-.905-.13-.417-.265-.794-.303-.838-.038-.044-.069-.168-.069-.274 0-.107-.038-.194-.084-.194-.047 0-.084-.057-.084-.127 0-.104-.16-.126-.928-.126-.57 0-.927.033-.927.085zm37.433.133c-.234.197-.259.265-.259.705 0 .414.033.52.222.71.188.188.296.221.705.221s.517-.034.705-.222c.186-.186.222-.297.222-.686 0-.405-.032-.495-.252-.705-.348-.333-.962-.343-1.343-.023zm3.89-.067c-.396.305-.544.846-.335 1.219.218.388.403.484.93.484.445 0 .528-.027.706-.231.111-.128.225-.32.253-.43.076-.293-.114-.823-.364-1.02-.281-.221-.916-.232-1.19-.022zm-71.922 3.317a9.156 9.156 0 0 1-.653.214c-.104.026-.19.08-.19.121 0 .04-.038.075-.086.075-.169 0-.806.723-1.002 1.137-.11.232-.218.583-.24.78l-.042.358h.748c.73 0 .752-.006.854-.228a1.15 1.15 0 0 0 .106-.378c0-.084.038-.152.084-.152.046 0 .084-.04.084-.09 0-.201.534-.51 1.077-.625.352-.074 1.048.102 1.302.33.315.28.403.594.403 1.43v.783l-1.199.058c-.66.031-1.236.094-1.281.139-.045.045-.17.082-.276.082-.107 0-.194.038-.194.084 0 .047-.059.085-.13.085-.291 0-1.104.714-1.347 1.183-.303.585-.393 1.033-.364 1.8.022.604.073.858.235 1.19.449.916 1.27 1.39 2.408 1.39.862 0 1.304-.181 1.893-.777.279-.282.424-.183.424.288v.32h.895c.887 0 .894-.001.84-.19-.26-.92-.302-1.547-.302-4.426 0-2.864-.059-3.644-.274-3.644-.035 0-.064-.073-.064-.162 0-.224-.666-.87-1.063-1.032-.888-.362-1.893-.417-2.646-.143zm53.358-.081c-.652.271-.914.43-1.18.713l-.295.315-.025-.48-.025-.479H91.88V36l.738-.024.737-.025.046-2.191c.025-1.206.054-2.205.063-2.222.01-.016.128.088.262.232.135.144.448.356.696.472.378.176.573.209 1.21.206.865-.005 1.283-.138 1.814-.577.382-.315.84-.938.84-1.14 0-.073.038-.132.085-.132.046 0 .084-.114.084-.253 0-.14.035-.253.076-.253.188 0 .318-3.014.18-4.173-.055-.463-.135-.908-.178-.989a.913.913 0 0 1-.078-.358c0-.117-.038-.212-.084-.212-.047 0-.084-.076-.084-.169 0-.092-.038-.168-.085-.168a.085.085 0 0 1-.084-.086c0-.126-.367-.67-.454-.672-.04 0-.136-.07-.21-.156-.416-.473-1.978-.773-2.624-.504zm8.936.08c-.255.091-.53.188-.612.214-.081.026-.147.081-.147.122 0 .04-.058.075-.129.075-.279 0-1.135 1.103-1.135 1.461 0 .077-.038.14-.085.14-.046 0-.084.153-.084.34v.34l.777-.023.776-.025.08-.295c.098-.365.441-.843.605-.843.067 0 .122-.032.122-.07 0-.04.202-.12.45-.18.384-.091.516-.087.912.027.255.075.523.202.597.285.281.313.41.817.384 1.505l-.025.667-1.222.067c-.672.037-1.235.103-1.25.147-.016.045-.094.081-.174.081-.214 0-1.007.4-1.22.615-.327.33-.643.788-.643.931 0 .077-.038.14-.085.14-.046 0-.084.114-.084.253s-.038.253-.084.253c-.05 0-.085.307-.085.753 0 .415.038.777.085.806.046.029.084.145.084.26 0 .276.143.519.648 1.095.481.549 2.046.818 2.846.489.21-.087.383-.186.383-.221s.053-.063.118-.063.233-.131.373-.29c.289-.33.379-.287.472.226l.057.317h.839c.819 0 .839-.005.839-.194 0-.107-.034-.23-.076-.274-.15-.158-.195-.967-.228-4.084-.019-1.739-.067-3.237-.108-3.33a37.476 37.476 0 0 1-.217-.513c-.194-.467-.439-.733-.879-.958-.878-.447-2.043-.547-2.875-.247zm-54.82.045c-.03.031-.056 2.193-.056 4.805v4.748h1.601v-4.045h3.457v4.046h1.517v-9.61h-1.517v2.056c0 1.797-.017 2.063-.133 2.107-.074.029-.851.052-1.728.052h-1.595v-4.215h-.745c-.41 0-.77.025-.8.056zm9.975 4.749v4.805h1.601v-4.047h.891l.335.548c.184.301.363.548.398.548.034 0 .063.076.063.169 0 .093.028.169.063.17.035 0 .215.237.4.526.184.29.364.539.4.554.035.016.064.101.064.19s.038.161.084.161c.047 0 .085.04.085.088 0 .049.075.17.168.269.093.1.169.23.169.292 0 .06.032.11.07.11.04 0 .114.095.167.21.095.209.11.212 1.113.212h1.016l-.099-.185a2.048 2.048 0 0 0-.256-.353c-.086-.093-.157-.215-.157-.272 0-.057-.031-.116-.07-.132-.039-.015-.21-.236-.38-.491-.169-.256-.346-.51-.393-.566-.046-.056-.084-.124-.084-.151 0-.027-.076-.13-.169-.23-.092-.1-.168-.23-.168-.292 0-.06-.032-.11-.071-.11-.04 0-.143-.133-.23-.295-.087-.162-.184-.295-.214-.295s-.102-.114-.16-.253c-.057-.14-.138-.253-.178-.253-.041 0-.074-.04-.074-.088 0-.048-.069-.161-.152-.25a3.2 3.2 0 0 1-.337-.492l-.185-.329.168-.213c.093-.118.169-.246.169-.285 0-.04.094-.18.209-.314a7.25 7.25 0 0 0 .482-.675c.15-.237.295-.45.323-.473.028-.023.179-.232.336-.463a5.66 5.66 0 0 1 .395-.533c.06-.062.109-.138.109-.169s.095-.167.21-.302c.117-.135.211-.271.211-.303 0-.032.093-.165.205-.296.113-.131.223-.308.245-.393.037-.142-.029-.154-.86-.154-.798 0-.917.02-1.046.17-.08.093-.145.217-.145.276 0 .059-.076.162-.169.228-.093.067-.168.19-.168.272 0 .082-.038.15-.085.15-.046 0-.084.053-.084.12 0 .065-.029.131-.064.147-.036.015-.216.265-.4.554-.185.29-.365.526-.4.527-.035 0-.063.073-.063.162 0 .089-.031.174-.069.19-.038.015-.246.303-.462.639-.393.61-.393.611-.774.611h-.381v-4.046H58.92v4.805zm23.603 0v4.805h1.517v-4.047h.458c.384 0 .466.028.511.169.03.093.087.169.127.169.04 0 .099.082.13.183.033.1.13.26.217.353.087.093.158.22.158.28 0 .061.034.11.075.11.04 0 .12.115.178.254.058.139.13.253.161.253.03 0 .168.208.306.463.137.255.278.463.313.463.035 0 .063.058.063.127 0 .07.038.127.085.127.046 0 .084.037.084.083 0 .046.14.292.313.548l.313.465h1.996l-.152-.26a3.122 3.122 0 0 0-.278-.4 2.17 2.17 0 0 1-.246-.372 2.175 2.175 0 0 0-.253-.379c-.185-.206-.597-.847-.597-.93 0-.036-.076-.121-.169-.188-.093-.067-.169-.156-.169-.198 0-.098-.591-.93-.687-.968-.04-.016-.071-.082-.071-.147 0-.107-.134-.305-.388-.575a2.054 2.054 0 0 1-.224-.349c-.12-.228-.119-.272.008-.503.077-.139.207-.314.288-.389.08-.075.147-.165.147-.2 0-.056.56-.866.672-.97.025-.024.099-.147.165-.274.065-.128.15-.232.189-.232.038 0 .07-.054.07-.12 0-.065.032-.131.071-.147.04-.015.255-.294.48-.618.223-.325.428-.61.455-.632.026-.024.102-.147.167-.274.066-.128.151-.232.19-.232.038 0 .07-.057.07-.127 0-.104-.158-.126-.92-.126h-.919l-.258.4c-.142.22-.298.447-.345.503a.366.366 0 0 0-.087.19.086.086 0 0 1-.084.087c-.046 0-.084.05-.084.11 0 .061-.067.186-.148.277a2.81 2.81 0 0 0-.306.476c-.087.17-.22.378-.295.46-.075.084-.19.257-.256.384s-.151.232-.19.232c-.038 0-.07.043-.07.096 0 .053-.104.262-.232.464-.22.349-.251.367-.632.367h-.4v-4.046h-1.517v4.805zm28.711-4.672c-.029.074-.052 2.236-.052 4.805v4.672h1.602v-9.61h-.75c-.605 0-.759.026-.8.133zm5.057 0c-.028.074-.051 2.236-.051 4.805v4.672h1.599l.022-2.002.023-2.003 1.707-.022 1.707-.023v4.049h1.517v-9.609h-1.514l-.023 2.086-.022 2.087-1.518.024c-.834.013-1.602.003-1.707-.023l-.189-.047v-4.127h-.75c-.606 0-.759.026-.801.133zm9.98 4.672v4.805h.813c.85 0 1.032-.077 1.039-.436.001-.077.031-.153.066-.169.074-.032.864-1.642.864-1.76 0-.044.038-.08.084-.08.046 0 .084-.076.084-.169 0-.092.038-.168.085-.168.046 0 .084-.076.084-.169 0-.093.028-.169.063-.17.035 0 .177-.265.316-.588.139-.324.282-.588.316-.59.035 0 .064-.076.064-.17 0-.092.037-.168.084-.168.046 0 .084-.075.084-.168 0-.093.038-.169.084-.169.047 0 .085-.076.085-.168 0-.093.028-.17.063-.17s.177-.263.316-.583c.139-.32.319-.623.4-.674.14-.087.148.087.148 3.238v3.33h1.517v-9.609h-.709c-.815 0-.977.042-.977.255 0 .084-.029.165-.065.18-.074.033-.693 1.303-.693 1.424 0 .044-.038.08-.085.08-.046 0-.084.076-.084.168 0 .093-.038.169-.084.169-.047 0-.084.076-.084.168 0 .093-.038.17-.085.17-.046 0-.084.075-.084.168 0 .092-.038.168-.084.168-.047 0-.085.044-.085.097 0 .133-.441 1.034-.523 1.07-.037.015-.067.1-.067.189s-.038.162-.084.162c-.046 0-.084.075-.084.168 0 .093-.038.169-.085.169-.046 0-.084.045-.084.1 0 .13-.613 1.366-.695 1.403-.035.015-.064.1-.064.19 0 .089-.037.161-.084.161-.055 0-.084-1.166-.084-3.33v-3.329h-1.686v4.805zm-30.24-3.348c.209.12.737.62.737.698 0 .03.054.173.12.319.194.432.235.778.275 2.321.025.974.008 1.495-.052 1.555-.05.05-.09.195-.09.324 0 .24-.325 1.021-.522 1.253-.06.072-.29.214-.51.317-.542.252-1.228.25-1.696-.004-.444-.242-.507-.303-.72-.702-.167-.31-.177-.457-.177-2.663 0-1.285.035-2.423.077-2.53.126-.323.66-.84.997-.965.361-.134 1.27-.09 1.561.077zm-62.214.7c.154.078.336.215.405.303.07.089.212.264.316.389.105.125.19.292.19.37 0 .079.032.163.072.187.146.09.287 1.3.234 2.004-.076 1.001-.144 1.418-.23 1.418-.042 0-.076.076-.076.17 0 .198-.136.453-.4.752-.105.118-.19.239-.19.269 0 .122-.78.41-1.11.41-.377 0-.913-.158-.913-.27 0-.036-.054-.067-.12-.067-.067 0-.146-.076-.175-.168-.03-.093-.083-.169-.119-.169-.068 0-.329-.501-.526-1.011-.161-.418-.159-2.914.003-3.254.064-.134.159-.34.21-.455.159-.357.67-.843 1.023-.974.4-.148 1.01-.107 1.406.096zm10.099 4.002c0 .934-.026 1.213-.125 1.311a3.29 3.29 0 0 0-.231.268c-.06.079-.277.236-.484.349-.306.167-.497.205-1.025.205-.628 0-.66-.01-.938-.29-.159-.159-.317-.403-.35-.542-.131-.536-.152-.823-.072-.998l.2-.435a1.5 1.5 0 0 1 .285-.409c.234-.215.76-.476.962-.476.091 0 .19-.038.219-.084.028-.047.39-.085.805-.085h.754v1.186zm62.359-.003l.023 1.14-.28.305c-.488.533-.853.688-1.629.69-.632.003-.7-.014-.911-.225-.602-.602-.633-1.824-.06-2.364.308-.29.82-.56 1.061-.56.111 0 .227-.04.257-.088.033-.052.344-.077.785-.063l.73.024.024 1.14z" fill="#000"/></svg>