<svg xmlns="http://www.w3.org/2000/svg" viewBox="0 0 574.5 197.75"><g id="Шар_2" data-name="Шар 2"><g id="Шар_1-2" data-name="Шар 1"><polygon points="0 197.75 75.5 0 100.25 0 100.25 197.75 0 197.75"/><polygon points="154 50.75 140.5 13 140.5 50.75 136.5 50.75 136.5 2.5 140.5 2.5 154 40 154 2.5 158 2.5 158 50.75 154 50.75"/><path d="M183.75,50.75l-2.5-13.25H170l-2.75,13.25H163L173.75,2.5h3.75L188,50.75ZM175.5,9.5,170.75,34h9.75l-5-24.5Z"/><polygon points="200 6 200 50.75 196 50.75 196 6 188 6 188 2.5 208 2.5 208 6 200 6"/><polygon points="214.25 50.75 214.25 2.5 218.25 2.5 218.25 50.75 214.25 50.75"/><path d="M244.5,48.5c-1.5,1.75-4,2.75-7.25,2.75A10,10,0,0,1,230,48.5c-2.75-3.25-3.25-6.5-3.25-22,0-15.25.5-18.75,3.25-21.75a10.17,10.17,0,0,1,7.25-3,9.34,9.34,0,0,1,7.25,3c3,3,3.5,6.5,3.5,21.75,0,15.5-.5,18.75-3.5,22Zm-3-41.25c-.75-1.25-2.25-1.75-4.25-1.75A4.85,4.85,0,0,0,233,7.25c-2,2.25-2.25,5-2.25,19.25S231,43.75,233,46a5.6,5.6,0,0,0,4.25,1.75A5.22,5.22,0,0,0,241.5,46c2-2.25,2.5-5.25,2.5-19.5s-.5-17-2.5-19.25Z"/><polygon points="273.75 50.75 260.25 13 260.25 50.75 256.25 50.75 256.25 2.5 260.25 2.5 273.75 40 273.75 2.5 277.75 2.5 277.75 50.75 273.75 50.75"/><path d="M303.5,50.75,301,37.5H289.75L287,50.75h-4.25L293.5,2.5h3.75l10.5,48.25ZM295.25,9.5,290.5,34h9.75l-5-24.5Z"/><polygon points="313 50.75 313 2.5 317 2.5 317 47.25 329.75 47.25 329.75 50.75 313 50.75"/><path d="M155.25,123l-2-9.5H142l-1.75,9.5h-8L144,74.75h7.5L163.25,123Zm-7.5-36.5-4.25,20.25H152L147.75,86.5Z"/><polygon points="186.75 123 175.25 94.25 175.25 123 167.75 123 167.75 74.75 174.5 74.75 185.75 103.5 185.75 74.75 193.5 74.75 193.5 123 186.75 123"/><polygon points="214.75 81.5 214.75 123 207 123 207 81.5 199 81.5 199 74.75 222.75 74.75 222.75 81.5 214.75 81.5"/><polygon points="228.25 123 228.25 74.75 236 74.75 236 123 228.25 123"/><polygon points="243.25 102.25 243.25 95.5 257 95.5 257 102.25 243.25 102.25"/><path d="M284.25,120.5a11.9,11.9,0,0,1-8.5,3.25,11.67,11.67,0,0,1-9.25-4.25c-3.25-3.75-3.5-9-3.5-20.5s.25-17,3.5-20.75a11.54,11.54,0,0,1,9.25-4,11.76,11.76,0,0,1,8.5,3c2.5,2.25,3.75,6,4,10.25H280.5a9.52,9.52,0,0,0-1-4.75A4.19,4.19,0,0,0,275.75,81a3.73,3.73,0,0,0-3.5,1.75c-1.5,2.5-1.75,7.25-1.75,16.25,0,8.75.25,13.5,1.75,16a3.73,3.73,0,0,0,3.5,1.75A4.19,4.19,0,0,0,279.5,115a9.52,9.52,0,0,0,1-4.75h7.75c-.25,4.25-1.75,8-4,10.25Z"/><path d="M316,119.5a12.22,12.22,0,0,1-9.5,4.25,11.29,11.29,0,0,1-9.25-4.25c-3.25-4-3.75-9-3.75-20.5s.5-16.75,3.75-20.75c1.75-2.25,4.75-4,9.25-4a12.09,12.09,0,0,1,9.5,4c3.25,3.75,3.5,9.25,3.5,20.75s-.25,16.75-3.5,20.5Zm-5.75-36.75A4.51,4.51,0,0,0,306.5,81a3.73,3.73,0,0,0-3.5,1.75c-1.5,2.5-1.75,7.25-1.75,16.25,0,8.75.25,13.5,1.75,16a3.73,3.73,0,0,0,3.5,1.75,4.51,4.51,0,0,0,3.75-1.75c1.25-2.5,1.5-7.25,1.5-16,0-9-.25-13.75-1.5-16.25Z"/><path d="M344.5,123l-6.25-19.75H334V123h-7.75V74.75H338.5C347.25,74.75,351,79,351,89c0,6-1.25,10.25-5.75,12.5L352.5,123Zm-6-41.5H334v15h4.5c4.25,0,4.75-3.5,4.75-7.5s-.5-7.5-4.75-7.5Z"/><path d="M377,123l-6.25-19.75H366.5V123h-7.75V74.75H371c8.75,0,12.5,4.25,12.5,14.25,0,6-1.25,10.25-5.75,12.5L385,123Zm-6-41.5h-4.5v15H371c4.25,0,4.75-3.5,4.75-7.5s-.5-7.5-4.75-7.5Z"/><path d="M411.5,120a11.52,11.52,0,0,1-9,3.75,11.88,11.88,0,0,1-9-3.75,12.53,12.53,0,0,1-3.25-8.75V74.75h7.5V111.5c0,3.5,2.25,5.25,4.75,5.25,2.75,0,4.75-1.75,4.75-5.25V74.75h7.5v36.5c0,3.5-1,6.75-3.25,8.75Z"/><path d="M434.75,104h-4.5v19H422.5V74.75h12.25c8.75,0,12.5,4.5,12.5,14.75,0,10-3.75,14.5-12.5,14.5Zm-.25-22.5h-4.25V97.25h4.25c4,0,5-3,5-7.75,0-5-1-8-5-8Z"/><polygon points="466.5 81.5 466.5 123 459 123 459 81.5 450.75 81.5 450.75 74.75 474.75 74.75 474.75 81.5 466.5 81.5"/><polygon points="480.25 123 480.25 74.75 487.75 74.75 487.75 123 480.25 123"/><path d="M517,119.5a12.22,12.22,0,0,1-9.5,4.25,11.67,11.67,0,0,1-9.25-4.25c-3.25-4-3.5-9-3.5-20.5s.25-16.75,3.5-20.75a11.54,11.54,0,0,1,9.25-4,12.09,12.09,0,0,1,9.5,4c3.25,3.75,3.5,9.25,3.5,20.75s-.25,16.75-3.5,20.5Zm-5.75-36.75A4.19,4.19,0,0,0,507.5,81a4,4,0,0,0-3.5,1.75c-1.5,2.5-1.75,7.25-1.75,16.25,0,8.75.25,13.5,1.75,16a4,4,0,0,0,3.5,1.75,4.19,4.19,0,0,0,3.75-1.75c1.5-2.5,1.5-7.25,1.5-16,0-9,0-13.75-1.5-16.25Z"/><polygon points="546.5 123 535 94.25 535 123 527.25 123 527.25 74.75 534.25 74.75 545.5 103.5 545.5 74.75 553 74.75 553 123 546.5 123"/><path d="M157.5,192.25c-2,2.25-5,3.25-9.5,3.25H136V147h12c4.5,0,7.5,1,9.5,3,2.25,2.25,3,4.75,3,10,0,3.5-.5,6-2.75,8.25a5.71,5.71,0,0,1-2.5,1.75,21.62,21.62,0,0,1,2.5,1.75c2.25,2.5,2.75,5.25,2.75,9.75,0,5.75-.75,8.5-3,10.75Zm-10.25-38.5H143.5V167h3.75c4,0,5.5-2,5.5-6.5,0-4.75-1.5-6.75-5.5-6.75Zm0,19.75H143.5v15h3.75c4,0,5.75-1.75,5.75-7.5,0-5.5-1.75-7.5-5.75-7.5Z"/><path d="M189,192.5a13.1,13.1,0,0,1-9,3.5,12,12,0,0,1-12.5-12.5V147h7.75v37c0,3.5,2,5,4.75,5,2.5,0,4.75-1.5,4.75-5V147h7.5v36.5a13.18,13.18,0,0,1-3.25,9Z"/><path d="M218.25,195.5l-6.25-20h-4.5v20H200V147h12.25c8.75,0,12.25,4.25,12.25,14.25,0,6-1,10.25-5.5,12.75l7.25,21.5Zm-6-41.75H207.5v15h4.75c4.25,0,4.75-3.5,4.75-7.5s-.5-7.5-4.75-7.5Z"/><polygon points="232.5 195.5 232.5 147 252.75 147 252.75 153.75 240 153.75 240 167.5 251 167.5 251 174.5 240 174.5 240 188.5 252.75 188.5 252.75 195.5 232.5 195.5"/><path d="M278.75,195.5l-2-9.75H265.5l-1.75,9.75h-8L267.5,147H275l11.75,48.5Zm-7.5-36.75L267,179h8.5l-4.25-20.25Z"/><path d="M312.25,192.5a13.1,13.1,0,0,1-9,3.5,12,12,0,0,1-12.5-12.5V147h7.75v37c0,3.5,2,5,4.75,5,2.5,0,4.5-1.5,4.5-5V147h7.75v36.5a13.18,13.18,0,0,1-3.25,9Z"/><path d="M352.75,193a9.34,9.34,0,0,1-7.25,3,9.17,9.17,0,0,1-7-3c-3-3-3.5-6.5-3.5-21.75,0-15.5.5-18.75,3.5-22a9,9,0,0,1,7-2.75c3.25,0,5.75,1,7.25,2.75,3,3.25,3.5,6.5,3.5,22,0,15.25-.5,18.75-3.5,21.75ZM350,151.75a6.2,6.2,0,0,0-4.5-1.75,6,6,0,0,0-4.25,1.75c-2,2.5-2.25,5.25-2.25,19.5s.25,17,2.25,19.25a5.15,5.15,0,0,0,4.25,1.75c2,0,3.5-.5,4.5-1.75,2-2.25,2.25-5,2.25-19.25s-.25-17-2.25-19.5Z"/><polygon points="368.75 150.5 368.75 169.25 379.75 169.25 379.75 173 368.75 173 368.75 195.5 364.75 195.5 364.75 147 381.5 147 381.5 150.5 368.75 150.5"/><path d="M418.75,193.25a9.82,9.82,0,0,1-7,2.75,10.89,10.89,0,0,1-7.25-2.75c-1.75-1.75-2.75-4.5-2.75-8V147h4v38.75c0,4,2.75,6.5,6,6.5s6-2.5,6-6.5V147h4v38.25c0,3.5-1,6.25-3,8Z"/><polygon points="448.75 195.5 439.25 171.5 434.5 180.75 434.5 195.5 430.5 195.5 430.5 147 434.5 147 434.5 173.25 447.5 147 451.75 147 441.75 167 453 195.5 448.75 195.5"/><path d="M475.5,195.5l-7-21.75h-6.25V195.5h-4V147h9.5c6,0,10.5,2,10.5,13.5,0,7.25-2,11-6,12.5L480,195.5Zm-7.5-45h-5.75V170H468c5,0,6.25-3.25,6.25-9.5s-1.25-10-6.25-10Z"/><path d="M504.25,195.5l-2.75-13.25H490.25l-2.5,13.25h-4.5L494,147h3.75l10.75,48.5ZM496,154.25l-5,24.25h9.75L496,154.25Z"/><polygon points="513.5 195.5 513.5 147 517.5 147 517.5 195.5 513.5 195.5"/><polygon points="544.5 195.5 531 157.75 531 195.5 526.75 195.5 526.75 147 531 147 544.25 184.75 544.25 147 548.25 147 548.25 195.5 544.5 195.5"/><polygon points="557.75 195.5 557.75 147 574.5 147 574.5 150.5 561.75 150.5 561.75 169.25 572.75 169.25 572.75 173 561.75 173 561.75 191.75 574.5 191.75 574.5 195.5 557.75 195.5"/></g></g></svg>