<svg width="116" height="42" viewBox="0 0 116 42" fill="none" xmlns="http://www.w3.org/2000/svg"><path fill-rule="evenodd" clip-rule="evenodd" d="M15.722.783c-.162.431-.348.907-.415 1.059a157.36 157.36 0 0 0-1.042 2.72c-.506 1.346-1.1 2.905-1.32 3.464-.22.56-.796 2.069-1.28 3.354a363.042 363.042 0 0 1-1.11 2.913c-.124.318-.674 1.753-1.22 3.189L8.16 20.56c-.099.257-.612 1.605-1.14 2.996a428.82 428.82 0 0 1-1.327 3.461 292.32 292.32 0 0 0-1.103 2.886c-.918 2.443-1.385 3.666-1.48 3.878-.042.091-.304.771-.583 1.512-.91 2.415-1.76 4.643-1.815 4.755-.086.18-.713 1.853-.713 1.904C0 41.98 4.735 42 10.72 42h10.72V0h-5.424l-.294.783zm35.189.506c-.551.179-1.098.717-1.288 1.267-.211.613-.229.918-.229 3.876 0 2.558.011 2.936.097 3.326.128.58.317.954.623 1.236.781.72 1.927.77 2.808.12.28-.207.587-.795.705-1.356.145-.69.207-2.158.177-4.206-.04-2.685-.14-3.186-.757-3.762-.417-.391-.798-.545-1.4-.564-.32-.01-.58.012-.736.063zM29.136 6.377v5.003h.825V6.652h2.474v4.728h.824V1.374h-.824v4.563H29.96V1.374h-.825v5.003zm7.395-4.934a527.8 527.8 0 0 0-.821 3.697c-.44 1.996-.863 3.9-.94 4.233-.079.333-.204.877-.279 1.21-.074.332-.148.647-.165.7-.027.087.018.097.437.097h.466l.055-.262c.03-.143.149-.762.263-1.374l.208-1.113h2.321l.236 1.25c.13.688.249 1.307.264 1.375.026.117.054.124.522.124.486 0 .495-.003.465-.124-.03-.123-.445-1.996-1.546-6.985a571.177 571.177 0 0 0-.613-2.763c-.032-.127-.055-.134-.442-.134-.277 0-.415.022-.43.07zm3.985 4.933v5.002l2.047.015 2.048.014.015 1.03.015 1.032h.767v-2.804h-.714V1.374h-.88l-.013 4.632-.014 4.631-1.251.015-1.25.015V1.374h-.77v5.002zm6.267.001v5.003h.769V1.374h-.769v5.003zm8.74 0v5.003h.769l.014-2.35.015-2.35 1.25-.015 1.251-.015v4.73h.825V1.374h-.825V5.94l-1.25-.015-1.251-.014-.015-2.268-.014-2.268h-.768v5.003zm7.396-4.934c-.013.038-.26 1.145-.547 2.46a561.16 561.16 0 0 1-.831 3.738c-.17.741-.418 1.842-.553 2.447a60.965 60.965 0 0 1-.275 1.195c-.026.087.019.097.437.097h.467l.053-.262c.03-.143.149-.762.264-1.374l.21-1.113h2.319l.264 1.374.265 1.375h.494c.485 0 .494-.003.464-.124-.017-.068-.417-1.88-.89-4.027-.471-2.147-.94-4.25-1.042-4.673a31.838 31.838 0 0 1-.223-.976l-.038-.206h-.407c-.278 0-.416.022-.431.07zm4.919 3.051c0 3.872-.069 4.717-.446 5.497-.208.43-.443.619-.832.666l-.29.035-.015.344-.017.344h.395c.518 0 .773-.083 1.073-.347.418-.368.68-1.041.854-2.191.036-.235.075-1.72.095-3.565l.035-3.16h1.924l.014 4.631.014 4.632h.824V1.374h-3.628v3.12zM73.39 6.38v5.006l1.388-.017c1.326-.016 1.401-.023 1.678-.148.408-.184.75-.58.9-1.042.094-.29.124-.543.144-1.214.055-1.862-.31-2.697-1.312-2.998-.184-.055-.614-.102-1.135-.123l-.838-.034V1.374h-.825V6.38zm5.827-.003v5.003h.825V6.652h2.474v4.728h.824V1.374h-.824v4.563h-2.474V1.374h-.825v5.003zm6.084-4.966c-.02.02-.037 2.271-.037 5.003v4.966h3.519v-.715h-2.639V6.762h2.309v-.825h-2.309V2.09h2.639v-.715H87.06c-.947 0-1.739.017-1.759.037zm-33.038.766c.519.384.601.834.653 3.55.04 2.088-.03 3.832-.169 4.231-.21.605-.914.944-1.578.76-.451-.126-.69-.5-.82-1.29-.106-.64-.106-5.856 0-6.322.125-.553.284-.774.694-.97.308-.147.997-.124 1.22.04zM63.486 3.82c.09.423.242 1.116.336 1.539.094.423.245 1.116.337 1.54.09.423.18.824.196.893l.031.123h-1.023c-.562 0-1.023-.017-1.023-.038 0-.041.86-4.515.91-4.737.017-.072.04-.121.051-.11.011.012.095.367.185.79zm-26.44-.248c.123.501.244 1.054.64 2.914.138.65.265 1.237.282 1.306l.03.123h-1.022c-.563 0-1.023-.02-1.023-.046s.112-.625.25-1.333l.412-2.128c.217-1.13.268-1.354.3-1.32.008.009.067.227.13.484zM75.99 6.671c.246.103.505.414.608.732.285.873.25 2.126-.075 2.7-.064.113-.22.279-.346.37-.228.162-.24.165-1.042.182l-.81.018V6.597h.743c.5 0 .803.024.922.074zm22.383 7.663c.05.364.276.807.506.997.294.242.73.36 1.311.354 1.022-.01 1.629-.474 1.716-1.31l.031-.302h-1.044l-.051.178a.623.623 0 0 1-.242.307c-.16.11-.242.126-.515.107-.28-.02-.345-.046-.48-.198-.087-.097-.157-.225-.157-.285 0-.101-.038-.109-.556-.109h-.556l.037.261zm-35.086 1.832c-.47.061-.888.264-1.25.607-.522.493-.79 1.122-.904 2.11-.074.648-.073 4.257 0 4.893.156 1.334.703 2.195 1.628 2.562.276.11.419.128 1.009.128.59 0 .732-.018 1.008-.128.441-.175 1.005-.712 1.262-1.202.342-.653.383-.959.41-3.091.033-2.691-.081-3.907-.43-4.56-.173-.326-.597-.791-.903-.994-.412-.27-1.192-.41-1.83-.325zm-32.64.285c-.04.118-1.32 5.216-2.238 8.92-.135.544-.236 1.008-.223 1.03.02.04 1.665.062 1.665.023 0-.01.052-.288.115-.618l.18-.958.064-.357 1.168-.015c.641-.008 1.166-.003 1.166.01 0 .023.321 1.448.413 1.833.029.121.045.123.844.123.448 0 .826-.011.84-.026.015-.014-.08-.453-.21-.976l-1.17-4.715a336.901 336.901 0 0 0-1.019-4.054l-.086-.289h-.742c-.544 0-.748.018-.766.069zm4.921 4.961v5.03h1.593l.014-2.185.015-2.185.976-.015.975-.015v4.403l.811-.015.811-.015V16.41l-.81-.015-.812-.016v4.239l-.975-.015-.976-.015-.015-2.103-.014-2.103h-1.593v5.03zm6.17-4.302l.015.729.838.015.838.015v8.576l.811-.015.811-.015.014-4.273.014-4.273.783-.015.783-.015V16.41l-2.461-.015-2.462-.014.015.73zm6.2 4.302v5.03h.68c.478 0 .697-.02.735-.068.03-.038.353-.898.716-1.91l1.064-2.97.405-1.126.027 3.023.028 3.024h1.594V16.41h-1.424l-.21.55a285.92 285.92 0 0 0-1.014 2.803 114.58 114.58 0 0 1-.893 2.446c-.08.18-.088-.02-.101-2.817l-.014-3.01h-1.594v5.03zm6.87 0v5.03h1.596v-2.528c0-1.391.02-2.53.043-2.53.024 0 .07.069.104.152.062.151 1.497 3.247 1.867 4.027.108.227.233.503.277.614.045.111.11.212.146.223.078.026 1.69-.052 1.72-.084.039-.038-.12-.373-1.33-2.825-.647-1.314-1.178-2.41-1.178-2.438 0-.027.508-1.06 1.127-2.296.62-1.236 1.127-2.276 1.127-2.312 0-.049-.218-.062-.837-.05l-.838.015-.755 1.649c-1.078 2.353-1.385 2.996-1.432 2.996-.022 0-.04-1.051-.04-2.336v-2.337h-1.597v5.03zm13.14-.005v5.035h1.539v-3.946l.893-.026c.758-.021.94-.044 1.196-.147.926-.375 1.355-1.111 1.459-2.505.09-1.215-.22-2.329-.793-2.846-.542-.49-.803-.545-2.714-.575l-1.58-.025v5.035zm5.772-4.951c0 .075.507 1.651 1.591 4.948l.594 1.806-.187.523c-.23.645-.265.714-.475.936-.18.189-.35.259-.767.316l-.261.035v.711c0 .822-.08.748.71.657.88-.1 1.271-.328 1.584-.917.093-.176.433-1.15.755-2.162.323-1.013.83-2.584 1.129-3.49.449-1.367.864-2.654 1.069-3.314l.038-.126-.862.015-.862.016-.486 1.951a164.618 164.618 0 0 0-.548 2.24c-.034.16-.08.29-.103.29-.023 0-.136-.353-.25-.784a37.67 37.67 0 0 0-.28-1.004c-.038-.12-.185-.652-.327-1.181a114.76 114.76 0 0 0-.339-1.251l-.082-.289h-.82c-.65 0-.821.015-.821.074zm6.567-.005c-.014.038-.02 2.295-.012 5.016l.014 4.948.811.015.811.015v-8.579h1.98v8.576h1.483v-10.06h-2.53c-1.974 0-2.536.015-2.557.069zm6.791 4.96v5.03l2.24.015 2.24.014.016.976.015.976h.681c.375 0 .72-.015.769-.034.076-.03.087-.231.087-1.704v-1.67h-.824l-.014-4.303-.014-4.301h-1.595l-.014 4.301-.014 4.302h-1.923l-.014-4.302-.014-4.301-.81-.015-.811-.016v5.031zm7.16-.012l.015 5.016h1.594l.014-5.016.014-5.017h-1.65l.014 5.017zm3.31-4.948c-.014.038-.019 2.295-.011 5.016l.014 4.948.715.015.715.015.616-1.692c.339-.93.838-2.298 1.11-3.038l.494-1.347.016 3.023.017 3.024h1.595l.014-5.018.014-5.018-.726.015-.727.016-.123.33c-.141.376-.97 2.651-1.633 4.48l-.448 1.237-.014-3.038-.014-3.037h-.798c-.589 0-.806.018-.825.069zm6.902 4.961v5.03h1.593l.015-2.185.014-2.185.976-.015.976-.015v4.4h1.594v-10.06h-1.594v4.233h-1.979v-4.233h-1.595v5.03zm6.787-4.961c-.014.038-.019 2.295-.012 5.016l.015 4.948 2.102.014 2.103.015v-1.376h-2.584v-2.911l1.113-.015 1.114-.015v-1.429l-1.114-.015-1.113-.015v-2.802h2.584v-1.484h-2.091c-1.622 0-2.096.016-2.117.069zm-46.774 1.486c.104.113.218.324.268.495.305 1.051.225 5.345-.114 6.059-.164.346-.71.578-1.109.47-.328-.088-.533-.351-.64-.823-.145-.634-.215-2-.178-3.468.065-2.628.274-3.097 1.322-2.965.217.027.306.073.451.232zm6.399-.057c.322.164.479.471.548 1.073.052.464.003 1.176-.101 1.45-.093.244-.389.536-.603.595-.111.031-.43.056-.71.057h-.51v-3.299h.566c.478 0 .604.02.81.124zm-39.007 3.076l.372 1.98c.012.055-.17.074-.818.086l-.832.015.187-.895c.104-.492.287-1.377.409-1.967.229-1.109.271-1.275.304-1.181.01.03.18.913.378 1.962zm49.176 8.95v.44h.88v-.88h-.88v.44zm1.924 0v.44h.935v-.88h-.935v.44zm-43.049 1.368c-.385.124-.733.36-1.057.722-.527.586-.693 1.184-.745 2.692l-.035 1.017-.48.016-.482.016v-4.405l-.81.015-.811.016-.014 4.988-.014 4.99h1.649v-4.183l.481.016.481.016.035.962c.02.566.072 1.115.123 1.333.33 1.395 1.505 2.205 2.935 2.026 1.023-.129 1.792-.851 2.071-1.946.161-.63.208-1.606.182-3.804-.028-2.311-.06-2.616-.34-3.188-.295-.603-.957-1.158-1.579-1.323-.41-.11-1.21-.097-1.59.024zm12.97.002c-.417.133-.633.274-.974.635-.34.358-.575.835-.694 1.403-.196.934-.24 4.21-.076 5.58.1.83.39 1.561.755 1.9.635.592 1.404.833 2.267.71 1.156-.163 1.873-.95 2.12-2.324.056-.316.09-1.057.112-2.473.05-3.262-.066-3.956-.796-4.769a2.327 2.327 0 0 0-1.13-.691c-.404-.108-1.203-.093-1.584.029zm-23.85 5.065v5.007l1.663-.019c1.584-.018 1.678-.025 1.98-.145.67-.268 1.101-.783 1.336-1.594.45-1.551.16-3.193-.677-3.831-.459-.35-.758-.428-1.76-.454l-.893-.023v-2.518H33.7v-1.429h-4.673v5.006zm15.833-.003v5.002h1.649v-3.903h.646a6.417 6.417 0 0 0 1.018-.08c.986-.21 1.561-.876 1.746-2.023.091-.567.042-1.883-.085-2.295-.285-.92-.85-1.46-1.72-1.643-.173-.036-.894-.06-1.773-.06h-1.48v5.002zm14.788-4.977c0 .015.187.652.415 1.416l.662 2.214c.135.453.409 1.347.608 1.985l.362 1.16-.308.952c-.17.523-.363 1.032-.43 1.13-.167.242-.378.355-.734.392l-.3.031v.715l.442-.03c.725-.05 1.107-.291 1.412-.893.062-.12.508-1.543.992-3.16a619.444 619.444 0 0 1 1.294-4.274c.227-.733.43-1.408.45-1.5l.037-.168-.457.015-.457.017-.5 1.869-.738 2.763c-.13.492-.247.885-.259.873a17.832 17.832 0 0 1-.289-.949 564.33 564.33 0 0 0-.524-1.808 220.03 220.03 0 0 1-.422-1.456c-.09-.318-.214-.745-.273-.949l-.108-.37h-.438c-.24 0-.437.01-.437.025zm5.882 4.977v5.002h.824V38.8c0-1.572.02-2.52.052-2.487.028.029.475.782.994 1.674 1.22 2.097 1.874 3.198 1.952 3.287.043.05.19.066.484.055l.42-.016-.227-.385c-.125-.212-.604-1.016-1.064-1.787-1.464-2.455-1.793-3.035-1.765-3.109.015-.04.317-.55.67-1.134 1.67-2.76 2.073-3.43 2.098-3.494.02-.052-.084-.069-.413-.069h-.439l-.66 1.14c-.364.628-.963 1.673-1.332 2.323a33.91 33.91 0 0 1-.72 1.235c-.03.03-.05-.908-.05-2.323v-2.375h-.824v5.003zm5.992.05v5.062h.824v-4.44l.894-.022c.857-.022.908-.03 1.252-.19.82-.381 1.126-1.113 1.123-2.686-.003-1.511-.31-2.225-1.12-2.605-.3-.14-.336-.144-1.64-.162l-1.333-.018v5.062zm6.513-4.984a578.25 578.25 0 0 0-.957 4.302c-.513 2.328-1.005 4.548-1.093 4.933l-.16.701h.907l.224-1.168c.122-.642.24-1.26.26-1.374l.035-.206h2.328l.208 1.113c.114.612.233 1.23.264 1.374l.056.261h.49c.368 0 .49-.018.49-.072 0-.04-.049-.268-.108-.508-.06-.24-.159-.66-.22-.931-.428-1.899-1.87-8.433-1.87-8.47 0-.014-.187-.024-.415-.024-.28 0-.422.022-.439.069zm3.932 4.934v5.002h.825V31.335h-.825v5.003zm2.859 0v5.002h.823l.014-2.35.015-2.35h2.473l.015 2.35.014 2.35h.824l-.014-4.989-.014-4.988-.398-.017-.399-.016v4.568h-2.529v-4.562h-.824v5.002zm6.102.002v5.005l.418-.016.419-.016.491-1.43c.27-.786.549-1.59.618-1.786.07-.197.438-1.26.819-2.364l.692-2.007.003 3.807.003 3.807h.825V31.335h-.797l-.792 2.323a128.269 128.269 0 0 1-.863 2.487c-.04.091-.244.672-.455 1.292-.21.62-.42 1.226-.466 1.347-.075.2-.083-.127-.087-3.614l-.004-3.835h-.824v5.005zm-16.929-4.165c.415.177.63.6.712 1.396.06.582.008 1.36-.119 1.783-.04.135-.167.337-.292.467-.272.28-.55.352-1.379.352h-.575v-4.14l.732.031c.454.019.804.061.921.111zm-32.796.599c.176.08.442.537.524.899.099.44.219 1.918.218 2.692 0 .797-.123 2.386-.216 2.796a2.205 2.205 0 0 1-.14.42c-.243.469-1.143.58-1.457.18-.293-.373-.439-1.509-.439-3.423 0-1.767.128-2.919.364-3.288.195-.304.777-.444 1.146-.276zm13.007.06c.24.162.41.471.491.889.095.496.134 3.214.06 4.242-.07.973-.162 1.45-.32 1.662-.15.199-.543.394-.796.394-.501 0-.758-.262-.899-.917-.13-.608-.2-2.58-.138-3.93.058-1.273.153-1.85.352-2.145.165-.245.332-.318.728-.319.26 0 .378.028.522.125zm-6.633-.017c.473.11.666.397.748 1.116.102.902-.084 1.62-.491 1.894-.168.113-.252.126-.811.126h-.624v-3.189l.48.002c.266 0 .579.023.698.051zm31.082 1.157c.094.438.308 1.453.477 2.254.17.801.32 1.5.336 1.553.026.089-.046.096-.992.096-.78 0-1.02-.016-1.02-.069 0-.038.171-.947.382-2.02.21-1.073.41-2.1.444-2.281.091-.479.105-.514.16-.413.023.046.12.441.213.88zm-46.72 2.845c.221.11.413.372.51.695.105.355.088 1.326-.03 1.665-.213.61-.426.732-1.274.732h-.579v-3.189h.591c.453 0 .636.023.783.097z" fill="#000"/></svg>