<svg width="117" height="40" viewBox="0 0 117 40" fill="none" xmlns="http://www.w3.org/2000/svg"><path fill-rule="evenodd" clip-rule="evenodd" d="M43.446 19.889v19.889h.889V0h-.889v19.889zM0 9.528c0 5.179.012 9.416.026 9.416.055 0 .53-.493.53-.55 0-.033.023-.06.05-.06.072 0 .672-.594.672-.665 0-.032.029-.058.064-.058.077 0 .38-.31.38-.388 0-.031.033-.056.073-.056.04 0 .16-.1.264-.221.105-.122.223-.222.26-.223.04 0 .07-.023.07-.051 0-.078.744-.839.82-.839.037 0 .083-.062.102-.139.02-.076.062-.138.095-.138s.193-.138.356-.306c.163-.168.317-.306.341-.306.025 0 .079-.062.12-.138.04-.077.107-.14.148-.14.04 0 .074-.023.074-.052 0-.06 1.659-1.725 1.719-1.725.022 0 .073-.063.114-.139.041-.076.108-.139.148-.139.041 0 .074-.022.074-.05 0-.06.49-.561.55-.561.023 0 .076-.063.117-.139.04-.076.108-.139.148-.139.041 0 .074-.02.074-.043 0-.068.32-.401.386-.401.032 0 .064-.007.07-.014.006-.008.025-1.276.042-2.82l.03-2.805h23.778l.122-.125a.503.503 0 0 1 .167-.128c.024-.001.12-.099.21-.217.093-.118.211-.227.265-.242.053-.015.097-.068.097-.116 0-.049.038-.089.085-.089.047 0 .1-.038.118-.086.042-.11.345-.414.412-.414a.052.052 0 0 0 .052-.053c0-.064.387-.447.453-.447.025 0 .047-.037.047-.083 0-.046.037-.083.083-.083.046 0 .083-.023.083-.05 0-.047.823-.895.869-.895.012 0 .09-.076.174-.17a27.32 27.32 0 0 1 1.105-1.112c.117-.11.37-.366.562-.57.192-.203.375-.37.407-.37.032 0 .05-.056.04-.125l-.018-.125L18.515.125.001.11v9.417zM38.745.694c-.325.321-.608.584-.63.584-.022 0-.073.062-.114.139-.04.076-.107.139-.148.139-.04 0-.074.035-.074.08 0 .043-.049.094-.108.113a.238.238 0 0 0-.14.129c-.018.052-.117.157-.222.233-.104.076-.201.183-.215.236-.015.054-.066.097-.115.097s-.089.023-.089.052c0 .066-.326.393-.393.393-.028 0-.051.026-.051.057 0 .069-.317.387-.385.387-.026 0-.084.057-.13.127-.045.07-.289.326-.54.57-.253.243-.525.511-.605.596-.495.521-.734.763-.755.763-.024 0-.807.791-.807.816 0 .037-.509.517-.548.517-.025 0-.078.063-.12.14-.04.075-.107.138-.147.138-.041 0-.074.024-.074.053 0 .028-.15.199-.334.378l-.333.326V9.74c0 1.653.013 1.982.077 1.982.042 0 .286-.2.541-.444.255-.245.483-.445.506-.445.024 0 .043-.026.043-.059 0-.05.759-.826 1.09-1.114.058-.05.319-.313.581-.584.262-.27.52-.53.572-.576.053-.046.332-.32.621-.611a232.97 232.97 0 0 1 1.247-1.248l.57-.571c.024-.023.251-.255.505-.514.254-.26.522-.525.596-.589.074-.063.3-.295.503-.514.203-.218.395-.397.427-.397.065 0 .119-.142.15-.392a.779.779 0 0 1 .055-.22c.019-.03.007-.055-.025-.055-.078 0-.08-2.51-.003-2.778.082-.282-.018-.5-.23-.5-.127 0-.275.115-.75.583zm34.143 3.53c-.463.054-.953.307-1.328.683-.155.155-.28.3-.28.323 0 .022-.032.073-.07.113-.264.28-.53 1.07-.601 1.788-.156 1.57.276 2.968 1.13 3.659.362.293.713.437 1.179.481.447.043 1.28-.015 1.382-.096.035-.027.156-.08.27-.116.486-.157 1.21-1.095 1.3-1.685.02-.13.056-.276.082-.326.037-.073.002-.101-.188-.15a4.778 4.778 0 0 0-.606-.09l-.37-.032-.067.32c-.072.347-.34.745-.636.95-.394.27-1.041.246-1.406-.054-.32-.264-.6-.832-.678-1.377-.113-.782-.038-2.034.144-2.382a.707.707 0 0 0 .078-.21c0-.034.044-.115.098-.18a5.39 5.39 0 0 0 .192-.253c.157-.22.568-.386.948-.382.183.001.348.027.367.057.019.03.09.07.159.092.247.077.653.707.72 1.117.017.105.059.212.093.239.056.043.78-.003 1.063-.068l.131-.03c.012-.002-.004-.035-.034-.073-.03-.038-.073-.188-.094-.333-.055-.38-.37-.97-.697-1.303-.411-.42-.792-.608-1.379-.68a7.002 7.002 0 0 0-.51-.052 13.26 13.26 0 0 1-.392.05zm22.808 0c-.63.084-1.439.629-1.692 1.14-.045.09-.106.197-.135.237-.16.216-.328.784-.422 1.424-.098.66-.1.767-.028 1.316.086.653.132.88.194.965.022.03.071.15.108.265.187.579.761 1.255 1.283 1.51.544.267 1.753.284 2.245.032.121-.062.25-.113.287-.113.037 0 .076-.019.086-.042a1.32 1.32 0 0 1 .208-.198c.43-.355.838-1.073.912-1.6.026-.192.018-.204-.176-.261a3.724 3.724 0 0 0-.576-.092l-.372-.032-.038.21c-.099.543-.522 1.05-1.007 1.206-.27.088-.31.088-.626 0-.638-.18-.975-.684-1.14-1.708-.186-1.145.034-2.369.52-2.891.497-.535 1.394-.502 1.829.066.164.215.383.722.412.953.016.135.027.139.406.121a3.75 3.75 0 0 0 .595-.07c.195-.051.205-.065.176-.233-.05-.287-.307-.977-.39-1.046-.042-.035-.076-.092-.076-.127 0-.11-.654-.692-.94-.838-.18-.09-.442-.157-.764-.194a7.69 7.69 0 0 0-.518-.05 9.205 9.205 0 0 1-.361.05zm17.495 0c-1.427.187-2.461 1.668-2.461 3.526 0 1.145.355 2.135 1.005 2.807.577.596 1.35.83 2.361.716.701-.08 1.383-.479 1.747-1.023a5.21 5.21 0 0 1 .215-.306c.093-.088.338-.657.368-.852a.914.914 0 0 1 .085-.295c.07-.089.026-2.051-.052-2.327-.358-1.263-1.225-2.107-2.309-2.248-.449-.059-.49-.058-.959.003zM50.501 7.75v3.472h1.056l.005-2.903c.003-2.035.022-2.844.06-2.708.031.107.076.22.1.25.023.03.075.193.114.361.04.168.09.343.114.39.023.045.123.345.221.666.098.32.26.833.36 1.139.1.305.25.78.332 1.055.083.275.183.575.223.667.04.092.09.26.112.376.02.114.058.22.083.236.024.015.06.127.082.25l.037.221h.697l.236-.736c.13-.405.299-.936.375-1.18.076-.245.157-.482.18-.528A2.85 2.85 0 0 0 55 8.395c.04-.165.106-.365.147-.445a.667.667 0 0 0 .076-.22c0-.042.11-.404.243-.806.133-.401.291-.887.352-1.08l.11-.35.041 2.82c.022 1.551.053 2.84.067 2.864.015.024.301.044.635.044h.608V4.278H55.29l-.068.291c-.038.16-.088.317-.113.348a1.473 1.473 0 0 0-.111.334 1.642 1.642 0 0 1-.108.332c-.023.03-.072.193-.11.361-.04.168-.09.331-.114.362-.023.03-.071.168-.106.305a4.456 4.456 0 0 1-.14.445c-.041.106-.143.419-.225.694-.177.592-.261.806-.318.806-.023 0-.042-.05-.042-.112 0-.06-.021-.11-.047-.11s-.079-.144-.118-.32a2.652 2.652 0 0 0-.14-.458 2.63 2.63 0 0 1-.14-.445 1.63 1.63 0 0 0-.114-.362 1.468 1.468 0 0 1-.112-.333 1.682 1.682 0 0 0-.107-.333 1.64 1.64 0 0 1-.107-.332 1.468 1.468 0 0 0-.112-.334 1.534 1.534 0 0 1-.113-.348c-.037-.16-.088-.304-.113-.32-.025-.015-.062-.127-.083-.25l-.037-.221H50.5V7.75zm8.278 0v3.472h1.278V4.278h-1.278V7.75zm2.778-.002v3.474h1.222v-1.44c0-.792.014-1.477.032-1.522.044-.114 2.488-.14 2.56-.026.025.04.037.675.026 1.413-.01.737-.001 1.394.02 1.458.034.11.074.117.671.117h.636V4.278h-.64c-.469 0-.64.018-.646.07l-.02.152c-.006.046-.015.653-.02 1.348l-.008 1.265-1.291-.015-1.292-.015-.007-1.389-.007-1.388-.618-.016-.618-.016v3.474zm6.611.002v3.472h1.278V4.278h-1.278V7.75zm8.056-2.917v.556h1.833v5.837l.68-.016.681-.016.014-2.902.015-2.903h1.832V4.278h-5.055v.555zm5.74 2.903l.01 3.458 2.263.015 2.264.014v-1.112H83.28V8.16l.209.014c.114.007.69.009 1.277.003l1.07-.01v-1H83.28V5.334h3.167V4.278h-4.493l.01 3.458zm5.593.014v3.472h1.222V8.5h.948c1.375 0 1.882-.137 2.428-.656.118-.113.26-.277.315-.365.143-.231.31-.853.31-1.158 0-.279-.206-.988-.286-.988-.027 0-.048-.035-.048-.077 0-.043-.15-.215-.331-.384-.272-.252-.411-.333-.776-.45-.437-.142-.469-.144-2.113-.144h-1.67V7.75zM99 4.833v.556h1.834v5.833h1.39V5.39h.916c.504 0 .918-.019.918-.042l.014-.541.013-.5-2.542-.015-2.542-.014v.556zm5.793 2.903l.013 3.458 1.75.016c.975.008 1.799-.008 1.861-.036.061-.028.224-.081.361-.119.561-.152.965-.6 1.134-1.257.114-.441.111-.57-.021-1.015-.157-.525-.659-1.03-1.097-1.101l-.199-.033.272-.136c.35-.174.671-.52.754-.811a1.15 1.15 0 0 1 .111-.283c.16-.182-.055-1.055-.357-1.45-.243-.317-.453-.452-.908-.582-.342-.098-.558-.11-2.035-.11h-1.652l.013 3.46zm9.476-2.395c.431.194.647.513.843 1.245.099.37.113.552.095 1.27-.032 1.25-.192 1.749-.685 2.124-.407.31-.971.387-1.424.193-.301-.13-.688-.564-.771-.867a2.914 2.914 0 0 0-.124-.356c-.041-.085-.064-.515-.064-1.194 0-.966.012-1.095.129-1.433.071-.204.164-.4.208-.437.044-.037.08-.092.08-.123 0-.09.271-.315.519-.429.397-.182.778-.18 1.194.007zm-6.282.057c.1.03.25.145.333.255.131.172.152.251.151.565-.002.425-.098.61-.424.815-.201.127-.256.134-1.129.134H106v-1.83l.598-.019c.703-.022 1.139.003 1.389.08zm-17.024.096c.627.388.64 1.313.022 1.714-.23.15-.253.153-1.22.171l-.987.019v-.995c0-.548.019-1.015.042-1.039.023-.023.468-.032.99-.02.868.021.965.034 1.153.15zM39.139 6.518c-.267.265-.5.483-.52.485-.019.001-.11.1-.2.22-.093.119-.199.217-.237.219-.038.001-.07.025-.07.053 0 .057-.593.658-.77.781-.065.045-.118.101-.118.125 0 .048-.93.988-.978.988-.038 0-.19.149-.19.186 0 .046-.796.814-.844.814-.024 0-.044.037-.044.083 0 .046-.028.084-.063.084s-.124.068-.2.152c-.357.4-.972 1.014-1.016 1.014-.027 0-.119.092-.204.204-.152.199-.9.963-.942.963-.024 0-.52.51-.52.536 0 .008-.124.135-.276.281l-.276.266-.003 1.861a464.382 464.382 0 0 0-.002 1.93c.007.233.363-.078 2.326-2.027a351.921 351.921 0 0 1 2.449-2.418c.186-.176.338-.345.338-.375 0-.03.024-.054.054-.054.072 0 .39-.315.39-.387 0-.032.024-.058.052-.058.028 0 .489-.43 1.023-.958a87.985 87.985 0 0 1 1.1-1.075c.272-.244.432-.54.328-.604-.024-.015-.024-.133 0-.264.028-.151.022-.25-.015-.273-.04-.024-.05-.533-.032-1.567.015-.842.008-1.561-.015-1.598-.028-.046-.199.088-.526.413zm-29.934.408c-.046.046-.05 23.866-.003 23.986.018.048.08.088.139.088.058 0 .105.02.105.045 0 .025.106.088.236.14.13.054.307.134.393.178.087.045.19.081.228.081.039 0 .183.06.32.133.137.073.334.15.439.174.104.022.202.058.217.08.041.056.622.336.699.336.036 0 .096.037.135.083a.287.287 0 0 0 .195.083c.07 0 .235.063.368.139.133.076.297.138.364.138s.137.026.156.057c.044.07.718.389.824.389.043 0 .11.037.148.083a.254.254 0 0 0 .17.083c.056 0 .117.025.136.056.018.03.092.055.163.055.07 0 .16.038.198.084a.258.258 0 0 0 .173.083c.058 0 .105.02.105.045 0 .025.15.09.333.145.183.055.333.12.333.143 0 .024.091.06.203.081.11.021.238.074.281.118a.565.565 0 0 0 .228.114.68.68 0 0 1 .233.106c.045.04.183.098.305.131s.297.11.39.172a.702.702 0 0 0 .319.111c.084 0 .152.025.152.055s.07.071.153.091c.084.02.215.07.292.11.328.172.989.467 1.047.467.035 0 .064.023.064.05 0 .028.123.068.274.088.234.032.309.017.518-.106.135-.079.3-.143.366-.143.07 0 .12-.035.12-.084 0-.047.05-.083.118-.083.133 0 .753-.26.886-.37a.338.338 0 0 1 .182-.074c.052 0 .218-.063.37-.14.15-.076.316-.138.368-.138a.332.332 0 0 0 .182-.076 1.57 1.57 0 0 1 .352-.174c.145-.054.264-.12.264-.147 0-.026.073-.048.163-.048.089 0 .195-.03.236-.069.08-.076.384-.202.6-.25a.41.41 0 0 0 .168-.068c.043-.06.65-.335.74-.335.043 0 .11-.037.148-.083a.25.25 0 0 1 .16-.085.423.423 0 0 0 .198-.084.42.42 0 0 1 .209-.081c.055 0 .1-.025.1-.056 0-.03.076-.055.168-.055.099 0 .182-.035.2-.084a.145.145 0 0 1 .128-.083c.052 0 .224-.062.382-.139.159-.076.305-.139.326-.139a.33.33 0 0 0 .125-.071c.048-.04.231-.119.407-.176.176-.057.32-.122.32-.143 0-.022.1-.056.222-.075.122-.02.222-.06.222-.09 0-.031.05-.056.111-.056s.111-.022.111-.05c0-.027.069-.065.153-.085.084-.02.34-.125.57-.234l.61-.289a.86.86 0 0 0 .236-.147c.022-.03.041-5.434.042-12.008 0-10.849-.008-11.956-.088-11.986-.12-.047-21.162-.043-21.208.003zm98.824 1.346c.166.063.349.19.458.315.163.189.181.244.181.562 0 .408-.118.638-.44.855-.189.127-.25.135-1.213.154l-1.014.02V8.166h.875c.725 0 .923.018 1.153.105zm-87.883.743c.063.068.148.186.188.263a.84.84 0 0 0 .106.166c.033.028.101.191.266.638.092.25.191 1.852.156 2.522-.092 1.741-.161 2.6-.215 2.668-.108.136-.076 3.582.036 3.895.017.045.071.308.122.583.15.82.256 1.27.34 1.425a.666.666 0 0 1 .079.214c0 .037.034.145.077.242.042.096.108.293.146.438.038.146.088.264.111.264.023 0 .058.083.076.183.02.1.109.332.2.514.09.182.165.361.166.398 0 .036.076.178.168.313.092.136.167.311.167.39 0 .08.065.207.148.29.138.138.172.146.482.114.335-.035.759-.185.759-.268 0-.025.031-.045.07-.045.059 0 .253-.193.492-.489a.173.173 0 0 0 .028-.152c-.017-.045-.004-.081.03-.081.044 0 .053-.174.033-.581l-.03-.582-.208-.196c-.115-.108-.226-.197-.248-.197a.525.525 0 0 1-.167-.11c-.07-.062-.17-.112-.223-.112a.839.839 0 0 1-.273-.09l-.179-.088.037-.37c.02-.202.057-.456.083-.563.098-.403.272-1.603.306-2.111.02-.29.07-.678.11-.861.041-.183.091-.496.111-.695.02-.198.072-.573.116-.833l.14-.861c.034-.214.095-.501.136-.639.04-.137.09-.4.108-.583.036-.345.074-.467.255-.817a.986.986 0 0 0 .106-.28c0-.085.315-.587.458-.73.054-.054.098-.122.098-.15 0-.03.062-.082.138-.117.077-.034.14-.096.14-.137 0-.041.026-.075.058-.075s.044-.024.026-.053c-.018-.029.023-.082.09-.118a1.46 1.46 0 0 0 .183-.114c.45-.365.639-.505.78-.577.092-.047.205-.106.251-.132a1.85 1.85 0 0 1 .26-.103c.144-.046.184-.041.21.027.018.047.032 4.074.03 8.95 0 6.692-.017 8.874-.066 8.904-.035.022-.93.038-1.989.035-2.083-.007-2.117-.002-2.159.292-.01.076-.067.231-.125.345a.977.977 0 0 0-.105.29c0 .118-.499 1.05-.59 1.104-.043.025-.077.072-.077.106s-.062.143-.139.244c-.076.1-.139.208-.139.24 0 .034-.023.06-.051.06-.058 0-.393.322-.394.38 0 .02-.117.137-.259.26-.142.121-.351.309-.465.416-.24.226-.376.323-.511.369-.054.018-.098.055-.098.082 0 .027-.062.049-.138.049-.077 0-.14.025-.14.055 0 .09-.154.064-.261-.044a1.689 1.689 0 0 0-.266-.201 2.198 2.198 0 0 1-.306-.232c-.278-.262-.544-.467-.604-.467-.034 0-.062-.033-.062-.074 0-.04-.063-.107-.14-.148-.076-.041-.138-.096-.138-.123 0-.026-.081-.13-.18-.23a4.397 4.397 0 0 1-.373-.457 3.54 3.54 0 0 0-.226-.301c-.089-.073-.61-1.229-.61-1.354a.984.984 0 0 0-.093-.338l-.094-.196-2.031-.015-2.032-.014-.014-9.018-.014-9.017.122.038a.58.58 0 0 1 .2.115.299.299 0 0 0 .182.076c.06 0 .108.02.108.042 0 .023.113.091.25.151s.25.128.25.15c0 .021.052.056.117.076a.99.99 0 0 1 .263.156c.272.221 1.007 1.008 1.008 1.078 0 .038.044.114.098.167.318.318.672 1.463.787 2.541.045.421.136.996.318 2 .044.245.117.782.162 1.195.045.412.105.812.133.889.027.076.066.314.085.528.02.213.085.629.146.922.062.294.104.64.094.77-.015.213-.04.249-.255.369-.13.073-.288.133-.35.133s-.248.127-.412.282c-.398.377-.51.704-.424 1.25.032.21.105.444.162.521.056.078.117.181.136.23.018.049.116.13.218.182.102.052.223.114.269.139.272.148.353.174.551.174.121 0 .236-.025.255-.056.018-.03.078-.055.131-.055.156 0 .36-.268.616-.806.13-.275.272-.566.315-.647a.675.675 0 0 0 .076-.219c0-.04.048-.173.106-.297a4.31 4.31 0 0 0 .175-.448c.038-.122.102-.272.144-.332a.558.558 0 0 0 .075-.27.99.99 0 0 1 .078-.334c.075-.17.18-.747.227-1.258.013-.138.065-.525.116-.862.067-.438.095-1.018.1-2.055.008-1.574-.083-3.793-.16-3.917-.125-.203.05-2.72.212-3.036.044-.087.1-.246.122-.353.051-.243.17-.479.348-.694.229-.276.422-.316.601-.124zm19.3 3.43a.762.762 0 0 1-.172.162c-.018.003-.538.504-1.155 1.115-.616.611-1.14 1.111-1.165 1.111-.025 0-.078.063-.12.14-.04.076-.09.138-.109.138-.06 0-2.446 2.383-2.446 2.443a.057.057 0 0 1-.056.057c-.032 0-.43.369-.884.82-.455.45-1.016.994-1.247 1.208l-.42.389-.002 2.014c-.002 1.731.01 2.014.08 2.014.082 0 .53-.431.53-.512 0-.024.05-.044.11-.044.061 0 .111-.026.111-.057 0-.072.319-.387.391-.387.03 0 .054-.02.054-.045 0-.068.596-.678.663-.678.032 0 .06-.024.06-.055 0-.067.772-.834.84-.834.026 0 .048-.023.048-.051 0-.068 2.102-2.17 2.17-2.17a.051.051 0 0 0 .052-.05c0-.075.585-.673.658-.673.036 0 .064-.023.064-.051 0-.057.321-.392.38-.396.02-.001.112-.1.204-.22.091-.12.198-.218.236-.22.038 0 .07-.028.07-.06 0-.066.315-.386.38-.386.025 0 .078-.063.12-.14.04-.076.107-.138.148-.138.04 0 .073-.038.073-.083 0-.046.034-.084.074-.084.041 0 .108-.062.149-.139.04-.076.107-.139.147-.139.04 0 .123-.104.185-.232.124-.257.142-.379.056-.379-.037 0-.055-.579-.052-1.68.006-1.978.008-1.876-.045-1.872-.023.002-.104.076-.18.163zm-26.014.271c-.091.093-.097.402-.097 4.905 0 4.72.002 4.808.11 4.906.08.072.13.083.18.041a.79.79 0 0 1 .274-.096c.178-.033.214-.069.3-.297.054-.142.113-.27.13-.286.019-.015.082-.115.14-.222.151-.276.522-.635.782-.759.258-.122.252-.067.118-1.075l-.155-1.166a35.74 35.74 0 0 0-.242-1.64 19.25 19.25 0 0 1-.136-.944c-.24-2.22-.26-2.32-.55-2.791-.08-.13-.165-.236-.187-.236-.023 0-.042-.038-.042-.084a.082.082 0 0 0-.08-.083c-.045 0-.148-.063-.23-.139-.176-.162-.187-.163-.315-.034zm12.199.437c-.284.266-.518.616-.518.773 0 .068-.02.136-.046.151-.025.015-.09.373-.145.795-.054.422-.12.82-.145.886-.025.065-.086.465-.136.889-.05.423-.127.936-.17 1.139a4.51 4.51 0 0 0-.08.788c0 .23-.028.49-.061.575a5.182 5.182 0 0 0-.144.684l-.113.714a.606.606 0 0 0 .047.333c.078.151.48.564.55.564.021 0 .098.108.171.24.073.13.195.336.271.455.077.12.165.307.197.415.042.146.092.201.193.215.168.024.483-.138.508-.261.01-.05.013-2.223.005-4.827-.012-3.883-.028-4.737-.088-4.737-.04 0-.174.094-.296.209zm-17.942.252a1.33 1.33 0 0 1-.18.149c-.065.045-.119.114-.119.153a.07.07 0 0 1-.072.07c-.04 0-.147.1-.236.222-.09.121-.195.221-.233.222-.039 0-.07.026-.07.057 0 .06-1.218 1.278-1.279 1.278-.02 0-.065.062-.1.138-.034.077-.1.14-.147.14-.047 0-.085.021-.085.048 0 .065-.773.84-.837.84-.029 0-.052.025-.052.056 0 .03-.15.205-.333.389-.183.183-.334.358-.334.389 0 .03-.022.055-.049.055-.065 0-.84.773-.84.838 0 .028-.037.051-.083.051-.046 0-.083.021-.083.047 0 .066-1.046 1.12-1.112 1.12-.03 0-.055.021-.055.048 0 .026-.312.363-.694.747l-.695.7v1.975c0 1.937.003 1.974.112 1.974.06 0 .11-.024.11-.053 0-.03.313-.37.695-.756.382-.386.695-.724.695-.752 0-.027.05-.05.11-.05.062 0 .112-.025.112-.055 0-.076 1.031-1.112 1.106-1.112.033 0 .06-.022.06-.049 0-.038.669-.73 1.16-1.2.032-.031.296-.3.586-.598s.553-.542.585-.542c.032 0 .058-.024.058-.054 0-.073 1.035-1.112 1.109-1.112.032 0 .058-.023.058-.051 0-.085 1.049-1.116 1.134-1.116.165 0 .206-.527.189-2.412-.011-1.156-.038-1.835-.073-1.845-.03-.009-.084.014-.118.051zm45.312 3.533v.438l-.36.039c-.198.02-.373.058-.388.083-.016.025-.12.062-.231.083-.511.096-1.285.722-1.515 1.225l-.179.388c-.151.324-.152 1.796 0 1.997.024.032.077.146.118.253.097.251.437.685.706.899.334.267.669.412 1.278.553l.567.132.016.416.016.417.542.016.541.016v-.42c0-.29.022-.427.07-.44.038-.012.307-.075.597-.141 1.163-.265 1.815-.858 2.112-1.92.2-.714.106-1.54-.256-2.25-.113-.222-.754-.889-.855-.889-.037 0-.13-.05-.208-.11a.512.512 0 0 0-.241-.112.838.838 0 0 1-.257-.067 3.047 3.047 0 0 0-.545-.125l-.389-.058-.016-.43-.016-.431H53v.438zm29.361-.266c-.183.026-.47.114-.637.196-.32.155-.946.708-.946.835 0 .041-.02.075-.044.075-.063 0-.31.519-.464.972-.12.356-.13.479-.129 1.444.002.99.011 1.082.147 1.473.17.494.383.944.446.944.024 0 .044.035.044.078 0 .09.76.81.854.811.035 0 .138.04.23.089.318.168 1.731.194 1.932.035a1.26 1.26 0 0 1 .283-.123c.266-.086.907-.708 1.082-1.049.133-.26.286-.787.286-.986 0-.13.018-.125-.841-.22l-.314-.035-.038.277c-.047.346-.31.757-.625.977-.272.19-.686.25-1.055.15-.289-.077-.676-.452-.816-.788a6.083 6.083 0 0 0-.152-.343c-.11-.21-.171-1.291-.111-1.948.032-.353.08-.686.107-.741.359-.738.447-.849.845-1.064.232-.126.77-.098 1.028.053.365.214.641.626.752 1.123l.068.301.367-.026c.203-.014.465-.05.582-.08l.214-.054-.039-.26a2.726 2.726 0 0 0-.722-1.427c-.44-.439-.8-.62-1.376-.693-.502-.063-.487-.063-.957.004zm-24.194 3.524v3.474l.625-.015.625-.016.014-3.458.015-3.459h-1.279v3.474zm2.736-.015l.014 3.458h1.278l.015-1.514.014-1.514h2.552l.015 1.514.015 1.514.623.016c.61.015.625.012.655-.112.017-.07.024-1.626.015-3.46l-.015-3.333-.653-.016-.653-.015v2.837h-2.555v-2.834h-1.335l.015 3.459zm8.153-3.368c0 .087-.214.789-.363 1.187-.079.213-.21.61-.332 1-.136.439-.257.8-.335 1a4.45 4.45 0 0 0-.14.444 1.381 1.381 0 0 1-.105.306c-.023.03-.073.18-.11.333a1.43 1.43 0 0 1-.113.333.838.838 0 0 0-.085.25c-.022.108-.072.27-.11.362-.141.333-.519 1.555-.493 1.597.014.023.256.041.536.04h.511l.237-.735c.13-.405.236-.764.236-.8-.001-.115.165-.13 1.448-.13 1.198 0 1.273.006 1.273.102 0 .056.02.12.042.143.023.022.142.345.265.717l.223.677.66.016.659.015-.037-.23a2.203 2.203 0 0 0-.14-.46 2.514 2.514 0 0 1-.144-.424.843.843 0 0 0-.085-.251 1.434 1.434 0 0 1-.113-.334 1.496 1.496 0 0 0-.111-.333 1.5 1.5 0 0 1-.111-.333 1.496 1.496 0 0 0-.111-.334 1.5 1.5 0 0 1-.111-.333 1.527 1.527 0 0 0-.11-.332 1.924 1.924 0 0 1-.128-.362c-.14-.504-.482-1.516-.567-1.685a.73.73 0 0 1-.08-.232.847.847 0 0 0-.065-.232 3.086 3.086 0 0 1-.072-.184 8.458 8.458 0 0 0-.196-.583 3.103 3.103 0 0 1-.077-.209c-.028-.086-.119-.097-.839-.097-.709 0-.807.011-.807.09zm4.736 3.368l.014 3.458h1.278l.015-1.514.014-1.514h2.554v3.06l.653-.016.653-.016.014-3.458.014-3.459h-1.334v2.834h-2.556v-2.834h-1.334l.015 3.459zm12.653.013v3.473h1.222v-6.945h-1.222v3.472zm2.722-.002v3.478l1.792-.019c1.955-.02 2.127-.042 2.571-.334a1.9 1.9 0 0 0 .83-1.54c.006-.777-.525-1.504-1.22-1.667l-.167-.04.253-.116c.31-.143.638-.453.742-.701.043-.102.108-.322.145-.489.061-.273.055-.346-.06-.734-.103-.347-.181-.49-.398-.727-.165-.18-.35-.322-.476-.362a1.174 1.174 0 0 1-.284-.129c-.053-.042-.664-.068-1.903-.08l-1.825-.017v3.477zm3-2.41c.362.079.603.294.672.605.105.463-.085.92-.461 1.117-.18.093-.325.107-1.098.107h-.89v-.907c0-.5.016-.924.036-.945.06-.06 1.435-.042 1.74.024zm-22.221.78c.04.164.093.337.118.382.057.102.659 1.933.659 2.005 0 .03-.419.051-.976.051h-.976l.037-.125c.13-.434.776-2.378.839-2.522a.922.922 0 0 0 .076-.278c0-.165.14.139.223.486zM53 20.19v1.912l-.152-.048-.375-.12c-.133-.044-.345-.196-.53-.382-.264-.263-.324-.363-.41-.684-.118-.435-.1-1.052.045-1.516.156-.496.774-.975 1.38-1.069.024-.003.042.855.042 1.907zm1.695-1.76c.342.139.653.415.835.743.159.287.165.324.162.993-.002.639-.014.717-.149.977-.08.155-.24.365-.355.466-.218.191-.68.421-.913.454l-.136.02-.014-1.834c-.008-1.008-.003-1.865.012-1.904.032-.081.215-.053.558.085zm-15.14-.014c0 .045-.027.083-.062.083-.07 0-.66.605-.66.677 0 .025-.023.045-.052.045-.068 0-.836.771-.836.839 0 .027-.031.051-.07.053-.038.001-.144.1-.236.22-.091.119-.184.218-.205.219-.037.003-2.156 2.107-2.156 2.142 0 .03-.34.36-.37.36-.047 0-.797.792-.797.842 0 .026-.024.047-.054.047s-.15.1-.264.223c-.115.122-.24.222-.279.222-.038 0-.07.02-.07.046 0 .025-.112.168-.25.318-.137.15-.25.292-.25.315 0 .024-.023.043-.053.043s-.138.081-.24.18c-.103.1-.235.22-.294.27a6.19 6.19 0 0 0-.398.413l-.292.325v5.564l-.252.152c-.139.084-.286.153-.327.153-.04 0-.105.037-.143.083a.281.281 0 0 1-.188.085.457.457 0 0 0-.226.083.42.42 0 0 1-.208.082c-.055 0-.1.025-.1.056 0 .03-.028.055-.061.055-.068 0-.325.109-.736.312-.148.073-.316.133-.372.133-.057 0-.124.03-.148.069-.045.07-.326.195-.558.248-.07.016-.125.05-.125.078 0 .027-.05.049-.111.049-.062 0-.112.022-.112.05 0 .026-.13.09-.291.142a2.36 2.36 0 0 0-.415.173.493.493 0 0 1-.202.08c-.043 0-.11.037-.147.083a.294.294 0 0 1-.201.083c-.073 0-.133.025-.133.056 0 .03-.045.055-.1.055a.42.42 0 0 0-.208.082.43.43 0 0 1-.206.083c-.055.001-.192.06-.306.133a1.91 1.91 0 0 1-.332.17c-.07.022-.125.063-.125.092 0 .028-.072.051-.16.051-.088 0-.191.038-.23.084a.246.246 0 0 1-.162.083.251.251 0 0 0-.146.048c-.029.026-.19.095-.358.152-.168.058-.318.12-.333.139-.035.042-.376.196-.542.244-.069.02-.125.059-.125.087 0 .029-.049.052-.108.052-.06 0-.226.063-.37.14-.143.075-.307.138-.363.138-.057 0-.103.019-.103.042 0 .044-.506.291-.597.291-.078 0-.396.166-.433.226-.018.029-.093.052-.168.052-.075 0-.136.025-.136.056 0 .03-.045.055-.1.055a.42.42 0 0 0-.208.082.426.426 0 0 1-.203.083.186.186 0 0 0-.139.072c-.095.15-.64.267-.71.152-.02-.03-.097-.055-.172-.055-.076 0-.152-.038-.17-.084-.017-.046-.063-.083-.1-.083-.039 0-.188-.063-.331-.139-.144-.076-.323-.139-.397-.139-.084 0-.136-.032-.136-.083 0-.056-.056-.084-.167-.084-.092 0-.167-.025-.167-.055s-.04-.056-.088-.056a.741.741 0 0 1-.25-.083l-.323-.167a.763.763 0 0 0-.278-.083c-.064 0-.116-.019-.117-.042 0-.051-.318-.236-.406-.236-.057 0-.41-.154-.834-.366a.74.74 0 0 0-.236-.078c-.043 0-.079-.025-.079-.055s-.069-.07-.152-.09a3.189 3.189 0 0 1-.431-.163 18.35 18.35 0 0 0-.5-.217 4.31 4.31 0 0 1-.319-.145.446.446 0 0 0-.173-.052c-.043 0-.109-.038-.147-.084a.285.285 0 0 0-.194-.083.285.285 0 0 1-.195-.083c-.038-.046-.101-.084-.14-.084-.071 0-.163-.04-.862-.38-.2-.096-.403-.175-.452-.175a.24.24 0 0 1-.157-.084.254.254 0 0 0-.17-.083c-.056 0-.115-.023-.133-.051-.017-.029-.106-.068-.198-.088-.09-.02-.166-.06-.166-.088 0-.028-.048-.05-.106-.05-.114 0-.465-.168-.495-.237-.01-.023-.08-.042-.153-.042-.074 0-.134-.025-.134-.055s-.044-.056-.098-.056c-.053 0-.244-.076-.424-.167-.18-.091-.384-.166-.453-.166-.068 0-.14-.038-.157-.083-.017-.046-.092-.084-.165-.084a.297.297 0 0 1-.204-.083c-.038-.046-.102-.083-.143-.083-.041 0-.187-.063-.324-.14-.136-.076-.288-.138-.336-.138-.092 0-1.308 1.191-1.308 1.281a.052.052 0 0 1-.05.052c-.068 0-.394.327-.394.393 0 .029-.033.052-.074.052-.04 0-.107.062-.148.139-.041.076-.108.138-.149.138-.04 0-.074.038-.074.084 0 .046-.033.083-.074.083-.04 0-.103.063-.138.139-.034.076-.095.14-.134.141-.038.002-.145.1-.237.22-.091.12-.187.218-.211.22-.057.003-.372.345-.372.404 0 .023-.038.043-.083.043-.046 0-.084.022-.084.048 0 .027-.212.261-.472.52-.26.26-.472.501-.472.536 0 .034-.05.062-.111.062-.062 0-.112.026-.112.057 0 .031-.087.142-.194.245-.107.104-.194.215-.194.246 0 .03-.05.072-.109.09a.247.247 0 0 0-.142.143c-.02.06-.068.108-.108.108-.04 0-.114.063-.164.14-.05.076-.128.138-.173.138a.083.083 0 0 0-.082.083c0 .046-.025.084-.056.084-.03 0-.055.023-.055.051 0 .067-.327.393-.395.393-.028 0-.08.056-.112.125-.033.069-.168.213-.3.32-.13.107-.27.25-.308.32-.04.068-.105.124-.146.124-.041 0-.103.062-.138.138-.034.076-.107.152-.162.17a.238.238 0 0 0-.135.14c-.019.059-.057.108-.086.108-.028 0-.052.075-.052.166V40h39.667V29.892c0-6.678.019-10.12.056-10.142.077-.048.07-.306-.009-.306-.045 0-.054-.124-.03-.434.018-.239.02-.489.002-.555-.036-.138-.13-.165-.13-.038zM7.64 19.628a.558.558 0 0 0-.154.133c-.095.148-1.036 1.072-1.092 1.072-.032 0-.06.026-.06.056 0 .074-3.426 3.5-3.499 3.5-.03 0-.056.023-.056.05 0 .07-1.04 1.117-1.11 1.117-.031 0-.056.021-.056.048 0 .067-1.043 1.118-1.11 1.118-.029 0-.082.055-.118.12a1.298 1.298 0 0 1-.225.268l-.16.146.015 2.074.014 2.074.318-.313c.175-.172.342-.313.37-.313.029 0 .039-.05.023-.111-.032-.12.067-.157.114-.042.015.038.03.013.032-.056.002-.068.03-.125.06-.125.07 0 .555-.488.555-.558 0-.03.024-.053.053-.053.09 0 .336-.258.336-.353 0-.05.038-.091.085-.091.046 0 .295-.213.553-.472.257-.26.494-.473.526-.473.032 0 .058-.028.058-.062 0-.075 1.039-1.104 1.114-1.104.03 0 .053-.05.053-.11 0-.074.027-.099.083-.077.046.018.084.002.084-.036 0-.082 1.096-1.163 1.137-1.121.016.016.03.002.03-.031 0-.034.218-.274.486-.536.567-.554.543-.53 1.156-1.159.261-.267.496-.486.522-.486.026 0 .034-.05.018-.11-.016-.063-.001-.112.033-.112.067 0 .094-3.686.029-3.857-.04-.102-.067-.104-.217-.015zm84.777 1.083c.404.145.64.47.64.88 0 .383-.158.674-.468.858-.213.126-.286.135-1.213.153l-.986.018v-2.009h.875c.7 0 .93.02 1.152.1zm-72.878.442c-.055.28-.19.76-.276.986l-.377 1c-.16.428-.313.786-.338.796-.026.01-.047.05-.047.087 0 .038-.05.172-.11.298-.183.378-.144.524.183.682.124.06.256.11.293.11.037 0 .081.037.099.082.017.046.066.084.107.084.042 0 .134.062.206.139.072.076.164.139.204.139.04 0 .074.037.074.083 0 .1.185.11.29.014.11-.102.28-.207.39-.244.054-.018.098-.055.098-.082 0-.027.036-.05.08-.05.074 0 .292-.125.628-.361a.294.294 0 0 0 .125-.25c0-.143-.196-.645-.28-.722a1.1 1.1 0 0 1-.11-.222 1.04 1.04 0 0 0-.15-.268.26.26 0 0 1-.071-.15.986.986 0 0 0-.077-.26c-.042-.1-.157-.445-.256-.766s-.199-.634-.223-.695a4.563 4.563 0 0 1-.107-.347c-.052-.192-.088-.236-.194-.236-.098 0-.138.038-.16.153zm5.96 2.428c-.086.047-.227.248-.36.512-.258.51-.888 1.185-1.107 1.185-.048 0-.086.025-.086.055s-.038.056-.085.056c-.047 0-.1.037-.117.083-.02.052-.105.084-.222.084a.757.757 0 0 0-.285.051 1.412 1.412 0 0 1-.2.084c-.093.03-.1.073-.07.407.02.206.05.59.07.855.033.48.033.48.2.514.308.061 2.81.038 2.85-.027.045-.072.034-3.742-.01-3.86-.04-.103-.387-.102-.578.001zm-12.207.086c-.176.073-.248.306-.214.694.016.183.03.99.032 1.792l.003 1.458H16v-.268c0-.148.018-.286.04-.308.06-.06.235-.766.237-.954 0-.094.029-.198.063-.232.082-.081.015-.182-.12-.182-.06 0-.108-.025-.108-.056 0-.03-.073-.055-.163-.055-.158 0-.513-.153-.55-.237-.01-.022-.057-.041-.104-.041-.046 0-.133-.063-.193-.14-.06-.076-.14-.138-.177-.138-.037 0-.095-.075-.13-.167-.034-.091-.102-.166-.15-.166-.05 0-.09-.029-.09-.064 0-.034-.074-.185-.166-.334-.091-.149-.167-.314-.167-.367-.002-.197-.094-.252-.452-.27-.194-.009-.41.007-.479.035zM7.6 25.8c-.054.04-.098.102-.098.137 0 .034-.022.063-.05.063-.028 0-.225.175-.438.389-.213.214-.415.389-.45.389-.034 0-.062.037-.062.083a.084.084 0 0 1-.083.083c-.046 0-.083.034-.083.075 0 .04-.19.26-.423.486-.583.569-.625.606-.688.606-.03 0-.056.036-.056.08 0 .043-.464.547-1.03 1.12-.568.573-1.056 1.087-1.086 1.143-.03.056-.077.102-.105.102-.027 0-.283.24-.567.532-.285.294-.55.562-.59.598a9.4 9.4 0 0 0-.305.309c-.128.135-.365.37-.525.525-.16.154-.292.312-.292.352 0 .04-.025.072-.056.072s-.181.118-.334.262l-.277.261.002 2.086.002 2.086.134-.153c.074-.084.161-.153.193-.153s.058-.032.058-.07c0-.04.055-.109.121-.154.067-.044.223-.19.348-.323a50.17 50.17 0 0 1 1.268-1.265c.167-.153.541-.594.541-.638 0-.028.025-.05.055-.05.066 0 .39-.33.39-.397 0-.026.05-.047.11-.047.062 0 .112-.037.112-.082 0-.044.05-.108.11-.14.062-.033.112-.096.112-.141 0-.045.027-.082.061-.082.071 0 .383-.321.383-.394a.05.05 0 0 1 .052-.05c.053 0 .38-.316.882-.852.162-.173.305-.315.318-.315.012 0 .154-.137.316-.306.704-.735 1.035-1.064 1.2-1.194.096-.076.176-.16.176-.184 0-.025.207-.247.46-.492l.457-.447.017-1.868c.01-1.027.003-1.924-.015-1.994-.035-.142-.122-.157-.265-.048zm10.181.281c-.187.436-.358 1.204-.31 1.393l.034.137h.825c.946 0 .918.017.845-.515-.038-.281-.206-.652-.296-.652-.024 0-.043-.027-.043-.062 0-.077-.338-.38-.425-.381-.035 0-.078-.039-.095-.084-.02-.053-.106-.084-.23-.084-.182 0-.207.02-.305.248zm3.59-.164c-.045.045-.118.083-.16.083-.124 0-.576.45-.706.702-.14.272-.197.57-.147.767l.035.142h.768c.74 0 .77-.004.827-.125.108-.223.115-.362.04-.76-.111-.58-.264-.893-.435-.893a.358.358 0 0 0-.222.084zm52.293 1.423c-.309.113-.387.606-.136.857.109.11.193.136.419.136.38 0 .555-.163.555-.52 0-.208-.027-.27-.17-.391-.18-.152-.404-.18-.668-.082zm1.63.034c-.187.148-.259.464-.16.698.061.149.124.2.293.243.609.153 1.034-.383.662-.837-.169-.207-.597-.263-.796-.104zM17.53 28.609c-.061.068-.07.136-.036.255.058.202.574 1.212.631 1.238.023.01.042.054.042.097 0 .043.023.079.052.079.028 0 .069.053.09.118.02.064.121.2.225.3.104.101.19.204.19.23.003.08.279.252.357.222.136-.052.186-2.23.06-2.547-.034-.08-.135-.092-.783-.089-.62.004-.758.02-.828.097zm2.848.292c-.04.208-.012 2.239.032 2.31.066.106.185.078.303-.072.06-.076.137-.139.17-.139.034 0 .063-.019.064-.042 0-.023.108-.159.238-.303s.323-.427.428-.63c.104-.202.21-.38.233-.394.024-.015.043-.096.043-.181 0-.086.051-.201.114-.258a.29.29 0 0 0 .097-.245l-.016-.141-.841-.016c-.836-.015-.841-.014-.866.111zm29.233.286c0 .01.55 1.116 1.22 2.456l1.221 2.435-.12.253c-.14.291-.364.558-.47.558-.04 0-.073.024-.073.053 0 .03-.206.06-.458.07l-.458.016-.017.495c-.009.278.008.51.038.529.03.018.317.017.639-.003.433-.027.65-.068.837-.159.276-.133.6-.474.745-.779.05-.107.122-.227.16-.268.039-.04.07-.098.07-.128s.052-.172.117-.315c.223-.498.265-.597.43-1.02.092-.234.216-.534.275-.666.06-.133.172-.405.25-.604.08-.2.182-.437.23-.528a.762.762 0 0 0 .086-.26c0-.05.025-.108.054-.126.03-.018.096-.17.15-.337.052-.167.115-.303.14-.303.025 0 .046-.038.046-.084 0-.047.047-.19.105-.32.305-.678.395-.892.395-.938 0-.029-.263-.044-.598-.035l-.597.015-.34.862c-.187.473-.381.943-.43 1.043a.912.912 0 0 0-.091.25.683.683 0 0 1-.078.215c-.042.081-.107.24-.144.353a2.886 2.886 0 0 1-.145.352.684.684 0 0 0-.077.217c0 .16-.122.05-.242-.224-.231-.521-.507-1.067-.55-1.086-.023-.01-.042-.046-.042-.08s-.206-.482-.458-.996l-.457-.933h-.681c-.375 0-.681.009-.681.02zm6.195 3.424c0 1.895.012 3.445.028 3.447l.625.013.597.012V34.35l.626-.824c.345-.453.651-.831.681-.841.046-.016.248.358.248.457 0 .017.049.136.108.266.058.129.124.303.144.386.021.083.06.15.088.15.027 0 .05.027.05.059 0 .07.335.945.392 1.025.022.03.122.268.223.528.1.26.188.48.196.49.03.044 1.41.02 1.404-.025-.015-.1-.255-.694-.498-1.229a1.239 1.239 0 0 1-.107-.32c0-.045-.02-.083-.046-.083s-.079-.106-.117-.236a1.423 1.423 0 0 0-.113-.292 1.39 1.39 0 0 1-.112-.278 1.42 1.42 0 0 0-.112-.277 4.7 4.7 0 0 1-.212-.481 29.162 29.162 0 0 0-.48-1.142l-.1-.233.41-.562c.226-.31.435-.605.466-.658a1.39 1.39 0 0 1 .127-.177c.076-.085.517-.699.588-.817.032-.054-.1-.07-.594-.07h-.636l-.177.237a69.627 69.627 0 0 0-1.253 1.708 4.304 4.304 0 0 1-.25.339c-.1.112-.163.199-.555.768-.168.245-.325.446-.347.447-.023 0-.042-.786-.042-1.748v-1.75h-1.25v3.444zm6.374 0l.015 3.45.597.011.597.011v-1.34c0-1.173.011-1.346.088-1.376.048-.018.522-.034 1.053-.034.53 0 1.092-.027 1.247-.06a2.063 2.063 0 0 0 1.017-.577c.327-.33.356-.373.434-.647.038-.134.09-.267.115-.296.026-.03.046-.241.046-.471 0-.89-.496-1.643-1.281-1.949-.351-.136-.39-.139-2.15-.155l-1.792-.017.014 3.45zm7.265-3.344a.266.266 0 0 1-.048.152c-.026.03-.08.178-.12.331-.04.153-.09.303-.112.333a.938.938 0 0 0-.08.25 2.5 2.5 0 0 1-.111.361c-.04.092-.314.917-.61 1.834-.297.916-.56 1.716-.587 1.778-.146.345-.571 1.696-.543 1.724.02.02.253.038.52.041.376.006.497-.011.53-.073.044-.086.172-.467.297-.887.04-.137.115-.344.165-.46l.09-.209 1.313.015 1.312.015.106.306c.058.168.141.43.185.583.07.247.12.38.24.629.046.093 1.298.112 1.33.02.01-.033-.018-.143-.063-.244a3.809 3.809 0 0 1-.148-.405 3.77 3.77 0 0 0-.143-.397.889.889 0 0 1-.079-.267c0-.05-.047-.197-.105-.325a2.54 2.54 0 0 1-.145-.428.844.844 0 0 0-.085-.25 1.434 1.434 0 0 1-.113-.334 1.538 1.538 0 0 0-.11-.332 1.388 1.388 0 0 1-.105-.306 2.847 2.847 0 0 0-.114-.36 65.523 65.523 0 0 1-.564-1.654l-.513-1.541h-.795c-.729 0-.795.008-.795.1zm4.736 3.358l.014 3.458h1.222l.014-3.458.015-3.458h-1.28l.014 3.458zm2.764 0v3.458l.61.003.61.002.015-1.502.015-1.503 1.29-.015 1.291-.014.015 1.514.015 1.515.167-.008c.091-.005.385-.01.652-.014l.486-.005v-6.889H80.78l-.015 1.402-.015 1.403h-2.554l-.015-1.403-.015-1.402h-1.22v3.458zm6.624-.01l.015 3.45h1.222l.028-.356c.02-.268.061-.397.166-.527.077-.095.29-.387.473-.65.183-.261.586-.828.895-1.258.31-.43.71-1.03.89-1.332l.326-.55.014 2.346.015 2.345.61-.006.612-.007.013-3.452.013-3.451h-1.25v.35c0 .322-.018.378-.22.654a46.08 46.08 0 0 0-.347.482c-.231.329-.262.371-.62.854-.197.263-.428.588-.515.722-.087.134-.18.259-.206.278-.026.02-.102.123-.167.231-.065.109-.217.355-.336.549-.12.194-.25.414-.291.49-.063.119-.075-.217-.075-2.235v-2.375h-1.279l.014 3.448zm-18.043-2.278c.09.044.246.188.347.32.16.21.183.283.183.57 0 .33-.135.649-.34.806-.252.194-.588.248-1.444.232l-.855-.015-.015-.942c-.009-.519-.002-.978.015-1.021.042-.111 1.867-.068 2.109.05zM70.975 33c.042.107.091.25.11.32l.035.124h-.967c-.531 0-.982-.015-1-.033-.019-.019-.013-.075.013-.125s.165-.467.31-.925c.144-.458.306-.946.36-1.083.054-.138.116-.337.139-.443.104-.493.143-.437.542.794.21.647.417 1.264.458 1.371z" fill="#000"/></svg>