<svg width="96" height="71" viewBox="0 0 96 71" fill="none" xmlns="http://www.w3.org/2000/svg"><path fill-rule="evenodd" clip-rule="evenodd" d="M13.069 17.955S5.925 10.358 9.566 7.877c2.097-1.436 3.464.4 3.464.4s1.368-1.836 3.465-.4c3.648 2.481-3.426 10.078-3.426 10.078zm-.062-8.273c-.138-.2-.53-.614-.73-.768-.199-.153-1.013-.791-2.08-.069-.323.215-.477.476-.516.86-.007.07-.007.146-.007.223 0 1.675 1.82 4.401 3.395 6.283 1.551-1.874 3.341-4.585 3.341-6.26 0-.077 0-.154-.015-.23-.046-.392-.2-.653-.522-.876-1.06-.722-1.652-.276-2.013.008a4.86 4.86 0 0 0-.853.83z" fill="#010202"/><path clip-rule="evenodd" d="M1.578.811h23.044v23.044H1.578V.81z" stroke="#010202" stroke-width="1.25" stroke-miterlimit="10"/><path clip-rule="evenodd" d="M1.578 23.847h93.28v23.028H1.578V23.847zm0 23.051h63.608V69.81H1.578V46.898z" stroke="#010202" stroke-width="1.25" stroke-miterlimit="10"/><path d="M16.203 41.022h-1.659v-9.579h-2.657v9.571h-1.66v-11h5.976v11.008zm2.796-8.902c0-1.69 1.49-2.29 2.78-2.29 1.276 0 2.766.6 2.766 2.29v6.79c0 1.674-1.49 2.273-2.765 2.273-1.29 0-2.781-.6-2.781-2.274v-6.79zm3.887 0c0-.63-.6-.861-1.106-.861-.507 0-1.122.215-1.122.86v6.79c0 .63.615.86 1.122.86.507 0 1.106-.23 1.106-.86v-6.79zm4.178 8.901V30.014h3.042c1.398 0 2.427.86 2.427 2.166v1.352c0 .66-.337 1.245-.937 1.736.86.43 1.26 1.03 1.26 1.905v1.352c0 1.336-.876 2.489-2.52 2.489h-3.271v.007zm3.81-8.672c0-.46-.23-.921-.906-.921h-1.244v3.195h1.244c.676 0 .906-.476.906-.922V32.35zm.323 4.809c0-.584-.353-1.106-1.152-1.106h-1.321V39.6h1.32c.815 0 1.153-.507 1.153-1.09v-1.352zm9.079 3.863h-4.87V30.014h4.87v1.429h-3.21v3.18h2.657v1.429h-2.658v3.518h3.211v1.451zm2.581 0V30.014H45.7c1.75 0 2.872.953 2.872 2.72v1.351c0 1.752-1.121 2.704-2.873 2.704h-1.182v4.225h-1.66v.007zm4.056-8.288c0-.63-.353-1.29-1.213-1.29h-1.183v3.933h1.182c.86 0 1.214-.676 1.214-1.29v-1.353zm9.817 8.288h-1.66v-4.97h-2.657v4.963h-1.66v-11h1.66v4.609h2.658v-4.609h1.659v11.007zm7.343 0v-6.928l-2.78 6.928h-1.521V30.014h1.659v6.929l2.78-6.929h1.506v11h-1.644v.007zm8.341-3.848h1.66v1.736c0 1.675-1.491 2.274-2.766 2.274-1.29 0-2.78-.6-2.78-2.274v-6.79c0-1.69 1.49-2.289 2.78-2.289 1.275 0 2.765.6 2.765 2.29v1.735h-1.659v-1.736c0-.63-.6-.86-1.106-.86-.507 0-1.122.215-1.122.86v6.79c0 .63.615.86 1.122.86.507 0 1.106-.23 1.106-.86v-1.736zm10.063 1.121c0 1.783-1.122 2.72-2.873 2.72h-2.842v-11h1.659v4.21h1.183c1.751 0 2.873.937 2.873 2.719v1.352zm-2.873 1.276c.86 0 1.213-.646 1.213-1.276v-1.351c0-.507-.353-1.29-1.213-1.29H78.42v3.917h1.183zM18.876 64.052l-2.428-4.962h-.414v4.962h-1.66V59.09h-.399l-2.443 4.962H9.89v-.277l2.52-5.315-2.397-5.131v-.277h1.659l2.227 4.609h.476v-4.609h1.66v4.609h.491l2.212-4.609h1.66v.277l-2.366 5.13 2.504 5.316v.277h-1.66zm7.974-.002v-6.928l-2.781 6.928h-1.521V53.043h1.659v6.928l2.78-6.928h1.506v11H26.85v.007zm4.392 0V53.043h3.042c1.398 0 2.427.86 2.427 2.166v1.352c0 .66-.338 1.244-.937 1.736.86.43 1.26 1.03 1.26 1.905v1.352c0 1.336-.876 2.488-2.52 2.488h-3.272v.008zm3.81-8.672c0-.46-.23-.922-.906-.922H32.9v3.196h1.245c.676 0 .906-.477.906-.922v-1.352zm.323 4.816c0-.584-.354-1.106-1.153-1.106h-1.32v3.549h1.32c.815 0 1.153-.507 1.153-1.091v-1.352zm8.204 3.856v-6.928l-2.78 6.928h-1.522V53.043h1.66v6.928l2.78-6.928h1.506v11h-1.644v.007zm10.461 0v-7.512l-2.211 4.394-2.197-4.394v7.512h-1.66V53.043h1.521l2.336 4.7 2.35-4.7h1.49v11h-1.628v.007z" fill="#010202"/></svg>