<svg width="95" height="54" viewBox="0 0 95 54" fill="none" xmlns="http://www.w3.org/2000/svg"><path fill-rule="evenodd" clip-rule="evenodd" d="M42.577.036c-.204.024-.756.087-1.225.139-.47.052-.87.104-.888.116-.018.011-.252.05-.518.085-1.07.141-3.39.643-4.227.914-.173.056-.546.175-.829.263a6.429 6.429 0 0 0-.657.235.668.668 0 0 1-.207.075c-.035 0-.19.053-.343.118-.153.065-.33.14-.393.165-1 .414-1.35.755-1.535 1.492-.072.29-.094.652-.094 1.582 0 .664.022 1.221.049 1.238.027.016.316-.105.643-.27.327-.164.697-.34.823-.392.125-.051.485-.202.8-.334.669-.281 1.44-.564 2.2-.807.299-.095.585-.195.636-.222.051-.026.193-.066.314-.088a1.5 1.5 0 0 0 .316-.089c.086-.044 1.156-.334 2.02-.548a35.672 35.672 0 0 1 1.767-.39c.25-.046.545-.108.657-.137.113-.028.346-.068.52-.089.172-.02.39-.06.485-.087.356-.105 3.372-.479 4.63-.574 1.854-.14 2.346-.163 3.499-.165l1.213-.003.038-.152c.045-.178-.015-2.018-.067-2.07-.052-.052-9.191-.056-9.627-.005zm10.442 5.949c-.036 6.598-.116 9.2-.41 13.334a29.51 29.51 0 0 1-.115 1.343 13.48 13.48 0 0 0-.086.8c-.052.597-.104 1.006-.29 2.285a30.1 30.1 0 0 1-.543 2.829c-.295 1.147-.466 1.734-.569 1.951a.953.953 0 0 0-.085.235c0 .132-.533 1.251-.832 1.75-.284.472-1.031 1.409-1.541 1.93-.267.273-.485.51-.485.526 0 .038.956.8 1.357 1.082.165.116.34.21.389.21.24 0 1.53-.747 2.026-1.172.998-.858 1.813-1.87 2.637-3.277.655-1.12 1.445-3.14 1.678-4.292.022-.11.073-.316.113-.458.04-.141.105-.411.143-.6l.15-.742c.126-.622.305-1.709.395-2.4.045-.346.097-.689.114-.762.018-.073.07-.497.114-.943l.14-1.38c.118-1.17.172-1.905.345-4.629.108-1.703.267-6.98.314-10.415l.03-2.187-.158-.06C57.61.85 56.066.54 55.178.409a42.986 42.986 0 0 1-.857-.137 10.884 10.884 0 0 0-.806-.098l-.463-.038-.033 5.849zm5.538-3.87c-.018.537-.06 2.61-.092 4.605-.054 3.267-.094 4.357-.285 7.77a83.888 83.888 0 0 1-.234 3.172l-.14 1.478a24.12 24.12 0 0 1-.136 1.171c-.03.177-.07.477-.089.665-.037.375-.144 1.07-.32 2.086-.368 2.12-.852 3.873-1.507 5.456-.166.403-.741 1.542-.788 1.562-.025.01-.045.047-.045.081 0 .055-.466.84-.585.986-.026.031-.15.198-.275.371a26.2 26.2 0 0 1-.408.543c-.27.343-1.494 1.567-1.568 1.57-.035 0-.096.04-.135.086-.09.109-.922.647-1.27.822l-.27.136.126.098c.07.054.32.21.556.348.236.138.442.267.457.287.016.02.114.08.219.134l.19.097 1.038-.52a63.76 63.76 0 0 0 1.125-.572l.842-.483c.416-.237.965-.573 1.22-.746.256-.173.478-.314.493-.314.016 0 .153-.097.304-.215l.463-.357c1.07-.814 2.2-1.91 2.61-2.528.077-.118.164-.214.19-.214.028 0 .05-.026.05-.058s.084-.18.187-.329c.187-.271.526-.929.7-1.356.272-.668.68-2.053.78-2.652.029-.17.065-.33.081-.356.039-.062.23-1.17.337-1.946.046-.336.097-.67.114-.743.065-.284.271-2.597.4-4.474.177-2.61.33-8.647.305-12.027-.017-2.228-.02-2.26-.149-2.503-.226-.424-.504-.677-1.014-.924-.725-.35-2.367-.935-3.108-1.106l-.336-.078-.033.977zm-9.502.78c-.539.023-1.208.07-1.486.103a25.52 25.52 0 0 1-.992.096c-.267.019-.64.058-.828.086-.189.028-.588.077-.886.11a19.71 19.71 0 0 0-1.029.142c-.267.045-.666.112-.886.147-.688.11-1.348.24-2.743.54-.349.076-.857.2-1.371.338l-.515.135c-.207.053-.468.131-1.314.393l-.543.167c-.394.12-1.378.474-1.58.569a.945.945 0 0 1-.239.085c-.056 0-.628.243-1.382.588-.799.366-1.404.68-1.486.772-.074.083-.082.327-.057 1.735.016.9.047 1.656.069 1.678.035.035.153-.01.76-.288.214-.098.464-.198 1.857-.74 1.506-.586 1.556-.605 2.6-.975.504-.178.967-.346 1.03-.374.29-.13 3.463-1.148 4.6-1.477.204-.06.51-.149.678-.2.169-.05.342-.09.386-.09.043 0 .226-.048.407-.107.543-.175 1.556-.421 3.072-.748 1.35-.29 3.18-.547 4.33-.609l.728-.04v-.405c0-.223.017-.695.038-1.049l.037-.643-1.138.01a71.03 71.03 0 0 0-2.117.05zm-7.878 5.09c-1.05.302-3.535 1.108-3.93 1.275-.203.085-.213.102-.188.304.015.117.055.894.09 1.727.106 2.518.21 4.264.346 5.771.16 1.79.22 2.411.252 2.583.019.104.07.497.115.874.11.922.248 1.917.287 2.057.018.063.068.333.112.6.094.568.234 1.259.314 1.543.03.11.132.508.226.885.34 1.37.831 2.675 1.33 3.542.164.283.318.54.343.572.025.032.242.314.482.629.432.563 1.7 1.87 2.3 2.371.893.745 2.502 1.91 3.274 2.371.982.586 1.543.91 1.79 1.033.095.047.378.197.629.333.427.23.469.242.629.172.094-.04.448-.183.785-.316.338-.133.615-.269.615-.303 0-.034-.122-.134-.272-.222a30.1 30.1 0 0 1-.986-.61c-.46-.314-1.64-1.169-1.685-1.22a9.33 9.33 0 0 0-.515-.437c-.57-.462-1.47-1.37-1.954-1.972-.613-.762-1.245-1.864-1.536-2.678-.303-.848-.428-1.246-.54-1.722a27.12 27.12 0 0 0-.139-.543c-.084-.32-.236-1.03-.396-1.857a57.2 57.2 0 0 1-.379-2.6 49.606 49.606 0 0 1-.143-1.457 20.74 20.74 0 0 0-.11-1.086c-.015-.063-.067-.835-.115-1.714-.048-.88-.1-1.677-.115-1.77-.027-.166-.1-2.855-.178-6.5l-.037-1.757-.15.003a3.333 3.333 0 0 0-.551.12zm-5.172 1.707l-.515.187c-.047.017-.317.103-.6.19a6.269 6.269 0 0 0-.657.233.686.686 0 0 1-.2.075c-.032 0-.212.066-.4.146a8.85 8.85 0 0 1-.432.175c-.05.016-.384.176-.743.354l-.654.326.016 1.542c.027 2.53.267 6.57.5 8.427.046.362.097.799.115.972.059.587.381 2.443.546 3.142.194.826.543 1.999.663 2.229.04.078.075.181.076.228.001.047.04.136.086.197a.407.407 0 0 1 .084.184c0 .146.655 1.202 1.074 1.732.464.587 1.237 1.38 1.698 1.742.157.124.311.253.343.287.157.172 1.382 1.048 2.086 1.491l.457.289c.141.09.321.195.4.234.078.04.258.14.4.222a53.808 53.808 0 0 0 2.657 1.347c.22.096.555.245.743.33.32.146.806.343 1.772.719.418.163 1.552.572 1.804.651.105.033.275.002.6-.11.803-.277.783-.226.214-.54-1.053-.581-1.533-.855-1.56-.889a2.277 2.277 0 0 0-.289-.184 15.13 15.13 0 0 1-.94-.6 8.257 8.257 0 0 0-.315-.216c-1.838-1.223-3.732-2.966-4.75-4.372-.33-.456-.495-.7-.598-.885-.28-.506-.54-1.03-.597-1.212a1.379 1.379 0 0 0-.114-.274 1.148 1.148 0 0 1-.103-.257c-.032-.11-.122-.38-.199-.6-.216-.62-.335-1-.417-1.343-.38-1.58-.429-1.822-.735-3.657a35.431 35.431 0 0 1-.317-2.314 25.4 25.4 0 0 0-.112-.971 14.292 14.292 0 0 1-.087-.943c-.02-.33-.06-.754-.088-.942a25.27 25.27 0 0 1-.111-1.486 72.295 72.295 0 0 0-.117-1.8c-.03-.361-.082-1.44-.114-2.399-.033-.957-.078-1.757-.1-1.776-.023-.02-.235.035-.47.12zM24.946 40.656c-1.315.284-2.095 1.11-2.293 2.429-.1.668-.113 7.75-.016 8.494.097.736.34 1.25.788 1.66.352.324.598.46 1.139.635.332.107.518.124 1.41.126.928.002 1.07-.011 1.447-.132.853-.274 1.355-.69 1.688-1.397.374-.79.38-.888.378-5.274-.002-3.552-.012-3.985-.104-4.424-.26-1.24-.982-1.908-2.306-2.134-.687-.117-1.54-.11-2.131.017zM0 40.688c0 .042.302.814.51 1.308.066.153.12.308.12.343.002.035.052.167.113.293.06.125.111.247.112.27.002.039.404 1.11.52 1.387.026.063.111.281.188.485.078.205.233.61.346.9.113.29.206.547.207.571.002.024.052.146.113.272.06.126.111.257.112.293.002.058.161.46.292.735.03.063.079.192.108.286.03.094.154.438.277.763.223.59.223.593.139.886-.047.162-.105.32-.13.351a1.22 1.22 0 0 0-.103.257c-.082.276-.23.691-.295.829a4.76 4.76 0 0 0-.135.343c-.1.284-.386 1.069-.582 1.6-.082.22-.175.49-.208.6-.032.11-.084.231-.116.27a.176.176 0 0 0-.025.157c.028.072.18.087.912.087 1.005 0 .882.07 1.156-.657.083-.22.24-.632.35-.915.108-.282.245-.642.303-.8.058-.157.198-.523.31-.814.318-.814.603-1.556.718-1.871.058-.157.2-.53.315-.829l.317-.828.305-.8c.11-.283.315-.823.458-1.2.143-.377.366-.956.496-1.286.129-.33.26-.677.292-.771.032-.094.08-.223.108-.286.046-.106.185-.47.469-1.228.065-.173.153-.396.195-.496.043-.1.094-.26.113-.357l.035-.176h-.971c-.708 0-.988.02-1.031.072-.057.07-.24.551-.363.957-.034.11-.081.225-.106.257a1.096 1.096 0 0 0-.105.257c-.032.11-.126.38-.209.6-.082.22-.177.49-.21.6a1.1 1.1 0 0 1-.105.257 1.114 1.114 0 0 0-.106.257c-.072.242-.243.717-.409 1.143-.067.173-.208.546-.311.828-.32.873-.29.815-.363.678a7.27 7.27 0 0 1-.236-.626c-.095-.28-.239-.689-.32-.909-.08-.22-.22-.618-.312-.885a97.675 97.675 0 0 0-.648-1.829c-.05-.126-.19-.532-.39-1.128l-.178-.529H1.02c-.562 0-1.021.013-1.021.028zm64.39.01c-.049.048-.052 13.061-.004 13.185.03.078.172.09.994.09.822 0 .964-.012.994-.09.019-.05.034-2.698.034-5.885v-5.795h2.686l.001 5.814c0 3.197.022 5.847.047 5.887.036.055.278.069 1.014.057l.967-.016.015-6.642.014-6.643H67.79c-1.85 0-3.38.017-3.4.038zm-37.86 1.37c.347.131.656.467.79.856.107.311.112.503.112 4.4 0 3.986-.002 4.08-.118 4.376-.13.333-.32.56-.625.749-.162.1-.287.124-.661.124-.407 0-.49-.018-.696-.154a1.523 1.523 0 0 1-.63-.851c-.09-.28-.099-.662-.099-4.222 0-4.173.007-4.285.282-4.754.31-.53 1.03-.76 1.646-.524zm12.59.502c-.539.109-.962.341-1.29.708-.352.394-.548.854-.625 1.466-.078.616-.075 6.636.003 7.197.033.237.123.575.2.75.144.324.612.883.74.883.04 0 .1.035.136.077.035.043.263.138.507.212.38.116.562.135 1.3.135.754 0 .905-.017 1.257-.137.87-.298 1.287-.73 1.587-1.642.127-.385.128-.417.128-4.045 0-3.613-.002-3.661-.126-4.039a3.41 3.41 0 0 0-.264-.6c-.326-.518-.94-.89-1.636-.99-.507-.073-1.498-.06-1.918.024zm13.521-.02c-1.109.218-1.74.864-1.973 2.016-.136.675-.134 6.84.002 7.502.146.707.492 1.278.902 1.488.098.05.19.109.206.131.016.022.221.1.457.174.368.115.55.134 1.286.135.987.002 1.403-.095 1.946-.455.51-.34.756-.735.947-1.528.099-.411.107-.715.107-3.839 0-3.122-.008-3.428-.107-3.842a3.916 3.916 0 0 0-.226-.682c-.276-.54-.95-.984-1.677-1.102-.426-.069-1.513-.068-1.87.003zm28.37-.022c-.727.093-1.398.511-1.746 1.09-.418.696-.427.787-.427 4.727 0 3.73.004 3.784.294 4.406.246.53.673.878 1.364 1.112.356.12.498.136 1.286.132.753-.002.94-.022 1.254-.128.915-.31 1.41-.867 1.624-1.829.081-.365.094-.886.094-3.896 0-3.738-.014-3.94-.304-4.473-.314-.578-.953-.999-1.705-1.12-.344-.056-1.364-.069-1.735-.021zM8.8 48.23v5.684l.129.032c.07.018.463.025.871.016l.743-.017.029-2.848.028-2.848.21.42c.116.23.498 1.01.85 1.734.35.722.829 1.701 1.06 2.175.233.473.424.879.424.9 0 .023.064.143.143.268l.144.228h.913c1.013 0 1.018-.003.822-.372l-.506-.971c-.44-.85-.912-1.749-1.333-2.543-.785-1.477-1.101-2.148-1.07-2.27.017-.07.103-.25.191-.4.088-.15.298-.53.467-.844.168-.314.379-.694.467-.845.089-.15.162-.284.162-.296 0-.011.141-.266.314-.566a7.75 7.75 0 0 0 .314-.573c0-.016.08-.165.179-.331.236-.401.736-1.339.736-1.383 0-.019-.383-.034-.852-.034h-.85l-.145.271c-.08.15-.208.387-.287.529-.08.141-.235.437-.347.657-.112.22-.301.58-.421.8a173.325 173.325 0 0 0-1.422 2.652l-.163.31-.015-2.61-.014-2.61H8.8v5.685zm7.201.024v5.72h1.714v-4.956l1.13-.033c1.131-.034 1.729-.132 1.91-.313.038-.038.096-.07.128-.07.13 0 .488-.495.614-.852.127-.36.133-.446.133-1.976 0-1.54-.005-1.615-.137-1.996-.195-.565-.52-.882-1.094-1.063-.406-.128-.518-.136-2.412-.157l-1.986-.023v5.72zm14.573.014v5.721l1.843-.033c1.94-.036 2.448-.092 2.929-.325.714-.346 1-1.21 1-3.014 0-1.025-.138-2.014-.334-2.398a1.58 1.58 0 0 0-.841-.751c-.3-.114-1.13-.198-2.51-.252l-.344-.013v-3.314l1.53-.016 1.528-.015v-1.312h-4.8v5.722zm13.488-.014v5.72h1.714v-4.956l1.129-.032c1.15-.032 1.519-.096 1.975-.341.279-.15.522-.482.67-.914.137-.401.141-.462.141-1.985 0-1.524-.004-1.584-.14-1.972-.2-.568-.52-.878-1.091-1.059-.407-.128-.518-.136-2.412-.157l-1.986-.023v5.72zm13.444-.008l.015 5.7h1.657l.029-2.572.028-2.571 1.157-.016 1.157-.015.014 2.586.015 2.587.842.016c.834.016.841.014.873-.114.017-.072.024-2.638.015-5.702l-.015-5.57-.872-.016-.871-.016v4.917h-1.082c-.594 0-1.121-.016-1.171-.035-.08-.03-.09-.3-.09-2.457v-2.422h-1.716l.015 5.7zm14.802-.006l.014 5.705.843.016.843.016v-4.96l1.129-.032c1.81-.051 2.304-.273 2.65-1.192.175-.465.257-1.781.178-2.867-.08-1.088-.174-1.39-.556-1.782-.238-.244-.358-.316-.715-.428-.409-.13-.517-.137-2.414-.158l-1.987-.023.015 5.705zm13.43.005l.015 5.7h1.486l.028-5.106c.031-5.595.01-5.315.287-3.836.222 1.19.336 1.78.571 2.971.065.33.154.806.197 1.057.043.252.105.573.136.714.032.142.113.553.18.915.068.361.157.824.2 1.028.042.204.145.757.229 1.229.084.471.172.895.197.942.035.068.196.09.781.102.847.02.994-.003.994-.154 0-.059.052-.386.115-.727.192-1.036.439-2.438.627-3.563.066-.393.156-.907.2-1.143.043-.236.133-.75.2-1.143.158-.933.33-1.892.41-2.285.034-.173.083-.478.108-.678.025-.2.073-.392.107-.426.044-.044.062 1.379.062 5.037v5.098l.786-.016.785-.016.015-5.7.015-5.701-1.356.015-1.356.016-.045.257c-.103.58-.28 1.54-.359 1.942-.046.236-.136.724-.2 1.086-.065.361-.154.837-.2 1.057-.044.22-.124.644-.176.943a125.977 125.977 0 0 1-.453 2.457c-.043.204-.095.48-.115.614-.047.305-.124.266-.171-.087a46.959 46.959 0 0 0-.344-1.899 53.789 53.789 0 0 1-.146-.771c-.033-.188-.108-.6-.166-.914l-.23-1.257-.2-1.086c-.041-.22-.116-.644-.167-.943a9.848 9.848 0 0 0-.144-.714 3.737 3.737 0 0 1-.087-.443l-.037-.271h-2.793l.014 5.7zm-45.216-4.491c.313.093.595.414.705.8.08.281.091.774.091 3.743 0 3.69.005 3.63-.305 4.088-.215.319-.946.5-1.362.337-.229-.089-.494-.37-.615-.655-.115-.267-.118-.37-.118-3.796 0-3.798-.003-3.756.304-4.202.22-.32.81-.462 1.3-.315zM54 43.772c.293.103.417.218.588.545l.134.257v7.38l-.171.277c-.23.372-.554.543-1.027.543-.465 0-.797-.2-1.002-.605l-.143-.28v-7.316l.131-.245c.072-.135.183-.297.248-.362.259-.259.815-.346 1.242-.195zm28.356.045c.28.142.481.4.572.735.037.142.052 1.49.042 3.834l-.016 3.616-.154.237c-.265.408-.459.506-.999.506-.516 0-.64-.057-.94-.432-.254-.316-.278-.657-.277-4.025 0-3.128.032-3.723.214-4.048.285-.512.998-.705 1.558-.423zm-62.857.177c.352.174.412.399.436 1.65.032 1.665-.072 1.892-.908 1.988-.548.063-1.086.073-1.22.022-.079-.031-.09-.254-.09-1.92V43.85l.786.021c.612.016.833.044.996.124zm27.926-.046c.253.075.315.123.425.329.122.228.129.303.129 1.497 0 1.336-.02 1.448-.302 1.702-.131.12-.946.228-1.51.2l-.36-.016-.015-1.9-.015-1.9h.676c.442 0 .779.03.972.088zm28.386.055c.358.18.433.479.433 1.745 0 1.597-.095 1.789-.924 1.884-.548.063-1.086.073-1.22.022-.08-.03-.09-.254-.09-1.919v-1.884l.786.019c.646.015.826.039 1.014.133zm-41.553 4.799a.944.944 0 0 1 .245.414c.025.118.044.768.043 1.444-.002 1.333-.03 1.48-.347 1.777-.137.129-.18.135-1.011.136h-.869l-.015-1.985-.015-1.985h1.77l.199.199z" fill="#000"/></svg>