<svg width="135" height="42" viewBox="0 0 135 42" fill="none" xmlns="http://www.w3.org/2000/svg"><path fill-rule="evenodd" clip-rule="evenodd" d="M0 .274C0 .46.036.547.113.547c.081 0 .13.136.167.47.036.32.087.469.16.469.069 0 .108.092.109.254.001.372.08.606.203.606.08 0 .108.122.108.47 0 .417.018.469.157.469.137 0 .156.052.156.42 0 .356.025.428.157.463.132.035.156.107.156.478 0 .32.03.438.108.438.107 0 .205.322.205.674 0 .113.046.186.117.186.065 0 .118.07.118.157 0 .151.052.156 1.681.156h1.682l-.001 14.567c-.001 8.012-.022 14.642-.046 14.734-.043.16-.103.17-1.524.224-1.153.045-1.48.08-1.48.162 0 .072-.138.111-.45.127l-.45.024v5.318l8.194.02 8.192.02v-5.398h-.586c-.447 0-.587-.025-.587-.107 0-.088-.347-.12-1.799-.166l-1.798-.057V6.257h3.353c1.844 0 3.463.022 3.598.049.134.027.244.097.244.156 0 .082.141.108.587.108.445 0 .586.026.586.107 0 .108.322.206.675.206.108 0 .186.046.186.11 0 .068.12.131.312.163.181.031.313.097.313.157s.132.126.313.156c.177.03.313.097.313.154 0 .056.07.12.156.143.086.022.157.097.157.165 0 .073.065.125.156.125.086 0 .157.049.157.108 0 .06.07.127.156.15.086.022.156.096.156.165 0 .068.053.124.118.124s.117.07.117.157c0 .104.052.156.157.156.1 0 .156.052.156.147 0 .082.07.166.156.189.12.031.157.106.157.322 0 .187.036.28.108.28.063 0 .131.118.16.275.031.163.097.273.165.273.081 0 .114.092.114.32 0 .255.032.329.157.362.144.037.156.106.156.892 0 .668.023.85.107.85.073 0 .124.148.159.456.069.605-.019 1.344-.16 1.344-.083 0-.106.185-.106.85 0 .786-.012.855-.156.893-.133.035-.157.107-.157.478 0 .386-.018.438-.156.438-.13 0-.157.052-.157.313 0 .226-.032.313-.117.313-.065 0-.117.07-.117.156 0 .104-.052.157-.157.157-.126 0-.156.052-.156.273 0 .222-.03.274-.156.274-.105 0-.157.052-.157.156 0 .105-.052.157-.156.157-.105 0-.157.052-.157.156 0 .105-.052.157-.156.157-.104 0-.157.052-.157.156 0 .104-.052.156-.156.156-.086 0-.157.052-.157.114 0 .068-.11.135-.273.165-.157.03-.274.098-.274.16 0 .06-.07.109-.156.109-.105 0-.157.052-.157.156 0 .13-.052.157-.313.157-.214 0-.313.034-.313.108 0 .123-.234.202-.606.204-.163 0-.254.04-.254.108 0 .135-.341.206-.987.206-.368 0-.499.027-.499.106 0 .112-.613.206-1.341.206-.285 0-.38.03-.38.118 0 .084-.086.117-.312.117h-.313v.313c0 .226.032.313.117.313.077 0 .117.077.117.225 0 .388.094.713.206.713.078 0 .107.118.107.43 0 .378.02.43.157.43.139 0 .156.053.156.47 0 .347.028.47.108.47.134 0 .202.24.204.713 0 .297.03.37.157.404.133.035.157.107.157.478 0 .329.028.438.112.438.074 0 .121.101.137.293.02.236.06.298.2.318.097.014.176.076.176.137 0 .062.053.112.118.112.064 0 .117-.048.117-.106 0-.105.604-.207 1.224-.207.18 0 .262-.036.262-.117 0-.086.09-.118.333-.118.632-.001 1.153-.094 1.153-.206 0-.08.144-.106.587-.106.534 0 .586-.014.586-.157 0-.139.053-.156.47-.156.346 0 .469-.028.469-.108 0-.107.322-.205.675-.205.105 0 .185-.046.185-.108 0-.107.322-.205.675-.205.108 0 .186-.046.186-.11 0-.068.12-.131.313-.164.192-.032.312-.095.312-.163 0-.06.068-.11.15-.11.233 0 .398-.085.398-.204 0-.064.08-.11.195-.11.12 0 .196-.044.196-.113 0-.067.108-.134.266-.164.17-.032.281-.104.306-.199.021-.082.095-.149.163-.149.07 0 .125-.049.125-.109 0-.062.117-.13.274-.16.164-.03.274-.097.274-.165 0-.062.07-.113.156-.113.104 0 .157-.053.157-.157 0-.104.052-.156.156-.156.104 0 .156-.052.156-.157 0-.104.052-.156.157-.156.104 0 .156-.052.156-.157 0-.104.052-.156.157-.156.104 0 .156-.052.156-.156 0-.105.052-.157.156-.157.105 0 .157-.052.157-.156 0-.086.05-.157.111-.157s.134-.102.16-.226c.03-.132.114-.244.203-.267a.208.208 0 0 0 .152-.203c0-.094.05-.164.117-.164.065 0 .117-.07.117-.156 0-.105.052-.157.157-.157.126 0 .156-.052.156-.274 0-.221.03-.273.157-.273.13 0 .156-.052.156-.313 0-.225.033-.313.116-.313.076 0 .134-.11.167-.313.03-.184.093-.313.154-.313.067 0 .124-.142.157-.39.034-.255.09-.392.16-.392s.107-.097.107-.293c.002-.409.077-.645.204-.645.083 0 .108-.146.108-.626 0-.495.024-.626.114-.626.187 0 .208-.374.184-3.153-.022-2.424-.036-2.652-.161-2.722-.111-.062-.137-.186-.137-.66 0-.442-.026-.582-.107-.582-.112 0-.206-.325-.206-.714 0-.148-.04-.225-.117-.225-.071 0-.117-.072-.117-.185 0-.343-.097-.675-.197-.675-.054 0-.122-.123-.15-.274-.03-.164-.097-.273-.165-.273-.08 0-.114-.092-.114-.313 0-.261-.026-.313-.157-.313-.126 0-.156-.052-.156-.274 0-.221-.03-.274-.156-.274-.105 0-.157-.052-.157-.156 0-.091-.052-.156-.124-.156-.069 0-.143-.07-.166-.157-.022-.086-.086-.156-.14-.156-.055 0-.123-.124-.151-.274-.033-.173-.096-.274-.173-.274-.066 0-.14-.07-.162-.156-.022-.086-.09-.157-.149-.157-.06 0-.108-.07-.108-.156 0-.104-.052-.157-.156-.157-.102 0-.157-.052-.157-.147 0-.107-.075-.162-.273-.2-.164-.03-.274-.096-.274-.164 0-.063-.07-.114-.157-.114-.104 0-.156-.052-.156-.157 0-.104-.052-.156-.157-.156-.104 0-.156-.052-.156-.157 0-.125-.052-.156-.265-.156-.198 0-.274-.039-.305-.156a.208.208 0 0 0-.205-.157c-.09 0-.163-.05-.163-.114 0-.068-.11-.134-.274-.165-.157-.03-.274-.097-.274-.16 0-.072-.092-.108-.274-.108-.221 0-.273-.03-.273-.157 0-.13-.053-.156-.304-.156-.238 0-.313-.034-.345-.157-.031-.12-.106-.156-.322-.156-.186 0-.28-.036-.28-.108 0-.111-.326-.205-.715-.205-.14 0-.224-.04-.224-.11 0-.077-.157-.124-.548-.164-.39-.039-.547-.086-.547-.164 0-.079-.107-.11-.382-.11-.534 0-.87-.078-.87-.205 0-.085-.205-.107-1.007-.107-.942 0-1.01-.01-1.049-.157C20.82.001 20.753 0 10.41 0H0v.274zm78.306 9.394c-.042.075-.214.141-.427.165-.263.03-.367.08-.396.188a.208.208 0 0 1-.202.147c-.091 0-.164.05-.164.113 0 .068-.108.134-.266.164-.227.043-.274.09-.317.316-.03.159-.096.267-.163.267-.063 0-.114.07-.114.156 0 .105-.052.157-.156.157-.13 0-.157.052-.157.313 0 .21-.034.313-.106.313-.076 0-.12.18-.155.645-.068.883.017 1.935.155 1.935.072 0 .106.103.106.313 0 .261.026.313.157.313.104 0 .156.052.156.157 0 .09.052.156.125.156.068 0 .143.07.165.156.023.087.086.157.14.157.055 0 .118.07.14.156.023.086.093.157.157.157.063 0 .134.07.156.156a.208.208 0 0 0 .205.157c.09 0 .163.048.163.107 0 .107.323.205.675.205.113 0 .186.046.186.118 0 .097.152.117.9.117.747 0 .899-.02.899-.117 0-.072.072-.118.185-.118.353 0 .675-.098.675-.205 0-.071.095-.107.281-.107.215 0 .29-.037.322-.157.022-.086.093-.156.156-.156.064 0 .134-.07.157-.157.022-.086.09-.156.149-.156.06 0 .108-.07.108-.156 0-.105.052-.157.157-.157.126 0 .156-.052.156-.274 0-.221.03-.274.156-.274.14 0 .157-.052.157-.469 0-.346.028-.469.107-.469.06 0 .13-.11.157-.244.108-.54.02-1.242-.157-1.242-.078 0-.107-.116-.107-.421 0-.355-.025-.428-.157-.462-.12-.031-.156-.107-.156-.322 0-.229-.029-.281-.156-.281-.105 0-.157-.052-.157-.157 0-.086-.052-.156-.117-.156s-.118-.056-.118-.125c0-.068-.07-.143-.156-.165-.086-.023-.156-.09-.156-.15 0-.059-.074-.107-.164-.107a.208.208 0 0 1-.205-.157c-.034-.129-.106-.156-.413-.156-.308 0-.38-.028-.414-.157-.038-.146-.107-.156-1.061-.156-.856 0-1.032.02-1.09.126zm-37.48 9.835c0 .107-.607.206-1.262.206-.216 0-.301.034-.301.118 0 .087-.094.117-.372.118-.483.002-.723.07-.723.204 0 .074-.099.108-.313.108-.26 0-.313.026-.313.156s-.052.157-.313.157c-.26 0-.313.026-.313.156 0 .126-.052.157-.264.157-.2 0-.275.039-.306.156a.208.208 0 0 1-.205.156c-.09 0-.163.051-.163.114 0 .068-.11.135-.274.165-.15.029-.274.097-.274.151 0 .055-.07.118-.156.14-.086.023-.157.098-.157.166 0 .069-.052.125-.117.125s-.117.056-.117.124c0 .069-.07.144-.157.166-.086.023-.156.107-.156.188 0 .095-.056.148-.157.148-.104 0-.156.052-.156.156 0 .086-.051.156-.114.156-.068 0-.134.11-.165.274-.037.198-.092.274-.199.274-.096 0-.148.055-.148.156 0 .086-.05.157-.11.157-.068 0-.131.12-.163.313-.03.177-.097.312-.155.312-.056 0-.125.124-.153.274-.03.164-.097.274-.165.274-.08 0-.114.091-.114.313 0 .26-.026.313-.157.313-.136 0-.156.052-.156.42 0 .356-.024.428-.156.463-.138.036-.157.106-.157.595 0 .418-.026.555-.107.555-.147 0-.204.414-.205 1.506 0 .764-.02.919-.118.919-.096 0-.117.134-.117.743 0 .608.021.743.117.743.098 0 .117.16.117.968 0 1.098.05 1.456.206 1.456.08 0 .107.136.107.555 0 .49.019.56.157.596.132.034.156.106.156.462 0 .369.02.42.157.42.13 0 .156.053.156.314 0 .221.033.313.114.313.068 0 .134.11.165.273.03.157.098.274.16.274.06 0 .108.074.108.164 0 .098.063.18.157.204.112.03.156.107.156.274 0 .167.044.245.157.274.086.023.156.107.156.188 0 .095.055.147.157.147.104 0 .156.053.156.157 0 .104.052.156.156.156.087 0 .157.053.157.118 0 .064.053.117.117.117.065 0 .117.07.117.156 0 .105.053.157.157.157.104 0 .156.052.156.156 0 .105.053.157.157.157.086 0 .156.05.156.11 0 .068.12.13.313.163.192.033.313.096.313.164 0 .06.056.11.125.11.068 0 .143.07.165.157.031.118.107.156.313.156.206 0 .282.038.313.156.03.118.106.157.305.157.213 0 .265.03.265.156 0 .138.052.157.43.157.313 0 .43.029.43.107 0 .123.333.206.831.206.236 0 .342.032.342.106 0 .114.617.206 1.38.206.32 0 .42.028.42.118 0 .102.334.117 2.541.117 2.208 0 2.542-.015 2.542-.117 0-.09.099-.118.419-.118.763 0 1.38-.092 1.38-.206 0-.076.117-.107.41-.108.52 0 .763-.066.763-.203 0-.08.122-.108.47-.108.416 0 .469-.018.469-.157 0-.137.052-.156.43-.156.318 0 .43-.029.43-.11 0-.069.12-.131.313-.164.18-.03.313-.096.313-.156s.132-.126.313-.157c.184-.03.312-.096.312-.158s.106-.116.254-.13c.294-.029.424-.298.143-.298-.137 0-.162-.049-.162-.313 0-.225-.033-.313-.116-.313-.076 0-.134-.11-.167-.313-.029-.183-.093-.313-.154-.313-.057 0-.126-.123-.155-.273-.03-.157-.097-.274-.16-.274-.074 0-.108-.098-.108-.313 0-.26-.026-.313-.157-.313-.124 0-.156-.052-.157-.254-.002-.372-.08-.606-.204-.606-.07 0-.108-.092-.108-.265 0-.199-.039-.275-.156-.306-.097-.025-.157-.106-.157-.213 0-.141-.032-.164-.176-.126-.096.026-.22.048-.273.048-.054 0-.098.051-.098.112 0 .068-.12.13-.313.163-.192.033-.313.096-.313.163 0 .075-.09.11-.274.11-.221 0-.273.03-.273.157 0 .13-.053.157-.304.157-.238 0-.313.034-.345.156-.034.13-.106.157-.44.157-.285 0-.398.03-.398.107 0 .112-.325.205-.713.205-.14 0-.225.042-.225.108 0 .083-.214.122-.9.165-.692.043-.899.08-.899.165 0 .089-.202.11-1.056.11-.838 0-1.056-.022-1.056-.107 0-.108-.518-.204-1.114-.205-.209 0-.294-.035-.294-.118 0-.085-.086-.118-.312-.118-.261 0-.313-.026-.313-.156s-.052-.156-.313-.156c-.26 0-.313-.026-.313-.157 0-.104-.052-.156-.156-.156-.105 0-.157-.053-.157-.157 0-.104-.052-.156-.156-.156-.104 0-.157-.052-.157-.157 0-.087-.052-.156-.117-.156-.064 0-.117-.056-.117-.125 0-.068-.07-.143-.157-.165-.117-.03-.156-.107-.156-.306 0-.212-.03-.264-.157-.264-.139 0-.156-.053-.156-.47 0-.358-.027-.469-.114-.469-.135 0-.22-.383-.185-.825l.025-.309 7.567-.02 7.567-.02v-1.76c0-1.511-.016-1.759-.117-1.759-.098 0-.117-.17-.117-1.063 0-.997-.01-1.066-.157-1.104-.137-.036-.156-.107-.156-.575 0-.413-.03-.551-.128-.606-.082-.046-.141-.214-.166-.473-.026-.268-.074-.402-.145-.402-.064 0-.127-.126-.157-.313-.027-.173-.094-.313-.148-.313-.055 0-.122-.123-.15-.274-.031-.163-.097-.273-.166-.273-.078 0-.113-.088-.113-.281 0-.216-.037-.291-.157-.322-.086-.023-.156-.107-.156-.188 0-.096-.056-.148-.157-.148-.104 0-.156-.052-.156-.156 0-.086-.051-.157-.114-.157-.068 0-.134-.11-.165-.273-.037-.198-.092-.274-.199-.274-.081 0-.148-.051-.148-.114 0-.068-.11-.134-.273-.165-.198-.037-.274-.092-.274-.2 0-.095-.055-.147-.157-.147-.087 0-.156-.052-.156-.117s-.07-.117-.156-.117c-.105 0-.157-.053-.157-.157 0-.127-.052-.156-.274-.156-.221 0-.273-.03-.273-.157 0-.13-.053-.156-.313-.156s-.313-.026-.313-.157c0-.137-.052-.156-.421-.156-.355 0-.428-.024-.462-.156-.035-.133-.107-.157-.478-.157-.319 0-.438-.029-.438-.107 0-.081-.21-.121-.86-.163-.664-.043-.86-.081-.86-.167 0-.092-.322-.11-1.956-.11-1.595 0-1.955.02-1.955.106zm55.14 0c0 .114-.616.206-1.38.206-.32 0-.418.028-.418.118 0 .077-.078.117-.225.117-.389 0-.714.094-.714.205 0 .061-.08.108-.186.108-.352 0-.674.098-.674.205 0 .071-.094.108-.274.108-.222 0-.274.03-.274.156 0 .115-.052.157-.195.157-.12 0-.196.044-.196.114 0 .067-.11.134-.274.165-.156.029-.273.097-.273.16 0 .06-.07.108-.157.108-.104 0-.156.052-.156.157 0 .104-.052.156-.157.156-.104 0-.156.052-.156.156 0 .105-.052.157-.156.157-.105 0-.157.052-.157.156 0 .105-.052.157-.156.157-.105 0-.157.052-.157.156 0 .087-.052.157-.117.157a.118.118 0 0 0-.117.117c0 .065-.07.117-.157.117-.114 0-.156.052-.156.196 0 .143-.042.195-.157.195-.126 0-.156.052-.156.274 0 .222-.03.274-.156.274-.105 0-.157.052-.157.156 0 .086-.05.157-.11.157-.068 0-.131.12-.164.312-.032.193-.095.313-.163.313s-.11.083-.112.215c-.001.335-.085.567-.203.567-.076 0-.108.105-.108.352 0 .248-.032.352-.108.352-.138 0-.203.243-.204.763 0 .296-.031.41-.109.41-.18 0-.205.388-.205 3.246 0 2.86.025 3.246.205 3.246.078 0 .108.115.109.41.001.521.066.763.204.763.076 0 .108.105.108.352 0 .248.032.352.108.352.118 0 .202.232.203.567.001.133.044.215.112.215s.13.12.163.313.096.313.164.313c.06 0 .11.074.11.164 0 .098.063.18.157.204.117.031.156.107.156.306 0 .212.03.265.156.265.105 0 .157.052.157.156 0 .104.052.156.156.156.105 0 .157.053.157.157 0 .087.052.156.117.156s.117.056.117.125.07.143.157.166c.086.022.156.09.156.149 0 .06.07.108.157.108.104 0 .156.052.156.156 0 .105.052.157.156.157.105 0 .157.052.157.156 0 .104.052.157.156.157.086 0 .157.05.157.113 0 .068.11.135.273.165.157.03.274.098.274.16 0 .06.07.109.157.109.104 0 .156.052.156.156 0 .13.052.157.313.157.26 0 .313.026.313.156 0 .138.052.157.43.157s.43.019.43.156c0 .14.052.157.47.157.343 0 .469.028.469.106 0 .111.52.204 1.153.206.243 0 .333.032.333.118 0 .101.313.117 2.346.117 1.935 0 2.346-.019 2.346-.107 0-.078.175-.123.626-.162.465-.04.626-.083.626-.167 0-.082.107-.112.41-.113.521 0 .763-.066.763-.203 0-.074.099-.108.313-.108.26 0 .313-.026.313-.157 0-.13.052-.156.312-.156.222 0 .313-.033.313-.114 0-.068.11-.134.274-.165.157-.03.274-.098.274-.16 0-.06.056-.109.125-.109.068 0 .142-.067.163-.149.025-.095.136-.167.306-.199.158-.03.266-.096.266-.164 0-.062.071-.113.157-.113.104 0 .156-.053.156-.157 0-.104.052-.156.156-.156.105 0 .157-.052.157-.157 0-.104.052-.156.156-.156.105 0 .157-.052.157-.157 0-.086.051-.156.114-.156.067 0 .134-.108.163-.267.032-.17.104-.28.199-.305.082-.021.149-.095.149-.164 0-.068.049-.124.109-.124.062 0 .131-.117.16-.274.031-.164.097-.274.165-.274.069 0 .114-.076.114-.195 0-.144.042-.196.156-.196.135 0 .157-.052.157-.382 0-.316.027-.389.156-.423.124-.032.157-.106.157-.36 0-.221.033-.32.108-.32.134 0 .202-.241.203-.724.001-.278.031-.372.119-.372.084 0 .117-.085.117-.301 0-.656.099-1.263.207-1.263.087 0 .106-.38.106-2.073 0-1.696-.019-2.072-.107-2.072-.111 0-.204-.522-.205-1.154-.001-.243-.032-.332-.118-.332-.087 0-.118-.09-.118-.343 0-.497-.082-.83-.205-.83-.073 0-.107-.1-.107-.313 0-.261-.026-.313-.157-.313-.13 0-.156-.052-.156-.313 0-.222-.033-.313-.114-.313-.068 0-.134-.11-.165-.274-.028-.15-.097-.273-.153-.273-.058 0-.125-.136-.155-.313-.032-.193-.095-.313-.163-.313-.061 0-.111-.056-.111-.125 0-.068-.07-.143-.156-.165-.087-.023-.156-.107-.156-.188 0-.096-.056-.148-.157-.148-.126 0-.156-.052-.156-.274 0-.221-.03-.273-.157-.273-.104 0-.156-.052-.156-.157 0-.104-.052-.156-.157-.156-.086 0-.156-.051-.156-.114 0-.067-.108-.134-.267-.164-.169-.031-.28-.104-.305-.199-.021-.082-.095-.149-.164-.149-.068 0-.124-.053-.124-.117 0-.065-.07-.117-.157-.117-.104 0-.156-.053-.156-.157 0-.127-.052-.156-.281-.156-.216 0-.291-.037-.322-.157-.031-.117-.107-.156-.306-.156-.212 0-.264-.031-.264-.157 0-.13-.053-.156-.313-.156-.213 0-.313-.034-.313-.108 0-.123-.333-.205-.831-.205-.252 0-.342-.03-.342-.117 0-.086-.09-.118-.333-.118-.632-.002-1.153-.095-1.153-.206 0-.087-.377-.106-2.073-.106-1.693 0-2.073.019-2.073.106zm-35.82.324c0 .1-.266.117-1.917.117h-1.916v4.536h.274c.19 0 .273.036.273.118 0 .097.152.117.9.117h.9v11.967h-.744c-.608 0-.743.02-.743.117 0 .09-.1.117-.43.117h-.43v4.537h11.575v-4.44l-.176-.047a3.141 3.141 0 0 0-.586-.049c-.313 0-.41-.029-.41-.118 0-.098-.153-.117-.9-.117h-.9V33.21c0-1.909.022-3.58.05-3.715.026-.135.096-.245.156-.245.072 0 .107-.097.108-.293.002-.408.076-.645.204-.645.07 0 .108-.092.108-.265 0-.199.039-.275.156-.305a.208.208 0 0 0 .157-.205c0-.091.05-.164.114-.164.068 0 .134-.11.165-.273.028-.151.096-.274.15-.274.055 0 .118-.07.14-.157.023-.086.098-.156.166-.156.069 0 .125-.053.125-.117 0-.066.07-.118.156-.118.102 0 .157-.052.157-.147 0-.107.076-.162.274-.2.163-.03.273-.096.273-.165 0-.08.092-.113.313-.113.261 0 .313-.026.313-.157 0-.152.052-.156 1.905-.156h1.904l.05-.716c.029-.394.052-1.608.052-2.698 0-1.93-.004-1.983-.157-1.983-.087 0-.156-.052-.156-.117 0-.1-.235-.118-1.643-.118-1.407 0-1.642.017-1.642.118 0 .082-.083.117-.281.117-.215 0-.29.037-.322.157-.03.117-.107.156-.306.156-.212 0-.264.03-.264.156 0 .127-.052.157-.274.157-.221 0-.274.03-.274.156 0 .105-.052.157-.156.157-.091 0-.157.052-.157.124 0 .069-.07.143-.156.166-.087.023-.156.107-.156.188 0 .092-.056.147-.148.147-.107 0-.162.076-.2.274-.03.164-.096.274-.164.274-.063 0-.114.07-.114.156 0 .105-.052.157-.157.157-.13 0-.156.052-.156.313 0 .221-.033.312-.114.312-.068 0-.134.11-.165.274-.03.157-.098.274-.16.274-.09 0-.109-.308-.11-1.74 0-.957-.022-1.82-.048-1.916l-.047-.177h-2.22c-1.921 0-2.22.016-2.22.118zm18.77 0c0 .101-.282.117-2.072.117H74.77v2.268c0 2.216.004 2.268.156 2.268.087 0 .157.053.157.118 0 .098.165.117 1.017.117h1.016v11.967h-.704c-.573 0-.703.021-.703.117 0 .091-.105.117-.47.117h-.469v4.537h11.028v-4.537h-.43c-.33 0-.43-.027-.43-.117 0-.096-.135-.117-.743-.117h-.743V19.709h-2.269c-1.964 0-2.268.016-2.268.118zm45.05 0c0 .088-.094.117-.381.117-.535 0-.87.08-.87.205 0 .079-.117.108-.43.108-.378 0-.43.019-.43.156 0 .13-.052.157-.313.157s-.313.026-.313.156c0 .127-.052.157-.274.157-.198 0-.273.034-.273.124 0 .069-.071.143-.157.166-.086.022-.156.086-.156.14 0 .055-.123.123-.274.151-.164.03-.274.097-.274.165 0 .063-.07.114-.156.114-.104 0-.157.052-.157.156 0 .105-.052.157-.156.157-.104 0-.156.052-.156.156 0 .105-.053.157-.157.157-.104 0-.156.052-.156.156 0 .104-.052.157-.157.157-.087 0-.156.052-.156.117s-.07.117-.157.117c-.15 0-.156-.052-.156-1.438v-1.437l-.206-.04c-.113-.021-1.169-.02-2.346.003-1.725.034-2.141.062-2.141.147 0 .086-.34.106-1.799.106h-1.799v4.438l.245.05c.134.026.592.048 1.017.048.634 0 .772.021.772.118 0 .065.07.117.156.117.155 0 .157.052.157 5.827 0 5.774-.002 5.827-.157 5.827-.086 0-.156.052-.156.117 0 .093-.112.117-.536.117-.295 0-.752.023-1.017.05l-.481.05v4.438h11.028v-4.44l-.293-.049a7.9 7.9 0 0 0-.938-.049c-.505 0-.646-.025-.646-.112 0-.061-.105-.134-.234-.163l-.235-.051v-4.413c0-3.87.014-4.413.117-4.413.085 0 .118-.087.118-.313 0-.26.026-.312.156-.312.104 0 .157-.053.157-.157 0-.086.048-.156.108-.156.059 0 .126-.07.149-.157.022-.086.093-.156.156-.156.064 0 .134-.07.157-.156.022-.087.097-.157.165-.157.073 0 .125-.065.125-.156 0-.105.052-.157.156-.157.087 0 .157-.052.157-.117s.069-.117.156-.117c.104 0 .157-.052.157-.157 0-.104.052-.156.156-.156.104 0 .156-.052.156-.157 0-.125.053-.156.265-.156.199 0 .275-.039.306-.156.031-.12.106-.157.322-.157.184 0 .281-.036.281-.106 0-.077.168-.118.606-.148.835-.057 1.74.015 1.74.137 0 .053.141.12.313.147.202.032.313.091.313.167 0 .064.07.116.156.116.104 0 .157.052.157.156 0 .086.051.157.113.157.068 0 .135.11.165.273.03.157.098.274.16.274.068 0 .109.085.109.225 0 .389.094.714.205.714.09 0 .108.798.108 4.927 0 4.875-.002 4.928-.157 4.928-.086 0-.156.052-.156.117 0 .094-.12.117-.606.118-.334 0-.791.023-1.017.05l-.411.05v4.437l5.495-.02 5.494-.02.021-2.199.021-2.198-.482-.05c-.265-.028-.741-.05-1.057-.05-.459 0-.575-.025-.575-.118 0-.065-.07-.117-.157-.117-.155 0-.156-.053-.156-5.514 0-4.599-.018-5.514-.107-5.514-.111 0-.204-.522-.205-1.154-.001-.243-.033-.332-.118-.332-.077 0-.118-.078-.118-.225 0-.389-.093-.714-.205-.714-.071 0-.108-.094-.108-.274 0-.221-.029-.273-.156-.273-.126 0-.156-.053-.156-.265 0-.199-.039-.275-.157-.306a.208.208 0 0 1-.156-.204c0-.112-.05-.164-.157-.164-.086 0-.156-.049-.156-.108 0-.06-.07-.127-.156-.15-.087-.022-.157-.096-.157-.165 0-.068-.053-.125-.117-.125-.065 0-.118-.069-.118-.156 0-.13-.052-.156-.312-.156-.261 0-.313-.026-.313-.157 0-.126-.052-.156-.274-.156-.222 0-.274-.03-.274-.157 0-.13-.052-.156-.313-.156-.213 0-.312-.034-.312-.108 0-.123-.334-.205-.831-.205-.252 0-.343-.03-.343-.117 0-.1-.234-.118-1.642-.118s-1.643.017-1.643.118zm-79.91 4.184c.035.133.107.157.479.157.385 0 .437.018.437.156 0 .104.052.156.157.156.086 0 .156.05.156.11 0 .061.116.13.27.159.233.043.279.088.322.321.028.149.096.27.15.27.055 0 .118.071.14.157.023.086.098.157.166.157.09 0 .125.075.125.273 0 .222.03.274.157.274.137 0 .156.052.156.421 0 .355.024.428.156.462.143.037.157.107.157.791v.75h-8.681v-.593c0-.528.017-.599.156-.635.132-.035.156-.107.156-.462 0-.369.02-.421.156-.421.127 0 .157-.052.157-.274 0-.183.036-.273.11-.273.068 0 .131-.121.164-.313.04-.238.089-.313.202-.313.098 0 .15-.055.15-.157 0-.087.052-.156.117-.156s.117-.049.117-.109c0-.062.117-.13.274-.16.164-.03.274-.097.274-.165 0-.063.072-.114.163-.114.099 0 .18-.062.205-.156.035-.132.107-.156.462-.156.369 0 .421-.02.421-.157 0-.15.052-.156 1.164-.156 1.099 0 1.167.009 1.205.156zm55.43.267c0 .068.12.13.313.163.192.033.313.096.313.164 0 .06.07.11.156.11.104 0 .157.052.157.157 0 .104.052.156.156.156.104 0 .156.052.156.156 0 .087.053.157.118.157.064 0 .117.056.117.124 0 .069.067.143.149.164.095.025.167.136.199.306.03.158.096.266.164.266.081 0 .114.091.114.313 0 .26.026.313.156.313.131 0 .157.052.157.313 0 .213.034.313.107.313.134 0 .205.341.205.987 0 .391.026.498.118.498.101 0 .117.248.117 1.76s-.016 1.76-.117 1.76c-.092 0-.118.108-.118.499 0 .646-.071.987-.205.987-.066 0-.107.086-.107.225 0 .388-.094.714-.206.714-.07 0-.107.093-.107.273 0 .222-.03.274-.157.274-.104 0-.156.052-.156.157 0 .086-.052.156-.117.156-.066 0-.118.07-.118.156 0 .105-.052.157-.156.157-.104 0-.157.052-.157.156 0 .104-.052.157-.156.157-.104 0-.156.052-.156.156 0 .104-.053.157-.157.157-.086 0-.156.05-.156.11 0 .068-.12.13-.313.163-.175.03-.313.097-.313.154 0 .139-1.353.228-2.395.157-.583-.04-.812-.084-.812-.157 0-.057-.136-.124-.313-.154-.192-.032-.312-.095-.312-.163 0-.06-.07-.11-.157-.11-.104 0-.156-.053-.156-.157 0-.104-.052-.156-.157-.156-.104 0-.156-.053-.156-.157 0-.104-.052-.156-.157-.156-.104 0-.156-.052-.156-.157 0-.086-.049-.156-.109-.156-.062 0-.13-.117-.16-.274-.03-.164-.097-.273-.165-.273-.08 0-.113-.092-.113-.313 0-.261-.026-.313-.157-.313-.136 0-.156-.053-.157-.41-.002-.521-.066-.763-.204-.763-.09 0-.108-.453-.108-2.699 0-2.245.018-2.698.108-2.698.138 0 .202-.242.204-.763 0-.358.02-.41.157-.41.127 0 .157-.052.157-.274 0-.191.035-.274.117-.274.067 0 .117-.07.117-.163 0-.096.063-.18.15-.203.094-.025.166-.136.198-.306.03-.158.097-.266.164-.266.063 0 .114-.07.114-.157 0-.104.052-.156.156-.156.086 0 .157-.051.157-.114 0-.068.11-.134.274-.165.15-.028.273-.097.273-.153 0-.058.136-.125.313-.155.192-.032.313-.095.313-.163 0-.091.258-.11 1.486-.11s1.486.019 1.486.11z" fill="#000"/></svg>