<svg width="112" height="42" viewBox="0 0 112 42" fill="none" xmlns="http://www.w3.org/2000/svg"><path fill-rule="evenodd" clip-rule="evenodd" d="M9.756 1.348L7.884 2.692l.583.599c1.508 1.55 2.655 3.155 3.586 5.018 3.403 6.811 2.026 14.617-3.593 20.36-.374.383-.623.677-.59.699.03.02.888.64 1.904 1.376l1.848 1.339.73-.751c3.641-3.751 5.796-8.053 6.438-12.858.137-1.025.136-4.016-.001-4.996C18.1 8.581 15.975 4.368 12.253.52c-.278-.288-.533-.521-.566-.519-.032.002-.901.609-1.93 1.348zM1.92 6.978L.059 8.317l.344.365c2.873 3.053 3.799 6.774 2.59 10.41-.498 1.5-1.347 2.873-2.595 4.199L0 23.713l.733.533 1.875 1.36 1.141.826.153-.108c.084-.06.417-.402.74-.76 2.52-2.795 3.787-5.806 3.879-9.212.089-3.325-.969-6.349-3.204-9.158-.466-.587-1.392-1.56-1.48-1.555-.032.001-.896.604-1.918 1.34zM46.978 13.4c-2.228.347-3.882 1.429-4.645 3.039-.325.684-.422 1.148-.426 2.036-.004.95.07 1.284.481 2.133.253.522.356.669.782 1.114.27.283.653.621.85.753.788.522 1.746.891 2.827 1.088.606.11 2.333.125 2.957.024 1.546-.249 2.792-.832 3.686-1.726.718-.716 1.176-1.563 1.343-2.477.1-.549.076-1.472-.051-2.008-.517-2.175-2.407-3.634-5.183-4.002-.574-.076-2.06-.061-2.621.026zm-18.197.469c.102.184 1.342 2.42 2.753 4.969l2.567 4.633h2.266l2.565-4.933c1.41-2.713 2.565-4.95 2.565-4.969 0-.02-.715-.036-1.588-.036H38.32l-1.125 2.26c-1.002 2.014-1.524 3.18-1.72 3.837-.034.118-.075.25-.09.295-.015.045-.105-.149-.201-.43-.26-.76-.375-.998-1.718-3.585l-1.233-2.377h-3.64l.187.336zm27.136-.238c.04.053.93 1.144 1.98 2.423 1.05 1.278 1.905 2.337 1.9 2.351-.003.014-.899 1.08-1.989 2.37l-2.107 2.493-.126.149h3.535l1.442-1.773 1.441-1.773.414.524 1.375 1.751c.529.675.988 1.238 1.02 1.25.032.012.873.016 1.87.008l1.811-.014-2.098-2.544c-1.205-1.462-2.085-2.574-2.07-2.616.016-.04.883-1.082 1.929-2.317a204.803 204.803 0 0 0 1.941-2.313c.033-.053-.324-.066-1.722-.063l-1.765.003-1.21 1.529c-.665.84-1.247 1.577-1.292 1.637-.08.105-.138.039-1.344-1.53l-1.262-1.641-1.871-.001c-1.8 0-1.869.003-1.802.097zm-6.275 2.235c1.286.437 2.017 1.393 2.017 2.636 0 1.072-.547 1.94-1.525 2.416-2.035.993-4.526.06-4.921-1.841-.317-1.522.599-2.885 2.214-3.296.596-.151 1.638-.111 2.215.085zm-5.295 18.213v7.709h3.011V26.37h-3.011v7.708zm35.837-7.152c-.888.294-1.315.91-1.156 1.673.169.814.956 1.308 1.999 1.253.378-.02.5-.051.786-.204.56-.298.817-.715.817-1.325 0-.596-.317-1.059-.907-1.325-.311-.14-1.206-.182-1.54-.072zm-10.082 4.792c-1.031.146-2.814.674-2.883.855-.03.079.712 1.831.77 1.816.023-.006.289-.097.589-.202a7.328 7.328 0 0 1 2.117-.438c1.557-.088 2.317.351 2.556 1.477.068.321.107 1.028.057 1.028-.011 0-.15-.057-.31-.127-1.439-.633-3.653-.615-5.013.042-1.054.51-1.652 1.364-1.733 2.478-.09 1.225.527 2.271 1.658 2.81.574.274 1.095.39 1.897.422 1.362.053 2.595-.297 3.43-.977l.306-.25v1.135h2.64l-.018-3.532c-.017-3.443-.02-3.543-.135-3.951-.4-1.422-1.306-2.196-2.972-2.538-.59-.121-2.248-.148-2.956-.048zm34.601-.048c-1.789.214-3.104.814-4.102 1.87-1.912 2.024-1.681 5.326.494 7.046 1.182.935 2.745 1.412 4.629 1.414 1.521.001 2.743-.254 3.872-.81.833-.41.802-.27.288-1.298l-.442-.886-.338.185c-.835.46-1.816.683-3.003.686-.997.003-1.397-.074-2.115-.405-.73-.337-1.346-1.042-1.486-1.7l-.037-.175h8.66l.062-.202c.035-.11.075-.52.09-.91.034-.894-.056-1.341-.417-2.09-.678-1.404-2.195-2.394-4.098-2.677-.505-.075-1.618-.101-2.057-.048zm-41.78.074a3.28 3.28 0 0 0-1.834.869l-.235.217v-.98h-3.011v9.935h3.011v-6.645l.153-.212a2.49 2.49 0 0 1 .336-.365c.622-.526 1.78-.643 2.692-.272.183.074.343.123.357.11.067-.067 1.076-2.311 1.055-2.346-.055-.088-.633-.26-1.053-.313a5.777 5.777 0 0 0-1.472 0zm28.337.023c-.821.13-1.571.417-2.18.832l-.316.215-.015-.469-.016-.469-1.519-.014-1.519-.014v9.94l1.52-.014 1.518-.014.027-3.396.027-3.395.188-.14c.305-.23.88-.5 1.329-.626.534-.151 1.533-.165 2.044-.029.41.11.81.307 1.053.52.227.2.49.693.569 1.066.04.188.06 1.26.06 3.156v2.87h3.07l-.018-3.37c-.018-3.274-.022-3.383-.137-3.8-.3-1.092-.877-1.838-1.781-2.305-1.02-.525-2.617-.748-3.904-.544zm-61.14.158c-.017.042-.02 1.583-.008 3.424.02 3.216.026 3.367.137 3.791.367 1.403 1.312 2.34 2.726 2.704.82.211 2.089.193 2.957-.042.733-.199 1.666-.69 2.012-1.058.072-.077.15-.14.175-.14.024 0 .044.267.044.593v.591l1.52-.014 1.518-.014v-9.884l-1.519-.014-1.519-.014v6.6l-.309.276c-.357.32-1.12.714-1.625.84-.488.121-1.417.08-1.837-.081a1.842 1.842 0 0 1-.924-.805c-.287-.526-.303-.736-.304-3.915l-.001-2.914h-1.507c-1.25 0-1.513.013-1.537.076zm19.486 2.26c-1.162 1.286-2.118 2.367-2.124 2.404-.006.038 1.047 1.216 2.34 2.62l2.349 2.55 1.953.015c1.203.009 1.947-.005 1.936-.037-.01-.027-1.12-1.225-2.465-2.662-1.346-1.436-2.453-2.64-2.46-2.676-.009-.035.977-1.056 2.19-2.267 1.213-1.21 2.206-2.22 2.206-2.242 0-.023-.858-.04-1.905-.04H51.72l-2.115 2.336zm29.69 2.633v4.969h3.066v-9.939h-3.065v4.969zm26.957-3.01c.536.096 1.125.375 1.429.678.27.27.516.763.568 1.137l.035.255h-5.916l.101-.293c.474-1.376 2.002-2.094 3.783-1.777zm-33.597 3.753c.672.219.672.219.672.813v.503l-.248.219c-.492.432-1.16.647-2.014.649-.592 0-.986-.097-1.32-.326a.99.99 0 0 1-.151-1.527c.408-.407.818-.516 1.851-.49.661.016.846.04 1.21.159z" fill="#000"/></svg>