<svg width="130" height="28" viewBox="0 0 130 28" fill="none" xmlns="http://www.w3.org/2000/svg"><g clip-path="url(#a)"><path fill-rule="evenodd" clip-rule="evenodd" d="M49.55 0c1.551 0 3.013.135 4.39.407 1.38.274 2.657.682 3.839 1.226 2.385 1.11 4.254 2.713 5.606 4.8 1.258 1.942 1.931 4.26 2.02 6.955l.011.628v.148c0 1.557-.164 2.98-.5 4.264a11.887 11.887 0 0 1-1.494 3.491c-1.326 2.05-3.184 3.574-5.57 4.577C55.464 27.498 52.672 28 49.479 28c-1.625 0-3.143-.126-4.56-.372a19.007 19.007 0 0 1-3.928-1.115c-2.386-.987-4.224-2.507-5.516-4.56-1.207-1.915-1.85-4.313-1.93-7.198l-.008-.626v-.076c0-1.482.173-2.854.517-4.113.346-1.261.85-2.411 1.514-3.45 1.35-2.1 3.234-3.71 5.644-4.822C43.623.558 46.405 0 49.55 0zm44.83.668v6.674L79.62 19.654h14.793v7.603H66.558v-6.081L82.312 8.083H67.445V.668H94.38zM22.136.669l11.916 26.587h-9.258l-1.92-4.561H11.217L8.61 27.256H0L11.992.67h10.145zm95.447 0L129.5 27.256h-9.258l-1.921-4.561h-11.656l-1.882 4.561h-9.336L107.439.67h10.145zM49.479 7.861c-2.094 0-3.742.511-4.945 1.54-1.119.953-1.719 2.369-1.799 4.25l-.01.441v.037c0 2.005.596 3.503 1.79 4.505 1.191 1.002 2.833 1.502 4.925 1.502 2.092 0 3.746-.47 4.962-1.408 1.218-.94 1.825-2.472 1.825-4.599 0-2.176-.607-3.765-1.825-4.767-1.216-1-2.857-1.5-4.923-1.5zm-32.47.778L13.8 16.392h6.455L17.008 8.64zm95.446 0l-3.21 7.753h6.455l-3.245-7.753z" fill="#000"/></g><defs><clipPath id="a"><path fill="#fff" d="M0 0h129.5v28H0z"/></clipPath></defs></svg>