<svg width="128" height="22" viewBox="0 0 128 22" fill="none" xmlns="http://www.w3.org/2000/svg"><path fill-rule="evenodd" clip-rule="evenodd" d="M107.681.348c-.055.456-.055 20.819 0 21.274l.042.348h2.71v-.195c0-.171.027-.197.217-.215l.216-.021.017-5.255.017-5.255.433-.046c.416-.045.432-.053.432-.23 0-.177.013-.184.466-.228.461-.045.466-.048.466-.24s.007-.196.349-.197c.192 0 .507-.019.699-.042.331-.04.35-.052.35-.232v-.19h1.398v.193c0 .19.007.193.466.239l.465.046v.226c0 .214.013.226.233.226h.233v.929h.4v4.895c.001 2.692.02 5.052.043 5.244l.042.348h2.711v-.199c0-.183.018-.199.233-.199h.233v-11.01l-.217-.02-.216-.021-.019-.714-.019-.714h-.192c-.187 0-.193-.01-.239-.431l-.046-.431h-.225c-.213 0-.225-.013-.225-.233 0-.221-.011-.232-.233-.232s-.233-.011-.233-.232V7.3h-.857l-.021-.215-.021-.216-1.864-.02c-1.025-.011-2.051-.001-2.28.022-.404.04-.416.047-.416.233v.19l-.482.02-.483.02-.021.215-.021.216h-.857v.232c0 .221-.011.233-.232.233h-.232l-.018-3.9-.017-3.9-.216-.02c-.19-.019-.217-.045-.217-.216V0h-2.71l-.042.348zm-38.22 3.303c-.045.457-.049.464-.239.464h-.193v1.012c0 .557-.02 1.17-.043 1.361l-.042.349H66.7v2.787h1.864v8.696h.19c.18 0 .194.019.233.348.023.192.042.505.043.697 0 .341.004.348.196.348.193 0 .196.006.242.465l.045.465h.225c.212 0 .224.012.224.232 0 .221.011.232.233.232.212 0 .233.018.233.19 0 .18.02.192.35.232.192.023.491.042.665.042.304.001.317.009.317.19v.19l.897.034c.494.02 1.438.02 2.097 0l1.2-.034v-.19c0-.188 0-.189.428-.189.236 0 .442-.023.459-.05.016-.027.014-.46-.006-.962l-.035-.913h-.187c-.183 0-.188-.009-.207-.415l-.02-.415-.5-.02a7.677 7.677 0 0 0-.915.021c-.405.042-.416.048-.416.237v.194h-.932v-.465h-.932v-.232c0-.221-.01-.232-.233-.232h-.233v-.93h-.399V9.624h4.06V6.837h-4.06V5.36c0-.813-.02-1.634-.043-1.826l-.042-.348H69.51l-.047.465zM3.912 6.885c-.226.024-.25.045-.25.221v.195H2.73v.465h-.932v.465H.932v.232c0 .212.017.232.193.232.19 0 .194.007.24.465.045.455.05.464.235.464.164 0 .192.028.21.216.018.188.048.218.23.236.205.02.21.028.254.448.045.418.05.428.24.428.172 0 .195-.024.195-.195 0-.178.023-.197.25-.216.228-.019.251-.04.27-.236.02-.21.03-.216.333-.217.172 0 .47-.019.662-.042.33-.04.35-.052.35-.232v-.19H8.32v.194c0 .19.01.195.432.24l.433.046v.225c0 .212.013.225.233.225h.233v2.256l-2.18.001c-1.199 0-2.337.02-2.53.042-.329.04-.349.053-.349.23v.188l-.915.019-.915.018-.021.216-.021.216h-.857v.232c0 .22-.012.232-.229.232-.21 0-.23.019-.25.216-.018.189-.047.218-.233.236-.185.018-.215.048-.233.233-.018.184-.048.214-.234.232l-.213.02-.02.445-.02.444-.216.02-.216.021v2.713h.19c.18 0 .193.02.233.349.023.191.042.488.042.66.001.302.007.31.217.331.198.02.218.043.237.27.02.235.033.249.25.249s.229.011.229.232.011.232.233.232c.214 0 .233.016.233.2 0 .193.01.199.316.2.174 0 .473.019.666.042.33.04.35.052.35.231v.19h3.26v-.199c0-.196.007-.199.35-.2.193 0 .507-.019.7-.042.33-.04.349-.052.349-.232 0-.182.013-.19.316-.19.174 0 .474-.02.666-.043.33-.04.35-.052.35-.231 0-.173.02-.19.232-.19.222 0 .233.01.233.232 0 .221.011.232.233.232h.233v.863h2.729V9.624h-.193c-.19 0-.193-.007-.24-.464-.045-.455-.05-.465-.235-.465-.164 0-.191-.028-.21-.216-.018-.19-.046-.218-.237-.236-.198-.02-.216-.04-.216-.249 0-.222-.007-.228-.266-.228-.25 0-.267-.012-.267-.194 0-.19-.01-.195-.432-.24-.416-.044-.433-.053-.433-.228 0-.17-.023-.185-.35-.224-.367-.044-5.428-.04-5.857.005zm16.575 0c-.225.023-.25.045-.25.218 0 .191-.003.192-.45.212l-.449.02-.02.215-.021.216h-.857v.232c0 .221-.011.233-.233.233s-.233.01-.233.232c0 .22-.012.232-.225.232h-.226l-.046.432c-.045.416-.052.431-.232.431-.181 0-.187.011-.232.465-.045.46-.048.464-.241.464h-.196v7.833h.193c.19 0 .194.006.24.464.045.453.051.465.232.465.178 0 .187.015.23.427.046.421.05.428.258.448.184.018.214.049.232.232.02.207.028.211.446.256.416.045.425.05.445.254l.02.208.45.02c.444.02.45.022.45.206 0 .176.02.19.349.229.192.023.491.042.665.042.305.001.317.008.317.193v.192l.815.024a44.43 44.43 0 0 0 1.864 0l1.048-.022v-.193c0-.189.008-.193.35-.194.192 0 .507-.019.699-.042.327-.04.35-.054.35-.225 0-.178.012-.184.465-.23.46-.046.466-.05.466-.239 0-.175.02-.192.233-.192.221 0 .233-.012.233-.228 0-.21.018-.23.216-.25.19-.018.22-.046.237-.236.019-.19.045-.216.217-.216.179 0 .195-.02.195-.232 0-.221.012-.232.233-.232h.233V18.9c.001-.191.02-.505.044-.697.04-.329.052-.348.232-.348h.19v-7.293l-.216-.02-.216-.021-.02-.449c-.02-.443-.021-.448-.21-.448-.186 0-.19-.008-.236-.464l-.047-.465h-.226c-.215 0-.227-.012-.227-.232 0-.221-.01-.232-.233-.232-.213 0-.233-.017-.233-.194 0-.19-.01-.195-.429-.24-.42-.045-.429-.05-.449-.254l-.02-.209-.45-.02c-.443-.019-.449-.021-.449-.206 0-.175-.02-.189-.35-.228-.367-.044-4.495-.04-4.925.005zm12.161.036c-.018.047-.024.667-.014 1.378l.018 1.292 3.445.017 3.444.018v.231c0 .212-.017.232-.192.232-.187 0-.193.011-.237.428-.046.42-.05.428-.258.448-.185.018-.214.047-.232.236-.019.19-.045.215-.216.215-.18 0-.196.02-.196.233 0 .22-.012.232-.229.232-.216 0-.23.014-.25.25-.018.224-.04.25-.23.268-.204.02-.209.029-.254.448-.045.418-.05.428-.24.428-.178 0-.195.02-.195.232 0 .222-.011.233-.233.233s-.233.01-.233.232c0 .221-.01.232-.233.232-.222 0-.233.011-.233.233 0 .22-.01.232-.233.232h-.233v.863h-.233c-.22 0-.233.011-.233.228 0 .209-.018.23-.216.249-.198.019-.218.042-.237.27-.02.235-.033.248-.25.248s-.229.012-.229.233c0 .212-.016.232-.194.232-.19 0-.195.01-.24.428-.045.42-.05.428-.255.448-.182.018-.212.048-.23.236-.018.19-.045.216-.216.216-.18 0-.196.02-.196.232 0 .22-.012.232-.224.232-.22 0-.224.006-.265.349-.055.45-.055 2.039 0 2.489l.042.348h11.497v-2.72h-7.39v-.929h.233c.222 0 .233-.012.233-.233s.011-.232.233-.232.233-.011.233-.232c0-.222.011-.233.233-.233s.233-.01.233-.232c0-.213.017-.232.194-.232.19 0 .196-.01.24-.428.046-.42.05-.428.256-.448.182-.018.211-.048.23-.236.018-.19.044-.216.216-.216.179 0 .195-.02.195-.232 0-.22.012-.232.23-.232.216 0 .23-.014.249-.25.019-.225.04-.25.232-.269.208-.02.212-.027.258-.448.044-.416.05-.427.237-.427.175 0 .192-.02.192-.233 0-.22.011-.232.233-.232s.233-.011.233-.232.011-.233.233-.233.233-.01.233-.232c0-.221.011-.232.233-.232h.233v-.863h.233c.221 0 .233-.012.233-.228 0-.209.019-.23.217-.25.19-.017.218-.046.237-.236.018-.188.045-.215.212-.215.173 0 .194-.024.212-.25.019-.225.04-.25.232-.269.208-.02.212-.028.254-.431.023-.226.032-.934.021-1.573l-.02-1.161-5.51-.017c-4.44-.014-5.517 0-5.544.068zm17.727-.036c-.226.024-.25.045-.25.221v.195h-1.331v.465h-.932v.232c0 .221-.01.233-.233.233h-.233v.929h.466v.854l.217.021c.197.02.218.043.236.27l.021.249h.353c.194 0 .492-.02.662-.043.285-.039.308-.056.308-.232v-.19h.932v-.465h4.119l.021.216c.019.197.043.218.27.236.228.02.25.039.25.216 0 .171.024.195.194.195.193 0 .194.003.24.498.047.494.05.498.24.498h.191v1.327h-2.353c-1.294 0-2.537.02-2.762.043-.396.041-.41.049-.41.232v.19h-1.398v.465h-.932v.464h-.866v.233c0 .22-.01.232-.233.232h-.233v.929h-.468l.018 2.041.018 2.041.216.021c.198.02.216.04.216.249 0 .216.012.228.233.228.222 0 .233.011.233.232 0 .213.017.233.196.233.172 0 .198.026.216.215.02.197.043.218.27.237.226.018.25.039.25.209 0 .184.01.189.466.235.46.046.466.05.466.239v.192h3.661v-.19c0-.18.02-.192.35-.231.192-.023.506-.043.699-.043.34 0 .35-.005.35-.192 0-.186.01-.192.432-.237.423-.046.433-.05.433-.24v-.194h.931v.355c0 .196.02.495.043.664l.042.308h3.111V10.951h-.4v-.547c0-.3-.02-.704-.043-.896-.04-.33-.052-.348-.232-.348-.174 0-.19-.021-.19-.233 0-.22-.012-.232-.234-.232s-.233-.01-.233-.232c0-.221-.01-.232-.233-.232-.222 0-.233-.012-.233-.233s-.01-.232-.233-.232c-.222 0-.233-.011-.233-.232V7.3h-.932v-.19c0-.18-.019-.192-.35-.231-.367-.044-4.961-.04-5.39.005zm32.285 0c-.226.024-.25.045-.25.221v.195h-.932v.233c0 .226-.006.232-.266.232-.258 0-.266.007-.266.225v.224l-.427.046-.427.045-.046.394c-.044.38-.052.393-.239.393-.18 0-.193.017-.193.266 0 .26-.005.265-.233.265h-.233v.356c0 .196-.019.495-.042.664-.04.285-.057.308-.233.308h-.19v7.368h.465v.929h.233c.222 0 .233.01.233.232 0 .213.017.232.196.232.172 0 .198.026.216.216.018.19.047.218.237.237.198.019.217.04.217.249 0 .215.012.228.228.228.21 0 .231.018.25.215l.02.216.45.02c.444.02.45.022.45.206 0 .176.02.19.349.229.192.023.507.042.699.042.34.001.35.006.35.19v.19l.905.035c.498.019 1.427.019 2.064 0l1.158-.035v-.19c0-.184.01-.189.349-.19.192 0 .507-.019.699-.042.327-.04.35-.054.35-.225 0-.178.012-.184.465-.23.46-.046.466-.05.466-.239 0-.175.02-.192.233-.192.222 0 .233-.011.233-.233 0-.22.011-.232.233-.232s.233-.011.233-.232c0-.22-.012-.233-.225-.233h-.225l-.046-.431c-.046-.422-.051-.431-.241-.431-.183 0-.195-.017-.195-.266 0-.26-.005-.265-.233-.265-.222 0-.233-.012-.233-.233v-.232h-.932v.449l-.432.046c-.423.045-.433.05-.433.24 0 .192-.003.194-.39.194-.215 0-.53.02-.699.042-.286.04-.309.057-.309.233v.19h-1.398v-.19c0-.18-.019-.192-.35-.232a7.219 7.219 0 0 0-.698-.042h-.35v-.465h-.851l-.047-.465c-.046-.454-.051-.465-.234-.465-.184 0-.188-.008-.231-.48a7.869 7.869 0 0 1-.023-.914l.022-.431 4.567-.017 4.568-.017.042-.308c.055-.398.054-4.33 0-4.786-.04-.325-.055-.348-.225-.348-.176 0-.183-.014-.227-.465-.046-.46-.049-.464-.242-.464-.18 0-.196-.02-.196-.233 0-.22-.01-.232-.233-.232-.221 0-.233-.01-.233-.232 0-.221-.01-.232-.233-.232-.222 0-.233-.012-.233-.233v-.232h-.856l-.021-.216-.021-.216-.45-.02c-.443-.019-.449-.021-.449-.206 0-.175-.02-.189-.35-.228-.366-.044-4.029-.04-4.46.005zm15.11 0c-.226.024-.25.045-.25.221v.195h-.865v.465h-.932v.232c0 .221-.01.233-.233.233-.222 0-.233.01-.233.232 0 .221-.01.232-.233.232h-.233v.929h-.466v.93h-.465v3.575c0 1.966.019 3.713.042 3.883.039.285.056.308.233.308h.19v.929h.466v.863h.233c.221 0 .233.012.233.227v.227l.43.046c.42.045.429.05.449.254.018.188.044.21.27.229.227.018.25.038.25.215 0 .187.013.196.289.196.16 0 .474.019.699.042.392.041.41.05.41.227v.183l1.014.023c.559.012 1.487.012 2.064-.001l1.048-.024v-.192c0-.185.012-.192.316-.193.174 0 .474-.019.666-.042.326-.04.35-.054.35-.223 0-.176.014-.183.466-.227.46-.046.466-.048.466-.241 0-.179.019-.195.233-.195.221 0 .232-.011.232-.233 0-.22.012-.232.233-.232.222 0 .233-.011.233-.232 0-.222-.011-.233-.233-.233-.221 0-.233-.01-.233-.232 0-.221-.011-.232-.232-.232-.222 0-.233-.011-.233-.232 0-.222-.012-.233-.233-.233-.222 0-.233-.01-.233-.232 0-.213-.017-.232-.196-.232-.172 0-.198-.026-.216-.216-.019-.198-.04-.216-.254-.216s-.235.017-.254.216l-.021.216h-.857v.464h-.582c-.32.001-.74.02-.932.043-.33.04-.35.052-.35.232 0 .173-.021.19-.233.19-.221 0-.232-.011-.232-.232v-.233h-1.398v-.232c0-.221-.012-.232-.233-.232-.222 0-.233-.012-.233-.233s-.011-.232-.233-.232h-.233v-.863h-.4v-5.509h.191c.188 0 .192-.008.237-.46.045-.46.046-.462.258-.482.186-.018.216-.047.234-.236l.02-.216h.857v-.465h2.721l.021.216.021.216.483.02.482.019v.23c0 .217.012.229.233.229.215 0 .233.015.233.199 0 .177.022.199.2.199.177 0 .2-.022.2-.2 0-.183.018-.198.233-.198.221 0 .233-.011.233-.233 0-.22.011-.232.233-.232.221 0 .233-.011.233-.232 0-.222.011-.233.233-.233.227 0 .232-.006.232-.265 0-.26.006-.266.233-.266h.233v-.862h-.233c-.221 0-.233-.012-.233-.233v-.232h-.931V7.3h-.932v-.19c0-.18-.019-.192-.35-.231-.367-.044-4.496-.04-4.926.005zM23.964 9.819c0 .193.005.196.466.241.454.045.466.05.466.231 0 .18.014.187.432.232l.433.046v.914h.195c.19 0 .195.01.236.415.023.228.033 1.46.022 2.738l-.02 2.323-.216.02-.217.021v.846l-.216.021c-.19.019-.22.047-.237.237-.02.197-.04.216-.25.216-.217 0-.229.011-.229.232v.232h-.59c-.324 0-.728.02-.898.042-.286.04-.31.057-.31.233 0 .172-.02.19-.228.19-.21 0-.23-.018-.25-.216l-.02-.216-.683-.018-.682-.02v-.46h-.932v-.929h-.467l.017-2.97.017-2.97.217-.021.216-.02v-.855h.233c.222 0 .233-.011.233-.233v-.232h.932v-.465h2.33v.195zm62.106 0c0 .189.01.194.43.239.42.045.429.05.449.254.017.18.048.211.232.229.185.018.215.048.233.232.018.186.048.215.237.233l.217.02v2.249h-5.911l-.046-.457a5.226 5.226 0 0 1 0-.897c.046-.422.054-.438.231-.438.178 0 .185-.013.229-.46.045-.46.046-.462.258-.482.186-.018.215-.047.234-.236l.02-.216h.857v-.465h2.33v.194zM9.652 16.692v1.162H9.42c-.222 0-.233.011-.233.232v.233H8.83c-.196 0-.495.018-.665.042-.286.039-.31.056-.31.232 0 .188-.004.19-.39.19-.214 0-.528.02-.698.042-.286.04-.31.057-.31.233v.19H5.06v-.193c0-.19-.007-.193-.466-.239l-.466-.046v-.226c0-.213-.012-.225-.233-.225h-.233v-2.256h.233c.221 0 .233-.012.233-.23v-.229l.483-.023a129.61 129.61 0 0 1 2.762-.036l2.28-.013v1.161zm46.114-1.118l.35.042v2.222l-.433.047c-.423.045-.433.05-.433.24v.194h-.932v.46l-.715.018-.716.02-.02.215-.022.216h-1.714l-.02-.216-.021-.216-.446-.02-.445-.019-.02-.212c-.019-.187-.048-.216-.238-.234l-.216-.02V16.46h.195c.172 0 .198-.026.217-.216.018-.19.047-.218.237-.236.19-.018.216-.045.216-.213 0-.192 0-.192.483-.215.915-.043 4.344-.048 4.693-.006zm69.162 2.328c-.226.024-.249.045-.249.221 0 .18-.02.196-.233.196-.222 0-.233.01-.233.232 0 .211-.017.232-.191.232-.18 0-.192.02-.232.349a8.388 8.388 0 0 0-.042.813c0 .255.019.621.042.813.039.327.053.348.228.348.162 0 .189.03.207.216.018.19.047.218.237.236.188.019.217.046.217.207v.186l.582.032c.321.018.828.019 1.128.001l.546-.032.02-.207c.018-.187.044-.21.27-.228l.249-.02v-.855h.4v-1.394h-.193c-.19 0-.194-.007-.24-.465l-.047-.464h-.851v-.465l-.683.011c-.375.006-.794.023-.932.037z" fill="#000"/></svg>