<svg width="88" height="32" viewBox="0 0 88 32" fill="none" xmlns="http://www.w3.org/2000/svg"><path fill-rule="evenodd" clip-rule="evenodd" d="M43.821.033a6.107 6.107 0 0 0-3.456 1.644c-.684.648-.997 1.067-1.385 1.852a6.52 6.52 0 0 0-.194 5.396c.756 1.852 2.275 3.167 4.312 3.73.347.096.555.112 1.499.113 1.024.002 1.13-.008 1.622-.141.597-.162 1.466-.56 1.964-.897a7.41 7.41 0 0 0 .76-.633 6.366 6.366 0 0 0 1.892-3.468c.122-.627.12-1.86-.005-2.443C50.27 2.559 48.38.639 45.833.11c-.501-.105-1.525-.144-2.012-.077zM26.585.219c-.262.183-.233.235 1.914 3.407l2.032 3.003v2.887c0 2.526.01 2.902.083 3.006.081.115.111.118 1.067.118.955 0 .986-.003 1.067-.118.072-.104.083-.481.083-3.022V6.597l1.997-2.923a242.629 242.629 0 0 0 2.06-3.04c.087-.167.078-.22-.07-.367-.13-.13-.142-.131-1.117-.131-.863 0-1 .012-1.094.094-.059.051-.713.983-1.455 2.07a111.063 111.063 0 0 1-1.412 2.045c-.05.053-.362-.368-1.476-1.995-.777-1.135-1.461-2.097-1.52-2.138-.165-.116-1.992-.11-2.159.007zm26.866.09c-.123.175-.125 7.802-.002 8.508.297 1.697 1.535 3.174 3.125 3.726 1.12.388 2.5.356 3.583-.084 1.36-.553 2.43-1.78 2.849-3.265.119-.424.12-.462.137-4.589.015-3.702.007-4.175-.067-4.288-.083-.127-.09-.128-1.064-.128-.881 0-.988.01-1.068.098-.08.09-.089.438-.09 3.888-.002 4.191-.012 4.333-.328 4.974a2.489 2.489 0 0 1-1.561 1.28c-.152.04-.492.072-.757.072-1.025 0-1.837-.514-2.259-1.43-.263-.57-.277-.817-.28-4.906-.001-3.61-.006-3.803-.1-3.887-.083-.076-.24-.089-1.066-.089-.94 0-.97.004-1.052.12zm-7.704 2.178a4.221 4.221 0 0 1 2.788 2.886c.152.545.139 1.665-.025 2.19-.23.733-.516 1.206-1.05 1.738-.55.545-.894.768-1.566 1.008-.446.16-.507.167-1.27.167-.697 0-.851-.016-1.172-.123-1.08-.362-1.878-1.022-2.401-1.988-.303-.557-.42-1.008-.45-1.736-.041-.978.167-1.727.703-2.533.54-.812 1.495-1.47 2.451-1.689.493-.113 1.51-.072 1.992.08zM.367 15.099c-.098.098-.107.178-.107.98 0 .778.01.883.098.962.09.082 1.667.088 21.607.088h21.509v7.233c0 6.939.004 7.236.098 7.32.083.076.237.09 1.032.09.723 0 .959-.018 1.039-.077.102-.074.104-.219.118-7.32l.014-7.246h20.742c20.027 0 20.745-.003 20.83-.098.075-.082.09-.232.09-.961 0-.793-.01-.873-.108-.971-.107-.107-.178-.107-43.48-.107-43.304 0-43.375 0-43.482.107zm5.241 4.092l-.454.08c-.877.151-2.04.688-2.77 1.277-2.807 2.27-3.194 6.474-.849 9.22 1.853 2.167 4.983 2.825 7.523 1.58.843-.414 1.707-1.119 1.675-1.366-.025-.185-1.196-1.417-1.348-1.417-.065 0-.274.11-.464.245-1.466 1.04-3.088 1.141-4.524.282-.89-.534-1.632-1.63-1.842-2.725-.1-.52-.075-1.388.054-1.89.345-1.347 1.353-2.475 2.577-2.882 1.253-.417 2.755-.123 3.827.75.356.29.405.268 1.108-.48.731-.78.745-.823.368-1.158-.828-.732-1.73-1.197-2.76-1.42-.367-.08-1.838-.146-2.12-.096zm11.532.052c-2.32.46-4.194 2.2-4.866 4.519a6.673 6.673 0 0 0 .37 4.618c.628 1.324 1.85 2.507 3.178 3.074a6.306 6.306 0 0 0 5.3-.136c.706-.347 1.096-.633 1.708-1.255.842-.855 1.34-1.726 1.639-2.87.185-.708.233-1.99.103-2.738-.403-2.313-1.991-4.207-4.17-4.97a7.063 7.063 0 0 0-.929-.246c-.564-.098-1.829-.096-2.332.004zm9.95.015c-.081.09-.089.597-.088 6.212 0 3.363.019 6.14.04 6.173.1.148.3.182 1.098.182.754 0 .838-.01.966-.11l.14-.111.015-3.907.013-3.906 3.681 4.097 3.681 4.097h.282c.505 0 .459.636.459-6.342 0-5.886-.004-6.15-.098-6.234-.083-.075-.236-.089-1.006-.089-.7 0-.932.018-1.012.076-.1.073-.105.192-.13 3.86l-.027 3.785-3.657-3.94-3.658-3.941h-.305c-.228 0-.328.025-.394.098zm42.563.008c-2.538.548-4.412 2.492-4.927 5.11-.124.631-.122 1.859.004 2.452.278 1.303.849 2.391 1.712 3.261a6.301 6.301 0 0 0 8.968.018c.894-.9 1.457-1.955 1.736-3.252.134-.625.135-1.936.002-2.554-.44-2.04-1.667-3.636-3.483-4.528-.909-.446-1.456-.571-2.594-.593-.776-.015-1.019 0-1.418.085zm-16.54.135l-.12.085v12.172l.12.083c.095.067.287.084.982.084.791 0 .875-.01 1.003-.11l.14-.111.015-2.334.014-2.335h1.925l1.177 2.362c.647 1.298 1.21 2.399 1.25 2.444.061.07.24.084 1.136.084 1.01 0 1.069-.006 1.176-.113.08-.08.104-.154.083-.254-.016-.077-.573-1.16-1.237-2.407-.664-1.246-1.2-2.27-1.193-2.278a7.11 7.11 0 0 1 .309-.159c.975-.485 1.802-1.405 2.09-2.324.567-1.808-.255-3.7-1.987-4.57-.732-.37-.679-.364-3.874-.385-2.579-.017-2.9-.01-3.008.066zm27.436.002l-.119.084v6.062c0 5.99.001 6.063.107 6.169.105.104.178.107 3.425.107h3.319l.13-.132c.129-.127.132-.153.132-.928 0-.724-.01-.81-.11-.937l-.11-.14-2.31-.014-2.31-.014-.013-5.076-.013-5.077-.113-.093c-.098-.081-.235-.094-1.005-.094-.72 0-.914.016-1.01.083zm-61.497 2.132c.824.157 1.458.498 2.096 1.125.686.674 1.064 1.423 1.205 2.387.296 2.024-1.077 4.027-3.094 4.515-.484.117-1.375.117-1.858 0a5.404 5.404 0 0 1-.882-.341c-.43-.21-.583-.325-.99-.733-.546-.55-.824-.986-1.02-1.606-.204-.641-.265-1.221-.187-1.78.133-.954.5-1.733 1.123-2.38.965-1.003 2.29-1.44 3.607-1.187zm39.838.126c.626.308.968.858.968 1.56 0 .723-.386 1.324-1.051 1.633-.275.128-.296.13-1.923.13H55.24v-1.727c0-.95.017-1.745.038-1.767.022-.02.762-.03 1.646-.022l1.608.016.358.177zm13.01-.078a4.2 4.2 0 0 1 2.389 1.705c.802 1.18.915 2.731.296 4.058-.724 1.552-2.44 2.506-4.119 2.291-2.691-.345-4.291-3.135-3.248-5.663.219-.53.496-.933.94-1.367.575-.562 1.178-.887 1.977-1.065.44-.098 1.346-.077 1.765.041z" fill="#000"/></svg>