<svg width="146" height="45" viewBox="0 0 146 45" fill="none" xmlns="http://www.w3.org/2000/svg"><path fill-rule="evenodd" clip-rule="evenodd" d="M82.532.012c-.52.021-.657.047-.657.125 0 .076-.097.099-.43.099-.556 0-.85.06-.85.176 0 .07-.116.093-.472.093-.427 0-.471.013-.471.135 0 .112-.045.134-.27.134-.195 0-.27.028-.27.101 0 .07-.07.101-.235.101-.191 0-.236.026-.236.135 0 .112-.045.134-.27.134-.19 0-.27.029-.27.098 0 .059-.094.116-.235.142-.13.025-.236.085-.236.135s-.105.11-.236.135c-.135.025-.236.084-.236.137 0 .052-.06.094-.135.094-.074 0-.134.044-.134.098 0 .058-.095.115-.236.142-.135.025-.236.084-.236.138 0 .051-.048.093-.107.093-.06 0-.124.06-.143.135-.02.074-.092.134-.162.134-.082 0-.127.048-.127.135 0 .109-.045.135-.236.135-.19 0-.236.025-.236.134 0 .09-.045.135-.135.135-.075 0-.134.045-.134.1a.101.101 0 0 1-.102.102c-.056 0-.1.06-.1.134 0 .09-.046.135-.135.135-.09 0-.135.045-.135.135 0 .09-.045.134-.135.134-.09 0-.135.045-.135.135 0 .074-.043.135-.095.135-.053 0-.116.09-.14.202-.025.11-.088.201-.14.201-.053 0-.096.058-.096.127 0 .07-.06.143-.135.162-.074.02-.135.084-.135.143 0 .059-.042.107-.093.107-.054 0-.113.1-.138.236-.027.14-.084.235-.143.235-.053 0-.098.06-.098.135 0 .09-.045.134-.134.134-.109 0-.135.045-.135.228 0 .171-.034.237-.135.263-.103.027-.135.092-.135.277 0 .17-.03.242-.1.242-.057 0-.102.06-.102.135 0 .09-.045.134-.135.134-.116 0-.134.045-.134.33 0 .271-.024.334-.135.363-.103.027-.135.092-.135.277 0 .17-.03.242-.101.242-.069 0-.101.07-.102.219-.001.32-.07.522-.175.522-.07 0-.094.104-.094.403 0 .3-.024.404-.093.404-.125 0-.174.213-.175.758 0 .337-.025.454-.093.454-.071 0-.1.27-.139 1.269-.061 1.64.012 3.443.14 3.443.067 0 .091.118.092.454 0 .546.05.758.175.758.071 0 .093.118.093.497 0 .44.016.5.135.532.103.027.135.092.135.277 0 .17.03.242.101.242.061 0 .101.063.101.16 0 .303.085.58.177.58.06 0 .093.081.093.236 0 .19.025.236.134.236.11 0 .135.044.135.235 0 .158.031.236.095.236.059 0 .113.104.141.27.028.165.082.268.14.268.053 0 .096.06.096.135 0 .074.044.135.098.135.059 0 .116.094.142.235.024.13.083.236.13.236s.102.06.121.134c.02.075.084.135.143.135.078 0 .107.065.107.236 0 .19.026.235.135.235.09 0 .135.045.135.135 0 .09.045.134.134.134.075 0 .135.045.135.102 0 .055.046.1.101.1.056 0 .101.06.101.135 0 .09.045.135.135.135.09 0 .135.045.135.134 0 .074.042.135.093.135s.11.06.129.135c.019.074.08.134.134.134.055 0 .116.06.135.135.02.074.084.134.143.134.059 0 .107.046.107.102 0 .055.06.1.135.1.09 0 .135.045.135.135 0 .09.045.135.135.135.074 0 .134.045.134.1 0 .056.046.102.101.102.056 0 .101.06.101.134 0 .11.045.135.236.135.171 0 .236.03.236.107 0 .06.06.123.135.143.074.019.135.073.135.12 0 .048.106.106.236.13.14.027.235.084.235.142 0 .054.062.098.137.098.076 0 .154.045.175.1.021.054.142.118.268.142.126.023.229.081.229.129 0 .047.106.105.236.13.141.026.236.083.236.142 0 .074.091.098.37.098.326 0 .371.016.371.134 0 .119.045.135.37.135.27 0 .371.025.371.093 0 .096.28.176.615.176.12 0 .194.036.194.093 0 .072.159.1.678.12.5.02.694.054.739.127.049.08.313.102 1.39.12 1.186.02 1.34.01 1.414-.091.066-.09.234-.121.795-.15.507-.026.712-.06.712-.12 0-.056.163-.101.472-.132.336-.034.471-.075.471-.142 0-.069.098-.094.37-.094.326 0 .371-.016.371-.135 0-.112.045-.134.27-.134.191 0 .27-.029.27-.098 0-.059.094-.116.235-.142.136-.026.236-.084.236-.138 0-.062.08-.093.236-.093.191 0 .236-.026.236-.135 0-.108.045-.135.228-.135.171 0 .237-.033.263-.134a.18.18 0 0 1 .177-.135c.078 0 .14-.043.14-.098 0-.058.095-.115.236-.142.136-.025.236-.084.236-.138 0-.051.061-.093.135-.093.09 0 .135-.045.135-.135 0-.075.045-.134.101-.134.056 0 .101-.042.101-.094 0-.053.1-.112.236-.138.141-.026.236-.083.236-.142 0-.053.06-.098.135-.098.09 0 .134-.045.134-.134 0-.09.045-.135.135-.135.09 0 .135-.045.135-.134 0-.09.045-.135.135-.135.075 0 .134-.045.134-.101 0-.056.046-.101.102-.101.056 0 .1-.06.1-.135 0-.09.045-.134.135-.134.09 0 .135-.045.135-.135 0-.074.044-.135.098-.135.059 0 .116-.094.142-.235.025-.13.083-.236.13-.236.048 0 .102-.06.121-.134.02-.074.084-.135.143-.135.063 0 .107-.056.107-.135 0-.074.044-.134.098-.134.06 0 .116-.095.143-.236.024-.13.082-.236.13-.236.047 0 .101-.06.12-.134.02-.074.084-.135.143-.135.078 0 .108-.065.108-.235 0-.191.025-.236.134-.236.11 0 .135-.045.135-.236 0-.158.032-.235.095-.235.059 0 .113-.104.141-.27.028-.165.082-.269.14-.269.065 0 .096-.077.096-.235 0-.191.026-.236.135-.236.118 0 .135-.045.135-.37 0-.27.025-.37.092-.37.093 0 .177-.278.177-.58 0-.098.04-.16.101-.16.075 0 .101-.078.101-.295 0-.429.071-.716.177-.716.074 0 .093-.172.093-.84 0-.67.019-.842.092-.842.138 0 .177-.313.177-1.414s-.039-1.414-.177-1.414c-.073 0-.092-.172-.092-.841 0-.67-.02-.841-.093-.841-.106 0-.177-.287-.177-.716 0-.217-.026-.294-.1-.294-.062 0-.102-.063-.102-.16 0-.303-.084-.58-.177-.58-.063 0-.093-.086-.093-.27 0-.184-.029-.27-.093-.27-.102 0-.174-.199-.175-.487 0-.114-.038-.185-.096-.185-.059 0-.113-.104-.14-.27-.029-.165-.083-.269-.142-.269-.052 0-.095-.06-.095-.134 0-.075-.044-.135-.098-.135-.058 0-.116-.095-.142-.236-.024-.13-.083-.235-.13-.235-.048 0-.106-.106-.13-.236-.027-.14-.084-.236-.143-.236-.054 0-.098-.06-.098-.134 0-.09-.045-.135-.135-.135-.109 0-.135-.045-.135-.235 0-.191-.025-.236-.134-.236-.09 0-.135-.045-.135-.135 0-.074-.045-.134-.101-.134-.056 0-.101-.06-.101-.135 0-.09-.045-.134-.135-.134-.09 0-.135-.045-.135-.135 0-.09-.045-.135-.135-.135-.075 0-.134-.045-.134-.1a.101.101 0 0 0-.102-.102c-.056 0-.1-.06-.1-.134 0-.09-.046-.135-.135-.135-.09 0-.135-.045-.135-.135 0-.09-.045-.134-.135-.134-.075 0-.135-.045-.135-.101a.101.101 0 0 0-.1-.101c-.057 0-.102-.06-.102-.135 0-.09-.045-.134-.135-.134-.09 0-.134-.045-.134-.135 0-.09-.045-.135-.135-.135-.074 0-.135-.044-.135-.098 0-.058-.095-.115-.236-.142-.135-.025-.236-.084-.236-.137 0-.052-.06-.094-.134-.094-.09 0-.135-.045-.135-.134 0-.109-.045-.135-.228-.135-.171 0-.237-.034-.263-.135-.02-.074-.084-.134-.143-.134a.104.104 0 0 1-.107-.101c0-.07-.07-.101-.228-.101-.172 0-.237-.034-.264-.135-.027-.103-.092-.135-.277-.135-.17 0-.242-.03-.242-.1 0-.065-.095-.115-.27-.143-.162-.026-.27-.08-.27-.135 0-.056-.073-.093-.185-.094-.288-.001-.488-.073-.488-.175 0-.069-.105-.093-.404-.093-.297 0-.405-.025-.405-.092 0-.096-.405-.177-.885-.177-.187 0-.26-.029-.26-.101 0-.08-.097-.101-.462-.101-.253 0-.867-.011-1.364-.025-.497-.013-1.2-.012-1.56.003zM4.92.135c0 .085-.163.1-1.068.1-1.327 0-1.897.054-1.897.179 0 .072-.199.091-.977.091H0v.505c0 .378.023.505.09.505.122 0 .18.961.18 2.972 0 1.322.014 1.538.1 1.538.09 0 .102.882.102 7.539s-.012 7.54-.101 7.54c-.087 0-.101.226-.101 1.638 0 .9-.02 2.143-.045 2.76-.044 1.117-.043 1.121.101 1.121.08 0 .146.041.146.091 0 .097.528.178 1.155.178.23 0 .327.027.327.09 0 .072.264.1 1.224.132.9.03 1.237.063 1.277.128.084.135 3.766.17 3.766.034 0-.102.68-.18 1.567-.181.36 0 .455-.022.455-.102 0-.071.073-.1.252-.101.515-.001.96-.084.96-.177 0-.07.125-.092.506-.092.46 0 .506-.012.506-.135 0-.121.045-.134.471-.134.362 0 .472-.022.472-.095 0-.059.104-.113.27-.14.165-.029.27-.083.27-.141 0-.056.066-.095.16-.095.303 0 .58-.085.58-.177 0-.061.081-.093.236-.093.164 0 .236-.03.236-.1 0-.065.095-.115.27-.143.149-.024.27-.081.27-.128s.105-.105.235-.13c.141-.025.236-.083.236-.141 0-.067.074-.098.236-.098.19 0 .236-.026.236-.135 0-.09.045-.134.134-.134.075 0 .135-.042.135-.094 0-.053.1-.112.236-.138.141-.026.236-.083.236-.142 0-.053.057-.098.127-.098s.142-.06.162-.134c.02-.074.084-.135.143-.135.059 0 .107-.042.107-.093 0-.054.1-.113.236-.138.141-.026.236-.084.236-.142 0-.054.06-.098.135-.098.09 0 .134-.045.134-.135 0-.09.045-.134.135-.134.09 0 .135-.045.135-.135 0-.075.045-.135.1-.135a.101.101 0 0 0 .102-.1c0-.057.06-.102.135-.102.09 0 .134-.044.134-.134 0-.09.045-.135.135-.135.09 0 .135-.045.135-.134 0-.074.044-.135.098-.135.059 0 .116-.095.142-.236.025-.13.083-.235.13-.235s.102-.06.121-.135c.02-.074.084-.135.143-.135.062 0 .107-.056.107-.134 0-.074.044-.135.098-.135.059 0 .116-.094.143-.235.025-.135.084-.236.137-.236.052 0 .094-.06.094-.135 0-.074.044-.134.098-.134.059 0 .116-.095.142-.236.025-.13.084-.235.132-.235.05 0 .107-.117.133-.27.028-.165.083-.269.141-.269.059 0 .096-.07.096-.185.002-.288.073-.488.176-.488.063 0 .093-.085.093-.27 0-.183.03-.269.093-.269.102 0 .176-.284.176-.681 0-.177.03-.261.094-.261.066 0 .106-.143.14-.505.035-.368.073-.505.143-.505.078 0 .095-.18.095-.976 0-.783.018-.976.093-.976.134 0 .177-.309.177-1.279s-.043-1.279-.177-1.279c-.075 0-.093-.193-.093-.976 0-.783-.018-.976-.093-.976-.106 0-.177-.287-.177-.715 0-.217-.026-.295-.1-.295-.07 0-.102-.07-.103-.218 0-.32-.069-.522-.175-.522-.068 0-.093-.1-.093-.37 0-.326-.017-.37-.135-.37-.112 0-.135-.045-.135-.27 0-.19-.028-.27-.098-.27-.058 0-.116-.094-.142-.235-.025-.135-.084-.235-.138-.235-.051 0-.093-.06-.093-.135 0-.074-.045-.135-.099-.135-.058 0-.115-.094-.142-.235-.024-.13-.083-.236-.13-.236s-.101-.06-.12-.134c-.02-.074-.08-.135-.136-.135-.06 0-.117-.092-.144-.236-.026-.14-.084-.235-.142-.235-.054 0-.098-.06-.098-.135 0-.09-.045-.134-.135-.134-.09 0-.135-.045-.135-.135 0-.075-.045-.135-.1-.135a.101.101 0 0 1-.102-.1c0-.057-.06-.102-.135-.102-.09 0-.135-.045-.135-.134 0-.09-.044-.135-.134-.135-.09 0-.135-.045-.135-.135 0-.09-.045-.134-.135-.134-.074 0-.135-.043-.135-.096 0-.052-.09-.115-.202-.14-.111-.024-.202-.087-.202-.14 0-.052-.057-.095-.127-.095s-.142-.06-.162-.135a.18.18 0 0 0-.176-.135c-.078 0-.141-.043-.141-.095 0-.053-.091-.116-.203-.14-.11-.025-.202-.088-.202-.14 0-.065-.078-.096-.242-.096-.185 0-.25-.031-.277-.134-.027-.102-.092-.135-.264-.135-.151 0-.228-.032-.228-.095 0-.059-.103-.113-.27-.14-.165-.029-.269-.083-.269-.141 0-.063-.076-.095-.228-.095-.171 0-.236-.034-.263-.135-.03-.112-.092-.135-.378-.135-.247 0-.344-.026-.344-.092 0-.092-.277-.177-.58-.177-.098 0-.16-.04-.16-.1 0-.078-.085-.102-.355-.103-.448 0-.657-.057-.657-.175 0-.072-.135-.093-.606-.093-.466 0-.607-.021-.607-.091 0-.114-.552-.178-1.526-.178-.575 0-.697-.018-.697-.101 0-.088-.3-.101-2.292-.101-1.991 0-2.29.013-2.29.1zm127.227 0c0 .078-.088.1-.387.101-.638.001-1.095.075-1.095.177 0 .069-.118.092-.464.092-.407 0-.468.016-.499.135-.027.103-.092.134-.278.134-.17 0-.242.03-.242.101 0 .062-.063.101-.16.101-.304 0-.581.085-.581.177 0 .06-.08.092-.228.092-.172 0-.237.034-.263.135a.18.18 0 0 1-.177.135c-.078 0-.141.043-.141.098 0 .058-.095.115-.236.142-.129.024-.236.083-.236.13s-.106.106-.235.13c-.142.027-.236.084-.236.142 0 .054-.061.098-.135.098-.075 0-.135.045-.135.101a.101.101 0 0 1-.101.101c-.056 0-.101.06-.101.135 0 .09-.045.134-.135.134-.09 0-.135.045-.135.135 0 .09-.044.135-.134.135-.075 0-.135.045-.135.1 0 .056-.048.102-.107.102s-.124.06-.143.134c-.019.074-.08.135-.135.135-.055 0-.115.06-.135.134-.019.074-.077.135-.128.135-.051 0-.093.06-.093.135 0 .09-.045.134-.135.134-.075 0-.135.045-.135.101a.101.101 0 0 1-.101.101c-.056 0-.101.06-.101.135 0 .09-.045.135-.135.135-.109 0-.135.044-.135.235 0 .17-.029.236-.107.236-.059 0-.123.06-.143.134-.019.074-.073.135-.121.135-.047 0-.105.106-.13.236-.026.14-.083.235-.142.235-.054 0-.098.062-.098.137 0 .075-.045.154-.099.175-.055.02-.119.14-.142.267-.024.126-.082.229-.129.229-.048 0-.106.106-.131.236-.026.14-.083.235-.142.235-.074 0-.098.091-.098.37 0 .326-.016.37-.135.37-.118 0-.135.046-.135.37 0 .27-.025.371-.092.371-.093 0-.177.277-.177.58 0 .093-.04.16-.094.16-.072 0-.1.14-.118.577-.019.464-.047.59-.142.643-.102.058-.118.176-.118.904 0 .7-.017.838-.101.838-.087 0-.101.243-.101 1.784s.014 1.784.101 1.784c.085 0 .101.153.101.976 0 .786.018.976.093.976.119 0 .175.209.176.656 0 .258.026.354.095.354.067 0 .108.135.142.471.033.336.074.471.141.471.069 0 .094.098.094.37 0 .326.017.37.135.37.112 0 .135.046.135.27 0 .187.029.27.095.27.059 0 .113.103.141.269.028.165.082.269.14.269.062 0 .096.074.096.208 0 .152.036.218.134.244.102.026.135.091.135.262 0 .183.027.228.135.228.109 0 .135.045.135.236 0 .17.029.235.107.235.059 0 .123.061.143.135.019.074.077.135.128.135.051 0 .093.06.093.134 0 .074.042.135.094.135.051 0 .109.06.128.135.019.074.082.134.14.134.066 0 .12.087.148.236.026.135.085.235.138.235.052 0 .094.046.094.101 0 .056.06.101.134.101.088 0 .135.045.135.128 0 .091.065.139.236.17.141.027.236.084.236.143 0 .054.061.098.135.098.09 0 .134.045.134.134 0 .09.045.135.135.135.074 0 .135.044.135.098 0 .059.095.116.236.142.135.025.236.084.236.138 0 .051.06.093.135.093.089 0 .134.045.134.135 0 .109.045.135.236.135.162 0 .236.03.236.098 0 .058.095.115.236.142.135.025.236.084.236.137 0 .063.08.094.242.094.185 0 .25.031.277.134.028.106.092.135.297.135.178 0 .262.03.262.093s.122.109.371.14c.239.03.37.078.37.135 0 .064.151.096.544.114.43.02.558.049.61.142.06.107.247.116 2.283.116 1.954 0 2.224-.012 2.277-.106.046-.082.217-.116.744-.145.479-.026.685-.062.685-.12 0-.055.175-.1.506-.131.368-.035.505-.073.505-.143 0-.066.082-.095.27-.095.184 0 .269-.03.269-.093 0-.102.2-.174.489-.175.114 0 .185-.038.185-.096 0-.059.104-.113.27-.14.165-.029.269-.083.269-.141 0-.064.078-.095.236-.095.191 0 .236-.026.236-.135 0-.108.045-.135.228-.135.171 0 .237-.033.263-.134a.18.18 0 0 1 .176-.135c.079 0 .141-.043.141-.098 0-.058.095-.115.236-.142.135-.025.236-.084.236-.138 0-.051.061-.093.135-.093.09 0 .135-.045.135-.135 0-.09.045-.134.134-.134.075 0 .135-.045.135-.101 0-.056.046-.101.101-.101.056 0 .101-.06.101-.135 0-.109.045-.135.236-.135s.236-.025.236-.134c0-.09.045-.135.135-.135.09 0 .135-.045.135-.134 0-.075.045-.135.101-.135a.102.102 0 0 0 .101-.101c0-.056.06-.101.135-.101.089 0 .134-.045.134-.135 0-.09.045-.134.135-.134.109 0 .135-.045.135-.236 0-.19.026-.236.135-.236.09 0 .134-.044.134-.134 0-.09.045-.135.135-.135.09 0 .135-.045.135-.134 0-.074.042-.135.093-.135s.109-.06.129-.135c.019-.074.083-.134.142-.134.078 0 .108-.065.108-.236v-.236h-.472c-.374 0-.472-.02-.472-.1 0-.076-.081-.101-.328-.101-.461 0-.75-.069-.75-.177 0-.07-.116-.093-.468-.093-.375 0-.482-.023-.534-.117-.052-.092-.18-.122-.61-.142-.378-.017-.544-.05-.544-.108 0-.054-.151-.1-.415-.128-.715-.075-.874-.059-.913.091-.02.075-.078.135-.129.135-.051 0-.093.06-.093.135 0 .108-.045.134-.228.134-.172 0-.237.034-.263.135-.02.074-.084.135-.143.135-.059 0-.107.042-.107.093 0 .054-.101.112-.236.138-.141.026-.236.083-.236.142 0 .07-.079.098-.27.098-.224 0-.269.022-.269.134 0 .113-.045.135-.27.135-.194 0-.269.028-.269.101 0 .072-.074.101-.253.102-.514 0-.96.083-.96.177 0 .074-.256.091-1.348.091-1.117 0-1.348-.016-1.348-.095 0-.07-.137-.108-.505-.142-.363-.034-.506-.074-.506-.14 0-.054-.068-.094-.16-.094-.303 0-.581-.084-.581-.177 0-.05-.061-.092-.135-.092-.074 0-.134-.044-.134-.098 0-.059-.095-.116-.236-.142-.135-.026-.236-.084-.236-.138 0-.051-.061-.093-.135-.093-.087 0-.135-.045-.135-.128 0-.091-.065-.139-.236-.17-.141-.027-.235-.084-.235-.143 0-.054-.058-.098-.128-.098-.092 0-.139-.065-.171-.236-.027-.14-.084-.235-.142-.235-.054 0-.098-.06-.098-.135 0-.09-.045-.134-.135-.134-.09 0-.135-.045-.135-.135 0-.075-.045-.135-.101-.135a.102.102 0 0 1-.101-.103.165.165 0 0 0-.099-.14c-.055-.022-.119-.142-.143-.268-.023-.126-.083-.23-.133-.23s-.111-.104-.135-.235c-.025-.135-.084-.235-.138-.235-.06 0-.094-.078-.094-.22-.002-.319-.07-.52-.176-.52-.068 0-.093-.1-.093-.371 0-.27-.025-.37-.093-.37-.113 0-.177-.293-.177-.816v-.396h8.752c4.814 0 8.844-.018 8.955-.04l.203-.041.049-1.468c.066-1.968-.015-4.51-.143-4.51-.068 0-.093-.104-.093-.395 0-.524-.063-.816-.177-.816-.069 0-.092-.115-.092-.463 0-.407-.017-.468-.135-.499-.103-.027-.135-.092-.135-.277 0-.17-.03-.242-.101-.242-.061 0-.101-.063-.101-.16 0-.303-.084-.58-.177-.58-.061 0-.093-.08-.093-.236 0-.19-.025-.236-.134-.236-.109 0-.135-.044-.135-.227 0-.171-.034-.237-.135-.263a.179.179 0 0 1-.135-.176c0-.08-.043-.141-.101-.141-.07 0-.101-.071-.101-.236 0-.19-.025-.235-.135-.235-.089 0-.134-.045-.134-.135 0-.074-.044-.135-.098-.135-.059 0-.116-.094-.143-.235-.025-.135-.084-.236-.137-.236-.052 0-.094-.048-.094-.107 0-.06-.061-.123-.135-.143-.074-.02-.135-.073-.135-.12s-.06-.101-.134-.12c-.074-.02-.135-.084-.135-.143a.104.104 0 0 0-.101-.107c-.056 0-.101-.06-.101-.135 0-.09-.045-.135-.135-.135-.078 0-.135-.045-.135-.107 0-.059-.061-.123-.135-.142-.074-.02-.134-.078-.134-.129 0-.05-.061-.093-.135-.093-.09 0-.135-.045-.135-.134 0-.104-.045-.135-.194-.135-.138 0-.205-.04-.23-.135a.18.18 0 0 0-.176-.134c-.078 0-.141-.042-.141-.094 0-.053-.101-.112-.236-.138-.141-.026-.236-.083-.236-.142 0-.066-.073-.098-.228-.098-.171 0-.237-.033-.263-.134-.027-.103-.092-.135-.278-.135-.17 0-.242-.03-.242-.1 0-.062-.062-.102-.16-.102-.303 0-.581-.084-.581-.176 0-.068-.101-.093-.371-.093-.267 0-.37-.025-.37-.092 0-.107-.464-.176-1.196-.177-.389 0-.489-.02-.489-.101 0-.087-.228-.101-1.651-.101s-1.651.014-1.651.1zM31.402.882c0 .058-.059.122-.13.14-.077.02-.15.117-.174.23-.024.108-.086.195-.139.195-.053 0-.096.06-.096.135 0 .09-.045.135-.134.135-.09 0-.135.045-.135.134 0 .074-.042.135-.094.135-.05 0-.109.06-.128.135-.02.074-.084.134-.142.134-.063 0-.108.056-.108.135 0 .074-.044.134-.098.134-.059 0-.116.095-.142.236-.032.17-.08.236-.172.236-.082 0-.127.047-.127.134 0 .074-.042.135-.094.135-.053 0-.112.1-.137.235-.027.141-.084.236-.143.236-.054 0-.098.06-.098.135 0 .09-.045.134-.134.134-.09 0-.135.045-.135.135 0 .074-.042.135-.094.135-.053 0-.112.1-.138.235-.026.141-.083.236-.142.236-.067 0-.098.074-.098.235 0 .191-.026.236-.135.236-.09 0-.135.045-.135.135 0 .074-.042.134-.093.134-.054 0-.113.1-.138.236-.024.13-.085.235-.135.235s-.11.106-.135.236c-.026.141-.083.236-.142.236-.07 0-.098.078-.098.269 0 .224-.022.27-.135.27-.09 0-.134.044-.134.134 0 .075-.045.134-.102.134-.07 0-.1.07-.1.228 0 .171-.034.237-.135.263-.104.027-.135.092-.135.277 0 .167-.03.242-.098.242-.059 0-.116.095-.142.236-.026.135-.085.235-.138.235-.054 0-.094.069-.094.16 0 .303-.084.58-.177.58-.06 0-.092.081-.092.236 0 .158-.032.236-.095.236-.059 0-.113.104-.141.27-.028.165-.082.268-.14.268-.056 0-.096.068-.096.16 0 .304-.085.581-.177.581-.06 0-.093.08-.093.236 0 .155-.031.235-.092.235-.093 0-.177.277-.177.58 0 .098-.04.16-.101.16-.07 0-.102.07-.102.22-.002.32-.07.521-.176.521-.067 0-.093.099-.093.363 0 .305-.02.367-.135.397-.114.03-.134.092-.134.412 0 .29-.024.376-.102.376-.061 0-.1.063-.1.16 0 .294-.084.58-.17.58-.056 0-.094.148-.113.445-.02.327-.058.461-.142.508-.09.05-.115.162-.115.532 0 .352-.023.468-.092.468-.106 0-.177.287-.177.715 0 .217-.027.295-.101.295-.08 0-.102.095-.102.454-.001.545-.05.757-.176.757-.072 0-.093.14-.093.64 0 .494-.02.64-.092.64-.107 0-.176.462-.177 1.194 0 .389-.021.488-.102.488-.077 0-.1.085-.1.36 0 .74-.084 1.39-.179 1.39-.073 0-.091.206-.091 1.01v1.01h5.442l.041-.152a1.57 1.57 0 0 0 .042-.329c0-.098.046-.195.102-.217.084-.032.1-.224.1-1.151 0-.894.019-1.113.092-1.113.11 0 .177-.465.178-1.229 0-.418.02-.521.101-.521.078 0 .101-.086.101-.37v-.37h11.91l.043.413c.024.228.043.56.043.74 0 .246.026.327.101.327.085 0 .102.134.102.8 0 .912.044 1.22.176 1.22.075 0 .093.192.093.976v.976h5.93v-.37c0-.277-.024-.37-.096-.37-.08 0-.1-.199-.118-1.08-.017-.865-.042-1.092-.122-1.141-.075-.047-.106-.242-.125-.806-.019-.546-.048-.743-.112-.743-.062 0-.1-.21-.135-.74-.036-.565-.07-.741-.142-.741-.073 0-.093-.133-.093-.606 0-.471-.021-.606-.093-.606-.127 0-.175-.213-.176-.79 0-.373-.023-.489-.095-.489-.067 0-.108-.135-.142-.471-.034-.336-.074-.471-.141-.471-.069 0-.095-.096-.095-.354-.002-.447-.057-.656-.176-.656-.07 0-.093-.114-.093-.463 0-.407-.017-.468-.135-.499-.114-.03-.135-.092-.135-.412 0-.29-.023-.376-.1-.376-.062 0-.102-.063-.102-.16 0-.303-.084-.58-.177-.58-.067 0-.092-.102-.092-.37 0-.326-.017-.371-.135-.371-.119 0-.135-.045-.135-.37 0-.285-.023-.37-.101-.37-.071 0-.101-.072-.101-.242 0-.186-.032-.25-.135-.277-.11-.03-.135-.092-.135-.357 0-.264-.023-.327-.134-.356-.104-.027-.135-.091-.135-.277 0-.17-.03-.242-.101-.242-.062 0-.101-.062-.101-.16 0-.303-.085-.58-.177-.58-.061 0-.093-.08-.093-.236 0-.19-.026-.235-.135-.235-.112 0-.134-.045-.134-.27 0-.19-.029-.269-.098-.269-.06 0-.116-.094-.143-.236-.025-.134-.084-.235-.138-.235-.062 0-.093-.08-.093-.242 0-.185-.032-.25-.135-.277-.101-.027-.135-.092-.135-.263 0-.155-.031-.228-.098-.228-.058 0-.116-.094-.142-.235-.024-.13-.083-.236-.13-.236-.048 0-.106-.106-.13-.236-.027-.14-.084-.235-.143-.235-.06 0-.098-.066-.098-.169 0-.102-.038-.168-.098-.168-.059 0-.116-.094-.142-.235-.025-.13-.083-.236-.13-.236-.048 0-.107-.106-.13-.236-.027-.14-.084-.235-.143-.235-.054 0-.098-.06-.098-.135 0-.09-.045-.134-.135-.134-.11 0-.135-.045-.135-.236 0-.17-.03-.236-.107-.236-.06 0-.123-.06-.143-.134-.02-.074-.074-.135-.12-.135-.048 0-.106-.106-.13-.236-.027-.14-.084-.235-.143-.235-.054 0-.098-.06-.098-.135 0-.09-.045-.134-.135-.134-.09 0-.135-.045-.135-.135 0-.074-.042-.135-.093-.135-.054 0-.113-.1-.138-.235-.026-.141-.084-.236-.142-.236-.054 0-.098-.06-.098-.134 0-.09-.045-.135-.135-.135-.075 0-.135-.045-.135-.101a.101.101 0 0 0-.1-.101c-.057 0-.102-.06-.102-.135 0-.09-.045-.134-.135-.134-.09 0-.134-.045-.134-.135 0-.075-.045-.135-.102-.135-.055 0-.1-.048-.1-.107s-.061-.123-.136-.142c-.074-.02-.134-.077-.134-.129 0-.077-.45-.093-2.73-.093-2.452 0-2.729.011-2.729.108zm16.106 12.682v12.79h5.526V9.272l.151-.041c.253-.068.32-.049.32.092 0 .09.045.135.135.135.09 0 .135.045.135.134 0 .075.045.135.101.135.056 0 .101.046.101.101 0 .056.06.101.135.101.09 0 .135.045.135.135 0 .09.045.134.134.134.09 0 .135.045.135.135 0 .09.045.134.135.134.075 0 .135.045.135.101 0 .056.048.101.107.101.06 0 .123.061.143.135.02.074.077.135.128.135.051 0 .093.06.093.134 0 .09.045.135.135.135.075 0 .135.045.135.101a.1.1 0 0 0 .101.1c.056 0 .101.06.101.136 0 .09.045.134.135.134.09 0 .135.045.135.135 0 .09.045.134.134.134.09 0 .135.045.135.135 0 .075.045.135.101.135a.1.1 0 0 1 .101.1c0 .057.06.102.135.102.09 0 .135.045.135.134 0 .09.045.135.135.135.09 0 .135.045.135.135 0 .074.044.134.098.134.058 0 .115.095.142.236.025.135.084.235.138.235.051 0 .093.049.093.108s.06.123.135.142c.074.02.135.077.135.128 0 .052.045.094.1.094.057 0 .102.06.102.134 0 .09.045.135.135.135.09 0 .134.045.134.135 0 .074.045.134.099.134.058 0 .115.095.142.236.032.17.08.235.171.235.083 0 .128.048.128.135 0 .075.044.135.1.135.057 0 .102.06.102.134 0 .09.045.135.135.135.109 0 .134.045.134.235 0 .191.026.236.135.236.09 0 .135.045.135.135 0 .074.042.134.093.134.054 0 .113.1.138.236.027.14.084.235.142.235.054 0 .099.061.099.135 0 .09.044.135.134.135.108 0 .135.045.135.227 0 .172.034.237.135.264.074.019.135.083.135.142 0 .059.045.107.1.107.071 0 .102.071.102.236 0 .19.026.235.135.235.09 0 .134.045.134.135 0 .074.043.135.096.135.058 0 .112.103.14.269.028.166.082.27.14.27.062 0 .096.073.096.207 0 .152.037.218.135.244.101.026.135.092.135.263 0 .183.026.228.134.228.11 0 .135.044.135.235 0 .155.032.236.093.236.055 0 .11.107.135.27.028.173.079.268.144.268.07 0 .1.072.1.236 0 .19.025.235.135.235.112 0 .134.045.134.27 0 .185.03.269.094.269.054 0 .112.1.138.236.026.14.083.235.142.235.07 0 .098.079.098.27 0 .184.03.269.093.269.102 0 .174.2.176.488 0 .115.037.185.097.185.066 0 .11.116.142.37.032.248.078.37.14.37.06 0 .094.078.094.22.002.319.07.52.176.52.068 0 .093.1.093.371 0 .269.025.37.092.37.056 0 .11.107.136.27l.043.269h4.985v-12.58c0-6.918-.019-12.674-.042-12.79l-.042-.21H63.95v6.092c0 5.53-.01 6.092-.107 6.092-.06 0-.123-.06-.143-.134-.02-.075-.077-.135-.128-.135-.062 0-.093-.08-.093-.236 0-.19-.026-.235-.135-.235-.09 0-.135-.045-.135-.135 0-.074-.044-.135-.098-.135-.059 0-.116-.094-.142-.235-.026-.135-.084-.236-.138-.236-.052 0-.094-.06-.094-.134 0-.09-.045-.135-.134-.135-.09 0-.135-.045-.135-.135 0-.09-.045-.134-.135-.134-.109 0-.135-.045-.135-.236 0-.17-.03-.236-.107-.236-.06 0-.123-.06-.143-.134-.02-.074-.077-.135-.128-.135-.051 0-.093-.06-.093-.134 0-.09-.045-.135-.135-.135-.09 0-.135-.045-.135-.135 0-.074-.043-.134-.096-.134-.052 0-.115-.091-.14-.202-.024-.111-.087-.202-.14-.202-.053 0-.096-.06-.096-.135 0-.09-.045-.134-.134-.134-.09 0-.135-.045-.135-.135 0-.074-.042-.135-.093-.135-.052 0-.11-.06-.129-.134-.02-.074-.084-.135-.142-.135-.063 0-.108-.056-.108-.135 0-.09-.045-.134-.135-.134-.075 0-.135-.045-.135-.101a.101.101 0 0 0-.1-.101c-.057 0-.102-.06-.102-.135 0-.087-.045-.134-.127-.134-.092 0-.14-.065-.171-.236-.027-.141-.084-.236-.143-.236-.054 0-.098-.06-.098-.134 0-.09-.045-.135-.134-.135-.075 0-.135-.042-.135-.093s-.06-.109-.135-.128c-.074-.02-.135-.084-.135-.143 0-.059-.045-.107-.1-.107-.057 0-.102-.06-.102-.135 0-.09-.045-.134-.135-.134-.074 0-.135-.042-.135-.093 0-.052-.06-.11-.134-.129-.074-.02-.135-.083-.135-.142 0-.06-.046-.108-.101-.108-.056 0-.101-.06-.101-.134 0-.09-.045-.135-.135-.135-.074 0-.135-.042-.135-.093s-.06-.109-.135-.128c-.074-.02-.134-.08-.134-.135 0-.055-.061-.115-.135-.134-.074-.02-.135-.084-.135-.143 0-.059-.045-.107-.101-.107-.056 0-.101-.06-.101-.135 0-.09-.045-.134-.135-.134-.074 0-.135-.042-.135-.094 0-.05-.06-.109-.134-.128-.075-.02-.135-.083-.135-.142 0-.06-.046-.108-.101-.108-.056 0-.101-.06-.101-.134 0-.11-.045-.135-.236-.135s-.236-.026-.236-.135c0-.087-.045-.134-.127-.134-.07 0-.143-.06-.162-.135-.02-.074-.084-.134-.143-.134-.059 0-.107-.046-.107-.101 0-.056-.042-.101-.093-.101-.052 0-.11-.061-.129-.135-.02-.074-.083-.135-.142-.135-.06 0-.108-.045-.108-.1 0-.057-.06-.102-.135-.102-.09 0-.134-.045-.134-.134 0-.09-.045-.135-.135-.135-.09 0-.135-.045-.135-.134 0-.11-.045-.135-.236-.135-.19 0-.236-.026-.236-.135 0-.09-.045-.134-.134-.134-.075 0-.135-.042-.135-.093 0-.052-.06-.11-.135-.129-.074-.02-.135-.083-.135-.142 0-.074-.061-.108-.194-.108-.138 0-.205-.039-.23-.134a.18.18 0 0 0-.176-.135c-.08 0-.141-.043-.141-.1 0-.089-.307-.102-2.358-.102h-2.36v12.79zm50.54 0v12.79h5.526V9.272l.152-.041c.253-.068.32-.049.32.092 0 .09.045.135.134.135.075 0 .135.045.135.1 0 .056.049.102.108.102s.123.06.142.134c.02.074.077.135.129.135.051 0 .093.06.093.135 0 .09.045.134.135.134.075 0 .134.045.134.101 0 .056.049.101.108.101s.123.06.142.135c.02.074.078.134.129.134.051 0 .093.061.093.135 0 .09.045.135.135.135.09 0 .135.045.135.134 0 .09.045.135.135.135.074 0 .134.045.134.101a.1.1 0 0 0 .101.1c.057 0 .101.06.101.136 0 .09.045.134.135.134.09 0 .135.045.135.135 0 .09.045.134.135.134.075 0 .135.045.135.101a.1.1 0 0 0 .101.101c.056 0 .101.06.101.135 0 .09.045.135.134.135.09 0 .135.045.135.134 0 .074.042.135.093.135.052 0 .11.06.129.135.019.074.084.134.143.134.059 0 .107.048.107.107 0 .06.061.124.135.143.074.02.135.092.135.162s.043.127.095.127c.053 0 .116.09.14.202.025.11.088.202.14.202.053 0 .096.06.096.134 0 .09.045.135.135.135.09 0 .135.045.135.135 0 .09.045.134.135.134.089 0 .134.045.134.135 0 .074.042.134.094.134.054 0 .112.101.138.236.026.141.083.236.142.236.054 0 .098.06.098.134 0 .09.045.135.135.135.09 0 .135.045.135.135 0 .074.044.134.098.134.058 0 .115.095.142.236.025.135.084.235.138.235.051 0 .093.06.093.135 0 .09.045.134.135.134.109 0 .135.045.135.236 0 .156.031.236.093.236.051 0 .109.06.129.134.019.074.083.135.142.135.075 0 .108.063.108.208 0 .152.036.218.134.244.075.02.135.091.135.162 0 .07.044.127.098.127.059 0 .116.094.142.235.025.13.083.236.131.236.047 0 .106.106.13.235.027.141.084.236.142.236.067 0 .098.073.098.228 0 .17.034.236.135.263a.179.179 0 0 1 .135.176c0 .08.043.14.101.14.071 0 .101.072.101.236 0 .191.026.236.135.236.109 0 .135.045.135.235 0 .164.03.236.1.236.065 0 .115.095.143.27.024.148.081.269.128.269s.105.106.13.235c.026.141.083.236.142.236.065 0 .098.072.099.219.001.32.069.521.175.521.064 0 .093.085.093.27 0 .184.03.269.094.269.102 0 .174.2.175.488.001.12.037.185.102.185.073 0 .101.075.101.27 0 .223.023.268.135.268.118 0 .135.045.135.37 0 .27.025.37.092.37.093 0 .177.278.177.581 0 .098.04.16.101.16.078 0 .101.086.101.37v.37h5.257l-.001-12.638c-.001-6.95-.02-12.706-.042-12.79l-.04-.15h-5.645v6.091c0 6.047-.001 6.092-.135 6.092-.09 0-.135-.045-.135-.134 0-.075-.042-.135-.093-.135-.054 0-.113-.1-.138-.236-.027-.14-.084-.235-.143-.235-.053 0-.098-.06-.098-.135 0-.074-.044-.135-.098-.135-.058 0-.115-.094-.142-.235-.027-.144-.083-.236-.144-.236-.055 0-.116-.06-.135-.134-.02-.074-.077-.135-.129-.135-.051 0-.093-.06-.093-.135 0-.074-.044-.134-.098-.134-.058 0-.116-.095-.142-.236-.032-.17-.08-.236-.172-.236-.082 0-.127-.047-.127-.134 0-.075-.045-.135-.101-.135-.056 0-.101-.06-.101-.134 0-.09-.045-.135-.135-.135-.09 0-.135-.045-.135-.135 0-.074-.043-.134-.095-.134-.053 0-.116-.091-.14-.202-.025-.111-.088-.202-.141-.202-.052 0-.095-.06-.095-.135 0-.09-.045-.134-.135-.134-.09 0-.135-.045-.135-.135 0-.09-.045-.135-.135-.135-.089 0-.134-.045-.134-.134 0-.074-.042-.135-.094-.135-.051 0-.109-.06-.128-.135-.019-.074-.084-.134-.143-.134-.059 0-.107-.042-.107-.093s-.061-.11-.135-.129c-.097-.025-.135-.091-.135-.235s-.038-.21-.134-.236c-.075-.02-.135-.08-.135-.134 0-.055-.061-.116-.135-.135-.074-.02-.135-.084-.135-.143 0-.059-.045-.107-.101-.107-.056 0-.101-.06-.101-.134 0-.09-.045-.135-.135-.135-.075 0-.135-.045-.135-.101a.101.101 0 0 0-.101-.101c-.056 0-.101-.06-.101-.135 0-.09-.045-.134-.134-.134-.09 0-.135-.045-.135-.135 0-.09-.045-.135-.135-.135-.075 0-.135-.044-.135-.1a.101.101 0 0 0-.101-.102c-.056 0-.101-.06-.101-.134 0-.09-.045-.135-.135-.135-.09 0-.134-.045-.134-.134 0-.09-.045-.135-.135-.135-.074 0-.135-.042-.135-.093s-.061-.11-.135-.128c-.074-.02-.135-.084-.135-.143 0-.059-.045-.107-.101-.107-.056 0-.101-.06-.101-.135 0-.09-.045-.134-.135-.134-.074 0-.134-.042-.134-.094 0-.05-.061-.109-.135-.128-.074-.02-.135-.083-.135-.142a.107.107 0 0 0-.107-.108c-.059 0-.123-.06-.143-.134-.019-.074-.077-.135-.128-.135a.096.096 0 0 1-.094-.098c0-.058-.093-.115-.229-.14-.146-.028-.242-.09-.263-.172-.019-.07-.082-.128-.141-.128-.059 0-.108-.046-.108-.101 0-.056-.06-.101-.135-.101-.089 0-.134-.045-.134-.135 0-.074-.042-.135-.094-.135-.051 0-.109-.06-.128-.134-.019-.074-.084-.135-.143-.135-.059 0-.107-.045-.107-.1 0-.057-.06-.102-.135-.102-.09 0-.135-.045-.135-.134 0-.09-.045-.135-.134-.135-.075 0-.135-.044-.135-.098 0-.059-.095-.116-.236-.142-.13-.024-.236-.083-.236-.13s-.061-.101-.135-.12c-.074-.02-.134-.084-.134-.143 0-.063-.057-.108-.135-.108-.074 0-.135-.044-.135-.098 0-.058-.095-.115-.236-.142-.135-.025-.236-.084-.236-.137 0-.078-.391-.094-2.358-.094h-2.359v12.79zM9.188 4.992c.535.032.718.067.718.134s.114.091.43.091c.556 0 .85.061.85.177 0 .067.101.092.37.092.27 0 .372.025.372.093 0 .092.277.176.58.176.092 0 .16.04.16.094s.102.112.237.138c.14.026.236.083.236.142 0 .07.078.098.269.098.225 0 .27.022.27.134 0 .09.045.135.134.135.075 0 .135.042.135.093 0 .054.1.113.236.138.141.027.236.084.236.142 0 .054.06.098.135.098.09 0 .134.045.134.135 0 .09.045.134.135.134.075 0 .135.045.135.101a.1.1 0 0 0 .101.101c.056 0 .101.06.101.135 0 .09.045.135.135.135.09 0 .135.045.135.134 0 .09.045.135.134.135.09 0 .135.045.135.135 0 .074.042.134.093.134.05 0 .11.091.133.202.024.119.083.202.143.202.065 0 .103.062.103.168 0 .103.038.169.098.169.059 0 .116.094.142.235.024.13.084.236.132.236.05 0 .107.116.133.27.028.165.082.268.141.268.07 0 .095.091.095.333 0 .245.03.351.115.398.088.05.122.18.143.542.018.32.054.477.11.477.142 0 .217 1.822.128 3.087-.033.45-.069.616-.135.616-.068 0-.091.12-.091.468 0 .363-.025.481-.11.53-.072.039-.122.183-.144.406-.02.215-.065.346-.118.346-.094 0-.165.208-.166.488-.001.12-.037.185-.102.185-.058 0-.102.06-.102.141a.18.18 0 0 1-.134.176c-.102.027-.135.092-.135.263 0 .183-.027.228-.135.228-.09 0-.135.045-.135.135 0 .074-.043.134-.095.134-.053 0-.116.091-.14.202-.025.111-.088.202-.14.202-.053 0-.096.06-.096.135 0 .09-.045.134-.135.134-.09 0-.135.045-.135.135 0 .09-.045.135-.135.135-.074 0-.134.044-.134.098 0 .058-.095.115-.236.142-.171.032-.236.079-.236.171 0 .082-.048.127-.135.127-.075 0-.135.045-.135.101a.102.102 0 0 1-.103.101.165.165 0 0 0-.141.1c-.021.054-.142.118-.268.141-.126.024-.229.084-.229.134s-.105.11-.236.134c-.135.026-.236.085-.236.138 0 .06-.077.094-.219.095-.32 0-.522.069-.522.175 0 .063-.085.093-.27.093-.183 0-.269.03-.269.092 0 .103-.285.177-.682.177-.188 0-.262.029-.262.101 0 .08-.092.101-.429.101-.557 0-.85.061-.85.177 0 .076-.305.092-1.71.092h-1.71l-.043-.21c-.053-.268-.054-16.803 0-17.003.036-.134.09-.15.555-.171 1.052-.047 1.963-.05 2.66-.006zm125.839 0c.233.027.354.073.354.133 0 .059.079.092.219.093.32.001.522.07.522.175 0 .064.085.093.269.093.191 0 .27.029.27.098 0 .059.095.116.236.142.13.025.236.083.236.13 0 .048.106.106.236.13.141.027.235.084.235.143 0 .054.061.098.135.098.09 0 .135.045.135.134 0 .09.045.135.135.135.075 0 .135.045.135.1 0 .056.045.102.101.102.056 0 .101.06.101.135 0 .087.045.134.127.134.092 0 .14.065.172.236.026.14.083.235.142.235.054 0 .098.061.098.135 0 .074.043.135.095.135.058 0 .113.103.141.269.028.165.082.27.14.27.059 0 .096.07.096.184.002.289.074.488.176.488.069 0 .093.105.093.404 0 .3.024.404.093.404.052 0 .112.068.134.152.053.196.053 1.183 0 1.38l-.04.15h-12.575l-.045-.203c-.063-.285.024-.739.141-.739.073 0 .095-.114.095-.504 0-.46.012-.505.135-.505.112 0 .135-.045.135-.27 0-.194.028-.269.101-.269.068 0 .101-.068.101-.208 0-.152.036-.218.134-.243.102-.027.135-.092.135-.263 0-.183.027-.228.135-.228.09 0 .135-.045.135-.135 0-.074.042-.134.093-.134.054 0 .113-.101.138-.236.028-.149.083-.236.149-.236.057 0 .12-.06.139-.134.02-.074.078-.135.129-.135.051 0 .093-.045.093-.1 0-.056.048-.102.107-.102.06 0 .123-.058.141-.128a.253.253 0 0 1 .163-.162c.07-.019.128-.082.128-.141 0-.073.062-.107.194-.107.138 0 .205-.04.23-.135a.18.18 0 0 1 .176-.135c.081 0 .141-.043.141-.1 0-.069.068-.102.209-.102.152 0 .218-.036.244-.134.026-.101.092-.135.263-.135.148 0 .228-.032.228-.092 0-.097.28-.177.615-.177.123 0 .193-.035.193-.097s.09-.106.253-.123c.44-.046 2.192-.05 2.561-.006zm-50.187.124c0 .08.1.101.498.101.44 0 .501.015.533.135.03.112.092.134.378.134.25 0 .343.026.343.095 0 .059.104.113.27.14.166.029.27.083.27.141 0 .064.077.095.235.095.191 0 .236.026.236.135 0 .09.045.135.135.135.074 0 .135.044.135.098 0 .058.094.115.236.142.135.025.236.084.236.137 0 .052.06.094.134.094.09 0 .135.045.135.135 0 .09.045.134.135.134.09 0 .135.045.135.135 0 .075.044.134.1.134.056 0 .102.046.102.101 0 .056.06.101.135.101.09 0 .134.045.134.135 0 .078.045.135.108.135.059 0 .123.06.142.134.02.074.074.135.121.135s.106.106.13.235c.027.142.084.236.143.236.053 0 .098.06.098.135 0 .074.044.134.098.134.058 0 .115.095.142.236.024.13.084.236.132.236.05 0 .107.116.133.269.028.165.082.27.14.27.064 0 .096.077.096.235 0 .155.031.235.093.235.106 0 .174.202.175.522.001.139.035.219.093.219.09 0 .178.52.178 1.053 0 .156.031.226.101.226.087 0 .101.205.101 1.447 0 1.194-.016 1.447-.094 1.447-.069 0-.107.146-.142.539-.035.393-.073.538-.142.538-.068 0-.094.095-.094.343 0 .286-.022.349-.134.378-.111.03-.135.092-.135.356 0 .265-.024.327-.135.356-.103.027-.135.092-.135.277 0 .17-.03.242-.1.242-.057 0-.102.06-.102.135 0 .09-.045.135-.135.135-.109 0-.134.045-.134.235 0 .191-.026.236-.135.236-.09 0-.135.045-.135.134 0 .075-.045.135-.101.135-.056 0-.101.06-.101.135 0 .087-.045.134-.127.134-.093 0-.14.065-.172.236-.026.141-.084.236-.142.236a.098.098 0 0 0-.098.098c0 .058-.095.115-.236.142-.17.032-.236.079-.236.171 0 .082-.047.127-.135.127-.075 0-.135.045-.135.101 0 .056-.041.101-.093.101-.051 0-.109.06-.128.135a.18.18 0 0 1-.177.134c-.078 0-.14.044-.14.098 0 .059-.095.116-.236.142-.136.026-.236.085-.236.138 0 .062-.08.093-.236.093-.191 0-.236.026-.236.135 0 .112-.045.135-.27.135-.184 0-.27.03-.27.093 0 .106-.201.174-.521.175-.14 0-.22.034-.22.093 0 .07-.203.102-.865.138-1.15.063-2.571-.014-2.571-.139 0-.058-.08-.091-.22-.092-.32-.001-.521-.069-.521-.175 0-.068-.1-.093-.371-.093-.326 0-.37-.017-.37-.135 0-.109-.046-.135-.236-.135-.165 0-.236-.03-.236-.1 0-.058-.06-.101-.142-.101a.18.18 0 0 1-.176-.135c-.02-.075-.092-.135-.163-.135-.07 0-.18-.06-.242-.134-.064-.074-.155-.135-.202-.135-.047 0-.086-.048-.086-.107 0-.06-.06-.123-.135-.143-.074-.02-.135-.077-.135-.128 0-.051-.06-.093-.135-.093-.09 0-.134-.045-.134-.135 0-.09-.045-.134-.135-.134-.09 0-.135-.045-.135-.135 0-.075-.045-.135-.1-.135a.101.101 0 0 1-.102-.1c0-.057-.06-.102-.135-.102-.09 0-.135-.045-.135-.134 0-.074-.044-.135-.098-.135-.058 0-.115-.094-.142-.235-.025-.135-.084-.236-.138-.236-.051 0-.093-.06-.093-.135 0-.09-.045-.134-.135-.134-.112 0-.135-.045-.135-.27 0-.19-.028-.269-.098-.269-.058 0-.116-.094-.142-.235-.025-.135-.084-.236-.138-.236-.053 0-.094-.068-.094-.16 0-.303-.084-.58-.176-.58-.068 0-.093-.102-.093-.37 0-.271-.025-.371-.093-.371-.133 0-.175-.217-.176-.925 0-.509-.02-.623-.102-.623-.083 0-.1-.124-.1-.707s.017-.707.1-.707c.084 0 .101-.127.101-.737 0-.623.018-.747.115-.801.084-.047.121-.18.142-.508.02-.305.056-.445.116-.445.05 0 .107-.117.133-.269.028-.165.082-.269.14-.269.064 0 .096-.078.096-.236 0-.19.025-.235.135-.235.109 0 .134-.045.134-.236 0-.156.032-.235.094-.235.053 0 .112-.101.138-.236.026-.141.083-.236.142-.236.055 0 .098-.062.098-.14a.18.18 0 0 1 .135-.177c.074-.019.135-.077.135-.128 0-.051.044-.093.097-.093.059 0 .116-.093.142-.23.027-.146.09-.241.171-.262.07-.019.129-.082.129-.141 0-.06.045-.108.1-.108.057 0 .102-.06.102-.134 0-.11.045-.135.236-.135.19 0 .236-.025.236-.134 0-.09.044-.135.134-.135.075 0 .135-.045.135-.101 0-.056.06-.101.135-.101.09 0 .135-.045.135-.135 0-.109.044-.134.235-.134s.236-.026.236-.135c0-.09.045-.135.135-.135.075 0 .135-.044.135-.1 0-.062.063-.102.16-.102.303 0 .581-.084.581-.176 0-.06.08-.093.233-.093.149 0 .255-.04.297-.115.049-.087.18-.122.542-.142.35-.02.478-.052.478-.12 0-.076.204-.094 1.078-.094.914 0 1.078.015 1.078.101zm-50.693.614c.104.028.163.11.193.269.023.125.081.228.128.228.048 0 .106.106.13.235.027.141.084.236.143.236.054 0 .098.06.098.135 0 .074.044.134.098.134.059 0 .116.095.142.236.025.13.084.235.132.235.05 0 .108.117.133.27.029.165.083.269.141.269.064 0 .095.077.095.235 0 .191.026.236.135.236.11 0 .135.045.135.236 0 .158.031.235.095.235.059 0 .113.104.14.27.029.165.083.269.142.269.063 0 .095.077.095.235 0 .191.025.236.134.236.113 0 .135.045.135.27 0 .19.029.268.098.268.059 0 .116.095.142.236.026.135.085.236.138.236.065 0 .094.084.094.269 0 .224.022.27.135.27.117 0 .135.044.135.336 0 .245.025.336.095.336.058 0 .112.104.14.27.028.165.083.269.141.269.062 0 .095.076.096.219.002.32.07.521.175.521.069 0 .094.1.094.37s.025.37.092.37c.097 0 .177.28.177.615 0 .119.036.194.092.194.065 0 .102.13.127.441.064.79.633.703-4.607.703h-4.574v-.337c0-.249.025-.336.098-.336.069 0 .11-.117.143-.404.031-.275.075-.404.138-.404.066 0 .092-.097.092-.343 0-.286.023-.348.135-.378.114-.03.135-.092.135-.397 0-.264.025-.363.093-.363.102 0 .174-.2.176-.488 0-.12.037-.185.102-.185.072 0 .1-.074.1-.261 0-.205.03-.27.136-.297.112-.03.134-.092.134-.378 0-.298.018-.343.135-.343.11 0 .135-.045.135-.236 0-.164.03-.235.1-.235.074 0 .102-.075.102-.27 0-.224.022-.269.135-.269.112 0 .135-.045.135-.269 0-.19.028-.27.098-.27.058 0 .115-.094.142-.235.025-.135.084-.235.138-.235.062 0 .093-.08.093-.236 0-.19.026-.236.135-.236.112 0 .135-.045.135-.269 0-.19.028-.27.098-.27.058 0 .116-.094.142-.235.024-.13.083-.235.13-.235.048 0 .106-.106.13-.236.027-.141.084-.236.143-.236.067 0 .098-.074.098-.235 0-.19.026-.236.135-.236.099 0 .135-.045.135-.168 0-.102.038-.168.098-.168.058 0 .115-.095.142-.236.025-.135.084-.236.138-.236.051 0 .093-.06.093-.134 0-.14.067-.16.319-.093zM14.69 32.95c0 .09-.045.135-.134.135-.11 0-.135.045-.135.236 0 .164-.03.236-.101.236-.073 0-.101.074-.101.269 0 .194.028.269.1.269.071 0 .102.071.102.236 0 .152-.032.235-.09.235-.098 0-.18 1.152-.18 2.535 0 .574-.017.696-.1.696-.087 0-.102.17-.103 1.128 0 1.342-.048 1.834-.177 1.834-.06 0-.091-.082-.091-.235 0-.164-.031-.236-.1-.236-.066 0-.116-.095-.144-.27-.026-.162-.08-.269-.136-.269-.055 0-.093-.073-.093-.185-.002-.288-.073-.488-.176-.488-.068 0-.093-.1-.093-.37 0-.325-.016-.37-.135-.37-.112 0-.134-.045-.134-.27 0-.194-.028-.269-.101-.269-.062 0-.101-.062-.101-.16 0-.303-.085-.58-.177-.58-.061 0-.093-.08-.093-.232 0-.144-.041-.256-.108-.293-.065-.036-.122-.185-.144-.374-.021-.191-.069-.313-.121-.313-.049 0-.107-.119-.132-.27-.028-.165-.082-.268-.141-.268-.064 0-.095-.077-.095-.233 0-.143-.042-.255-.108-.292-.065-.036-.123-.185-.143-.368-.026-.227-.068-.316-.162-.34-.09-.024-.126-.095-.126-.242 0-.14-.033-.208-.101-.208-.056 0-.102-.058-.102-.129 0-.155-.388-.242-.766-.171-.24.045-.244.05-.244.367 0 .264-.024.327-.135.356-.126.033-.135.092-.135.883 0 .665-.02.848-.09.848-.07 0-.1.25-.135 1.121a57.049 57.049 0 0 0-.044 1.616c0 .394-.02.494-.101.494-.089 0-.102.352-.102 2.76s.013 2.76.102 2.76c.055 0 .1.041.1.092 0 .114.335.188.607.133.138-.027.202-.08.202-.166 0-.07.042-.127.093-.127.07 0 .105-.173.142-.706.036-.54.07-.707.142-.707.08 0 .095-.379.095-2.356 0-1.961.016-2.356.093-2.356.102 0 .174.2.176.488 0 .114.037.185.096.185.058 0 .112.104.14.27.028.165.083.268.141.268.064 0 .095.078.095.236 0 .158.032.236.095.236.059 0 .113.103.141.269.028.166.082.27.14.27.06 0 .096.07.097.184.001.289.073.488.175.488.064 0 .094.085.094.27 0 .224.022.269.134.269.113 0 .135.045.135.27 0 .19.029.268.098.268.059 0 .116.095.142.236.026.135.085.236.138.236.062 0 .094.079.094.235 0 .19.025.236.134.236.113 0 .135.045.135.27 0 .19.029.268.098.268.059 0 .116.095.143.236.024.13.082.236.13.236.047 0 .101.06.12.134.027.103.092.135.278.135.17 0 .242.03.242.1 0 .071.071.102.236.102.165 0 .236-.03.236-.101 0-.056.06-.101.135-.101.075 0 .134-.045.134-.101a.1.1 0 0 1 .098-.101c.07 0 .111-.117.144-.404.028-.255.076-.404.13-.404.061 0 .092-.199.111-.71.02-.532.051-.726.126-.772.08-.05.103-.308.12-1.376.018-1.006.043-1.315.108-1.315.117 0 .174-1.335.174-4.09 0-2.126-.003-2.17-.135-2.17-.09 0-.134-.046-.134-.135 0-.119-.045-.135-.371-.135s-.37.016-.37.135zm38.546 0c0 .09-.045.135-.135.135-.11 0-.135.045-.135.236 0 .164-.03.236-.1.236-.089 0-.102.28-.102 2.12 0 1.76-.016 2.12-.093 2.12-.15 0-.175.227-.175 1.633-.001 1.136-.016 1.33-.102 1.33-.071 0-.102-.072-.102-.236 0-.191-.025-.236-.134-.236-.11 0-.135-.045-.135-.242 0-.185-.032-.25-.135-.277-.111-.03-.135-.092-.135-.364 0-.238-.026-.329-.095-.329-.058 0-.113-.103-.14-.269-.029-.166-.083-.27-.141-.27-.063 0-.096-.075-.096-.218-.002-.32-.07-.522-.176-.522-.068 0-.093-.1-.093-.37 0-.325-.016-.37-.135-.37-.109 0-.135-.045-.135-.236 0-.164-.03-.235-.1-.235s-.102-.07-.103-.22c-.001-.319-.069-.52-.175-.52-.064 0-.093-.086-.093-.27 0-.194-.029-.27-.1-.27-.065 0-.116-.094-.144-.269-.026-.162-.08-.269-.136-.269-.055 0-.092-.073-.093-.185-.001-.288-.073-.488-.175-.488-.062 0-.093-.08-.093-.236 0-.17-.03-.235-.108-.235-.059 0-.123-.06-.142-.133-.041-.158-.38-.24-.725-.175-.2.037-.24.076-.277.277-.025.133-.084.233-.137.233-.073 0-.094.136-.095.622 0 .859-.063 1.33-.177 1.33-.075 0-.091.282-.091 1.514 0 1.224-.018 1.515-.091 1.515-.113 0-.18 1.201-.179 3.225 0 1.746.054 2.497.178 2.497.05 0 .092.043.092.095 0 .053.087.115.193.139.238.052.548-.02.548-.126 0-.043.06-.13.135-.194.12-.102.134-.198.134-.89 0-.643.017-.774.101-.774.088 0 .101-.253.102-1.868 0-2.063.036-2.575.177-2.575.055 0 .092.074.093.185.001.288.073.488.175.488.064 0 .093.085.093.27 0 .193.029.268.1.268.066 0 .116.096.144.27.026.162.08.269.136.269.056 0 .093.074.093.185.002.288.073.488.176.488.063 0 .093.085.093.27 0 .224.022.269.135.269.109 0 .134.045.134.235 0 .165.03.236.101.236.072 0 .102.072.102.242 0 .185.031.25.134.277.101.026.135.092.135.263 0 .154.032.228.098.228.059 0 .116.094.142.235.025.13.084.236.132.236.05 0 .108.116.133.27.028.165.083.268.141.268.064 0 .095.078.095.236 0 .19.026.236.135.236.09 0 .135.044.135.134 0 .11.045.135.236.135.164 0 .236.03.236.1 0 .071.07.102.235.102.165 0 .236-.03.236-.101 0-.058.06-.101.141-.101a.18.18 0 0 0 .177-.135c.02-.074.077-.134.128-.134.068 0 .093-.1.093-.37s.026-.37.093-.37c.126 0 .177-.303.177-1.053 0-.494.02-.63.094-.63.075 0 .103-.271.143-1.38.039-1.104.068-1.38.142-1.38.077 0 .093-.496.093-2.996 0-2.696-.011-2.996-.108-2.996-.059 0-.123-.06-.142-.134-.03-.114-.092-.135-.398-.135-.318 0-.363.017-.363.135zm38.343 0c0 .09-.045.135-.135.135-.109 0-.135.045-.135.236 0 .164-.03.236-.1.236-.088 0-.102.218-.102 1.565 0 1.917-.051 2.675-.178 2.675-.074 0-.091.282-.091 1.481 0 1.272-.014 1.481-.101 1.481-.07 0-.101-.07-.101-.235 0-.188-.027-.236-.13-.236-.097 0-.139-.065-.174-.27-.028-.165-.082-.269-.14-.269-.07 0-.095-.09-.095-.328 0-.272-.024-.335-.135-.364-.103-.027-.135-.092-.135-.277 0-.17-.03-.242-.101-.242-.061 0-.101-.063-.101-.16 0-.303-.085-.58-.177-.58-.06 0-.093-.08-.094-.22-.001-.32-.069-.521-.175-.521-.062 0-.093-.08-.093-.236 0-.155-.032-.235-.093-.235-.092 0-.177-.278-.177-.58 0-.098-.04-.16-.1-.16-.074 0-.102-.076-.102-.27 0-.224-.022-.27-.135-.27-.112 0-.135-.044-.135-.269 0-.184-.029-.269-.093-.269-.102 0-.174-.2-.175-.488 0-.113-.038-.185-.095-.185-.053 0-.112-.1-.137-.236-.027-.14-.084-.235-.143-.235-.054 0-.098-.058-.098-.13 0-.163-.302-.237-.713-.176-.285.043-.298.054-.298.276 0 .152-.031.232-.093.232-.072 0-.103.215-.141.976-.036.71-.072.976-.133.976-.064 0-.093.361-.12 1.489-.028 1.158-.056 1.501-.128 1.545-.075.047-.096.548-.113 2.668-.01 1.436-.002 2.71.02 2.83.024.128.081.219.139.219.054 0 .098.042.098.093 0 .12.265.187.532.134.145-.03.209-.081.209-.168 0-.07.041-.127.092-.127.113 0 .178-.421.178-1.153 0-.426.02-.53.1-.53.088 0 .102-.275.103-2.07 0-1.138.019-2.137.041-2.22.022-.084.083-.152.134-.152.067 0 .093.093.093.328 0 .273.023.335.135.364.103.027.135.092.135.278 0 .163.03.242.095.242.058 0 .113.103.14.269.029.165.083.269.141.269.07 0 .096.092.096.337 0 .291.017.336.134.336.113 0 .135.045.135.27 0 .19.029.269.098.269.059 0 .116.094.142.235.026.135.085.236.138.236.063 0 .094.08.094.242 0 .185.031.25.135.277.1.026.134.092.134.263 0 .154.032.228.098.228.059 0 .116.094.143.235.025.135.084.236.137.236.065 0 .094.084.094.27 0 .223.022.268.135.268.109 0 .135.045.135.236 0 .19.025.236.134.236.09 0 .135.044.135.134 0 .11.045.135.236.135.165 0 .236.03.236.1 0 .071.071.102.236.102.164 0 .236-.03.236-.101 0-.056.057-.101.126-.101.07 0 .143-.06.163-.135.019-.074.083-.134.142-.134.085 0 .108-.077.108-.37 0-.267.025-.37.09-.37.09 0 .178-.684.179-1.398 0-.209.027-.286.101-.286.083 0 .101-.118.101-.662 0-1.187.078-2.098.179-2.098.075 0 .09-.526.09-2.987 0-2.931-.002-2.989-.134-3.023-.074-.02-.135-.084-.135-.143 0-.085-.076-.107-.37-.107-.326 0-.37.016-.37.135zm18.195-.007c0 .097-.043.142-.135.142-.122 0-.135.045-.135.471 0 .352-.023.472-.091.472-.12 0-.178.742-.178 2.305 0 1.017-.016 1.195-.102 1.195-.077 0-.101.087-.101.377 0 .32-.02.381-.134.411-.075.02-.135.078-.135.129 0 .072-.14.093-.64.093-.525 0-.641.018-.641.1 0 .062-.062.102-.16.102a2.32 2.32 0 0 0-.37.042c-.183.036-.211.023-.211-.101 0-.082-.043-.143-.101-.143-.084 0-.101-.127-.101-.74 0-.614.017-.741.101-.741.087 0 .101-.224.101-1.616 0-1.39-.014-1.615-.101-1.615-.071 0-.101-.071-.101-.236 0-.19-.026-.236-.135-.236-.09 0-.135-.044-.135-.134 0-.125-.044-.135-.606-.135-.494 0-.607.019-.607.101 0 .056-.057.101-.127.101-.12 0-.129.1-.176 1.868-.034 1.264-.074 1.884-.126 1.916-.113.072-.107 4.886.007 4.956.057.035.096.426.128 1.276.035.937.067 1.226.134 1.226.048 0 .107.106.131.235.04.215.065.236.273.236.15 0 .228-.032.228-.093 0-.053.099-.112.229-.137.148-.028.24-.089.263-.176.019-.073.083-.133.142-.133.084 0 .107-.073.107-.336 0-.24.027-.337.093-.337.148 0 .177-.322.177-1.96v-1.54h.64c.5 0 .64-.02.64-.093 0-.125.213-.174.758-.175l.455-.001v1.279c0 1.092.015 1.279.101 1.279.079 0 .101.089.101.395 0 .524.064.816.177.816.051 0 .093.06.093.135 0 .09.045.135.135.135.075 0 .135.044.135.1 0 .071.071.102.235.102.165 0 .236-.03.236-.101 0-.056.06-.101.135-.101.09 0 .135-.045.135-.135 0-.074.042-.135.093-.135.106 0 .176-.286.176-.715 0-.217.027-.294.101-.294.086 0 .102-.172.102-1.145 0-.937-.018-1.144-.095-1.144-.08 0-.098-.59-.118-3.764-.013-2.07-.047-3.788-.076-3.817-.03-.03-.249-.066-.489-.081-.407-.026-.435-.018-.435.115zm33.597.109c-.027.14-.084.235-.143.235-.078 0-.098.12-.098.596 0 .96-.073 1.626-.178 1.626-.074 0-.091.264-.091 1.377v1.376l-.236.045c-.13.024-.236.082-.236.13 0 .06-.178.093-.612.114-.408.019-.629.058-.666.118-.031.049-.21.104-.4.122l-.344.033V36.19c0-2.197-.015-2.633-.093-2.633-.051 0-.109-.061-.128-.135-.02-.074-.084-.135-.143-.135-.059 0-.107-.045-.107-.1 0-.081-.101-.102-.506-.102-.404 0-.505.02-.505.101 0 .056-.06.101-.135.101-.09 0-.135.045-.135.135 0 .074-.041.135-.091.135-.075 0-.1.594-.14 3.3-.059 3.949.001 6.931.14 6.931.068 0 .091.12.091.478 0 .42.016.482.135.513.074.019.135.077.135.128 0 .061.08.093.236.093.164 0 .236-.03.236-.101 0-.056.059-.1.134-.1.09 0 .135-.046.135-.136 0-.09.045-.134.135-.134.09 0 .135-.045.135-.135 0-.074.042-.134.093-.134.072 0 .106-.177.142-.74.037-.565.071-.741.143-.741.076 0 .093-.227.093-1.246v-1.245h.607c.47 0 .606-.02.606-.093 0-.15.741-.238 1.129-.134l.152.04v1.608c0 1.324.016 1.608.093 1.608.102 0 .174.2.175.488.001.124.037.185.109.185.059 0 .123.06.142.135.029.11.092.135.357.135.264 0 .327-.024.356-.135.02-.074.08-.135.135-.135.061 0 .117-.092.144-.235.027-.141.084-.236.143-.236.149 0 .148-10.15-.002-10.207-.054-.02-.118-.14-.142-.267l-.043-.229h-.913l-.044.236zm-113.097.011c-.31.021-.422.054-.422.127 0 .066-.074.097-.235.097-.165 0-.236-.03-.236-.1 0-.081-.101-.102-.506-.102-.404 0-.505.02-.505.101 0 .056-.06.101-.135.101-.09 0-.135.045-.135.135 0 .074-.042.135-.095.135-.058 0-.113.103-.14.269-.028.165-.083.269-.141.269-.079 0-.095.236-.095 1.38 0 1.182.014 1.38.1 1.38.086 0 .102.15.102.942 0 .793-.016.943-.101.943-.088 0-.101.284-.101 2.154 0 1.78.016 2.154.092 2.154.068 0 .105.16.14.606.036.457.071.605.143.605.053 0 .096.061.096.135 0 .09.045.135.135.135.075 0 .135.045.135.1 0 .083.112.102.607.102.494 0 .606-.019.606-.101 0-.056.06-.101.135-.101.132 0 .134-.045.134-2.356v-2.356h.8c.914 0 1.222-.045 1.222-.177 0-.06.08-.093.228-.093.171 0 .237-.033.263-.134.026-.098.092-.135.244-.135.146 0 .209-.032.209-.107 0-.059.06-.123.134-.142.097-.026.135-.092.135-.236s.038-.21.135-.236c.074-.02.135-.092.135-.162s.044-.127.098-.127c.068 0 .113-.106.144-.336.026-.196.079-.337.127-.337.111 0 .188-1.487.128-2.479-.035-.564-.069-.752-.137-.752-.05 0-.09-.063-.09-.14a.18.18 0 0 0-.136-.177c-.093-.024-.134-.092-.134-.222 0-.16-.034-.193-.236-.23-.13-.025-.236-.085-.236-.135s-.105-.11-.236-.135c-.141-.026-.236-.083-.236-.142 0-.072-.085-.098-.32-.098-.176 0-.563-.012-.86-.025a10.488 10.488 0 0 0-.96.003zm5.037.123a.101.101 0 0 1-.101.101c-.067 0-.101.067-.101.194 0 .334-.08.614-.177.614-.076 0-.093.249-.093 1.346 0 1.098-.017 1.347-.093 1.347-.05 0-.111.094-.134.21-.023.116-.042 1.475-.042 3.02 0 1.546.019 2.906.042 3.021.023.116.084.21.134.21.064 0 .093.087.093.27 0 .224.023.27.135.27.09 0 .135.044.135.134 0 .075.045.135.1.135.056 0 .102.041.102.092 0 .062.112.103.34.125.213.02.37.075.423.149.075.102.196.113 1.011.093.622-.015.943-.048.976-.102.031-.05.364-.097.907-.127l.858-.048v-.495c0-.45-.012-.495-.135-.495-.075 0-.135-.045-.135-.101 0-.086-.17-.101-1.128-.102-.621 0-1.288-.02-1.483-.043l-.354-.042v-2.683c0-2.34.013-2.684.101-2.684.088 0 .101-.254.101-1.884s-.013-1.885-.1-1.885c-.071 0-.102-.071-.102-.236 0-.19-.026-.236-.135-.236-.09 0-.134-.044-.134-.134 0-.123-.045-.135-.506-.135-.404 0-.505.02-.505.101zm7.547.007c0 .059-.06.123-.133.142-.087.022-.148.114-.176.263-.024.129-.083.228-.136.228-.062 0-.094.08-.094.235 0 .191-.026.236-.135.236-.118 0-.134.045-.134.37 0 .27-.026.37-.093.37-.106 0-.177.287-.177.716 0 .216-.027.294-.101.294-.075 0-.101.078-.101.294 0 .51-.079.918-.178.918-.07 0-.092.144-.092.64 0 .494-.02.639-.091.639-.096 0-.177.448-.178.993 0 .209-.027.286-.101.286-.079 0-.101.089-.101.394 0 .606-.073 1.02-.178 1.02-.073 0-.092.18-.092.874 0 .698-.019.876-.093.876-.114 0-.187.333-.133.605.023.111.082.202.133.202.051 0 .093.043.093.096 0 .128.348.197.714.142l.297-.044v-.332c0-.251.025-.333.1-.333.075 0 .102-.077.103-.286 0-.544.08-.993.177-.993.07 0 .092-.14.092-.612 0-.556.012-.615.134-.647.075-.02.135-.077.135-.129 0-.074.17-.093.84-.093h.839l.044.236c.025.135.084.235.138.235.069 0 .093.102.094.388 0 .637.075 1.093.177 1.093.07 0 .092.124.092.505 0 .385.022.505.093.505.106 0 .174.202.175.522.001.14.035.219.095.219.05 0 .109.06.128.134.032.122.092.135.648.135.568 0 .613-.01.613-.135 0-.074.042-.134.093-.134.128 0 .188-.363.136-.824-.03-.263-.074-.388-.137-.388-.066 0-.092-.1-.093-.354-.001-.447-.057-.656-.175-.656-.073 0-.094-.14-.094-.64 0-.502-.02-.639-.094-.639s-.104-.209-.143-.976c-.038-.761-.069-.976-.141-.976-.075 0-.093-.176-.093-.875 0-.698-.02-.875-.093-.875-.127 0-.177-.303-.177-1.086 0-.546-.018-.664-.1-.664-.073 0-.102-.074-.103-.253 0-.513-.083-.959-.177-.959-.058 0-.092-.08-.093-.219 0-.32-.069-.521-.175-.521-.051 0-.093-.061-.093-.135 0-.127-.045-.135-.843-.135-.725 0-.842.015-.842.108zm23.114-.016c0 .093-.446.176-.96.177-.18 0-.253.03-.253.102 0 .066-.066.1-.194.1-.334 0-.615.081-.615.177 0 .068-.1.093-.37.093-.326 0-.37.016-.37.134 0 .11-.046.135-.237.135-.164 0-.236.03-.236.101 0 .071-.071.101-.242.101-.185 0-.25.032-.277.135-.02.074-.092.134-.162.134-.137 0-.161.15-.085.53l.042.21h1.34c1.145 0 1.339-.014 1.339-.1 0-.059.06-.101.144-.101.142 0 .144.013.11.95-.026.706-.058.964-.128 1.007-.076.047-.096.625-.113 3.274-.01 1.77-.002 3.315.02 3.436.024.128.08.218.138.218.06 0 .098.066.098.169 0 .099.039.168.094.168.052 0 .111.045.133.1.029.077.153.102.505.102h.466l.044-.236c.025-.13.085-.235.134-.235.07 0 .1-.366.139-1.734.034-1.178.074-1.748.126-1.781.056-.035.083-.846.097-2.878l.02-2.83h.157c.301 0 .578-.084.578-.176 0-.074.178-.093.877-.093.721 0 .876-.017.876-.098 0-.058.094-.115.235-.142l.236-.044v-.912l-.236-.045c-.14-.026-.235-.083-.235-.142 0-.083-.247-.098-1.618-.098-1.319 0-1.617.017-1.617.092zm55.257.043c0 .09-.045.135-.134.135-.109 0-.135.044-.135.235 0 .19-.026.236-.135.236-.109 0-.135.045-.135.235 0 .165-.03.236-.101.236-.069 0-.101.07-.102.219-.001.312-.068.521-.168.521-.058 0-.094.15-.112.478-.021.361-.055.493-.143.542-.091.05-.115.16-.115.532 0 .355-.023.468-.094.468-.071 0-.105.176-.142.74-.037.565-.071.74-.142.74-.073 0-.094.134-.094.603 0 .504-.019.614-.118.669-.097.054-.122.183-.141.743-.017.504-.046.678-.111.678-.067 0-.101.222-.138.876-.037.672-.069.875-.14.875-.069 0-.093.106-.093.403 0 .315.023.404.101.404.056 0 .101.043.101.095 0 .12.437.2.759.14.222-.042.238-.063.271-.352.02-.183.078-.331.142-.367.087-.049.109-.18.109-.663 0-.464.021-.603.091-.603.096 0 .176-.448.178-.993 0-.24.021-.286.135-.286.075 0 .135-.045.135-.1 0-.085.137-.102.835-.102h.834l.044.23c.024.128.08.244.125.259.056.018.09.258.105.745.017.53.046.718.11.718.059 0 .102.162.135.505.034.368.073.505.142.505.063 0 .096.075.097.219.001.32.069.522.175.522.051 0 .093.06.093.134 0 .125.045.135.607.135.561 0 .606-.01.606-.135 0-.09.045-.134.135-.134.125 0 .135-.045.135-.606 0-.47-.021-.606-.093-.606-.096 0-.177-.28-.177-.614 0-.127-.034-.194-.101-.194-.081 0-.101-.104-.101-.53 0-.653-.056-.95-.177-.95-.074 0-.093-.178-.093-.876 0-.704-.018-.875-.094-.875-.074 0-.104-.209-.143-.976-.038-.761-.069-.976-.141-.976-.071 0-.093-.124-.094-.522-.001-.763-.068-1.228-.177-1.228-.071 0-.092-.14-.092-.606 0-.47-.021-.606-.092-.606-.092 0-.177-.277-.177-.573 0-.095-.051-.165-.135-.187-.074-.02-.135-.083-.135-.142 0-.093-.116-.108-.842-.108-.798 0-.843.008-.843.135zm5.189.1c0 .159-.031.236-.095.236-.074 0-.105.19-.143.876-.034.613-.073.875-.13.875-.062 0-.093.745-.128 3.098-.051 3.454-.008 5.114.133 5.114.048 0 .107.106.132.236.027.143.083.235.144.235.055 0 .116.06.135.135.029.111.092.135.364.135.242 0 .329.025.329.096 0 .14.454.191 1.415.163.524-.015.831-.052.863-.102.029-.047.343-.099.772-.127.543-.037.724-.072.724-.14 0-.051.046-.092.101-.092.079 0 .101-.09.101-.404v-.404h-.236c-.164 0-.235-.03-.235-.101 0-.085-.16-.101-1.028-.102-1.246 0-1.735-.05-1.735-.177 0-.05-.046-.091-.101-.091-.081 0-.101-.101-.101-.505 0-.38.022-.505.091-.505.075 0 .1-.639.141-3.618.05-3.677.024-4.595-.132-4.595-.047 0-.101-.06-.12-.134-.019-.074-.084-.135-.143-.135-.059 0-.107-.045-.107-.1 0-.081-.101-.102-.505-.102h-.506v.236zm7.48-.143c0 .093-.446.176-.96.177-.18 0-.253.03-.253.102 0 .077-.087.1-.377.1-.32 0-.382.02-.412.135-.03.114-.092.135-.398.135-.272 0-.363.024-.363.098 0 .058-.094.115-.236.142-.135.025-.235.084-.235.137 0 .063-.081.094-.243.094-.185 0-.25.032-.277.135-.025.095-.092.134-.23.134-.149 0-.194.031-.194.135 0 .075.045.135.101.135.071 0 .101.07.101.235v.236h1.247c1.063 0 1.247-.015 1.247-.101 0-.07.071-.101.236-.101h.235v.47c0 .35-.023.472-.09.472-.071 0-.1.256-.135 1.161a63.375 63.375 0 0 0-.044 1.852c0 .568-.018.69-.101.69-.085 0-.101.145-.101.908s.016.909.101.909c.084 0 .101.133.101.79.001 1.163.069 1.903.175 1.903.048 0 .116.05.152.114.046.083.18.121.499.142.397.025.438.015.472-.115.02-.078.085-.142.144-.142.078 0 .108-.064.108-.235 0-.152.032-.236.09-.236.119 0 .179-2.013.179-6.002v-2.95h.261c.398 0 .683-.074.683-.177 0-.074.177-.093.876-.093.831 0 .876-.007.876-.134 0-.09.045-.135.135-.135.074 0 .134-.045.134-.101 0-.056.046-.101.101-.101.073 0 .101-.075.101-.27 0-.184-.029-.269-.093-.269-.051 0-.109-.06-.128-.134-.02-.074-.084-.135-.143-.135-.059 0-.107-.045-.107-.1 0-.088-.225-.102-1.618-.102-1.319 0-1.617.017-1.617.092zm-130.663.279c0 .07-.072.1-.243.1-.185 0-.25.032-.277.135-.026.101-.092.135-.263.135-.183 0-.228.026-.228.134 0 .09-.045.135-.135.135-.075 0-.135.045-.135.101a.101.101 0 0 1-.1.101c-.057 0-.102.06-.102.135 0 .09-.045.134-.135.134-.108 0-.134.045-.134.228 0 .171-.034.237-.135.263-.103.027-.135.092-.135.277 0 .17-.03.242-.101.242-.062 0-.101.063-.101.16 0 .303-.085.58-.177.58-.07 0-.093.122-.093.505 0 .385-.022.505-.093.505-.051 0-.111.068-.134.152-.022.083-.04 1.191-.041 2.463-.001 2.255.002 2.313.133 2.347.112.029.135.092.135.364 0 .256.024.329.108.329.059 0 .123.06.142.134.02.074.077.135.129.135.051 0 .093.06.093.134 0 .09.045.135.135.135.09 0 .135.045.135.135 0 .09.044.134.134.134.074 0 .135.042.135.094 0 .053.1.112.236.138.141.026.236.083.236.142 0 .082.213.098 1.348.098 1.115 0 1.347-.017 1.347-.096 0-.058.104-.112.27-.14.166-.028.27-.082.27-.14 0-.064.077-.096.235-.096.191 0 .236-.025.236-.134 0-.087.045-.135.127-.135.07 0 .143-.06.162-.135.02-.074.084-.134.143-.134.059 0 .107-.046.107-.101 0-.056.048-.101.108-.101.059 0 .123-.06.142-.135.02-.074.074-.134.121-.134s.106-.106.13-.236c.027-.141.084-.236.142-.236.07 0 .098-.078.098-.269 0-.224.023-.27.135-.27.11 0 .135-.044.135-.235 0-.164.03-.235.101-.235.075 0 .101-.078.101-.295 0-.416.07-.715.168-.715.06 0 .093-.23.117-.817.027-.663.054-.828.144-.878.095-.053.11-.208.11-1.094 0-1.138-.038-1.452-.177-1.452-.067 0-.092-.1-.092-.37 0-.28-.024-.37-.098-.37-.059 0-.116-.095-.143-.236-.025-.135-.084-.235-.137-.235-.052 0-.094-.061-.094-.135 0-.09-.045-.135-.135-.135-.09 0-.135-.045-.135-.134 0-.09-.045-.135-.134-.135-.074 0-.135-.042-.135-.093 0-.054-.1-.113-.236-.138-.141-.027-.236-.084-.236-.142 0-.067-.073-.098-.228-.098-.171 0-.237-.034-.263-.135-.031-.119-.092-.135-.513-.135-.38 0-.478-.02-.478-.1 0-.085-.143-.102-.876-.102-.734 0-.876.017-.876.102zm76.956 0c0 .073-.076.1-.276.1-.22 0-.283.028-.311.135-.025.095-.092.135-.23.135-.133 0-.194.034-.194.107 0 .059-.06.123-.135.142-.074.02-.135.078-.135.129 0 .051-.06.093-.135.093-.09 0-.134.045-.134.135 0 .074-.044.134-.098.134-.059 0-.116.095-.143.236-.024.13-.082.235-.129.235s-.104.12-.128.27c-.028.174-.078.269-.143.269-.077 0-.1.087-.1.37 0 .326-.017.37-.135.37-.122 0-.135.045-.135.472 0 .35-.023.47-.09.47-.114 0-.18 1.072-.18 2.89.001 1.616.058 2.361.179 2.361.059 0 .09.083.09.236 0 .19.027.236.136.236.09 0 .135.044.135.134 0 .075.044.135.1.135.057 0 .102.06.102.134 0 .09.045.135.134.135.09 0 .135.045.135.135 0 .09.045.134.135.134.074 0 .135.042.135.094 0 .053.1.112.236.138.14.026.236.083.236.142 0 .082.217.098 1.38.098 1.337 0 1.382-.005 1.382-.135 0-.112.045-.135.27-.135.195 0 .27-.028.27-.1 0-.069.067-.102.208-.102.152 0 .218-.036.244-.134.02-.075.091-.135.162-.135.082 0 .127-.048.127-.135 0-.074.045-.134.1-.134a.101.101 0 0 0 .102-.101c0-.056.06-.101.135-.101.09 0 .134-.045.134-.135 0-.074.043-.134.094-.134.054 0 .112-.101.138-.236.025-.133.084-.236.136-.236.055 0 .11-.108.138-.269.028-.165.082-.27.14-.27.067 0 .096-.081.096-.268 0-.185.029-.27.093-.27.116 0 .174-.207.175-.622.001-.24.027-.32.102-.32.076 0 .102-.08.102-.32 0-.744.086-1.43.178-1.43.073 0 .09-.239.09-1.212 0-1.014-.015-1.212-.097-1.212-.07 0-.11-.116-.143-.403-.03-.256-.077-.404-.13-.404-.048 0-.106-.106-.13-.236-.026-.14-.084-.235-.142-.235-.054 0-.098-.061-.098-.135 0-.09-.045-.135-.135-.135-.09 0-.135-.045-.135-.134 0-.09-.045-.135-.135-.135-.074 0-.134-.044-.134-.098 0-.059-.095-.116-.236-.142-.135-.025-.236-.084-.236-.138 0-.062-.08-.093-.236-.093-.156 0-.236-.032-.236-.093 0-.116-.207-.174-.623-.176-.24 0-.32-.026-.32-.102 0-.084-.142-.1-.876-.1s-.876.016-.876.1zm-62.266.336c0 .17-.03.236-.107.236-.06 0-.124.06-.143.134-.02.074-.075.135-.123.135-.049 0-.107.117-.132.27-.028.165-.083.269-.141.269-.063 0-.095.076-.095.227 0 .171-.034.237-.135.263-.119.031-.135.092-.135.513 0 .36-.023.477-.093.477-.126 0-.176.303-.176 1.052 0 .516-.019.631-.101.631-.086 0-.102.161-.102 1.044 0 .882.016 1.043.102 1.043.08 0 .1.1.1.497 0 .62.058.917.178.917.063 0 .092.085.092.269 0 .19.029.27.098.27.059 0 .116.094.142.235.025.13.083.235.13.235.048 0 .107.106.131.236.027.141.084.236.142.236.054 0 .098.057.098.127 0 .092.066.14.236.171.142.026.236.084.236.142 0 .054.057.098.127.098s.143.06.162.135c.027.103.092.134.278.134.158 0 .242.032.242.091 0 .066.155.103.556.135 1.18.091 2.611.018 2.611-.135 0-.05.06-.09.135-.09.09 0 .134-.046.134-.135 0-.09.046-.135.135-.135.119 0 .135-.045.135-.37 0-.27-.025-.37-.093-.37-.051 0-.11-.061-.129-.135-.026-.101-.091-.134-.26-.134-.326.002-.529.069-.529.175 0 .052-.06.094-.134.094-.075 0-.135.042-.135.093 0 .12-.21.174-.683.175-.507.001-.8-.063-.8-.176 0-.05-.045-.092-.1-.092-.057 0-.102-.06-.102-.135 0-.09-.045-.135-.135-.135-.109 0-.135-.044-.135-.235 0-.156-.031-.236-.093-.236-.118 0-.174-.208-.175-.656 0-.252-.027-.354-.092-.354-.07 0-.1-.194-.13-.823-.02-.453-.023-.846-.005-.875.017-.029.364-.052.769-.052.61 0 .737-.017.737-.1 0-.073.074-.102.261-.102.398 0 .683-.074.683-.176 0-.051.06-.093.135-.093.109 0 .134-.045.134-.236 0-.17-.03-.235-.107-.235-.06 0-.123-.06-.143-.135-.033-.128-.092-.134-1.232-.134h-1.196l-.042-.207c-.023-.114-.022-.614.002-1.11.033-.692.065-.905.134-.905.061 0 .09-.088.09-.27v-.268h1.146c.937 0 1.146-.018 1.146-.095 0-.067.135-.107.472-.14.336-.035.471-.075.471-.142 0-.052.061-.094.135-.094.118 0 .135-.045.135-.362 0-.352-.006-.363-.21-.404a2.325 2.325 0 0 0-.371-.042c-.098 0-.16-.04-.16-.101 0-.085-.142-.101-.876-.101-.699 0-.876-.019-.876-.093 0-.135-.31-.176-1.323-.176h-.901v.235zm38.815-.1c0 .073-.042.134-.093.134s-.11.06-.129.134c-.02.074-.08.135-.135.135-.06 0-.117.092-.144.236-.026.14-.084.235-.142.235-.067 0-.098.075-.098.236 0 .155-.032.235-.093.235-.096 0-.177.28-.177.615 0 .127-.035.193-.1.193-.073 0-.102.073-.103.253 0 .513-.083.959-.177.959-.075 0-.092.34-.092 1.885 0 1.57.016 1.885.095 1.885.067 0 .108.135.141.47.034.337.075.472.142.472.065 0 .094.083.094.27 0 .224.023.268.135.268.109 0 .135.045.135.236 0 .19.025.236.134.236.09 0 .135.044.135.134 0 .075.045.135.101.135a.1.1 0 0 1 .101.1c0 .057.06.102.135.102.09 0 .135.045.135.134 0 .11.045.135.236.135.19 0 .236.026.236.135 0 .112.045.134.27.134.18 0 .269.03.269.091 0 .066.155.103.556.135 1.172.09 2.409.026 2.409-.127 0-.046.102-.103.228-.127.16-.03.24-.088.269-.192.053-.196.053-.585 0-.848-.04-.202-.056-.21-.377-.21-.278 0-.341.022-.37.134-.027.101-.092.135-.264.135-.182 0-.227.026-.227.134 0 .125-.045.135-.613.135-.556 0-.616-.013-.648-.135-.02-.074-.078-.134-.129-.134a.093.093 0 0 1-.093-.094c0-.05-.06-.108-.135-.128a.18.18 0 0 1-.135-.176c0-.078-.041-.14-.093-.14-.102 0-.174-.2-.175-.489 0-.12-.037-.185-.102-.185-.083 0-.101-.116-.101-.64 0-.5-.02-.639-.093-.639-.1 0-.225-.81-.144-.94.025-.042.38-.07.88-.07.701 0 .84-.016.84-.1 0-.062.062-.102.16-.102.303 0 .58-.084.58-.176 0-.051.061-.093.135-.093.113 0 .135-.045.135-.27 0-.224-.022-.268-.135-.268-.075 0-.135-.045-.135-.101 0-.086-.16-.101-1.036-.101-.57 0-1.13-.02-1.246-.042-.203-.041-.21-.055-.21-.387 0-.599.077-1.052.177-1.052.07 0 .092-.124.092-.505 0-.404.02-.505.1-.505.057 0 .102-.06.102-.135 0-.13.045-.134 1.145-.134.937 0 1.146-.018 1.146-.095 0-.067.135-.107.47-.14.462-.047.47-.051.51-.263.023-.118.03-.335.019-.481-.02-.255-.033-.268-.275-.288-.165-.013-.252-.054-.252-.117 0-.08-.172-.097-.977-.097-.784 0-.977-.019-.977-.093 0-.132-.308-.176-1.222-.176-.755 0-.8.007-.8.134zm38.074.1c0 .17-.03.236-.108.236-.059 0-.123.06-.142.134-.02.074-.074.135-.121.135s-.105.103-.13.229c-.023.126-.087.246-.141.267-.062.024-.1.129-.1.276 0 .157-.031.238-.092.238-.103 0-.177.284-.177.681 0 .187-.029.261-.101.261-.08 0-.101.092-.102.42 0 .67-.073 1.128-.177 1.128-.074 0-.092.224-.092 1.145 0 .92.018 1.144.092 1.144.102 0 .176.457.177 1.094 0 .299.024.387.102.387.065 0 .101.066.102.185.001.288.073.488.175.488.051 0 .093.062.093.137 0 .075.044.153.097.174.054.02.117.125.14.233.025.112.088.197.146.197.056 0 .118.06.137.134.02.074.08.135.135.135.054 0 .115.06.135.134.026.102.091.135.263.135.183 0 .228.027.228.135 0 .109.045.134.236.134.153 0 .236.032.236.091 0 .066.155.103.555.135 1.162.09 2.679.018 2.679-.127 0-.046.06-.099.135-.118.098-.026.135-.092.135-.244 0-.14.033-.208.1-.208.074 0 .102-.075.102-.27 0-.183-.03-.268-.093-.268-.052 0-.11-.061-.129-.135-.03-.112-.092-.135-.378-.135-.299 0-.344.018-.344.135 0 .09-.045.135-.134.135-.075 0-.135.041-.135.092 0 .113-.293.177-.8.176-.473-.001-.683-.055-.683-.175 0-.051-.06-.093-.134-.093-.09 0-.135-.045-.135-.135 0-.074-.044-.135-.098-.135-.059 0-.116-.094-.143-.235-.025-.135-.084-.236-.137-.236-.059 0-.094-.073-.094-.193 0-.335-.08-.615-.177-.615-.074 0-.093-.192-.093-.976v-.976h.775c.62 0 .775-.019.775-.094 0-.067.136-.108.472-.141.337-.034.472-.075.472-.142 0-.052.045-.094.1-.094.072 0 .102-.071.102-.236 0-.164-.03-.235-.101-.235-.056 0-.101-.06-.101-.135 0-.13-.045-.134-1.247-.134h-1.246v-1.111c0-.912.016-1.11.095-1.11.058 0 .112-.104.14-.27l.046-.27h1.106c.908 0 1.106-.016 1.106-.095 0-.069.137-.108.505-.142.363-.034.506-.074.506-.14 0-.052.045-.093.1-.093.078 0 .102-.086.102-.368V34.1l-.337-.045c-.219-.029-.337-.077-.337-.137 0-.073-.179-.092-.876-.092-.699 0-.876-.019-.876-.093 0-.136-.312-.176-1.356-.176h-.935v.235zm18.666.034c0 .184-.03.269-.093.269-.052 0-.109.06-.129.135-.019.074-.083.134-.142.134-.076 0-.108.063-.108.209 0 .151-.036.217-.135.243-.111.03-.134.092-.134.364 0 .234-.027.329-.093.329-.096 0-.177.28-.177.614 0 .127-.035.193-.101.193-.082 0-.101.107-.101.556-.001.96-.077 1.666-.179 1.666-.066 0-.091.11-.091.404 0 .3.024.404.094.404.074 0 .105.209.143.976.038.76.07.976.142.976.067 0 .093.096.093.343 0 .286.022.348.135.378.101.026.135.091.135.263 0 .163.03.227.107.227.059 0 .123.06.143.135.019.074.073.135.121.135.047 0 .105.102.128.228.037.195.077.235.277.272.14.027.234.084.234.142 0 .054.061.098.135.098.074 0 .135.042.135.093 0 .102.2.174.489.175.11 0 .185.038.185.092 0 .067.165.103.617.135 1.277.09 2.415.027 2.415-.134 0-.05.049-.092.108-.092s.123-.06.142-.134c.02-.074.077-.135.129-.135.068 0 .093-.1.093-.37 0-.284-.023-.37-.101-.37-.056 0-.101-.06-.101-.135 0-.107-.045-.134-.219-.134-.32.002-.522.07-.522.175 0 .052-.061.094-.135.094-.074 0-.135.041-.135.092 0 .113-.293.177-.8.176-.473-.001-.683-.055-.683-.175 0-.051-.06-.093-.134-.093-.09 0-.135-.045-.135-.135 0-.074-.042-.135-.093-.135-.102 0-.174-.2-.176-.488 0-.119-.037-.185-.102-.185-.066 0-.101-.066-.101-.193 0-.335-.08-.615-.177-.615-.074 0-.092-.177-.092-.875v-.875h.775c.644 0 .775-.017.775-.1 0-.073.074-.102.261-.102.397 0 .682-.074.682-.176 0-.051.045-.093.101-.093.071 0 .101-.071.101-.236 0-.164-.03-.235-.101-.235-.056 0-.101-.06-.101-.135 0-.13-.045-.134-1.247-.134h-1.246v-1.01c0-.853.015-1.01.101-1.01.061 0 .101-.063.101-.16 0-.088.019-.254.042-.37l.042-.21h1.104c.935 0 1.103-.016 1.103-.101 0-.075.078-.101.295-.101.429 0 .716-.071.716-.177 0-.05.045-.092.101-.092.077 0 .101-.086.101-.368 0-.366-.001-.367-.236-.411-.135-.025-.236-.084-.236-.138 0-.075-.188-.093-.977-.093-.784 0-.977-.019-.977-.093 0-.136-.311-.176-1.356-.176h-.935v.269zm-82.288.244c.116.023.21.084.21.134 0 .051.046.093.101.093.057 0 .102.06.102.135 0 .09.044.134.134.134.09 0 .135.045.135.135 0 .074.043.135.096.135.069 0 .108.136.142.504.034.362.074.505.14.505.067 0 .094.095.094.337 0 .241-.026.336-.093.336s-.107.143-.14.505c-.035.368-.074.505-.143.505-.065 0-.096.078-.096.242 0 .185-.031.25-.135.277-.101.027-.134.092-.134.263 0 .183-.027.228-.135.228-.09 0-.135.045-.135.134 0 .127-.045.135-.741.135-.697 0-.742-.008-.742-.135 0-.074-.044-.134-.1-.134-.086 0-.102-.154-.102-.976 0-.823.016-.976.101-.976s.101-.142.101-.875c0-.83.007-.875.135-.875.113 0 .135-.045.135-.27 0-.224.023-.269.135-.269.074 0 .135-.044.135-.097 0-.062.09-.106.252-.123.14-.015.272-.032.295-.038a1.11 1.11 0 0 1 .253.03zm-26.273.395c0 .063.064.101.169.101.105 0 .168.038.168.101 0 .056.046.101.101.101.056 0 .101.06.101.135 0 .09.045.134.135.134.119 0 .135.045.135.37 0 .268.025.37.091.37.121 0 .178.564.178 1.75 0 1.593-.075 2.761-.178 2.761-.067 0-.091.119-.092.454-.001.546-.05.758-.175.758-.069 0-.094.1-.094.37 0 .274-.024.37-.095.37-.058 0-.113.104-.14.27-.028.165-.083.269-.141.269-.053 0-.095.048-.095.107s-.061.123-.135.142c-.074.02-.135.078-.135.129 0 .07-.12.093-.505.093-.387 0-.506-.022-.506-.094 0-.053-.1-.112-.236-.137-.14-.027-.235-.084-.235-.142a.1.1 0 0 0-.1-.098c-.066 0-.116-.095-.144-.27-.024-.148-.081-.269-.128-.269-.098 0-.165-.21-.167-.522 0-.149-.033-.218-.102-.218-.087 0-.1-.236-.1-1.717 0-1.48.013-1.716.1-1.716.078 0 .101-.085.101-.36 0-.658.08-1.189.179-1.189.064 0 .091-.095.092-.32.001-.415.06-.622.175-.622.062 0 .094-.08.094-.236 0-.17.03-.235.107-.235.059 0 .123-.06.143-.135.019-.074.077-.134.128-.134.051 0 .093-.061.093-.135 0-.112.045-.135.27-.135.195 0 .27-.028.27-.1 0-.077.082-.102.336-.102.255 0 .337.025.337.101zm76.956 0c0 .056.06.101.135.101.074 0 .135.042.135.093 0 .052.06.11.135.129.074.019.134.083.134.142 0 .06.042.107.093.107.062 0 .103.113.125.34.02.21.076.37.146.421.103.075.112.273.094 2.12-.016 1.685-.036 2.049-.117 2.098-.068.043-.105.237-.126.67-.02.436-.054.612-.115.612-.057 0-.102.158-.133.47-.032.316-.076.472-.134.472-.048 0-.106.103-.13.23-.024.125-.088.245-.142.266-.055.021-.1.1-.1.175 0 .092-.044.137-.134.137-.075 0-.135.045-.135.1 0 .081-.097.102-.472.102-.358 0-.472-.023-.472-.094 0-.053-.1-.112-.236-.137-.14-.027-.235-.084-.235-.142 0-.054-.058-.098-.13-.098-.097 0-.139-.065-.174-.27-.028-.165-.082-.269-.14-.269-.07 0-.095-.096-.095-.37 0-.28-.025-.37-.099-.37-.157 0-.188-.37-.16-1.922.02-1.192.042-1.461.125-1.512.078-.048.105-.25.124-.906.017-.625.046-.844.11-.844.086 0 .17-.285.17-.58 0-.097.039-.16.1-.16.07 0 .101-.071.101-.236 0-.19.026-.235.135-.235.087 0 .135-.045.135-.127 0-.07.06-.142.135-.162.074-.02.134-.084.134-.143 0-.077.065-.107.236-.107.165 0 .236-.03.236-.1 0-.078.086-.102.37-.102.285 0 .371.024.371.101zm-38.343 1.54c0 .556.061.85.177.85.074 0 .093.193.093.976 0 .823.016.976.1.976.071 0 .102.071.102.236 0 .164-.03.235-.101.235-.056 0-.101.06-.101.135 0 .125-.045.135-.65.135h-.65l.043-.414c.024-.228.044-.5.044-.606 0-.119.035-.192.093-.192.069 0 .1-.128.12-.478.021-.361.056-.493.143-.541.094-.053.115-.166.115-.626 0-.504.014-.564.135-.596.103-.027.135-.092.135-.277 0-.17.03-.242.101-.242.08 0 .101.093.101.43zm78.396-.278c.023.084.041.372.042.64 0 .372.023.488.095.488.074 0 .104.209.143.976.038.761.069.976.141.976.062 0 .093.08.093.236 0 .164-.03.235-.101.235-.056 0-.101.06-.101.135 0 .125-.045.135-.64.135h-.64v-.598c0-.542.013-.602.135-.634.118-.03.134-.092.134-.512 0-.38.021-.478.101-.478.075 0 .102-.077.102-.293 0-.512.078-.919.177-.919.063 0 .092-.086.092-.269 0-.3.157-.38.227-.118zm-49.959 7.159c0 .059-.06.123-.134.142-.075.02-.135.078-.135.129 0 .05-.06.093-.135.093-.12 0-.135.045-.135.404 0 .314.023.404.101.404a.1.1 0 0 1 .101.1c0 .056.058.102.127.102.07 0 .143.06.163.134.029.113.091.135.38.135.242 0 .357-.03.384-.1.02-.054.14-.118.267-.142.165-.03.23-.078.23-.17 0-.07.043-.127.097-.127.06 0 .116-.094.143-.235.025-.135.084-.236.138-.236.061 0 .093-.078.093-.228 0-.17-.033-.236-.135-.263-.074-.019-.134-.083-.134-.142 0-.091-.106-.107-.708-.107-.603 0-.708.016-.708.107z" fill="#000"/></svg>