<svg width="113" height="57" viewBox="0 0 113 57" fill="none" xmlns="http://www.w3.org/2000/svg"><path fill-rule="evenodd" clip-rule="evenodd" d="M45.67.137c0 .13-.016.137-.316.137-.173 0-.518.017-.767.036-.428.033-.452.042-.452.164 0 .127-.008.129-.576.129-.57 0-.575.001-.575.13 0 .118-.031.135-.302.169-.272.034-.301.05-.301.17 0 .125-.019.134-.301.134s-.302.009-.302.13c0 .118-.03.135-.301.169-.273.034-.302.05-.302.17 0 .112-.027.134-.164.134s-.165.022-.165.132c0 .116-.031.136-.27.169-.222.03-.274.058-.288.156-.012.083-.062.123-.168.135-.117.014-.15.047-.15.148 0 .1-.034.133-.151.147-.119.013-.155.05-.168.168-.014.118-.046.15-.151.15-.106 0-.133.029-.133.137 0 .11-.028.137-.134.137-.105 0-.137.033-.15.151-.014.119-.05.155-.169.168-.126.015-.15.044-.15.178s-.023.161-.132.161c-.117 0-.136.032-.17.274-.033.243-.053.274-.17.274-.123 0-.131.02-.131.302 0 .28-.01.301-.131.301-.117 0-.135.031-.168.302-.034.272-.05.301-.171.301-.13 0-.133.01-.133.438 0 .424-.005.439-.129.439-.126 0-.129.012-.164.699-.046.894-.046 2.102 0 3.567l.036 1.16h.128c.129 0 .129 0 .129.74v.74h.13c.112 0 .133.033.164.254.019.14.035.35.035.466 0 .189.014.211.137.211.134 0 .137.008.137.439 0 .428.003.438.133.438.12 0 .137.03.17.302.034.27.052.301.169.301.122 0 .13.02.13.302 0 .28.01.301.131.301.118 0 .135.031.169.302.034.272.05.301.17.301.125 0 .134.019.134.301 0 .283.008.302.133.302.12 0 .136.029.17.301.034.27.051.302.169.302.108 0 .13.027.13.164s.022.165.132.165c.117 0 .136.031.17.274.033.242.053.274.17.274.11 0 .131.027.131.164 0 .138.022.165.134.165.104 0 .137.032.15.15.014.119.05.155.168.168.142.017.151.034.151.284 0 .25.01.268.15.284.107.013.157.053.169.138.01.074.062.126.137.137.084.012.125.061.137.168.013.117.046.15.147.15.1 0 .134.034.147.151.014.119.05.155.168.168.119.014.15.046.15.15 0 .106.03.134.134.134.105 0 .137.033.151.151.014.118.05.154.168.168.119.014.15.046.15.15 0 .106.03.134.134.134.105 0 .137.033.15.15.014.12.05.155.169.169.118.014.15.046.15.15 0 .105.03.134.134.134.105 0 .137.032.15.15.014.12.05.155.169.169.118.013.15.046.15.15 0 .106.029.134.138.134.108 0 .137.027.137.133 0 .105.032.137.15.151.119.014.155.05.168.168.014.118.046.15.151.15s.133.03.133.134c0 .105.033.137.151.15.119.014.155.05.168.169.017.141.034.15.284.15.25 0 .268.01.285.151.013.119.05.155.167.168.119.014.151.046.151.151 0 .106.029.134.137.134.11 0 .137.027.137.137 0 .115.026.137.165.137.146 0 .164.018.164.164 0 .16.006.164.274.164.256 0 .274.01.274.137 0 .116.026.137.161.137s.164.025.178.151c.014.119.05.155.168.168.119.014.15.046.15.15 0 .124.021.134.271.134.255 0 .272.01.288.151.014.119.05.155.168.168.118.014.15.046.15.15 0 .113.028.134.165.134s.165.022.165.132c0 .117.031.136.274.17.242.033.274.053.274.17 0 .11.027.131.164.131s.165.022.165.13c0 .118.03.135.301.17.272.033.301.05.301.17 0 .111.027.133.165.133.137 0 .164.022.164.132 0 .117.032.136.274.17.243.033.274.052.274.169 0 .11.028.132.165.132s.164.022.164.13c0 .118.031.135.302.169.272.034.301.05.301.17 0 .124.02.134.274.134.256 0 .274.009.274.137 0 .115.026.137.161.137s.164.024.178.15c.016.141.037.152.305.168.26.015.288.029.288.144 0 .114.033.132.301.166.273.034.302.05.302.17 0 .112.027.134.164.134.138 0 .165.021.165.134 0 .123.023.135.287.15.269.016.29.027.306.168.017.15.018.15.452.15h.435v-.164c0-.163.003-.164.3-.164.284 0 .302-.009.302-.134 0-.105.033-.137.151-.15.106-.013.156-.053.168-.137.014-.097.066-.125.287-.155.24-.033.271-.053.271-.17 0-.123.02-.131.298-.131.284 0 .299-.007.315-.151.014-.119.05-.155.168-.168.119-.014.151-.046.151-.15 0-.126.019-.134.301-.134.299 0 .302-.002.302-.165 0-.146.018-.164.164-.164.14 0 .165-.021.165-.137 0-.128.018-.137.274-.137.253 0 .274-.01.274-.133 0-.12.029-.137.301-.17.27-.035.302-.052.302-.17 0-.108.027-.13.164-.13s.165-.022.165-.132c0-.117.031-.136.274-.17.242-.033.274-.052.274-.169 0-.11.027-.132.164-.132.138 0 .164-.022.164-.133 0-.105.033-.137.151-.151.106-.012.156-.053.168-.136.014-.097.066-.125.288-.156.239-.033.27-.053.27-.169 0-.11.028-.132.165-.132.146 0 .164-.018.164-.164 0-.161.006-.165.274-.165.256 0 .274-.009.274-.137 0-.115.026-.137.161-.137s.164-.024.178-.15c.014-.119.05-.155.168-.168.116-.014.151-.047.151-.144 0-.11.035-.131.27-.162.225-.03.274-.057.288-.158.013-.087.06-.127.168-.14.117-.013.15-.046.15-.146 0-.101.035-.134.152-.148.118-.013.154-.05.168-.168.013-.118.046-.15.15-.15.106 0 .134-.029.134-.137 0-.116.025-.137.164-.137.137 0 .165-.022.165-.132 0-.117.031-.137.274-.17.242-.033.274-.053.274-.17 0-.11.027-.131.164-.131.146 0 .165-.018.165-.165 0-.139.02-.164.137-.164.11 0 .137-.027.137-.137 0-.116.025-.137.164-.137.146 0 .165-.018.165-.165 0-.138.02-.164.136-.164.11 0 .138-.027.138-.137 0-.116.025-.137.164-.137.146 0 .164-.018.164-.164 0-.14.022-.165.137-.165.11 0 .137-.027.137-.137 0-.116.026-.137.165-.137s.164-.021.164-.137c0-.11.028-.137.137-.137.116 0 .137-.025.137-.164 0-.146.019-.165.165-.165.146 0 .164-.018.164-.164 0-.139.022-.165.137-.165.11 0 .137-.027.137-.137 0-.108.028-.137.132-.137.117 0 .136-.031.17-.274.033-.242.052-.274.17-.274.11 0 .131-.027.131-.164 0-.146.018-.165.164-.165.147 0 .165-.018.165-.164 0-.136.022-.164.13-.164.114 0 .134-.033.166-.27.03-.225.056-.274.157-.289.087-.012.127-.06.14-.168.013-.116.046-.15.144-.15.113 0 .131-.034.165-.302.034-.272.05-.301.17-.301.112 0 .134-.027.134-.165s.021-.164.137-.164c.127 0 .137-.019.137-.27 0-.255.009-.272.15-.288.141-.016.152-.037.168-.305.015-.265.027-.288.15-.288.127 0 .135-.018.135-.302 0-.28.008-.3.13-.3.118 0 .135-.032.169-.302.034-.273.05-.302.17-.302.13 0 .133-.01.133-.438 0-.425.005-.439.13-.439.113 0 .134-.033.165-.254.019-.14.034-.35.034-.466 0-.189.015-.211.137-.211h.137v-.603c0-.596.002-.603.129-.603.128 0 .128-.002.164-.913.02-.502.036-1.105.036-1.34 0-.4.008-.426.123-.443.12-.017.124-.036.14-.785.022-.988-.017-1.342-.149-1.342-.083 0-.103-.069-.133-.452-.02-.25-.035-.582-.035-.74 0-.27-.009-.288-.138-.288-.134 0-.137-.007-.137-.439 0-.425-.004-.438-.13-.438-.118 0-.135-.03-.169-.301-.034-.273-.05-.302-.17-.302-.125 0-.133-.019-.133-.298 0-.284-.007-.298-.151-.315-.119-.013-.155-.05-.168-.168-.014-.118-.046-.15-.151-.15-.112 0-.133-.027-.133-.165 0-.137-.022-.164-.132-.164-.117 0-.136-.032-.17-.275-.033-.242-.053-.274-.17-.274-.103 0-.131-.029-.131-.133 0-.105-.033-.137-.151-.15-.117-.014-.154-.05-.168-.164-.015-.13-.046-.15-.284-.183-.219-.03-.27-.058-.285-.155-.012-.084-.061-.124-.167-.136-.117-.014-.151-.047-.151-.147 0-.101-.034-.134-.15-.147-.107-.013-.156-.053-.168-.136-.014-.097-.066-.126-.288-.156-.24-.033-.271-.053-.271-.17 0-.123-.02-.131-.301-.131-.28 0-.302-.01-.302-.13 0-.112-.033-.134-.254-.164a3.996 3.996 0 0 0-.439-.035c-.16 0-.184-.018-.184-.137 0-.136-.005-.137-.466-.137-.454 0-.465-.003-.465-.131s-.015-.132-.603-.17c-.589-.04-.604-.044-.604-.172V0h-4.823v.13c0 .131 0 .132-.877.171-.877.04-.877.04-.877.171 0 .128-.012.13-.466.13-.46 0-.466.002-.466.138 0 .132-.012.137-.37.138-.604 0-.78.045-.78.198 0 .122-.02.13-.33.13-.314 0-.329.006-.329.137 0 .124-.02.137-.233.137a3.31 3.31 0 0 0-.438.035c-.17.028-.205.056-.205.164 0 .12-.021.13-.302.13-.28 0-.301-.01-.301-.13 0-.108-.036-.136-.206-.164a3.31 3.31 0 0 0-.438-.035c-.212 0-.233-.013-.233-.137 0-.135-.008-.137-.439-.137-.424 0-.438-.004-.438-.13 0-.112-.034-.134-.255-.164a4.18 4.18 0 0 0-.465-.035c-.19 0-.212-.015-.212-.137V.603h-.603c-.596 0-.603-.001-.603-.129 0-.122-.024-.13-.452-.164-.249-.02-.582-.035-.74-.036-.27 0-.288-.008-.288-.137V0H45.67v.137zM.616 41.243c0 .127-.018.137-.266.137H.084l-.035.254c-.044.323-.044 1.08 0 1.349.029.17.057.206.165.206.1 0 .13.03.13.129 0 .113.033.134.254.165.14.019 1.09.034 2.11.034h1.856v12.606H4.7c.11 0 .137.028.137.137 0 .116.025.137.164.137.146 0 .164.018.164.165 0 .162.004.164.302.164.285 0 .301.007.301.137s.017.137.302.137c.283 0 .301-.008.301-.134 0-.123.024-.136.288-.15.268-.016.289-.028.305-.168.014-.117.046-.15.147-.15.101 0 .134-.035.147-.152.012-.105.053-.155.134-.167.087-.012.125-.068.15-.22.019-.11.034-2.933.034-6.272l.001-6.07H9.24c.915 0 1.852-.016 2.083-.035.394-.033.42-.043.42-.165 0-.106.028-.129.164-.129.146 0 .164-.018.164-.164 0-.139.022-.164.137-.164.135 0 .137-.008.137-.439s-.002-.438-.137-.438c-.127 0-.137-.019-.137-.27v-.27l-.301-.038c-.27-.034-.302-.051-.302-.169v-.13H.617v.137zm23.732-.003c0 .123-.023.135-.288.15-.268.016-.288.027-.305.168-.013.118-.046.15-.15.15h-.134v14.689h.137c.109 0 .137.028.137.133 0 .12.03.137.302.17.27.035.301.052.301.17 0 .121.02.13.302.13.28 0 .301-.009.301-.13 0-.118.03-.135.301-.17.273-.033.302-.05.302-.17 0-.103.029-.133.13-.133.154 0 .197-.176.198-.808 0-.385.005-.398.134-.398.105 0 .137.033.15.151.014.119.05.154.169.168.118.014.15.046.15.15 0 .107.03.134.138.134.108 0 .137.028.137.133 0 .12.029.137.301.171.27.034.302.051.302.168 0 .11.027.131.164.131.136 0 .165.022.165.13 0 .107.035.136.205.164.113.018.31.034.438.034.212 0 .233.013.233.138V57h2.412v-.137c0-.119.024-.137.184-.137.101 0 .299-.016.439-.035.22-.03.254-.052.254-.164 0-.108.028-.13.164-.13.14 0 .165-.021.165-.137 0-.108.027-.137.133-.137.105 0 .137-.032.15-.15.014-.119.05-.155.169-.169.118-.013.15-.046.15-.15 0-.106.029-.134.138-.134.115 0 .137-.025.137-.164 0-.137.022-.165.132-.165.116 0 .136-.031.169-.274.033-.242.053-.274.17-.274.124 0 .132-.018.132-.329 0-.309.007-.328.13-.328.107 0 .135-.036.163-.206.019-.113.034-.31.035-.438 0-.212.013-.233.137-.233h.137v-3.344h-.13c-.127 0-.132-.017-.17-.575-.038-.56-.043-.576-.17-.576-.124 0-.133-.02-.133-.301 0-.283-.008-.302-.133-.302-.105 0-.137-.032-.15-.15-.014-.119-.05-.155-.169-.168-.141-.017-.15-.034-.15-.288 0-.252-.01-.27-.137-.27-.116 0-.137-.026-.137-.165 0-.146-.019-.164-.165-.164-.137 0-.164-.022-.164-.133 0-.12-.03-.137-.302-.171-.27-.034-.301-.051-.301-.168 0-.122-.02-.131-.302-.131-.28 0-.301-.01-.301-.129 0-.122-.024-.13-.452-.164a16.306 16.306 0 0 0-2.11 0c-.428.033-.453.042-.453.164 0 .12-.021.129-.3.129-.283 0-.302.008-.302.132 0 .116-.032.136-.274.17-.243.033-.274.052-.274.169 0 .11-.028.132-.165.132-.139 0-.164.021-.164.137 0 .11-.028.137-.137.137-.109 0-.137.027-.137.134 0 .178-.064.208-.357.164l-.246-.037V41.71h-.165c-.146 0-.164-.019-.164-.165 0-.162-.003-.164-.302-.164-.285 0-.3-.008-.3-.137 0-.13-.017-.137-.302-.137-.284 0-.302.008-.302.134zm13.209-.004c0 .118-.031.135-.302.169-.272.034-.301.05-.301.17 0 .106-.029.134-.137.134h-.137v14.688h.137c.108 0 .137.028.137.133 0 .12.03.137.301.17.271.035.302.052.302.17 0 .121.02.13.301.13.281 0 .302-.009.302-.13 0-.118.03-.135.301-.17.272-.033.302-.05.302-.17 0-.103.028-.133.13-.133.107 0 .135-.035.163-.205.019-.113.034-3.326.034-7.14 0-3.812-.015-7.025-.034-7.138-.028-.17-.056-.205-.164-.205-.107 0-.13-.028-.13-.165 0-.162-.002-.164-.3-.164-.286 0-.302-.008-.302-.137 0-.13-.017-.137-.302-.137-.28 0-.301.009-.301.13zm49.491.004c0 .123-.023.135-.288.15-.268.016-.288.027-.305.168-.013.115-.046.15-.142.15-.118 0-.128.029-.16.453-.02.248-.036 3.35-.036 6.892 0 3.542.016 6.643.035 6.892.034.428.042.452.164.452.1 0 .13.03.13.133 0 .12.028.137.3.17.271.035.302.052.302.17 0 .121.02.13.302.13.28 0 .301-.009.301-.13 0-.118.03-.135.302-.17.272-.033.3-.05.3-.17 0-.103.03-.133.13-.133.108 0 .136-.035.165-.205.018-.113.034-1.593.034-3.289V49.82h.138c.135 0 .137-.005.137-.466v-.465h.164c.146 0 .165-.019.165-.165 0-.139.021-.164.137-.164.11 0 .137-.028.137-.137 0-.11.027-.137.137-.137.11 0 .137-.028.137-.137 0-.116.025-.138.164-.138.137 0 .165-.022.165-.13 0-.107.035-.135.205-.163.27-.045 1.627-.045 1.952 0 .22.03.254.051.254.164 0 .102.03.13.137.13.11 0 .137.027.137.137 0 .115.026.137.165.137.146 0 .164.018.164.164 0 .139.021.164.137.164.132 0 .137.014.137.349 0 .587.054.857.172.857.098 0 .102.11.102 3.034 0 1.67.016 3.149.035 3.289.03.218.052.254.16.254.097 0 .13.035.144.15.016.141.037.153.305.168.264.015.288.028.288.15 0 .127.018.135.301.135.281 0 .302-.009.302-.13 0-.118.03-.135.301-.17.272-.033.302-.05.302-.17 0-.103.029-.133.129-.133.122 0 .13-.024.164-.452.046-.591.045-5.63 0-6.741-.036-.86-.037-.864-.165-.864-.12 0-.128-.02-.128-.329 0-.31-.008-.328-.132-.328-.117 0-.136-.032-.17-.274-.033-.243-.053-.274-.17-.274-.109 0-.131-.028-.131-.161 0-.135-.025-.164-.151-.178-.107-.013-.156-.053-.168-.14-.014-.1-.063-.128-.288-.157-.238-.032-.27-.052-.27-.166 0-.121-.021-.13-.302-.13-.281 0-.301-.009-.301-.131 0-.128-.015-.132-.609-.17a17.219 17.219 0 0 0-1.507-.001l-.898.04v.13c0 .123-.02.132-.302.132-.283 0-.301.008-.301.133 0 .105-.033.137-.151.151-.118.014-.155.05-.168.168-.014.118-.046.15-.15.15-.106 0-.134.03-.134.134 0 .105-.033.137-.151.15-.118.014-.154.05-.168.169-.014.118-.046.15-.15.15-.107 0-.134.029-.134.138 0 .11-.028.137-.137.137h-.137V44.9c-.001-1.53-.017-2.874-.035-2.987-.029-.17-.057-.205-.164-.205-.108 0-.13-.028-.13-.165 0-.162-.003-.164-.301-.164-.285 0-.302-.008-.302-.137 0-.13-.016-.137-.301-.137-.284 0-.302.008-.302.134zm13.209.003c0 .13-.017.137-.302.137s-.301.007-.301.137c0 .108-.028.137-.134.137-.11 0-.136.03-.15.178-.013.133-.047.182-.134.195-.087.012-.125.067-.15.219-.019.111-.034 3.174-.034 6.807 0 3.632.015 6.695.034 6.807.025.151.063.207.15.219.081.012.122.062.134.167.014.119.046.151.15.151.112 0 .134.027.134.165 0 .162.003.164.301.164.285 0 .302.007.302.137 0 .116.025.137.164.137s.165-.021.165-.137c0-.119.024-.137.184-.137.101 0 .298-.016.438-.035l.255-.035v-.266c0-.248.009-.267.137-.267h.137v-2.157c0-1.187.015-2.272.034-2.412.031-.22.052-.254.165-.254.107 0 .129.028.129.164 0 .138.022.165.132.165.117 0 .137.031.17.274.033.242.053.274.169.274.11 0 .132.027.132.164 0 .14.022.165.137.165.11 0 .137.027.137.137 0 .115.026.137.165.137.146 0 .164.018.164.164 0 .14.022.165.137.165.109 0 .137.027.137.133 0 .105.033.137.151.15.118.014.154.05.168.169.014.117.046.15.147.15.101 0 .134.034.147.151.013.108.053.156.139.168.101.015.128.063.158.285.031.237.052.27.179.284.1.012.15.054.162.137.01.075.062.126.137.137.084.012.125.061.137.168.013.117.046.15.147.15.101 0 .134.034.147.151.014.119.05.154.168.168.118.014.151.046.151.15 0 .107.028.134.137.134.116 0 .137.026.137.165 0 .138.021.164.137.164.109 0 .137.028.137.137 0 .115.026.137.161.137.134 0 .163.025.178.15.016.141.036.153.305.168.264.015.288.028.288.15 0 .113.026.135.164.135s.164-.022.164-.134c0-.123.024-.136.288-.15.269-.016.289-.028.305-.168.014-.119.046-.15.151-.15.133 0 .133-.002.133-.604 0-.6 0-.603-.132-.603-.116 0-.136-.031-.169-.274-.033-.242-.053-.274-.17-.274-.11 0-.132-.027-.132-.164 0-.146-.018-.165-.164-.165-.146 0-.164-.018-.164-.164 0-.139-.022-.164-.137-.164-.11 0-.137-.028-.137-.137 0-.11-.028-.137-.134-.137-.105 0-.137-.033-.151-.151-.013-.119-.049-.155-.168-.168-.118-.014-.15-.046-.15-.15 0-.106-.029-.134-.134-.134-.104 0-.137-.033-.15-.151-.014-.118-.05-.154-.168-.168-.119-.014-.151-.046-.151-.15 0-.107-.029-.134-.137-.134-.116 0-.137-.026-.137-.165s-.022-.164-.137-.164c-.11 0-.137-.027-.137-.137 0-.115-.026-.137-.158-.137-.151 0-.16-.014-.196-.302-.034-.272-.051-.301-.171-.301-.105 0-.133-.028-.133-.137 0-.109-.028-.137-.134-.137-.179 0-.208-.064-.164-.357.031-.212.054-.246.167-.246.109 0 .131-.028.131-.164 0-.147.018-.165.164-.165.138 0 .165-.022.165-.133 0-.105.032-.137.151-.15.107-.013.155-.053.168-.14.014-.101.063-.128.284-.157.238-.032.27-.052.285-.18.012-.111.051-.148.167-.161.118-.014.151-.046.151-.151 0-.106.028-.133.137-.133.108 0 .137-.028.137-.134 0-.105.032-.137.15-.15.119-.014.155-.05.168-.169.014-.118.046-.15.151-.15.106 0 .134-.029.134-.137 0-.116.025-.138.164-.138s.164-.02.164-.137c0-.11.028-.137.137-.137.116 0 .137-.025.137-.164 0-.136.023-.164.13-.164.111 0 .134-.034.161-.233.018-.128.018-.338.001-.466-.027-.2-.05-.233-.162-.233-.102 0-.13-.03-.13-.137 0-.116-.025-.137-.164-.137s-.164-.021-.164-.137c0-.135-.008-.137-.439-.137s-.438.002-.438.137c0 .13-.017.137-.302.137s-.301.007-.301.137c0 .11-.028.137-.137.137-.116 0-.137.026-.137.164 0 .147-.018.165-.165.165-.138 0-.164.021-.164.137 0 .11-.027.137-.137.137-.116 0-.137.025-.137.164 0 .146-.018.165-.165.165-.137 0-.164.021-.164.133 0 .105-.032.137-.151.15-.106.013-.155.053-.167.138a.156.156 0 0 1-.137.137c-.084.012-.126.061-.137.165-.014.114-.051.15-.165.164-.104.012-.152.053-.165.139-.014.1-.063.128-.284.157-.237.032-.27.052-.284.18-.012.1-.054.15-.137.16a.155.155 0 0 0-.137.138c-.012.085-.061.125-.168.137-.118.014-.151.046-.151.15 0 .106-.028.134-.133.134-.105 0-.137.033-.151.151-.013.118-.049.154-.168.168-.118.014-.151.046-.151.15 0 .105-.028.134-.129.134-.113 0-.134-.033-.165-.254-.019-.14-.034-1.965-.034-4.056v-3.801h-.137c-.128 0-.137-.02-.137-.267 0-.266-.001-.267-.206-.301a3.298 3.298 0 0 0-.438-.035c-.212 0-.233-.013-.233-.137 0-.116-.026-.137-.165-.137s-.164.021-.164.137zm10.797-.004c0 .12-.029.137-.302.17l-.301.038v.268c0 .249-.01.268-.137.268-.135 0-.137.005-.137.466 0 .46.002.465.137.465.109 0 .137.028.137.134 0 .105.032.137.151.15.106.013.155.053.168.138.014.1.064.125.316.157.363.045 1.7.01 1.757-.048.059-.059.095-1.284.049-1.706-.037-.352-.042-.36-.198-.36-.134 0-.16-.021-.16-.136v-.137h-1.48v.133zm-54.41.783c-.147.019-.178.046-.178.156 0 .105-.03.134-.134.134-.105 0-.137.032-.15.15-.014.119-.05.155-.169.168l-.15.018v3.212l-.206.034c-.113.018-.52.034-.904.034h-.7v.138c0 .107-.027.137-.129.137-.12 0-.131.024-.155.37a6.555 6.555 0 0 0-.001.732l.024.362.446.035c.245.02.634.035.864.035h.418l.034.172c.02.094.035 1.648.035 3.453v3.281h.137c.134 0 .137.008.137.439 0 .427.003.438.133.438.12 0 .136.03.17.302.034.27.051.301.169.301.103 0 .13.03.13.137 0 .116.026.137.165.137.138 0 .164.022.164.133 0 .12.03.137.302.17.27.035.301.052.301.17V57h2.686v-.137c0-.119.024-.137.184-.137.101 0 .299-.016.438-.035l.255-.035v-.266c0-.248.01-.267.137-.267.13 0 .137-.016.137-.301s-.008-.302-.137-.302c-.116 0-.137-.025-.137-.164 0-.146-.018-.165-.165-.165-.139 0-.164-.021-.164-.137v-.137h-.843c-1.011 0-1.173-.025-1.196-.184-.011-.082-.062-.122-.167-.134l-.15-.018v-6.844h.786c.433 0 .902-.015 1.041-.034.221-.03.255-.052.255-.165 0-.107.028-.13.164-.13h.165v-.397a5.191 5.191 0 0 0-.035-.603c-.034-.204-.035-.205-.301-.205-.248 0-.267-.01-.267-.137v-.137h-1.808v-3.343h-.137c-.11 0-.137-.028-.137-.137 0-.116-.026-.137-.164-.137-.137 0-.165-.023-.165-.13 0-.113-.033-.134-.254-.165a2.687 2.687 0 0 0-.773.005zM14.47 45.915c-.585.017-.59.019-.59.153 0 .132-.008.135-.438.135-.428 0-.438.003-.438.133 0 .111-.03.137-.178.151-.136.013-.182.046-.196.14-.014.1-.063.127-.287.157-.253.034-.27.046-.27.193 0 .13-.024.158-.133.158-.117 0-.136.031-.17.278a2.666 2.666 0 0 0-.001.576c.033.267.05.297.17.297.104 0 .133.029.133.13 0 .109.035.135.22.165.348.055.648-.012.668-.151.014-.102.058-.12.332-.133.293-.016.315-.026.315-.151 0-.127.017-.135.321-.135.542 0 .83-.056.83-.163 0-.079.075-.1.452-.13.577-.044 1.108-.045 1.431 0 .194.026.254.057.254.131 0 .075.063.106.274.135.243.033.274.053.274.17 0 .11.028.132.165.132.146 0 .164.018.164.164 0 .136.023.164.13.164.121 0 .13.024.163.453.02.248.036.58.036.739v.286l-1.22.015c-1.19.014-1.22.017-1.235.13-.016.107-.061.117-.68.15-.365.02-.82.036-1.011.036-.335 0-.348.005-.348.137 0 .131-.015.137-.329.137-.312 0-.329.007-.329.133 0 .12-.029.137-.301.17-.27.035-.302.052-.302.17 0 .102-.029.13-.137.13-.108 0-.137.028-.137.133 0 .105-.032.138-.15.151-.119.014-.155.05-.168.168-.014.118-.046.15-.151.15-.106 0-.134.03-.134.138 0 .107-.027.137-.13.137-.112 0-.133.033-.164.254a4.24 4.24 0 0 0-.035.466c0 .19-.014.212-.136.212h-.137v1.48h.131c.12 0 .135.028.17.328s.05.33.17.33c.121 0 .131.02.131.273 0 .254.01.274.134.274.104 0 .137.033.15.151.014.118.05.154.168.168.119.014.151.046.151.15 0 .124.02.134.274.134.253 0 .274.01.274.132 0 .12.03.135.33.17.3.034.328.05.328.17V57h2.686v-.13c0-.118.03-.135.301-.17.272-.033.302-.05.302-.17 0-.125.018-.133.3-.133.284 0 .302-.008.302-.133 0-.105.033-.137.151-.151.119-.014.154-.05.168-.168.014-.118.046-.15.15-.15.107 0 .134-.03.134-.138 0-.127.019-.137.267-.137h.266l.035.255c.02.14.035.395.035.568v.313l.255.035c.14.02.337.035.438.035.16 0 .184.018.184.137 0 .116.026.137.165.137.137 0 .164-.022.164-.134 0-.123.023-.136.288-.15.268-.016.288-.028.305-.168.013-.116.046-.15.142-.15.118 0 .128-.029.16-.453.047-.593.047-5.849 0-7.02-.035-.897-.038-.913-.157-.913-.107 0-.127-.038-.16-.302-.034-.272-.05-.301-.171-.301-.111 0-.133-.027-.133-.165 0-.139-.021-.164-.137-.164-.11 0-.137-.028-.137-.137 0-.116-.026-.137-.165-.137-.137 0-.164-.022-.164-.132 0-.117-.031-.136-.274-.17-.242-.033-.274-.053-.274-.17 0-.124-.018-.131-.329-.131-.308 0-.329-.008-.329-.129 0-.126-.014-.129-.666-.164-.639-.034-1.65-.033-2.91.005zm31.35 0c-.41.018-.425.023-.425.153 0 .128-.016.135-.329.135-.314 0-.328.006-.328.137 0 .128-.019.137-.27.137-.255 0-.272.009-.289.15-.013.119-.05.155-.168.169-.116.013-.15.046-.15.144 0 .113-.034.131-.302.165-.272.034-.301.05-.301.17 0 .105-.029.134-.132.134-.116 0-.136.031-.17.27-.03.222-.058.274-.155.288-.083.012-.124.062-.136.168-.013.116-.047.15-.144.15-.113 0-.132.034-.165.302-.034.272-.05.301-.17.301-.126 0-.134.02-.134.302 0 .285-.007.301-.137.301s-.137.016-.137.32c0 .177-.016.51-.035.74-.03.36-.05.42-.138.42-.09 0-.101.049-.101.466 0 .417.01.466.102.466.087 0 .106.061.136.452.02.249.036.582.036.74 0 .269.009.288.134.288s.136.021.151.315c.014.275.031.317.135.332.097.014.126.066.156.288.032.235.054.27.163.27.11 0 .13.035.163.302.034.272.05.301.17.301.112 0 .134.027.134.165 0 .139.021.164.137.164.11 0 .137.028.137.137 0 .116.025.137.164.137.138 0 .165.022.165.133 0 .12.029.137.301.171.27.034.302.051.302.168 0 .12.021.131.274.131.251 0 .274.01.274.13 0 .112.033.134.254.164.14.02.35.035.466.035.189 0 .211.014.211.137V57h3.289v-.137c0-.123.022-.137.211-.137.117 0 .326-.016.466-.035.221-.03.255-.052.255-.164 0-.12.02-.13.301-.13.282 0 .301-.008.301-.132 0-.116.032-.136.271-.169.222-.03.274-.059.288-.156.012-.083.062-.123.168-.136.118-.013.15-.046.15-.15s.03-.134.131-.134c.117 0 .135-.03.169-.301.02-.166.02-.437 0-.603-.034-.27-.052-.302-.169-.302-.103 0-.13-.029-.13-.137 0-.13-.017-.137-.302-.137s-.301.008-.301.137c0 .13-.017.137-.302.137s-.301.008-.301.137c0 .125-.022.138-.233.138-.438.001-.637.057-.655.184-.015.107-.055.118-.469.133-.44.015-.452.02-.452.15v.135h-1.48v-.135c0-.13-.013-.135-.452-.15-.448-.016-.452-.017-.47-.167-.016-.142-.033-.15-.287-.15-.252 0-.27-.01-.27-.138 0-.115-.026-.137-.165-.137-.146 0-.165-.018-.165-.164 0-.138-.021-.164-.133-.164-.12 0-.136-.03-.17-.302-.034-.27-.051-.301-.169-.301-.127 0-.13-.013-.13-.439 0-.43-.003-.438-.137-.438-.13 0-.137-.017-.137-.302v-.301h7.782v-.137c0-.108.028-.137.132-.137.12 0 .135-.029.17-.334.022-.184.021-.727 0-1.206-.04-.871-.04-.872-.171-.872-.122 0-.13-.02-.13-.301 0-.281-.01-.302-.131-.302-.118 0-.135-.03-.169-.301-.034-.272-.05-.302-.17-.302-.112 0-.134-.026-.134-.164 0-.137-.022-.164-.132-.164-.116 0-.136-.032-.169-.27l-.036-.27-.27-.036c-.238-.033-.27-.053-.27-.17 0-.11-.027-.131-.164-.131-.146 0-.164-.018-.164-.165 0-.162-.004-.164-.302-.164-.285 0-.301-.008-.301-.137 0-.13-.017-.137-.302-.137-.28 0-.301-.01-.301-.129 0-.126-.014-.129-.666-.164a28.026 28.026 0 0 0-2.472.005zm20.69 0c-.439.018-.452.022-.452.153 0 .132-.01.135-.439.135-.425 0-.438.004-.438.13 0 .118-.03.135-.302.169s-.301.05-.301.17c0 .112-.027.134-.164.134-.14 0-.165.021-.165.137 0 .108-.027.137-.133.137-.105 0-.137.032-.15.15-.014.119-.05.155-.169.169-.118.013-.15.046-.15.15 0 .106-.03.134-.138.134-.115 0-.137.025-.137.164 0 .137-.022.164-.132.164-.116 0-.136.032-.17.275-.032.242-.052.274-.169.274-.123 0-.132.02-.132.301 0 .28-.009.302-.13.302-.112 0-.133.033-.164.254a4.24 4.24 0 0 0-.035.466c0 .189-.014.211-.136.211h-.138v2.686h.138c.122 0 .136.022.136.211 0 .117.016.326.035.466.03.221.052.255.165.255.12 0 .13.02.13.301 0 .28.008.301.13.301.114 0 .134.033.165.27.03.225.057.274.158.289.087.012.127.06.14.168.013.117.045.15.146.15.101 0 .134.034.147.151.014.119.05.154.168.168.119.014.151.046.151.15 0 .107.029.134.137.134.109 0 .137.028.137.133 0 .12.03.137.302.171.27.034.301.051.301.168 0 .122.02.131.301.131.28 0 .302.01.302.13 0 .112.033.134.254.164.14.02.337.035.439.035.16 0 .184.018.184.137V57h3.343v-.137c0-.119.024-.137.184-.137.102 0 .299-.016.439-.035.22-.03.254-.052.254-.164 0-.12.021-.13.301-.13.283 0 .302-.008.302-.133 0-.105.032-.137.15-.151.12-.014.155-.05.169-.168.014-.126.043-.15.178-.15s.16-.023.16-.138c0-.11.028-.137.138-.137.11 0 .137-.027.137-.137 0-.11.027-.137.137-.137.115 0 .137-.026.137-.16 0-.135.024-.164.15-.179.119-.013.155-.05.169-.168.013-.118.045-.15.15-.15.125 0 .134-.02.134-.302 0-.28.009-.301.13-.301.112 0 .133-.034.164-.255.019-.14.034-.337.034-.438 0-.16.019-.184.138-.184h.136v-3.344h-.136c-.12 0-.138-.024-.138-.184a3.99 3.99 0 0 0-.034-.438c-.03-.221-.052-.255-.165-.255-.12 0-.13-.02-.13-.301 0-.283-.008-.301-.133-.301-.105 0-.137-.033-.15-.151-.013-.107-.053-.156-.14-.168-.101-.015-.128-.063-.158-.288-.033-.253-.046-.27-.193-.27-.13 0-.157-.023-.157-.132 0-.117-.032-.136-.274-.17-.243-.033-.274-.053-.274-.17 0-.11-.027-.131-.165-.131-.137 0-.164-.022-.164-.133 0-.12-.03-.137-.302-.171-.27-.034-.3-.051-.3-.168 0-.127-.014-.131-.44-.131-.423 0-.438-.004-.438-.129 0-.122-.024-.13-.452-.164-.442-.034-1.81-.032-2.713.005zm13.072 0c-.293.018-.316.029-.316.154 0 .13-.01.134-.438.134-.425 0-.438.004-.438.13 0 .118-.031.135-.302.169-.272.034-.301.05-.301.17 0 .112-.027.134-.165.134-.137 0-.164.022-.164.133 0 .105-.032.137-.15.15-.12.014-.155.05-.169.169-.014.118-.046.15-.15.15-.106 0-.134.029-.134.138 0 .108-.028.137-.133.137-.105 0-.137.032-.151.15-.014.119-.05.155-.168.169-.142.016-.15.033-.15.287 0 .249-.012.27-.132.27-.117 0-.134.032-.168.299-.03.25-.056.3-.157.315-.11.016-.12.052-.135.47-.016.438-.02.451-.151.451h-.135v2.74h.135c.13 0 .135.015.15.425.015.386.027.427.133.442.127.018.183.217.184.654.001.21.014.234.134.234.105 0 .138.032.151.15.014.119.05.155.168.168.119.014.15.046.15.15 0 .107.03.134.138.134.116 0 .137.026.137.165s.021.164.137.164c.11 0 .137.028.137.137 0 .116.026.137.164.137.147 0 .165.019.165.165 0 .146.018.164.164.164.14 0 .165.021.165.137 0 .13.016.137.301.137.28 0 .302.01.302.13 0 .107.035.136.205.164.113.018.31.034.439.034.211 0 .232.013.232.138V57h3.015v-.137c0-.125.021-.137.233-.138.128 0 .325-.016.438-.034.17-.028.206-.057.206-.164 0-.12.02-.13.301-.13.285 0 .302-.007.302-.137 0-.116.025-.137.164-.137.146 0 .165-.018.165-.164 0-.14.02-.165.137-.165h.137V54.59h-.302c-.285 0-.301-.008-.301-.138 0-.127-.018-.137-.274-.137s-.274.01-.274.137c0 .131-.015.138-.33.138-.308 0-.328.007-.328.128 0 .122-.026.132-.42.165-.53.045-1.79.045-2.06 0-.17-.028-.206-.056-.206-.164 0-.12-.02-.13-.301-.13-.298 0-.302-.001-.302-.164 0-.139-.02-.164-.137-.164-.11 0-.137-.028-.137-.137 0-.116-.025-.137-.164-.137-.163 0-.164-.003-.164-.302 0-.281-.01-.301-.131-.301-.117 0-.135-.031-.168-.302-.03-.243-.058-.301-.14-.301-.142 0-.174-.336-.153-1.617.016-1.023.018-1.042.136-1.058.1-.015.126-.065.157-.316.033-.267.05-.298.168-.298.122 0 .13-.02.13-.301 0-.298.002-.301.165-.301.139 0 .164-.022.164-.138 0-.11.028-.137.137-.137.116 0 .137-.025.137-.164 0-.163.004-.164.302-.164.285 0 .301-.008.301-.137 0-.123.023-.138.212-.138.116 0 .326-.015.466-.034.199-.028.254-.057.254-.137 0-.086.043-.103.274-.103.231 0 .274.017.274.103 0 .119.271.171.885.171.364 0 .376.005.376.138v.137h1.414l.038-.275c.034-.242.053-.274.17-.274.123 0 .132-.02.132-.3 0-.286-.008-.302-.137-.302-.115 0-.137-.026-.137-.161s-.025-.164-.151-.178c-.118-.014-.155-.05-.168-.168-.014-.119-.046-.151-.15-.151-.107 0-.134-.028-.134-.137 0-.136-.006-.137-.466-.137-.453 0-.466-.004-.466-.129 0-.126-.014-.129-.666-.164-.66-.036-1.7-.033-2.307.005zm31.747.15c0 .129-.019.138-.27.138-.255 0-.272.009-.288.15-.014.119-.05.155-.168.169l-.151.017.001 4.724c0 2.598.016 4.816.034 4.929.028.17.057.205.164.205.101 0 .13.03.13.133 0 .12.029.137.301.17.271.035.302.052.302.17 0 .121.02.13.301.13.284 0 .302-.008.302-.134 0-.123.023-.136.287-.15.269-.016.289-.028.305-.168.014-.116.047-.15.143-.15.118 0 .127-.029.161-.453.019-.249.035-2.277.035-4.508 0-2.23-.016-4.26-.035-4.508-.034-.428-.042-.452-.165-.452-.1 0-.128-.03-.128-.137 0-.116-.026-.137-.165-.137s-.164-.021-.164-.137c0-.136-.006-.137-.466-.137-.461 0-.466.001-.466.137zm-81.488 1.652c.151.026.206.063.219.15.012.082.062.122.167.135.117.013.151.046.151.147 0 .1.034.133.15.147.107.012.157.052.169.137.01.075.062.126.137.137.084.012.125.061.137.168.014.118.046.15.15.15.119 0 .134.024.134.212 0 .437.064.72.164.72.077 0 .1.074.13.42a20.98 20.98 0 0 1 0 2.392c-.032.368-.049.418-.151.433-.105.015-.117.056-.131.468-.016.44-.02.453-.151.453-.113 0-.135.026-.135.164 0 .146-.018.164-.165.164-.146 0-.164.019-.164.165 0 .139-.021.164-.137.164-.11 0-.137.028-.137.137 0 .116-.026.137-.164.137-.14 0-.165.022-.165.137v.137h-2.356v-.13c0-.118-.031-.135-.302-.169-.272-.034-.301-.05-.301-.17 0-.112-.027-.133-.165-.133-.163 0-.164-.004-.164-.302 0-.282-.009-.301-.132-.301-.117 0-.136-.032-.17-.271-.03-.222-.058-.274-.155-.288-.113-.016-.12-.049-.134-.633-.016-.615-.016-.617-.151-.617h-.135v-1.754h.137c.133 0 .137-.01.137-.397.001-.601.046-.8.185-.82.1-.014.119-.058.133-.304.015-.262.028-.288.147-.288.101 0 .134-.033.148-.15.013-.119.05-.155.168-.168.118-.014.15-.046.15-.151 0-.124.02-.134.275-.134.25 0 .274-.01.274-.127 0-.07.016-.145.036-.165.046-.046 1.892-.047 2.167-.002zm18.514.099c0 .12.03.136.301.17.268.034.302.052.302.165 0 .098.035.131.15.145.119.013.155.05.169.168.013.118.046.15.15.15.126 0 .134.02.134.302 0 .28.009.301.13.301.107 0 .135.036.163.206.02.113.035.322.035.466 0 .24.01.26.138.26.097 0 .137.03.137.102 0 .076-.054.112-.206.137-.268.044-5.295.044-5.563 0-.17-.028-.205-.056-.205-.164 0-.102.029-.13.137-.13.134 0 .137-.007.137-.438 0-.426.003-.439.13-.439.118 0 .135-.03.169-.301.034-.272.05-.302.17-.302.112 0 .133-.026.133-.164 0-.146.019-.164.165-.164.139 0 .164-.022.164-.137 0-.128.019-.138.274-.138.25 0 .274-.01.274-.127 0-.07.017-.145.037-.165.02-.02.563-.036 1.206-.036h1.169v.133zm20.707.045c.017.144.031.15.315.15.282 0 .298.008.298.138 0 .11.028.137.137.137.116 0 .137.025.137.164 0 .138.022.164.133.164.12 0 .137.03.171.302.034.27.051.301.168.301.117 0 .131.025.132.233 0 .415.06.644.163.644.135 0 .164.24.164 1.343s-.03 1.343-.163 1.343c-.1 0-.165.281-.165.72 0 .187-.015.212-.132.212-.116 0-.136.031-.169.27-.03.222-.059.274-.156.288-.083.012-.124.062-.136.168-.013.118-.046.15-.15.15-.105 0-.134.03-.134.133 0 .12-.029.137-.301.171-.27.034-.302.051-.302.169v.13h-2.411v-.133c0-.105-.033-.137-.151-.15-.118-.014-.154-.05-.168-.169-.014-.118-.046-.15-.15-.15-.106 0-.134-.03-.134-.134 0-.105-.033-.137-.15-.15-.12-.014-.155-.05-.169-.169-.014-.118-.046-.15-.15-.15-.124 0-.134-.02-.134-.274 0-.255-.01-.275-.135-.275-.132 0-.135-.01-.15-.48-.015-.44-.026-.48-.133-.495-.106-.015-.12-.063-.155-.514a7.996 7.996 0 0 1 0-1.008c.034-.466.048-.512.154-.528.108-.015.119-.054.133-.468.016-.44.02-.453.151-.453.127 0 .135-.017.135-.301 0-.283.008-.301.133-.301.105 0 .137-.033.151-.151.014-.119.05-.155.168-.168.118-.014.15-.046.15-.151 0-.106.03-.133.138-.133.11 0 .137-.028.137-.137 0-.116.026-.138.164-.138s.165-.021.165-.133c0-.172.068-.18 1.37-.173l1.014.005.017.15zm-50.991 4.014c.02.136.02.604-.002 1.042-.038.787-.04.794-.168.794-.12 0-.129.022-.129.302 0 .298-.001.301-.164.301-.139 0-.165.022-.165.137 0 .11-.027.138-.137.138-.115 0-.137.025-.137.164 0 .146-.018.164-.164.164-.139 0-.165.022-.165.137 0 .135-.007.137-.438.137s-.438.003-.438.137c0 .135-.008.137-.439.137-.392 0-.438-.01-.438-.102 0-.114-.218-.17-.672-.171-.24 0-.26-.01-.26-.138 0-.11-.027-.137-.137-.137-.116 0-.137-.025-.137-.164 0-.146-.018-.164-.165-.164h-.164v-.466c0-.46-.002-.466-.137-.466-.1 0-.137-.03-.137-.11s.037-.11.137-.11c.131 0 .137-.014.137-.328v-.33h.165c.138 0 .164-.02.164-.136 0-.109.027-.137.133-.137.105 0 .137-.033.151-.151.016-.14.037-.152.305-.167.264-.016.288-.028.288-.15v-.135h1.206v-.274h2.07l.037.246z" fill="#000"/></svg>