<svg width="96" height="33" viewBox="0 0 96 33" fill="none" xmlns="http://www.w3.org/2000/svg"><path fill-rule="evenodd" clip-rule="evenodd" d="M0 10.477c0 6.738.021 10.709.058 11.125.42 4.68 2.811 8.323 6.689 10.191 2.84 1.369 6.417 1.587 9.454.577 1.608-.535 2.934-1.33 4.304-2.58l.337-.308.015 1.489.015 1.488h4.78V0h-4.838v10.252c-.002 6.33-.023 10.457-.057 10.787-.224 2.16-.979 3.874-2.315 5.26-1.116 1.16-2.36 1.837-4.04 2.2-.679.148-2.399.149-3.149.003-2.999-.583-5.254-2.747-6.048-5.804-.32-1.231-.31-.867-.31-12.237V0H0v10.477zm29.308 5.752v16.23h4.613v-2.931l.605.524c.333.287.77.64.97.781 3.596 2.537 8.407 2.873 12.439.867a12.095 12.095 0 0 0 3.255-2.334c2.927-2.953 4.141-7.077 3.314-11.252-.368-1.854-1.346-3.883-2.59-5.372-1.9-2.275-4.44-3.729-7.473-4.277-.796-.143-2.757-.176-3.635-.061-2.411.317-4.485 1.296-6.487 3.063l-.342.301V0h-4.669v16.23zM67.73 8.385a12.014 12.014 0 0 0-7.677 3.66c-1.688 1.759-2.771 3.888-3.244 6.378-.15.783-.208 2.814-.108 3.693.585 5.107 4.147 9.169 9.142 10.425 1.232.31 1.928.393 3.322.394.744 0 1.439-.03 1.743-.075 3.38-.5 6.053-1.989 8.115-4.518l.352-.431-1.674-1.242c-.92-.683-1.69-1.242-1.709-1.242-.02 0-.142.138-.272.307-.321.416-1.298 1.35-1.749 1.67a8.938 8.938 0 0 1-1.926 1c-.847.295-1.485.403-2.571.436-1.087.032-1.651-.032-2.56-.29-.68-.193-1.86-.787-2.45-1.232-1.209-.912-2.21-2.268-2.717-3.677-.157-.438-.374-1.242-.374-1.388 0-.08.88-.089 9.598-.089h9.598l-.029-1.56c-.03-1.594-.082-2.11-.323-3.146-.407-1.747-1.283-3.553-2.382-4.913-1.825-2.256-4.556-3.745-7.527-4.103-.725-.087-1.926-.114-2.578-.057zm24.856.286a6.5 6.5 0 0 0-2.804.99c-.548.356-1.4 1.181-1.722 1.67l-.22.332-.014-1.415-.015-1.416h-4.668l.015 11.8.014 11.799h4.668l.03-7.313c.03-7.17.032-7.323.148-7.82.437-1.877 1.564-3.311 3.084-3.923.75-.302.993-.337 2.518-.365l1.449-.026V8.607l-1.027.007c-.565.004-1.22.03-1.457.057zm-22.71 3.871c1.992.344 3.664 1.44 4.8 3.147.521.783.951 1.77 1.124 2.58l.04.182H61.437l.108-.39c1.062-3.831 4.585-6.165 8.331-5.519zm-26.637.033c3.33.495 5.976 3.022 6.725 6.424.1.452.122.744.126 1.646.004.952-.013 1.174-.126 1.678-.377 1.683-1.095 3.01-2.261 4.175-1.138 1.136-2.503 1.876-4.116 2.229-.663.145-2.459.145-3.14 0-2.331-.493-4.325-1.918-5.46-3.901a8.339 8.339 0 0 1-.15-8.03c.987-1.898 2.83-3.396 4.919-3.996a8.657 8.657 0 0 1 3.483-.225z" fill="#000"/></svg>