<svg width="76" height="44" viewBox="0 0 76 44" fill="none" xmlns="http://www.w3.org/2000/svg"><path fill-rule="evenodd" clip-rule="evenodd" d="M.037.033C.017.053 0 7.493 0 16.565c0 14.991.008 16.5.087 16.53.148.056 13.762.032 14.388-.026.924-.086 1.272-.146 1.98-.342.623-.172.962-.302 1.63-.622.214-.103.418-.188.453-.188.035 0 .064-.024.064-.054s.062-.07.138-.088c.076-.02.137-.057.137-.084 0-.027.025-.05.054-.05.052 0 .66-.369.717-.435.024-.028.274-.225.632-.499.183-.14 1.147-1.117 1.304-1.322.238-.31.34-.44.472-.604a.676.676 0 0 0 .124-.196c0-.023.061-.123.137-.223.076-.099.138-.204.138-.234 0-.03.02-.063.043-.073.041-.017.583-1.099.672-1.339.022-.06.08-.204.13-.318.05-.115.09-.245.09-.29a.48.48 0 0 1 .049-.177 2.84 2.84 0 0 0 .204-.728c.02-.137.056-.273.078-.303.086-.116.127-.761.128-2.009.002-1.258-.03-1.624-.204-2.366l-.121-.523a.908.908 0 0 0-.076-.22 3.16 3.16 0 0 1-.144-.4c-.058-.189-.125-.343-.147-.343-.023 0-.042-.062-.042-.138 0-.076-.025-.138-.055-.138a.054.054 0 0 1-.055-.053c0-.155-.67-1.383-.777-1.423-.027-.01-.048-.045-.048-.078 0-.032-.104-.197-.232-.365-.354-.47-.413-.539-.868-1.019l-.191-.202.274-.535c.15-.294.292-.543.315-.553.022-.01.041-.078.041-.152 0-.073.02-.132.044-.132.024 0 .09-.143.147-.317.058-.174.12-.341.14-.371.02-.03.08-.229.132-.44.053-.213.118-.436.144-.496.026-.06.06-.21.075-.33.015-.121.057-.382.093-.578.087-.473.088-2.508.001-2.972-.037-.197-.08-.457-.095-.578a1.773 1.773 0 0 0-.073-.33c-.08-.2-.223-.724-.223-.817 0-.05-.024-.091-.055-.091-.03 0-.055-.047-.055-.104 0-.11-.09-.355-.306-.82a2.039 2.039 0 0 1-.134-.34.08.08 0 0 0-.041-.066c-.023-.01-.103-.142-.18-.292-.177-.353-.79-1.267-1.072-1.6-.29-.342-1.064-1.118-1.288-1.292-.097-.075-.229-.18-.292-.233a9.306 9.306 0 0 0-.506-.357c-.215-.145-.4-.281-.41-.304-.01-.022-.05-.04-.091-.04-.04 0-.082-.02-.092-.042-.027-.062-1.135-.62-1.23-.62-.045 0-.081-.021-.081-.048s-.069-.061-.152-.076a3.974 3.974 0 0 1-.646-.21C14.818.31 14.07.159 13.126.054 12.62-.003.092-.023.036.033zm60.09.03a6.9 6.9 0 0 1-.413.077 1.585 1.585 0 0 0-.303.074 3.5 3.5 0 0 1-.467.111c-.197.037-.463.089-.592.116-.282.06-.582.121-1.06.214a3.83 3.83 0 0 0-.467.115 1.62 1.62 0 0 1-.33.071 5.89 5.89 0 0 0-.578.115c-.197.049-.482.11-.633.138-.151.027-.573.115-.936.195a112.36 112.36 0 0 1-1.403.3c-.136.03-.267.054-.29.056-.022.001-.034 7.08-.027 15.729l.014 15.726 3.77.015c2.074.009 3.826.002 3.894-.014l.124-.03V16.564c0-9.078-.019-16.516-.042-16.528-.022-.011-.14.001-.261.028zM70.942 3.96a.665.665 0 0 1-.28.054c-.109 0-.216.019-.238.041-.022.023-.218.074-.436.114-.217.04-.5.097-.629.125-.266.058-.545.115-1.06.215-.196.038-.406.09-.467.114a1.82 1.82 0 0 1-.33.074 7.562 7.562 0 0 0-.578.116c-.197.047-.482.108-.633.135a35.02 35.02 0 0 0-.936.195c-.734.162-.99.215-1.513.317l-.358.07-.014 10.52c-.008 6.633.006 10.67.04 10.924.12.897.165 1.1.398 1.78.16.471.586 1.327.746 1.501.038.041.069.092.069.112 0 .02.074.124.165.23.09.106.164.21.165.232 0 .064.788.83 1.007.979.112.076.203.156.203.179 0 .023.027.041.06.041.032 0 .137.06.233.133.214.161.939.522 1.386.69.182.068.38.144.44.169.345.14 1.014.26 2.037.363.68.069.955.072 1.568.02.408-.036.784-.087.836-.114a.603.603 0 0 1 .236-.05c.196 0 1.234-.356 1.722-.59l.4-.192-.015-2.843-.014-2.842-.138.012a8.415 8.415 0 0 0-.468.068c-.907.154-1.654.125-2.036-.079-.226-.12-.521-.332-.522-.375 0-.024-.063-.11-.138-.192-.076-.081-.138-.18-.138-.217 0-.039-.025-.07-.055-.07s-.055-.044-.055-.099a.262.262 0 0 0-.047-.151c-.062-.068-.17-.46-.24-.878-.033-.19-.066-1.77-.08-3.728l-.021-3.398 1.941-.014 1.942-.015v-7.76l-1.94-.014-1.94-.015V6.875c0-2.793-.006-2.971-.096-2.97a.397.397 0 0 0-.18.054zM13.17 8.016c.245.115.483.287.688.495.414.42.545.639.67 1.12.095.366.024 1.431-.103 1.538a1.48 1.48 0 0 0-.143.233c-.156.293-.483.698-.564.7-.038.001-.069.022-.069.046 0 .023-.13.11-.289.192-.596.308-.646.313-3.165.314H7.87v-4.85l2.463.017 2.463.018.374.177zM37.094 9.46c-.592.047-1.216.142-1.453.223a1.17 1.17 0 0 1-.313.054c-.084 0-.169.025-.187.056-.02.03-.089.055-.155.056-.13.002-.677.18-.736.238-.02.02-.089.036-.153.036-.065 0-.141.021-.17.047a1.738 1.738 0 0 1-.341.149c-.16.055-.29.12-.29.145 0 .024-.036.044-.081.044-.133 0-1.41.69-1.45.782-.01.024-.053.044-.096.044-.043 0-.078.019-.078.042 0 .024-.087.09-.193.146-.106.057-.192.125-.192.15 0 .026-.027.047-.06.047-.032 0-.091.03-.131.069-.04.037-.141.118-.225.178-.084.061-.264.21-.4.33-.135.122-.288.25-.34.287-.133.093-.541.512-.77.79a8.767 8.767 0 0 1-.303.35 6.772 6.772 0 0 0-.358.445c-.136.182-.266.338-.29.348-.022.01-.04.043-.04.073s-.062.135-.138.234c-.076.1-.138.21-.138.244 0 .035-.024.064-.055.064-.03 0-.055.037-.055.083 0 .045-.022.082-.049.082-.027 0-.064.062-.083.138-.02.075-.06.137-.089.137-.03 0-.054.038-.054.084 0 .046-.062.182-.137.302-.076.12-.138.255-.138.301 0 .046-.025.084-.055.084s-.055.037-.055.083c0 .045-.062.21-.138.368-.075.157-.137.325-.137.374a.234.234 0 0 1-.05.14c-.055.058-.086.156-.363 1.154-.229.826-.302 1.404-.34 2.669-.037 1.263.028 1.943.293 3.082.046.197.104.42.129.495.024.076.087.287.14.468.053.182.112.355.132.385.02.03.069.155.11.276.103.31.596 1.32.812 1.666.1.159.182.301.182.315 0 .028.661.972.712 1.018.017.015.13.151.252.303.263.328 1.116 1.185 1.46 1.466.135.11.32.265.41.344.092.079.183.143.203.143.02 0 .07.034.111.075.041.04.185.143.32.228.136.085.26.17.275.19.015.02.114.079.22.131.221.11.4.215.44.261.015.018.145.08.289.138.144.058.261.124.261.147 0 .023.049.041.108.041.058 0 .12.021.135.047.016.026.148.09.292.142.145.052.313.116.374.142.06.025.234.088.385.139.151.05.325.112.385.135.267.104.927.268 1.349.334.95.15 1.222.172 2.174.175 1.326.005 2.21-.112 3.384-.446l.33-.091c.393-.104 1.992-.8 2.092-.91.015-.017.114-.073.22-.125.213-.105.398-.214.44-.259a5.11 5.11 0 0 1 .33-.22c.311-.195.38-.246.68-.506.095-.083.193-.151.216-.152.065-.001 1.423-1.369 1.667-1.68.12-.15.23-.287.245-.302.097-.096.33-.443.33-.492 0-.032.019-.058.043-.058.023 0 .09-.08.147-.18a1.49 1.49 0 0 1 .136-.206c.018-.015.105-.17.195-.344.09-.174.182-.316.206-.316.024 0 .043-.035.043-.078 0-.092.174-.437.234-.463.023-.01.041-.054.041-.097 0-.08.02-.127.185-.444a.803.803 0 0 0 .09-.289c0-.063.025-.115.056-.115.03 0 .054-.043.054-.095 0-.083.093-.38.22-.703.04-.102.155-.594.274-1.183.296-1.455.266-3.337-.076-4.843a45.885 45.885 0 0 1-.116-.523 2.11 2.11 0 0 0-.078-.276 9.028 9.028 0 0 1-.138-.412c-.128-.41-.16-.49-.467-1.174a3.238 3.238 0 0 1-.169-.422.077.077 0 0 0-.041-.065c-.023-.01-.084-.105-.136-.21-.152-.31-.432-.791-.516-.886-.043-.047-.077-.115-.077-.15 0-.036-.02-.065-.044-.065-.023 0-.09-.079-.146-.175-.098-.167-.148-.232-.38-.504a20.92 20.92 0 0 1-.275-.334c-.198-.244-1.183-1.244-1.226-1.244-.016 0-.06-.03-.098-.069a6.434 6.434 0 0 0-.308-.261 7.314 7.314 0 0 1-.298-.25 1.715 1.715 0 0 0-.239-.164c-.098-.058-.178-.124-.178-.148 0-.024-.024-.043-.053-.043-.028 0-.288-.149-.576-.33-.288-.182-.562-.33-.608-.33-.046 0-.084-.02-.084-.044 0-.023-.124-.09-.276-.15-.15-.058-.275-.126-.275-.15 0-.023-.048-.042-.107-.042-.058 0-.12-.023-.138-.05-.017-.029-.11-.07-.208-.09a1.286 1.286 0 0 1-.26-.085c-.074-.04-.635-.226-1.13-.375a8.955 8.955 0 0 0-.688-.143 10.66 10.66 0 0 1-.688-.14c-.232-.065-2.205-.104-2.835-.055zm2.064 8.188c.212.054.394.116.404.139.01.022.078.04.151.04s.133.026.133.056c0 .03.031.055.069.055.151 0 .823.508 1.19.898.437.467.888 1.355.888 1.752 0 .083.024.165.055.184.068.042.073 1.203.006 1.336-.044.087-.126.37-.21.728a.423.423 0 0 1-.068.165 1.354 1.354 0 0 0-.137.262c-.057.128-.124.233-.15.233-.026 0-.047.027-.047.06 0 .032-.03.092-.069.133-.037.04-.167.197-.288.348a3.12 3.12 0 0 1-.578.513c-.197.132-.37.253-.386.27-.039.041-.698.3-.99.389-.157.048-.507.073-.963.071-.632-.003-.767-.02-1.145-.153-1.052-.366-1.757-.965-2.26-1.919-.218-.415-.302-.656-.367-1.06l-.084-.514c-.057-.337.163-1.522.313-1.685a.218.218 0 0 0 .048-.128c0-.251 1.034-1.49 1.32-1.58.061-.02.11-.058.11-.087 0-.028.036-.051.079-.051.043 0 .086-.02.096-.044.026-.06.558-.283.954-.398.46-.134 1.419-.14 1.926-.013zm-24.787 2.905c.133.045.344.135.47.199.255.128.844.656.844.755 0 .035.019.063.042.063.023 0 .076.08.117.18.042.098.114.26.16.36.056.126.082.363.081.77 0 .54-.014.62-.17.961a2.638 2.638 0 0 1-1.218 1.241l-.415.203H7.898l-.015-2.408-.014-2.407h3.13c2.65 0 3.168.012 3.372.083zM37.425 36.3a6.143 6.143 0 0 0-.964.336c-.427.213-1.4 1.053-1.402 1.21 0 .038-.023.069-.05.069-.059 0-.41.707-.52 1.046a4.253 4.253 0 0 0-.122.495c-.08.459-.025 1.59.084 1.734.023.03.06.129.08.22.061.256.352.8.574 1.072.268.33.64.717.689.717.022 0 .106.061.188.137.081.076.18.138.218.138.038 0 .069.024.069.055 0 .03.035.055.078.055s.148.035.234.077c.21.104.382.17.678.26.33.1 1.782.105 1.88.007a.268.268 0 0 1 .164-.07c.117 0 .784-.28.81-.341.01-.024.041-.043.07-.043.162 0 .95-.701 1.201-1.068a1.31 1.31 0 0 1 .11-.143c.017-.015.096-.164.176-.33.13-.27.209-.492.383-1.078.07-.237.062-1.27-.012-1.505-.164-.518-.236-.716-.37-1.008-.08-.175-.165-.317-.187-.317-.023 0-.042-.026-.042-.057 0-.078-.073-.165-.531-.623-.465-.465-.82-.678-1.615-.97-.193-.07-1.602-.127-1.871-.075z" fill="#000"/></svg>