<svg width="60" height="35" viewBox="0 0 60 35" fill="none" xmlns="http://www.w3.org/2000/svg"><path d="M.884 34.3a1.859 1.859 0 0 1-.518-1.328c0-.522.174-.966.518-1.327.344-.362.782-.543 1.311-.543.642 0 1.215.346 1.51.888l-.31.186a1.334 1.334 0 0 0-1.2-.723c-.433 0-.792.145-1.066.44a1.523 1.523 0 0 0-.414 1.08c0 .428.14.784.414 1.08.274.294.633.439 1.066.439.518 0 .981-.284 1.2-.724l.31.18a1.702 1.702 0 0 1-1.51.895c-.529 0-.967-.181-1.31-.543zm4.666.14h1.693v.34H5.2v-3.615h2.018v.34H5.55v1.281h1.545v.34H5.55v1.313zm4.768.403a1.71 1.71 0 0 1-1.28-.543 1.85 1.85 0 0 1-.524-1.328c0-.522.174-.96.523-1.322a1.698 1.698 0 0 1 1.281-.548c.504 0 .932.18 1.281.548.35.362.524.8.524 1.322 0 .523-.175.96-.524 1.328a1.713 1.713 0 0 1-1.28.543zm0-.352c.414 0 .758-.144 1.037-.439.279-.295.419-.656.419-1.08 0-.423-.14-.78-.42-1.074a1.37 1.37 0 0 0-1.036-.444c-.414 0-.757.15-1.037.444a1.5 1.5 0 0 0-.418 1.074c0 .424.14.785.418 1.08.28.295.623.44 1.037.44zm5.961-.191a1.859 1.859 0 0 1-.519-1.328c0-.522.175-.966.519-1.327.343-.362.782-.543 1.31-.543a1.71 1.71 0 0 1 1.51.888l-.309.186a1.334 1.334 0 0 0-1.2-.723c-.434 0-.793.145-1.067.44a1.524 1.524 0 0 0-.414 1.08c0 .428.14.784.414 1.08.274.294.633.439 1.066.439.519 0 .981-.284 1.201-.724l.31.18a1.702 1.702 0 0 1-1.51.895c-.53 0-.968-.181-1.311-.543zm4.663.14h1.594v.34h-1.943v-3.615h.35v3.274zm2.836-3.273h.35v2.386c0 .579.349.94.946.94.598 0 .946-.361.946-.94v-2.386h.349v2.386c0 .393-.119.707-.358.94-.24.234-.553.351-.937.351s-.698-.119-.938-.35c-.239-.232-.358-.548-.358-.941v-2.386zm6.815 2.607a.988.988 0 0 1-.284.713.922.922 0 0 1-.688.294h-1.52v-3.614h1.405a.89.89 0 0 1 .663.29.944.944 0 0 1 .274.681c0 .335-.134.594-.408.77a.928.928 0 0 1 .558.866zm-2.143-2.267v1.26h1.056a.551.551 0 0 0 .414-.181.636.636 0 0 0 .174-.45c0-.17-.06-.32-.174-.443a.538.538 0 0 0-.414-.186H28.45zm1.171 2.933c.175 0 .32-.062.438-.192a.661.661 0 0 0 .185-.475c0-.181-.06-.34-.185-.47a.574.574 0 0 0-.438-.196h-1.17v1.332h1.17zm4.759-3.273h.35v2.386c0 .579.349.94.946.94s.946-.361.946-.94v-2.386h.35v2.386c0 .393-.121.707-.36.94-.24.232-.553.351-.937.351s-.698-.119-.938-.35c-.239-.232-.359-.548-.359-.941v-2.386h.003zm6.765 3.615h-.459l-1.634-1.751v1.75h-.349v-3.614h.35v1.652l1.584-1.652h.46l-1.675 1.755 1.723 1.86zm3.519 0l-.817-1.446h-.976v1.446h-.35v-3.615h1.395c.29 0 .533.108.737.32.205.212.31.465.31.764 0 .242-.07.465-.215.656-.14.192-.32.315-.538.382l.852 1.492h-.398zm-1.793-3.275v1.487h1.045a.651.651 0 0 0 .494-.217.766.766 0 0 0 .205-.526.748.748 0 0 0-.205-.527.647.647 0 0 0-.493-.217H42.87zm6.096 3.275l-.325-.889h-1.654l-.325.889h-.368l1.34-3.615h.36l1.34 3.614h-.368zm-1.854-1.23h1.405l-.702-1.936-.703 1.936zm3.599-2.385h.349v3.614h-.349v-3.614zm4.346 0h.349v3.614h-.299l-1.942-2.943v2.944h-.35v-3.615h.3l1.942 2.943v-2.943zm2.459 3.273h1.694v.34H57.17v-3.615h2.018v.34h-1.67v1.281h1.546v.34h-1.545v1.313h-.001zM47.82.738c-2.082 0-4.034.59-5.712 1.611l-.001-.002-3.978 2.378C36.056 2.282 33.023.736 29.646.736 23.41.736 18.34 5.993 18.34 12.453c0 1.312.212 2.571.597 3.75l-3.97 2.374v-.001a6.635 6.635 0 0 1-3.495.995c-3.787 0-6.867-3.192-6.867-7.118 0-3.925 3.08-7.117 6.867-7.117a6.7 6.7 0 0 1 4.494 1.741c.54-1.47 1.293-2.83 2.223-4.042A10.988 10.988 0 0 0 11.472.736C5.24.738.167 5.995.167 12.455c0 6.461 5.072 11.717 11.305 11.717 2.083 0 4.035-.59 5.713-1.612v.003l3.976-2.377c2.073 2.443 5.107 3.987 8.486 3.987 6.234 0 11.306-5.257 11.306-11.717 0-.516-.037-1.022-.099-1.52l-4.426 2.647c-.522 3.39-3.363 5.991-6.781 5.991a6.702 6.702 0 0 1-4.516-1.762l19.194-11.48.001.002a6.635 6.635 0 0 1 3.494-.996c3.788 0 6.868 3.193 6.868 7.118 0 3.925-3.08 7.118-6.868 7.118a6.7 6.7 0 0 1-4.493-1.742 15.325 15.325 0 0 1-2.223 4.042 10.988 10.988 0 0 0 6.716 2.3c6.235 0 11.306-5.258 11.306-11.718C59.126 5.995 54.055.738 47.82.738zM22.78 12.455c0-3.926 3.08-7.118 6.867-7.118 1.728 0 3.307.667 4.514 1.763l-11.253 6.73a7.406 7.406 0 0 1-.129-1.375z" fill="#000"/></svg>