<svg width="69" height="26" viewBox="0 0 69 26" fill="none" xmlns="http://www.w3.org/2000/svg"><path fill-rule="evenodd" clip-rule="evenodd" d="M.156.594a2085.184 2085.184 0 0 1 1.11 4.2c.362 1.378.768 2.914.9 3.414.3 1.123 1.721 6.506 1.957 7.407.095.364.341 1.293.547 2.065.206.773.514 1.938.685 2.589.17.651.578 2.2.906 3.442l.595 2.258 1.65.014 1.651.015.456-.24c1.006-.527 1.53-1.052 1.988-1.992.536-1.099.594-1.317 3.277-12.171 1.064-4.303 1.176-4.695 1.427-4.968.153-.168.215-.197.42-.197.204 0 .266.03.419.196.242.264.344.608 1.158 3.895 2.959 11.965 3.012 12.164 3.545 13.245.468.948 1.024 1.505 2.002 2.005l.448.229 1.648-.016 1.648-.015.762-2.892a13362.543 13362.543 0 0 1 2.964-11.234 9536.06 9536.06 0 0 0 2.502-9.473l.617-2.34-1.283-.015L32.87 0l-.439.17a5.68 5.68 0 0 0-1.447.872c-.459.403-1.002 1.295-1.245 2.044a99.218 99.218 0 0 0-.696 2.616l-.993 3.855a6855.403 6855.403 0 0 0-1.936 7.506c-.081.312-.165.547-.186.523-.022-.024-.318-1.109-.657-2.411-.34-1.303-.787-3.013-.994-3.8l-1.156-4.406c-.623-2.38-.953-3.262-1.57-4.19-.57-.856-1.287-1.346-2.423-1.656-.49-.134-.646-.15-1.404-.15-.752 0-.92.018-1.402.147-1.13.305-1.855.802-2.433 1.672-.334.502-.741 1.367-.98 2.084-.149.443-1.178 4.324-2.784 10.491-.541 2.081-.619 2.357-.642 2.286a785.31 785.31 0 0 1-1.074-4.158L7.226 8.896c-.47-1.817-.977-3.787-1.128-4.378-.347-1.357-.455-1.69-.711-2.203C4.88 1.301 4.086.582 3.017.169L2.582.002H0l.156.592zM39.103.23c-1.036.517-1.546 1.365-1.772 2.947-.07.496-.144 2.222-.094 2.222.018 0 .197-.125.399-.277.41-.31.706-.47 1.32-.714.591-.235.92-.41 1.463-.774 1.065-.716 1.44-1.454 1.52-2.985l.034-.647H39.56l-.458.228zM44.28.046c.01.024.638.966 1.395 2.093 1.554 2.312 3.247 4.834 5.687 8.47l1.667 2.484-1.05 1.564a19093.969 19093.969 0 0 0-5.785 8.613l-1.814 2.7.564.016c.31.009 1.222.009 2.024 0l1.46-.016.475-.228c.615-.294.967-.558 1.503-1.127.822-.873.933-1.024 4.66-6.405.694-1 .88-1.189 1.174-1.19.36 0 .284-.095 2.596 3.25 1.587 2.297 1.886 2.707 2.567 3.524.983 1.18 1.683 1.76 2.495 2.066.365.137.371.137 2.294.137h1.929l-.626-.922a1212.91 1212.91 0 0 1-2.6-3.869 1201.03 1201.03 0 0 0-2.423-3.607c-1.784-2.624-3.01-4.497-2.985-4.556.017-.039.848-1.285 1.848-2.769C63.623 6.875 67.938.449 68.103.194l.125-.192h-1.892C64.22.002 64.238 0 63.42.424c-.652.338-1.768 1.517-2.859 3.02-.198.273-1.121 1.599-2.052 2.946-.93 1.348-1.765 2.52-1.854 2.603-.125.117-.216.151-.401.151-.396 0-.246.183-2.539-3.112-.337-.484-.809-1.166-1.048-1.514-1.036-1.51-2.226-2.997-2.82-3.526a4.443 4.443 0 0 0-1.342-.823l-.433-.167h-1.906c-1.049 0-1.898.02-1.888.044zM41.6 4.52c-.447.454-.92.759-1.885 1.216-1.398.662-1.585.763-1.874 1.016a1.95 1.95 0 0 0-.437.562l-.155.316-.014 9.183-.015 9.183h1.38c1.553 0 1.496.013 2.178-.47.515-.366.762-.744.956-1.467.22-.822.23-1.308.212-10.773l-.016-9.102-.33.336z" fill="#000"/></svg>