<svg width="88" height="85" viewBox="0 0 88 85" fill="none" xmlns="http://www.w3.org/2000/svg"><path fill-rule="evenodd" clip-rule="evenodd" d="M43.356.3c-.12.166-.31.55-.42.853-.194.526-.203.603-.195 1.7.005.632.053 1.643.106 2.245.054.603.097 1.93.097 2.95 0 1.76-.009 1.894-.19 2.672-.31 1.326-.698 2.432-1.249 3.553l-.327.666-.327-.046c-.794-.113-1.287-.585-1.29-1.235-.002-.628.502-1.182 1.083-1.188.149-.002.27-.024.27-.049.001-.128-.235-2.268-.392-3.554l-.22-1.817c-.059-.479-.423-1.611-.689-2.139a7.54 7.54 0 0 0-1.763-2.274c-.358-.319-1.078-.826-1.173-.826-.021 0-.04 3.864-.04 8.588v8.588l1.933.019 1.933.019.174.606c.338 1.176.91 2.122 1.767 2.922.272.255.64.612.815.795l.318.331.33-.331c.181-.183.54-.527.796-.765.85-.79 1.43-1.744 1.771-2.917l.188-.641 1.884-.036 1.885-.036.018-8.535c.01-4.695-.006-8.536-.036-8.536-.087 0-.528.285-.872.562a7.511 7.511 0 0 0-2.317 3.251c-.303.81-.325.954-.785 4.954-.22 1.913-.22 1.842-.018 1.804.088-.017.274.017.413.075.734.309.986 1.115.563 1.8-.18.292-.556.487-1.083.565l-.339.05-.389-.81c-.709-1.476-1.305-3.606-1.425-5.09-.046-.575.042-2.632.18-4.183.04-.46.08-1.374.086-2.032l.013-1.196-.238-.582c-.13-.32-.326-.687-.433-.816L43.574 0l-.218.3zM38.11 4.647c.746 1.117 1.013 2.036 1.271 4.379.1.913.209 1.844.24 2.068l.058.409-.277.192c-.346.24-.656.627-.846 1.056-.143.324-.152.33-.444.309l-.298-.022-.018-4.366c-.01-2.401.006-4.365.035-4.364.03.001.155.153.279.339zM49.326 8.69v4.384l-.303-.005-.303-.004-.247-.504c-.191-.39-.333-.568-.625-.79-.341-.257-.375-.306-.344-.507.065-.42.186-1.436.325-2.717.158-1.464.327-2.195.685-2.958.218-.466.72-1.283.788-1.283.013 0 .024 1.973.024 4.384zm-4.84 5.88l.332.647c.011.022-.137.114-.329.204-.192.09-.476.287-.631.438l-.283.274-.266-.272a2.545 2.545 0 0 0-.619-.438c-.194-.091-.343-.184-.331-.206.333-.613 1.008-2.188 1.16-2.707.04-.141.103-.028.351.642.166.447.443 1.085.615 1.419zm-5.971-.097c.17.598.94 1.285 1.678 1.497.22.063.411.124.424.135.012.01-.016.159-.063.33-.047.17-.105.55-.13.844l-.044.535h-2.566l-.02-1.64c-.011-.901-.002-1.713.02-1.803.035-.144.078-.162.339-.143.265.02.305.046.362.245zm10.81 1.559v1.818h-1.249c-.939 0-1.256-.023-1.275-.09-.014-.049-.06-.361-.101-.695a11.478 11.478 0 0 0-.123-.798c-.041-.17-.022-.198.157-.237.4-.086.803-.259 1.092-.467.306-.222.746-.84.827-1.162.041-.166.081-.187.36-.187h.313v1.818zm-7.021.527c.315.18.623.657.633.981l.01.274-.661.02c-.545.017-.668.001-.703-.09-.042-.109.095-1.229.164-1.34.043-.07.272-.006.557.155zm3.139-.046c.062.252.15 1.166.12 1.256-.034.101-1.342.111-1.404.01-.075-.12.117-.624.343-.897.182-.222.666-.522.848-.528.03 0 .07.07.093.159zm-2.447 3.67c.012.658.014 1.208.005 1.223-.035.062-.262-.187-.511-.56-.297-.446-.683-1.277-.755-1.624l-.048-.232h1.288l.021 1.194zm2.426-1.153c.183.183-.953 2.384-1.23 2.384-.078 0-.1-2.3-.022-2.377.057-.057 1.195-.064 1.252-.007zM13.757 34.511c0 .03-.08.744-.179 1.586-.098.843-.26 2.285-.358 3.207a49.435 49.435 0 0 1-.258 2.102c-.102.56-.441 1.254-.784 1.607-.23.236-.32.282-.56.282h-.284v3.137h1.211v-1.996h6.843v1.996H20.6V43.3l-.553-.02-.552-.021-.018-4.402-.019-4.401h-2.85c-1.568 0-2.851.024-2.851.054zm4.473 4.917l-.018 3.832-2.337.019-2.336.018.246-.455c.364-.674.37-.7.641-2.825.058-.451.125-1.029.15-1.284.07-.707.319-2.719.364-2.94l.04-.196h3.269l-.018 3.831zm6.004-2.191c-.959.162-1.895.894-2.371 1.853-.525 1.057-.511 2.551.033 3.616a3.477 3.477 0 0 0 1.697 1.552c.468.188.618.214 1.246.214.654 0 .755-.02 1.178-.223.75-.359 1.243-.826 1.598-1.513l.117-.225h-1.23l-.34.305c-.36.325-.926.55-1.378.55-.853 0-1.815-.826-1.953-1.678l-.04-.246h4.992l.043-.16c.023-.088.042-.353.042-.588 0-1.779-1.116-3.194-2.722-3.455-.491-.08-.456-.08-.912-.002zm8.056 0a2.954 2.954 0 0 0-1.356.572c-.148.116-.285.212-.306.212-.02 0-.09-.16-.156-.357l-.118-.356h-.915v9.622h1.211v-3.306l.196.187c.108.103.421.294.695.424.463.219.55.235 1.212.233.847-.003 1.296-.15 1.95-.643.478-.359.846-.858 1.13-1.529.18-.427.196-.538.197-1.425.002-.855-.017-1.01-.17-1.39a5.744 5.744 0 0 0-.737-1.248c-.183-.223-.696-.578-1.078-.747-.325-.144-1.188-.346-1.328-.312-.02.005-.212.033-.427.063zm16.84.002c-.843.12-1.533.571-1.906 1.245-.13.235-.258.532-.285.66l-.048.231h1.275l.17-.331c.255-.495.47-.624 1.094-.655.63-.032.966.066 1.259.369.288.297.419.612.419 1.007v.323h-.695c-1.782.002-3.16.506-3.573 1.307-.388.753-.242 1.752.349 2.386.874.938 2.737.961 3.724.046l.186-.172.18.394.18.394.413-.021.412-.022v-5.346l-.211-.416c-.508-1.003-1.714-1.576-2.943-1.4zm22.493.003c-.512.075-1.156.4-1.497.755-.285.295-.626.959-.627 1.218-.001.153.024.16.607.16.59 0 .61-.005.679-.188.102-.269.407-.617.627-.718.495-.225 1.56-.05 1.879.31.195.22.341.638.341.975v.313l-.98.043c-1.276.057-2.034.24-2.66.647-.436.283-.633.55-.758 1.026-.207.788.005 1.545.579 2.071.546.502.876.618 1.752.618.694 0 .784-.017 1.229-.228.264-.125.562-.31.663-.41l.183-.183.18.392.18.393h.844v-5.323l-.217-.434c-.538-1.077-1.692-1.629-3.004-1.437zm-34.843.105c0 .02.137.218.303.436.167.22.367.487.446.594.078.107.287.381.463.608.446.573.688.895.831 1.103.067.098.184.249.26.335.14.157.139.157-.12.535a89.44 89.44 0 0 1-1.39 1.874c-.621.823-1.117 1.521-1.1 1.55.017.03.327.054.69.054h.66l.743-.996a226.1 226.1 0 0 0 1.315-1.777c.314-.43.594-.783.623-.786.028-.003.06.789.07 1.76l.02 1.763.587.021.587.02.019-1.838.019-1.838.427.566c.236.31.476.637.535.724.059.088.483.66.944 1.27l.837 1.11h.678c.401 0 .677-.028.677-.07 0-.039-.296-.464-.659-.944a72.27 72.27 0 0 1-.766-1.027c-.06-.084-.372-.5-.695-.925-.324-.425-.588-.808-.588-.85 0-.044.17-.3.378-.572.208-.272.756-.99 1.217-1.599l.838-1.104-.664-.021c-.588-.019-.677-.005-.771.117-.304.393-.648.852-1.315 1.757-.405.549-.82 1.094-.92 1.212l-.185.213-.002-1.66-.002-1.66-.588.02-.588.022-.02 1.586c-.011.976-.045 1.586-.088 1.586-.039 0-.07-.025-.07-.055s-.12-.206-.268-.39a40.743 40.743 0 0 1-.766-1.02 57.318 57.318 0 0 0-.713-.96 18.047 18.047 0 0 1-.392-.527l-.178-.252-.66-.002c-.362-.001-.658.015-.658.037zm17.464 3.53v3.567l1.978-.022c1.89-.02 1.994-.03 2.334-.186.61-.281.892-.629 1.08-1.333.123-.46.12-.642-.013-1.093-.122-.409-.438-.815-.768-.985l-.215-.111.257-.224c.423-.369.55-.652.55-1.226 0-.614-.221-1.117-.656-1.489-.502-.43-.72-.467-2.742-.467h-1.805v3.568zm7.128-.002v3.567l.588-.021.588-.02.036-1.533.035-1.533h3.564l.036 1.533.036 1.532h1.14l.019-3.546.018-3.546h-1.21l-.02 1.443-.019 1.444H62.62l-.02-1.445-.02-1.443h-1.208v3.567zm-35.96-2.364c.45.206.857.702 1.028 1.256.081.263.147.507.147.542 0 .036-.84.064-1.925.064h-1.926l.047-.196c.18-.74.827-1.575 1.336-1.722.38-.11.986-.084 1.292.056zm7.954-.053c1.273.427 1.889 2.282 1.213 3.655-.993 2.017-3.75 1.456-4.073-.829a2.886 2.886 0 0 1 .449-2.012c.203-.299.71-.703 1.014-.81.291-.1 1.1-.103 1.397-.004zm24.444.099c.267.137.426.445.426.822 0 .24-.045.34-.236.531-.288.288-.554.337-1.689.307l-.82-.022-.02-.873-.02-.874h1.075c.822 0 1.125.026 1.284.108zm-6.702 3.005c0 .788-.496 1.403-1.341 1.664-.817.252-1.373.16-1.753-.292-.179-.212-.197-.28-.168-.629.028-.339.065-.419.275-.594.404-.339.95-.445 2.79-.544.193-.01.197-.002.197.395zm22.524-.01c0 .474-.142.842-.449 1.161-.562.586-1.64.828-2.265.508-.641-.327-.749-1.04-.23-1.525.341-.32.922-.43 2.748-.529.192-.01.196 0 .196.384zm-15.9-.182c.135.038.35.171.478.296.391.379.402.834.029 1.259-.282.32-.513.37-1.731.37h-1.052v-.95c0-.523.021-.972.047-.998.075-.075 1.957-.055 2.23.023zM78.8 53.353c-1.63.172-2.566.442-3.327.96-.917.624-1.39 1.448-1.626 2.836-.459 2.695.112 4.843 1.549 5.832.887.61 2.39.659 3.297.108 1.519-.925 2.092-3.062 1.265-4.718-.541-1.085-1.67-1.819-2.793-1.817-.81.002-1.398.239-2.027.817l-.313.287.05-.32c.162-1.043.66-1.778 1.537-2.272.448-.252 1.664-.551 2.513-.619l.552-.044v-.564c0-.31-.024-.56-.053-.555-.03.005-.31.036-.624.07zm-45.076 2.925c-.956.158-1.764.91-1.965 1.829l-.05.229h.646c.393 0 .648-.03.648-.073 0-.04.083-.198.184-.352.554-.836 2.083-.72 2.55.195.055.107.122.355.149.553l.048.359-1.091.083c-1.532.117-2.4.389-2.93.918-.382.382-.502.692-.508 1.31-.012 1.312.906 2.139 2.373 2.139.736 0 1.322-.171 1.74-.508.15-.12.316-.2.371-.18.055.021.138.169.186.328l.086.288h.911l-.021-2.726-.021-2.727-.234-.404c-.404-.7-1.046-1.132-1.879-1.267-.516-.084-.658-.083-1.193.006zm10.922-.01c-1.06.156-2.104 1.084-2.53 2.252-.214.582-.233 2.011-.035 2.595.365 1.08 1.125 1.877 2.098 2.205.533.18 1.458.198 1.99.04.405-.12.991-.497 1.31-.842.275-.297.709-1.06.779-1.371l.055-.245h-1.204l-.107.254c-.143.343-.634.864-.988 1.048-.4.209-1.173.21-1.574 0-.427-.222-.842-.66-1.074-1.132-.19-.386-.206-.484-.206-1.204 0-.706.02-.826.195-1.201.26-.553.706-.985 1.22-1.177.509-.19.79-.192 1.282-.008.429.16 1.017.719 1.182 1.12l.094.233h.55c.302 0 .569-.02.592-.043.078-.078-.137-.64-.406-1.06-.518-.81-1.256-1.32-2.11-1.459-.507-.082-.578-.083-1.113-.004zm39.346 0c-.468.07-1.095.386-1.407.71-.255.266-.567.83-.643 1.161l-.044.197h1.346l.044-.204a.933.933 0 0 1 .238-.389c.45-.43 1.148-.523 1.769-.234.503.234.743.567.791 1.1l.038.42-.882.051c-2.533.148-3.66.865-3.644 2.32.008.817.612 1.651 1.39 1.925.887.312 2.156.13 2.805-.402l.305-.25.155.362.156.361h.909V60.91c0-2.295-.011-2.523-.144-2.954-.263-.852-1.087-1.532-2.043-1.69-.462-.075-.605-.074-1.14.004zM0 59.833v3.564h1.212v-2.075c0-1.838.012-2.066.107-1.988.058.05.107.115.107.146 0 .03.276.628.613 1.327l.929 1.931.315.66h.852l.575-1.194c.316-.657.78-1.611 1.028-2.121l.454-.927.005 2.12.004 2.121h1.285l-.019-3.546-.018-3.546h-.527c-.394 0-.542.027-.588.107a193.19 193.19 0 0 0-1.062 2.174l-1.277 2.633-.274.565-.15-.244a1.414 1.414 0 0 1-.15-.291c0-.026-.543-1.156-1.208-2.513l-1.208-2.467H0v3.564zm9.409 0v3.564l.624-.001.623-.001.443-.658c.244-.362.566-.835.717-1.05a501.49 501.49 0 0 0 1.902-2.779 5.28 5.28 0 0 1 .306-.414c.05-.053.09-.126.09-.163 0-.036.031-.066.07-.066.047 0 .072.903.072 2.566v2.566h1.213l-.018-3.546-.019-3.546-.606-.02c-.595-.018-.608-.015-.723.179a44.28 44.28 0 0 1-1.128 1.659c-.073.098-.274.386-.447.641s-.568.832-.877 1.283c-.31.451-.641.94-.738 1.087-.096.147-.201.268-.234.268-.032 0-.058-1.155-.058-2.567v-2.566H9.409v3.564zm7.318-3.516c-.026.026-.047.283-.047.57v.523h2.209v5.987h1.21l.019-2.976.019-2.976 1.087-.02 1.087-.019v-1.137h-2.768c-1.523 0-2.79.022-2.816.048zm6.867 3.516v3.564h1.209l.019-1.514.02-1.515h3.562l.02 1.515.019 1.514h1.209v-7.133l-.589.02-.588.021-.019 1.444-.02 1.443h-3.63v-2.923h-1.212v3.564zm26.983-3.403c-.02.088-.087.818-.15 1.621-.252 3.218-.294 3.557-.47 3.813-.208.304-.465.454-.878.51l-.33.046.021.506.021.507.461.022c.562.026.98-.118 1.373-.473.577-.52.735-1.096.835-3.042.04-.784.093-1.69.117-2.015l.043-.59 1.294.02 1.294.02.019 3.01.019 3.012h1.139v-7.128h-4.773l-.035.16zm6.02-.093c0 .04.06.226.134.413l.647 1.622c.281.706.586 1.476.678 1.71.091.236.41 1.036.708 1.78.297.742.54 1.387.54 1.434 0 .15-.505 1.202-.653 1.36-.148.16-.37.265-.721.342-.197.043-.2.049-.179.522l.021.48.452.02c.782.038 1.288-.334 1.775-1.304.118-.235.493-1.133.834-1.996.988-2.498 1.037-2.62 1.18-2.958.213-.502 1.355-3.413 1.355-3.455 0-.02-.286-.038-.636-.038h-.635l-.126.339c-.069.186-.284.74-.478 1.23-.195.49-.462 1.171-.594 1.514a84.207 84.207 0 0 1-.824 2.101l-.1.23-.228-.53a6.43 6.43 0 0 1-.228-.572c0-.023-.243-.658-.54-1.41-.298-.753-.652-1.658-.788-2.01-.355-.923-.276-.853-.979-.877-.387-.013-.616.007-.616.053zm7.245.022a119 119 0 0 0 1.705 2.254c.193.25.44.58.548.734l.197.28-.207.3c-.114.164-.307.427-.429.584a31.27 31.27 0 0 0-.355.463l-.802 1.07c-.368.49-.743.994-.834 1.122l-.164.231.735-.004.736-.004.506-.691c.279-.38.873-1.184 1.32-1.787l.811-1.097.02 1.792.018 1.791h1.209l.003-1.8.002-1.8.194.22c.106.121.718.93 1.36 1.8l1.167 1.58h1.478l-.445-.588a43.946 43.946 0 0 1-.55-.74c-.14-.198-1.404-1.88-1.531-2.035-.24-.291-.329-.474-.254-.52.041-.025.298-.34.57-.701.27-.36.799-1.056 1.173-1.546s.681-.916.682-.947c0-.03-.295-.047-.658-.036l-.66.021-1.246 1.67-1.248 1.668-.019-1.687-.02-1.687h-.56c-.447 0-.57.024-.605.113-.024.062-.043.8-.043 1.64 0 1.356-.043 1.735-.164 1.437-.032-.08-.742-1.049-1.908-2.602l-.442-.588h-.672c-.519 0-.66.02-.617.09zm14.031 1.491c.494.248.714.46.967.925.237.438.245.478.245 1.237 0 .694-.02.824-.178 1.138a2.49 2.49 0 0 1-1.013 1.046c-.423.22-1.177.22-1.61-.002-.501-.257-.829-.606-1.08-1.153-.22-.477-.232-.544-.203-1.125.025-.485.072-.695.22-.983.559-1.09 1.706-1.558 2.652-1.083zM35.87 60.647c-.025.542-.23.915-.693 1.268-.428.325-.771.434-1.39.438-.561.004-.844-.14-1.071-.543-.28-.498-.047-1.082.52-1.297.493-.188 1.327-.312 2.012-.3l.642.011-.02.423zm50.235-.084c-.004.855-.678 1.58-1.644 1.767-.618.119-1.05.028-1.366-.289-.24-.239-.268-.306-.268-.63 0-.302.036-.403.218-.61a1.31 1.31 0 0 1 .47-.33c.435-.144 1.319-.267 1.968-.275l.623-.007-.001.374zM19.103 72.516c0 .037.212.543.472 1.123s.549 1.232.644 1.447c.095.216.232.52.306.677.074.157.366.799.649 1.426l.708 1.568c.394.872.4.905.218 1.33-.277.647-.51.99-.81 1.188-.242.16-.36.19-.738.181l-.451-.01v.487c0 .3.033.507.085.54.046.028.33.066.63.083.449.026.606.005.892-.122.418-.185.541-.29.886-.754.33-.446.706-1.184 1.322-2.602.264-.608.616-1.41.783-1.782.166-.372.407-.918.534-1.212.127-.294.288-.663.358-.82.07-.156.26-.59.424-.962.163-.372.407-.919.541-1.215.135-.296.245-.56.245-.588 0-.027-.305-.05-.68-.05-.583 0-.684.018-.72.125-.044.129-.229.562-.737 1.728-.386.886-.579 1.331-.896 2.067-.465 1.082-.698 1.603-.74 1.652-.037.044-.233-.374-1.13-2.4a159.14 159.14 0 0 0-.479-1.07 84.611 84.611 0 0 1-.5-1.14c-.185-.431-.37-.824-.408-.873-.085-.107-1.408-.127-1.408-.022zm29.614.25c-.204.204-.234.575-.071.89.124.24.234.29.646.29.27 0 .336-.032.493-.239.1-.13.182-.328.182-.438 0-.11-.082-.308-.182-.44-.163-.213-.217-.237-.537-.237-.283 0-.392.035-.531.174zm2.478-.127c-.135.055-.301.416-.301.656 0 .124.076.303.184.431.16.19.232.22.529.22.296 0 .369-.03.528-.22.276-.328.214-.84-.132-1.08-.084-.058-.667-.063-.808-.007zm-14.2 2.64a3.06 3.06 0 0 0-1.186.487c-.19.136-.368.247-.395.247-.026 0-.101-.16-.166-.357l-.118-.356h-.916V85l.588-.02.589-.021.019-1.622c.01-.892.03-1.622.044-1.622.013 0 .236.142.495.316.574.385 1.062.5 1.892.449.777-.048 1.459-.375 2.029-.973.686-.72.973-1.5.973-2.643 0-.846-.136-1.39-.5-2.005-.705-1.19-2.008-1.805-3.349-1.58zm7.36.02a2.46 2.46 0 0 0-1.257.665c-.349.35-.506.612-.65 1.09l-.094.313h.663c.641 0 .663-.005.705-.172.064-.253.395-.617.662-.728.271-.114 1-.13 1.27-.027.543.207.892.719.892 1.31v.308l-.838.046c-1.143.064-1.662.159-2.295.42-.713.294-1.088.662-1.253 1.227-.296 1.02.174 2.06 1.148 2.54.307.151.45.173 1.135.173.895 0 1.26-.105 1.796-.514.36-.274.386-.264.532.21l.082.268h.905v-2.584c-.001-1.538-.03-2.69-.074-2.846-.175-.63-.892-1.36-1.566-1.594-.391-.135-1.352-.192-1.763-.105zm-16.698 3.565v3.564h1.211V80.64c0-1.008.028-1.777.064-1.764.034.013.307.328.606.7l1.416 1.762.872 1.083.736.004.736.003-.486-.596c-.268-.328-.583-.72-.7-.87-.118-.15-.52-.643-.893-1.096-.373-.453-.75-.916-.837-1.03l-.16-.206.264-.328c.264-.329.424-.527 1.696-2.088.373-.458.678-.85.678-.873 0-.022-.3-.04-.666-.04h-.667l-.347.445c-.19.245-.726.922-1.19 1.504-.465.583-.883 1.12-.93 1.194-.045.074-.108.135-.137.135-.03 0-.055-.738-.055-1.64V75.3h-1.211v3.564zm22.215-3.516c-.026.026-.047 1.63-.047 3.564v3.516h1.211V75.3h-.558c-.307 0-.58.022-.606.048zm3.303 3.516v3.564h1.138l.019-1.515.019-1.514 1.8-.02 1.8-.018v3.067h1.211v-7.134l-.588.021-.588.02-.02 1.444-.018 1.444h-3.633V75.3h-1.14v3.563zm8.055 0v3.57l.615-.02.615-.022.492-.712c.27-.392.6-.874.732-1.07.133-.195.55-.805.928-1.354s.832-1.214 1.01-1.478c.179-.265.354-.5.39-.522.038-.023.064 1.012.064 2.566v2.606h1.141V75.3h-.588l-.588.001-.374.552c-.206.304-.475.696-.598.873-.412.59-1.635 2.38-2.08 3.045-.243.362-.464.659-.493.66-.03 0-.061-1.145-.072-2.547l-.018-2.548-.588-.02-.588-.022v3.57zm-22.9-2.312c.846.421 1.337 1.288 1.33 2.348-.007 1.006-.43 1.772-1.223 2.22-.387.219-.512.253-.93.256-.866.005-1.595-.48-1.982-1.318-.185-.402-.206-.52-.206-1.194 0-.638.025-.8.168-1.105.233-.493.462-.78.814-1.02.417-.285.655-.358 1.196-.364.366-.004.547.034.834.177zm8.216 3.016c0 .23-.046.527-.102.66-.304.722-1.262 1.2-2.291 1.143-.29-.016-.789-.444-.852-.731-.07-.321.017-.666.218-.868.346-.346 1.047-.495 2.866-.612.15-.01.16.018.16.408z" fill="#000"/></svg>