<svg width="102" height="29" viewBox="0 0 102 29" fill="none" xmlns="http://www.w3.org/2000/svg"><path fill-rule="evenodd" clip-rule="evenodd" d="M50.836.33c0 .03-.038.055-.083.055-.055 0-.082.055-.082.165 0 .112-.06.229-.192.368-.106.112-.193.231-.193.265 0 .033-.084.1-.187.15-.103.049-.203.14-.223.202-.024.074-.083.113-.172.113-.136 0-.406.218-.406.327 0 .031-.05.057-.113.057-.108 0-.271.116-.271.192 0 .088-.17.193-.313.193s-.208.05-.34.266c-.038.06-.071.061-.171.008-.11-.06-.143-.048-.282.1-.086.093-.157.207-.157.254 0 .095-.139.117-.192.03-.045-.072-.302-.07-.302.003a.241.241 0 0 1-.055.123l-.168.204c-.076.092-.123.115-.142.068-.056-.133-.404-.027-.404.124 0 .085-.168.192-.301.192-.144 0-.302.11-.302.207 0 .086-.2.287-.286.287-.103 0-.373.301-.373.415 0 .113-.133.244-.247.244-.094 0-.246.123-.25.202-.003.099-.213.292-.316.292-.073 0-.13.056-.168.167-.067.192-.188.327-.292.328-.072 0-.223.324-.288.617-.024.11-.067.151-.156.151-.14 0-.315.261-.315.471 0 .09-.03.133-.097.133-.157 0-.287.2-.287.44 0 .177-.02.219-.102.219-.076 0-.127.077-.197.3-.058.184-.132.311-.194.33-.099.032-.182.196-.245.481-.02.095-.069.151-.128.151-.12 0-.252.29-.217.474.018.095-.002.15-.063.173-.172.065-.227.171-.227.441 0 .226-.018.277-.11.3-.124.033-.148.248-.048.435.05.095.037.133-.083.236-.122.105-.143.167-.143.433 0 .17.031.362.069.426.055.093.055.121 0 .141-.038.014-.069.07-.069.126 0 .055-.03.115-.068.132-.055.026-.055.039 0 .064.037.018.068.117.068.22s.022.188.05.188c.026 0 .064.061.083.137.019.075.058.137.088.137.03 0 .054.05.054.11s-.023.11-.052.11c-.111 0-.122.25-.023.557.056.177.12.321.143.321.023 0 .041.037.041.082 0 .046.025.083.055.083s.055.037.055.083c0 .046.087.168.192.27.155.15.193.229.193.399 0 .295.234.614.576.785.09.045.197.113.237.151a.3.3 0 0 0 .179.069c.058 0 .106.024.106.055 0 .03.059.055.13.055.146 0 .309.202.309.382 0 .061.025.112.055.112s.055.026.055.058c0 .076.14.216.215.216.033 0 .06.025.06.055s.049.055.109.055.11.024.11.052c0 .03.086.07.192.089.106.02.192.058.192.085 0 .026.087.049.192.049.106 0 .192.024.192.054s.048.055.106.055c.19 0 .279.065.279.202 0 .075.03.165.068.2.104.098.47.257.592.257.06 0 .108.025.108.055 0 .032.177.055.42.055.33 0 .437.02.507.097.137.15.375.287.499.287.061 0 .112.025.112.055 0 .034.283.055.74.055.409 0 .742-.022.742-.05 0-.027.117-.061.26-.076a3.33 3.33 0 0 0 .563-.125 3.31 3.31 0 0 1 .687-.117c.36-.018.395-.01.563.14.098.088.179.194.18.235a.41.41 0 0 0 .082.182.46.46 0 0 1 .08.233c0 .07.025.127.056.127.03 0 .055.099.055.22 0 .12.024.22.054.22s.056.067.056.15c0 .083.037.273.082.42.045.149.082.351.082.45 0 .1.025.196.055.215.03.018.055.242.055.497 0 .272.022.463.055.463.035 0 .055.522.055 1.455 0 .934-.02 1.455-.055 1.455-.032 0-.055.182-.055.436 0 .24-.021.45-.047.465-.026.016-.062.17-.08.34-.017.172-.058.338-.09.37-.032.032-.058.127-.058.212 0 .084-.024.154-.055.154-.03 0-.054.037-.054.082 0 .045-.026.082-.058.082s-.118.061-.192.135c-.11.11-.135.19-.135.44 0 .167.025.304.055.304s.055.05.055.11c0 .093.037.11.25.11.312 0 .409-.09.409-.381 0-.123.025-.223.055-.223s.055-.083.055-.184c0-.1.018-.201.04-.224.055-.053.181-.643.216-1.006.016-.159.05-.288.078-.288.027 0 .05-.205.05-.456 0-.25.025-.481.057-.513.103-.103-.005-3.753-.11-3.753-.026 0-.059-.13-.073-.288a6.957 6.957 0 0 0-.12-.7 7.966 7.966 0 0 1-.12-.673c-.016-.143-.051-.26-.079-.26-.027 0-.05-.087-.05-.193 0-.105.026-.192.056-.192.03 0 .055-.05.055-.112s.06-.173.134-.247c.124-.123.178-.135.632-.135.273 0 .496.022.496.05 0 .026.093.06.206.076.114.015.427.08.697.143.594.14 1.41.153 1.815.03.357-.108.576-.206.576-.258 0-.022.038-.041.083-.041.106 0 .302-.196.302-.302 0-.058.058-.082.192-.082.106 0 .192-.025.192-.055s.111-.055.247-.055.247-.024.247-.054.062-.07.138-.088c.075-.02.137-.057.137-.084 0-.027.038-.049.086-.049.123 0 .408-.343.408-.491 0-.119.195-.277.341-.277.084 0 .153-.025.153-.055s.025-.055.054-.055c.086 0 .33-.231.33-.312 0-.04.023-.072.052-.072.028 0 .059-.066.068-.146a.302.302 0 0 1 .124-.206c.129-.073.36-.289.36-.336 0-.019.031-.068.069-.11.17-.19.206-.246.206-.32 0-.043-.04-.093-.086-.112-.107-.04-.056-.239.093-.369.057-.049.102-.127.102-.173a.13.13 0 0 1 .076-.112c.105-.04.141-.288.074-.51-.047-.152-.041-.204.034-.287a.386.386 0 0 0 .091-.22c0-.065.025-.119.055-.119s.055-.062.055-.137c0-.076-.025-.138-.055-.138s-.055-.086-.055-.192c0-.105.025-.192.055-.192s.055-.136.055-.302c0-.166-.025-.302-.055-.302s-.055-.086-.055-.192c0-.106.025-.192.055-.192s.055-.105.055-.234c0-.181-.03-.256-.128-.33-.113-.085-.125-.131-.104-.388.018-.218.002-.313-.064-.38-.06-.06-.088-.186-.088-.394 0-.168-.025-.305-.055-.305s-.055-.048-.055-.107a.16.16 0 0 0-.108-.14c-.088-.028-.098-.057-.056-.17.071-.186-.082-.572-.227-.572-.078 0-.103-.04-.103-.162 0-.298-.186-.606-.367-.607-.073 0-.126-.084-.197-.307-.11-.347-.212-.476-.338-.428-.055.021-.097-.004-.118-.068a1.38 1.38 0 0 0-.083-.198.46.46 0 0 1-.05-.178c0-.046-.035-.083-.078-.083a.122.122 0 0 1-.106-.069c-.022-.055-.028-.055-.032 0-.006.099-.169.085-.169-.013 0-.046-.024-.083-.055-.083-.03 0-.054-.074-.054-.164 0-.091-.025-.165-.055-.165s-.055-.028-.055-.063c0-.084-.17-.208-.288-.21-.053 0-.097-.032-.097-.069 0-.036-.04-.174-.09-.305-.071-.185-.126-.245-.245-.269-.16-.031-.323-.222-.323-.376 0-.139-.142-.245-.326-.245-.151 0-.169-.017-.169-.17 0-.195-.108-.325-.27-.325-.078 0-.114-.035-.114-.113 0-.122-.119-.27-.216-.27a.058.058 0 0 1-.058-.056c0-.03-.04-.055-.087-.055-.108 0-.217-.107-.267-.263-.038-.12-.25-.176-.25-.066 0 .113-.089.049-.189-.137-.056-.106-.143-.193-.192-.193-.05 0-.126-.052-.17-.116-.149-.215-.228-.272-.334-.239-.06.02-.104.007-.104-.029a.269.269 0 0 0-.068-.14 8.038 8.038 0 0 1-.142-.162.172.172 0 0 0-.17-.056c-.138.044-.278-.021-.278-.128 0-.05-.077-.125-.171-.166-.145-.065-.178-.065-.217 0-.038.06-.063.054-.13-.034a.508.508 0 0 1-.085-.143c-.005-.098-.226-.269-.347-.269-.098 0-.153-.038-.18-.123-.04-.125-.223-.316-.303-.316-.024 0-.087-.073-.14-.162-.052-.09-.146-.17-.208-.179-.065-.009-.149-.092-.196-.193-.063-.136-.117-.178-.233-.179-.083 0-.151-.026-.151-.056 0-.03-.087-.055-.192-.055-.106 0-.192.025-.192.055zM24.442 20.741c-.067.083-.123.189-.123.236a.406.406 0 0 1-.082.192.509.509 0 0 0-.082.257c-.001.083-.027.151-.057.151-.03 0-.055.062-.055.138 0 .075-.024.137-.055.137-.03 0-.054.06-.054.133a.35.35 0 0 1-.083.216.361.361 0 0 0-.082.223c0 .078-.025.142-.055.142s-.055.074-.055.164c0 .09-.025.165-.055.165s-.055.034-.055.076c0 .041-.061.215-.137.385-.075.171-.137.36-.137.419 0 .06-.025.108-.055.108s-.055.05-.055.11-.062.238-.137.395c-.076.156-.137.33-.137.384 0 .055-.025.1-.055.1s-.055.061-.055.137c0 .075-.025.137-.055.137s-.056.043-.057.096a.424.424 0 0 1-.082.203.414.414 0 0 0-.08.206c0 .054-.026.099-.056.099-.03 0-.055.062-.055.137 0 .076-.024.137-.055.137-.03 0-.055.035-.055.078 0 .208-.2.42-.535.561-.188.08-.343.157-.343.17 0 .012.041.064.092.115.067.066.098.073.114.023.017-.05.226-.068.782-.068s.766.018.782.068c.017.05.048.043.115-.023.13-.131.12-.146-.154-.215-.353-.089-.468-.208-.468-.482 0-.125.025-.227.055-.227s.055-.086.055-.192c0-.105.024-.192.055-.192.03 0 .054-.043.054-.096 0-.053.065-.25.145-.437l.145-.34 1.027-.017c1.14-.017 1.209-.012 1.209.094 0 .04.041.156.092.256.172.343.183.374.183.512 0 .076.021.138.048.138.046 0 .08.12.152.533.032.186-.023.276-.24.392a.58.58 0 0 1-.218.064.397.397 0 0 0-.177.05c-.065.041-.061.065.023.15.072.07.107.08.123.032.033-.099 2.189-.098 2.229 0 .022.055.028.055.032 0 .002-.037.041-.068.086-.068.23 0-.018-.192-.322-.25-.11-.02-.2-.059-.2-.086 0-.026-.036-.049-.082-.049a.083.083 0 0 1-.082-.082c0-.045-.025-.082-.055-.082s-.055-.039-.055-.086a.288.288 0 0 0-.082-.17.306.306 0 0 1-.082-.184c0-.056-.025-.118-.055-.137-.03-.018-.055-.082-.055-.14 0-.059-.025-.107-.055-.107s-.055-.062-.055-.137c0-.076-.025-.137-.055-.137s-.056-.056-.057-.124a.658.658 0 0 0-.08-.26.66.66 0 0 1-.08-.261c-.002-.068-.027-.124-.058-.124-.03 0-.054-.062-.054-.137 0-.076-.02-.137-.042-.137-.045 0-.169-.322-.216-.563-.016-.083-.051-.151-.078-.151-.027 0-.049-.062-.049-.137 0-.076-.024-.138-.055-.138-.03 0-.055-.045-.055-.1 0-.093-.09-.327-.223-.571a.516.516 0 0 1-.051-.206c0-.061-.025-.11-.055-.11s-.055-.05-.055-.109c0-.06-.062-.248-.137-.419-.076-.17-.137-.344-.137-.386 0-.041-.025-.075-.055-.075s-.055-.062-.055-.137c0-.076-.025-.138-.055-.138s-.055-.061-.055-.137c0-.085-.031-.137-.082-.137-.046 0-.083-.025-.083-.055 0-.095-.078-.058-.205.097zm4.841.038a.424.424 0 0 1-.202.083c-.053 0-.096.026-.096.057 0 .03-.052.054-.114.054-.118 0-.27.119-.27.21 0 .03-.038.067-.083.085a.135.135 0 0 0-.082.116c0 .046-.025.084-.055.084s-.055.037-.055.082c0 .045-.025.082-.055.082s-.055.05-.055.11-.029.216-.064.347c-.05.188-.048.31.011.577.042.186.095.339.12.339.023 0 .043.05.043.11s.024.11.055.11c.03 0 .055.037.055.082 0 .045.02.082.043.082.024 0 .152.099.286.22.133.12.287.233.34.25.055.018.1.055.1.083 0 .028.061.051.136.051.076 0 .138.025.138.055s.044.055.099.055c.055 0 .147.036.206.08.059.045.15.082.203.083.052 0 .096.026.096.056 0 .03.061.055.137.055.075 0 .137.025.137.055s.031.055.069.055c.084 0 .535.406.535.481 0 .03.037.085.082.123.046.038.083.14.083.226 0 .087.024.158.055.158.03 0 .055.074.055.165 0 .09-.025.165-.055.165s-.055.07-.055.158c0 .087-.037.188-.083.226-.045.038-.082.092-.082.12 0 .081-.13.192-.402.344-.206.115-.323.14-.66.14-.385 0-.738-.104-.795-.233-.01-.023-.043-.041-.072-.041-.06 0-.322-.25-.322-.307 0-.02-.047-.078-.104-.128-.117-.101-.28-.46-.28-.615 0-.057-.025-.103-.055-.103s-.055-.058-.055-.128c0-.168-.046-.208-.157-.139-.078.049-.089.167-.08.861.006.443.012.837.014.874.007.14.172.066.203-.092.044-.221.17-.255.326-.087.07.076.166.138.213.138.047 0 .085.025.085.055s.086.055.192.055c.106 0 .192.024.192.055 0 .034.275.055.714.055.44 0 .714-.022.714-.055 0-.03.074-.055.164-.055.09 0 .165-.025.165-.055s.062-.055.137-.055c.086 0 .138-.031.138-.082 0-.046.025-.083.056-.083.074 0 .438-.363.438-.437 0-.031.02-.057.044-.057.115 0 .23-.44.23-.878 0-.44-.115-.879-.23-.879-.024 0-.045-.043-.046-.096 0-.052-.088-.17-.194-.26-.106-.091-.252-.22-.325-.289-.073-.068-.171-.123-.218-.123-.047 0-.085-.019-.085-.042 0-.042-.201-.139-.425-.204-.068-.02-.124-.06-.124-.087 0-.029-.062-.052-.137-.052-.076 0-.137-.024-.137-.055 0-.03-.05-.054-.11-.054s-.11-.025-.11-.055-.05-.055-.112-.055c-.105 0-.157-.03-.353-.206-.042-.038-.094-.069-.115-.069-.069 0-.255-.242-.36-.466-.121-.264-.128-.457-.019-.601a.392.392 0 0 0 .08-.179c0-.105.299-.4.405-.4.05 0 .09-.026.09-.056 0-.032.183-.055.439-.055s.44.023.44.055c0 .03.037.055.083.055a.6.6 0 0 1 .234.095c.133.084.187.137.395.383.03.037.056.092.056.124 0 .031.024.057.055.057.03 0 .055.074.055.165 0 .09.024.165.055.165.03 0 .054.059.054.13 0 .12.09.199.225.199.053 0 .072-1.497.02-1.55-.065-.064-.245.03-.245.129 0 .067-.038.103-.11.103-.06 0-.11-.024-.11-.055 0-.03-.061-.055-.137-.055-.075 0-.137-.024-.137-.054s-.044-.055-.1-.055a.415.415 0 0 1-.205-.081c-.15-.114-1.113-.116-1.263-.004zm36.376.02c-.106.05-.2.11-.21.133-.01.023-.056.041-.1.041-.108 0-.513.41-.513.52 0 .046-.02.084-.044.084-.06 0-.23.57-.23.769 0 .198.17.769.23.769.024 0 .044.037.044.082 0 .045.024.082.055.082.03 0 .054.034.054.075 0 .041.064.121.142.178.078.058.208.16.288.228.08.068.19.123.243.123.053 0 .096.025.096.055s.05.055.11.055.11.025.11.055.05.055.113.055a.32.32 0 0 1 .196.082.35.35 0 0 0 .216.082c.073 0 .133.025.133.055s.05.055.11.055.11.025.11.055.026.055.059.055c.032 0 .093.031.135.069.182.163.244.206.298.206.031 0 .057.037.057.082 0 .045.025.082.055.082s.055.048.055.106c0 .058.03.115.069.128.047.016.068.163.068.48 0 .317-.02.465-.069.48-.037.013-.068.07-.068.129 0 .057-.025.105-.055.105s-.055.032-.055.07c0 .04-.111.118-.247.174-.136.056-.247.123-.247.148 0 .026-.208.047-.462.047-.334 0-.513-.027-.645-.096a.723.723 0 0 1-.202-.137c-.01-.023-.065-.041-.123-.041-.058 0-.105-.026-.105-.058 0-.031-.056-.117-.124-.19-.225-.24-.26-.296-.26-.409 0-.062-.02-.112-.044-.112-.023 0-.075-.117-.114-.26-.04-.144-.081-.292-.093-.33-.011-.038-.07-.069-.132-.069-.108 0-.112.032-.112.906 0 .498.016.906.035.906.06 0 .24-.233.24-.31 0-.123.186-.084.296.063.057.075.15.137.206.137.056 0 .102.025.102.055s.061.055.137.055c.075 0 .137.024.137.055 0 .034.284.055.741.055.458 0 .742-.021.742-.055 0-.03.086-.055.192-.055.105 0 .192-.025.192-.055s.032-.055.07-.055c.04 0 .163-.086.275-.192.112-.106.229-.192.259-.192s.055-.02.055-.045c0-.024.045-.093.1-.153.103-.11.116-.147.238-.667.067-.287.06-.35-.102-1.002a.52.52 0 0 0-.135-.226c-.056-.049-.101-.106-.101-.127 0-.049-.145-.196-.192-.196-.02 0-.117-.086-.216-.192-.1-.106-.222-.192-.271-.192-.05 0-.09-.025-.09-.055s-.05-.055-.11-.055-.11-.022-.11-.05c0-.026-.061-.064-.137-.082-.075-.02-.137-.06-.137-.089 0-.03-.062-.054-.137-.054-.076 0-.138-.024-.138-.055 0-.03-.061-.054-.137-.054-.075 0-.137-.025-.137-.055s-.046-.055-.103-.055a.255.255 0 0 1-.172-.083c-.037-.045-.089-.082-.114-.082-.093 0-.49-.41-.49-.506 0-.054-.024-.098-.054-.098s-.055-.146-.055-.33c0-.182.024-.329.055-.329.03 0 .054-.036.054-.08 0-.107.304-.414.41-.414.047 0 .085-.024.085-.055 0-.032.192-.055.466-.055.275 0 .467.023.467.055 0 .03.042.055.093.055.107 0 .598.502.65.663.018.058.056.106.084.106.028 0 .051.062.051.137 0 .076.025.137.055.137s.055.064.055.141c0 .114.023.138.12.124.115-.017.118-.036.105-.758-.013-.703-.039-.82-.184-.823-.022 0-.04.06-.04.136 0 .11-.028.137-.138.137-.076 0-.137-.024-.137-.055 0-.03-.05-.055-.11-.055s-.11-.024-.11-.054-.06-.055-.133-.055a.35.35 0 0 1-.216-.083c-.121-.121-1.091-.109-1.353.018zm-64.73.723c0 .663.008.714.104.714.116 0 .17-.14.17-.453 0-.113.026-.206.056-.206.03 0 .055-.045.055-.1 0-.064.078-.14.206-.201l.301-.146c.053-.026.344-.047.647-.047.853 0 .776-.277.756 2.727l-.016 2.521-.14.14c-.083.084-.285.178-.507.238-.334.09-.489.194-.29.194a.13.13 0 0 1 .109.069c.026.054.038.054.064 0 .046-.1 2.529-.1 2.562-.001.016.049.05.04.12-.03.055-.054.086-.112.07-.128-.027-.027-.213-.08-.585-.17a.673.673 0 0 1-.26-.158l-.127-.126v-2.563c0-2.377.007-2.569.096-2.636.142-.109 1.04-.1 1.308.011.39.163.627.518.627.939 0 .105.025.13.117.116.112-.017.116-.043.107-.675-.007-.44-.032-.671-.076-.699-.036-.023-1.282-.042-2.77-.043H.93v.713zm5.793-.668c-.048.048.035.12.14.12.059 0 .107.024.107.054s.06.055.135.055c.074 0 .197.063.274.14l.14.14v2.514c0 2.36-.006 2.522-.1 2.631a.872.872 0 0 1-.554.252c-.153.006-.193.08-.11.198.044.062.065.065.086.014.021-.052.303-.07 1.145-.07.839 0 1.124.018 1.148.07.026.054.038.054.064 0a.132.132 0 0 1 .11-.07c.165 0 .067-.106-.128-.14-.302-.051-.505-.148-.54-.257-.017-.053-.053-.096-.082-.096-.03 0-.05-.498-.05-1.208v-1.208h3.196l-.024 1.167c-.016.767-.047 1.214-.092 1.305-.062.126-.363.271-.568.274a.342.342 0 0 0-.147.05c-.065.041-.061.065.023.15.071.07.107.08.123.032.033-.099 2.243-.098 2.283 0 .021.052.043.049.086-.013.083-.117.045-.19-.109-.209a1.538 1.538 0 0 1-.297-.08c-.348-.134-.33.019-.33-2.79v-2.564l.138-.114a.515.515 0 0 1 .26-.116c.068 0 .124-.027.124-.057 0-.03.062-.055.137-.055.077 0 .137-.031.137-.072 0-.057-.254-.07-1.276-.062-1.445.012-1.359.007-1.359.08 0 .03.074.054.165.054.09 0 .165.025.165.055s.055.055.124.055c.163 0 .333.23.38.515.02.125.038.628.04 1.119l.005.892H8.505v-1.126c0-.713.02-1.125.055-1.125.03 0 .055-.028.055-.063 0-.092.174-.208.316-.21.068-.001.123-.027.123-.057 0-.03.074-.055.165-.055.09 0 .165-.024.165-.054s-.019-.059-.042-.063c-.114-.022-2.6-.023-2.62-.002zm7.28.005c-.128.081.062.224.297.224.148 0 .242.042.36.16l.16.161v2.475c0 2.448 0 2.475-.117 2.609-.1.115-.282.194-.514.222-.106.013-.247.095-.247.144 0 .028 1.056.049 2.466.049h2.466l.033-.37c.107-1.2.11-1.123-.032-1.103-.105.015-.132.056-.146.224-.009.113-.04.206-.068.206-.029 0-.052.062-.052.137 0 .075-.025.137-.055.137s-.055.033-.055.073c0 .04-.062.106-.137.147-.075.04-.137.094-.137.119 0 .025-.045.046-.099.046a.259.259 0 0 0-.16.06c-.037.038-.343.064-.798.069-.867.01-1.012-.037-1.265-.402-.081-.118-.094-.289-.094-1.25v-1.113h.33c.182 0 .329.025.329.055s.068.056.15.057c.166.002.344.11.344.21 0 .034.02.063.045.063.061 0 .23.363.23.495 0 .072.037.108.11.108.106 0 .11-.036.11-1.18s-.004-1.18-.11-1.18c-.086 0-.11.036-.11.163 0 .175-.157.55-.23.55-.025 0-.045.027-.045.06 0 .096-.149.215-.27.215-.063 0-.114.025-.114.055 0 .031-.165.055-.385.055h-.384v-2.526h.853c.714 0 .877.016 1.002.095.231.148.45.414.45.55 0 .068.026.124.056.124.03 0 .055.086.055.192 0 .169.017.192.139.192h.139l-.016-.7-.015-.7-2.196-.013c-1.234-.008-2.23.008-2.274.036zm18.496.04c0 .046.063.074.165.074.09 0 .165.025.165.055s.058.055.128.055c.167 0 .31.162.31.348 0 .08.026.146.056.146.036 0 .055.806.055 2.306s-.02 2.306-.055 2.306c-.03 0-.055.064-.055.141 0 .191-.096.274-.446.386-.366.117-.356.107-.237.225.07.07.104.079.12.03.017-.051.305-.068 1.167-.068.862 0 1.15.017 1.166.068.017.048.052.039.124-.032.084-.085.088-.109.023-.15a.537.537 0 0 0-.232-.05c-.19-.001-.458-.135-.522-.262-.12-.237-.18-.8-.164-1.55l.017-.797.617-.015c.35-.009.618-.039.618-.069 0-.03.123-.053.274-.053.151 0 .275-.025.275-.055s.041-.055.091-.055c.187 0 .787-.417.787-.547a.51.51 0 0 1 .115-.16c.1-.107.116-.195.121-.706.005-.41-.013-.59-.06-.605-.036-.012-.066-.072-.066-.134 0-.138-.523-.648-.665-.648-.057 0-.104-.024-.104-.055 0-.03-.069-.055-.153-.055-.085 0-.185-.03-.223-.068-.104-.105-3.412-.11-3.412-.006zm5.22-.04c-.128.082.065.224.308.226.249.002.402.103.402.265 0 .065.024.117.055.117.087 0 .074 4.745-.014 4.9-.116.202-.192.262-.381.294-.22.038-.429.134-.429.196 0 .025 1.112.046 2.47.046H42.6v-.577c0-.347.022-.576.055-.576.082 0 .067-.161-.023-.251a.355.355 0 0 0-.099-.078c-.01 0-.068.16-.127.356-.06.197-.126.357-.149.357-.023 0-.041.027-.041.059 0 .076-.14.216-.216.216-.032 0-.059.024-.059.055 0 .03-.044.055-.098.055a.262.262 0 0 0-.162.062c-.093.093-1.672.098-1.702.006-.013-.038-.047-.069-.076-.069-.133 0-.306-.269-.367-.573-.067-.333-.091-1.82-.032-1.975.025-.066.113-.087.357-.087.18 0 .324.025.324.055s.086.055.192.055c.105 0 .192.019.192.041 0 .023.062.113.137.2.076.089.137.218.137.29 0 .07.023.128.051.128.029 0 .06.055.07.123.012.09.047.119.127.105a.522.522 0 0 0 .114-.027 9.717 9.717 0 0 0-.041-.476c-.043-.43-.017-1.443.042-1.655.029-.102-.126-.283-.202-.236-.028.017-.05.116-.05.22s-.022.189-.049.189c-.026 0-.062.068-.08.151-.043.204-.27.453-.414.453-.064 0-.117.025-.117.055 0 .032-.174.055-.412.055h-.413l.014-1.25.015-1.248.824-.016c.678-.013.86.001 1.03.077.113.051.205.113.205.14 0 .025.037.046.082.046.046 0 .083.049.083.11 0 .06.024.11.055.11.03 0 .055.043.056.095 0 .166.15.536.213.53.033-.003.085-.009.115-.014.033-.004.055-.267.055-.66 0-.545-.014-.66-.087-.687-.139-.053-4.325-.037-4.41.018zm5.267.016c0 .099.158.208.3.208.223 0 .578.25.578.408 0 .047.025.086.055.086.036 0 .055.75.055 2.141s-.02 2.142-.055 2.142c-.03 0-.055.146-.055.33 0 .247-.02.328-.078.328-.042 0-.086.02-.096.043-.01.023-.14.08-.288.125-.15.045-.281.113-.293.15-.017.051.217.067.998.067.804 0 1.02-.015 1.02-.072 0-.041-.125-.104-.288-.146-.318-.08-.48-.224-.48-.422 0-.07-.026-.129-.056-.129-.035 0-.055-.732-.055-2.086 0-1.354.02-2.086.055-2.086.03 0 .055.026.055.057 0 .032.056.117.124.19.196.21.26.294.26.341 0 .024.062.09.138.148.075.056.137.136.137.177 0 .041.025.075.055.075s.055.026.055.059c0 .032.086.14.192.24.106.099.192.21.192.245s.111.172.247.304.247.262.247.289c0 .026.087.14.192.252.106.112.193.217.193.233 0 .033.08.134.26.327a.601.601 0 0 1 .124.165c0 .017.062.094.137.17.076.075.137.156.137.18 0 .025.074.123.165.217.09.095.165.186.165.203 0 .034.079.133.26.328a.604.604 0 0 1 .124.164.72.72 0 0 0 .137.18c.076.082.138.169.138.193 0 .064.23.285.343.328.266.102.26.159.26-2.682 0-2.37.01-2.68.094-2.89.118-.298.192-.372.373-.372.143 0 .302-.109.302-.207 0-.058-1.895-.057-1.953 0-.074.075.14.207.334.207.11 0 .229.031.265.069.198.208.225.39.24 1.633l.03 1.963c.01.562-.002.728-.057.727-.039 0-.086-.041-.106-.092a1.358 1.358 0 0 0-.218-.286c-.1-.107-.182-.22-.182-.252 0-.033-.05-.095-.11-.138-.06-.044-.11-.1-.11-.126 0-.066-.145-.204-.215-.204-.033 0-.06-.036-.06-.081 0-.086-.092-.213-.342-.47-.083-.084-.151-.181-.151-.215s-.111-.17-.247-.301c-.136-.133-.247-.261-.247-.287 0-.026-.062-.113-.138-.195a.762.762 0 0 1-.137-.177c0-.034-.187-.26-.37-.448a.552.552 0 0 1-.124-.16c0-.019-.03-.069-.069-.11-.151-.17-.205-.243-.205-.278 0-.02-.045-.077-.1-.126a2.657 2.657 0 0 1-.26-.308c-.294-.4-.243-.381-1.104-.39-.452-.003-.787.015-.787.044zm11.609-.018c-.064.064-.013.116.112.116.076 0 .137.025.137.055s.087.055.193.055c.134 0 .192.025.192.083 0 .045.02.082.046.082.16 0 .244 3.579.11 4.712-.07.61-.118.677-.544.779-.286.069-.304.087-.211.219.044.062.065.065.086.014.02-.052.302-.07 1.144-.07.84 0 1.124.018 1.148.07.026.054.039.054.065 0a.132.132 0 0 1 .11-.07c.149 0 .076-.1-.101-.139-.355-.076-.59-.198-.59-.305 0-.057-.025-.104-.055-.104-.036 0-.055-.851-.055-2.443 0-1.593.019-2.444.055-2.444.03 0 .054-.05.054-.113 0-.146.125-.27.271-.27.063 0 .114-.026.114-.056 0-.03.086-.055.192-.055.106 0 .192-.024.192-.054s-.019-.059-.041-.063c-.114-.022-2.602-.02-2.624 0zm3.16.097c0 .115.025.13.225.13.19 0 .26.034.44.212l.213.213v2.423c0 1.578-.02 2.422-.055 2.422-.03 0-.055.026-.055.059 0 .103-.142.205-.374.267-.26.07-.313.13-.235.264.031.053.057.065.058.027.001-.051.209-.068.848-.068.626 0 .854.018.874.069.023.054.029.054.032 0 .003-.038.042-.07.087-.07.189 0 .061-.112-.22-.194-.166-.048-.301-.11-.301-.138 0-.029-.038-.052-.083-.052-.046 0-.082-.048-.082-.11 0-.06-.025-.11-.055-.11-.033 0-.055-.21-.055-.52 0-.312-.022-.522-.055-.522-.03 0-.055-.037-.055-.083 0-.045.025-.082.055-.082.035 0 .055-.512.055-1.427s-.02-1.428-.055-1.428c-.03 0-.055-.062-.055-.137 0-.1.03-.137.11-.137.06 0 .11.036.11.08 0 .043.062.141.137.217a.643.643 0 0 1 .137.17c0 .017.056.091.124.164.18.194.26.294.26.327 0 .016.087.121.193.233.105.112.192.224.192.247 0 .024.099.149.22.277.121.129.234.277.25.33.018.053.054.096.083.096.028 0 .05.026.05.059 0 .076.14.215.217.215.032 0 .058.05.058.11s.025.11.055.11.055.026.055.059c0 .076.14.216.216.216.032 0 .059.037.059.082 0 .045.024.082.054.082s.055.038.055.085c0 .046.112.192.248.324.135.132.247.262.247.288 0 .027.086.14.192.253.105.112.192.217.192.233 0 .034.08.134.26.327.069.073.124.158.124.19 0 .031.023.057.051.057.029 0 .067.05.086.11.026.08.084.11.219.11h.183l.02-2.732c.018-2.541.027-2.744.122-2.923.125-.233.18-.273.38-.274.16 0 .354-.142.287-.209-.059-.058-1.952-.058-1.952 0 0 .103.161.208.317.208.233 0 .365.148.47.525.077.28.092.614.092 2.097 0 .97-.02 1.776-.045 1.792-.052.032-.23-.158-.23-.246 0-.031-.086-.14-.192-.239-.106-.1-.192-.196-.192-.215 0-.038-.178-.255-.37-.453a.568.568 0 0 1-.124-.159c0-.035-.077-.132-.261-.33a.587.587 0 0 1-.124-.165c0-.019-.03-.069-.068-.11-.152-.17-.206-.243-.206-.278 0-.02-.044-.077-.097-.126a2.83 2.83 0 0 1-.259-.308 4.509 4.509 0 0 0-.219-.28 2.736 2.736 0 0 1-.166-.212 2.776 2.776 0 0 0-.179-.224c-.037-.04-.068-.087-.068-.104s-.087-.123-.193-.235c-.105-.112-.192-.225-.192-.252 0-.027-.11-.156-.247-.288-.136-.133-.247-.279-.247-.325 0-.101.044-.096-.892-.11l-.755-.013v.13zm11.213-.11c-.05.021-.069.217-.069.71 0 .646.006.682.11.682.094 0 .11-.036.11-.247 0-.136.025-.247.055-.247s.055-.05.055-.112c0-.143.272-.41.474-.465a5.45 5.45 0 0 1 .719-.066c.479-.02.581-.008.698.077l.137.1.001 2.429c.001 1.584-.017 2.43-.053 2.43-.03 0-.055.047-.055.104 0 .164-.059.28-.143.28-.042 0-.076.023-.076.052 0 .028-.149.081-.33.117-.291.057-.33.08-.33.195 0 .071.026.13.056.13.03 0 .055-.025.055-.055 0-.087 2.507-.074 2.548.014.026.054.038.054.064 0a.132.132 0 0 1 .11-.07c.043 0 .078-.023.078-.052 0-.052-.495-.222-.646-.222-.109 0-.212-.117-.311-.355-.074-.178-.087-.547-.087-2.604v-2.397l.16-.095c.12-.07.287-.094.683-.094.29 0 .539.025.557.055.02.03.08.055.137.055.057 0 .14.037.185.082.045.046.109.083.141.083.033 0 .06.05.06.11s.024.11.054.11.055.086.055.192c0 .105.025.192.055.192s.055.061.055.137c0 .112.027.137.145.137.143 0 .144-.002.102-.288a13.117 13.117 0 0 1-.077-.7l-.033-.412-2.69-.01c-1.48-.005-2.721.003-2.76.019zm6.027.01c-.12.04-.048.12.108.12.09 0 .165.024.165.054s.05.055.11.055c.142 0 .33.163.33.287 0 .054.024.098.054.098.036 0 .055.841.055 2.415s-.02 2.416-.055 2.416c-.03 0-.055.039-.055.086 0 .135-.125.228-.445.33-.367.118-.356.108-.238.226.07.07.104.079.12.03.03-.087 2.32-.1 2.32-.013 0 .03.025.055.055.055s.055-.045.055-.099c0-.07-.07-.117-.242-.163-.132-.035-.279-.102-.325-.148-.046-.047-.11-.085-.143-.085-.036 0-.059-.14-.059-.356 0-.202-.024-.357-.055-.357-.035 0-.055-.677-.055-1.922 0-1.244.02-1.921.055-1.921.03 0 .056-.142.057-.316.002-.367.124-.563.35-.563.078 0 .142-.024.142-.055 0-.03.062-.055.138-.055.076 0 .137-.031.137-.072 0-.057-.256-.071-1.261-.069-.694.002-1.287.012-1.318.022zm3.11-.009c-.02.02-.037.342-.037.714v.677h.137c.131 0 .137-.015.137-.33 0-.182.025-.329.055-.329s.055-.05.055-.11.037-.11.083-.11c.045 0 .082-.02.082-.047 0-.026.106-.087.235-.137.268-.102 1.357-.13 1.357-.035 0 .03.037.055.082.055.072 0 .083.32.083 2.547v2.547l-.151.16c-.096.101-.27.193-.474.25-.177.05-.335.104-.35.119-.014.015.018.07.072.125.07.07.104.079.12.03.034-.099 2.52-.099 2.553 0 .016.048.052.039.124-.032.123-.124.08-.158-.334-.257-.164-.04-.297-.092-.297-.117 0-.026-.029-.047-.063-.047-.198 0-.208-.132-.21-2.739-.002-2.362.005-2.552.094-2.62.063-.047.268-.073.597-.074.532-.002.846.084 1.014.279.05.057.118.104.152.104.035 0 .063.047.063.106s.024.122.055.14c.03.02.054.144.054.278 0 .227.01.244.144.244h.143l-.04-.672c-.024-.397-.066-.69-.102-.713-.078-.05-5.383-.056-5.433-.006zm6.004.009c-.12.04-.049.12.108.12.09 0 .165.024.165.054s.05.055.113.055.143.031.179.07c.233.248.228.2.266 2.286.037 2 .068 2.476.161 2.476.027 0 .05.038.05.084 0 .184.537.794.7.794.037 0 .068.025.068.055s.086.055.192.055c.106 0 .192.024.192.055 0 .034.348.055.934.055.585 0 .933-.02.933-.055 0-.03.086-.055.192-.055.106 0 .192-.025.192-.055s.046-.055.102-.055c.056 0 .149-.062.206-.137.056-.076.123-.137.148-.137.066 0 .203-.146.203-.216 0-.033.025-.059.055-.059s.055-.05.055-.11.025-.11.055-.11.055-.06.055-.132c0-.073.029-.143.064-.154.122-.04.17-.674.192-2.472.013-1.115.041-1.798.075-1.798.029 0 .053-.046.053-.102 0-.156.18-.283.402-.283.111 0 .202-.024.202-.055 0-.03.037-.055.082-.055.083 0 .119-.103.041-.117-.119-.022-1.922-.03-2.004-.01-.131.034-.121.127.014.127.06 0 .11.025.11.055s.08.056.178.057c.189.002.371.105.371.21 0 .035.025.063.055.063.032 0 .055.183.055.439s.023.44.055.44c.035 0 .055.503.055 1.4 0 .896-.02 1.4-.055 1.4-.03 0-.055.135-.055.301 0 .166-.025.302-.055.302s-.055.051-.055.114c0 .062-.03.148-.069.19-.149.166-.206.242-.206.274 0 .056-.152.19-.215.19-.032 0-.059.02-.059.044 0 .023-.105.073-.233.11-.715.203-1.09.211-1.62.031-.255-.086-.317-.126-.524-.333-.21-.21-.258-.283-.258-.393 0-.06-.025-.116-.055-.126-.034-.012-.055-.82-.057-2.225-.003-2.033.005-2.215.094-2.32a.365.365 0 0 1 .25-.113c.083 0 .152-.024.152-.055 0-.03.062-.055.137-.055.08 0 .137-.031.137-.074 0-.06-.234-.073-1.26-.069-.695.003-1.287.014-1.318.024zm6.93-.009c-.05.02-.07.216-.07.71v.681h.138c.126 0 .137-.02.137-.244 0-.134.025-.259.055-.277.03-.02.055-.071.055-.116 0-.123.272-.37.492-.446.107-.038.432-.069.721-.069.837-.001.764-.252.764 2.597 0 1.794-.017 2.432-.069 2.547-.11.248-.29.392-.572.46-.326.08-.375.121-.3.25.032.056.06.071.06.034.002-.053.297-.07 1.288-.07.977 0 1.292.017 1.313.07.022.054.029.054.032 0 .003-.038.042-.07.087-.07.045 0 .082-.023.082-.052 0-.05-.494-.222-.641-.222-.04 0-.073-.024-.073-.055 0-.03-.037-.055-.082-.055-.051 0-.082-.051-.082-.137 0-.075-.025-.137-.055-.137-.036 0-.055-.863-.055-2.478 0-2.957-.082-2.683.804-2.683.313 0 .569.022.569.048 0 .027.068.062.15.079.242.049.386.23.508.642.094.314.136.384.227.384.105 0 .11-.023.079-.316a26.496 26.496 0 0 1-.065-.713l-.03-.398-2.7.004c-1.484.002-2.73.017-2.768.032zm5.97.1c0 .126.02.138.233.138.17 0 .277.038.393.138l.16.137.026 1.77c.015.974.008 2.134-.014 2.577l-.04.806-.196.093a1.176 1.176 0 0 1-.365.102c-.111.005-.175.04-.187.102-.017.088.142.095 2.378.095 2.004 0 2.409-.013 2.475-.079.108-.108.115-1.404.007-1.404-.122 0-.203.124-.203.31 0 .098-.025.193-.055.212-.03.019-.055.07-.055.113 0 .104-.22.354-.312.354-.04 0-.072.024-.072.055 0 .03-.048.055-.106.055-.057 0-.114.027-.125.06-.03.09-1.554.098-1.644.008a.244.244 0 0 0-.144-.069c-.097 0-.186-.094-.285-.301-.084-.176-.155-1.936-.089-2.198.03-.124.06-.136.335-.136.165 0 .3.025.3.055s.078.055.173.055c.175 0 .397.19.463.398.017.053.054.096.082.096.028 0 .051.084.051.186 0 .162.071.253.197.253.013 0 .023-.553.023-1.23 0-1.203-.002-1.23-.11-1.201-.086.022-.11.075-.11.245 0 .12-.025.265-.057.324-.103.192-.376.435-.49.435-.061 0-.111.025-.111.055 0 .031-.165.055-.386.055h-.385l.015-1.25.014-1.248.823-.016c.7-.013.85 0 1.002.082.099.053.179.115.179.138 0 .024.027.043.059.043.097 0 .216.149.216.27 0 .063.025.114.055.114s.055.072.055.16c0 .233.052.334.172.334.099 0 .105-.04.09-.7l-.015-.7-2.21-.014-2.21-.014v.137zm-61.6.193c0 .03.047.055.103.055.057 0 .134.037.172.082.037.046.102.083.144.083.041 0 .075.05.075.11s.022.11.05.11c.026 0 .064.061.083.137.019.075.058.137.088.137.032 0 .054.227.054.551 0 .434-.023.595-.105.755-.125.244-.298.45-.378.45a.088.088 0 0 0-.076.058c-.026.078-.384.17-.775.202-.233.019-.353.002-.453-.063l-.135-.089v-1.207c0-.866.02-1.239.068-1.317.06-.096.129-.109.577-.109.302 0 .508.023.508.055zm-10.99 1.03c.009.098.04.178.068.178.028 0 .052.062.052.137 0 .076.021.137.048.137s.062.069.079.151c.047.241.17.563.215.563.023 0 .042.074.042.165 0 .09.024.165.055.165.03 0 .055.063.055.14a.36.36 0 0 0 .082.224.35.35 0 0 1 .082.216v.133h-.96c-.604 0-.961-.02-.961-.055 0-.03.024-.055.055-.055.03 0 .055-.06.055-.133a.35.35 0 0 1 .082-.215.32.32 0 0 0 .082-.197c0-.062.025-.113.055-.113s.055-.074.055-.165c0-.09.025-.165.055-.165s.056-.055.057-.123a.46.46 0 0 1 .082-.23.415.415 0 0 0 .08-.206c0-.055.025-.1.055-.1s.055-.086.055-.192c0-.105.025-.192.055-.192s.055-.063.055-.14c0-.116.023-.139.124-.125.095.014.127.06.14.197z" fill="#000"/></svg>