<svg width="86" height="65" viewBox="0 0 86 65" fill="none" xmlns="http://www.w3.org/2000/svg"><path fill-rule="evenodd" clip-rule="evenodd" d="M28.912.14c-.561.28-.805.765-.764 1.516.048.872.56 1.459 1.49 1.707.924.247 1.79-.156 2-.93.093-.349.035-1.052-.113-1.343-.263-.52-.718-.853-1.38-1.009-.529-.124-.9-.106-1.233.06zM33.56.104c-.575.261-.874.822-.826 1.551.058.87.531 1.42 1.459 1.694.69.205 1.38.046 1.768-.406.234-.273.31-.533.31-1.052 0-.96-.518-1.569-1.541-1.81-.469-.11-.895-.102-1.17.023zm-3.3 1.072c.235.094.34.271.35.587.01.39-.334.63-.807.558-.404-.06-.64-.428-.546-.852.076-.35.53-.482 1.003-.293zm4.546-.03c.224.062.35.219.402.503.103.546-.63.905-1.115.545-.307-.227-.334-.818-.046-1.02.138-.096.47-.108.76-.028zm45.258.138c-.045.01-.202.034-.348.053l-.267.035.035.345c.094.915.526 1.61 1.194 1.917.31.143.396.157.943.158.57 0 .62-.01.968-.18.662-.326.984-.887 1.104-1.928l.035-.306-.399-.037a9.007 9.007 0 0 1-.568-.067l-.17-.029-.03.334c-.035.386-.222.796-.432.949-.181.131-.6.176-.9.096-.427-.115-.728-.615-.728-1.209 0-.146-.016-.16-.178-.155a2.033 2.033 0 0 0-.26.024zm-32.29 2.673c-1.585.4-2.67 2.173-3.093 5.047-.182 1.24-.236 2.371-.2 4.148.061 2.974.307 4.535.907 5.758.59 1.203 1.36 1.719 2.569 1.719 1.347 0 2.129-.614 2.513-1.974.125-.442.205-1.596.14-2.029-.038-.253-.042-.257-.213-.23-.095.015-.452.056-.792.091l-.618.064.045.279c.024.153.045.549.045.88 0 .538-.014.624-.137.842-.187.334-.433.468-.846.463-1.093-.015-1.72-.995-1.97-3.08-.141-1.185-.095-4.644.089-6.658.118-1.286.334-2.265.631-2.85.195-.385.61-.776.94-.886.355-.117.775-.131.961-.032.361.193.565.85.615 1.98l.033.751.142-.002c.078 0 .4-.037.716-.08.315-.043.589-.08.608-.08.073-.004.106-.928.052-1.448-.14-1.345-.574-2.164-1.349-2.545-.317-.156-.415-.177-.912-.192-.364-.01-.667.011-.877.064zm5.402.476c-.018.248-.167 3.79-.331 7.873l-.314 7.777-.014.355 1.365-.02c1.583-.023 1.865-.074 2.7-.485 1.326-.651 2.007-2.006 1.666-3.314-.31-1.193-1.536-2.068-3.306-2.359a25.029 25.029 0 0 1-.581-.1c-.007-.002.085-2.226.204-4.941.12-2.715.218-5.003.218-5.086v-.15h-1.574l-.033.45zm-27.687-.11c-.035.1-3.086 16.053-3.086 16.133 0 .05.168.063.666.052l.666-.015.476-2.665c.262-1.466.484-2.673.494-2.683.01-.01.525-.035 1.144-.057l1.124-.04.031.24c.017.13.148 1.33.29 2.667.143 1.336.274 2.445.292 2.465.017.02.41.055.872.076l.84.04-.033-.186c-.018-.102-.501-3.72-1.074-8.042-.573-4.32-1.049-7.864-1.058-7.872a6.887 6.887 0 0 0-.612-.071c-.328-.03-.689-.068-.802-.083-.138-.019-.214-.005-.23.041zM.582 5.061C.51 6.17.525 10.237.605 11.078c.212 2.229.51 3.183 1.208 3.879.579.575 1.098.76 2.132.76 1.018-.002 1.584-.215 2.135-.803 1.068-1.141 1.388-3.2 1.254-8.066-.037-1.32-.078-2.413-.092-2.427-.014-.015-.367-.036-.785-.047l-.76-.021.034 2.83c.028 2.404.019 2.991-.06 3.895-.095 1.093-.23 1.915-.383 2.347-.243.68-.735 1.091-1.309 1.091-.404 0-.609-.092-.896-.405-.411-.447-.621-1.09-.829-2.542-.182-1.27-.237-2.834-.167-4.775.033-.93.076-1.858.095-2.06l.034-.369H.628l-.046.696zm8.607-.426c0 .423-.372 13.949-.411 14.943l-.035.887h.82c.452 0 .832-.018.846-.04.014-.023.04-1.036.06-2.252.02-1.216.049-2.3.065-2.41.028-.197.032-.2.384-.266 1.67-.315 2.664 1.221 2.71 4.186l.011.727h1.557v-.613c0-.927-.204-2.008-.607-3.22-.417-1.256-1.09-1.95-2.129-2.195-.398-.094-1.325-.108-1.68-.026-.132.03-.246.048-.254.04-.007-.01.013-.768.044-1.687l.059-1.671.44-.095c1.723-.369 2.988-1.684 3.716-3.862.208-.623.443-1.715.499-2.32l.036-.396h-1.583l-.038.64c-.14 2.345-.9 3.924-2.173 4.514a3.238 3.238 0 0 1-.612.221l-.213.036.035-1.3.072-2.706.037-1.405H9.189v.27zm22.223-.044c0 .13-.135 3.627-.3 7.77-.164 4.142-.3 7.648-.3 7.79v.26h1.573l.035-.614c.093-1.64.628-15.343.6-15.371-.017-.018-.386-.042-.82-.053l-.787-.02v.238zm4.26.142c-.001.203-.087 3.586-.191 7.518-.105 3.933-.19 7.402-.191 7.71v.559h1.582l.002-.26c.005-.718.207-7.39.224-7.404.01-.008.88.618 1.93 1.392l1.912 1.407-.063 1.655c-.034.91-.079 2.004-.099 2.432l-.036.778h1.645v-.15c0-.083.135-3.697.3-8.032.166-4.334.288-7.895.27-7.912-.017-.017-.373-.041-.792-.052-.702-.02-.761-.014-.761.076 0 .25-.33 9.228-.342 9.285-.007.036-.891-.56-1.965-1.324l-1.952-1.39.001-.23c0-.127.037-1.52.08-3.097.045-1.576.081-2.97.082-3.097v-.232H35.67v.368zm24.134-.066c0 .455-.37 13.948-.41 14.939l-.035.86h.82c.451 0 .831-.02.845-.042.013-.022.04-.974.059-2.115.019-1.14.048-2.225.064-2.41l.03-.335.356-.067c1.671-.315 2.666 1.218 2.71 4.177l.011.736h1.542l.031-.23c.116-.864-.371-3.198-.895-4.286-.381-.792-1.027-1.316-1.865-1.514-.391-.092-1.32-.106-1.673-.024a1.04 1.04 0 0 1-.252.04c-.008-.01.014-.765.048-1.68l.061-1.665.477-.116c.262-.063.606-.17.764-.239.911-.39 1.731-1.18 2.322-2.238.514-.92.975-2.482 1.083-3.674l.038-.419h-1.582l-.036.641c-.05.875-.172 1.568-.4 2.263-.362 1.097-.943 1.844-1.732 2.224-.243.117-.538.229-.656.248l-.213.035.035-1.245c.02-.686.053-1.903.072-2.706l.037-1.46h-1.656v.302zm8.552-.015c-.028.224-.53 15.06-.527 15.527l.002.232h.805l.806-.001 2.287-6.48c1.258-3.565 2.308-6.518 2.334-6.563.026-.046.033.299.017.791-.023.668-.297 11.927-.297 12.197 0 .035.286.056.791.056h.792v-.915c0-1.106.145-11.246.192-13.48l.034-1.596h-.809l-.81.001-2.238 6.174c-1.231 3.396-2.246 6.127-2.255 6.069-.013-.09.385-10.744.443-11.849l.02-.395h-1.56l-.028.232zm9.576-.187l-.273 7.65c-.15 4.182-.273 7.76-.273 7.95v.346H79l2.32-6.546c1.277-3.6 2.33-6.51 2.339-6.468.016.07-.232 11.072-.28 12.454l-.02.56h1.565v-.916c0-1.075.144-11.096.192-13.452l.034-1.623h-.809l-.809.001-2.239 6.174c-1.23 3.396-2.246 6.127-2.254 6.069-.014-.09.384-10.744.443-11.849l.02-.395h-.783c-.431 0-.784.02-.784.045zm-61.046.205c0 .118-.098 3.53-.218 7.581-.12 4.053-.218 7.57-.218 7.819v.45h.737c.405 0 .737-.019.737-.041.005-.455.33-9.313.344-9.326.01-.01.302-.056.65-.101 1.79-.235 3.141-.988 3.671-2.045.18-.357.241-.574.303-1.062.265-2.088-1.55-3.306-5.146-3.453l-.86-.035v.213zm2.936 1.087c.797.188 1.272.594 1.462 1.252.276.955-.222 1.92-1.248 2.42-.416.201-1.148.393-1.506.393h-.24l.034-.859c.02-.473.051-1.406.072-2.074l.036-1.214h.524c.288.001.678.038.866.082zm6.364 2.087c.097.649.646 5.917.623 5.978-.02.053-.28.093-.937.145-.5.04-.924.057-.942.039-.033-.033 1.054-6.234 1.108-6.321.06-.098.118-.036.148.16zm29.097 7.607c.935.198 1.407.828 1.408 1.876 0 .471-.152.825-.498 1.157-.391.376-1.278.726-1.839.726h-.24l.032-.314c.017-.172.057-.928.09-1.678.03-.75.07-1.469.086-1.597l.029-.231h.321c.177 0 .452.027.611.06zM2.483 16.62c-.865.431-1.263 1.289-1.11 2.386.123.888.602 1.552 1.401 1.946.789.388 1.8.508 2.367.28.61-.243 1.052-.674 1.235-1.203.209-.602.151-1.46-.138-2.072-.434-.916-1.613-1.531-2.936-1.531-.386 0-.474.02-.82.193zm1.886 1.362a.928.928 0 0 1 .447.274c.093.106.169.2.169.21 0 .01.024.148.055.307.094.496-.072.826-.53 1.057-.203.102-.707.116-1.024.028-.423-.118-.684-.527-.685-1.074 0-.308.109-.556.324-.737.155-.131.22-.148.571-.148.217 0 .52.037.673.083zm72.528 5.683c-.544.084-.504.057-.466.31.114.766.298 1.226.636 1.593.29.315.633.493 1.108.575.936.163 1.817-.212 2.19-.93.125-.243.3-.96.3-1.231v-.23l-.315-.036c-.172-.02-.414-.05-.537-.066l-.224-.03-.066.411c-.07.437-.2.685-.46.876-.241.179-.819.162-1.11-.03-.246-.163-.38-.4-.43-.76-.067-.493-.063-.488-.286-.48a3.692 3.692 0 0 0-.34.028zm-58.795 10.86c-.85 4.499-1.543 8.21-1.543 8.247.001.051.17.069.656.069.633 0 .655-.004.683-.123.016-.068.518-3.03 1.115-6.582.597-3.553 1.112-6.486 1.145-6.518.033-.033.07-.049.082-.036.013.013.351 2.996.752 6.628l.73 6.604.832.015c.828.015.832.014.832-.107 0-.33-2.091-16.176-2.139-16.205-.03-.02-.28-.05-.555-.071a25.58 25.58 0 0 1-.773-.068l-.273-.031-1.544 8.179zm-12.376-7.58c-.139 1.81-.394 2.76-.99 3.682-.494.764-1.355 1.417-1.979 1.5l-.23.031v-.212c0-.302.105-4.261.13-4.864l.02-.505H.998l-.003.641c-.001.353-.096 4.006-.21 8.118C.67 39.45.586 42.833.6 42.855c.013.023.387.041.833.041h.81l.033-1.678c.02-.923.049-2.026.067-2.45l.032-.773.354-.067c.967-.182 1.683.207 2.144 1.167.36.749.527 1.58.585 2.927l.035.82h1.512v-.623c0-1.245-.501-3.349-.993-4.163-.622-1.032-1.8-1.523-3.179-1.328-.261.038-.481.059-.488.048-.011-.016.108-3.212.124-3.328.002-.018.127-.047.278-.065a4.6 4.6 0 0 0 .736-.192c1.983-.683 3.299-2.672 3.744-5.658.058-.39.105-.777.106-.86v-.15H5.759l-.033.423zm3.601-.3c-.054.165-.146 3.968-.114 4.707.126 2.895.304 4.058.768 5.023.515 1.072 1.342 1.552 2.676 1.552.947 0 1.595-.253 2.144-.84.706-.754 1.056-1.921 1.22-4.07.064-.85.033-5.392-.042-6.113l-.034-.327h-1.58l.032.477c.071 1.069.095 4.497.037 5.444-.168 2.757-.469 3.752-1.244 4.106-.6.275-1.163.096-1.565-.495-.32-.472-.484-1.076-.701-2.587-.115-.797-.123-1.036-.117-3.261.003-1.321.028-2.69.055-3.043l.049-.641h-.78c-.577 0-.787.018-.804.068zm24.134-.002c-1.75.036-2.412.067-2.442.115-.023.035-.042.306-.042.602l-.001.538 1.36-.019c.75-.01 1.374-.006 1.39.01.022.021-.14 7.47-.305 14.065l-.018.723h1.438l.034-.969c.02-.533.096-3.498.17-6.59.073-3.092.149-5.996.167-6.454l.034-.832h.554c.305 0 .867-.016 1.25-.036l.697-.035v-1.184l-.942.009c-.518.005-2.023.03-3.343.058zm-7.836.217c0 .406-.596 14.721-.634 15.236-.029.383-.02.493.04.531.105.067 2.164.062 2.725-.007 1.162-.142 2.176-.544 2.723-1.08.5-.49.715-1.032.715-1.81 0-1.826-1.457-3.104-4.046-3.549l-.36-.062.023-.5c.102-2.195.325-8.858.297-8.887-.02-.02-.362-.053-.76-.074l-.723-.039v.241zm13.903.167c-.02.188-.051 1.324-.07 2.524-.073 4.619.275 6.75 1.266 7.74.533.533 1.143.747 2.128.747 1.176 0 1.91-.353 2.46-1.182.811-1.221 1.065-3.313.944-7.796-.034-1.26-.072-2.304-.084-2.318-.013-.015-.367-.036-.787-.048l-.764-.02.037 2.748c.03 2.309.022 2.925-.054 3.85-.166 2.024-.373 2.778-.894 3.248-.275.248-.542.335-.94.307-.715-.052-1.156-.65-1.422-1.927-.186-.895-.322-2.18-.358-3.39-.033-1.093.04-3.836.121-4.537l.034-.287h-1.581l-.036.341zm8.898.573c-.02.473-.12 3.844-.223 7.49-.102 3.648-.198 6.871-.21 7.164l-.025.532h1.519l.003-.368c.002-.203.07-2.321.15-4.707l.146-4.34.453-.037c1.837-.152 3.367-.98 3.912-2.117.248-.52.318-.878.295-1.524-.017-.484-.036-.566-.224-.945-.236-.479-.617-.862-1.15-1.156-.925-.513-2.515-.848-4.03-.85l-.58-.001-.036.86zm7.34-.655c0 .113-.099 3.741-.219 8.064l-.218 7.873c0 .007.355.013.788.013h.789l.028-.232c.015-.127.068-1.84.118-3.806.05-1.966.098-3.584.108-3.594.013-.014 3.537 2.515 3.843 2.758.023.017-.073 2.872-.141 4.206l-.034.668h.8c.44 0 .801-.006.803-.013.012-.037.645-16.057.635-16.065a17.106 17.106 0 0 0-.803-.03l-.791-.02-.166 4.678c-.091 2.573-.18 4.69-.196 4.707-.023.024-3.631-2.517-3.835-2.7-.038-.035.038-5.329.092-6.398l.016-.313h-1.617v.204zm9.61.087c0 .16-.123 3.713-.273 7.895-.15 4.182-.273 7.661-.273 7.732v.127h1.624l.27-.75c.148-.413 1.189-3.345 2.313-6.517l2.045-5.766.015.455c.009.25-.046 2.994-.122 6.096-.077 3.102-.14 5.83-.14 6.061v.421h1.53v-.423c.001-.232.05-3.615.109-7.518.06-3.902.108-7.31.108-7.574l.001-.479-.796.015-.796.015-2.243 6.155c-1.233 3.385-2.25 6.146-2.26 6.137-.016-.017.379-10.418.445-11.705l.034-.668h-1.59v.291zm9.5-.082c0 .085-.122 3.577-.273 7.759-.15 4.182-.272 7.71-.272 7.842v.238l.825-.015.825-.015 2.3-6.517c2.083-5.898 2.303-6.49 2.318-6.245.009.149-.047 2.823-.123 5.943-.077 3.12-.14 5.937-.14 6.26v.586h1.53v-.75c.001-.413.05-3.919.109-7.791.06-3.872.108-7.133.108-7.247l.001-.206-.802.015-.802.015-2.253 6.195c-1.24 3.407-2.254 6.145-2.255 6.085-.002-.06.108-2.797.243-6.082.135-3.285.245-6.03.245-6.099 0-.126 0-.126-.792-.126h-.791v.155zm-23.44 1.078c.646.169 1.107.525 1.334 1.032.186.417.177 1.093-.02 1.516-.373.802-1.387 1.391-2.573 1.497l-.374.033.032-.35c.017-.192.044-.902.06-1.577a60.74 60.74 0 0 1 .063-1.73c.03-.455.043-.504.149-.527.189-.042 1.015.025 1.33.107zm-24.032 9.466c1.8.46 2.652 1.732 2.057 3.071-.332.746-1.259 1.144-2.43 1.043l-.423-.037-.002-.17c0-.094.03-1.036.066-2.094.076-2.221-.012-2.004.732-1.813zm-16.001 1.223c-.419.176-.722.395-.943.68-.493.639-.533 1.923-.086 2.744.602 1.105 2.573 1.747 3.669 1.194.468-.236.74-.5.946-.919.154-.312.179-.425.197-.887.012-.291-.006-.657-.04-.813-.261-1.22-1.342-1.988-2.964-2.104-.405-.029-.489-.018-.78.105zm30.158.135a2.04 2.04 0 0 0-1.217 1.31c-.178.618-.09 1.479.215 2.078.158.312.688.82 1.045 1 .642.325 1.502.5 2.042.414.746-.118 1.43-.678 1.635-1.34.338-1.095-.053-2.357-.911-2.944-.786-.538-2.126-.785-2.81-.518zm-28.47 1.322c.617.164.915 1.13.488 1.585-.455.484-1.4.492-1.818.015a1.7 1.7 0 0 1-.17-.21c0-.01-.023-.146-.053-.303-.096-.504.067-.915.44-1.111.2-.106.661-.096 1.112.024zm29.918.046c.675.11.962.427.962 1.061 0 .442-.153.676-.554.849-.541.232-1.294.047-1.545-.38-.166-.284-.16-.997.009-1.235.23-.321.514-.396 1.128-.295zm-23.172 8.433c0 .322-.383 14.834-.406 15.404l-.03.724h1.637l.005-.642c.013-1.817.191-7 .24-7.001.03 0 .897.617 1.926 1.372l1.87 1.374-.002.306c0 .169-.036 1.141-.08 2.162-.044 1.02-.08 1.985-.08 2.142l-.002.287h.793c.588 0 .8-.018.814-.069.012-.037.146-3.481.3-7.654.153-4.172.293-7.776.31-8.01l.033-.422H25.58l-.032.45c-.034.48-.307 8.238-.306 8.684 0 .198-.018.258-.072.237a260.42 260.42 0 0 1-3.846-2.737c-.016-.015.075-4.205.124-5.72l.032-.969h-.822c-.692 0-.821.013-.821.082zm27.433.42c.017.13.12 1.34.229 2.691.109 1.35.207 2.466.218 2.478.027.03 18.442.387 18.471.358.042-.043 1.156-4.625 1.13-4.65-.013-.015-4.295-.255-9.515-.534-5.22-.28-9.732-.523-10.027-.543l-.536-.034.03.234zm-43.28.33l-.015.45-.519.036c-1.982.132-3.065 1.691-3.39 4.877-.099.979-.084 3.708.025 4.606.212 1.736.69 3 1.404 3.711.537.535 1.155.822 1.865.866l.424.027V65h1.524l.016-.505.016-.505.546-.033c.3-.018.669-.076.819-.128 1.326-.462 2.116-1.682 2.489-3.85.245-1.424.255-4.395.02-5.942-.361-2.38-1.241-3.694-2.725-4.072a3.025 3.025 0 0 0-.615-.083h-.288v-.928h-1.58l-.015.45zm9.582-.367c-.784.17-1.42.704-1.818 1.524-.593 1.224-.802 3.15-.744 6.853.054 3.475.254 5.024.789 6.112.48.977 1.356 1.472 2.605 1.472 1.866 0 2.86-1.11 3.219-3.592.146-1.015.193-2 .193-4.079 0-2.077-.09-3.902-.248-4.971-.302-2.048-1-3.036-2.345-3.32-.469-.098-1.196-.098-1.651.001zm18.693.69c-.112.43-1.02 4.025-2.02 7.987l-1.817 7.204 4.067.014c2.238.008 4.075.007 4.084-.002.025-.025-2.613-15.835-2.65-15.875-.017-.02-.354-.052-.746-.073l-.715-.039-.203.784zm-17.303.982c.585.278.93 1.112 1.117 2.693.1.842.099 6.635 0 7.477-.212 1.784-.596 2.429-1.505 2.522-.455.046-.728-.058-1.072-.412-.647-.662-.826-1.67-.904-5.084-.04-1.747.045-4.428.166-5.267.198-1.37.523-1.86 1.367-2.066.185-.045.589.022.831.137zm-11.013.715c.004 1.261-.122 10.913-.145 11.106-.033.28-.124.298-.54.104-.54-.252-1.03-.955-1.274-1.836-.228-.821-.282-1.309-.337-3.057-.09-2.833.066-4.286.58-5.398.328-.71.737-1.102 1.293-1.236.442-.107.421-.123.423.317zm2.105-.25c.359.121.811.585 1.048 1.073.231.475.426 1.205.543 2.029.13.918.126 4.214-.007 5.212-.272 2.056-.94 3.13-2.048 3.297l-.24.036.034-1.68c.02-.924.065-3.566.102-5.87l.066-4.188h.116c.064 0 .238.04.386.091zm27.746 6.49c.517 3.12.94 5.69.942 5.712 0 .023-1.033.041-2.298.041h-2.3l.036-.123c.468-1.576 2.064-8.637 2.519-11.136.02-.116.064-.198.099-.186.036.012.444 2.329 1.002 5.692zm9.376.203c.015.096.119 1.308.23 2.693l.202 2.518 1.151.035c.633.019 4.419.094 8.413.167 3.994.073 7.633.146 8.085.161l.824.028.577-2.332c.318-1.282.568-2.342.554-2.356-.013-.013-4.317-.25-9.564-.526a8112.62 8112.62 0 0 1-10.02-.532l-.48-.03.028.175z" fill="#000"/></svg>