<svg width="109" height="41" viewBox="0 0 109 41" fill="none" xmlns="http://www.w3.org/2000/svg"><path d="M39.34 20.84c0 10.57-8.436 19.137-18.841 19.137-10.405 0-18.84-8.567-18.84-19.136 0-10.57 8.435-19.137 18.84-19.137s18.84 8.568 18.84 19.137z" stroke="#000" stroke-width="2"/><path fill-rule="evenodd" clip-rule="evenodd" d="M16.532 20.841v10.072h6.611l3.305-3.357V17.484h-6.61v-3.358h6.61l-3.305-3.357h-6.61v6.715l3.305 3.357h3.305v6.715h-3.305V20.84h-3.306z" fill="#000"/><path d="M63.356 16.37c-1.309 0-2.28.422-2.895 1.248h-.476V12.24h-2.241v14.644h2.161v-.987h.476c.655.826 1.646 1.25 2.975 1.25 1.329 0 2.4-.504 3.173-1.512.794-1.007 1.19-2.296 1.19-3.887 0-1.572-.396-2.86-1.19-3.868-.773-1.007-1.844-1.51-3.173-1.51zm-.635 8.842c-1.844 0-2.796-1.51-2.796-3.464s.952-3.445 2.797-3.445c1.765 0 2.756 1.37 2.756 3.445 0 2.075-.991 3.464-2.756 3.464zm9.796-12.972h-2.3v2.195h2.3V12.24zm-2.281 4.391v10.253h2.241V16.631h-2.241zM84.96 20.48c0-2.579-1.308-4.11-3.748-4.11-1.309 0-2.26.423-2.875 1.25h-.476v-5.38H75.62v14.645h2.24v-5.479c0-.826.239-1.53.715-2.115.495-.584 1.13-.886 1.903-.886 1.488 0 2.242.846 2.242 2.518v5.962h2.24V20.48zm2.819 2.558c0 2.578 1.329 4.11 3.788 4.11 1.329 0 2.3-.424 2.915-1.25h.476v.987h2.162V16.631h-2.241v5.48c0 .825-.238 1.53-.734 2.114-.476.584-1.11.887-1.884.887-1.487 0-2.24-.846-2.24-2.518V16.63h-2.242v6.406zm20.33-3.666c-.218-1.833-1.745-3.002-4.145-3.002-2.717 0-4.145 1.29-4.145 3.122 0 1.532.992 2.438 2.579 2.7l2.102.362c1.17.222 1.646.585 1.646 1.37 0 .887-.714 1.33-2.122 1.33-1.388 0-2.162-.484-2.34-1.47h-2.241c.218 2.094 1.765 3.363 4.62 3.363 1.369 0 2.42-.322 3.174-.947.773-.644 1.15-1.43 1.15-2.336 0-1.793-1.031-2.84-3.074-3.183l-1.963-.322c-.893-.161-1.29-.403-1.29-1.028 0-.705.615-1.067 1.825-1.067s1.864.362 1.983 1.108h2.241z" fill="#000"/></svg>