<svg width="83" height="69" viewBox="0 0 83 69" fill="none" xmlns="http://www.w3.org/2000/svg"><path fill-rule="evenodd" clip-rule="evenodd" d="M53.86 8.292l-9.892 8.291-.002 9.438c-.001 5.19.017 9.468.04 9.504.046.073 18.414 3.328 18.592 3.295.126-.024 19.878-16.574 19.808-16.597-.117-.037-18.444-3.253-18.54-3.253-.06 0-.171.056-.249.123-.13.115-.13.112.01-.044l.152-.168-.014-9.44L63.75 0l-9.892 8.292zM4.246 16.175a5.789 5.789 0 0 0-1.839.555c-.502.246-.64.346-1.073.781-.419.42-.538.581-.753 1.02-.301.617-.452 1.178-.535 2.003-.043.423-.055 2.973-.042 8.532.02 7.804.022 7.937.134 8.424.506 2.19 2.026 3.367 4.542 3.52.996.06 9.596-.338 11.252-.52l.335-.038.015-1.934.014-1.934-4.9-.002c-2.726 0-5.076-.024-5.296-.053-.47-.061-.758-.196-.992-.462-.322-.366-.34-.53-.34-2.944v-2.18l.672-.034c.37-.018 2.278-.082 4.24-.141a516.67 516.67 0 0 0 4.323-.143l.755-.035v-3.883h-.124c-.067 0-2.161-.074-4.652-.165-2.49-.09-4.684-.164-4.874-.164h-.345l.016-2.428c.016-2.384.018-2.433.137-2.655.16-.297.395-.49.746-.608.263-.088.7-.097 5.46-.113l5.173-.017v-3.88l-.178-.032c-1.122-.203-10.967-.593-11.871-.47zM18.93 28.52v12.403l5.86-.02c6.441-.022 6.147-.007 7.314-.367 3-.925 4.936-3.597 5.65-7.799.227-1.339.297-2.307.298-4.137.001-2.304-.134-3.798-.491-5.402-.289-1.296-.854-2.761-1.41-3.652-1.245-1.997-3.066-3.094-5.595-3.37-.341-.038-2.533-.06-6.08-.06H18.93V28.52zm44.463-9.257c0 .01-.055.066-.123.124l-.124.104.105-.123c.098-.116.142-.149.142-.105zm-.384.331c0 .012-.043.055-.096.096-.087.069-.09.067-.02-.02.07-.092.116-.12.116-.076zm-.33.273a.61.61 0 0 1-.123.123l-.123.105.104-.123c.098-.117.143-.149.143-.105zm-.274.218c0 .01-.068.078-.15.151l-.152.133.133-.15c.125-.142.17-.177.17-.134zm-32.195.33c1.865.534 2.743 2.214 3.046 5.826.071.853.07 3.598-.001 4.444-.283 3.35-1.282 5.253-3.072 5.858-.348.117-.434.12-3.445.138l-3.087.018v-8.17c0-4.493.018-8.187.04-8.209.021-.022 1.423-.03 3.115-.02 2.704.018 3.115.032 3.404.114zm31.81 0a.567.567 0 0 1-.123.124l-.123.105.105-.124c.098-.116.142-.148.142-.104zm-.328.275a.61.61 0 0 1-.124.123l-.123.105.104-.123c.098-.117.143-.149.143-.105zm-.385.331c0 .011-.043.055-.096.096-.087.068-.089.066-.02-.02.071-.092.116-.121.116-.076zm-.274.217c0 .01-.068.077-.151.15l-.151.134.133-.151c.124-.141.169-.176.169-.133zm-.33.274c0 .01-.067.078-.15.15l-.151.134.133-.151c.124-.141.169-.176.169-.133zm-.384.33a.61.61 0 0 1-.123.124l-.124.104.105-.123c.098-.116.142-.149.142-.105zm-.384.331c0 .012-.043.055-.096.096-.087.069-.09.067-.02-.02.07-.092.116-.12.116-.076zm-.33.275a.356.356 0 0 1-.096.096c-.087.068-.088.066-.02-.021.072-.091.117-.12.117-.075zm-.274.216a.95.95 0 0 1-.15.151l-.152.133.133-.15c.125-.142.17-.177.17-.134zm-.33.275c0 .01-.067.077-.15.15l-.151.134.133-.151c.124-.141.169-.176.169-.133zm-.384.33a.6.6 0 0 1-.123.123l-.123.105.104-.123c.098-.116.142-.149.142-.105zm-.384.331c0 .011-.043.055-.096.096-.087.068-.089.066-.02-.02.071-.092.116-.121.116-.076zm-.274.217a.95.95 0 0 1-.151.15l-.151.134.133-.151c.124-.141.169-.176.169-.133zm-.33.274c0 .01-.067.078-.15.15l-.151.134.133-.151c.124-.141.168-.176.168-.133zm-.384.33c0 .01-.055.066-.123.124l-.124.104.105-.123c.098-.116.142-.149.142-.105zm-.33.275a.61.61 0 0 1-.123.123l-.123.105.104-.124c.099-.116.143-.148.143-.104zm-.383.33c0 .012-.044.055-.096.097-.087.068-.09.066-.021-.021.072-.091.117-.12.117-.075zm-.275.217c0 .01-.068.078-.15.151l-.152.133.133-.15c.125-.142.17-.177.17-.134zm-.33.275c0 .01-.067.077-.15.15l-.151.134.133-.151c.124-.141.169-.176.169-.133zm-.383.33c0 .01-.056.066-.124.123l-.123.105.104-.123c.098-.116.142-.149.142-.105zm-.385.331c0 .011-.043.055-.096.096-.087.068-.089.066-.02-.02.071-.092.116-.121.116-.076zm-.33.274c0 .012-.042.055-.095.096-.087.069-.09.067-.02-.02.07-.092.116-.12.116-.076zm-.274.217c0 .01-.067.078-.15.15l-.151.134.133-.151c.124-.141.168-.176.168-.133zm-.384.33c0 .01-.055.066-.123.124l-.124.104.105-.123c.098-.116.142-.149.142-.105zm-.33.275a.6.6 0 0 1-.123.123l-.123.105.104-.124c.099-.116.143-.148.143-.104zm-.383.33c0 .012-.044.055-.097.097-.087.068-.089.066-.02-.021.072-.091.117-.12.117-.075zm-.275.217c0 .01-.068.078-.15.151l-.152.133.133-.15c.125-.142.17-.177.17-.134zm-.33.275c0 .01-.067.077-.15.15l-.151.134.133-.151c.124-.141.169-.177.169-.133zm-.383.33c0 .01-.056.066-.124.123l-.123.105.104-.124c.098-.116.142-.148.142-.104zm-.33.274c0 .01-.055.066-.123.124l-.124.104.105-.123c.098-.116.142-.149.142-.105zm-.384.331c0 .012-.043.055-.096.096-.087.069-.09.067-.02-.02.07-.092.116-.12.116-.076zm-.275.217c0 .01-.068.078-.15.15l-.151.134.133-.151c.124-.141.168-.176.168-.133zm-.329.274c0 .01-.068.078-.15.151l-.152.133.133-.15c.125-.142.17-.177.17-.134zm-.384.33a.61.61 0 0 1-.124.124l-.123.104.104-.123c.099-.116.143-.148.143-.104zm-.384.332c0 .01-.044.054-.096.096-.088.068-.09.066-.021-.021.072-.091.117-.12.117-.075zm-.33.274c0 .011-.043.055-.096.096-.087.068-.089.066-.02-.02.071-.092.116-.121.116-.076zm-.274.217c0 .01-.068.077-.151.15l-.151.133.133-.15c.124-.141.169-.177.169-.133zm-.384.33c0 .01-.056.066-.124.123l-.123.105.104-.124c.098-.116.143-.148.143-.104zm-.33.274a.61.61 0 0 1-.123.124l-.124.104.105-.123c.098-.116.142-.149.142-.105zm-.384.331c0 .012-.043.055-.096.096-.087.069-.09.067-.02-.02.07-.092.116-.12.116-.076zm-.275.217c0 .01-.068.078-.15.15l-.152.134.134-.151c.124-.141.168-.176.168-.133zm-.329.274c0 .01-.068.078-.15.151l-.152.133.133-.15c.125-.142.17-.177.17-.134zm-.384.33a.61.61 0 0 1-.124.124l-.123.105.104-.124c.099-.116.143-.148.143-.105zm-.33.275a.6.6 0 0 1-.123.123l-.124.105.105-.124c.098-.116.142-.148.142-.104zm-.384.33c0 .012-.043.056-.096.097-.087.068-.089.066-.02-.02.071-.092.116-.121.116-.076zm-.274.218a.95.95 0 0 1-.151.15l-.151.133.133-.15c.124-.142.169-.176.169-.133zm-.33.274c0 .01-.068.078-.15.15l-.151.134.133-.151c.124-.141.168-.176.168-.133zm-.384.33c0 .01-.056.066-.123.124l-.124.104.105-.123c.098-.116.142-.149.142-.105zm-.384.331c0 .012-.043.055-.096.096-.087.068-.09.066-.02-.02.07-.092.116-.12.116-.076zm-.33.275c0 .01-.043.054-.096.096-.087.068-.089.066-.02-.021.071-.092.117-.12.117-.075zm-.274.216c0 .01-.068.078-.15.151l-.152.133.133-.15c.125-.142.169-.177.169-.134zm-.384.33c0 .01-.056.066-.124.124l-.123.105.104-.124c.099-.116.143-.148.143-.105zm-.33.275a.6.6 0 0 1-.123.123l-.124.105.105-.124c.098-.116.142-.148.142-.104zM4.541 44.16c-2.065.17-3.524 1.146-4.143 2.773a8.51 8.51 0 0 0-.258.871c-.114.487-.115.596-.134 8.423-.013 5.347 0 8.129.04 8.542.212 2.227 1.355 3.572 3.465 4.08.914.22 2.432.204 8.174-.086 1.714-.087 3.842-.225 4.323-.281l.288-.034v-3.88l-5.064-.002c-5.494 0-5.48 0-5.915-.3a1.199 1.199 0 0 1-.37-.46l-.151-.309-.016-2.29c-.015-2.172-.011-2.291.082-2.29.355.005 9.476-.287 9.664-.31l.233-.027v-3.89h-.37c-.204 0-2.409-.074-4.9-.164-2.49-.09-4.572-.165-4.625-.165-.09 0-.096-.147-.096-2.33 0-2.2.007-2.346.11-2.625.13-.347.261-.482.632-.653l.274-.126 5.256-.015 5.256-.015v-3.933l-.288-.034c-.999-.116-4.855-.315-8.11-.418-.982-.03-2.02-.065-2.306-.076-.287-.01-.76 0-1.051.024zm14.39 12.338v12.404h4.72v-4.91c0-4.641.006-4.912.097-4.912.24 0 4.052.453 4.088.487.022.02.951 2.123 2.066 4.672l2.025 4.636 2.668.014 2.667.014-.238-.508c-.132-.28-1.18-2.465-2.332-4.857a687.254 687.254 0 0 1-2.093-4.368c0-.011.167-.076.37-.144 2.255-.751 3.302-2.56 3.53-6.097.133-2.082-.13-4.057-.719-5.399-.822-1.874-2.244-2.93-4.445-3.298-.517-.087-1.165-.099-6.49-.118l-5.914-.02v12.404zm28.264-12.247c-.047.123-6.609 19.538-7.956 23.54l-.374 1.112 2.553-.014 2.553-.014.888-2.73.887-2.729h4.064l4.063-.001.877 2.743.877 2.744h5.034l-.03-.123c-.018-.068-1.824-5.638-4.014-12.377a5743.43 5743.43 0 0 1-3.982-12.277c0-.014-1.21-.025-2.69-.025h-2.692l-.058.151zm-17.223 4.154c.483.102.744.242 1.029.55.602.654.866 1.99.73 3.697-.127 1.602-.484 2.282-1.35 2.572-.248.083-.643.096-3.477.112l-3.198.019v-7.03l2.951.001c2.325.001 3.028.018 3.315.079zM51.4 54.938l1.323 4.212c.028.09-.133.096-2.856.096-1.587 0-2.886-.008-2.886-.018 0-.027 2.44-7.274 2.728-8.1l.256-.739.071.217c.04.12.653 2.069 1.364 4.332z" fill="#000"/></svg>