<svg width="74" height="49" viewBox="0 0 74 49" fill="none" xmlns="http://www.w3.org/2000/svg"><path fill-rule="evenodd" clip-rule="evenodd" d="M43.92.053a27.19 27.19 0 0 0-3.39.457 26.085 26.085 0 0 0-19.545 17.125c-1.005 2.927-1.396 5.362-1.396 8.69v1.735l1.515.027c1.635.03 1.859.06 2.69.363 1.153.421 2.09 1.269 2.568 2.32.376.83.519 1.997.358 2.919-.388 2.222-2.174 3.837-4.538 4.104-.27.03-1.26.055-2.2.056h-1.709l.02-7.006c.016-6.225.029-7.093.113-7.792.665-5.536 2.62-10.235 6.031-14.5.284-.355.495-.665.469-.688a72.152 72.152 0 0 0-1.679-1.37c-.012 0-.218.24-.456.533a29.99 29.99 0 0 0-6.536 15.254c-.203 1.633-.21 1.928-.234 9.82l-.024 7.825h3.157c3.348 0 3.607-.016 4.52-.272 2.361-.663 4.34-2.528 5.074-4.781.51-1.571.376-3.443-.353-4.901-1.135-2.272-3.399-3.738-6.187-4.005l-.376-.036.031-1.074c.064-2.18.423-4.207 1.137-6.427l.333-1.038.445-.002c.51-.003.975-.136 1.1-.315.072-.103.118-.42.06-.42-.011 0-.293.121-.626.27-.338.15-.62.246-.638.217-.029-.047.214-.171.974-.499.25-.107.257-.117.169-.214-.192-.212-.56-.112-1.068.288l-.2.159.064-.174c.072-.195.505-.508.782-.565.246-.05.542.09.679.322l.113.193.267-.135c.147-.075.338-.135.425-.135.176 0 .446.183.446.304 0 .117.044.097.242-.113.143-.152.222-.191.384-.191.23 0 .52.176.52.316 0 .071.03.06.142-.051l.142-.142-.196-.257c-.108-.142-.197-.274-.197-.294 0-.068-.843-.038-1.072.038-.21.07-.242.067-.446-.048-.186-.105-.264-.118-.51-.085-.324.044-.392.043-.959-.001l-.393-.031.172-.349.171-.348.105.175c.172.289.322.421.476.421.08 0 .162-.017.183-.038.02-.02-.115-.192-.302-.38-.187-.19-.322-.361-.3-.383.02-.021.195.132.386.34l.349.379.04-.155c.052-.204-.087-.393-.452-.614l-.277-.168.223-.416.222-.416.196.085c.737.319 1.726.72 3.152 1.277.906.354 1.717.68 1.802.726l.156.083-.219-.022c-.12-.012-.456-.032-.747-.046l-.53-.024-.034.156a.873.873 0 0 1-.141.294c-.092.116-.097.153-.038.248.087.14.093.14.404-.025.306-.163.46-.17.755-.034.122.056.47.13.774.162a5.63 5.63 0 0 1 1.85.541c.596.298 2.321 1.432 2.597 1.706.5.498.658 1.079.552 2.029-.125 1.129-.538 2.077-1.63 3.745l-.084.127h5.741l-.074-.21c-.243-.689-.247-1.9-.01-2.767.641-2.338 2.774-4.883 5.737-6.847 1.848-1.225 3.182-1.682 4.482-1.536.68.077 1.181.22 2.523.717 1.68.623 2.13.725 3.182.726.815 0 .866-.006 1.36-.178.755-.262 1.48-.649 1.48-.79 0-.188.255-.469.46-.507a.511.511 0 0 1 .273.013c.099.056.687-.036.687-.107 0-.025.065-.106.144-.18a.495.495 0 0 1 .719.03c.171.196.287.206.505.044.307-.227.658-.128.848.239a.493.493 0 0 0 .264.208c.158.052.212.047.332-.031.238-.157.506-.055.727.277.235.35.455.453.695.324.327-.177.688 0 .811.395.05.162.216.191.445.08l.193-.094-.917-.444c-1.36-.66-2.807-1.198-3.77-1.405-.098-.021-.166-.059-.15-.083.015-.025.291-.16.614-.301.475-.208.614-.295.73-.46.184-.263.632-.56.812-.54.098.012.153.064.192.184l.054.167.273-.07c.745-.193 1.943-.288 2.4-.19.13.028.246.157.592.663.44.643 1.022 1.56 1.022 1.61 0 .016-.05.029-.111.029-.184 0-.477.147-.544.273-.035.065-.052.13-.038.145.015.014.176-.05.36-.142.415-.21.437-.172.033.056-.31.175-.357.235-.222.287.082.031.442-.186.562-.34.063-.08.076-.079.151.018.122.158.1.236-.078.275-.204.045-.44.264-.44.408 0 .062.013.112.03.112.016 0 .176-.1.355-.22.178-.122.324-.199.324-.171 0 .027-.15.148-.334.27-.294.193-.323.226-.233.273.134.07.284.008.48-.199.087-.092.182-.153.21-.136.028.018.136.208.238.422.152.316.172.393.104.407-.107.023-.104.074.027.501.118.387.138.545.06.462-.027-.029-.1-.233-.162-.455-.062-.221-.128-.418-.146-.437-.049-.048-.19.159-.19.279 0 .158.247.6.435.779.143.136.18.15.223.082a.522.522 0 0 0 .056-.218c.012-.37.083-.346.265.089a25.424 25.424 0 0 1 1.555 5.374c.133.782.306 2.28.306 2.65v.19h1.055l-.036-.723c-.24-4.95-2.283-10.295-5.488-14.354a25.865 25.865 0 0 0-9.045-7.242A26.105 26.105 0 0 0 43.919.053zm1.607 1.88c.147.258.185.293.255.235.06-.049.075-.135.057-.303-.033-.288.042-.311.095-.03.052.282.236.698.356.807a.37.37 0 0 0 .267.072l.168-.018-.3-.513c-.279-.475-.33-.611-.2-.531.028.018.171.241.318.497.146.256.285.465.308.465.077 0 .163-.263.13-.396a1.252 1.252 0 0 0-.204-.346c-.166-.209-.167-.214-.05-.232a.773.773 0 0 1 .253.015c.103.026.122.054.084.122-.032.057-.023.138.025.23a.89.89 0 0 1 .074.344c0 .247-.242.516-.512.566l-.18.034.083.233c.078.217.077.244-.022.41a.807.807 0 0 1-.475.353c-.082.026-.09.073-.06.33.034.292.029.306-.163.499-.15.149-.191.228-.168.321.05.197-.102.484-.317.6a.77.77 0 0 0-.305.335c-.112.231-.112.232-.005.442a1.7 1.7 0 0 1 .14.418c.025.151.055.2.113.178a.504.504 0 0 1 .149-.03c.039 0 .166-.165.282-.366.26-.45.701-.935 1.052-1.16.37-.238.884-.4 2.085-.66.93-.2 1.466-.341 1.757-.463.089-.037.09-.027.012.159-.08.191-.078.205.062.388.178.234.202.239.093.02-.17-.342.131-.813.52-.814.157 0 .313-.08.544-.281a.543.543 0 0 1 .371-.156c.358 0 .675-.268.822-.694.084-.245.142-.302.259-.257.087.033.088.042.002.137-.106.116-.127.104.564.326.218.07.396.147.396.17 0 .068-.051.057-.573-.12-.267-.09-.495-.163-.508-.163-.013 0-.01.05.005.11.018.067-.006.128-.062.16-.077.044-.032.11.289.436.209.21.361.401.34.423-.022.022-.206-.125-.408-.326-.203-.201-.386-.366-.408-.366-.022 0-.04.084-.04.186 0 .143.043.223.188.35.103.09.227.187.276.214.07.04.076.078.03.2-.077.203-.072.597.009.678.105.105.193.076.175-.057-.055-.4-.06-.588-.017-.588.027 0 .05.083.05.185 0 .27.06.528.115.494.072-.045.058.02-.038.166-.093.142-.087.473.008.505.033.01.105-.13.16-.313.055-.182.12-.344.146-.36.062-.038.06-.026-.064.334-.13.38-.133.41-.029.41.146 0 .258-.255.261-.591.004-.416-.041-.492-.205-.338l-.125.117-.024-.236a1.495 1.495 0 0 0-.068-.338c-.04-.09-.027-.098.127-.064.147.033.172.023.172-.069 0-.059-.082-.27-.182-.469l-.182-.361.332-.001c.363 0 .578-.042.578-.11 0-.025-.064-.12-.141-.213-.078-.092-.13-.168-.114-.168.05 0 1.475.587 1.917.79l.434.2-.338.222c-.213.14-.338.26-.338.324 0 .056-.069.178-.152.27-.153.172-.321.217-.536.143-.097-.033-.123-.007-.18.18-.084.283-.26.4-.564.375-.205-.016-.236-.004-.25.1a.643.643 0 0 1-.155.267c-.123.133-.164.145-.403.116-.257-.03-.268-.025-.375.155-.104.177-.19.222-.493.257-.099.011-.15.07-.205.234-.126.375-.474.571-.727.411-.058-.036-.118-.017-.21.07-.093.088-.187.117-.355.11l-.228-.008-.013.225c-.032.549-.257.791-.669.721-.132-.022-.222-.012-.246.028-.067.108-.264.15-.456.097-.163-.045-.215-.03-.45.13-.169.115-.277.233-.297.325-.059.27-.413.49-.614.383-.166-.089-.695.289-.774.552-.082.274-.269.394-.545.35-.191-.031-.269 0-.777.302-.746.444-1.88.99-2.414 1.163-.486.157-.526.163-.526.08 0-.144.508-1.325.734-1.708.137-.232.249-.454.249-.493 0-.273.273-.58.515-.58.113 0 .944-.58 1.011-.705.045-.085.018-.092-.288-.072-.185.013-.398.061-.474.108l-.265.169-.13.083.145-.284c.111-.22.131-.308.088-.39a.558.558 0 0 1-.056-.22c0-.098-.02-.11-.123-.074a.98.98 0 0 1-.314.034l-.191-.01-.73 1.445c-.973 1.925-1.594 2.865-1.891 2.865-.121 0-.239-.154-.279-.365-.052-.282.011-1.19.136-1.943.089-.533.135-.68.273-.868.156-.212.16-.234.086-.38a.73.73 0 0 1-.08-.268c0-.063-.021-.102-.048-.085-.082.05-.114-.19-.114-.882l-.001-.666.232-.109c.127-.06.302-.168.388-.242l.156-.132-.31.018a2.46 2.46 0 0 0-.407.049c-.082.026-.106-.012-.14-.23a7.522 7.522 0 0 1-.062-.583c-.032-.5-.172-1.3-.269-1.53-.047-.115-.074-.243-.058-.284.025-.064-.152-.771-.266-1.065-.027-.07.022-.1.243-.143.259-.051.272-.049.194.038-.081.09-.119.384-.049.384.02 0 .193-.138.385-.307.192-.17.362-.296.376-.281.015.014-.132.175-.326.356-.194.182-.338.345-.32.363.018.018.1.033.182.033.17 0 .453-.287.578-.586.042-.101.107-.194.143-.207.087-.03 1.256-.174 1.8-.221l.423-.037-.078.221c-.065.185-.066.232-.004.282.087.073.107.046.188-.258.078-.29.193-.3.306-.028.121.29.29.451.472.451.085 0 .154-.016.154-.036 0-.02-.073-.168-.164-.327-.178-.317-.188-.347-.113-.347.028 0 .129.136.224.303zm2.947-.165c.226.018.5.047.608.063l.199.03-.103.294c-.057.16-.103.34-.103.397 0 .13.194.378.25.322.022-.023.052-.238.066-.478.014-.24.05-.437.08-.437.035 0 .041.176.016.496-.039.494-.038.496.078.434.215-.116.25-.356.126-.87-.027-.114-.017-.127.072-.09.057.023.19.05.295.06.377.034.873.147.873.198 0 .029.047.038.103.02.109-.035.12.018.206.938.03.326.025.346-.14.51-.143.144-.206.169-.401.159-.326-.017-.368-.008-.368.08 0 .236-.557.396-.782.226-.127-.097-.362-.034-.59.157-.242.204-.395.226-.628.089-.18-.106-.207-.11-.291-.033-.199.18-.207.095-.033-.326.088-.212.08-.208-.246.152-.185.203-.386.396-.446.429-.105.056-.109.048-.072-.15.053-.283.32-.811.555-1.098.106-.129.168-.234.137-.234-.07 0-.357.36-.676.848-.138.21-.345.48-.46.599-.197.204-.21.209-.227.09-.042-.295.417-1.467.942-2.403.268-.477.328-.551.431-.53.066.013.304.04.53.058zm-5.253.494c-.395.206-.699.52-.699.723 0 .305.11.266.523-.184.217-.238.413-.415.434-.394.022.021-.135.23-.35.464-.213.235-.388.442-.388.46 0 .079.245.092.38.022.253-.131.603-.754.603-1.073 0-.201-.142-.206-.503-.018zm.704-.025c-.077.293.203 1.201.403 1.308a.619.619 0 0 0 .244.053c.178 0 .174-.012-.19-.629-.15-.253-.25-.474-.222-.49.027-.018.188.203.356.489.168.286.327.52.352.52.062 0 .112-.142.112-.32 0-.245-.307-.63-.707-.889-.29-.187-.31-.19-.348-.042zm.861.012c-.036.143 0 .256.081.256.082 0 .099-.198.026-.298-.067-.09-.074-.088-.107.042zm2.955.11c-.26.261-.188.304.296.173.334-.089.63-.11.492-.033a2.592 2.592 0 0 1-.437.116 3.403 3.403 0 0 0-.4.095c-.07.039.133.232.243.232.167 0 .668-.25.809-.403.187-.203.098-.265-.427-.295-.41-.024-.443-.018-.576.115zm-7.512.108c0 .036.12.168.265.294.452.39.542.747.264 1.046-.116.124-.117.128-.013.186.4.223.495.642.215.944-.159.172-.16.216-.021.394.13.166.146.517.027.616-.115.095-.102.238.033.36.28.253.337.668.126.901-.085.094-.085.111-.002.238a.653.653 0 0 1-.054.738c-.14.167-.141.173-.042.282.16.178.133.501-.06.702-.148.155-.154.18-.093.348.1.278.08.502-.064.674-.086.103-.187.387-.304.854-.327 1.313-.928 2.824-1.122 2.824-.158 0-.47-.348-.648-.723l-.182-.384-.114.185a2.054 2.054 0 0 1-.272.335c-.156.15-.157.151-.108.573.058.508.011 1.466-.09 1.844-.102.382-.31.773-.606 1.136-.376.462-.586.527-.657.202-.019-.085-.131-.316-.25-.513-.12-.197-.23-.427-.246-.51-.016-.083.037-.459.118-.834.08-.376.143-.771.138-.879a.511.511 0 0 1 .097-.33c.058-.073.17-.292.248-.484.18-.444.74-1.374.803-1.335.026.016.048.064.048.105 0 .1.079.145.186.104.109-.042.11-.115.005-.22-.098-.099-.108-.417-.018-.584.035-.066.071-.25.08-.412l.016-.293-.234.252c-.129.139-.263.252-.299.252-.035 0-.064.04-.064.087 0 .08-.715 1.347-.743 1.318-.007-.007.089-.315.213-.684l.226-.67-.146-.126c-.177-.152-.264-.36-.221-.534.063-.26.46-.58.876-.705l.223-.067-.089-.186c-.07-.149-.076-.218-.027-.348.055-.147.044-.182-.123-.382-.16-.192-.183-.256-.173-.488.01-.226-.012-.291-.14-.426-.163-.169-.179-.276-.119-.777.031-.263.021-.314-.079-.405-.141-.128-.155-.467-.027-.683.085-.143.083-.156-.054-.303-.204-.22-.196-.512.02-.758.193-.22.216-.464.058-.608-.22-.198-.213-1.118.008-1.237.108-.058.111-.05.075.194-.038.248-.035.253.074.184.097-.06.136-.205.109-.407-.006-.039.12-.127.182-.128.022 0 .04.039.04.088 0 .063.063.032.22-.11.287-.26.35-.253.092.01-.232.238-.247.284-.09.284.183 0 .303-.09.47-.355.148-.237.178-.255.674-.406.842-.258 1.28-.373 1.324-.348.023.013.041.053.041.088zm10.428.052c-.106.171-.272.648-.272.78 0 .036.056.136.123.221l.123.156.034-.162c.02-.09.038-.302.042-.473.003-.171.034-.328.068-.35.046-.028.052.094.023.466-.04.502-.039.504.077.442.177-.095.231-.299.17-.635-.051-.274-.192-.623-.252-.623-.015 0-.076.08-.136.178zm1.815-.002c.354.097.644.193.644.214 0 .021-.117.08-.26.132a15.95 15.95 0 0 0-.805.337c-.805.359-.756.358-.713.01.09-.732.094-.747.213-.804.175-.085.222-.08.92.111zm-7.11.095c0 .273.184.773.364.987.132.156.36.219.423.116.016-.026-.096-.23-.25-.451-.302-.438-.355-.54-.284-.54.026.001.18.198.344.439.3.44.398.503.431.275.028-.189-.09-.42-.322-.63-.182-.164-.59-.412-.677-.412-.016 0-.03.097-.03.216zm4.832-.123c-.213.116-.086.159.133.045.092-.047.168-.098.168-.112 0-.051-.14-.02-.3.067zm-10.456.261c0 .263.184.724.363.91.14.146.363.207.42.115.014-.022-.108-.222-.27-.443-.268-.366-.34-.5-.27-.5.014 0 .162.185.328.41.167.226.325.41.35.41.076 0 .114-.217.062-.354-.094-.247-.71-.738-.927-.738-.03 0-.056.086-.056.19zm2.331.052c-.49.175-.766.472-.67.721.027.072.106.02.39-.252.196-.188.368-.33.383-.315.016.015-.12.17-.302.343-.182.173-.33.334-.33.356 0 .079.173.105.288.044.316-.17.726-.988.486-.973a2.04 2.04 0 0 0-.245.076zm7.714.1c-.117.19-.271.653-.271.815 0 .055.055.154.122.222l.123.122.035-.163c.019-.09.037-.304.04-.475.005-.17.035-.328.07-.349.046-.028.052.092.023.461-.041.523-.015.584.165.385.079-.088.102-.187.094-.409-.01-.264-.183-.787-.26-.787-.018 0-.08.08-.14.177zm-10.698.072c-.346.15-.549.34-.549.517 0 .089.02.161.043.161.024 0 .164-.123.312-.273.148-.15.294-.273.324-.273.03 0-.088.145-.264.322-.288.292-.307.326-.205.358.172.055.32-.053.5-.368.17-.297.213-.532.096-.528a1.11 1.11 0 0 0-.257.084zm9.935.077c-.07.046-.068.054.014.054.053 0 .096-.024.096-.054 0-.066-.007-.066-.11 0zm-.262.36c-.302.151-.502.357-.502.519 0 .198.117.16.438-.146.429-.41.474-.357.052.06-.18.179-.326.343-.326.367 0 .023.069.042.153.042.102 0 .21-.06.322-.177.18-.191.398-.585.398-.722 0-.126-.212-.104-.535.057zm-3.712.064c-.052.128-.05.647.005.902l.043.205-.235-.164a1.39 1.39 0 0 0-.42-.2l-.187-.037.036.261c.075.544.472 1.178.737 1.176.26-.002.24-.09-.122-.56-.198-.257-.36-.495-.36-.53 0-.109.099-.008.446.452.185.246.346.46.358.473.011.015.044-.01.072-.054.077-.123.062-.37-.033-.515-.082-.124-.08-.13.027-.101.062.016.113.016.113 0s-.074-.238-.164-.494c-.173-.49-.197-.609-.112-.557.028.018.12.24.202.495.083.255.18.463.216.463.036 0 .09-.071.12-.158.07-.2-.101-.598-.4-.928-.224-.248-.284-.271-.341-.13zm-1.54.155c-.355.202-.492.347-.492.52 0 .083.02.164.045.18.025.015.19-.119.367-.298s.346-.325.376-.325c.03 0-.103.16-.296.354-.366.37-.394.511-.087.434.184-.046.513-.521.56-.807.03-.183.021-.2-.098-.199-.072 0-.24.064-.376.14zm11.466-.005c-.103.124-.142.713-.054.82.139.167.179.087.143-.287-.025-.254-.019-.343.019-.287.03.045.055.194.055.33 0 .137.023.272.05.3a.404.404 0 0 1 .07.185c.01.073.045.141.079.152.054.018.117-.103.3-.579.028-.071.064-.117.08-.101.016.015-.034.183-.11.372a5.45 5.45 0 0 0-.14.36c0 .01.048.019.107.019.066 0 .143-.067.197-.172.091-.177.135-.772.062-.845-.022-.023-.133.049-.246.159l-.205.2-.092-.258a1.86 1.86 0 0 0-.165-.36c-.069-.093-.079-.094-.15-.008zm-18.455.584c.024.31.034.573.022.585-.039.04-.197-.394-.267-.731-.065-.313-.063-.332.047-.393.063-.035.124-.055.134-.044.01.01.04.273.064.583zm1.386-.555c-.506.1-.841.35-.841.63 0 .129.104.093.556-.195.457-.29.481-.301.481-.222 0 .027-.21.18-.469.338-.423.26-.46.295-.372.36.054.038.15.07.214.07.217 0 .669-.418.864-.8.08-.155.08-.175.003-.205-.098-.038-.135-.036-.436.024zm4.36.106c-.303.138-.505.345-.505.518 0 .077.02.14.043.14.024 0 .202-.135.395-.298.455-.386.513-.333.067.06-.188.167-.341.324-.341.352 0 .027.076.049.169.049.12 0 .217-.05.332-.174.18-.192.372-.54.372-.67 0-.118-.245-.107-.532.023zm1.952.052a.678.678 0 0 1-.032.15c-.029.091-.024.091.055-.006.099-.121.11-.194.032-.194-.03 0-.055.022-.055.05zm-4.454.2c.052.212.337.654.509.789.138.108.474.148.527.061.016-.025-.127-.173-.317-.328-.375-.304-.512-.445-.432-.445.028 0 .214.136.415.3.2.166.389.301.42.301.106 0 .056-.278-.073-.407-.187-.186-.542-.354-.835-.394l-.254-.035.04.159zm12.317-.087c-.066.042-.01.124.299.436.21.211.356.384.326.384-.03 0-.212-.159-.404-.353-.192-.193-.37-.34-.394-.324-.118.073-.04.343.147.507.36.316.9.508.9.32 0-.156-.325-.74-.488-.876-.189-.16-.258-.176-.386-.094zm-16.272.157c0 .086-.016.275-.036.42l-.036.264-.098-.352c-.09-.326-.091-.357-.008-.42.136-.104.178-.084.178.088zm.272.024c-.001.036.084.348.19.693.104.346.205.795.223.997.023.256.056.37.107.37.122 0 .202.337.142.603-.033.147-.034.272-.002.331.08.151.057.487-.058.813a2.366 2.366 0 0 0-.11.628 1.63 1.63 0 0 1-.075.492l-.07.164-.062-.191a3.293 3.293 0 0 1-.098-.424c-.027-.174-.06-.232-.135-.232-.173 0-.397-.238-.397-.423 0-.156-.008-.163-.13-.108-.115.053-.128.09-.113.336.015.257.027.278.165.294.159.019.37.24.37.388 0 .05-.036.141-.08.204-.073.104-.069.118.056.175.144.066.265.306.217.43-.016.042.024.146.087.233.076.102.107.206.089.298-.015.079-.006.156.02.172.026.016.047.12.048.23 0 .111.049.276.109.366.138.21.137.305-.01.49-.096.124-.106.17-.054.253a.45.45 0 0 1-.067.538c-.096.103-.174.332-.3.877-.248 1.068-.327 1.357-.454 1.652-.106.246-.12.258-.21.176-.156-.142-.311-.566-.38-1.043-.057-.39-.084-.459-.223-.562-.178-.131-.21-.369-.082-.6.091-.166.052-.325-.12-.488-.124-.116-.133-.154-.101-.454.033-.315.028-.333-.13-.465-.129-.11-.163-.182-.163-.348v-.21l-.15.078a.706.706 0 0 1-.213.078c-.04 0-.018.139.065.402.188.591.306 1.29.287 1.704l-.016.364-.363-.333c-.2-.184-.397-.334-.437-.335-.125-.003-.262-.139-.326-.32a.509.509 0 0 0-.204-.25 2.186 2.186 0 0 1-.354-.268c-.115-.107-.262-.21-.327-.23-.065-.019-.223-.136-.35-.259-.196-.188-.233-.258-.233-.437 0-.162-.032-.238-.136-.32a.648.648 0 0 1-.186-.28c-.043-.15-.05-.122-.055.201l-.005.376-.287-.256a4.651 4.651 0 0 0-.464-.367c-.098-.062-.177-.15-.177-.196 0-.094-.305-.61-.41-.697a.407.407 0 0 1-.1-.192.311.311 0 0 0-.157-.19.257.257 0 0 1-.142-.174.362.362 0 0 0-.15-.206c-.186-.122-.167-.25.071-.477.226-.215.504-.296.687-.202.099.051.093.034-.035-.102l-.153-.164.399-.332c.27-.225.41-.31.436-.265.044.08.192.892.224 1.238.044.465-.01.482-.358.117-.172-.18-.312-.301-.312-.27 0 .033.061.116.136.185.075.07.137.171.137.225 0 .054.074.14.164.191.09.052.163.133.163.18 0 .048.062.142.137.208.075.066.144.17.153.23.01.06.068.19.129.288.096.154.121.167.18.097.055-.067.046-.109-.047-.227a.527.527 0 0 1-.006-.638.508.508 0 0 0 .11-.244c0-.059-.05-.15-.11-.205-.15-.137-.145-.459.012-.659a.453.453 0 0 0 .106-.306c-.01-.09.046-.263.136-.424.141-.25.147-.286.082-.466-.038-.107-.054-.244-.034-.305.019-.062.31-.296.645-.52.545-.366.615-.4.664-.313.03.053.144.189.253.302.146.151.243.205.369.205.246 0 .21-.078-.129-.283-.164-.1-.3-.202-.3-.228-.001-.026.064-.005.144.048.511.335.635.362.523.115-.06-.13-.456-.307-.69-.307-.108 0-.107-.004.012-.087.117-.082.235-.08.47.01.071.028.085 0 .073-.146-.013-.163.01-.195.218-.311l.232-.13.168.14c.178.15.363.217.519.187.203-.04.12-.141-.195-.236-.18-.055-.329-.12-.329-.142 0-.024.149.007.33.069.183.061.343.1.357.086.065-.065-.06-.206-.234-.263-.142-.047-.173-.077-.118-.111.13-.083.266-.054.405.085.166.166.174.403.018.57l-.115.123.143.15c.163.17.195.495.06.607-.045.037-.082.133-.082.214 0 .08-.028.175-.064.21-.049.05-.043.088.028.166.05.056.092.136.093.179.001.058.02.054.074-.018.108-.143.135-.12.153.136.022.302.156.34.242.068.057-.185.052-.2-.09-.273a.473.473 0 0 1-.215-.552 1.68 1.68 0 0 1 .193-.322c.143-.188.25-.65.33-1.414.02-.197.057-.345.083-.329.026.016.047.058.046.094zm2.267.057c-.331.155-.423.257-.4.447l.018.144.373-.282c.205-.156.384-.272.398-.258.014.014-.135.154-.332.31-.197.157-.344.308-.327.335.053.086.277.054.421-.06.16-.126.477-.585.477-.692 0-.115-.323-.086-.628.056zm5.601.34c-.063.142-.102.271-.087.286.015.015.079-.09.142-.231.063-.143.102-.272.087-.287-.015-.015-.08.09-.142.232zm-4.892-.138c-.03.047.022.136.28.48.008.011.04.004.073-.016.038-.024-.004-.124-.115-.279-.192-.268-.189-.265-.238-.185zm15.546.118a1.895 1.895 0 0 0-.182.47c-.058.252-.054.294.035.392.157.174.191.134.195-.231.002-.188.027-.391.056-.451.035-.074.042.038.022.341-.03.46-.001.527.16.365.144-.144.087-.726-.096-.975-.068-.095-.08-.089-.19.089zm-3.523-.084c-.073.073-.028.12.4.4.375.247.52.383.408.383a4.9 4.9 0 0 1-.457-.3c-.236-.166-.444-.301-.463-.301-.091 0-.02.321.095.43.256.24 1.127.455 1.127.278 0-.137-.229-.486-.458-.697-.19-.175-.293-.23-.432-.23-.101 0-.2.017-.22.037zm6.953.413c.45.242 1.638.99 1.638 1.032 0 .02-.21.066-.466.103-.424.06-.472.08-.545.22-.043.083-.11.165-.148.181-.05.02-.038.049.037.096.074.047.406.064 1.12.059l1.012-.007-.755.25c-.612.204-.765.275-.814.381-.066.146-.326.24-.669.24-.12 0-.34.059-.491.13-.15.072-.451.196-.667.277-.262.098-.405.183-.428.254-.053.17-.264.274-.525.262-.318-.014-.62.121-.726.328-.101.196-.236.279-.455.279-.115 0-.175.036-.22.133-.103.23-.304.322-.607.282-.255-.034-.28-.025-.521.184-.143.124-.31.22-.384.22-.145 0-.205.07-.225.262-.042.393-.409.586-.799.422-.075-.032-.096-.013-.096.089 0 .192-.195.476-.356.516a1.02 1.02 0 0 1-.338.003.494.494 0 0 0-.565.33c-.092.28-.303.416-.585.378-.21-.028-.239-.018-.283.097a.731.731 0 0 1-.202.25c-.122.095-.193.112-.346.082-.547-.107-1.013-.003-2.785.623-1.831.648-2.37.917-4.068 2.026-.96.628-1.385.876-1.5.876-.163 0 .042-.51.44-1.097.562-.831 1.316-1.436 2.589-2.08 1.257-.634 2.648-1.467 2.648-1.585 0-.052.063-.157.14-.234.11-.11.192-.139.407-.139.232 0 .294-.025.452-.183.148-.148.243-.191.488-.222.268-.034.313-.057.37-.195.105-.254.25-.349.541-.355.278-.007.551-.14.551-.271 0-.134.274-.303.49-.303.174 0 .335-.097 1.124-.68 1.532-1.13 1.877-1.285 3.13-1.403.495-.047.74-.095.869-.172.14-.083.233-.098.423-.07.144.022.243.016.243-.015 0-.08.16-.124.264-.072.056.028.144.017.228-.027l.136-.072-.128-.001c-.07 0-.196-.073-.28-.163-.146-.157-.168-.162-.717-.178l-.567-.015.23-.164c.188-.134.23-.196.232-.341.003-.275.177-.416.472-.382.132.015.24.005.24-.021 0-.104.226-.267.372-.267.107 0 .19-.05.275-.165.115-.155.143-.165.461-.156.259.007.41.047.639.17zm-15.901.074c-.274.085-.426.243-.426.445 0 .068.01.124.024.124.013 0 .258-.109.545-.242.287-.133.535-.221.55-.196.027.043-.138.131-.835.448-.185.084-.223.123-.175.18.177.213.562.103.99-.284.19-.171.376-.435.376-.531 0-.063-.803-.02-1.049.056zm7.889-.042c-.047.03.041.15.286.394.195.193.354.372.354.398 0 .025-.178-.114-.395-.31-.37-.336-.398-.351-.44-.24-.052.142.077.338.342.518.15.102.164.128.086.158-.076.03-.018.112.306.438.22.221.374.402.344.402-.03 0-.213-.16-.406-.355-.368-.37-.437-.413-.437-.267 0 .064-.062.033-.217-.107-.242-.22-.708-.473-.867-.473a.467.467 0 0 0-.234.105l-.13.105.137.052c.075.029.315.11.533.18.217.069.396.146.396.17 0 .067-.052.056-.573-.12-.266-.09-.497-.15-.514-.133-.053.053.13.32.27.394.09.047.305.065.653.055l.519-.016.158.182c.182.206.62.447.817.447.096 0 .142.038.167.14.054.214.14.137.3-.267.08-.203.161-.354.18-.336.017.018-.027.179-.099.356a2.427 2.427 0 0 0-.131.379c0 .092.14.062.244-.052.118-.13.19-.838.09-.899-.087-.054-.277.095-.45.352l-.15.222-.147-.33c-.08-.18-.181-.356-.222-.39-.103-.086-.094-.148.02-.139.132.01.1-.19-.084-.53-.224-.414-.508-.609-.706-.483zm7.11.011c-.019.031.095.117.256.192.16.075.23.12.154.102a1.688 1.688 0 0 1-.283-.11c-.187-.095-.208-.095-.208.007 0 .046.062.112.137.146.075.034.136.078.136.097 0 .069-.16.247-.162.18-.003-.121-.418-.356-.554-.312-.12.038-.121.04-.018.12.103.08.102.081-.017.053-.133-.031-.166.06-.06.165a.155.155 0 0 1 .026.152c-.03.08-.054.074-.198-.047-.205-.173-.353-.221-.473-.154-.077.043-.043.073.192.174.156.068.275.133.263.144-.011.012-.138-.029-.282-.09-.28-.12-.321-.119-.27.015.039.101.302.203.524.203.127 0 .156.024.156.13 0 .128.138.296.195.239.016-.017.044-.168.061-.336s.052-.306.077-.306c.024 0 .03.163.01.361-.032.354-.03.36.08.301.131-.07.199-.31.147-.519-.027-.107-.016-.143.046-.143.064 0 .077.046.055.209-.021.156-.003.234.073.31.1.1.103.095.147-.195.066-.44.094-.558.123-.53.015.015.006.203-.02.417-.048.404-.002.494.155.305.071-.087.086-.54.024-.737-.026-.083-.009-.107.079-.107.062 0 .113-.014.113-.03 0-.093-.13-.247-.293-.347-.202-.125-.337-.145-.39-.059zm-18.311.074c-.245.089-.608.399-.608.52 0 .185.072.166.383-.105.43-.371.475-.342.083.054-.27.273-.307.332-.226.363.139.053.362-.133.537-.447.241-.436.204-.52-.17-.385zm.671.065c-.3.148-.515.385-.515.567 0 .092.021.167.047.167.025 0 .175-.149.333-.33.158-.182.3-.318.316-.303.016.016-.098.174-.252.352s-.28.338-.28.357c0 .018.072.033.16.033.178 0 .312-.15.491-.554.058-.13.108-.194.11-.14.005.133.256.62.387.75.109.109.35.147.402.063.015-.024-.121-.21-.303-.412-.183-.202-.316-.383-.297-.402.032-.032.55.507.65.677.068.115.147.031.147-.156 0-.204-.253-.463-.622-.637-.292-.137-.54-.148-.774-.032zm-1.956.079c-.415.162-.609.387-.53.615.029.08.098.048.455-.21.232-.169.448-.297.481-.286.033.01-.142.164-.389.341-.411.295-.44.328-.348.395a.38.38 0 0 0 .147.073c.11 0 .365-.172.525-.354.15-.172.39-.573.39-.654 0-.07-.485-.016-.73.08zm6.005-.049c-.329.078-.565.248-.606.437-.02.091-.021.181-.002.2.02.02.252-.08.517-.222.265-.141.51-.257.543-.257.16 0 .02.106-.459.344-.525.26-.574.326-.317.424.171.065.418-.035.701-.283.256-.225.528-.59.488-.656-.038-.06-.584-.052-.865.013zm-9.26.199c0 .11.153.369.32.543l.115.12-.199.016-.198.017.15.18c.193.227.334.304.446.24.07-.038.039-.076-.164-.195-.138-.081-.251-.16-.251-.178 0-.016.112.036.25.117.272.16.338.154.243-.022-.049-.093-.045-.114.023-.114.177 0 .048-.147-.513-.586-.047-.037-.058-.067-.023-.068.034-.001.2.112.37.252.325.268.413.276.329.032-.036-.103-.144-.196-.348-.3-.346-.175-.55-.195-.55-.054zm23.98-.024c-.11.133-.28.556-.28.703-.001.08.041.19.094.242.091.09.097.088.13-.065.019-.088.037-.263.041-.389.004-.126.033-.245.064-.264.054-.033.028.53-.033.726-.027.087.097.088.183.002.093-.093.081-.673-.018-.866-.095-.184-.1-.186-.18-.09zm-5.351.16c-.165.268-.251.66-.176.8.112.21.221.141.228-.144.004-.143.028-.333.053-.423.031-.11.038-.015.022.286-.013.248-.003.451.021.451.11 0 .225-.215.225-.418 0-.239-.147-.73-.219-.73-.024 0-.094.08-.154.178zm-1.282.077c-.02.02.117.146.305.281.416.3.391.279.36.311-.016.015-.186-.085-.379-.221-.328-.232-.352-.24-.369-.13-.024.157.182.366.438.443l.208.062-.133.176c-.162.212-.215.407-.14.517.05.071.069.068.142-.027a3.14 3.14 0 0 0 .221-.374c.075-.146.148-.253.163-.238.015.015-.048.177-.14.36-.192.379-.205.459-.074.433.153-.03.334-.356.373-.672l.037-.294-.327-.331c-.253-.257-.364-.332-.488-.332-.089 0-.178.016-.197.036zm-15.593.206c-.215.158-.443.456-.443.577 0 .049.029.117.064.153.05.05.108-.011.251-.266.103-.182.2-.318.215-.303.015.015-.049.161-.142.325-.202.353-.206.378-.05.355.066-.01.166-.096.222-.193.112-.192.197-.78.113-.78-.028 0-.132.06-.23.132zm11.495.13c-.015.023.12.164.3.313.388.32.524.463.441.463-.033 0-.23-.148-.44-.328-.208-.18-.394-.328-.412-.328-.018 0-.033.076-.033.17 0 .221.238.444.633.592.531.199.615.136.403-.301-.176-.363-.46-.625-.68-.625-.102 0-.197.02-.212.043zm-9.751.134c-.304.147-.713.534-.712.673 0 .058.025.142.056.187.044.067.124.006.43-.328.208-.225.394-.392.416-.37.021.02-.124.216-.323.434s-.362.416-.362.44c0 .023.085.043.188.043.15 0 .22-.041.356-.205.173-.21.385-.7.385-.89 0-.139-.125-.134-.434.016zm6.329.188c-.127.612.089 1.273.416 1.273h.122l-.184-.585c-.1-.322-.172-.597-.157-.611.054-.054.127.091.242.484.204.691.203.688.329.574.149-.135.136-.384-.037-.731-.148-.299-.503-.715-.608-.715-.032 0-.088.14-.123.311zm-4.202.003c0 .113.062.336.136.497.075.16.136.301.136.313 0 .011-.063-.004-.14-.033-.236-.09-.259-.071-.219.178.056.352.3.845.506 1.027.184.162.416.213.483.106.019-.032-.142-.267-.358-.523-.215-.256-.375-.483-.355-.503.038-.038.167.094.638.647l.254.298.038-.15c.052-.2.002-.375-.153-.543-.1-.107-.113-.15-.058-.187.052-.036-.026-.166-.308-.513-.208-.255-.38-.482-.38-.505-.006-.117.126.005.463.43.346.438.378.464.448.369.182-.25-.152-.692-.76-1.008-.306-.158-.372-.14-.371.1zm-7.473-.092c-.29.116-.445.272-.445.448v.171l.205-.191c.345-.323.438-.36.153-.061-.28.292-.296.377-.064.319.148-.038.32-.249.445-.55.08-.19.078-.194-.042-.19a.884.884 0 0 0-.252.054zm6.135.125c-.332.154-.423.257-.4.446l.017.145.369-.28c.203-.154.369-.258.369-.231 0 .027-.148.164-.329.306-.18.142-.314.281-.297.309.048.078.26.06.394-.034.14-.098.418-.49.473-.667.035-.11.02-.123-.142-.122-.1 0-.304.058-.454.128zm-5.488-.004c0 .212.504.604.742.576.262-.031.202-.135-.167-.292-.196-.084-.357-.173-.357-.198 0-.025.142.018.314.096.393.178.505.21.505.149 0-.121-.184-.292-.37-.344-.29-.08-.667-.073-.667.013zm24.606.16c-.083.09-.15.106-.36.085-.157-.015-.296.002-.351.043-.082.06-.073.073.082.128.294.102.529.074.731-.088.14-.112.172-.165.127-.218-.075-.091-.105-.085-.229.05zm-23.405-.012c0 .03.026.055.058.055s.043-.025.024-.055c-.019-.03-.044-.054-.058-.054-.013 0-.024.024-.024.054zm8.083.107c-.165.057-.343.157-.396.223-.11.135-.13.38-.033.38.035 0 .27-.111.524-.248.253-.137.5-.24.55-.23.052.012-.15.143-.469.305-.308.156-.56.305-.56.331 0 .026.074.078.164.116.132.055.198.054.341-.005.302-.123.915-.76.915-.949 0-.074-.762-.017-1.036.077zm-6.037.1c-.275.199-.42.414-.397.59.027.215.113.166.29-.162.09-.168.184-.305.21-.306.024 0-.043.156-.15.347-.196.351-.206.437-.041.375.052-.02.015.052-.087.17-.184.21-.269.425-.207.524.069.112.133.055.307-.27.229-.43.271-.384.05.055-.095.186-.16.35-.145.366.068.067.252-.06.333-.231.13-.275.178-.736.076-.736-.043 0-.11.03-.147.068-.038.038-.017-.049.046-.192a1.08 1.08 0 0 0 .099-.51l-.017-.249-.22.16zm-4.8.386c-.071.249-.14.464-.155.478-.022.023-.071-.08-.24-.505-.022-.056.466-.482.506-.442.009.009-.042.22-.112.469zm17.198-.431c-.017.028-.016.114.003.19.032.126.045.131.143.062a.926.926 0 0 0 .189-.19c.076-.11.072-.114-.111-.114-.105 0-.206.023-.224.052zm-14.528.115c-.087.14.542.578.74.515.18-.057.1-.149-.236-.27-.171-.061-.31-.13-.31-.152 0-.022.16.02.354.093.346.13.424.113.31-.068-.094-.148-.78-.243-.858-.118zm23.729.023c-.056.067-.041.09.088.139.53.196.62.236.62.275 0 .024-.151-.017-.337-.09a2.432 2.432 0 0 0-.405-.132c-.135 0-.002.232.175.307.215.09.764.1.816.016.082-.133-.528-.596-.786-.596a.255.255 0 0 0-.172.08zm-8.727.04c-.113.112-.076.135.346.207.226.039.424.091.44.117.045.073-.064.06-.729-.091-.095-.022-.123-.004-.123.08 0 .152.162.221.514.221h.302l-.103.178a2.026 2.026 0 0 0-.165.414c-.053.199-.048.259.025.37.11.168.192.123.193-.104 0-.25.061-.584.105-.584.021 0 .017.175-.008.39-.026.214-.034.402-.018.418.016.016.078-.016.138-.07.133-.121.145-.49.026-.82-.096-.267-.096-.246-.002-.246.129 0 .158-.109.058-.219-.229-.253-.846-.415-.999-.262zm-2.673.05a.252.252 0 0 0-.068.147c0 .063.074.07.404.04.268-.026.416-.019.44.02.024.04-.104.059-.404.059-.242 0-.44.02-.44.046s.048.09.108.144c.084.076.158.09.332.062.23-.037.62-.21.675-.3.098-.158-.903-.367-1.047-.219zm10.143.13c-.057.068-.039.094.116.159.546.23.724.32.67.34-.032.013-.225-.052-.428-.143-.202-.091-.402-.165-.443-.165-.041 0-.101-.05-.133-.11-.079-.146-.134-.137-.212.034-.061.134-.072.138-.163.055-.104-.094-.445-.123-.445-.039 0 .028.104.137.231.243.128.105.213.21.19.233-.022.023-.147-.064-.278-.192-.204-.2-.24-.218-.264-.13-.045.174.048.32.308.485.141.09.25.2.25.254 0 .106.185.314.28.314.04 0 .05-.06.029-.164-.019-.093-.01-.164.02-.164s.053.061.053.137c0 .153.113.181.219.054.044-.053.06-.189.043-.382a5.06 5.06 0 0 1-.02-.3l.272.082c.29.088.62.105.727.037.183-.116-.493-.72-.806-.72-.082 0-.179.036-.216.081zm-24.435.08c-.198.131-.465.478-.465.605 0 .051.033.12.072.153.056.046.117-.02.28-.297.114-.195.22-.343.234-.329.058.058-.33.639-.534.8-.213.169-.315.373-.244.488.022.035.175-.063.389-.25.194-.171.365-.297.38-.282.016.016-.122.165-.307.332-.33.299-.373.42-.15.42.2 0 .543-.44.67-.86.03-.098.015-.123-.07-.123-.1 0-.101-.013-.033-.205.094-.264.1-.56.01-.56a.667.667 0 0 0-.232.109zm.9.008c0 .033.096.156.212.273l.212.212h-.208c-.115 0-.278.027-.362.06l-.154.059.215.187c.252.22.598.343.729.26.17-.107.12-.166-.191-.235-.327-.072-.547-.162-.406-.166.04 0 .222.037.402.084.18.047.34.073.354.06.014-.015-.002-.078-.035-.14-.041-.076-.043-.114-.005-.114.157 0 .021-.159-.25-.292-.17-.083-.293-.164-.277-.181.017-.017.172.046.344.139.172.093.323.159.336.146.066-.066-.076-.27-.236-.336-.222-.093-.68-.104-.68-.016zm15.599-.024c-.039.038.171.29.241.29.023 0 .013-.073-.021-.163-.06-.158-.142-.206-.22-.127zM38.7 6.99a2.373 2.373 0 0 0-.318.231l-.128.118.04-.159c.04-.158.04-.159-.169-.125-.252.041-.658.284-.806.484-.077.104-.097.187-.07.295l.038.15.377-.374c.208-.206.39-.362.405-.347.015.015-.132.185-.326.378-.194.192-.353.37-.353.393 0 .023.083.042.185.042.143 0 .223-.043.35-.187.09-.104.183-.245.205-.314l.04-.125.05.135c.051.135.054.133.351-.184.165-.176.312-.307.327-.292.016.016-.099.169-.254.34-.282.312-.296.433-.044.368.184-.049.537-.637.537-.895 0-.087-.242-.05-.437.068zm9.032 0c-.15.166-.475.318-.763.358-.205.028-.246.052-.225.131.026.102-.166.316-.39.431-.07.036-.115.079-.1.094.016.016.32-.095.674-.247.355-.151.713-.292.796-.312.087-.021.15-.073.15-.126 0-.05.049-.17.108-.267l.108-.178h-.127a.368.368 0 0 0-.231.115zm14.012.397c.336.282.614.532.618.555.005.024-.077.071-.182.106-.144.049-.195.1-.208.206-.027.228-.14.287-.397.21-.209-.063-.238-.056-.572.13-.194.109-.352.23-.352.271 0 .08-.116.14-.267.14-.192 0-1.936 1.25-1.986 1.424-.014.048-.127.14-.25.204-.193.1-.356.123-1.127.155-.787.032-.893.047-.834.117.055.067.194.076.79.053l.722-.027-.438.468c-.24.257-.63.752-.865 1.099-.458.676-.884 1.122-1.13 1.184-.25.063-1.199-.077-1.727-.254-.535-.18-1.322-.568-1.919-.947l-.376-.239.273-.212c.498-.387.912-.668 1.212-.824.231-.12.309-.195.359-.344.084-.25.376-.452.615-.425.166.02.177.01.177-.147 0-.457.603-.733.938-.43.093.085.1.083.1-.022 0-.061.073-.19.163-.287.145-.155.19-.172.396-.151.128.013.275.042.328.066.075.033.095.016.095-.078 0-.067.087-.207.192-.312.169-.17.215-.188.396-.162.488.072.46.08.527-.154.11-.387.439-.528.892-.383.091.03.123.018.123-.044 0-.047.063-.16.14-.25.175-.21.428-.263.7-.15.256.108.47.03.47-.17 0-.163.26-.433.467-.485.11-.027.22-.003.388.086.26.139.401.119.401-.056 0-.14.298-.434.44-.434.054 0 .373.231.708.513zm-13.518-.344c-.02.033-.016.077.01.1.059.048.64.512.67.534.013.01.009.031-.008.049-.018.017-.191-.094-.386-.246-.194-.153-.37-.278-.39-.278-.02 0-.03.08-.02.178.016.16.055.196.407.372l.39.195-.16.106c-.2.13-.483.547-.483.709 0 .066.033.148.074.181.059.05.11-.017.255-.332.1-.217.19-.37.2-.338.01.03-.053.214-.14.408-.139.302-.149.354-.073.37.141.033.329-.236.366-.523.018-.143.055-.298.083-.343l.219-.374c.093-.16.183-.279.2-.262.016.016-.058.172-.165.347-.192.313-.197.436-.016.366.145-.055.307-.427.307-.705 0-.241-.004-.247-.123-.186a1.391 1.391 0 0 0-.245.175c-.067.061-.13.101-.139.089l-.174-.26c-.213-.317-.56-.493-.66-.332zm-13.977.255c-.05.371-.172.788-.268.915-.081.107-.083.107-.084-.023-.003-.227-.068-.078-.078.18-.006.134.022.288.06.341.095.13.089.298-.015.446-.079.113-.076.133.032.27.095.122.11.193.082.383-.028.185-.019.233.046.233.115 0 .308.263.308.42 0 .073.02.12.045.104.064-.039.01-.37-.075-.47a.492.492 0 0 1-.064-.526c.096-.19.16-.771.09-.815-.152-.093.034-.59.324-.865l.167-.159-.106-.134c-.08-.101-.092-.16-.051-.236.046-.086.021-.119-.162-.212l-.216-.11-.035.258zm16.428-.11c-.154.167-.346.516-.346.63 0 .04.035.121.078.18.065.087.083.091.107.024.19-.53.267-.714.29-.69.015.015-.027.19-.093.39-.066.198-.108.374-.092.39.062.061.248-.098.305-.261.065-.188.08-.588.027-.726-.047-.124-.116-.108-.276.063zm10.334-.104c-.015.025.109.236.276.468.167.231.29.436.27.454-.039.04-.008.076-.356-.408-.157-.218-.308-.396-.335-.396-.096 0-.114.263-.03.427.105.202.49.524.761.638l.2.084v-.19c0-.27-.208-.794-.386-.972-.147-.146-.342-.198-.4-.105zm-4.565.272c0 .07-.024.11-.054.092-.03-.019-.054-.112-.054-.208 0-.133.014-.155.054-.093a.46.46 0 0 1 .054.209zm-1.965-.165c0 .025.086.128.19.23.106.102.192.216.192.255 0 .038-.101-.04-.225-.174-.235-.255-.321-.27-.321-.058 0 .08.09.21.246.353.226.209.245.248.245.49 0 .186.03.29.1.354.17.155.211.109.185-.21-.017-.2-.005-.3.036-.3.038 0 .062.116.062.307 0 .306 0 .307.122.226.203-.134.197-.524-.013-.951-.094-.191-.202-.347-.24-.347-.04 0-.115-.05-.17-.11-.095-.105-.41-.155-.41-.065zm-9.215.092c-.067.049-.123.132-.123.184 0 .084.059.092.56.075.4-.013.536-.002.478.038-.045.032-.297.058-.56.058-.384 0-.478.017-.478.082 0 .154.255.264.526.227.266-.036.634-.185.812-.33l.11-.087-.11-.068c-.357-.224-1.02-.321-1.215-.18zm-10.279.061c-.184.08-.187.087-.084.163.18.133.522.204.667.138.216-.099.141-.164-.214-.184l-.342-.02.34-.01c.277-.008.334-.026.308-.092-.041-.109-.421-.105-.675.005zm7.808.13c-.514.09-.883.355-.799.576.027.068.12.04.524-.164.533-.268.548-.273.548-.193 0 .03-.223.166-.495.303-.415.209-.486.262-.43.329.211.255.93-.153 1.228-.7.076-.138.075-.15-.015-.15a1.18 1.18 0 0 1-.206-.023 1.342 1.342 0 0 0-.355.022zm16.982.035c0 .018.123.236.273.485.284.47.305.52.225.52-.027 0-.168-.21-.314-.465s-.285-.464-.308-.464c-.09 0-.155.248-.103.387.107.281.672.814.864.814.19 0 .01-.94-.233-1.208-.085-.094-.404-.149-.404-.07zm-24.814.346c-.195.128-.468.526-.467.68.001.126.087.291.13.248.015-.014.103-.196.195-.402.093-.206.182-.362.198-.346.016.016-.046.195-.138.398a5.926 5.926 0 0 0-.167.388c0 .011.05.02.11.02.065 0 .153-.07.213-.17.117-.192.198-.715.13-.837-.04-.072-.066-.069-.204.021zm18.407.048c-.05.055-.09.136-.09.18 0 .045-.053.19-.116.321l-.116.24-.108-.149c-.143-.196-.403-.327-.567-.286-.072.018-.13.051-.13.073.002.022.173.163.381.313.333.24.448.355.354.355-.015 0-.197-.123-.403-.273-.207-.15-.39-.273-.409-.273-.018 0-.033.061-.033.136 0 .134.107.274.294.383.086.05.087.073.01.29-.142.4-.167.754-.064.91.05.076.13.138.179.138.078 0 .084-.06.054-.491-.02-.275-.014-.492.013-.492.026 0 .066.221.087.492.021.27.057.491.08.491.021 0 .084-.049.138-.108.12-.132.087-.48-.08-.858-.092-.208-.096-.242-.024-.214a.495.495 0 0 0 .136.033c.028 0 .05.05.05.11 0 .115.18.327.277.327.04 0 .045-.168.019-.527-.029-.391-.023-.517.024-.489.035.022.066.189.07.377.003.186.021.412.04.502l.035.163.13-.129c.11-.11.123-.163.095-.373a2.165 2.165 0 0 0-.139-.482l-.105-.238.228.103c.125.056.27.116.323.132.063.02.096.084.096.195 0 .16.159.384.274.384.036 0 .043-.181.018-.528-.027-.394-.02-.518.026-.488.038.023.065.197.067.432.003.216.023.44.045.496.037.095.05.091.163-.052.1-.127.116-.196.087-.377-.04-.253-.299-.806-.38-.816-.03-.003-.106.1-.168.231l-.114.237-.095-.145c-.236-.36-.473-.454-.652-.256zm-14.397.178c0 .207.288.78.448.893.14.098.202.104.314.034.064-.04.011-.128-.263-.437-.189-.212-.31-.384-.27-.382.039.002.207.162.372.356.238.28.31.336.352.273.043-.065.095-.04.286.136.233.214.406.263.563.158.073-.048.072-.062-.003-.122l-.428-.339c-.189-.149-.317-.28-.286-.29.032-.01.227.117.434.285.208.167.393.304.412.304.02 0 .035-.075.035-.166a.405.405 0 0 0-.143-.3c-.17-.157-.669-.353-.9-.353-.142 0-.16.016-.13.11.03.098.006.092-.202-.054a1.755 1.755 0 0 0-.413-.217c-.172-.048-.178-.045-.178.111zm8.745-.096c-.268.322-.312 1.074-.063 1.074.022 0 .062-.202.088-.45l.047-.45.028.463.028.465.13-.13c.113-.113.124-.161.093-.398-.036-.272-.183-.647-.253-.647-.021 0-.065.033-.098.073zm6.024.176c.15.133.247.243.217.243s-.177-.11-.326-.243c-.15-.134-.247-.244-.217-.244s.177.11.326.244zm-20.994-.116c0 .102.136.268.339.415.123.09.19.163.147.163-.042 0-.17.026-.286.058-.206.058-.208.06-.11.17.238.262.705.397.834.24.08-.095.043-.118-.268-.168a1.218 1.218 0 0 1-.328-.092c-.059-.037-.039-.042.068-.02.083.018.264.048.402.067.245.033.25.03.19-.083-.035-.065-.1-.118-.143-.118-.094 0-.104-.064-.023-.145.04-.04-.045-.101-.28-.203-.186-.081-.326-.159-.312-.173.015-.015.166.035.337.11.361.16.361.16.361.064 0-.157-.211-.266-.57-.295-.197-.016-.358-.011-.358.01zm25.608.114c-.083.101-.127.065.466.382.566.303.546.29.506.33-.017.018-.279-.093-.582-.246-.54-.27-.552-.274-.552-.147 0 .2.194.4.478.495.339.112.735.164.911.12.136-.035.138-.042.06-.192-.297-.576-1.06-1.015-1.287-.742zm-28.707.087c-.263.169-.232.267.086.267.257 0 .513-.115.434-.195-.023-.023-.142-.01-.265.026-.123.037-.235.057-.248.044-.013-.013.088-.055.224-.093s.247-.09.247-.117c0-.089-.3-.046-.477.068zm8.314.013c-.332.155-.423.257-.4.448l.018.145.37-.286c.203-.158.382-.274.398-.259.015.016-.133.156-.33.31-.198.156-.345.307-.328.336.049.077.232.063.374-.03.147-.097.44-.492.495-.67.034-.11.02-.122-.143-.122-.1 0-.304.058-.454.128zm25.014.415c-.229.262-.316.646-.174.764.063.052.087.015.136-.215.033-.153.06-.314.06-.357 0-.044.026-.08.058-.08s.045.043.03.096c-.075.244-.144.632-.118.658.016.016.08-.018.143-.074.095-.087.11-.155.096-.417l-.018-.313.205.2c.112.11.205.228.205.262s.064.092.142.127c.12.055.137.09.107.214-.02.082-.05.278-.068.437-.025.23-.012.31.066.396.053.06.118.108.143.108.026 0 .051-.203.058-.45l.01-.452.02.451c.013.33.037.45.09.45.112 0 .185-.116.205-.325l.018-.188.363.434.363.435-.745.034c-1.466.066-2.167.309-5.113 1.769-2.136 1.058-2.816 1.316-2.9 1.098-.076-.199.625-1.185 1.538-2.164.238-.255.482-.559.54-.674.1-.195.12-.208.294-.18.288.047.66-.074.748-.241a.834.834 0 0 1 .164-.217c.083-.07.074-.082-.092-.138l-.183-.063.382-.245c.21-.135.568-.347.795-.47.228-.125.459-.276.514-.338a.351.351 0 0 1 .22-.11c.111 0 .806-.387 1.155-.644l.155-.115.232.226c.2.195.22.237.156.31zm-16.876-.437c-.017.028.14.19.352.36.21.171.383.32.383.332 0 .07-.143-.011-.42-.241-.447-.37-.453-.373-.453-.18 0 .11.05.211.15.304.159.148.65.357.84.357.086 0 .104.023.075.095-.081.201-.096.506-.029.587.121.146.157.09.196-.301.02-.211.061-.398.09-.416.05-.03.015.478-.047.704-.016.057.003.095.048.095.14 0 .205-.13.205-.412 0-.512-.18-.79-.33-.51-.058.106-.07.096-.187-.156-.17-.368-.478-.67-.682-.67-.088 0-.174.023-.191.052zm-16.092.348c-.319.16-.312.278.016.3.184.012.279-.01.349-.08.122-.122.038-.152-.227-.078-.112.03-.215.046-.228.033-.013-.013.09-.052.229-.087.139-.035.252-.083.252-.106 0-.1-.172-.093-.391.018zm2.216.006c-.197.085-.55.384-.629.533-.058.108-.02.318.058.318.026 0 .177-.162.337-.359.16-.197.3-.333.31-.301.01.032-.11.206-.268.388-.224.257-.272.344-.22.395.169.17.6-.36.691-.847.043-.231.002-.25-.279-.127zm25.32.127c.068.113.205.327.304.477.187.281.215.356.134.356-.025 0-.177-.21-.336-.466-.16-.256-.317-.457-.35-.446-.032.01-.066.106-.075.212-.013.15.024.247.172.44.183.24.186.25.076.298-.103.046-.084.073.224.315.186.146.325.277.31.292-.015.015-.173-.086-.35-.226-.266-.21-.329-.238-.357-.165-.052.135.1.321.365.45.217.105.586.159.586.085 0-.057-.177-.38-.266-.484-.083-.099-.082-.103.02-.064.194.072.219.062.237-.095.023-.205-.178-.856-.321-1.039-.085-.108-.163-.145-.306-.145h-.192l.124.205zm-28.104.497c.142.25.247.466.234.479-.012.012-.18-.102-.37-.255a6.337 6.337 0 0 0-.5-.368l-.151-.09.2-.205c.232-.238.185-.273.587.439zm5.84-.533a.578.578 0 0 0-.24.131c-.057.07-.037.095.129.164.25.105.549.105.636 0 .06-.07.023-.083-.28-.092l-.348-.01.314-.02c.217-.013.314-.042.314-.093 0-.137-.216-.17-.525-.08zm15.895.18c-.095.07-.07.093.331.298.508.26.476.301-.048.063-.426-.193-.418-.192-.418-.063 0 .132.15.263.355.312.24.058.244.064.147.257-.049.098-.099.344-.11.548-.019.3-.004.392.074.478.184.204.218.134.189-.39-.015-.273-.012-.506.006-.518.042-.025.103.403.103.722 0 .253.087.315.22.155.103-.124.03-.64-.13-.929l-.137-.244h.187c.24 0 .243-.096.016-.356-.156-.177-.515-.409-.635-.409a.395.395 0 0 0-.15.076zm-20.871.174c-.128.076-.232.16-.232.185 0 .125.47.152.629.036.089-.066.094-.097.039-.219-.081-.177-.144-.177-.436-.002zm31.765.037c-.132.217-.24.529-.197.571.017.018-.073.098-.2.178-.352.225-.585.518-.585.738 0 .103.022.2.049.217.027.016.164-.154.304-.38.14-.225.28-.409.31-.409.06 0 .063-.007-.264.501-.13.2-.235.38-.235.396 0 .074.263.024.343-.065.114-.126.31-.558.31-.687a.925.925 0 0 1 .079-.273 3.08 3.08 0 0 0 .143-.462c.036-.16.076-.279.09-.265.043.043-.097.708-.206.974-.079.194-.091.29-.05.396.028.078.075.14.104.14.028 0 .119-.178.202-.395.15-.395.24-.559.24-.438 0 .034-.073.253-.163.487-.09.235-.164.434-.164.445 0 .073.254-.043.337-.154.112-.151.193-.766.132-1.009-.036-.142-.04-.144-.171-.059l-.134.088v-.27c0-.473-.093-.562-.274-.265zm-27.352.191c-.264.256-.374.48-.312.642.058.152.136.084.344-.303.115-.211.217-.359.227-.327.01.031-.069.214-.176.407-.227.405-.23.414-.096.414.215 0 .446-.437.446-.845 0-.325-.087-.322-.433.012zm3.608-.155c-.364.126-.514.268-.49.464l.018.147.245-.155c.548-.345.656-.403.656-.35 0 .03-.186.171-.413.313-.366.228-.404.267-.333.339.12.12.33.044.617-.22.234-.216.402-.46.402-.585 0-.09-.38-.064-.702.047zm-7.813.037c-.133.042-.252.065-.265.052-.028-.027.307-.129.425-.128.045 0-.027.034-.16.076zm14.263-.024c-.117.06-.217.245-.162.3.022.022.466-.075.816-.178.053-.015.096-.003.096.027s-.198.1-.439.154c-.327.074-.434.12-.422.18.01.052.09.089.215.1.35.029 1.028-.394.877-.546-.086-.085-.831-.113-.981-.037zm16.353.095c-.196.232-.283.515-.206.66.09.167.142.1.216-.275.036-.184.078-.322.093-.307.015.015-.002.178-.039.362-.071.363-.043.456.095.318.098-.098.119-.68.03-.838-.042-.074-.07-.063-.19.08zm-4.846-.06c0 .023.172.213.382.421.21.21.382.417.382.462 0 .045-.197-.114-.438-.354-.355-.352-.449-.42-.491-.353-.09.14-.06.262.113.46.185.21.76.523.961.523.171 0 .165-.113-.027-.52-.241-.507-.412-.682-.669-.682-.117 0-.213.02-.213.043zm-6.061.068c-.072.048-.071.064.01.126.23.176.596.54.57.567-.016.016-.184-.11-.373-.278l-.344-.307-.017.169a.362.362 0 0 0 .075.271c.136.15.62.379.803.379.137 0 .152-.015.119-.123-.1-.325-.342-.682-.534-.79-.145-.082-.204-.084-.31-.014zm-10.757.056c0 .218.582.837.85.904.148.037.3-.018.335-.122.01-.03-.191-.172-.447-.315-.256-.144-.453-.283-.437-.308.016-.026.239.075.496.224.257.148.477.27.49.27.064 0 .01-.276-.073-.377-.186-.226-1.214-.46-1.214-.276zm-8.819.082c-.208.108-.332.23-.284.277.08.081.526.047.62-.047.138-.138.074-.157-.225-.067-.146.044-.248.062-.225.039a.82.82 0 0 1 .235-.096c.107-.03.192-.08.19-.11-.008-.089-.136-.088-.311.004zm2.212.022c-.067.043-.054.08.082.223.25.263.558.404.72.33.185-.084.124-.142-.298-.282-.202-.068-.336-.134-.297-.147.04-.013.218.031.398.098.354.133.419.123.326-.049-.098-.183-.729-.3-.93-.173zm2.675.011a.775.775 0 0 0-.266.127c-.063.061-.048.087.098.163.195.1.611.095.645-.01.015-.044-.08-.071-.296-.084l-.317-.02.314-.01c.321-.011.395-.073.208-.173-.122-.065-.13-.065-.386.007zm-6.844.21c.036 0 .157.11.268.247.183.223.22.243.38.213.181-.034.47.075.553.208.023.038.055.166.072.284.026.192.05.22.22.264.23.06.382.186.382.32 0 .136.212.321.37.321.144 0 .45.273.45.403 0 .081.318.362.41.362.026 0 .176.135.333.3.191.2.33.3.417.3.146 0 .336.176.412.383.027.075.145.185.262.245a.716.716 0 0 1 .287.274c.041.09.204.3.361.464 1.087 1.143 1.962 2.623 2.086 3.532.038.279-.038.402-.248.4-.262-.003-.866-.308-1.39-.701a16.734 16.734 0 0 0-2.063-1.293c-.321-.163-.395-.18-.666-.152-.286.03-.315.022-.472-.135-.091-.092-.167-.205-.167-.25 0-.069-.05-.079-.271-.052-.313.037-.496-.052-.614-.296-.063-.13-.106-.152-.317-.156-.367-.006-.38-.01-.537-.177-.176-.188-.589-.34-.756-.278-.196.072-.501-.046-.62-.24-.127-.209-.132-.333-.026-.634.078-.22.076-.23-.041-.273-.106-.04-.13-.02-.19.149a.846.846 0 0 0-.033.384l.035.19-.185-.043a7.786 7.786 0 0 0-.43-.08 2.41 2.41 0 0 1-.574-.205c-.18-.091-.5-.222-.71-.29-.21-.069-.4-.134-.42-.146-.038-.021.39-.72.88-1.434l.24-.351.127.16c.149.185.433.6.652.951l.153.246.04-.19c.035-.17.02-.205-.153-.355-.15-.13-.192-.207-.193-.357 0-.152-.035-.213-.168-.3a.606.606 0 0 1-.217-.261c-.045-.135-.018-.194.232-.52.156-.2.528-.654.828-1.006l.546-.64.2.107c.11.06.23.108.265.108zm34.488-.004c-.25.182-.396.367-.396.504 0 .194.108.148.336-.144.13-.166.256-.302.28-.302.025 0-.07.15-.21.332-.173.225-.238.35-.2.388.143.143.491-.316.576-.76.028-.148.017-.178-.066-.178-.055 0-.199.072-.32.16zm-31.057.051c-.352.16-.573.376-.573.559 0 .087.023.159.052.159.028 0 .2-.14.383-.308.183-.17.344-.297.357-.284.013.013-.123.17-.302.347-.18.178-.326.342-.326.366 0 .023.07.042.158.042.114 0 .208-.056.335-.2.174-.2.377-.581.38-.715 0-.097-.21-.082-.464.034zm23.193-.066c-.12.05-.075.107.342.434.36.283.475.404.381.404-.015 0-.217-.15-.448-.334-.397-.315-.423-.328-.471-.22-.073.165.076.362.398.525.314.16.721.261.786.197.025-.025-.009-.153-.075-.284-.287-.572-.624-.838-.913-.722zm-4.137.075c-.018.029-.01.093.019.143.046.082.057.08.111-.021.047-.088.043-.12-.019-.143-.043-.017-.093-.007-.111.021zm-22.909.131c-.253.065-.597.272-.597.36 0 .065.518.217.735.217.196 0 .412-.132.412-.253 0-.067-.045-.077-.219-.052l-.436.064c-.13.02-.219.01-.219-.021 0-.03.197-.071.437-.093.43-.038.502-.072.369-.176-.13-.1-.233-.11-.482-.046zm2.475.037c-.285.183-.235.276.136.256.256-.013.317-.035.333-.12.015-.08-.002-.095-.082-.064a1.54 1.54 0 0 1-.265.064c-.093.014-.051-.012.098-.061.143-.047.247-.109.229-.138-.054-.086-.26-.057-.45.063zm18.335.019c-.054.066.001.112.335.28.453.226.458.23.413.274-.019.019-.22-.07-.446-.194-.41-.227-.413-.228-.413-.097a.35.35 0 0 0 .104.226c.212.193 1.042.343 1.042.19 0-.142-.251-.454-.483-.601-.273-.174-.452-.199-.552-.078zm.899.14c.086.09.195.162.242.162.054-.001.016-.06-.106-.163-.249-.21-.337-.21-.136 0zm-14.313-.05a.571.571 0 0 0-.233.124c-.05.06-.025.093.124.164.234.111.545.115.634.007.06-.071.023-.083-.28-.092l-.348-.01.314-.02c.217-.014.314-.043.314-.093 0-.138-.216-.17-.525-.08zm24.86.134c-.05.109-.108.34-.126.514-.029.275-.018.33.083.432.064.064.137.116.161.116.025 0 .038-.215.03-.478-.012-.322-.001-.433.03-.341.027.075.05.29.054.478.003.188.028.341.056.341.097 0 .222-.172.222-.305 0-.195-.202-.741-.317-.856-.094-.094-.102-.09-.192.1zm-6.206-.104c0 .03.249.44.533.88.066.1.067.122.006.121-.041 0-.186-.186-.32-.413-.306-.512-.356-.558-.438-.403-.095.177-.023.36.26.663.248.265.647.522.71.459.123-.123-.111-1.03-.32-1.24-.095-.095-.431-.148-.431-.067zM35 10.204c-.432.313-.638.704-.477.905.048.06.099.085.112.055.122-.27.483-.861.498-.816.01.032-.08.238-.2.458-.24.437-.257.494-.145.494.147 0 .353-.223.439-.474.092-.27.118-.782.04-.782-.025 0-.146.072-.267.16zm-1.461-.024a2.95 2.95 0 0 1-.205.051c-.205.045-.187.143.053.299.233.15.635.217.698.115.058-.095-.061-.154-.395-.196-.158-.02-.288-.06-.288-.09s.034-.041.074-.026c.04.016.215.046.388.068.302.038.312.035.256-.07-.07-.13-.394-.214-.581-.151zm3.865.112c-.346.172-.561.383-.561.548 0 .233.114.2.462-.135.191-.184.38-.333.42-.332.04.001-.107.167-.327.37-.22.2-.382.384-.36.407.112.112.345.033.54-.184.196-.215.407-.601.41-.745.002-.112-.286-.078-.584.07zm-8.186-.025c-.205.06-.687.377-.717.473-.052.164.86.272 1.117.133.108-.058.22-.262.17-.311-.01-.011-.227.026-.48.083-.422.094-.557.101-.483.027.015-.016.228-.068.473-.117.47-.095.572-.193.306-.294-.16-.06-.155-.06-.386.006zm21.112.173c-.137.31-.193.758-.114.906a.513.513 0 0 0 .178.178c.117.062.117.061.082-.463-.018-.29-.013-.526.013-.526s.065.222.087.492c.02.27.057.492.079.492s.084-.049.138-.108c.074-.083.09-.167.07-.354-.03-.266-.289-.85-.377-.85-.029 0-.1.105-.156.233zm9.856-.178c.018.03.044.055.058.055.013 0 .024-.025.024-.055s-.026-.054-.058-.054-.043.024-.024.054zm-21.46.076c-.35.154-.617.517-.48.654.02.02.18-.103.355-.276.174-.172.317-.29.317-.259 0 .03-.123.176-.273.324-.15.148-.273.289-.273.312 0 .105.289.032.419-.107.143-.152.342-.53.344-.655.001-.088-.2-.085-.409.007zm20.978.13c-.174.251-.31.625-.31.854 0 .168.127.415.213.415.024 0 .083-.236.13-.525.049-.289.102-.538.118-.555.077-.077.077.057.002.483a6.424 6.424 0 0 0-.08.556c0 .143.14.116.275-.054.106-.135.116-.196.09-.588-.032-.482-.12-.792-.227-.792-.038 0-.133.092-.21.205zm-11.517-.092c-.101.059-.13.16-.046.16.093 0 .785.33.755.36-.017.016-.207-.047-.423-.142-.215-.095-.404-.16-.42-.145-.068.069.065.27.22.335.292.121.855.129.855.012 0-.11-.386-.46-.612-.554-.236-.099-.208-.097-.33-.026zm-12.487.066c-.262.093-.263.174-.005.278.235.094.375.11.515.055.163-.062.087-.13-.145-.131-.128 0-.27-.025-.315-.054-.058-.037.011-.053.237-.054.23 0 .312-.02.296-.069-.03-.093-.354-.107-.583-.025zm-3.382.238c-.173.21-.264.496-.206.647.062.163.133.076.23-.282.054-.2.108-.336.12-.301.011.034-.02.2-.069.37-.102.352-.076.422.095.252.095-.096.12-.185.12-.445.003-.441-.073-.505-.29-.24zm21.254-.048c-.042.027.024.19.204.504.146.256.266.483.267.506 0 .132-.121-.016-.352-.426-.144-.257-.29-.458-.323-.447-.034.011-.07.107-.079.213-.012.15.025.247.166.433.201.266.677.614.764.56.091-.056.001-.663-.146-.984-.09-.197-.18-.31-.276-.347-.169-.063-.148-.062-.225-.012zm-4.115.245c-.137.31-.194.758-.115.906a.51.51 0 0 0 .178.178c.115.061.115.058.088-.464-.015-.288-.008-.525.015-.525.024 0 .06.222.082.492.027.355.059.492.111.492.12 0 .2-.22.172-.472-.03-.258-.289-.84-.375-.84-.03 0-.1.105-.156.233zm-22.38.065c-.227.247-.318.457-.262.604.059.153.132.083.283-.274.197-.464.246-.413.057.06-.08.2-.133.377-.118.392.034.034.303-.136.307-.193.001-.022.024-.15.05-.286.049-.251.02-.546-.052-.546-.023 0-.142.11-.265.243zm20.219-.183c-.02.034.104.204.282.383.175.177.295.322.267.322-.028 0-.192-.14-.365-.31-.27-.268-.318-.297-.352-.21-.06.159.095.368.416.561.304.182.547.23.547.11-.002-.13-.268-.642-.404-.78-.143-.142-.328-.178-.391-.076zm8.003.135c0 .046.024.07.054.051.03-.018.055-.057.055-.085 0-.028-.025-.051-.055-.051s-.054.038-.054.085zm.298.027c-.02.032-.027.065-.017.072l.292.227c.15.117.283.22.296.228.012.009.01.029-.006.044-.015.016-.173-.084-.35-.222-.299-.232-.323-.242-.34-.133-.023.152.126.317.4.443.24.11.519.135.519.046 0-.031-.048-.151-.107-.266-.184-.362-.579-.614-.687-.439zm2.98.09a2.006 2.006 0 0 0-.097.508c-.022.306-.01.375.093.505.19.24.24.192.196-.191a8.141 8.141 0 0 0-.068-.492c-.017-.083-.006-.15.024-.15s.072.154.093.341c.067.599.084.646.2.584.169-.09.136-.47-.074-.875-.098-.188-.204-.35-.237-.361-.032-.011-.09.048-.13.132zm-25.554.013c-.244.244-.352.691-.197.82.066.054.089.011.144-.268.036-.183.087-.347.114-.364.05-.03.01.208-.095.58-.038.133.093.15.197.025.082-.1.09-.679.011-.82-.049-.087-.062-.085-.174.027zm-3.116 0c-.217.066-.455.201-.563.32-.09.1-.091.115-.012.16.068.037.02.07-.21.142a1.547 1.547 0 0 0-.425.202c-.126.106-.126.108-.019.191.296.229 1.037.318 1.194.145.192-.213.125-.246-.428-.213-.286.017-.519.011-.519-.012 0-.048.455-.111.809-.112.206 0 .232-.014.203-.103-.026-.084.003-.11.159-.14.17-.031.394-.231.33-.295-.013-.013-.21.006-.44.043-.491.08-.61.04-.15-.05.174-.035.376-.081.448-.103.122-.038.125-.046.037-.133-.1-.1-.194-.11-.413-.043zm6.035-.013a.796.796 0 0 0-.21.1c-.097.067-.096.074.027.153.27.175.701.182.701.01 0-.056-.087-.083-.314-.097l-.314-.02.319-.01c.227-.008.312-.03.296-.079-.024-.072-.32-.105-.505-.057zm2.55.266c-.277.139-.558.407-.556.533a.31.31 0 0 0 .05.14c.037.061.128.005.42-.259.508-.457.583-.424.088.04-.217.204-.38.387-.36.407.1.098.365.028.52-.138.178-.19.427-.646.427-.78 0-.13-.267-.103-.588.057zm-3.117-.024c-.201.075-.556.377-.61.52-.05.128-.02.292.053.292.022 0 .136-.135.254-.3.191-.266.296-.362.296-.27 0 .018-.113.18-.252.36l-.252.327.184-.018c.16-.015.204-.056.337-.304.102-.19.148-.348.137-.47-.016-.17-.028-.181-.147-.137zm-7.832.225c-.27.27-.392.528-.343.723.06.236.163.151.331-.273.09-.225.182-.41.205-.41.06 0 .06.004-.124.434-.174.41-.173.535.003.44.099-.053.1-.046.024.135-.113.272-.1.54.03.658.06.055.119.09.13.077.01-.013.074-.256.142-.542.069-.285.146-.542.172-.57.08-.088.052.134-.084.666-.143.555-.115.618.168.375.137-.118.154-.172.173-.554.023-.457-.06-.845-.18-.845-.04 0-.132.068-.202.152l-.128.151.02-.425c.013-.29 0-.425-.043-.425-.034 0-.166.105-.294.233zm27.21-.095c0 .016.086.2.192.41.242.481.168.504-.086.027-.103-.196-.207-.355-.23-.356-.07 0-.109.154-.075.29.038.152.506.639.614.639.194 0 .018-.869-.2-.985-.108-.058-.215-.07-.215-.024zm-2.253.14c-.052.03-.095.076-.095.1 0 .024.196.134.437.244.24.11.436.222.436.25 0 .028-.202-.045-.45-.162-.44-.207-.451-.21-.47-.094-.029.183.205.344.614.421.198.038.422.053.498.034.13-.033.134-.042.06-.184-.095-.181-.323-.4-.58-.553-.21-.127-.307-.139-.45-.056zm-18.952.273c-.23.268-.303.517-.187.634.07.07.096.038.204-.253.069-.183.146-.346.172-.362.067-.041.064-.031-.088.358-.075.191-.123.361-.107.377.048.048.21-.076.284-.217.083-.157.066-.715-.021-.744-.034-.011-.15.082-.257.207zm-3.068-.053c-.282.149-.582.436-.548.525.015.039-.003.07-.04.071-.108.003-.585.376-.585.458 0 .107.124.142.499.142.377 0 .648-.115.648-.275 0-.135-.068-.135-.464.002-.349.12-.461.137-.38.06.029-.028.23-.103.448-.167.218-.064.396-.14.396-.169 0-.028.107-.052.238-.052.273 0 .526-.161.526-.335 0-.086-.024-.102-.114-.073-.156.05-.837.244-.855.244-.007 0-.014-.02-.014-.047 0-.026.21-.103.465-.171.255-.069.464-.141.464-.161 0-.02-.03-.066-.066-.101-.1-.1-.376-.079-.618.049zm31.851.044c-.288.183-.589.561-.589.74 0 .065.031.16.07.213.061.085.095.05.303-.316.219-.385.337-.535.337-.43 0 .026-.108.23-.24.455-.26.44-.256.582.01.433.206-.116.405-.626.383-.986l-.017-.273-.257.164zm-26.594.014c-.277.1-.151.244.301.343.155.034.368-.043.368-.133 0-.028-.154-.059-.341-.07l-.342-.019.34-.01c.277-.009.334-.026.308-.093-.037-.095-.396-.105-.634-.018zm28.29.28c-.251.191-.36.399-.297.563.031.082.074.044.24-.212.111-.17.221-.311.244-.312.024 0-.044.128-.15.286-.225.335-.235.383-.07.36.145-.021.311-.325.354-.649.036-.266-.013-.271-.322-.036zm-28.7.362c-.278.202-.396.37-.396.563 0 .228.082.185.337-.176.127-.18.252-.328.278-.328.057 0 .025.055-.242.421a2.293 2.293 0 0 0-.209.314c0 .095.281.01.379-.114.106-.136.276-.608.276-.768 0-.12-.19-.08-.422.088zm27.835.104c-.192.184-.273.305-.273.406 0 .25.091.213.308-.123.116-.18.232-.327.258-.328.045 0-.002.085-.275.49-.154.23-.158.275-.027.275.201 0 .446-.434.446-.79 0-.268-.105-.25-.437.07zm-32.152-.045c-.13.06-.22.132-.201.163.055.09.323.212.602.274.212.048.281.043.388-.027.218-.143.149-.192-.277-.192-.224 0-.422-.024-.44-.054-.022-.035.127-.055.406-.055.242 0 .44-.02.44-.043 0-.197-.543-.236-.918-.066zm6.899.042c-.305.168-.478.405-.372.51.05.05.136 0 .374-.218.17-.156.324-.27.34-.255.016.017-.116.163-.294.326-.282.258-.31.3-.218.337.062.024.16.01.244-.038.141-.08.404-.465.47-.69.03-.107.015-.123-.119-.122-.084 0-.276.068-.425.15zm27.383.01c-.314.109-.492.27-.492.449 0 .12-.008.123.457-.19.401-.27.387-.173-.016.11-.344.24-.404.344-.2.344.246 0 .812-.608.713-.767-.045-.073-.117-.065-.462.054zm-1.02.31c-.3.107-.51.306-.51.485 0 .165.004.163.45-.177.174-.132.315-.217.315-.19 0 .027-.149.164-.33.305-.181.14-.315.28-.297.31.055.088.221.059.381-.067.166-.13.464-.57.464-.684 0-.091-.184-.084-.473.018zm-35.878.252c-.212.22-.45.72-.451.948 0 .15.18.41.239.345a5.9 5.9 0 0 0 .143-.555c.067-.293.146-.533.176-.533s.04.055.023.121c-.11.418-.21.98-.182 1.008.079.078.309-.157.369-.377.071-.266.032-.798-.074-1l-.071-.136-.172.179zm2.142-.1c-.236.073-.464.2-.464.258 0 .078.297.222.63.304l.355.087-.176.107-.175.107.133.103c.163.126.61.268.845.268a.39.39 0 0 0 .263-.1c.176-.194.115-.228-.41-.228-.275 0-.483-.017-.462-.038.021-.022.246-.032.5-.023.385.013.462.002.462-.068 0-.045-.055-.124-.122-.175-.108-.08-.11-.087-.014-.053a2.4 2.4 0 0 0 .389.068c.237.026.297.012.398-.088.065-.065.106-.138.091-.161-.014-.024-.236-.032-.493-.019-.324.017-.467.006-.467-.037 0-.04.157-.061.464-.061.358 0 .464-.018.464-.075 0-.243-.623-.26-1.034-.03-.26.146-.273.193-.077.282l.145.066-.131.037c-.072.02-.188.039-.256.042-.107.005-.117-.01-.068-.1a.529.529 0 0 0 .056-.137c0-.017-.221-.03-.491-.03-.65 0-.639-.101.013-.121l.505-.016-.122-.123c-.141-.14-.401-.157-.751-.047zm-4.55.09c-.115.046-.119.06-.047.164.044.062.162.175.263.252.449.34.926.442 1.111.237.114-.125.14-.11-.49-.276-.578-.15-.585-.153-.551-.209.016-.026.276.02.578.102.302.082.559.133.571.113.044-.07-.11-.303-.245-.37-.157-.08-1-.09-1.19-.013zm33.954.192c0 .018.106.171.236.342.29.38.33.446.27.446-.027 0-.165-.16-.309-.355-.267-.364-.36-.403-.36-.15 0 .174.44.622.7.712l.173.06-.001-.201c-.002-.234-.157-.606-.322-.771-.102-.102-.387-.163-.387-.083zm5.155.057c-.29.103-.459.264-.459.437v.14l.178-.107c.495-.297.696-.4.696-.356 0 .027-.187.155-.415.285-.37.21-.406.245-.332.319.121.12.33.047.618-.218.212-.196.402-.46.402-.558 0-.06-.469-.02-.688.058zm-3.681.457c.12.24.219.462.219.495 0 .143-.134-.048-.313-.446-.156-.346-.209-.419-.268-.37-.123.103-.085.37.09.625.17.246.48.516.592.516.093 0 .079-.595-.02-.88-.094-.269-.206-.376-.393-.376-.124 0-.123.007.093.436zm-31.975-.078a3.224 3.224 0 0 0-.147.528c-.053.286-.048.332.05.464.212.285.251.234.23-.301-.024-.615.04-.716.088-.138.057.69.038.635.18.535.091-.064.122-.14.122-.3 0-.264-.184-.77-.328-.9-.104-.095-.11-.092-.195.112zm36.753-.092c-.42.192-.698.574-.535.737.02.02.193-.116.382-.303.19-.188.344-.319.344-.29 0 .028-.14.193-.311.366-.24.243-.297.33-.248.38.108.108.318-.03.529-.348.24-.361.31-.645.16-.643-.056 0-.2.046-.32.101zm-33.5.059c-.256.136-.504.372-.477.455.032.095.793.115.97.025.12-.062.228-.313.134-.313-.02 0-.207.052-.416.115-.209.064-.395.101-.412.083-.018-.017.002-.043.044-.056.818-.262.818-.262.754-.339-.088-.106-.367-.092-.596.03zm4.478 0c-.318.168-.491.361-.491.546 0 .092.018.167.04.168.023 0 .168-.141.323-.314.155-.174.295-.302.31-.287.017.016-.095.172-.248.347-.21.238-.261.329-.207.362.04.025.124.026.186.003.15-.054.41-.476.451-.73.028-.173.018-.201-.07-.2a.909.909 0 0 0-.294.105zm21.352.055c-.098.063-.13.034.462.415.27.174.464.325.43.337-.035.011-.258-.104-.497-.255-.239-.152-.462-.276-.497-.276-.121 0-.062.254.093.403.179.171.732.362 1.05.362.244 0 .244 0 .124-.235-.299-.583-.86-.944-1.165-.75zm3.984.141c0 .017.123.192.274.39.242.322.316.455.252.455-.011 0-.151-.172-.31-.383-.16-.21-.308-.382-.329-.382-.081 0-.095.243-.022.385.122.236.62.598.822.598.077 0 .086-.036.056-.223-.038-.237-.207-.614-.348-.774-.075-.086-.395-.139-.395-.066zm-32.131.361c-.11.274-.167.694-.12.88.018.072.096.16.174.196l.14.064-.037-.52c-.026-.345-.02-.519.018-.519.033 0 .065.192.076.46.01.253.04.48.065.505.025.025.095-.015.155-.09.086-.105.102-.181.076-.354-.039-.251-.3-.808-.393-.835-.034-.01-.103.086-.154.213zm30.603.023c0 .017.075.146.168.287.141.215.146.232.03.106a1.753 1.753 0 0 1-.191-.246c-.074-.131-.137-.05-.095.12.02.077.14.216.266.308.222.161.232.163.249.053.022-.147-.085-.472-.19-.578-.08-.079-.237-.112-.237-.05zm3.057.184c0 .029.086.24.192.472.211.465.217.483.13.429-.034-.02-.144-.219-.245-.44-.1-.222-.208-.403-.238-.403-.127 0-.128.294-.001.533.134.254.527.63.624.597.183-.06.02-1-.202-1.155-.135-.095-.26-.11-.26-.032zm-32.739.206c-.127.263-.169.881-.068 1.01.04.05.107.1.15.11.063.013.076-.08.07-.503-.006-.349.007-.483.04-.41.028.06.052.288.054.505.004.41.068.5.222.315.152-.183-.091-1.142-.307-1.214-.033-.01-.105.073-.16.187zm30.72-.09c0 .033.112.207.25.387.139.18.24.34.223.355-.015.016-.157-.135-.314-.335-.28-.357-.375-.389-.378-.128-.001.187.495.635.805.727.103.03.123.015.123-.09 0-.21-.181-.653-.336-.819-.142-.152-.374-.212-.374-.096zm-36.64.239c0 .18.238.665.425.864.1.105.195.15.322.15.1 0 .181-.02.181-.043 0-.024-.162-.22-.36-.437-.447-.49-.387-.517.087-.039.193.196.37.355.394.355.024 0 .043-.08.043-.18 0-.133-.047-.226-.178-.35a1.95 1.95 0 0 0-.764-.428c-.135-.033-.15-.022-.15.107zm32.392-.048c-.067.047-.121.104-.121.128 0 .023.202.087.45.142.248.055.474.12.503.146.08.07-.064.055-.531-.057-.234-.056-.436-.083-.45-.06-.014.022.023.101.081.176.078.098.18.145.368.168.296.036.703-.027.798-.125.09-.092-.232-.354-.606-.494-.348-.13-.34-.13-.492-.024zm-31.3.178c0 .308.363.83.578.83.198 0 .16-.104-.153-.422-.157-.159-.26-.289-.23-.289s.176.124.324.274c.148.15.293.266.322.256.03-.01.112.1.183.243.225.45.593.691.829.542.061-.04-.014-.145-.35-.49-.237-.243-.411-.46-.388-.483.022-.023.224.15.447.382.223.233.43.424.46.424.029 0 .053-.085.053-.19 0-.256-.244-.525-.668-.737-.376-.188-.588-.215-.588-.074 0 .079-.016.076-.123-.021-.13-.12-.37-.251-.573-.313-.099-.03-.123-.017-.123.068zm39.296.12c.128.215.565.303.565.113 0-.036-.553-.277-.636-.277-.014 0 .018.073.071.163zm-.636-.08c0 .016.122.212.273.434.15.223.273.422.273.442 0 .082-.169-.113-.385-.444-.126-.194-.25-.353-.276-.353-.095 0-.111.264-.027.427.14.27.734.711.856.636.122-.076-.103-.84-.316-1.074-.079-.088-.398-.142-.398-.068zm-1.693.148c0 .008.049.186.109.396.121.423.134.513.062.434-.026-.028-.091-.218-.145-.42-.104-.396-.162-.45-.246-.23-.061.162.033.431.252.718.237.312.348.209.35-.328 0-.352-.123-.58-.314-.583-.037 0-.068.005-.068.013zm3.043.19a.666.666 0 0 0-.122.241c-.07.282.275 1.283.426 1.234.124-.04.308-.457.375-.849.063-.368.06-.401-.045-.543-.062-.082-.153-.158-.202-.168-.079-.016-.09.055-.09.587 0 .367-.021.605-.054.605s-.055-.237-.055-.6c0-.632-.04-.72-.233-.506zm.888.206c0 .045.034.082.075.082.042 0 .106-.037.144-.082.057-.07.046-.082-.076-.082-.09 0-.143.03-.143.082zm-.022.966c.023.04.14.201.259.36.118.159.202.301.186.317-.016.017-.144-.12-.284-.302-.258-.335-.357-.375-.357-.143 0 .208.622.732.79.667.096-.037.016-.411-.152-.718-.098-.178-.155-.222-.303-.236-.14-.014-.172 0-.14.055zm-41.65.098c-.326.098-.774.492-.673.593.065.065.683.072.871.01.181-.06.326-.24.27-.337-.012-.019-.212.024-.445.096-.488.15-.45.143-.45.086 0-.024.2-.102.445-.173l.445-.129-.124-.1c-.136-.11-.131-.109-.338-.046zm1.008.07c-.147.16-.262.393-.342.692-.038.139-.082.214-.105.178-.025-.042-.121.02-.28.181-.132.135-.264.246-.295.246-.03 0 .066-.123.213-.272.274-.278.295-.367.072-.31-.144.037-.35.319-.425.58l-.051.178.175-.034c.197-.04.585-.28.585-.362 0-.03.05-.053.112-.053.173 0 .438-.154.694-.4.179-.173.232-.265.232-.4 0-.098-.022-.19-.05-.208-.026-.016-.191.157-.366.385s-.327.388-.338.355c-.01-.033.105-.218.258-.41.152-.191.277-.376.277-.41 0-.106-.25-.064-.366.063zm1.099.013c-.15.15-.404.655-.404.806-.002.203.538.026.872-.286.172-.16.236-.491.096-.494-.037 0-.207.153-.377.341-.17.189-.329.324-.352.3-.024-.023.11-.195.296-.383s.338-.36.338-.381c0-.1-.343-.03-.47.097zm1.26.09c-.467.25-.964.773-.874.92.053.085.793.065 1.117-.03.159-.048.348-.145.42-.217.136-.137.177-.409.061-.407-.038 0-.312.111-.61.246-.56.253-.632.276-.632.199 0-.025.264-.165.587-.31.323-.147.599-.276.614-.288.053-.042-.232-.23-.348-.23a.97.97 0 0 0-.335.116zm-1.374.893c-.064.044-.156.196-.204.337-.088.258-.12.729-.049.729.096 0 .459-.303.59-.492.143-.207.173-.49.055-.528-.03-.01-.151.16-.27.376-.117.217-.223.368-.233.336-.01-.032.067-.212.173-.4.106-.187.193-.363.193-.39 0-.075-.125-.06-.255.032zm-.98.07c-.172.114-.397.94-.255.94.116 0 .485-.318.586-.505.082-.152.093-.224.05-.322-.054-.119-.07-.104-.27.244-.116.203-.221.343-.232.311-.01-.032.003-.088.031-.125.028-.037.117-.183.199-.326.131-.23.137-.26.05-.259a.347.347 0 0 0-.159.041zm34.27 2.798v.71h-1.42v2.295h1.42v1.42h2.294v-1.42h1.42v-2.295h-1.42v-1.42h-2.293v.71zm-54.604 5.25c-2.36.306-4.53 1.802-5.58 3.85-.511.997-.738 1.854-.787 2.973-.113 2.591 1.173 4.997 3.45 6.456.408.262 1.01.54 1.57.728a7.68 7.68 0 0 0 4.757.002c4.204-1.412 6.236-6.16 4.29-10.026-1.072-2.131-3.124-3.597-5.543-3.96a9.553 9.553 0 0 0-2.157-.023zm30.251.024c-2.268.358-4.376 1.848-5.457 3.857-.877 1.63-1.057 3.565-.49 5.261.706 2.105 2.52 3.89 4.691 4.62 1.054.353.947.345 4.901.366l3.617.02v-2.077l-3.562-.016-3.563-.017-.492-.152c-2.808-.867-4.292-3.607-3.432-6.334.53-1.682 1.823-2.907 3.569-3.38.4-.108.59-.125 1.392-.124 1.065.002 1.439.078 2.246.456 1.498.703 2.55 2.063 2.826 3.657.04.229.062.434.05.457-.013.023-2.048.041-4.524.041h-4.502v2.076h11.303v-1.168c0-1.27-.061-1.78-.3-2.515-.723-2.213-2.48-3.957-4.778-4.74-1.014-.345-2.407-.46-3.495-.288zM71 25.8c-2.364.372-4.455 1.906-5.539 4.064a9.388 9.388 0 0 0-.414 1.01c-.35 1.046-.354 1.12-.354 5.288v3.762h2.234l.017-3.865c.017-3.768.02-3.875.136-4.284.384-1.364 1.101-2.4 2.148-3.1 1.019-.683 1.776-.877 3.423-.878h1.106v-2.076l-1.16.005c-.639.003-1.357.037-1.597.074zM46.782 37.463v11.53h2.239V28.062l2.17.022c2.13.021 2.18.024 2.696.163 1.946.525 3.2 1.805 3.573 3.65.124.609.084 1.71-.081 2.282a5.02 5.02 0 0 1-1.35 2.198c-.668.64-1.395 1.04-2.34 1.287-.5.131-.662.145-1.952.171l-1.406.028v2.062h1.385c1.95 0 2.696-.148 3.993-.792a7.144 7.144 0 0 0 2.103-1.537c1.01-1.052 1.63-2.22 1.89-3.556.123-.63.123-1.738 0-2.379-.546-2.834-2.8-4.975-5.89-5.592-.38-.075-.973-.093-3.74-.113l-3.29-.023v11.53zm14.197-4.53v6.992h2.293V25.94h-2.293v6.993zM8.847 28.037c1.732.52 2.997 1.764 3.517 3.46.133.435.147.563.15 1.381.003.783-.013.958-.121 1.333a5.19 5.19 0 0 1-1.4 2.357 5.096 5.096 0 0 1-4.841 1.335c-1.762-.45-3.225-1.876-3.709-3.614-.8-2.875.97-5.738 3.931-6.358.238-.05.626-.069 1.174-.057.693.016.893.041 1.299.163zm13.895 14.279l-.314.018v2.833l.142.036c.079.02.333.023.565.007.469-.033.82-.176.963-.395.231-.353.114-.89-.232-1.054-.208-.1-.228-.154-.076-.203.144-.045.33-.359.33-.553 0-.224-.19-.507-.396-.59-.216-.088-.567-.123-.982-.1zm4.478 0l-.314.018v2.835h.382v-1.12l.341-.003c.649-.007 1.023-.332 1.024-.887 0-.663-.403-.9-1.433-.843zm2.782.037c-.595.212-.912.65-.955 1.317-.032.491.082.864.348 1.138.28.288.488.376.957.404.53.032.813-.051.813-.238 0-.151.002-.15-.377-.079-.414.079-.778-.014-1.04-.264-.527-.503-.408-1.584.21-1.904.26-.135.753-.17 1.008-.074.12.046.142.034.191-.107.053-.153.047-.162-.146-.216-.277-.077-.76-.066-1.01.023zm-14.017-.002c0 .013.209.448.464.967.255.52.464.99.464 1.048 0 .243-.491.659-.658.556-.028-.018-.052.042-.052.135 0 .155.014.167.194.167.492 0 .708-.292 1.318-1.776l.449-1.092-.169-.018c-.092-.01-.186.003-.209.027-.022.025-.17.408-.33.852s-.306.788-.326.765a1.537 1.537 0 0 1-.122-.26 20.1 20.1 0 0 0-.363-.806c-.274-.583-.277-.587-.468-.587-.106 0-.192.01-.192.022zm2.566 1.398v1.42h.328v-1.311h1.42v1.311h.382v-2.84h-.382v1.201h-1.42v-1.202h-.328v1.42zm2.785 0v1.42h.382v-2.84h-.382v1.42zm3.44 0v1.42h1.584v-.273h-1.201v-1.038h1.091v-.328h-1.092v-.928h1.147v-.274h-1.529v1.42zm7.6-1.106c-.403 1.168-.829 2.441-.829 2.48 0 .025.081.046.18.046.176 0 .183-.008.317-.423l.137-.424.518-.015.517-.016.138.426.138.425.209.017c.155.013.202 0 .182-.054-.015-.04-.234-.68-.486-1.424l-.458-1.351h-.227l-.227-.002-.108.315zm2.338.604c0 1.124-.07 1.433-.36 1.605-.151.089-.182.135-.154.228.05.163.048.162.263.09.232-.076.443-.313.526-.59.033-.111.074-.602.092-1.09l.03-.888h.914v2.567h.382v-2.84h-1.693v.918zm2.403.5v1.42l.142.036c.078.02.324.022.546.005.718-.054 1.114-.389 1.114-.94 0-.55-.354-.844-1.074-.89l-.4-.026v-1.024h-.328v1.42zm2.348.002v1.42h.382v-1.311h1.365v1.311h.382v-2.84h-.382v1.201h-1.365v-1.202h-.382v1.42zm3.108-.069c-.247.744-.46 1.383-.474 1.42-.017.047.035.07.16.07.184 0 .188-.006.324-.424l.137-.424.524-.015.524-.016.146.44c.146.436.147.438.337.438.125 0 .184-.023.173-.068-.01-.038-.224-.677-.477-1.42l-.459-1.352h-.465l-.45 1.352zm-18.968-.944c.34.34.029.794-.546.794h-.249v-.928h.33c.278 0 .352.021.465.134zm4.448-.052c.197.102.312.427.234.662-.08.243-.36.403-.707.403h-.292v-1.147h.303c.166 0 .374.037.462.082zm15.616 1.297c0 .023-.184.041-.41.041-.26 0-.409-.022-.409-.06 0-.033.091-.335.202-.672l.203-.613.206.631c.114.348.207.65.208.673zm-10.54.027c.001.008-.183.014-.408.014-.272 0-.41-.021-.41-.063 0-.051.255-.894.36-1.193.021-.058.454 1.115.459 1.242zm5.125-.237c.302.157.378.62.147.896-.154.183-.552.31-.8.255l-.157-.035v-.592c0-.518.012-.596.096-.62.15-.044.546.01.714.096zm-14.63.184c.291.218.267.697-.043.854-.192.097-.532.155-.664.114-.097-.031-.107-.086-.107-.584v-.55l.336.03c.207.018.39.07.478.136zm6.243 3.577l.014 1.434.178.017.177.017v-1.318h.194c.403 0 .565.18.857.956.113.3.139.33.3.345.099.01.178-.007.178-.036 0-.11-.387-1.064-.49-1.21a.872.872 0 0 0-.333-.242c-.264-.105-.296-.032.376-.847l.454-.55h-.22c-.217 0-.228.01-.726.655-.278.36-.525.656-.548.656-.023 0-.041-.295-.041-.656v-.655h-.385l.015 1.434zm2.706-.437c-.027 1.123-.095 1.4-.378 1.547-.108.056-.157.122-.157.216 0 .3.515.077.72-.313.111-.212.125-.327.144-1.177l.02-.942h.973V49l.177-.017.178-.017.014-1.434.015-1.434h-1.683l-.023.997zm2.372.437l.015 1.434.177.017.178.017v-2.902h-.384l.014 1.434zm1.08.017V49l.177-.017.177-.017.016-.67.015-.669h1.361v1.366h.383v-2.895h-.382V47.3h-1.365v-1.202h-.382v1.45zm2.839-.004v1.448h.328v-2.895h-.328v1.447zm1.037.004V49l.178-.017.177-.017.016-.642.015-.642h.215c.322 0 .562.236.712.699.166.508.24.612.436.612.09 0 .163-.019.163-.041 0-.087-.383-1.012-.49-1.186a.733.733 0 0 0-.33-.27c-.12-.047-.218-.1-.218-.116s.235-.311.521-.656l.522-.626-.235.003-.235.003-.491.651c-.27.358-.51.651-.532.652-.023.001-.041-.293-.041-.654v-.655H39.9v1.45zm2.659-.044a40.427 40.427 0 0 0-.476 1.45c.001.025.081.037.179.028.17-.016.184-.037.334-.468l.156-.45h1.013l.156.45c.15.43.165.452.334.468.098.01.178-.003.179-.027 0-.025-.215-.678-.478-1.452l-.479-1.406h-.442l-.476 1.407zm1.108.273c0 .007-.183.013-.408.013-.226 0-.41-.015-.41-.034 0-.019.09-.316.2-.66l.201-.627.208.647.21.66z" fill="#000"/></svg>