<svg width="72" height="79" viewBox="0 0 72 79" fill="none" xmlns="http://www.w3.org/2000/svg"><path fill-rule="evenodd" clip-rule="evenodd" d="M18.026 9.677L8.39 19.353l9.565 9.51c5.26 5.23 9.587 9.516 9.613 9.525.047.016 2.388-1.98 2.415-2.06.007-.023-.35-.4-.796-.839-3.168-3.118-16.387-16.203-16.399-16.232-.008-.02 3.799-3.865 8.46-8.545 4.66-4.68 8.473-8.525 8.473-8.545 0-.047-1.982-2.17-2.024-2.167-.018 0-4.369 4.356-9.67 9.677zm25.162-8.46L41.826 2.33l8.67 8.65 8.672 8.65-6.1 6.023c-3.355 3.313-7.181 7.094-8.503 8.401l-2.402 2.377 1.05 1.123c.578.617 1.075 1.122 1.105 1.122.03 0 3.587-3.511 7.906-7.803l9.715-9.655 1.865-1.85-9.627-9.633L44.549.103l-1.361 1.113zM4.467 58.166l-4.178 8.97-.289.618 1.483-.015 1.482-.014.996-2.208.995-2.209h6.828l.066.124c.037.068.48 1.061.985 2.208l.919 2.085 1.482.014 1.483.015-.209-.453a5386.76 5386.76 0 0 0-8.12-17.447c-.02-.023-1.785 3.717-3.923 8.311zm51.741.605v8.981h2.578l.002-5.993.003-5.994.148.19c.64.822 1.759 1.938 6.576 6.56 3.01 2.89 5.627 5.404 5.816 5.587l.343.333V50.472h-2.577l-.014 5.985-.014 5.985-.504-.595a29.38 29.38 0 0 0-1.07-1.181c-.424-.44-10.032-9.7-11.108-10.707l-.179-.167v8.98zm-13.106-8.65c-2.628.325-4.88 1.612-6.422 3.669-1.05 1.402-1.65 3.109-1.733 4.93-.09 1.999.433 3.872 1.531 5.482.452.663 1.41 1.647 2.122 2.183.633.475 1.699 1.049 2.422 1.302 2.078.729 4.468.703 6.47-.07 1.336-.516 2.398-1.225 3.428-2.288a8.718 8.718 0 0 0 2.339-4.45c.106-.527.124-.781.122-1.768-.002-.982-.021-1.236-.127-1.728-.663-3.089-2.726-5.526-5.656-6.681-1.067-.421-1.839-.562-3.208-.586-.603-.01-1.183-.008-1.288.005zm-23.088.375c0 .014 1.109 1.869 2.464 4.121l2.464 4.096-.13.2c-.07.109-1.329 2.136-2.796 4.505l-2.667 4.307 1.467.014c.806.009 1.484-.004 1.507-.027.103-.107 3.36-5.487 3.64-6.013l.317-.594.407.786c.224.433 1.078 1.928 1.898 3.322l1.492 2.536 1.551.002c1.46.001 1.548-.004 1.5-.095-.03-.053-1.243-2.083-2.697-4.512-1.455-2.43-2.645-4.443-2.646-4.476-.002-.043 4.372-7.19 4.94-8.074l.08-.123h-2.893l-1.343 2.17a121.356 121.356 0 0 0-1.79 2.965l-.447.795-.366-.702c-.201-.386-.963-1.72-1.692-2.963l-1.326-2.26-1.467-.003c-.807-.001-1.467.01-1.467.023zm25.205 2.254c1.37.239 2.509.85 3.459 1.855 3.047 3.224 2.122 8.482-1.826 10.387a6.159 6.159 0 0 1-5.428-.017c-1.824-.905-3.168-2.745-3.48-4.766-.082-.534-.084-1.624-.002-2.12.41-2.503 2.211-4.557 4.56-5.202a6.612 6.612 0 0 1 2.717-.137zm-36.27 4.03c.077.196.524 1.208.994 2.25l.853 1.892-2.364.014c-1.301.008-2.375.005-2.387-.007-.012-.012.397-.957.908-2.1.598-1.336 1.011-2.34 1.16-2.817l.256-.823c.015-.045.12.214.234.576.113.362.27.819.346 1.015zm39.782 14.887l-.265.049.022 2.366c.02 2.285.025 2.376.142 2.672.202.51.517.714 1.167.752.425.025.902-.07 1.107-.22.085-.062.09-.096.033-.263a3.024 3.024 0 0 0-.073-.204 1.838 1.838 0 0 0-.307.102c-.38.145-.908.126-1.135-.04-.324-.239-.343-.344-.343-1.956V73.46h1.755v-.436l-.891-.015-.891-.015-.028-.687-.027-.686-.266.048zM33.614 72.97a4.736 4.736 0 0 0-.658.119l-.247.073-.014 2.919L32.681 79h.549v-1.804l.316.145c.455.21 1.17.238 1.63.065.903-.34 1.419-1.406 1.248-2.579-.151-1.034-.77-1.705-1.715-1.858-.394-.064-.502-.064-1.095.001zm5.868-.025a7.549 7.549 0 0 0-.347.082l-.21.054.038.23c.02.127.042.235.048.242a1.95 1.95 0 0 0 .31-.068c.163-.044.472-.08.684-.08.762-.002 1.122.355 1.122 1.111 0 .37-.004.381-.123.348-.272-.075-.911-.095-1.248-.04-.52.086-.921.308-1.112.617-.328.53-.24 1.275.198 1.679.13.12.335.254.453.295.277.098 1.445.099 1.983.001l.398-.072v-1.63c0-1.793-.022-1.947-.33-2.32-.258-.314-.595-.442-1.206-.46a5.024 5.024 0 0 0-.658.011zm5.703.017a5.35 5.35 0 0 0-.617.137l-.315.093v4.218h.549v-3.843l.123-.047c.236-.09.784-.12 1.163-.065.21.03.388.049.395.042a1.49 1.49 0 0 0 .05-.237c.034-.218.03-.224-.145-.259a4.46 4.46 0 0 0-1.203-.038zm8.967-.018c-.12.012-.435.061-.7.11l-.48.09v4.264h.549v-3.887l.316-.042c.61-.082 1.123-.051 1.4.083.21.101.281.178.407.435l.153.311.018 1.55.017 1.55h.548l-.017-1.632-.017-1.632-.174-.367c-.19-.4-.477-.66-.836-.757-.24-.064-.885-.107-1.184-.077zm11.818.017a4.634 4.634 0 0 0-.617.143l-.315.1v4.205h.548v-3.843l.126-.048c.237-.09.833-.122 1.187-.065.194.032.36.052.368.044a1.41 1.41 0 0 0 .05-.238c.035-.218.031-.224-.144-.259a4.5 4.5 0 0 0-1.203-.039zm3.939.022c-.475.135-.824.495-.897.924-.112.663.227 1.066 1.259 1.5.363.152.732.348.831.44.347.325.282.846-.132 1.049-.39.191-1.245.16-1.838-.067-.051-.02-.09.022-.114.124a7.12 7.12 0 0 1-.063.244c-.07.234 1.253.422 1.922.272.618-.138.97-.514 1.006-1.072.042-.66-.243-.972-1.301-1.432-.375-.163-.749-.36-.832-.44a.605.605 0 0 1 .1-.965c.289-.178.972-.207 1.393-.058l.31.11.058-.227c.032-.125.04-.243.019-.261-.196-.172-1.294-.262-1.721-.14zm-34.885.618c.322.156.529.374.696.736.096.207.115.353.115.905 0 .754-.093 1.043-.451 1.412-.406.416-1.176.49-1.81.173l-.316-.159-.015-1.532c-.008-.843.007-1.554.032-1.58.077-.077.723-.146 1.107-.119.226.016.461.076.642.164zm23.707.763v.247h3.839v-.494h-3.839v.247zm-17.81.963l.206.057v1.578l-.305.038c-.463.058-1.175.004-1.384-.105-.26-.137-.394-.388-.395-.74 0-.44.2-.696.65-.832.213-.065.99-.062 1.229.004zm17.81.82v.22h3.839v-.44h-3.839v.22z" fill="#000"/></svg>