<svg width="113" height="37" viewBox="0 0 113 37" fill="none" xmlns="http://www.w3.org/2000/svg"><path fill-rule="evenodd" clip-rule="evenodd" d="M103.279.054c-1.216.14-2.492.63-3.685 1.411-.709.464-1.781 1.535-2.267 2.262-1.535 2.3-1.894 5.174-.964 7.722.334.915.734 1.575 2.176 3.591.178.25.414.581.523.737.11.156.499.705.865 1.219l1.49 2.097c1.275 1.797 1.331 1.833 2.868 1.861 1.71.031 1.825-.04 3.16-1.945.418-.596.741-1.054 1.208-1.71.468-.656 1.6-2.261 3.018-4.28.118-.168.791-1.544.791-1.617 0-.026.064-.252.144-.5.079-.25.197-.861.262-1.36.105-.81.111-.978.051-1.56-.142-1.385-.342-2.146-.826-3.145-1.294-2.669-3.792-4.457-6.689-4.788a10.933 10.933 0 0 0-2.125.005zm1.664 4.19a4.395 4.395 0 0 1 3.644 3.261c.143.545.141 1.506-.004 2.037-.216.792-.373 1.06-1.79 3.05l-1.275 1.789c-.374.525-.77 1.085-.879 1.246-.109.16-.216.292-.238.292-.022 0-.288-.35-.591-.78-.85-1.2-1.635-2.307-2.289-3.227-1.109-1.562-1.247-1.85-1.42-2.973-.056-.363-.052-.52.027-.981.296-1.739 1.335-2.979 2.952-3.522.693-.233 1.211-.287 1.863-.193zM29.263 10.2a2.142 2.142 0 0 0-1.558 1.172l-.186.378v23.413l.15.322c.414.883 1.43 1.426 2.33 1.246.778-.156 1.33-.572 1.648-1.244l.18-.38V11.809l-.151-.322c-.169-.36-.539-.79-.845-.984-.43-.271-1.045-.39-1.569-.303zm-17.701.851a13.006 13.006 0 0 0-6.462 2.51c-.61.455-1.81 1.622-2.28 2.216a13.883 13.883 0 0 0-2 3.567c-1.27 3.442-1.052 7.635.568 10.868 1.847 3.685 5.266 6.066 9.57 6.663.964.134 3.193.132 4.203-.004 2.348-.315 4.754-1.224 6.776-2.562.63-.416 1.01-.805 1.246-1.273.342-.677.34-.643.34-4.857 0-4.28.014-4.102-.387-4.713-.231-.351-.586-.632-1.03-.815l-.313-.128h-7.936l-.368.176c-1.075.514-1.476 1.682-.925 2.695.26.476.75.817 1.367.948.197.042 1.17.064 2.82.064h2.521l-.015 2.334-.014 2.335-.364.244c-1.124.753-2.578 1.294-4.105 1.528-.698.107-2.316.12-2.957.025-1.843-.276-3.376-1.029-4.62-2.27-1.275-1.27-2.076-2.882-2.421-4.877-.12-.689-.134-2.668-.024-3.287.656-3.694 2.995-6.346 6.332-7.182.58-.145.698-.155 1.838-.155 1.028 0 1.325.02 1.9.13 1.327.25 2.44.716 3.651 1.526.889.594 1.05.677 1.438.738 1.424.223 2.618-.877 2.519-2.321-.068-.993-.56-1.546-2.233-2.508-1.525-.877-3.52-1.455-5.603-1.622-.807-.065-2.357-.061-3.032.007zm32.006 6.29c-3.915.682-6.92 3.33-7.998 7.052-.327 1.129-.447 2.584-.317 3.844.396 3.845 2.97 7.018 6.685 8.24 1.181.389 1.847.488 3.295.49 1.58.003 2.394-.128 3.684-.594 3.028-1.093 5.395-3.663 6.178-6.706.705-2.737.253-5.69-1.218-7.946a9.212 9.212 0 0 0-1.424-1.726c-1.492-1.445-3.353-2.344-5.555-2.684-.819-.126-2.518-.11-3.33.03zm41.713.001c-2.673.463-4.883 1.793-6.44 3.877-2.39 3.196-2.591 7.7-.496 11.123.817 1.335 2.1 2.565 3.49 3.346.647.364.928.49 1.706.757 1.715.589 3.625.711 5.564.357 1.185-.217 2.83-.914 3.847-1.632 2.87-2.025 4.416-5.324 4.147-8.859-.09-1.198-.315-2.13-.767-3.186-1.337-3.12-4.186-5.268-7.713-5.814-.821-.127-2.516-.111-3.338.031zm-26.67.1c-.927.311-1.52 1.01-1.575 1.858-.046.7-.182.351 2.878 7.36l2.038 4.677c1.538 3.53 1.85 4.207 2.115 4.575.244.34.837.777 1.228.904.434.141 1.338.141 1.747 0 .614-.212 1.197-.776 1.59-1.54.096-.187.562-1.232 1.035-2.323.472-1.091 1.249-2.877 1.725-3.968a4102.44 4102.44 0 0 0 1.619-3.713c.413-.951 1.078-2.475 1.476-3.387.398-.912.755-1.804.792-1.983.196-.944-.289-1.92-1.152-2.318-.318-.147-.412-.163-.948-.163-.57 0-.61.008-.954.194a2.19 2.19 0 0 0-.886.895c-.12.215-1.017 2.47-3.283 8.264-1.541 3.94-1.802 4.593-1.846 4.639-.026.026-.085-.064-.133-.199-.099-.279-.323-.86-1.232-3.193l-1.06-2.72c-.23-.593-.477-1.23-.548-1.418-.858-2.263-2.061-5.269-2.19-5.47a2.308 2.308 0 0 0-.904-.827c-.26-.13-.398-.158-.85-.173-.298-.01-.605.004-.682.03zm-12.094 3.724a5.431 5.431 0 0 1 2.742 1.496c1.046 1.047 1.611 2.28 1.769 3.852.19 1.906-.394 3.7-1.623 4.982-.707.736-1.497 1.203-2.528 1.492-.433.121-.592.135-1.56.132-1.007-.003-1.109-.013-1.578-.157-1.905-.587-3.288-1.983-3.885-3.922a5.895 5.895 0 0 1-.289-1.937c-.005-2.92 1.645-5.236 4.196-5.89.81-.207 1.893-.226 2.756-.048zm41.72 0c1.252.258 2.468 1.036 3.26 2.086 1.835 2.434 1.66 6.128-.395 8.268-.656.683-1.423 1.137-2.432 1.44-.668.2-2.019.255-2.734.11-1.701-.345-3.07-1.362-3.931-2.923-.269-.486-.582-1.442-.667-2.033-.084-.583-.039-2.038.08-2.562.55-2.441 2.401-4.176 4.777-4.475.505-.064 1.517-.02 2.041.089zm15.676 1.335a2.355 2.355 0 0 0-1.234.648c-.904.881-.922 2.41-.04 3.292 1.046 1.046 2.934.873 3.729-.34.416-.635.491-1.591.178-2.274a2.4 2.4 0 0 0-1.778-1.332c-.435-.062-.444-.062-.855.006z" fill="#000"/></svg>