<svg width="148" height="19" viewBox="0 0 148 19" fill="none" xmlns="http://www.w3.org/2000/svg"><path fill-rule="evenodd" clip-rule="evenodd" d="M11.922.717c-.948.459-1.455 1.248-1.566 2.44l-.038.41h-2.82l-.265.267c-.147.146-.267.304-.267.352 0 .047-.035.086-.078.086s-.078.053-.078.117c0 .065-.035.118-.078.118s-.079.053-.079.117c0 .065-.035.118-.078.118s-.078.052-.078.117-.035.117-.078.117c-.044 0-.079.053-.079.118 0 .064-.035.117-.078.117s-.078.053-.078.118c0 .064-.036.117-.079.117-.043 0-.078.053-.078.117 0 .065-.035.118-.078.118s-.078.044-.078.098c0 .054-.088.199-.194.322a1.45 1.45 0 0 0-.24.372c-.026.081-.075.147-.11.147-.036 0-.085.062-.11.137-.025.075-.096.271-.158.436a6.326 6.326 0 0 0-.211.795c-.087.436-.082.55.038.933.145.46.492.908.703.908.069 0 .125.036.125.079 0 .043.07.078.157.078.086 0 .156.035.156.078s.176.078.392.078c.365 0 .39.014.39.196 0 .108-.034.196-.077.196s-.079.046-.079.102c0 .056-.044.196-.097.312l-.098.21-1.543.001c-1.456 0-1.94.061-1.94.243 0 .033-.073.084-.161.112-.297.094-1.385 1.231-1.635 1.709-.42.801-.31 1.542.31 2.117l.305.281h7.693l.266-.266c.146-.146.266-.322.266-.391s.035-.125.078-.125.079-.088.079-.196c0-.107.035-.196.078-.196s.078-.045.078-.101c0-.129.18-.523.24-.524.046 0 .217.3.69 1.212.156.302.304.566.329.587.025.022.166.269.313.548.146.28.293.52.326.535.032.015.059.094.059.176 0 .083.035.15.078.15s.078.064.078.142c0 .503 2.944.938 3.777.558.118-.054.215-.126.215-.159s.07-.083.157-.11c.086-.027.156-.1.156-.162s.036-.112.079-.112c.043 0 .078-.068.078-.152 0-.084.035-.174.078-.2.16-.1 0-1.214-.175-1.214-.033 0-.06-.07-.06-.156s-.035-.157-.078-.157-.078-.07-.078-.156-.035-.157-.078-.157-.079-.052-.079-.117-.035-.117-.078-.117-.078-.071-.078-.157c0-.086-.027-.157-.059-.157s-.097-.08-.145-.176c-.231-.471-.467-.883-.52-.906-.032-.015-.059-.091-.059-.17 0-.079-.03-.155-.069-.17-.037-.014-.231-.343-.43-.73a65.936 65.936 0 0 0-.66-1.252l-.3-.548h4.165l.232-.26c.128-.144.311-.345.408-.447.097-.103.176-.24.176-.307s.036-.121.079-.121c.043 0 .078-.07.078-.157 0-.086.035-.156.078-.156.047 0 .079-.3.079-.744s-.032-.744-.079-.744c-.043 0-.078-.053-.078-.118 0-.188-.165-.426-.605-.874l-.41-.417h-1.975l-.344-.364c-.19-.2-.345-.404-.345-.453 0-.048-.07-.138-.156-.2-.166-.12-.204-.31-.086-.434a3.28 3.28 0 0 0 .25-.388c.157-.276.178-.42.178-1.208 0-.621-.029-.905-.093-.927-.051-.017-.093-.098-.093-.18 0-.083-.035-.15-.078-.15s-.078-.05-.078-.112c0-.188-.626-.737-1.121-.985-.42-.21-.544-.234-1.181-.231-.596.002-.778.035-1.118.199zm113.01.07c-.952.216-2.174.723-2.499 1.037-.057.055-.135.1-.174.1-.038 0-.193.123-.344.274-.151.15-.306.274-.346.274-.04 0-.155.108-.257.24a9.838 9.838 0 0 1-.409.488c-.507.558-1.302 2.055-1.302 2.452 0 .102-.032.185-.07.185-.038 0-.09.115-.114.255-.024.14-.087.448-.138.685-.067.305-.103 2.071-.123 6.085l-.028 5.656h5.326v-3.74l.176-.046c.097-.026 1.383-.048 2.858-.049h2.682l-.021-2.29-.02-2.29-2.818-.042c-1.55-.024-2.827-.05-2.838-.059-.063-.052-.004-1.798.071-2.109.117-.481.246-.803.32-.803.033 0 .059-.055.059-.121 0-.157.349-.505.506-.505.066 0 .121-.036.121-.079 0-.043.105-.078.234-.078.13 0 .235-.035.235-.078 0-.044.222-.079.509-.079.287 0 .509.035.509.079 0 .043.088.078.195.078.108 0 .196.035.196.078s.038.079.084.079c.234 0 .621.76.621 1.22 0 .19.035.345.078.345.044 0 .078.222.078.509v.509h5.323l-.004-.764c-.003-.802-.09-1.621-.235-2.21a10.314 10.314 0 0 1-.128-.607c-.023-.14-.073-.255-.111-.255-.039 0-.07-.065-.07-.145 0-.127-.44-1.08-.548-1.185a1.736 1.736 0 0 1-.15-.255c-.061-.118-.141-.215-.176-.215-.036 0-.065-.053-.065-.117 0-.065-.036-.118-.079-.118a.08.08 0 0 1-.078-.08c0-.105-.745-.847-1.096-1.091a3.679 3.679 0 0 1-.313-.235 3.316 3.316 0 0 0-.43-.238 3.906 3.906 0 0 1-.431-.233c-.064-.066-.549-.24-1.135-.406-.738-.21-2.893-.273-3.631-.106zm-97.458.341c-.618.142-1.566.535-1.566.65 0 .037-.044.067-.098.067-.153 0-.958.792-1.114 1.096a1.766 1.766 0 0 1-.188.313c-.048.04-.185.323-.313.646-.068.173-.18.57-.293 1.037-.073.305-.067 2.26.009 2.643.032.162.09.313.127.337.039.024.07.112.07.196s.032.214.071.289c.168.32.555 1.205.555 1.268 0 .038.194.475.43.97.238.497.431.986.431 1.087 0 .101.04.225.09.274.185.185-.248.88-.549.88-.092 0-.167.036-.167.08 0 .042-.123.078-.274.078-.15 0-.274-.036-.274-.079 0-.043-.176-.078-.391-.078-.215 0-.392-.035-.392-.078s-.105-.079-.234-.079h-.235v4.742l.49.112c.302.069.893.109 1.552.105 1.574-.009 2.328-.201 3.51-.894.253-.149 1.023-.909 1.023-1.01a.08.08 0 0 1 .078-.08c.043 0 .078-.053.078-.118 0-.064.036-.117.079-.117.043 0 .078-.07.078-.157 0-.086.035-.156.078-.156s.078-.07.078-.157c0-.086.036-.156.079-.156.043 0 .078-.086.078-.191 0-.105.035-.213.078-.24.043-.026.078-.17.078-.317 0-.149.036-.27.079-.27.049 0 .078-.494.078-1.326 0-.8-.031-1.345-.078-1.374-.043-.027-.079-.135-.079-.24 0-.105-.035-.19-.078-.19s-.078-.089-.078-.196c0-.108-.035-.196-.078-.196s-.079-.07-.079-.157c0-.086-.035-.156-.078-.156s-.078-.07-.078-.157c0-.086-.035-.156-.078-.156s-.079-.044-.079-.097c0-.054-.12-.344-.266-.646a18.727 18.727 0 0 1-.741-1.707c-.173-.43-.088-1.024.181-1.267.29-.262 1.059-.39 1.179-.197.026.043.17.078.317.078.148 0 .27.036.27.079 0 .043.07.078.156.078.153 0 .157-.052.157-2.384V1.227l-.294-.091c-.161-.05-.857-.102-1.546-.117-.977-.02-1.38.004-1.84.109zm28.57-.094c-1.198.171-1.748.297-1.914.436a.364.364 0 0 1-.196.064c-.28.005-1.7.791-2.081 1.153-.057.054-.123.098-.147.098-.096 0-1.298 1.119-1.298 1.208 0 .042-.188.284-.372.478-.054.056-.098.124-.098.15 0 .027-.07.124-.156.217-.086.092-.157.214-.157.27 0 .057-.035.103-.078.103s-.078.07-.078.157c0 .086-.036.156-.079.156-.043 0-.078.07-.078.157 0 .086-.035.156-.078.156s-.079.068-.079.15c0 .083-.026.162-.059.177-.08.035-.38.926-.536 1.591-.088.374-.129.907-.129 1.683 0 .775.041 1.308.129 1.683.155.665.456 1.556.536 1.591.033.015.06.094.06.176 0 .083.035.15.078.15s.078.07.078.157c0 .086.035.157.078.157s.078.037.078.083c0 .1.472.805.563.843.035.014.064.076.064.137 0 .06.035.11.078.11s.078.035.078.076c0 .09 1.043 1.177 1.13 1.177.033 0 .158.106.28.235.12.129.257.235.304.235.048 0 .086.035.086.078s.047.078.103.078c.057 0 .178.07.27.157.093.086.223.156.29.156.066 0 .12.036.12.079 0 .043.07.078.157.078.086 0 .156.035.156.078s.068.078.15.078c.083 0 .162.029.177.063.032.08 1.486.537 1.904.6.734.111 2.056.134 2.581.046.836-.142 2.167-.531 2.22-.65.014-.032.093-.059.176-.059.083 0 .15-.035.15-.078s.07-.078.156-.078c.087 0 .157-.035.157-.078s.063-.079.14-.079c.076 0 .19-.07.251-.156.063-.086.176-.157.252-.157.077 0 .14-.027.14-.061s.111-.127.247-.208c.381-.225 1.71-1.583 1.71-1.748 0-.034.07-.112.156-.174.086-.063.157-.176.157-.252 0-.077.035-.14.078-.14s.078-.053.078-.117c0-.065.035-.118.079-.118.043 0 .078-.052.078-.117s.035-.117.078-.117.078-.07.078-.157c0-.086.036-.156.079-.156.043 0 .078-.071.078-.157 0-.086.035-.157.078-.157s.078-.085.078-.19c0-.106.036-.213.079-.24.043-.027.078-.132.078-.235 0-.103.035-.208.078-.235.043-.026.078-.167.078-.313 0-.145.03-.283.067-.306.237-.146.096-3.929-.153-4.082-.039-.024-.07-.127-.07-.23 0-.102-.035-.208-.078-.235-.043-.026-.079-.116-.079-.2s-.035-.152-.078-.152-.078-.067-.078-.15c0-.159-.313-.811-.411-.854-.032-.015-.059-.076-.059-.137 0-.061-.035-.111-.078-.111s-.078-.068-.078-.15c0-.083-.027-.162-.059-.176-.032-.015-.217-.237-.41-.495-.362-.48-.976-1.136-1.063-1.136-.027 0-.148-.106-.269-.235-.12-.13-.251-.235-.29-.235-.04 0-.14-.061-.223-.137a2.086 2.086 0 0 0-.367-.248c-.119-.06-.215-.14-.215-.176 0-.036-.07-.065-.157-.065-.086 0-.157-.035-.157-.078s-.07-.079-.156-.079-.157-.03-.157-.069c0-.038-.079-.087-.176-.108a9.373 9.373 0 0 1-.724-.24c-.877-.322-2.555-.516-3.405-.394zm43.963.081c-.03.029-.053 2.687-.053 5.906 0 5.516.046 7.028.233 7.74.228.868.277 1.017.332 1.017.034 0 .062.046.062.102 0 .144.184.523.254.524.032 0 .059.055.059.122 0 .126.895 1.052 1.016 1.052.038 0 .115.047.173.105.201.201 1.193.539 2.014.685.619.11 1.207.148 2.334.149h1.507v-5.009h-.782c-.47 0-.783-.031-.783-.078 0-.043-.072-.078-.16-.078-.188 0-.545-.331-.545-.506 0-.066-.032-.12-.071-.12-.141 0-.179-1.131-.211-6.36l-.033-5.303h-2.647c-1.456 0-2.671.023-2.699.052zm10.566 0c-.028.029-.052 3.956-.052 8.727v8.676h5.401V1.063h-2.648c-1.457 0-2.672.023-2.701.052zm30.475.067c-.731.1-1.218.198-1.527.309-.643.23-1.291.533-1.291.603 0 .035-.056.065-.125.065s-.224.105-.345.234c-.12.13-.242.235-.27.235-.133 0-.904.996-.904 1.167 0 .047-.035.086-.078.086s-.078.053-.078.118a.761.761 0 0 1-.079.274l-.156.31a1.05 1.05 0 0 0-.079.392c0 .13-.035.236-.078.236-.048 0-.078.418-.078 1.096 0 .678.03 1.096.078 1.096.043 0 .078.103.078.23s.036.252.079.279c.043.026.078.116.078.2s.035.152.078.152.079.07.079.156c0 .087.032.157.073.157.04 0 .094.069.121.152.027.084.152.264.279.4.127.136.231.275.231.309 0 .034-.104.173-.231.309s-.252.316-.279.4c-.027.083-.081.152-.121.152-.041 0-.073.07-.073.157 0 .086-.036.156-.079.156-.043 0-.078.068-.078.152 0 .084-.035.174-.078.2-.043.027-.079.168-.079.313 0 .146-.035.287-.078.313-.047.03-.078.574-.078 1.37 0 .797.031 1.34.078 1.37.043.027.078.187.078.357 0 .17.036.308.079.308.043 0 .078.086.078.191 0 .105.035.213.078.24.043.026.079.117.079.2 0 .084.035.152.078.152s.078.044.078.098c0 .054.088.2.196.325.107.125.195.256.195.29 0 .142.728.77 1.177 1.014.192.105.361.217.376.25.014.032.077.058.14.058.063 0 .245.066.404.146.301.15 1.006.326 1.904.473.311.052 1.744.086 3.581.086h3.064v-5.001l-2.329-.037c-2.361-.038-3.072-.088-3.072-.215 0-.038-.057-.07-.127-.07-.069 0-.245-.13-.391-.29-.221-.24-.265-.348-.265-.649 0-.53.136-.746.626-.995l.431-.218 2.563-.024 2.564-.024V7.88l-2.72-.023c-2.5-.022-2.743-.036-2.994-.173-.373-.202-.465-.343-.468-.72-.002-.345.196-.657.418-.657.07 0 .128-.035.128-.078 0-.051.992-.079 2.819-.079h2.819l-.021-2.524-.021-2.524-2.896-.01c-1.992-.008-3.128.02-3.639.09zM33.736 9.396v8.026h5.009v-5.59c0-3.075.022-5.646.048-5.714.038-.1.177-.124.704-.124.386 0 .657.032.657.078 0 .043.092.078.203.078.141 0 .31.113.548.365.37.392.445.712.247 1.064-.214.382-.422.49-1.272.666l-.313.065-.02 2.286-.021 2.286h.783c.47 0 .784-.031.784-.078 0-.044.207-.079.465-.079.256 0 .487-.035.514-.078.026-.043.135-.078.24-.078a.824.824 0 0 0 .328-.073 3.39 3.39 0 0 1 .508-.174c.204-.055.372-.128.372-.162 0-.033.07-.06.156-.06s.157-.027.157-.06c0-.032.097-.103.215-.157.402-.184.952-.64 1.27-1.054.511-.667.628-.86.628-1.038 0-.065.035-.118.079-.118.043 0 .078-.106.078-.235 0-.13.031-.235.07-.235.119 0 .178-.536.217-1.957.043-1.586.015-1.737-.531-2.846-.273-.553-1.353-1.772-1.57-1.772-.06 0-.16-.07-.221-.156-.062-.086-.176-.157-.252-.157-.077 0-.14-.035-.14-.078s-.07-.078-.156-.078-.157-.036-.157-.079c0-.043-.068-.078-.152-.078-.083 0-.173-.035-.2-.078-.027-.043-.132-.079-.235-.079-.102 0-.206-.03-.23-.07-.023-.037-.157-.089-.297-.113-.14-.025-.45-.086-.686-.137-.284-.061-1.694-.103-4.129-.124l-3.698-.03v8.025zm33.97.003v8.023h5.01v-5.59c0-3.075.02-5.646.047-5.714.037-.098.17-.124.626-.124.334 0 .579.033.579.078 0 .043.16.078.355.078.669 0 1.071.667.93 1.543-.093.585-.487.884-1.162.884h-.436v3.679h.434c.452 0 .774.12.975.365.274.335.313.672.313 2.752v2.049h5.177l-.038-2.211c-.056-3.232-.175-3.76-1.05-4.674-.225-.236-.41-.451-.41-.478 0-.026.114-.157.254-.291.449-.43.654-.78.833-1.426.053-.194.13-.46.17-.592.102-.336.092-1.99-.016-2.44-.184-.774-.6-1.586-1.037-2.026a2.953 2.953 0 0 1-.28-.332c-.064-.092-.16-.167-.216-.167-.055 0-.1-.035-.1-.079 0-.043-.053-.078-.117-.078-.065 0-.118-.03-.118-.069 0-.038-.061-.089-.136-.113a1.927 1.927 0 0 1-.333-.163c-.437-.268-1.171-.538-1.8-.662-1.11-.218-1.652-.245-4.958-.245h-3.496v8.023zm14.95-5.714v2.309h1.675c1.454 0 1.68.016 1.722.124.026.068.047 2.64.047 5.714v5.59h5.01V5.994h3.522V1.376H82.656v2.309zM57.323 5.8c.243.03.442.087.442.125 0 .038.088.069.196.069.108 0 .196.035.196.078s.053.078.117.078c.065 0 .118.036.118.079 0 .043.055.078.123.078.233 0 1.207 1.16 1.207 1.438 0 .065.035.14.078.167.044.026.079.132.079.234 0 .103.035.209.078.235.045.028.078.458.078 1.024 0 .536-.035 1.044-.078 1.13l-.157.31a.727.727 0 0 0-.078.241c0 .294-1.097 1.483-1.369 1.483-.065 0-.118.035-.118.078s-.07.078-.157.078c-.086 0-.156.036-.156.079 0 .043-.106.078-.235.078s-.235.035-.235.078c0 .047-.287.079-.704.079s-.705-.032-.705-.079c0-.043-.088-.078-.195-.078-.108 0-.196-.035-.196-.078s-.053-.079-.118-.079c-.331 0-1.447-.966-1.447-1.253a.078.078 0 0 0-.079-.077c-.043 0-.078-.07-.078-.157 0-.086-.035-.156-.078-.156s-.078-.088-.078-.196c0-.108-.032-.196-.07-.196-.135 0-.297-1.7-.175-1.822.048-.048.088-.22.088-.38 0-.161.035-.315.078-.342.043-.026.078-.134.078-.239 0-.105.036-.191.079-.191.043 0 .078-.07.078-.157 0-.086.03-.156.065-.156.036 0 .115-.097.176-.214.153-.296.746-.882.892-.882.066 0 .12-.035.12-.078s.052-.079.117-.079c.064 0 .117-.035.117-.078s.069-.078.152-.078c.084 0 .174-.035.2-.078.027-.043.179-.081.338-.084a1.49 1.49 0 0 0 .445-.073c.086-.037.195-.055.242-.04.047.014.285.05.529.081z" fill="#000"/></svg>