<svg width="148" height="30" viewBox="0 0 148 30" fill="none" xmlns="http://www.w3.org/2000/svg"><path fill-rule="evenodd" clip-rule="evenodd" d="M10.067.036L8.985.138c-2.484.236-5.241.928-7.318 1.837-.92.402-1.238.65-1.4 1.089C.1 3.522 0 5.537 0 8.509c0 2.778.07 4.188.302 6.042.52 4.163 1.452 6.478 3.678 9.129 1.733 2.064 4.532 4.378 7.327 6.058.752.452.867.416 2.823-.887 3.09-2.058 5.766-4.621 7.267-6.96 1.62-2.523 2.337-5.406 2.621-10.542.093-1.675.049-5.632-.08-7.256-.1-1.253-.219-1.459-1.067-1.862C20.618 1.16 17.262.32 14.205.064c-.82-.07-3.518-.088-4.138-.028zm129.045 2.222c-.065.26-.368.391-1.213.526-2.202.351-2.931 1.546-2.931 4.802 0 1.149.092 1.743.362 2.34.404.89 1.034 1.39 1.996 1.586 1.392.284 2.67-.3 3.25-1.483.279-.568.352-.944.354-1.812.005-2.019-.969-3.278-2.606-3.372-.692-.04-1.067.057-1.571.404l-.39.268.052-.209c.156-.618.685-.953 1.829-1.155.453-.08 1.007-.213 1.23-.297.655-.245 1.009-.771 1.01-1.504v-.279h-.663c-.643 0-.664.005-.709.185zm-85.523.312c-.027.027-.05.329-.05.67v.621h1.715V2.52h-.807c-.445 0-.83.022-.858.05zm-22.077.75l-.291.03.048 1.236c.027.68.05 2.639.05 4.353v3.118h1.714V8.406h3.43v1.031c0 .568.022 1.39.049 1.826l.049.794h1.617V3.265h-1.715v3.8h-3.408l-.048-.57a31.589 31.589 0 0 1-.048-1.9v-1.33l-.578.013a14.38 14.38 0 0 0-.87.042zm112.486 1.515c-1.067.188-1.948.976-1.948 1.743v.263h1.61l.071-.236c.097-.32.386-.517.767-.522.689-.01.982.304.982 1.05v.453l-.801.002c-1.893.002-2.819.593-2.909 1.857-.093 1.295.682 2.093 2.028 2.089.281-.002.569-.055.763-.143.313-.142.914-.696.925-.852.004-.046.063.117.131.363l.125.447.876.021c.482.012.875.012.875 0a7.75 7.75 0 0 0-.121-.394c-.094-.29-.131-.84-.167-2.496-.044-2.018-.055-2.14-.219-2.472-.349-.709-1.075-1.131-2.071-1.205a4.532 4.532 0 0 0-.917.032zm-36.174.258c-.719.201-1.267.654-1.62 1.339-.296.575-.391 1.045-.391 1.937 0 1.293.277 2.042.999 2.701.55.503.986.651 1.908.651.652 0 .751-.02 1.208-.244.805-.396 1.326-1.14 1.326-1.892v-.21h-.783c-.762 0-.783.004-.783.167-.001.48-.588.926-1.124.855-.611-.082-.915-.506-1.051-1.462-.142-1.007.118-2.145.554-2.42a1.027 1.027 0 0 1 1.584.696l.05.3h1.574l-.05-.422c-.147-1.246-1.032-2.019-2.386-2.082-.397-.018-.746.011-1.015.086zm15.866-.059l-.65.025-.076.277c-.23.842-1.112 3.847-1.12 3.815-.004-.02-.268-.942-.584-2.049l-.576-2.012-.912-.02c-.502-.012-.912-.002-.912.021s.505 1.483 1.123 3.244c.787 2.243 1.108 3.252 1.073 3.369-.113.373-.449.893-.641.992a1.33 1.33 0 0 1-.507.106c-.166 0-.304.008-.306.018-.13.614-.187 1.22-.118 1.264.343.218 1.483.106 1.925-.189.588-.391.775-.82 2.138-4.902.704-2.106 1.279-3.87 1.279-3.921 0-.059-.091-.088-.243-.078a50.63 50.63 0 0 1-.893.04zm1.383.05c.023.06.452.722.954 1.472.501.75.911 1.397.911 1.44 0 .043-.442.838-.982 1.767-.54.93-.981 1.708-.981 1.73 0 .024.478.042 1.063.042h1.064l.614-1.23.613-1.228h.523v2.463l.839-.02.839-.022-.028-1.2-.027-1.2.214-.042c.117-.022.247-.012.288.023.041.035.343.584.671 1.221l.597 1.158 1.062.001c.585.001 1.063-.017 1.063-.04 0-.024-.453-.81-1.008-1.748l-1.007-1.705.473-.73.97-1.494.495-.763h-2.147l-.631 1.21c-.55 1.056-.656 1.214-.827 1.235l-.196.023V4.98h-1.732l.03 1.23.029 1.228-.188-.002c-.168-.002-.263-.14-.833-1.21l-.644-1.209-1.061-.02c-.907-.018-1.055-.006-1.02.088zm-26.532.015c-1.173.299-1.902.977-1.902 1.768v.277l.792-.02.792-.022.084-.26c.205-.635 1.33-.692 1.645-.085.065.124.117.407.117.628v.402l-.917.046c-1.24.063-1.816.242-2.284.71-.425.424-.565.845-.51 1.534.072.881.614 1.511 1.45 1.685.829.171 1.5-.037 2.012-.627l.286-.33.113.421.112.421.881.021.882.021-.055-.17c-.169-.53-.2-.88-.244-2.815l-.048-2.123-.217-.392c-.408-.736-1.061-1.074-2.132-1.106-.39-.012-.775-.005-.858.016zm14.652 1.792c0 2.212-.068 2.715-.414 3.06-.184.184-.307.243-.511.243H112v1.436l.503-.037c.66-.048 1.207-.29 1.589-.704.582-.631.74-1.245.794-3.098l.041-1.397h1.249v5.216h1.715V5.053h-4.698v1.838zM71.696 5.303c-.997.259-1.752 1.017-1.752 1.76v.225h.82c.76 0 .82-.01.82-.143 0-.079.086-.244.19-.368.354-.42 1.187-.369 1.49.093.068.104.142.388.164.631l.04.442-.811.045c-1.482.082-2.017.244-2.523.765-.757.778-.586 2.296.326 2.899.35.232 1.1.374 1.585.3.414-.062.907-.374 1.191-.755l.206-.275.047.214c.026.117.08.322.121.455l.074.242h.852c.468 0 .851-.02.851-.045 0-.025-.047-.234-.104-.466-.069-.274-.121-1.103-.153-2.394-.052-2.16-.1-2.45-.492-2.924-.126-.153-.437-.378-.708-.51-.416-.205-.577-.242-1.172-.263-.41-.015-.84.014-1.062.072zM89.73 6.71c.026.83.048 2.306.049 3.28v1.773l.839-.021.839-.021-.011-1.241-.011-1.241.992-.053c.545-.03 1.029-.03 1.073-.003.054.033.082.47.082 1.275v1.225h1.736l-.048-.458c-.026-.252-.048-1.71-.048-3.24V5.201h-1.715v2.6l-1.013.023c-.557.012-1.027.008-1.044-.009-.017-.017-.03-.612-.03-1.322V5.202h-1.74l.05 1.509zM58.55 5.388c-.513.144-.64.215-1.043.586-.417.384-.64.732-.826 1.29-.45 1.354-.172 3.025.652 3.917.766.83 2.118 1.098 3.306.654.79-.295 1.425-1.062 1.667-2.011.177-.692.118-2.113-.112-2.69-.321-.809-1.017-1.506-1.707-1.711-.469-.14-1.499-.158-1.937-.035zm18.575 1.36c.05 1.597-.028 2.799-.206 3.142-.162.314-.47.528-.759.528-.235 0-.25.016-.25.25 0 .137.02.455.047.707l.048.458h.272c.681 0 1.555-.376 1.852-.797.523-.742.688-1.506.688-3.186V6.618h1.245l.048 1.285c.027.707.05 1.864.05 2.57v1.286h1.64V5.277h-4.72l.046 1.471zm6.043-.118c.027.744.049 2.205.049 3.246v1.894l1.883-.027c1.728-.024 1.916-.04 2.293-.19.898-.358 1.348-.96 1.4-1.875.043-.732-.144-1.21-.653-1.665-.527-.474-.965-.603-2.201-.649l-1.044-.038-.021-1.025-.02-1.024h-1.736l.049 1.353zm-41.506-1.2c-1.1.164-1.897.828-2.036 1.692l-.05.32.843-.022.845-.02.062-.242c.079-.304.377-.467.859-.467.612 0 .915.367.915 1.107v.366l-.988.036c-1.125.042-1.607.163-2.08.524-.464.354-.656.784-.657 1.47 0 1.21.6 1.849 1.806 1.921.775.046 1.124-.09 1.618-.63.313-.342.375-.383.375-.245 0 .09.04.295.087.453l.086.288H45.1l-.116-.354c-.089-.27-.127-.857-.16-2.482l-.045-2.13-.225-.438a2.104 2.104 0 0 0-.545-.683c-.528-.401-1.49-.592-2.346-.464zm21.645 3.2v3.278h1.715V9.375h2.088v1.216c0 .67.014 1.231.031 1.248.017.018.403.021.858.008l.827-.023V5.35H67.11v2.586l-.503.048c-.277.026-.747.048-1.044.048h-.54V5.351h-1.716V8.63zM49.96 8.033v2.608h-2.088v-5.14h-1.715v2.782c0 1.531.022 2.99.048 3.241l.048.458h4.676v1.192h1.715v-2.526l-.466-.022-.466-.022-.02-2.59-.019-2.588H49.96v2.607zm3.654.671v3.278h.399c.22 0 .605-.021.857-.048l.459-.047V9.674c0-1.217-.022-2.671-.049-3.23l-.049-1.018h-1.617v3.278zM14.302 5.888c.066.065.09.706.09 2.42v2.331l2.292.02 2.293.02v4.693l-2.311.037-2.312.038-.037 2.384-.037 2.384H9.73l-.037-2.384-.038-2.384-2.311-.037-2.312-.038-.02-2.198c-.012-1.208-.003-2.273.02-2.365l.04-.168h4.62V8.263c0-1.832.022-2.386.094-2.415.051-.021 1.068-.04 2.26-.044 1.591-.004 2.19.018 2.255.084zm124.118.366c.32.164.578.475.68.816.336 1.132.123 2.575-.434 2.94-.479.313-1.091.279-1.469-.083-.34-.325-.477-.838-.478-1.782 0-.762.016-.85.224-1.266.163-.327.294-.483.484-.578.298-.148.753-.17.993-.047zm-78.329.567c.497.367.763 1.429.608 2.426-.15.974-.535 1.42-1.226 1.428-.67.006-1.075-.41-1.237-1.27-.245-1.294.146-2.54.858-2.736.273-.075.798.005.997.152zm85.389 2.245c0 .433-.026.539-.176.7-.526.567-1.489.64-1.76.134-.133-.247-.091-.711.085-.934.238-.303.547-.405 1.236-.408l.615-.003v.51zM86.874 8.97c.392.392.309 1.006-.176 1.301-.194.119-.376.145-1.002.145h-.764V8.692l.856.025c.843.025.86.029 1.086.255zm13.195.39c0 .457-.02.526-.205.699-.316.295-.648.432-1.048.432-.504 0-.761-.233-.758-.685.004-.387.121-.617.413-.809.176-.116.352-.144.908-.144l.69-.001v.508zm-26.62.058c0 .73-.42 1.152-1.197 1.208-.411.03-.452.017-.674-.204-.212-.212-.232-.27-.198-.572.04-.348.257-.66.54-.778.082-.034.46-.064.839-.066l.69-.005v.417zm-30.35.225c0 .471-.012.506-.281.775-.837.836-2.078.36-1.692-.65.175-.459.518-.614 1.359-.616l.615-.002v.493zm66.101 6.219c-.028.044-.027.33.002.635l.052.556.794-.021c.914-.025.882.006.798-.777l-.051-.474h-.773c-.473 0-.792.031-.822.08zm3.039.534l.022.614h1.566l.021-.614.022-.615h-1.653l.022.615zm-23.237-.4l-.292.046-.875 2.198c-.814 2.045-.88 2.183-.957 1.988a1.498 1.498 0 0 1-.083-.26c-.001-.029-.397-.924-.88-1.989l-.879-1.937-.91-.021c-.5-.012-.91-.004-.91.017s.674 1.448 1.497 3.171c1.649 3.452 1.577 3.22 1.192 3.851-.239.39-.532.497-1.237.447l-.606-.043-.087.561c-.048.31-.07.588-.051.62.07.112.705.226 1.246.223.9-.006 1.394-.266 1.875-.99.208-.312 3.48-7.751 3.48-7.91 0-.05-1.157-.028-1.523.029zM72.106 17.72v1.64l.43-.002.428-.002.28-.73c.267-.7.28-.77.28-1.638v-.907h-1.418v1.64zm27.87.4c-.373.104-.558.23-.893.603l-.203.226-.002-.273c-.004-.503-.014-.509-.83-.509h-.738v9.015h1.715v-3.066l.298.255c.354.302.728.427 1.282.427 1.1 0 1.933-.729 2.258-1.977.136-.52.153-1.93.031-2.508-.12-.563-.45-1.255-.765-1.605-.487-.538-1.422-.794-2.153-.589zm5.76.018c-.909.243-1.634 1.006-1.639 1.724l-.001.242h1.628l.047-.214a.912.912 0 0 1 .236-.39c.255-.24.968-.256 1.223-.029.23.205.37.567.37.955v.326l-.95.045c-1.078.05-1.562.171-2.078.519-.509.343-.733.805-.733 1.511 0 1.048.557 1.72 1.581 1.911.807.15 1.499-.104 1.964-.722.193-.256.291-.27.291-.044.001.065.036.244.078.398l.078.28h.854c.47 0 .854-.026.854-.057 0-.031-.038-.174-.085-.317-.049-.152-.106-1.155-.136-2.42-.048-2.037-.061-2.184-.223-2.555-.361-.822-1.229-1.288-2.379-1.278a4.808 4.808 0 0 0-.98.115zm12.173-.066l-.242.03V20.7h-2.088v-2.607h-1.739l.049 2.247a208.6 208.6 0 0 1 .05 3.241v.994h1.713l-.018-1.248-.018-1.248 1.015-.02 1.015-.022.047.394c.026.216.048.787.048 1.268v.876h1.641v-6.557l-.615.012a12.53 12.53 0 0 0-.858.042zm2.89 3.224v3.279h1.704l1.031-2.006 1.03-2.006.038 1.987.037 1.988.28-.004c.153-.002.531-.01.838-.019l.56-.015v-6.482l-.876.002-.877.002-1.006 1.98-1.007 1.98-.02-1.982-.02-1.982h-1.712v3.279zm-10.084.077l.02 3.281.838-.02.837-.022.025-.633c.013-.349.001-1.815-.028-3.26l-.052-2.626h-1.66l.02 3.28zm-16.668-2.99c-.072.117-.398.686-.726 1.263-.565.994-.61 1.05-.828 1.052-.23.002-.233-.002-.28-.456a15.135 15.135 0 0 1-.048-1.229v-.771h-1.64v6.482h1.715v-2.459h.633l.699 1.23.698 1.229h1.073c.59 0 1.072-.016 1.072-.035 0-.02-.476-.782-1.059-1.695-.582-.913-1.058-1.71-1.058-1.772 0-.061.444-.754.985-1.54.54-.785.983-1.447.983-1.471 0-.024-.47-.044-1.045-.044h-1.045l-.13.215zm-32.96-.069c-1.547.239-2.536 1.791-2.374 3.728.121 1.45.9 2.546 2.05 2.88.629.182 1.634.112 2.226-.156.8-.362 1.39-1.149 1.593-2.126.13-.621.05-1.96-.144-2.46-.216-.552-.63-1.137-.976-1.376-.618-.428-1.541-.618-2.375-.49zm-13.63.076c-.514.076-.996.3-1.376.644-.656.592-.96 1.322-1.019 2.449-.085 1.613.523 2.836 1.677 3.377.383.18.509.199 1.282.199.788 0 .896-.017 1.324-.215 1.063-.49 1.655-1.59 1.658-3.078.002-1.158-.33-2.064-.98-2.672-.437-.408-.829-.593-1.48-.698-.53-.086-.539-.086-1.085-.006zm7.072.113c-.214.108-.47.294-.57.41-.214.255-.27.22-.27-.162v-.286h-1.568v9.016h1.716V24.32l.242.23c.408.387.704.5 1.324.502.465.003.632-.032.987-.206 1.074-.525 1.615-1.948 1.408-3.7-.099-.833-.276-1.356-.642-1.895-.416-.613-.897-.877-1.67-.918-.501-.026-.614-.007-.958.168zm12.302-.136l-.988.028v6.49l1.994-.03c2.328-.034 2.578-.085 3.162-.651.495-.481.642-1.11.395-1.7-.198-.473-.51-.722-1.19-.946-.135-.045-.128-.06.076-.164.567-.292.857-.726.857-1.287 0-.78-.475-1.34-1.36-1.603-.415-.123-1.554-.176-2.946-.137zm8.478.12c-.61.207-1.028.533-1.28.997-.517.954-.236 2.08.647 2.597.186.109.338.223.338.254 0 .03-.285.577-.633 1.215-.349.637-.634 1.2-.634 1.25 0 .07.194.08.839.038.461-.03.849-.075.861-.102.013-.027.282-.519.599-1.093l.575-1.043.502-.022.501-.022v2.242h1.74l-.05-1.732a139.81 139.81 0 0 1-.049-3.241v-1.509l-1.734.002c-1.596.002-1.772.015-2.222.169zm-42.537.082c-.923.292-1.528.914-1.528 1.57v.263h1.606l.085-.224c.21-.555 1.598-.612 1.885-.078.142.266.09.636-.116.83-.175.164-.265.183-1.006.205l-.815.026v1.084l.764.035c1.063.048 1.398.24 1.398.802a.796.796 0 0 1-.497.72c-.295.124-1.017.134-1.241.018-.269-.138-.498-.38-.498-.525 0-.123-.076-.136-.82-.136h-.82v.301c0 .618.38 1.071 1.228 1.46.773.353 2.25.331 3.132-.047.432-.185.925-.639 1.092-1.006.346-.758.001-1.667-.783-2.066l-.214-.108.279-.173c.41-.253.708-.763.708-1.21 0-.864-.55-1.463-1.603-1.744-.466-.124-1.84-.122-2.237.003zm7.923-.048c-1.447.02-1.547.03-1.547.16 0 .075-.068.82-.15 1.656-.3 3.015-.433 3.344-1.352 3.344h-.437v2.384h1.715V25.02h3.722l.022.485c.012.267.047.484.078.484h1.621v-2.302l-.428-.023-.43-.023-.019-2.589-.02-2.589-.614.017c-.337.01-1.31.027-2.161.04zm59.942 1.055c.482.294.777 1.44.635 2.465-.09.651-.272 1.03-.599 1.248-.417.277-1.099.209-1.48-.148-.164-.153-.168-.196-.168-1.695 0-1.502.004-1.543.168-1.691.278-.252.448-.317.839-.319.238 0 .457.05.605.14zm-38.34.223c.123.069.305.287.41.492.163.316.194.486.217 1.2.033 1.032-.088 1.518-.469 1.886-.215.21-.331.26-.661.287-.704.058-1.073-.259-1.291-1.112-.161-.627-.113-1.68.099-2.15.334-.743 1.014-.985 1.696-.603zm-6.95-.024c.346.165.563.516.69 1.118.205.968.083 1.96-.303 2.466-.35.458-1.169.498-1.646.08l-.25-.22v-3.014l.212-.204c.356-.34.871-.43 1.298-.228zm13.839.085c.157.116.203.22.221.493.022.32.006.355-.223.495-.2.122-.377.15-.936.15h-.69v-1.362l.714.037c.556.03.759.07.914.186zm8.438.654v.857h-.666c-.366 0-.76-.036-.876-.08-.52-.197-.732-.668-.51-1.135.184-.388.47-.495 1.325-.497l.727-.002v.857zm-28.996-.652c.13.076.303.299.422.54.186.38.202.48.202 1.341 0 .845-.018.967-.187 1.304-.24.479-.578.708-1.044.708-.466 0-.804-.23-1.044-.708-.169-.337-.186-.459-.186-1.303 0-.862.015-.962.202-1.342.11-.225.295-.467.41-.538.279-.172.936-.173 1.225-.002zm-6.844.589c.026.313.048 1.168.048 1.9v1.33h-.866c-.863 0-.866 0-.817-.168a12.2 12.2 0 0 0 .456-2.353c.066-.601.133-1.135.149-1.186.02-.062.19-.093.506-.093h.476l.048.57zm65.816 1.837c0 .43-.02.492-.242.719-.306.314-.628.45-1.066.45-.674 0-.994-.629-.61-1.198.248-.367.448-.439 1.229-.44l.689-.001v.47zm-38.364-.1c.552.128.741.676.379 1.097-.177.206-.196.21-1.118.234l-.94.025V22.2l.206-.032c.393-.06 1.176-.049 1.473.02z" fill="#000"/></svg>