<svg width="111" height="22" viewBox="0 0 111 22" fill="none" xmlns="http://www.w3.org/2000/svg"><path fill-rule="evenodd" clip-rule="evenodd" d="M.07.033C.013.058 0 2.31 0 11.016v10.952l1.203-.015 1.204-.014.028-5.307.027-5.306.247.354c.136.195.292.403.346.462.055.059.099.134.099.167s.05.096.11.14c.061.044.111.1.111.123 0 .037.195.315.476.68.047.06.126.179.176.262.05.084.11.153.135.153.024 0 .043.031.043.07 0 .04.05.107.11.15.062.045.111.114.111.154 0 .04.063.136.139.212.076.076.138.158.138.183 0 .025.074.13.165.233.091.103.166.213.166.244s.05.093.112.137c.06.044.11.115.11.158s.046.118.1.167c.056.05.186.214.289.367.103.152.208.301.233.331l.154.189c.06.073.11.153.11.177 0 .024.056.102.124.171.069.07.16.196.203.28.043.083.1.152.125.152.025 0 .046.026.046.058 0 .031.062.12.138.196.076.076.138.158.138.182 0 .04.062.124.276.377a.24.24 0 0 1 .056.125c0 .032.021.058.046.058.026 0 .082.068.125.15.043.084.147.225.23.313.084.09.153.193.153.232 0 .038.02.078.044.088.024.01.167.193.316.406.15.213.316.428.37.477.055.05.1.125.1.168 0 .043.05.114.11.158.061.043.11.098.11.12 0 .022.137.222.304.444.167.222.304.43.304.46.001.032.051.094.112.138.061.043.11.111.11.15 0 .039.02.07.044.07.024 0 .084.07.134.153.252.426.146.401 1.724.401.864 0 1.419-.02 1.419-.053 0-.029-.056-.11-.125-.18a5.362 5.362 0 0 1-.512-.695 1.595 1.595 0 0 0-.207-.24c-.084-.082-.152-.183-.152-.225 0-.042-.05-.112-.111-.156-.06-.044-.11-.112-.11-.15 0-.04-.02-.072-.042-.072-.023 0-.104-.093-.18-.207a3.82 3.82 0 0 0-.194-.27 4.017 4.017 0 0 1-.166-.217 2.458 2.458 0 0 0-.18-.224c-.037-.038-.069-.096-.069-.129 0-.032-.024-.059-.055-.059a.057.057 0 0 1-.055-.058c0-.032-.063-.12-.139-.196-.076-.076-.138-.16-.138-.187 0-.027-.032-.082-.071-.122a4.175 4.175 0 0 1-.235-.295 5.773 5.773 0 0 0-.261-.328c-.053-.06-.097-.13-.097-.158 0-.028-.075-.12-.166-.205-.091-.086-.166-.184-.166-.219s-.062-.125-.138-.201c-.076-.076-.139-.156-.139-.178 0-.021-.074-.126-.165-.232-.092-.107-.166-.215-.166-.24 0-.027-.075-.118-.166-.203-.092-.085-.166-.182-.166-.216 0-.033-.025-.06-.056-.06-.03 0-.055-.038-.055-.083 0-.046-.02-.083-.044-.083-.023 0-.084-.069-.135-.153a2.717 2.717 0 0 0-.233-.313c-.078-.088-.141-.18-.141-.205 0-.024-.063-.106-.139-.182-.076-.076-.138-.159-.138-.184 0-.025-.05-.082-.11-.126-.062-.043-.111-.106-.111-.14 0-.033-.044-.108-.098-.167a7.88 7.88 0 0 1-.37-.495 4.428 4.428 0 0 0-.373-.476c-.055-.05-.1-.114-.1-.142 0-.029-.045-.1-.099-.16a7.55 7.55 0 0 1-.371-.494 4.57 4.57 0 0 0-.372-.477c-.054-.05-.099-.13-.099-.18 0-.078.084-.09.627-.09.586 0 .864-.03 1.559-.17.412-.083.928-.221 1.037-.278a.534.534 0 0 1 .207-.05c.061 0 .111-.025.111-.056 0-.03.033-.055.072-.055.102 0 .37-.13.37-.18 0-.023.05-.041.112-.041.06 0 .11-.025.11-.056 0-.03.048-.055.107-.055.058 0 .114-.019.124-.041.01-.023.156-.145.325-.27.462-.344 1.094-1.03 1.254-1.362.055-.114.118-.207.14-.208.024 0 .042-.05.042-.11 0-.062.025-.111.056-.111.03 0 .055-.05.055-.111s.025-.11.055-.11.056-.075.056-.167c0-.091.025-.166.055-.166s.055-.087.055-.193c0-.107.022-.194.048-.194.09 0 .14-.698.14-1.992 0-1.283-.047-1.967-.14-2.024-.026-.017-.048-.102-.048-.19 0-.087-.025-.174-.055-.193-.03-.019-.055-.082-.055-.141 0-.06-.025-.108-.056-.108-.03 0-.055-.062-.055-.138 0-.076-.025-.138-.055-.138s-.056-.038-.056-.084c0-.077-.1-.294-.166-.36a4.402 4.402 0 0 1-.19-.266 3.427 3.427 0 0 0-.372-.442c-.439-.426-.598-.564-.653-.564-.032 0-.057-.02-.057-.046 0-.025-.069-.081-.152-.124a.919.919 0 0 1-.18-.112 4.213 4.213 0 0 0-.47-.239 18.238 18.238 0 0 1-.54-.257.59.59 0 0 0-.234-.052c-.077 0-.14-.025-.14-.055S8.559.277 8.47.277c-.09 0-.178-.025-.197-.056-.019-.03-.155-.055-.303-.055-.161 0-.278-.027-.291-.067C7.66.048 6.78.029 3.897.017 1.83.008.107.016.069.033zm16.363 10.95v10.983h9.572v-2.102h-3.557c-2.694 0-3.574-.017-3.625-.067-.05-.05-.066-1.021-.066-4.033 0-3.566.009-3.97.087-4 .049-.019 1.555-.034 3.35-.034h3.26l-.015-1.093-.015-1.093-3.333-.014-3.334-.014V2.158h7.248V0h-9.572v10.983zM30.026.037c-.02.02-.037 4.963-.037 10.983v10.946h2.38v-4.754c0-2.614.014-4.793.033-4.841.03-.079.362-.088 3.181-.088h3.148v-2.157l-3.167-.014-3.168-.014V2.186l3.611-.015 3.612-.014-.015-1.065-.015-1.064-4.763-.014c-2.62-.008-4.78.002-4.8.023zM46.184.08c-.043.044-.122.274-.175.512a5.75 5.75 0 0 1-.145.559.845.845 0 0 0-.05.26c0 .072-.025.147-.056.166-.03.019-.055.132-.055.252s-.025.218-.056.218c-.03 0-.055.098-.055.218s-.025.234-.055.253c-.03.018-.056.118-.056.22 0 .104-.024.203-.055.222-.03.019-.055.12-.055.226a.786.786 0 0 1-.05.287c-.06.117-.396 1.51-.433 1.798-.015.114-.05.221-.076.238-.027.017-.05.129-.05.249s-.022.218-.05.218c-.027 0-.065.105-.084.235-.085.575-.102.652-.148.681-.027.017-.05.115-.05.218s-.022.2-.05.218c-.026.016-.062.124-.078.238a4.878 4.878 0 0 1-.085.43c-.07.281-.223.922-.295 1.244-.03.137-.08.349-.11.47-.03.122-.067.303-.084.402-.016.1-.051.194-.078.21-.028.018-.05.116-.05.218 0 .103-.025.203-.055.222-.03.019-.055.132-.055.252s-.025.218-.056.218c-.03 0-.055.098-.055.218s-.022.232-.05.249c-.026.016-.062.111-.08.21-.063.374-.358 1.64-.596 2.56a4.65 4.65 0 0 0-.087.429c-.016.114-.051.222-.078.238-.027.017-.05.13-.05.25 0 .119-.025.217-.055.217s-.055.1-.055.222c0 .121-.025.22-.056.22-.03 0-.055.1-.055.222s-.025.221-.055.221-.056.067-.056.149c0 .081-.023.224-.053.318-.1.323-.445 1.833-.445 1.952 0 .066-.024.136-.055.154-.03.02-.055.119-.055.222 0 .102-.022.2-.05.217-.027.017-.063.112-.08.21l-.065.375a1.71 1.71 0 0 1-.082.304 1.56 1.56 0 0 0-.076.277 7.09 7.09 0 0 1-.09.415 13.29 13.29 0 0 0-.106.47 2.238 2.238 0 0 1-.086.318c-.038.09.038.097 1.182.097h1.223v-.163c0-.09.025-.178.056-.197.03-.018.055-.132.055-.252s.025-.218.055-.218.056-.098.056-.218.024-.233.055-.252c.03-.019.055-.132.055-.252s.025-.218.056-.218c.03 0 .055-.1.055-.222s.022-.221.05-.221c.027 0 .063-.106.078-.235.044-.352.12-.714.31-1.477.093-.38.17-.745.17-.813 0-.069.025-.14.056-.159.03-.018.055-.132.055-.252s.025-.218.056-.218c.03 0 .055-.084.055-.188 0-.12.031-.2.087-.221.115-.044 6.461-.044 6.576 0 .055.021.087.1.087.218 0 .102.025.2.056.219.03.019.055.106.055.194 0 .088.022.217.05.287.027.07.115.426.195.791.08.366.17.74.2.834.029.094.053.248.053.343 0 .095.025.188.055.207.03.018.056.132.056.252s.024.218.055.218c.03 0 .055.1.055.221 0 .122.025.222.055.222s.056.112.056.249c0 .136.025.248.055.248s.056.099.056.219.022.231.049.248c.027.017.063.124.08.239.017.114.047.288.067.387l.037.18h1.184c.65 0 1.183-.018 1.182-.041a29.575 29.575 0 0 0-.284-1.315 4.909 4.909 0 0 1-.085-.428c-.016-.114-.051-.208-.078-.208-.028 0-.05-.1-.05-.221 0-.122-.025-.221-.055-.221s-.056-.099-.056-.218c0-.12-.025-.234-.055-.253-.03-.018-.055-.118-.055-.221 0-.103-.025-.203-.056-.221-.03-.02-.055-.119-.055-.222 0-.103-.025-.202-.055-.221-.03-.019-.056-.1-.056-.18 0-.079-.024-.22-.054-.314a14.687 14.687 0 0 1-.318-1.374c-.014-.114-.049-.221-.076-.238-.027-.017-.05-.115-.05-.218s-.024-.202-.055-.221c-.03-.019-.055-.119-.055-.222 0-.102-.025-.202-.056-.22-.03-.02-.055-.132-.055-.25s-.025-.23-.055-.249c-.03-.019-.056-.12-.056-.224 0-.105-.024-.19-.055-.19-.03 0-.055-.099-.055-.219s-.023-.232-.05-.248c-.027-.017-.062-.125-.077-.239-.046-.35-.34-1.593-.432-1.829a.949.949 0 0 1-.05-.287c0-.088-.025-.176-.055-.194-.03-.02-.056-.133-.056-.252 0-.12-.024-.219-.055-.219-.03 0-.055-.1-.055-.22 0-.123-.023-.222-.05-.222-.027 0-.062-.094-.078-.208a5.219 5.219 0 0 0-.092-.456 21.243 21.243 0 0 1-.112-.47 41.742 41.742 0 0 0-.445-1.83 1.284 1.284 0 0 1-.053-.315c0-.08-.025-.16-.056-.18-.03-.018-.055-.12-.055-.224 0-.105-.025-.19-.055-.19s-.055-.098-.055-.218-.025-.234-.056-.253c-.03-.018-.055-.132-.055-.252s-.025-.218-.055-.218-.056-.098-.056-.218-.022-.232-.049-.249c-.027-.016-.063-.111-.079-.21-.016-.1-.055-.28-.085-.402a27.688 27.688 0 0 1-.374-1.66 1.536 1.536 0 0 0-.076-.276c-.048-.113-.095-.308-.146-.61a1.474 1.474 0 0 0-.076-.276 1.72 1.72 0 0 1-.082-.304l-.065-.374c-.017-.1-.053-.194-.08-.21-.028-.018-.05-.115-.05-.218s-.025-.203-.055-.222c-.03-.018-.055-.08-.055-.135 0-.056-.04-.117-.088-.135C49.551.015 48.781 0 47.888 0c-1.34 0-1.638.014-1.704.08zM61.541.039c-.099.013-.18.047-.18.075 0 .029-.062.052-.138.052-.076 0-.138.025-.138.055s-.05.056-.111.056c-.06 0-.11.025-.11.055s-.038.055-.083.055c-.045 0-.257.112-.47.25a3.82 3.82 0 0 1-.422.248c-.057 0-1.018 1.017-1.018 1.079 0 .032-.05.095-.11.139-.061.043-.11.124-.11.178 0 .054-.022.098-.048.098-.08 0-.474.86-.62 1.356a2.552 2.552 0 0 1-.114.317.715.715 0 0 0-.049.263c0 .092-.025.167-.055.167s-.056.12-.056.265c0 .146-.023.29-.05.318-.1.101-.124 1.083-.148 5.915-.016 3.236-.005 4.884.032 4.921.03.031.056.261.056.512s.025.472.055.49c.03.02.055.125.055.235 0 .11.024.277.052.37.028.094.082.282.119.419.167.62.506 1.44.615 1.485.025.01.044.06.044.112 0 .052.05.13.111.174.061.043.11.122.11.173 0 .052.02.102.042.113.023.01.133.13.244.267.333.41.583.664.654.664.037 0 .137.075.223.166a.982.982 0 0 0 .178.166c.014 0 .22.112.461.249.24.137.481.249.535.249.054 0 .098.025.098.055s.06.055.134.055c.074 0 .144.032.157.07.018.053.54.069 2.365.069 1.825 0 2.348-.015 2.366-.07.012-.037.095-.069.184-.069s.161-.024.161-.055c0-.03.036-.055.079-.055.145 0 .93-.444 1.27-.719.188-.151.865-.824.865-.86 0-.018.03-.068.069-.11.144-.162.189-.227.32-.47.075-.136.155-.256.178-.266.022-.01.041-.067.041-.125 0-.058.025-.106.056-.106.03 0 .055-.048.055-.107 0-.06.025-.123.055-.142.03-.019.056-.082.056-.142 0-.059.024-.107.055-.107.03 0 .055-.05.055-.111 0-.062.023-.155.05-.208a2.06 2.06 0 0 0 .11-.331l.115-.443c.134-.516.223-1.577.223-2.647v-1.13H67.89v.679c-.002 1.05-.066 1.855-.201 2.531-.015.076-.041.22-.058.319-.016.099-.052.194-.079.21-.027.017-.049.092-.049.166 0 .074-.025.135-.055.135s-.056.062-.056.138c0 .076-.025.139-.055.139s-.055.05-.055.11c0 .061-.025.111-.056.111-.03 0-.055.044-.055.098 0 .055-.05.135-.11.179-.062.043-.111.11-.111.148 0 .09-.648.737-.738.737-.037 0-.104.05-.148.11-.043.062-.124.111-.178.111-.054 0-.098.025-.098.056 0 .03-.049.055-.108.055s-.12.022-.137.049c-.017.026-.087.061-.156.077s-.273.07-.454.12c-.378.104-1.842.127-2.02.032a.558.558 0 0 0-.22-.057.598.598 0 0 1-.226-.055l-.22-.11a.562.562 0 0 0-.209-.056c-.054 0-.135-.05-.179-.11-.044-.062-.111-.111-.15-.111-.038 0-.123-.044-.188-.097-.224-.185-.658-.616-.658-.654 0-.021-.045-.079-.102-.128-.105-.093-.42-.715-.517-1.022-.339-1.074-.387-2.087-.364-7.63.015-3.36.035-4.427.086-4.478.037-.037.067-.173.067-.302 0-.13.025-.25.056-.269.03-.019.056-.089.056-.155.003-.272.45-1.367.559-1.367.027 0 .049-.035.049-.079 0-.097.548-.653.776-.788.09-.053.164-.117.164-.14 0-.024.05-.044.111-.044.06 0 .11-.025.11-.055s.05-.055.111-.055.111-.025.111-.056c0-.03.045-.055.1-.055.054 0 .123-.02.152-.045.069-.06.5-.157 1.04-.234.667-.096 1.647.056 2.207.34a.482.482 0 0 0 .18.05c.046 0 .083.02.083.046 0 .025.069.08.153.124.083.043.207.128.274.19.477.432.735.714.735.804 0 .032.05.11.111.176.06.066.11.164.11.22 0 .054.026.1.056.1.03 0 .055.062.055.138 0 .076.022.138.05.138.026 0 .062.069.079.152.077.383.104.492.149.595.094.218.212 1.577.217 2.504l.003.512h2.324V7.01c0-.922-.1-2.041-.226-2.502a34.37 34.37 0 0 1-.116-.442 1.966 1.966 0 0 0-.106-.318.534.534 0 0 1-.05-.207c0-.061-.025-.112-.055-.112s-.055-.074-.055-.166c0-.09-.025-.165-.056-.165-.03 0-.055-.05-.055-.111s-.02-.11-.045-.11c-.025 0-.08-.088-.121-.194-.042-.107-.093-.194-.113-.194-.02 0-.081-.1-.136-.221-.055-.122-.12-.222-.143-.222-.024 0-.058-.044-.075-.1-.017-.054-.187-.252-.377-.44-.543-.534-.641-.622-.698-.622-.03 0-.062-.02-.072-.045-.026-.064-.672-.453-.753-.453-.037 0-.068-.025-.068-.055s-.05-.055-.11-.055c-.061 0-.111-.025-.111-.056 0-.03-.073-.055-.161-.055-.09 0-.172-.031-.185-.07-.018-.053-.535-.07-2.314-.075-1.26-.003-2.373.005-2.472.018zm13.28-.002c-.056.022-.07 2.27-.07 10.978v10.951h9.683v-2.102h-7.248V11.73h6.64V9.517h-6.64v-7.36h7.248V1.114c0-.903-.012-1.05-.087-1.08-.105-.04-9.427-.037-9.527.004zm18.992.001a.441.441 0 0 0-.164.078.255.255 0 0 1-.152.05c-.055 0-.1.025-.1.055s-.023.056-.052.056c-.078 0-.677.361-.817.493-.067.063-.147.115-.178.115-.032 0-.158.094-.282.208-.53.49-.773.728-.773.758 0 .018-.106.142-.235.275-.13.132-.347.405-.484.604-.137.2-.268.365-.29.366-.023.001-.042.04-.042.088 0 .047-.05.139-.11.204-.062.065-.112.151-.112.191 0 .04-.025.073-.055.073s-.055.05-.055.11c0 .061-.025.111-.056.111-.03 0-.055.024-.055.052 0 .044-.395.915-.559 1.234a.478.478 0 0 0-.05.18c0 .046-.024.083-.055.083-.03 0-.055.075-.055.166 0 .092-.025.166-.055.166s-.056.061-.056.135c0 .075-.022.15-.049.166-.027.016-.062.099-.078.183-.016.084-.079.34-.14.57-.377 1.417-.521 2.56-.523 4.147-.001 1.452.164 2.898.452 3.947.064.234.117.475.117.536 0 .06.025.11.055.11s.055.073.055.162c0 .09.025.179.056.197.03.02.055.094.055.166 0 .073.025.148.055.166.03.02.056.083.056.142 0 .06.025.107.055.107s.055.075.055.166c0 .092.025.166.056.166.03 0 .055.049.055.108s.025.123.056.141c.03.02.055.083.055.142 0 .06.025.107.055.107s.056.05.056.111c0 .06.024.11.055.11.03 0 .055.036.055.08 0 .072.158.41.221.474.016.015.066.102.111.194.046.091.127.214.18.273.053.059.097.14.097.18 0 .04.025.072.055.072s.055.031.055.07c0 .037.075.156.166.262.092.107.166.21.166.23 0 .02.075.115.166.213.092.098.166.195.166.217 0 .075 1.06 1.11 1.137 1.11.022 0 .08.047.13.104.18.206 1.267.837 1.443.837.057 0 .113.032.126.07.018.053.486.069 2.089.069s2.07-.016 2.088-.07a.109.109 0 0 1 .097-.069c.076 0 .918-.429.969-.492.129-.165.568-.296.618-.185.043.098.838.567.96.567.045 0 .082.025.082.055s.047.055.106.055c.058 0 .116.032.129.07.033.1 4.099.1 4.199 0a.32.32 0 0 1 .197-.07c.07 0 .127-.024.127-.055 0-.03.023-.055.052-.055.073 0 .746-.396.769-.452.01-.026.05-.046.088-.046.039 0 .149-.075.244-.166.096-.091.187-.166.203-.166.017 0 .137-.106.268-.235.13-.13.311-.298.4-.374.16-.136.358-.362.632-.722.076-.1.169-.214.207-.252.038-.038.069-.096.069-.128 0-.033.021-.06.046-.06.026 0 .082-.068.125-.152.043-.084.122-.2.175-.26.054-.058.097-.14.097-.18 0-.039.025-.072.055-.072.031 0 .056-.023.056-.052 0-.029.087-.201.193-.383.107-.182.194-.37.194-.418 0-.048.025-.087.055-.087.031 0 .056-.05.056-.11 0-.062.025-.112.055-.112s.055-.048.055-.107c0-.06.025-.123.056-.142.03-.018.055-.082.055-.141 0-.06.025-.108.055-.108.031 0 .056-.074.056-.166 0-.09.025-.166.055-.166s.055-.048.055-.107c0-.06.025-.123.056-.142.03-.018.055-.093.055-.166 0-.072.025-.147.055-.165.031-.02.056-.094.056-.166 0-.073.022-.146.049-.163.027-.017.061-.111.076-.21.015-.1.07-.355.122-.568.307-1.26.426-2.31.43-3.79.004-1.477-.102-2.442-.424-3.846-.116-.506-.25-.971-.313-1.092a.519.519 0 0 1-.051-.204c0-.06-.025-.123-.055-.142-.031-.02-.056-.095-.056-.17 0-.074-.025-.135-.055-.135s-.055-.062-.055-.138c0-.076-.025-.138-.056-.138-.03 0-.055-.05-.055-.11 0-.062-.025-.112-.055-.112-.031 0-.056-.04-.056-.09 0-.116-.724-1.514-.784-1.514-.025 0-.046-.04-.046-.09 0-.05-.043-.131-.097-.18a.985.985 0 0 1-.168-.228 2.417 2.417 0 0 0-.249-.344 167.52 167.52 0 0 1-.399-.465 9.167 9.167 0 0 0-.852-.863c-.238-.212-1.002-.73-1.213-.822-.096-.043-.175-.097-.175-.12 0-.023-.045-.042-.1-.042a.275.275 0 0 1-.169-.07c-.1-.1-4.442-.1-4.476 0a.109.109 0 0 1-.096.07c-.092 0-.672.303-.773.404a.932.932 0 0 1-.247.147c-.094.04-.17.093-.17.12 0 .026-.024.048-.053.048-.048 0-.393-.209-.53-.32-.119-.1-.7-.399-.772-.399a.11.11 0 0 1-.098-.07c-.018-.053-.498-.07-2.12-.077-1.155-.005-2.149.004-2.21.02zm2.904.825c.137.019.273.056.302.083.029.028.098.05.153.05a.51.51 0 0 1 .196.049 7.5 7.5 0 0 0 .553.236c.099.04.18.093.18.116 0 .023.026.042.058.042s.144.058.248.129l.19.128-.152.184c-.083.1-.22.257-.304.348-.084.09-.195.236-.247.324-.052.088-.113.16-.137.16-.024 0-.044.025-.044.057s-.05.11-.11.176c-.061.066-.111.152-.111.192 0 .04-.021.072-.047.072s-.092.1-.147.221c-.055.122-.12.222-.146.222-.026 0-.047.05-.047.11 0 .061-.025.111-.056.111-.03 0-.055.037-.055.083 0 .046-.025.083-.055.083s-.056.05-.056.11c0 .062-.024.111-.055.111-.03 0-.055.05-.055.111s-.025.11-.056.11c-.03 0-.055.05-.055.111s-.025.111-.055.111-.056.06-.056.134c0 .073-.018.142-.041.152-.043.02-.198.434-.432 1.153l-.19.585a1.18 1.18 0 0 0-.056.287c0 .064-.025.132-.055.151-.03.02-.055.145-.055.28 0 .135-.025.246-.056.246-.03 0-.055.12-.055.266 0 .146-.023.289-.051.318-.028.029-.062.214-.075.412a2.795 2.795 0 0 1-.066.484c-.042.124-.04.124.543.124.68 0 .7-.014.7-.518 0-.168.025-.32.055-.34.03-.018.056-.156.056-.307 0-.15.025-.273.055-.273s.055-.098.055-.218.025-.234.056-.252c.03-.02.055-.087.055-.152 0-.108.065-.35.168-.623.022-.06.071-.223.108-.36.037-.137.104-.336.15-.442.046-.107.103-.244.126-.305.098-.253.419-.886.458-.903.023-.01.041-.067.041-.125 0-.058.025-.106.056-.106.03 0 .055-.023.055-.051 0-.081.4-.741.51-.84.054-.05.099-.12.099-.158 0-.038.074-.138.166-.224.09-.085.166-.17.166-.189 0-.036.652-.686.921-.917.219-.188.779-.553.848-.553a.057.057 0 0 0 .057-.056c0-.03.037-.055.083-.055.045 0 .082-.025.082-.055s.049-.056.108-.056.123-.025.141-.055c.019-.03.094-.055.166-.055.073 0 .148-.025.166-.056.019-.03.094-.055.166-.055.073 0 .146-.022.162-.048.03-.05.334-.098.963-.155.501-.045 1.367.13 1.849.375a.479.479 0 0 0 .18.05c.046 0 .083.024.083.055 0 .03.05.055.111.055s.111.025.111.055.039.056.087.056c.047 0 .119.03.159.069.039.038.215.169.389.29.368.256.981.842 1.219 1.162.09.122.202.259.248.304.046.046.119.152.162.236.043.083.099.152.124.152.025 0 .046.026.046.059s.071.163.159.29c.087.128.175.288.197.356.021.069.062.125.09.125.029 0 .052.05.052.11 0 .061.019.111.042.111.023 0 .074.081.114.18.04.099.096.223.124.276a.453.453 0 0 1 .052.18c0 .046.025.083.055.083.031 0 .056.05.056.111 0 .06.025.11.055.11.031 0 .055.075.055.167 0 .091.025.166.056.166.03 0 .055.06.055.135 0 .074.022.148.049.165.027.017.062.1.078.183.016.084.094.377.174.651.141.484.201.778.313 1.522.319 2.113.197 4.397-.337 6.335a24.49 24.49 0 0 0-.151.568c-.016.069-.05.139-.077.155-.027.017-.049.09-.049.162 0 .073-.025.147-.055.166-.031.019-.056.083-.056.142 0 .059-.024.107-.055.107-.03 0-.055.062-.055.138 0 .076-.025.139-.056.139-.03 0-.055.034-.055.077 0 .104-.607 1.308-.721 1.431-.05.054-.126.166-.169.25a1.024 1.024 0 0 1-.175.24c-.053.05-.097.116-.097.148 0 .033-.193.263-.429.512-.236.25-.437.475-.447.502-.01.027-.044.049-.075.049-.03 0-.122.07-.202.156a3.292 3.292 0 0 1-.451.36 7.904 7.904 0 0 0-.372.258.275.275 0 0 1-.152.056c-.047 0-.085.025-.085.055s-.05.055-.111.055-.11.025-.11.056c0 .03-.063.055-.139.055-.076 0-.138.025-.138.056 0 .03-.075.055-.166.055-.091 0-.166.022-.166.05 0 .08-.369.127-1.212.153-.516.016-.817.004-.854-.034-.032-.032-.139-.058-.238-.058-.099 0-.195-.025-.214-.056-.018-.03-.094-.055-.169-.055-.074 0-.135-.025-.135-.055s-.052-.056-.116-.056a.578.578 0 0 1-.263-.102 2.212 2.212 0 0 0-.326-.18c-.099-.042-.18-.096-.18-.119 0-.023-.037-.041-.083-.041-.134 0-.096-.148.097-.371.099-.115.204-.242.235-.282.03-.04.111-.132.18-.205.068-.073.124-.16.124-.191 0-.032.025-.058.055-.058.031 0 .056-.037.056-.083 0-.046.025-.083.055-.083.031 0 .055-.037.055-.083 0-.046.022-.083.049-.083.027 0 .081-.077.119-.17a.94.94 0 0 1 .135-.236c.098-.098.417-.697.417-.782 0-.042.019-.084.043-.094.139-.059.897-2.01.897-2.31 0-.063.025-.115.056-.115.03 0 .055-.086.055-.19 0-.105.025-.206.055-.225.031-.019.056-.145.056-.28 0-.135.025-.246.055-.246s.055-.123.055-.273c0-.15.025-.289.056-.308.03-.019.055-.163.055-.322 0-.158.021-.362.047-.453.08-.285.047-.304-.541-.304-.524 0-.541.004-.604.141a1.379 1.379 0 0 0-.064.44c0 .164-.025.313-.055.332-.031.02-.056.157-.056.308 0 .15-.024.273-.055.273-.03 0-.055.098-.055.218s-.025.234-.056.252c-.03.02-.055.12-.055.225 0 .105-.025.19-.055.19-.031 0-.056.062-.056.136a.846.846 0 0 1-.05.263c-.028.07-.069.177-.091.238l-.174.47a7.218 7.218 0 0 0-.164.484c-.017.069-.053.125-.08.125-.027 0-.049.036-.049.081 0 .045-.05.17-.111.278a.873.873 0 0 0-.111.279c0 .044-.021.081-.048.081s-.08.075-.117.166c-.038.091-.091.166-.118.166-.027 0-.048.05-.048.11 0 .062-.025.111-.056.111a.056.056 0 0 0-.055.056c0 .052-.362.6-.438.664a2.794 2.794 0 0 0-.178.221c-.135.181-.948 1.012-1.11 1.134-.313.237-.843.564-1 .617-.052.018-.096.055-.096.081 0 .027-.075.05-.166.05-.091 0-.166.024-.166.055 0 .03-.06.055-.135.055-.074 0-.149.022-.166.05-.053.087-.48.13-1.304.13-.806 0-1.192-.04-1.248-.13-.017-.028-.091-.05-.166-.05-.074 0-.135-.025-.135-.055s-.062-.056-.138-.056c-.076 0-.139-.025-.139-.055s-.05-.055-.11-.055c-.061 0-.11-.025-.11-.056 0-.03-.04-.055-.086-.055a.275.275 0 0 1-.152-.057 5.122 5.122 0 0 0-.333-.228c-.304-.197-1.588-1.431-1.588-1.527 0-.036-.062-.127-.138-.203-.076-.076-.138-.164-.138-.196a.057.057 0 0 0-.056-.058c-.03 0-.055-.035-.055-.078s-.019-.087-.041-.097c-.101-.045-.9-1.63-.9-1.785 0-.048-.025-.087-.055-.087s-.055-.062-.055-.138c0-.076-.025-.139-.056-.139-.03 0-.055-.06-.055-.135 0-.074-.025-.15-.055-.169-.03-.019-.056-.093-.056-.166 0-.072-.022-.145-.049-.162-.027-.017-.061-.112-.076-.21a5.344 5.344 0 0 0-.116-.499c-.457-1.632-.57-4.28-.26-6.073.03-.167.077-.441.105-.608a7.5 7.5 0 0 1 .117-.554c.137-.514.293-1.027.34-1.12a.54.54 0 0 0 .05-.207c0-.061.025-.111.055-.111s.056-.075.056-.166c0-.092.025-.166.055-.166s.055-.05.055-.111c0-.06.025-.11.056-.11.03 0 .055-.049.055-.108 0-.06.025-.123.055-.142.03-.018.056-.082.056-.141 0-.06.025-.108.055-.108s.055-.036.055-.08c0-.113.177-.473.232-.473.025 0 .045-.027.045-.06 0-.032.075-.167.166-.3.091-.132.166-.262.166-.288 0-.026.05-.083.11-.127.062-.043.111-.114.111-.157s.044-.119.098-.168c.053-.05.165-.18.247-.29.24-.323.885-.942 1.231-1.183.176-.121.352-.252.391-.29a.27.27 0 0 1 .16-.07c.047 0 .087-.024.087-.055 0-.03.05-.055.11-.055.061 0 .11-.025.11-.055s.039-.056.085-.056a.482.482 0 0 0 .18-.049c.246-.125.52-.21 1.064-.331.243-.054.937-.041 1.438.026zm-48.703 1.35c.008.077.037.226.065.332.028.107.076.306.107.443.232 1.041.35 1.545.396 1.691.03.094.053.248.053.343 0 .095.025.188.056.207.03.019.055.12.055.224 0 .105.025.19.055.19s.056.113.056.25.025.249.055.249.055.098.055.218.023.232.05.248c.027.017.063.124.08.239.03.208.094.514.195.927.16.652.24 1.02.268 1.232.017.13.052.25.079.266.026.017.048.128.048.248s.025.218.055.218.055.098.055.218.025.234.056.252c.03.02.055.133.055.253s.025.218.055.218.056.098.056.218.022.232.05.248c.026.017.062.125.078.239.031.213.1.535.197.927.03.122.118.508.194.858.076.35.155.692.175.76l.038.125h-5.669l.039-.152c.021-.084.074-.314.118-.512.043-.198.105-.472.138-.609a5.18 5.18 0 0 0 .087-.484c.016-.13.051-.235.078-.235.028 0 .05-.1.05-.221 0-.122.025-.222.056-.222.03 0 .055-.112.055-.249s.025-.249.055-.249.055-.098.055-.218.023-.232.05-.248c.027-.017.063-.124.08-.239.016-.114.054-.32.084-.457.065-.295.329-1.428.406-1.742.03-.122.067-.328.083-.457.015-.13.05-.235.078-.235.027 0 .05-.098.05-.218s.024-.234.055-.252c.03-.02.055-.133.055-.253s.025-.218.056-.218c.03 0 .055-.098.055-.218s.025-.233.055-.252c.03-.019.055-.132.055-.252s.022-.218.049-.218c.026 0 .062-.106.08-.235.032-.229.164-.865.261-1.26.21-.85.273-1.132.311-1.397.017-.114.053-.221.08-.238.027-.017.05-.13.05-.253 0-.181.017-.219.096-.203.056.01.103.076.112.156zM7.15 2.242c.175.02.319.06.319.088 0 .028.073.05.162.05.09 0 .178.025.197.056.02.03.095.055.17.055.074 0 .135.025.135.055s.034.056.076.056c.083 0 .554.252.72.385.203.164.476.468.507.567.018.054.055.099.084.099.028 0 .051.05.051.11 0 .061.025.111.055.111s.056.062.056.138c0 .077.025.139.055.139s.055.073.055.162c0 .09.022.176.048.192.056.035.141.859.14 1.361 0 .522-.086 1.382-.14 1.416-.026.016-.048.113-.048.216s-.024.203-.055.222c-.03.018-.055.082-.055.141 0 .06-.025.108-.056.108-.03 0-.055.05-.055.11 0 .061-.019.11-.042.11-.023 0-.074.074-.113.163-.17.384-1.026 1.067-1.432 1.144-.1.019-.183.056-.183.083 0 .027-.075.05-.166.05-.092 0-.166.024-.166.055 0 .03-.111.055-.246.055s-.261.025-.28.055c-.022.036-.84.056-2.272.056H2.435V2.155l2.199.024c1.21.013 2.342.04 2.517.062zm93.899.43c-.093.094-.168.15-.5.372-.159.107-.289.225-.29.263-.001.037.048.125.107.194.135.154.5.756.5.822 0 .027.025.05.056.05.03 0 .055.049.055.11 0 .06.025.11.055.11.031 0 .055.05.055.111 0 .06.025.11.056.11.03 0 .055.05.055.111s.025.111.055.111c.031 0 .056.037.056.081 0 .045.044.163.099.263.055.1.147.331.205.514.058.182.126.355.15.384a.337.337 0 0 1 .044.177c0 .068.025.14.055.158.031.019.055.106.055.194 0 .087.025.174.056.193.03.02.055.106.055.194 0 .088.025.175.055.194.031.018.056.132.056.252s.025.218.055.218c.031 0 .055.123.055.273 0 .15.022.287.048.303.063.039.131.744.139 1.443l.007.554-5.298.014c-4.543.012-5.298.003-5.298-.065 0-.043.115-.173.256-.29.14-.117.545-.491.899-.832.354-.34.713-.682.798-.76l.154-.14-.36-.36c-.199-.199-.375-.361-.392-.361-.017 0-.114.08-.216.18a49.82 49.82 0 0 1-.665.622c-.264.243-.626.58-.804.747-.177.167-.515.478-.75.691-.67.607-1.133 1.054-1.133 1.095 0 .02.136.169.302.329.711.688 1.028.983 1.055.983.015 0 .258.226.54.502.28.276.667.64.859.81.191.17.462.416.6.548l.254.239.2-.213c.111-.117.267-.294.347-.394l.146-.182-.37-.364c-.204-.2-.491-.464-.638-.586-.447-.37-1.138-1.06-1.1-1.098.051-.05 3.407-.044 3.487.007.041.026.076.277.095.677.044.974.092 1.438.148 1.438.028 0 .05.136.05.304 0 .167.026.304.056.304.03 0 .056.098.056.218s.024.234.055.252c.03.02.055.119.055.222 0 .103.025.202.055.221.03.019.056.089.056.156s.064.296.143.508c.079.213.166.462.193.553.048.16.122.339.224.54a.484.484 0 0 1 .048.179c0 .046.025.084.056.084.03 0 .055.05.055.11 0 .061.025.111.055.111s.056.05.056.11c0 .062.025.111.055.111s.055.038.055.084c0 .077.1.293.166.359.016.015.066.102.111.194.091.183.299.515.387.62a.25.25 0 0 1 .056.124c0 .032.025.058.055.058s.055.035.055.077c0 .171.265.147.481-.044.166-.147.236-.199.266-.199a.667.667 0 0 0 .174-.13c.127-.119.134-.144.067-.26a1.744 1.744 0 0 0-.164-.232 1.86 1.86 0 0 1-.194-.307c-.057-.113-.123-.214-.145-.224-.023-.01-.042-.066-.042-.124 0-.059-.02-.106-.045-.106-.057 0-.287-.426-.287-.531 0-.043-.025-.078-.055-.078s-.056-.05-.056-.11c0-.061-.025-.111-.055-.111s-.055-.039-.055-.086a1.01 1.01 0 0 0-.098-.29 4.927 4.927 0 0 1-.2-.537 4.338 4.338 0 0 0-.152-.428.616.616 0 0 1-.048-.232c0-.075-.025-.151-.056-.17-.03-.019-.055-.106-.055-.194 0-.088-.025-.175-.055-.194-.03-.018-.056-.13-.056-.248 0-.119-.024-.23-.055-.25-.03-.018-.055-.152-.055-.296s-.023-.286-.051-.315c-.058-.06-.108-.518-.149-1.367l-.028-.594h5.305c2.919 0 5.323.016 5.343.036.036.036-.608.677-1.103 1.098a15.7 15.7 0 0 0-.636.59l-.376.367.163.171a.94.94 0 0 1 .163.201c0 .017.087.117.194.224.106.106.194.168.194.136 0-.031.025-.057.057-.057.031 0 .139-.08.24-.18.101-.099.44-.416.753-.705l.837-.775.686-.636c.681-.63 1.023-.968 1.023-1.01 0-.04-.558-.577-1.191-1.148a51.694 51.694 0 0 1-.693-.636 66.257 66.257 0 0 0-.689-.636c-.2-.183-.499-.463-.665-.623-.165-.16-.317-.29-.337-.29-.02 0-.195.162-.389.361l-.353.361.167.15c.091.084.449.425.796.76.346.335.745.704.885.82.449.374.466.37-1.456.37-1.309 0-1.723-.017-1.757-.07-.025-.038-.063-.343-.085-.678a17.432 17.432 0 0 0-.098-1.023 40.048 40.048 0 0 1-.09-.678c-.017-.145-.054-.263-.081-.263-.028 0-.05-.124-.05-.276 0-.153-.025-.277-.056-.277-.03 0-.055-.087-.055-.194 0-.106-.025-.193-.055-.193-.031 0-.056-.061-.056-.136a.873.873 0 0 0-.048-.263 7.483 7.483 0 0 1-.116-.348 12.345 12.345 0 0 0-.506-1.314.48.48 0 0 1-.049-.18c0-.046-.025-.083-.055-.083-.031 0-.056-.05-.056-.11 0-.062-.024-.112-.055-.112-.03 0-.055-.05-.055-.11 0-.061-.02-.11-.045-.11-.025 0-.079-.088-.121-.195-.042-.106-.093-.193-.113-.193-.02 0-.081-.1-.136-.222-.055-.121-.121-.22-.147-.22-.026 0-.047-.033-.047-.073 0-.04-.05-.126-.111-.192a.509.509 0 0 1-.11-.152c0-.037-.146-.194-.176-.19a.328.328 0 0 0-.084.069z" fill="#000"/></svg>