<svg width="145" height="29" viewBox="0 0 145 29" fill="none" xmlns="http://www.w3.org/2000/svg"><path d="M90.331 9.664a5.857 5.857 0 1 0-11.714 0 5.857 5.857 0 0 0 11.714 0zM3.466 16.45v11.895H0V.723h3.466v2.55a7.86 7.86 0 0 1 7.68-2.772 8.526 8.526 0 0 1 5.503 3.272 9.794 9.794 0 0 1-.748 12.733 8.713 8.713 0 0 1-6.239 2.557 8.316 8.316 0 0 1-6.196-2.613zm5.753-1.032A5.719 5.719 0 1 0 3.473 9.72a5.733 5.733 0 0 0 5.725 5.697h.02zm134.873-5.74a9.366 9.366 0 0 1-11.166 9.231 9.361 9.361 0 0 1-7.38-7.347A9.365 9.365 0 0 1 134.727.355a9.349 9.349 0 0 1 8.646 5.749 9.35 9.35 0 0 1 .719 3.574zm-9.323-5.69a5.715 5.715 0 0 0-5.296 3.51 5.712 5.712 0 0 0-.337 3.303 5.712 5.712 0 0 0 4.476 4.509 5.717 5.717 0 0 0 6.855-5.584 5.766 5.766 0 0 0-5.698-5.739zM53.955 9.74A9.364 9.364 0 1 1 44.66.356a9.33 9.33 0 0 1 9.295 9.386zm-9.35 5.677a5.718 5.718 0 1 0-5.747-5.704 5.753 5.753 0 0 0 5.746 5.704zM57.642 4.265V.709h14.446l-8.914 14.369h8.318v3.584H57.053l8.852-14.397h-8.263zM116.297.71v3.326a8.43 8.43 0 0 1 7.174-3.68V4.14a16.26 16.26 0 0 0-2.482.132 5.584 5.584 0 0 0-4.595 5.254c-.146 2.703-.084 5.414-.104 8.117v1.06h-3.591V.681l3.598.028zM101.2 18.696h-3.584V.736h3.584v3.702a7.934 7.934 0 0 1 7.216-4.083v3.646a18.16 18.16 0 0 0-3.501.603c-2.592.992-3.632 3.147-3.701 5.795-.063 2.42 0 4.852 0 7.264l-.014 1.033zM22.597.695h3.528v3.34l.173.118c1.636-2.606 4.013-3.75 7.056-3.798v3.91a13.662 13.662 0 0 0-2.447 0A5.622 5.622 0 0 0 26.25 9.56c-.125 2.676-.07 5.358-.09 8.034v1.088h-3.563V.695z" fill="#000"/></svg>