<svg xmlns="http://www.w3.org/2000/svg" viewBox="0 21.1 50 7.8"><path fill="#FFF" d="M48.7 27.7h-.1c-.4-.8-1.2-1.3-2.1-1.3h-.2c-.3-.8-1.1-1.3-2-1.4-.2-.5-.7-.8-1.2-.8-.1 0-.2 0-.4.1h-.3c-.4-.3-.9-.5-1.4-.5-.5 0-.9.2-1.3.5-.2-.1-.4-.1-.6-.1-.3 0-.6.1-.8.2-.2-.3-.6-.5-1-.5-.2 0-.3 0-.5.1-.1-.6-.7-1.1-1.3-1.1h-.3c-.2-.4-.6-.6-1.1-.6-.4 0-.8.2-1 .5-.2-.1-.4-.1-.6-.1-.6 0-1.1.3-1.4.7-.2-.3-.6-.4-1-.4-.5 0-.9.3-1.1.6-.2 0-.3-.1-.5-.1s-.3 0-.4.1c-.3-.7-1-1.2-1.8-1.2-.4 0-.7.1-1 .3-.3-.5-.8-.8-1.4-.8-.4 0-.9.2-1.1.5-.3-.3-.8-.4-1.2-.4-.3 0-.6.1-.8.2-.3-.6-1-1-1.7-1-.4 0-.8.1-1.1.3-.2-.3-.6-.4-1-.4s-.7.1-.9.4c-.2-.2-.5-.3-.9-.3-.6 0-1.2.4-1.3 1-.3-.2-.7-.3-1.1-.3-.7 0-1.4.4-1.7 1-.4-.2-.8-.4-1.2-.4-.9 0-1.7.5-2.1 1.3-.3-.1-.6-.2-.9-.2-.8 0-1.6.4-2 1.1-.2-.1-.4-.1-.6-.1-.5 0-1 .3-1.2.7-.1 0-.2-.1-.4-.1-.6 0-1.1.5-1.1 1.1v.1c-1 .5-1.6 1.4-1.6 2.5h50c-.1-.6-.6-1.2-1.3-1.2z"/></svg>