<svg xmlns="http://www.w3.org/2000/svg" viewBox="0 21.7 50 6.6"><path fill="#FFF" d="M50 28.3c-.3-1.1-1.3-1.9-2.5-1.9-.2-.4-.5-.7-.9-.9-.2-.7-.8-1.2-1.5-1.2h-.2c-.3-.4-.7-.7-1.3-.7h-.2c-.4-.6-1.1-.9-1.8-.9-.8 0-1.5.4-1.9 1.1-.2-.1-.4-.1-.6-.1-.2 0-.5.1-.7.2-.4-.6-.9-.9-1.5-.9-.2 0-.4 0-.6.1-.3-.3-.7-.5-1.2-.5-.4 0-.7.1-1 .3-.5-.4-1.1-.6-1.7-.6-.5 0-1 .1-1.4.4-.4-.5-1-.7-1.6-.7-.5 0-.9.1-1.2.4-.3-.2-.6-.4-1-.4-.3 0-.5.1-.7.2-.4-.3-.8-.4-1.3-.4-.8 0-1.6.5-2 1.2-.2-.1-.4-.1-.6-.1-.5 0-.9.1-1.2.4-.4-.4-.9-.7-1.5-.7s-1.2.3-1.5.8c-.3-.2-.7-.2-1-.2-.2 0-.5 0-.7.1-.4-.4-1-.6-1.6-.6-.4 0-.7.1-1 .2-.4-.4-1-.7-1.6-.7-.7 0-1.4.4-1.8.9-.3-.2-.6-.4-1-.4-.7 0-1.2.4-1.4 1-.2-.1-.3-.1-.5-.1-.6 0-1.1.3-1.3.8-.2 0-.4-.1-.6-.1-1.3 0-2.3.9-2.6 2h-.2c-.7 0-1.4.5-1.5 1.3h-.1c-.6 0-1.1.4-1.2 1H50z"/></svg>