<svg width="266" height="29" viewBox="0 0 266 29" fill="none" xmlns="http://www.w3.org/2000/svg"><path d="M0 28.451V.461h13.092c6.085 0 9.4 4.113 9.4 9.023 0 4.868-3.357 9.022-9.4 9.022H5.96v9.945H0zM16.407 9.484c0-2.35-1.762-3.777-4.112-3.777H5.96v7.554h6.336c2.35 0 4.112-1.47 4.112-3.777zm11.247 18.967V.461h5.958v22.745h11.834v5.245H27.654zm42.718 0l-1.72-4.742H56.65l-1.762 4.742H48.09L58.916.461h7.47l10.784 27.99h-6.798zm-7.721-22.03l-4.364 12.043h8.728L62.65 6.421zm23.121 22.03V5.707H77.59V.462h22.324v5.245h-8.14v22.744h-6.002zm20.185 0V.461h19.806v5.246h-13.848v5.917h13.554v5.245h-13.554v11.582h-5.958zm23.457-13.974C129.414 6.043 135.583 0 144.017 0c8.477 0 14.645 6.043 14.645 14.477 0 8.435-6.168 14.477-14.645 14.477-8.434 0-14.603-6.042-14.603-14.477zm23.122 0c0-5.245-3.357-9.19-8.519-9.19-5.161 0-8.476 3.945-8.476 9.19 0 5.204 3.315 9.19 8.476 9.19 5.162 0 8.519-3.986 8.519-9.19zm26.982 13.974l-5.497-9.945h-4.365v9.945h-5.958V.461h13.092c5.833 0 9.4 3.82 9.4 9.023 0 4.952-3.105 7.595-6.127 8.309l6.295 10.658h-6.84zm.587-18.967c0-2.35-1.804-3.777-4.196-3.777h-6.253v7.554h6.253c2.392 0 4.196-1.427 4.196-3.777zm10.613 16.03c0-1.847 1.552-3.4 3.399-3.4 1.846 0 3.399 1.553 3.399 3.4 0 1.846-1.553 3.399-3.399 3.399-1.847 0-3.399-1.553-3.399-3.4zm36.722 2.937V8.855l-7.889 19.596h-2.602L209.06 8.855V28.45h-5.959V.461h8.351l6.798 16.912L225.048.462h8.392v27.99h-6zm31.682 0l-1.721-4.742H245.4l-1.763 4.742h-6.798L247.666.461h7.469l10.785 27.99h-6.798zM251.4 6.421l-4.364 12.043h8.729L251.4 6.421z" fill="#fff"/></svg>