<svg width="153" height="49" viewBox="0 0 153 49" fill="none" xmlns="http://www.w3.org/2000/svg"><path d="M0 18.537C0 8.077 7.744.329 17.966.329c7.63 0 13.613 4.251 16.162 10.697h-1.351c-2.54-5.874-8.11-9.414-14.81-9.414-9.525 0-16.654 7.269-16.654 16.925 0 9.598 7.192 16.928 16.653 16.928 6.64 0 12.196-3.482 14.92-9.494h1.365c-2.721 6.635-8.837 10.774-16.285 10.774C7.805 36.745 0 28.882 0 18.537zM74.655.994v35.09h-2.703l-.373-7.616c-3.062 5.078-8.544 8.324-15.264 8.324-10.257 0-17.985-7.863-17.985-18.254C38.33 8.116 46.058.283 56.315.283c6.737 0 12.232 3.252 15.288 8.352l.44-7.64h2.612zM56.524 33.7c8.61 0 14.887-6.413 14.887-15.16 0-8.75-6.275-15.159-14.887-15.159-8.541 0-14.951 6.547-14.951 15.162 0 8.645 6.41 15.157 14.95 15.157zM101.379.225c10.455 0 18.037 7.802 18.037 18.315 0 10.45-7.58 18.312-18.037 18.312-5.279 0-9.876-2.057-13.111-5.468V48.61h-5.523V.994h3.804l1.101 5.364C90.899 2.546 95.754.225 101.379.225zm-.415 31.28c7.44 0 12.869-5.503 12.869-12.968 0-7.464-5.429-12.968-12.869-12.968-7.429 0-12.932 5.575-12.932 12.968-.003 7.388 5.503 12.968 12.932 12.968zm36.643 5.57c-8.807 0-14.692-5.026-14.739-12.548h9.25c.046 3.125 2.438 4.685 5.844 4.685 2.633 0 4.99-1.192 4.99-3.537 0-2.398-3.043-3.125-6.754-3.746-5.605-.934-12.737-2.433-12.737-10.705C123.464 4.584 129.11 0 137.583 0c8.469 0 14.03 4.715 14.066 11.727h-9.002c-.036-2.788-1.991-4.164-5.301-4.164-2.955 0-4.696 1.354-4.696 3.362 0 2.34 2.996 2.88 6.641 3.542 5.723 1.027 13.031 2.239 13.031 10.788 0 7.16-5.855 11.82-14.715 11.82z" fill="#fff"/></svg>