<?xml version="1.0" encoding="UTF-8" standalone="no"?>
<svg version="1.1" width="300" height="360" 
	xmlns="http://www.w3.org/2000/svg" 
	xmlns:xlink="http://www.w3.org/1999/xlink">

<!--outter shield-->
<path fill="#0057be" d="M 0,0 H 300 C 300,202 312,291 150,360 C -12,291 0,202 0,0 z"/>

<!--inner shield-->
<path fill="#f0f0f0" d="M 10,38 H 66 V 71 H 122 V 38 H 178 V 71 H 234 V 38 H 290 C 290,233 290,278 150,350 C 10,278 10,233 10,38 z"/>

<!--inner decorations-->
<g transform="scale(0.007,0.00625) translate(2400,7500)">
<g id="claw" style="fill:#FFD500;stroke:#B99D62;stroke-width:90;stroke-linejoin:round;stroke-miterlimit:22.9256">
	<path d="M 12183 35815 c 517,-6 783,284 797,870 -219,-254 -553,-357 -925,-211 -285,-126 -252,-542 128,-659z"/>
	<path d="M 10242 37994 c -43,-48 -90,-87 -139,-117 -204,-123 -432,-79 -613,62 -26,558 272,941 887,975 -271,-214 -351,-574 -135,-920z"/>
	<path d="M 8461 37607 c 53,-463 -556,-518 -772,-313 -265,434 -165,878 293,1302 -100,-375 27,-762 479,-989z"/>
	<path d="M 7510 36469 c 71,-254 -37,-633 -354,-612 -512,134 -689,535 -531,1202 151,-494 446,-691 885,-590z"/>
	<path style="stroke:#B99D62;stroke-width:90;stroke-miterlimit:22.9256" d="
		M 8584 35488 c -143,18 -281,8 -423,-9 -197,-24 -495,-88 -718,-21 -191,58 -288,203 -287,399 317,-21 425,358 354,612 289,142 359,-23 551,-209 56,-54 129,-103 244,-130 99,-23 206,-10 300,15 -7,39 -45,207 -203,370 -219,226 -550,246 -676,460 -79,131 -56,271 -37,319 216,-205 825,-150 772,313 380,30 605,-140 647,-395 22,-136 -27,-302 -18,-522 9,-216 105,-343 276,-461 173,189 278,396 276,545 -2,238 -191,411 -294,609 -118,226 -95,428 142,556 181,-141 409,-185 613,-62 49,30 95,69 139,117 355,-286 301,-711 125,-1075 -72,-147 -136,-241 -107,-336 69,-224 489,-250 679,-199 116,31 219,96 355,196 245,179 605,190 761,-106 -285,-126 -252,-542 128,-659 -90,-134 -240,-198 -390,-185 -323,28 -381,402 -642,108 -99,-111 -131,-205 -113,-286 35,-166 287,-301 570,-412 941,-368 1542,-587 2356,-1212 -249,-192 -466,-426 -624,-685 -262,208 -594,312 -936,295 -242,284 -512,554 -803,777 -389,298 -826,527 -1326,645 -699,165 -1022,171 -1691,628z"/>
</g>
<use xlink:href="#claw" transform="scale(-1,1) translate(-38200,0)"/>
<g style="fill:black">
	<path style="stroke:#666666;stroke-width:90;stroke-linejoin:round;stroke-miterlimit:22.9256" d="M 18218 32790 c 114,607 408,1443 882,2070 474,-627 768,-1463 882,-2070 209,759 977,942 1637,621 -63,908 -808,1621 -1702,1516 114,640 389,2415 507,2630 149,270 615,378 986,264 770,-236 776,-965 85,-1274 923,-129 1486,287 1689,1246 661,28 768,249 1203,640 832,748 1545,456 1040,-211 732,350 903,798 513,1343 1173,647 942,1473 -693,2478 545,-2253 -1803,-2173 -1537,-471 -106,-260 -396,-736 -645,-885 -222,-133 -481,-174 -740,-259 -1230,-406 -1953,-978 -2657,-2206 -386,2119 362,3403 2063,3655 -452,647 -1043,818 -1773,512 95,273 263,705 193,1044 -56,271 -203,332 -368,495 -350,347 -553,937 -683,1397 -130,-460 -333,-1050 -683,-1397 -165,-163 -312,-224 -368,-495 -69,-340 98,-771 193,-1044 -730,306 -1321,135 -1773,-512 1701,-252 2449,-1536 2063,-3655 -704,1228 -1427,1800 -2657,2206 -259,85 -518,126 -740,259 -249,149 -539,625 -645,885 266,-1702 -2082,-1782 -1537,471 -1635,-1005 -1866,-1831 -693,-2478 -390,-545 -219,-993 513,-1343 -505,667 208,959 1040,211 435,-391 542,-612 1203,-640 203,-959 766,-1375 1689,-1246 -691,309 -685,1038 85,1274 371,114 837,6 986,-264 118,-215 393,-1990 507,-2630 -894,105 -1639,-608 -1702,-1516 660,321 1428,138 1637,-621 z"/>
	<path d="M 8323 16256 c -836,-483 -1394,-1075 -1675,-1776 -852,-1194 -1387,-2393 -1603,-3598 -419,-68 -838,-312 -1252,-731 -411,2190 376,4616 2500,6864 -171,-257 -317,-542 -437,-855 1039,364 1862,396 2467,96 z"/>
	<path d="M 8390 9012 c 77,1013 507,2197 1295,3557 -840,-333 -1514,-839 -2006,-1522 -130,1018 333,2201 1391,3549 -152,-24 -302,-53 -449,-88 -2486,-3442 -3155,-7590 -966,-9438 -84,1475 156,2784 735,3942 z"/>
	<path d="M 8555 7576 c 667,1306 1338,2620 2005,3926 -319,744 -265,1634 161,2669 -1998,-2823 -2712,-5012 -2166,-6595 z"/>
	<path d="M 10721 14171 c 95,231 208,469 340,714 -120,5 -240,20 -360,42 -63,483 21,945 249,1385 -79,18 -158,41 -235,69 -2209,-2111 -3221,-3889 -3036,-5334 492,683 1166,1189 2006,1522 295,509 640,1043 1036,1602 z"/>
	<path d="M 6649 14480 c -1639,-2295 -2105,-4612 -1389,-6946 149,449 597,991 1096,1378 147,1768 953,3780 2265,5596 -801,-192 -1528,-551 -2184,-1076 11,373 81,722 212,1048 z"/>
	<path d="M 2920 13363 c -16,2152 1130,3967 3459,5338 845,103 1549,51 2102,-152 -952,-265 -1681,-776 -2188,-1534 -987,-1045 -1685,-2128 -2109,-3208 -498,28 -932,-127 -1264,-444 z"/>
	<path d="M 7199 21715 c -2916,-516 -4435,-2253 -4556,-5209 524,376 1122,462 1488,318 556,694 1305,1322 2248,1876 -208,-25 -424,-60 -648,-104 488,1246 1468,1884 2941,1914 -377,492 -869,893 -1473,1205 z"/>
	<path d="M 7199 21715 c -300,155 -628,288 -983,398 1452,644 2671,744 3655,299 -23,533 -156,1027 -399,1476 -3954,928 -6325,-255 -7106,-3547 651,272 1247,264 1788,-23 742,704 1757,1169 3045,1397 z"/>
	<path d="M 10454 24343 c -3430,2233 -5798,2223 -7105,-29 696,74 1351,-112 1650,-494 1151,475 2642,498 4473,68 -111,207 -246,405 -405,593 506,2 968,-44 1387,-138 z"/>
	<path d="M 10454 24343 c 866,-194 1547,-594 2043,-1200 62,304 86,612 72,924 -2298,2923 -4716,3873 -7254,2850 517,-167 837,-471 960,-910 1152,-45 2545,-600 4179,-1664 z"/>
	<path d="M 9419 26803 c 1074,-519 2124,-1431 3150,-2736 -22,502 -141,1014 -359,1535 654,-108 1181,-332 1582,-671 -484,2083 -1994,3177 -4531,3274 314,-496 367,-963 158,-1402 z"/>
	<path d="M 11061 14885 c -877,-1630 -937,-2940 -180,-3931 106,947 484,1870 1136,2769 -173,483 -164,921 27,1315 -324,-117 -652,-168 -983,-153 z"/>
	<path d="M 10715 16381 c -298,107 -584,288 -858,543 -2234,-734 -3374,-1898 -3420,-3492 776,622 1652,1010 2633,1164 444,566 992,1161 1645,1785 z"/>
	<path d="M 8323 16256 c 436,253 947,475 1534,668 -23,21 -47,44 -70,66 221,662 466,1049 734,1163 -138,205 -262,408 -373,610 -2201,-16 -3632,-884 -4292,-2603 1039,364 1862,396 2467,96 z"/>
	<path d="M 8481 18549 c -689,253 -1612,271 -2750,47 738,1884 2601,2378 5591,1482 4,-55 9,-111 16,-167 -560,73 -1077,-47 -1550,-359 95,-261 215,-524 360,-789 -616,-5 -1172,-76 -1667,-214 z"/>
	<path d="M 8672 20510 c 754,15 1638,-128 2650,-431 -27,338 -12,666 45,981 -1126,1726 -2843,2077 -5151,1053 1072,-333 1891,-868 2456,-1603 z"/>
	<path d="M 9871 22412 c 580,-261 1078,-712 1496,-1352 18,103 41,205 68,305 799,-12 1302,-201 1509,-567 79,344 177,635 294,872 -538,1884 -1928,2821 -4171,2811 503,-597 771,-1291 804,-2069 z"/>
	<path d="M 14620 21158 c 451,2622 -352,4103 -2410,4444 352,-845 448,-1664 287,-2459 328,-401 575,-892 741,-1473 100,202 214,365 342,489 447,-145 794,-479 1040,-1001 z"/>
	<path d="M 15159 24813 c -263,1984 -1090,3068 -2478,3226 221,-345 215,-692 -14,-1033 550,-522 925,-1214 1125,-2075 350,-295 603,-679 760,-1151 279,342 474,690 607,1033 z"/>
	<path d="M 15187 22736 c 472,-429 725,-1076 762,-1938 151,589 363,968 636,1135 380,-257 639,-908 776,-1952 -57,-210 -141,-516 -192,-751 -164,115 -378,143 -603,70 -102,63 -188,72 -269,47 -344,-105 -728,-521 -1225,-341 -418,152 -419,603 -797,828 -274,163 -536,143 -694,8 -168,-143 -530,-481 -863,-803 -228,-220 -441,-437 -554,-633 -388,-675 802,-894 1216,-1118 481,-260 698,-856 433,-1349 -100,-187 -269,-329 -476,-528 -254,-245 -1067,-1321 -1320,-1688 -173,483 -164,921 27,1315 -324,-117 -652,-168 -983,-153 -120,5 -239,20 -360,42 -63,483 21,945 249,1385 -79,18 -158,41 -235,69 -298,107 -584,288 -858,543 -23,22 -47,44 -70,66 221,662 466,1049 734,1163 -138,205 -262,408 -372,610 -145,265 -266,528 -361,789 473,312 990,432 1550,360 -6,56 -12,111 -16,167 -27,339 -12,666 45,981 18,103 41,205 68,305 799,-12 1302,-201 1509,-567 79,344 177,635 294,872 100,202 214,365 342,489 447,-145 794,-479 1040,-1001 96,576 153,1117 567,1578 z"/>
	<path d="M 17507 24232 c 9,731 -206,1391 -645,1979 68,213 110,406 126,580 140,602 390,1022 735,1235 375,-388 595,-996 660,-1825 -416,-412 -708,-1068 -876,-1969 z"/>
	<path d="M 16585 21933 c -76,1002 -303,1727 -678,2174 20,246 51,473 95,681 148,700 435,1175 860,1423 440,-588 654,-1248 645,-1980 -424,-448 -731,-1214 -922,-2298 z"/>
	<path d="M 17507 24231 c -424,-448 -731,-1214 -922,-2298 380,-257 639,-908 776,-1952 255,1058 570,1751 944,2079 -48,879 -314,1602 -798,2171 z"/>
	<path d="M 15187 22736 c 471,-429 725,-1075 762,-1938 151,589 363,968 636,1135 -76,1002 -303,1727 -678,2174 -368,-219 -608,-676 -720,-1371 z"/>
	<path d="M 17507 24231 c 484,-569 750,-1292 798,-2171 89,877 349,1716 795,2171 -107,1115 -342,1656 -717,1970 -416,-412 -709,-1069 -876,-1970 z"/>
	<path d="M 15339 25436 c 269,-183 490,-399 663,-648 -44,-208 -75,-435 -95,-681 -368,-219 -608,-676 -720,-1371 -414,-461 -471,-1002 -568,-1578 183,1060 160,1934 -67,2622 452,553 682,1123 787,1656 z"/>
	<path d="M 16101 27817 c 0,0 42,33 125,97 728,-175 940,-743 636,-1703 -425,-248 -712,-723 -860,-1423 -173,249 -394,465 -663,648 -40,-203 -98,-412 -180,-623 -129,977 -396,1736 -799,2274 607,524 910,786 910,786 -586,-1234 1049,-1525 1204,-649 37,209 -56,439 -373,593 z"/>
	<path d="M 17504 27850 c -233,-235 -407,-592 -516,-1059 59,612 -196,986 -762,1123 536,447 637,1026 453,1367 63,54 132,101 207,139 347,-463 555,-992 618,-1570 z"/>
	<path d="M 17667 30905 c -411,-325 -697,-875 -781,-1485 347,-463 555,-992 618,-1570 68,69 141,128 219,176 121,588 351,1061 691,1421 -110,570 -372,1062 -747,1458 z"/>
	<path d="M 19100 28026 c -373,-357 -599,-952 -717,-1824 -65,828 -285,1436 -660,1824 121,588 351,1061 691,1421 265,-244 481,-730 686,-1421 z"/>
	<path d="M 18704 32525 c 242,-400 338,-941 396,-1620 -316,-235 -518,-722 -686,-1458 -110,570 -372,1062 -747,1458 206,441 713,1392 1037,1620 z"/>
	<path d="M 17169 19230 c 130,-91 229,-236 279,-429 122,554 402,756 880,971 258,-108 578,-318 772,-542 -47,1279 -269,2124 -795,2830 -374,-328 -689,-1021 -944,-2079 -57,-210 -141,-516 -192,-751 z"/>
	<path d="M 19100 19230 c 47,1279 269,2124 795,2830 -89,877 -349,1716 -795,2171 -446,-455 -706,-1294 -795,-2171 526,-706 748,-1551 795,-2830 z"/>
	<path d="M 13866 32165 c -53,428 -251,760 -526,978 475,781 1495,1339 2312,1189 -371,-352 -453,-960 -255,-1376 -434,-256 -701,-846 -631,-1726 -96,431 -396,792 -900,935 z"/>
	<path d="M 13866 32165 c -142,1155 -1345,1615 -2256,1003 937,-180 1123,-1726 364,-2159 553,244 1119,-42 1698,-859 -327,806 -386,1499 -180,2077 135,-8 260,-30 374,-62 z"/>
	<path d="M 17412 31288 c 91,31 182,74 270,132 497,325 666,896 536,1370 114,607 408,1443 882,2070 474,-627 768,-1463 882,-2070 -130,-474 39,-1045 536,-1370 88,-58 179,-101 270,-132 943,-319 1952,739 1192,1784 871,180 1562,-488 1454,-1842 118,529 543,951 1274,997 207,-578 147,-1271 -180,-2077 649,915 1281,1164 1896,748 -681,-111 -588,-752 -796,-1313 -250,-675 -705,-1342 -1457,-1122 -642,188 -894,1109 -1663,1272 -424,90 -777,-117 -986,-454 -64,54 -133,101 -208,139 -84,610 -370,1160 -781,1485 -206,441 -713,1392 -1037,1620 -242,-400 -338,-941 -396,-1620 -58,679 -154,1220 -396,1620 -324,-228 -831,-1179 -1037,-1620 -411,-325 -697,-875 -781,-1485 -75,-38 -144,-85 -208,-139 -209,337 -562,544 -986,454 -769,-163 -1021,-1084 -1663,-1272 -752,-220 -1206,447 -1457,1122 -208,561 -115,1202 -796,1313 615,416 1247,167 1896,-748 -327,806 -386,1499 -180,2077 731,-46 1156,-468 1274,-997 -108,1354 583,2022 1454,1842 -760,-1045 249,-2103 1192,-1784 z"/>
	<path d="M 24334 32165 c 53,428 251,760 526,978 -475,781 -1495,1339 -2312,1189 371,-352 453,-960 255,-1376 434,-256 701,-846 631,-1726 96,431 396,792 900,935 z"/>
	<path d="M 24334 32165 c 142,1155 1345,1615 2256,1003 -937,-180 -1123,-1726 -364,-2159 -553,244 -1119,-42 -1698,-859 327,806 386,1499 180,2077 -135,-8 -260,-30 -374,-62 z"/>
	<path d="M 29877 16256 c 836,-483 1394,-1075 1675,-1776 852,-1194 1387,-2393 1603,-3598 419,-68 838,-312 1252,-731 411,2190 -376,4616 -2500,6864 171,-257 317,-542 437,-855 -1039,364 -1862,396 -2467,96 z"/>
	<path d="M 29810 9012 c -77,1013 -507,2197 -1295,3557 840,-333 1514,-839 2006,-1522 130,1018 -333,2201 -1391,3549 152,-24 302,-53 449,-88 2486,-3442 3155,-7590 966,-9438 84,1475 -156,2784 -735,3942 z"/>
	<path d="M 29645 7576 c -667,1306 -1338,2620 -2005,3926 319,744 265,1634 -161,2669 1998,-2823 2712,-5012 2166,-6595 z"/>
	<path d="M 27479 14171 c -95,231 -208,469 -340,714 120,5 240,20 360,42 63,483 -21,945 -249,1385 79,18 158,41 235,69 2209,-2111 3221,-3889 3036,-5334 -492,683 -1166,1189 -2006,1522 -295,509 -640,1043 -1036,1602 z"/>
	<path d="M 31551 14480 c 1639,-2295 2105,-4612 1389,-6946 -149,449 -597,991 -1096,1378 -147,1768 -953,3780 -2265,5596 801,-192 1528,-551 2184,-1076 -11,373 -81,722 -212,1048 z"/>
	<path d="M 35280 13363 c 16,2152 -1130,3967 -3459,5338 -845,103 -1549,51 -2102,-152 952,-265 1681,-776 2188,-1534 987,-1045 1685,-2128 2109,-3208 498,28 932,-127 1264,-444 z"/>
	<path d="M 31001 21715 c 2916,-516 4435,-2253 4556,-5209 -524,376 -1122,462 -1488,318 -556,694 -1305,1322 -2248,1876 208,-25 424,-60 648,-104 -488,1246 -1468,1884 -2941,1914 377,492 869,893 1473,1205 z"/>
	<path d="M 31001 21715 c 300,155 628,288 983,398 -1452,644 -2671,744 -3655,299 23,533 156,1027 399,1476 3954,928 6325,-255 7106,-3547 -651,272 -1247,264 -1788,-23 -742,704 -1757,1169 -3045,1397 z"/>
	<path d="M 27746 24343 c 3430,2233 5798,2223 7105,-29 -696,74 -1351,-112 -1650,-494 -1151,475 -2642,498 -4473,68 111,207 246,405 405,593 -506,2 -968,-44 -1387,-138 z"/>
	<path d="M 27746 24343 c -866,-194 -1547,-594 -2043,-1200 -62,304 -86,612 -72,924 2298,2923 4716,3873 7254,2850 -517,-167 -837,-471 -960,-910 -1152,-45 -2545,-600 -4179,-1664 z"/>
	<path d="M 28781 26803 c -1074,-519 -2124,-1431 -3150,-2736 22,502 141,1014 359,1535 -654,-108 -1181,-332 -1582,-671 484,2083 1994,3177 4531,3274 -314,-496 -367,-963 -158,-1402 z"/>
	<path d="M 27139 14885 c 877,-1630 937,-2940 180,-3931 -106,947 -484,1870 -1136,2769 173,483 164,921 -27,1315 324,-117 652,-168 983,-153 z"/>
	<path d="M 27485 16381 c 298,107 584,288 858,543 2234,-734 3374,-1898 3420,-3492 -776,622 -1652,1010 -2633,1164 -444,566 -992,1161 -1645,1785 z"/>
	<path d="M 29877 16256 c -436,253 -947,475 -1534,668 23,21 47,44 70,66 -221,662 -466,1049 -734,1163 138,205 262,408 373,610 2201,-16 3632,-884 4292,-2603 -1039,364 -1862,396 -2467,96 z"/>
	<path d="M 29719 18549 c 689,253 1612,271 2750,47 -738,1884 -2601,2378 -5591,1482 -4,-55 -9,-111 -16,-167 560,73 1077,-47 1550,-359 -95,-261 -215,-524 -360,-789 616,-5 1172,-76 1667,-214 z"/>
	<path d="M 29528 20510 c -754,15 -1638,-128 -2650,-431 27,338 12,666 -45,981 1126,1726 2843,2077 5151,1053 -1072,-333 -1891,-868 -2456,-1603 z"/>
	<path d="M 28329 22412 c -580,-261 -1078,-712 -1496,-1352 -18,103 -41,205 -68,305 -799,-12 -1302,-201 -1509,-567 -79,344 -177,635 -294,872 538,1884 1928,2821 4171,2811 -503,-597 -771,-1291 -804,-2069 z"/>
	<path d="M 23580 21158 c -451,2622 352,4103 2410,4444 -352,-845 -448,-1664 -287,-2459 -328,-401 -575,-892 -741,-1473 -100,202 -214,365 -342,489 -447,-145 -794,-479 -1040,-1001 z"/>
	<path d="M 23041 24813 c 263,1984 1090,3068 2478,3226 -221,-345 -215,-692 14,-1033 -550,-522 -925,-1214 -1125,-2075 -350,-295 -603,-679 -760,-1151 -279,342 -474,690 -607,1033 z"/>
	<path d="M 23013 22736 c -472,-429 -725,-1076 -762,-1938 -151,589 -363,968 -636,1135 -380,-257 -639,-908 -776,-1952 57,-210 141,-516 192,-751 164,115 378,143 603,70 102,63 188,72 269,47 344,-105 728,-521 1225,-341 418,152 419,603 797,828 274,163 536,143 694,8 168,-143 530,-481 863,-803 228,-220 441,-437 554,-633 388,-675 -802,-894 -1216,-1118 -481,-260 -698,-856 -433,-1349 100,-187 269,-329 476,-528 254,-245 1067,-1321 1320,-1688 173,483 164,921 -27,1315 324,-117 652,-168 983,-153 120,5 239,20 360,42 63,483 -21,945 -249,1385 79,18 158,41 235,69 298,107 584,288 858,543 23,22 47,44 70,66 -221,662 -466,1049 -734,1163 138,205 262,408 372,610 145,265 266,528 361,789 -473,312 -990,432 -1550,360 6,56 12,111 16,167 27,339 12,666 -45,981 -18,103 -41,205 -68,305 -799,-12 -1302,-201 -1509,-567 -79,344 -177,635 -294,872 -100,202 -214,365 -342,489 -447,-145 -794,-479 -1040,-1001 -96,576 -153,1117 -567,1578 z"/>
	<path d="M 20693 24232 c -9,731 206,1391 645,1979 -68,213 -110,406 -126,580 -140,602 -390,1022 -735,1235 -375,-388 -595,-996 -660,-1825 416,-412 708,-1068 876,-1969 z"/>
	<path d="M 21615 21933 c 76,1002 303,1727 678,2174 -20,246 -51,473 -95,681 -148,700 -435,1175 -860,1423 -440,-588 -654,-1248 -645,-1980 424,-448 731,-1214 922,-2298 z"/>
	<path d="M 20693 24231 c 424,-448 731,-1214 922,-2298 -380,-257 -639,-908 -776,-1952 -255,1058 -570,1751 -944,2079 48,879 314,1602 798,2171 z"/>
	<path d="M 23013 22736 c -471,-429 -725,-1075 -762,-1938 -151,589 -363,968 -636,1135 76,1002 303,1727 678,2174 368,-219 608,-676 720,-1371 z"/>
	<path d="M 20693 24231 c -484,-569 -750,-1292 -798,-2171 -89,877 -349,1716 -795,2171 107,1115 342,1656 717,1970 416,-412 709,-1069 876,-1970 z"/>
	<path d="M 22861 25436 c -269,-183 -490,-399 -663,-648 44,-208 75,-435 95,-681 368,-219 608,-676 720,-1371 414,-461 471,-1002 568,-1578 -183,1060 -160,1934 67,2622 -452,553 -682,1123 -787,1656 z"/>
	<path d="M 22099 27817 c 0,0 -42,33 -125,97 -728,-175 -940,-743 -636,-1703 425,-248 712,-723 860,-1423 173,249 394,465 663,648 40,-203 98,-412 180,-623 129,977 396,1736 799,2274 -607,524 -910,786 -910,786 586,-1234 -1049,-1525 -1204,-649 -37,209 56,439 373,593 z"/>
	<path d="M 20696 27850 c 233,-235 407,-592 516,-1059 -59,612 196,986 762,1123 -536,447 -637,1026 -453,1367 -63,54 -132,101 -207,139 -347,-463 -555,-992 -618,-1570 z"/>
	<path d="M 20533 30905 c 411,-325 697,-875 781,-1485 -347,-463 -555,-992 -618,-1570 -68,69 -141,128 -219,176 -121,588 -351,1061 -691,1421 110,570 372,1062 747,1458 z"/>
	<path d="M 19100 28026 c 373,-357 599,-952 717,-1824 65,828 285,1436 660,1824 -121,588 -351,1061 -691,1421 -265,-244 -481,-730 -686,-1421 z"/>
	<path d="M 19496 32525 c -242,-400 -338,-941 -396,-1620 316,-235 518,-722 686,-1458 110,570 372,1062 747,1458 -206,441 -713,1392 -1037,1620 z"/>
	<path d="M 21031 19230 c -130,-91 -229,-236 -279,-429 -122,554 -402,756 -880,971 -258,-108 -578,-318 -772,-542 47,1279 269,2124 795,2830 374,-328 689,-1021 944,-2079 57,-210 141,-516 192,-751 z"/>
	<path d="M 18383 26201 c 118,873 344,1468 717,1825 373,-357 599,-952 717,-1825 -375,-314 -610,-855 -717,-1970 -107,1115 -342,1656 -717,1970 z"/>
	<path d="M 18414 29447 c 265,-244 481,-730 686,-1421 205,691 421,1177 686,1421 -168,736 -370,1223 -686,1458 -316,-235 -518,-722 -686,-1458 z"/>
</g>
<path style="fill:none;stroke:#666666;stroke-width:90;stroke-linecap:round;stroke-linejoin:round;stroke-miterlimit:22.9256" d="
	M 15350 39881 c 431,-148 1284,-545 1464,-1037 1267,-499 2025,-1688 2286,-3571 
	m -1017 2650 c -125,149 -264,280 -415,390 -639,467 -1687,526 -2015,-361 
	m -2932 2069 c 1048,-1446 2769,-651 4093,-1177 
	m 1511 2812 c 501,-299 759,-751 775,-1354 
	m 0 -5442l0 7551 
	m 3750 -2530 c -431,-148 -1284,-545 -1464,-1037 -1267,-499 -2025,-1688 -2286,-3571 
	m 1017 2650 c 125,149 264,280 415,390 639,467 1687,526 2015,-361 
	m 2932 2069 c -1048,-1446 -2769,-651 -4093,-1177 
	m -1511 2812 c -501,-299 -759,-751 -775,-1354"/>
<path style="fill:none;stroke:#666666;stroke-width:90;stroke-linecap:round;stroke-linejoin:round;stroke-miterlimit:22.9256" d="
	M 19100 28026 l 0 1440 
	m -8744 -17016 c -430,-608 -865,-1361 -1159,-2335 
	m 9108 11945l-2 2071 
	m 25 -4359l-12 1144 
	m 784 -1686l0 2501 
	m -2931 -307l-283 1028 
	m 1475 -2471l84 2125 
	m -860 -173l122 2140 
	m 2393 6832l0 1978 
	m -686 -3436l-30 1539 
	m -776 -3041l42 1433 
	m 1450 -5147l0 1898 
	m -1593 -1898l116 1898 
	m 760 72l29 1623 
	m -4478 -5832 c 13,661 -138,1147 -451,1457 
	m -1215 -2188 c -151,692 -543,1228 -1084,1517 
	m 129 -2207 c -570,479 -1250,776 -2041,891 
	m 516 -1910 c -453,85 -871,79 -1253,-21 
	m 1619 -1726 c -439,81 -1316,-78 -1757,-403 
	m 903 -4038 c 334,733 898,1463 1382,1952 
	m -1986 111 c 365,536 1034,936 1562,1182 
	m 4445 7368 c 65,911 -328,2372 -1189,3070 
	m -1025 -1500 c -250,654 -833,1137 -1452,1361 
	m 1505 -3490 c -1304,1675 -3150,2805 -4701,2990 
	m 1226 -1927 c -1240,596 -2384,740 -3430,433 
	m 4130 -1782 c -2186,569 -4344,32 -5191,-1063 
	m 38 -9724 c 350,1395 1310,3163 2528,4106 
	m 231 -7489 c 76,1034 455,2130 1118,2930 
	m 8386 7445 c -179,282 -256,615 -220,946 
	m -8334 -4027 c -836,-483 -1394,-1075 -1675,-1776 -852,-1194 -1387,-2393 -1603,-3598 -419,-68 -838,-312 -1252,-731 -411,2190 376,4616 2500,6864 -171,-257 -317,-542 -437,-855 1039,364 1862,396 2467,96 z 
	m 67 -7244 c 77,1013 507,2197 1295,3557 -840,-333 -1514,-839 -2006,-1522 -130,1018 333,2201 1391,3549 -152,-24 -302,-53 -449,-88 -2486,-3442 -3155,-7590 -966,-9438 -84,1475 156,2784 735,3942 z 
	m 165 -1436 c 667,1306 1338,2620 2005,3926 -319,744 -265,1634 161,2669 -1998,-2823 -2712,-5012 -2166,-6595 z 
	m 2166 6595 c 95,231 208,469 340,714 -120,5 -240,20 -360,42 -63,483 21,945 249,1385 -79,18 -158,41 -235,69 -2209,-2111 -3221,-3889 -3036,-5334 492,683 1166,1189 2006,1522 295,509 640,1043 1036,1602 z 
	m -4072 309 c -1639,-2295 -2105,-4612 -1389,-6946 149,449 597,991 1096,1378 147,1768 953,3780 2265,5596 -801,-192 -1528,-551 -2184,-1076 11,373 81,722 212,1048 z 
	m -3729 -1117 c -16,2152 1130,3967 3459,5338 845,103 1549,51 2102,-152 -952,-265 -1681,-776 -2188,-1534 -987,-1045 -1685,-2128 -2109,-3208 -498,28 -932,-127 -1264,-444 z 
	m 4279 8352 c -2916,-516 -4435,-2253 -4556,-5209 524,376 1122,462 1488,318 556,694 1305,1322 2248,1876 -208,-25 -424,-60 -648,-104 488,1246 1468,1884 2941,1914 -377,492 -869,893 -1473,1205 z 
	m 0 0 c -300,155 -628,288 -983,398 1452,644 2671,744 3655,299 -23,533 -156,1027 -399,1476 -3954,928 -6325,-255 -7106,-3547 651,272 1247,264 1788,-23 742,704 1757,1169 3045,1397 z 
	m 3255 2628 c -3430,2233 -5798,2223 -7105,-29 696,74 1351,-112 1650,-494 1151,475 2642,498 4473,68 -111,207 -246,405 -405,593 506,2 968,-44 1387,-138 z 
	m 0 0 c 866,-194 1547,-594 2043,-1200 62,304 86,612 72,924 -2298,2923 -4716,3873 -7254,2850 517,-167 837,-471 960,-910 1152,-45 2545,-600 4179,-1664 z 
	m -1035 2460 c 1074,-519 2124,-1431 3150,-2736 -22,502 -141,1014 -359,1535 654,-108 1181,-332 1582,-671 -484,2083 -1994,3177 -4531,3274 314,-496 367,-963 158,-1402 z 
	m 1642 -11918 c -877,-1630 -937,-2940 -180,-3931 106,947 484,1870 1136,2769 -173,483 -164,921 27,1315 -324,-117 -652,-168 -983,-153 z 
	m -346 1496 c -298,107 -584,288 -858,543 -2234,-734 -3374,-1898 -3420,-3492 776,622 1652,1010 2633,1164 444,566 992,1161 1645,1785 z 
	m -2392 -125 c 436,253 947,475 1534,668 -23,21 -47,44 -70,66 221,662 466,1049 734,1163 -138,205 -262,408 -373,610 -2201,-16 -3632,-884 -4292,-2603 1039,364 1862,396 2467,96 z 
	m 158 2293 c -689,253 -1612,271 -2750,47 738,1884 2601,2378 5591,1482 4,-55 9,-111 16,-167 -560,73 -1077,-47 -1550,-359 95,-261 215,-524 360,-789 -616,-5 -1172,-76 -1667,-214 z 
	m 191 1961 c 754,15 1638,-128 2650,-431 -27,338 -12,666 45,981 -1126,1726 -2843,2077 -5151,1053 1072,-333 1891,-868 2456,-1603 z 
	m 1199 1902 c 580,-261 1078,-712 1496,-1352 18,103 41,205 68,305 799,-12 1302,-201 1509,-567 79,344 177,635 294,872 -538,1884 -1928,2821 -4171,2811 503,-597 771,-1291 804,-2069 z 
	m 4749 -1254 c 451,2622 -352,4103 -2410,4444 352,-845 448,-1664 287,-2459 328,-401 575,-892 741,-1473 100,202 214,365 342,489 447,-145 794,-479 1040,-1001 z 
	m 539 3655 c -263,1984 -1090,3068 -2478,3226 221,-345 215,-692 -14,-1033 550,-522 925,-1214 1125,-2075 350,-295 603,-679 760,-1151 279,342 474,690 607,1033 z 
	m 28 -2077 c 472,-429 725,-1076 762,-1938 151,589 363,968 636,1135 380,-257 639,-908 776,-1952 -57,-210 -141,-516 -192,-751 -164,115 -378,143 -603,70 -102,63 -188,72 -269,47 -344,-105 -728,-521 -1225,-341 -418,152 -419,603 -797,828 -274,163 -536,143 -694,8 -168,-143 -530,-481 -863,-803 -228,-220 -441,-437 -554,-633 -388,-675 802,-894 1216,-1118 481,-260 698,-856 433,-1349 -100,-187 -269,-329 -476,-528 -254,-245 -1067,-1321 -1320,-1688 -173,483 -164,921 27,1315 -324,-117 -652,-168 -983,-153 -120,5 -239,20 -360,42 -63,483 21,945 249,1385 -79,18 -158,41 -235,69 -298,107 -584,288 -858,543 -23,22 -47,44 -70,66 221,662 466,1049 734,1163 -138,205 -262,408 -372,610 -145,265 -266,528 -361,789 473,312 990,432 1550,360 -6,56 -12,111 -16,167 -27,339 -12,666 45,981 18,103 41,205 68,305 799,-12 1302,-201 1509,-567 79,344 177,635 294,872 100,202 214,365 342,489 447,-145 794,-479 1040,-1001 96,576 153,1117 567,1578 z 
	m 2320 1496 c 9,731 -206,1391 -645,1979 68,213 110,406 126,580 140,602 390,1022 735,1235 375,-388 595,-996 660,-1825 -416,-412 -708,-1068 -876,-1969 z 
	m -922 -2299 c -76,1002 -303,1727 -678,2174 20,246 51,473 95,681 148,700 435,1175 860,1423 440,-588 654,-1248 645,-1980 -424,-448 -731,-1214 -922,-2298 z 
	m 922 2298 c -424,-448 -731,-1214 -922,-2298 380,-257 639,-908 776,-1952 255,1058 570,1751 944,2079 -48,879 -314,1602 -798,2171 z 
	m -2320 -1495 c 471,-429 725,-1075 762,-1938 151,589 363,968 636,1135 -76,1002 -303,1727 -678,2174 -368,-219 -608,-676 -720,-1371 z 
	m 2320 1495 c 484,-569 750,-1292 798,-2171 89,877 349,1716 795,2171 -107,1115 -342,1656 -717,1970 -416,-412 -709,-1069 -876,-1970 z 
	m -2168 1205 c 269,-183 490,-399 663,-648 -44,-208 -75,-435 -95,-681 -368,-219 -608,-676 -720,-1371 -414,-461 -471,-1002 -568,-1578 183,1060 160,1934 -67,2622 452,553 682,1123 787,1656 z 
	m 762 2381 c 0,0 42,33 125,97 728,-175 940,-743 636,-1703 -425,-248 -712,-723 -860,-1423 -173,249 -394,465 -663,648 -40,-203 -98,-412 -180,-623 -129,977 -396,1736 -799,2274 607,524 910,786 910,786 -586,-1234 1049,-1525 1204,-649 37,209 -56,439 -373,593 z 
	m 1403 33 c -233,-235 -407,-592 -516,-1059 59,612 -196,986 -762,1123 536,447 637,1026 453,1367 63,54 132,101 207,139 347,-463 555,-992 618,-1570 z 
	m 163 3055 c -411,-325 -697,-875 -781,-1485 347,-463 555,-992 618,-1570 68,69 141,128 219,176 121,588 351,1061 691,1421 -110,570 -372,1062 -747,1458 z 
	m 1433 -2879 c -373,-357 -599,-952 -717,-1824 -65,828 -285,1436 -660,1824 121,588 351,1061 691,1421 265,-244 481,-730 686,-1421 z 
	m -396 4499 c 242,-400 338,-941 396,-1620 -316,-235 -518,-722 -686,-1458 -110,570 -372,1062 -747,1458 206,441 713,1392 1037,1620 z 
	m -1535 -13295 c 130,-91 229,-236 279,-429 122,554 402,756 880,971 258,-108 578,-318 772,-542 -47,1279 -269,2124 -795,2830 -374,-328 -689,-1021 -944,-2079 -57,-210 -141,-516 -192,-751 z 
	m 1931 0 c 47,1279 269,2124 795,2830 -89,877 -349,1716 -795,2171 -446,-455 -706,-1294 -795,-2171 526,-706 748,-1551 795,-2830 z 
	m -5234 12935 c -53,428 -251,760 -526,978 475,781 1495,1339 2312,1189 -371,-352 -453,-960 -255,-1376 -434,-256 -701,-846 -631,-1726 -96,431 -396,792 -900,935 z 
	m 0 0 c -142,1155 -1345,1615 -2256,1003 937,-180 1123,-1726 364,-2159 553,244 1119,-42 1698,-859 -327,806 -386,1499 -180,2077 135,-8 260,-30 374,-62 z 
	m 3546 -877 c 91,31 182,74 270,132 497,325 666,896 536,1370 114,607 408,1443 882,2070 474,-627 768,-1463 882,-2070 -130,-474 39,-1045 536,-1370 88,-58 179,-101 270,-132 943,-319 1952,739 1192,1784 871,180 1562,-488 1454,-1842 118,529 543,951 1274,997 207,-578 147,-1271 -180,-2077 649,915 1281,1164 1896,748 -681,-111 -588,-752 -796,-1313 -250,-675 -705,-1342 -1457,-1122 -642,188 -894,1109 -1663,1272 -424,90 -777,-117 -986,-454 -64,54 -133,101 -208,139 -84,610 -370,1160 -781,1485 -206,441 -713,1392 -1037,1620 -242,-400 -338,-941 -396,-1620 -58,679 -154,1220 -396,1620 -324,-228 -831,-1179 -1037,-1620 -411,-325 -697,-875 -781,-1485 -75,-38 -144,-85 -208,-139 -209,337 -562,544 -986,454 -769,-163 -1021,-1084 -1663,-1272 -752,-220 -1206,447 -1457,1122 -208,561 -115,1202 -796,1313 615,416 1247,167 1896,-748 -327,806 -386,1499 -180,2077 731,-46 1156,-468 1274,-997 -108,1354 583,2022 1454,1842 -760,-1045 249,-2103 1192,-1784 z 
	m 6922 877 c 53,428 251,760 526,978 -475,781 -1495,1339 -2312,1189 371,-352 453,-960 255,-1376 434,-256 701,-846 631,-1726 96,431 396,792 900,935 z 
	m 0 0 c 142,1155 1345,1615 2256,1003 -937,-180 -1123,-1726 -364,-2159 -553,244 -1119,-42 -1698,-859 327,806 386,1499 180,2077 -135,-8 -260,-30 -374,-62 z 
	m 5543 -15909 c 836,-483 1394,-1075 1675,-1776 852,-1194 1387,-2393 1603,-3598 419,-68 838,-312 1252,-731 411,2190 -376,4616 -2500,6864 171,-257 317,-542 437,-855 -1039,364 -1862,396 -2467,96 z 
	m -67 -7244 c -77,1013 -507,2197 -1295,3557 840,-333 1514,-839 2006,-1522 130,1018 -333,2201 -1391,3549 152,-24 302,-53 449,-88 2486,-3442 3155,-7590 966,-9438 84,1475 -156,2784 -735,3942 z 
	m -165 -1436 c -667,1306 -1338,2620 -2005,3926 319,744 265,1634 -161,2669 1998,-2823 2712,-5012 2166,-6595 z 
	m -2166 6595 c -95,231 -208,469 -340,714 120,5 240,20 360,42 63,483 -21,945 -249,1385 79,18 158,41 235,69 2209,-2111 3221,-3889 3036,-5334 -492,683 -1166,1189 -2006,1522 -295,509 -640,1043 -1036,1602 z 
	m 4072 309 c 1639,-2295 2105,-4612 1389,-6946 -149,449 -597,991 -1096,1378 -147,1768 -953,3780 -2265,5596 801,-192 1528,-551 2184,-1076 -11,373 -81,722 -212,1048 z 
	m 3729 -1117 c 16,2152 -1130,3967 -3459,5338 -845,103 -1549,51 -2102,-152 952,-265 1681,-776 2188,-1534 987,-1045 1685,-2128 2109,-3208 498,28 932,-127 1264,-444 z 
	m -4279 8352 c 2916,-516 4435,-2253 4556,-5209 -524,376 -1122,462 -1488,318 -556,694 -1305,1322 -2248,1876 208,-25 424,-60 648,-104 -488,1246 -1468,1884 -2941,1914 377,492 869,893 1473,1205 z 
	m 0 0 c 300,155 628,288 983,398 -1452,644 -2671,744 -3655,299 23,533 156,1027 399,1476 3954,928 6325,-255 7106,-3547 -651,272 -1247,264 -1788,-23 -742,704 -1757,1169 -3045,1397 z 
	m -3255 2628 c 3430,2233 5798,2223 7105,-29 -696,74 -1351,-112 -1650,-494 -1151,475 -2642,498 -4473,68 111,207 246,405 405,593 -506,2 -968,-44 -1387,-138 z 
	m 0 0 c -866,-194 -1547,-594 -2043,-1200 -62,304 -86,612 -72,924 2298,2923 4716,3873 7254,2850 -517,-167 -837,-471 -960,-910 -1152,-45 -2545,-600 -4179,-1664 z 
	m 1035 2460 c -1074,-519 -2124,-1431 -3150,-2736 22,502 141,1014 359,1535 -654,-108 -1181,-332 -1582,-671 484,2083 1994,3177 4531,3274 -314,-496 -367,-963 -158,-1402 z 
	m -1642 -11918 c 877,-1630 937,-2940 180,-3931 -106,947 -484,1870 -1136,2769 173,483 164,921 -27,1315 324,-117 652,-168 983,-153 z 
	m 346 1496 c 298,107 584,288 858,543 2234,-734 3374,-1898 3420,-3492 -776,622 -1652,1010 -2633,1164 -444,566 -992,1161 -1645,1785 z 
	m 2392 -125 c -436,253 -947,475 -1534,668 23,21 47,44 70,66 -221,662 -466,1049 -734,1163 138,205 262,408 373,610 2201,-16 3632,-884 4292,-2603 -1039,364 -1862,396 -2467,96 z 
	m -158 2293 c 689,253 1612,271 2750,47 -738,1884 -2601,2378 -5591,1482 -4,-55 -9,-111 -16,-167 560,73 1077,-47 1550,-359 -95,-261 -215,-524 -360,-789 616,-5 1172,-76 1667,-214 z 
	m -191 1961 c -754,15 -1638,-128 -2650,-431 27,338 12,666 -45,981 1126,1726 2843,2077 5151,1053 -1072,-333 -1891,-868 -2456,-1603 z 
	m -1199 1902 c -580,-261 -1078,-712 -1496,-1352 -18,103 -41,205 -68,305 -799,-12 -1302,-201 -1509,-567 -79,344 -177,635 -294,872 538,1884 1928,2821 4171,2811 -503,-597 -771,-1291 -804,-2069 z 
	m -4749 -1254 c -451,2622 352,4103 2410,4444 -352,-845 -448,-1664 -287,-2459 -328,-401 -575,-892 -741,-1473 -100,202 -214,365 -342,489 -447,-145 -794,-479 -1040,-1001 z 
	m -539 3655 c 263,1984 1090,3068 2478,3226 -221,-345 -215,-692 14,-1033 -550,-522 -925,-1214 -1125,-2075 -350,-295 -603,-679 -760,-1151 -279,342 -474,690 -607,1033 z 
	m -28 -2077 c -472,-429 -725,-1076 -762,-1938 -151,589 -363,968 -636,1135 -380,-257 -639,-908 -776,-1952 57,-210 141,-516 192,-751 164,115 378,143 603,70 102,63 188,72 269,47 344,-105 728,-521 1225,-341 418,152 419,603 797,828 274,163 536,143 694,8 168,-143 530,-481 863,-803 228,-220 441,-437 554,-633 388,-675 -802,-894 -1216,-1118 -481,-260 -698,-856 -433,-1349 100,-187 269,-329 476,-528 254,-245 1067,-1321 1320,-1688 173,483 164,921 -27,1315 324,-117 652,-168 983,-153 120,5 239,20 360,42 63,483 -21,945 -249,1385 79,18 158,41 235,69 298,107 584,288 858,543 23,22 47,44 70,66 -221,662 -466,1049 -734,1163 138,205 262,408 372,610 145,265 266,528 361,789 -473,312 -990,432 -1550,360 6,56 12,111 16,167 27,339 12,666 -45,981 -18,103 -41,205 -68,305 -799,-12 -1302,-201 -1509,-567 -79,344 -177,635 -294,872 -100,202 -214,365 -342,489 -447,-145 -794,-479 -1040,-1001 -96,576 -153,1117 -567,1578 z 
	m -2320 1496 c -9,731 206,1391 645,1979 -68,213 -110,406 -126,580 -140,602 -390,1022 -735,1235 -375,-388 -595,-996 -660,-1825 416,-412 708,-1068 876,-1969 z 
	m 922 -2299 c 76,1002 303,1727 678,2174 -20,246 -51,473 -95,681 -148,700 -435,1175 -860,1423 -440,-588 -654,-1248 -645,-1980 424,-448 731,-1214 922,-2298 z 
	m -922 2298 c 424,-448 731,-1214 922,-2298 -380,-257 -639,-908 -776,-1952 -255,1058 -570,1751 -944,2079 48,879 314,1602 798,2171 z 
	m 2320 -1495 c -471,-429 -725,-1075 -762,-1938 -151,589 -363,968 -636,1135 76,1002 303,1727 678,2174 368,-219 608,-676 720,-1371 z 
	m -2320 1495 c -484,-569 -750,-1292 -798,-2171 -89,877 -349,1716 -795,2171 107,1115 342,1656 717,1970 416,-412 709,-1069 876,-1970 z 
	m 2168 1205 c -269,-183 -490,-399 -663,-648 44,-208 75,-435 95,-681 368,-219 608,-676 720,-1371 414,-461 471,-1002 568,-1578 -183,1060 -160,1934 67,2622 -452,553 -682,1123 -787,1656 z 
	m -762 2381 c 0,0 -42,33 -125,97 -728,-175 -940,-743 -636,-1703 425,-248 712,-723 860,-1423 173,249 394,465 663,648 40,-203 98,-412 180,-623 129,977 396,1736 799,2274 -607,524 -910,786 -910,786 586,-1234 -1049,-1525 -1204,-649 -37,209 56,439 373,593 z 
	m -1403 33 c 233,-235 407,-592 516,-1059 -59,612 196,986 762,1123 -536,447 -637,1026 -453,1367 -63,54 -132,101 -207,139 -347,-463 -555,-992 -618,-1570 z 
	m -163 3055 c 411,-325 697,-875 781,-1485 -347,-463 -555,-992 -618,-1570 -68,69 -141,128 -219,176 -121,588 -351,1061 -691,1421 110,570 372,1062 747,1458 z 
	m -1433 -2879 c 373,-357 599,-952 717,-1824 65,828 285,1436 660,1824 -121,588 -351,1061 -691,1421 -265,-244 -481,-730 -686,-1421 z 
	m 396 4499 c -242,-400 -338,-941 -396,-1620 316,-235 518,-722 686,-1458 110,570 372,1062 747,1458 -206,441 -713,1392 -1037,1620 z 
	m 1535 -13295 c -130,-91 -229,-236 -279,-429 -122,554 -402,756 -880,971 -258,-108 -578,-318 -772,-542 47,1279 269,2124 795,2830 374,-328 689,-1021 944,-2079 57,-210 141,-516 192,-751 z 
	m -2648 6971 c 118,873 344,1468 717,1825 373,-357 599,-952 717,-1825 -375,-314 -610,-855 -717,-1970 -107,1115 -342,1656 -717,1970 z 
	m 31 3246 c 265,-244 481,-730 686,-1421 205,691 421,1177 686,1421 -168,736 -370,1223 -686,1458 -316,-235 -518,-722 -686,-1458 z 
	m -12713 -19549 c 173,1487 902,3196 1767,4194 
	m -29 4654 c -1363,-712 -2871,-2227 -3282,-3430 
	m -15 3256 c 587,1143 2106,2386 3969,2532 
	m 19733 -8654 c 430,-608 865,-1361 1159,-2335 
	m -9108 11945l2 2071 
	m -25 -4359l12 1144 
	m 2147 508l283 1028 
	m -1475 -2471l-84 2125 
	m 860 -173l-122 2140 
	m -1707 5374l30 1539 
	m 776 -3041l-42 1433 
	m 143 -5147l-116 1898 
	m -760 72l-29 1623 
	m 4478 -5832 c -13,661 138,1147 451,1457 
	m 1215 -2188 c 151,692 543,1228 1084,1517 
	m -129 -2207 c 570,479 1250,776 2041,891 
	m -516 -1910 c 453,85 871,79 1253,-21 
	m -1619 -1726 c 439,81 1316,-78 1757,-403 
	m -903 -4038 c -334,733 -898,1463 -1382,1952 
	m 1986 111 c -365,536 -1034,936 -1562,1182 
	m -4445 7368 c -65,911 328,2372 1189,3070 
	m 1025 -1500 c 250,654 833,1137 1452,1361 
	m -1505 -3490 c 1304,1675 3150,2805 4701,2990 
	m -1226 -1927 c 1240,596 2384,740 3430,433 
	m -4130 -1782 c 2186,569 4344,32 5191,-1063 
	m -38 -9724 c -350,1395 -1310,3163 -2528,4106 
	m -231 -7489 c -76,1034 -455,2130 -1118,2930 
	m -8386 7445 c 179,282 256,615 220,946 
	m 10956 -10385 c -173,1487 -902,3196 -1767,4194 
	m 29 4654 c 1363,-712 2871,-2227 3282,-3430 
	m 15 3256 c -587,1143 -2106,2386 -3969,2532 
	m -18045 -6066 c -671,-695 -1095,-1542 -1270,-2544 
	m 15382 2544 c 671,-695 1095,-1542 1270,-2544"/>
<g style="stroke-miterlimit:22.9256;stroke-linecap:round;stroke-linejoin:round">
	<path class="fill:black;stroke:#666666;stroke-width:90" d="
		M 20715 16550 c -178,-28 -345,-128 -464,-308 56,394 -34,833 -271,1316 -566,-370 -857,-780 -873,-1231 -17,451 -308,861 -874,1231 -237,-483 -327,-922 -271,-1316 -121,185 -294,285 -477,310 -26,1329 -548,2080 -1564,2252 581,759 1354,670 1527,-3 122,554 402,756 880,971 258,-108 578,-318 772,-542 194,224 514,434 772,542 478,-215 758,-417 880,-971 173,673 946,762 1527,3 -1017,-172 -1538,-924 -1564,-2254 z"/>
	<path class="fill:black;stroke:#666666;stroke-width:90" d="
		M 20360 15206 c 152,495 400,911 1033,1106 -340,334 -869,346 -1142,-70 56,394 -34,833 -271,1316 -566,-370 -857,-780 -873,-1231 -17,451 -308,861 -874,1231 -237,-483 -327,-922 -271,-1316 -273,416 -802,404 -1141,70 632,-195 880,-611 1032,-1106 117,-78 216,-188 277,-312 9,246 -29,472 -116,680 394,-52 682,-288 761,-525 24,189 134,467 332,714 198,-246 307,-525 331,-714 79,237 368,473 761,525 -87,-208 -125,-434 -115,-680 61,124 159,234 276,312 z"/>
	<path class="fill:black;stroke:#666666;stroke-width:90" d="
		M 17595,14631 C 17824,14464 18002,14170 18053,13737 17375,12827 17586,12210 17028,11523 16976,11459 16907,11407 16831,11368 16724,11258 16827,11024 16932,10871 17923.393,8356.4626 19020.899,10163.846 20535.835,9482.8644 20468.312,9749.1106 20359.447,9988.8976 20040.419,10094.181 20249.603,10479.4 20690.507,10686.195 21480.257,10624.377 21322.591,10815.2 21193.19,11034.513 20684,10871 20918,11393 21394,11482 21639,11161 21682,11595 21261,11815 20879,11773 21105,11971 21076,12244 21002,12477 20946,12654 20885,12758 20844,12890 20791,13056 20932,13243 21196,13266 20866,13410 20580,13313 20337,12975 20279,13408 20471,14054 20874,14196 20719,14313 20542,14331 20391,14232 20381,14547 20493,15020 21032,15232 20685,15463 20248,15227 20084,14894 20074,15140 20112,15366 20199,15574 19806,15522 19517,15286 19438,15049 19414,15238 19305,15516 19107,15763 18909,15516 18799,15238 18775,15049 18696,15286 18408,15522 18014,15574 18101,15366 18139,15140 18130,14894 17965,15227 17529,15463 17181,15232 17440,15066 17578,14866 17595,14631 z"/>
	<path style="fill:red;stroke:#B99D62;stroke-width:75" d="
		M 18484 11433 c -105,-28 -207,-71 -318,-132 -244,-134 -351,-95 -607,-15 -87,27 -184,51 -284,70 19,849 988,939 1209,77 z"/>
	<path style="fill:black" d="M 17991 11227 c -138,-36 -246,1 -432,59 -22,7 -45,13 -69,20 32,175 44,397 288,345 208,-44 194,-241 213,-424l0 0 z"/>
	<path style="fill:none;stroke:#666666;stroke-width:67" d="
		M 17490 11306 c 32,175 44,397 288,345 208,-44 194,-241 213,-424"/>
	<path style="fill:none;stroke:#666666;stroke-width:90" d="
		M 16878 11394 c 212,6 477,-45 681,-108 256,-80 363,-119 607,15 248,136 452,182 737,177"/>
	<path style="fill:red;stroke:#D35435;stroke-width:67" d="
		M 17465 13190 c 60,144 118,315 173,513 -143,-168 -292,-248 -446,-255 -475,-22 -682,495 -1124,593 -639,140 -1067,-459 -865,-1010 140,356 528,618 945,449 406,-164 653,-667 1317,-290 z"/>
	<path style="fill:#FFD500;stroke:#B99D62;stroke-width:75" d="
		M 16142 11632 c -608,111 -779,600 -512,1468 127,-445 436,-556 928,-333 451,-412 820,-66 1107,1039 -199,636 -840,752 -1495,332 370,945 1725,932 1883,-401 -678,-910 -467,-1527 -1025,-2214 -249,-305 -876,-349 -886,109 z"/>
	<path style="fill:#FFD500;stroke:#B99D62;stroke-width:75" d="
		M 16866 11777 c -138,67 -316,-29 -364,-200 171,-69 387,-33 364,200 z"/>
	<path style="fill:none;stroke:#B99D62;stroke-width:75" d="
		M 16142 11632 c 96,61 216,42 360,-55"/>
	<path style="fill:none;stroke:#666666;stroke-width:90" d="
		M 20250 11377 c 113,164 288,347 629,396"/>
</g>
</g>

</svg>