<svg xmlns="http://www.w3.org/2000/svg" xmlns:xlink="http://www.w3.org/1999/xlink" width="1366" height="300" viewBox="0 0 1366 300" fill="none">
    <g clip-path="url(#clip0_232_2841)">

        <rect x="474.575" y="150" width="39.4785" height="36.788" transform="rotate(37.8547 474.575 150)" fill="url(#pattern0)"/>
        <rect width="68.7682" height="64.0816" transform="matrix(-0.961699 0.274107 0.274107 0.961699 202.134 203)" fill="url(#pattern1)"/>
        <rect x="514.204" y="222" width="76.2676" height="81.1841" transform="rotate(21.8418 514.204 222)" fill="url(#pattern2)"/>
        <rect x="897" y="273.935" width="150.28" height="140.038" transform="rotate(-51.0882 897 273.935)" fill="url(#pattern3)"/>
        <rect width="79.023" height="86.0081" transform="matrix(-0.920978 0.389613 0.389613 0.920978 456.778 102)" fill="url(#pattern4)"/>
        <rect width="111.412" height="118.594" transform="matrix(-0.937984 0.346679 0.346679 0.937984 625.503 199)" fill="url(#pattern5)"/>
        <rect width="161.683" height="163.638" transform="matrix(-0.839908 0.542728 0.542728 0.839908 370.799 172)" fill="url(#pattern6)"/>
        <rect x="138" y="244.894" width="125" height="126" transform="rotate(-51.5498 138 244.894)" fill="url(#pattern7)"/>
        <rect x="284" y="252.478" width="125" height="126" transform="rotate(-32.6715 284 252.478)" fill="url(#pattern8)"/>
        <rect width="113.438" height="114.345" transform="matrix(-0.749026 -0.66254 -0.66254 0.749026 530.448 280.547)" fill="url(#pattern9)"/>
        <rect width="135.367" height="137.005" transform="matrix(-0.973387 0.229166 0.229166 0.973387 1157.76 186)" fill="url(#pattern10)"/>
        <rect x="-71" y="275.085" width="108.063" height="100.698" transform="rotate(-51.0882 -71 275.085)" fill="url(#pattern11)"/>
        <rect x="631.541" y="301.309" width="49.4865" height="70.0366" transform="rotate(-97.5952 631.541 301.309)" fill="url(#pattern12)"/>
        <rect x="723.291" y="338.154" width="49.4865" height="70.0366" transform="rotate(-174.906 723.291 338.154)" fill="url(#pattern13)"/>
        <rect x="257.526" y="284.173" width="93.9282" height="87.5268" transform="rotate(-67.9925 257.526 284.173)" fill="url(#pattern14)"/>
        <rect width="105.762" height="98.5541" transform="matrix(-0.318445 -0.947941 -0.947941 0.318445 862.104 292.256)" fill="url(#pattern15)"/>
        <rect x="1072" y="294.098" width="115.515" height="107.643" transform="rotate(-67.9925 1072 294.098)" fill="url(#pattern16)"/>
        <rect x="1008" y="286.701" width="99.9861" height="93.1719" transform="rotate(-67.9925 1008 286.701)" fill="url(#pattern17)"/>
        <rect width="100.451" height="93.6048" transform="matrix(-0.705809 0.708402 0.708402 0.705809 554.899 214)" fill="url(#pattern18)"/>
        <rect x="816" y="270.711" width="137.14" height="127.794" transform="rotate(-51.0882 816 270.711)" fill="url(#pattern19)"/>
        <rect width="98.5001" height="70.8298" transform="matrix(-0.761927 -0.647663 -0.647663 0.761927 779.166 270.666)" fill="url(#pattern20)"/>
        <rect x="1200.63" y="224" width="85.8072" height="88.963" transform="rotate(30.8577 1200.63 224)" fill="url(#pattern21)"/>
        <rect x="1031" y="270.572" width="102.729" height="95.7277" transform="rotate(-19.6658 1031 270.572)" fill="url(#pattern22)"/>
        <rect x="1320.07" y="224" width="111.936" height="104.307" transform="rotate(7.19636 1320.07 224)" fill="url(#pattern23)"/>
        <rect x="523" y="203.316" width="77.4369" height="118.594" transform="rotate(-27.9682 523 203.316)" fill="url(#pattern24)"/>
        <rect x="517.918" y="316.99" width="78.4116" height="74.3064" transform="rotate(-144.603 517.918 316.99)" fill="url(#pattern25)"/>
        <rect x="868.561" y="212" width="88.7843" height="94.5077" transform="rotate(64.8683 868.561 212)" fill="url(#pattern26)"/>
        <rect width="78.8188" height="88.7394" transform="matrix(0.566063 -0.824362 -0.824362 -0.566063 997.153 316.208)" fill="url(#pattern27)"/>
        <rect width="64.3538" height="59.267" transform="matrix(-0.920978 0.389613 0.389613 0.920978 657.269 241)" fill="url(#pattern28)"/>
        <rect x="445.947" y="210" width="83.5169" height="88.9007" transform="rotate(36.5537 445.947 210)" fill="url(#pattern29)"/>
        <rect x="484.947" y="236" width="83.5169" height="88.9007" transform="rotate(36.5537 484.947 236)" fill="url(#pattern30)"/>
        <rect x="202.947" y="157" width="83.5169" height="88.9007" transform="rotate(36.5537 202.947 157)" fill="url(#pattern31)"/>
        <rect x="1199" y="269.787" width="125.672" height="117.107" transform="rotate(-51.0882 1199 269.787)" fill="url(#pattern32)"/>
        <rect x="135.789" y="250" width="98.6838" height="91.9583" transform="rotate(74.9128 135.789 250)" fill="url(#pattern33)"/>
        <rect width="47.7524" height="55.3418" transform="matrix(-0.789569 0.613662 0.613662 0.789569 464.704 172)" fill="url(#pattern34)"/>
        <rect width="47.7524" height="55.3418" transform="matrix(-0.789569 0.613662 0.613662 0.789569 407.704 256)" fill="url(#pattern35)"/>
        <rect width="27.506" height="29.5229" transform="matrix(-0.941702 0.336448 0.336448 0.941702 1147.9 52)" fill="url(#pattern36)"/>
        <rect x="1163.77" y="103.895" width="61.3759" height="57.193" transform="rotate(55.2381 1163.77 103.895)" fill="url(#pattern37)"/>
        <rect x="1007.57" y="300.684" width="61.3759" height="57.193" transform="rotate(-128.929 1007.57 300.684)" fill="url(#pattern38)"/>
        <rect x="90.7074" y="352.431" width="146.896" height="146.219" transform="rotate(-101.668 90.7074 352.431)" fill="url(#pattern39)"/>
        <rect x="-27.2926" y="372.431" width="146.896" height="146.219" transform="rotate(-101.668 -27.2926 372.431)" fill="url(#pattern40)"/>
        <rect x="251.903" y="229" width="57.9109" height="57.644" transform="rotate(22.3322 251.903 229)" fill="url(#pattern41)"/>
        <rect x="584.881" y="130" width="124.977" height="133.033" transform="rotate(51.3397 584.881 130)" fill="url(#pattern42)"/>
        <rect width="102.57" height="109.182" transform="matrix(-0.624702 0.780863 0.780863 0.624702 353.076 146)" fill="url(#pattern43)"/>
        <rect x="170.495" y="303.243" width="108.063" height="100.698" transform="rotate(140.092 170.495 303.243)" fill="url(#pattern44)"/>


        <path fill-rule="evenodd" clip-rule="evenodd" d="M557.723 258.368H536.677V237.316H539.308V212.754H535.8V185.561H541.062V182.053H555.092V185.561H557.723V212.754H560.354V237.316H557.723V258.368ZM566.492 235.561H568.246V211.877H565.615V189.07H568.246V165.386H570.88L570.877 161.877H585.785V165.386H590.169V189.07H587.538V211.877H590.169V235.561H587.538V258.368H566.492V235.561ZM1151.73 280.382L1150.52 280.298V287.316H1154.01L1151.73 280.382ZM1136.49 280.298H1135.62L1133.63 287.316H1136.49V280.298ZM1014.09 266.591C1013.78 266.98 1013.34 267.311 1012.81 267.555V270.178H1014.6V267.14L1014.7 267.133C1014.46 266.979 1014.26 266.796 1014.09 266.591ZM1008.06 267.336C1007.61 267.062 1007.26 266.716 1007.02 266.328C1006.98 266.346 1006.94 266.36 1006.9 266.369L1008.06 271.316V267.336ZM857.631 283.807C857.631 283.249 857.379 283.017 856.822 283.017H856.208C855.652 283.017 855 283.249 855 283.807V286.439H857.631V283.807ZM0 300V287.316H1.94238C2.31069 284.478 4.72749 282.284 7.6608 282.284C8.87709 282.284 10.0039 282.663 10.9344 283.306C11.8639 281.362 13.8414 280.016 16.1371 280.016C17.6998 280.016 19.116 280.641 20.1552 281.652C21.1952 280.641 22.6115 280.016 24.1741 280.016C25.743 280.016 27.1627 280.645 28.2027 281.661C29.0753 279.577 31.1299 278.113 33.5274 278.113C34.3956 278.113 35.2155 278.311 35.9538 278.654V268.018H53.4923V287.316H59.6308V268.018H74.5385V253.982H91.2V276.789H98.2154V261H112.246V278.544H118.385V268.018H121.015V264.509H127.154V268.018H129.785V271.526H151.708V255.737H153.462V244.333H156.092V240.825H160.477V244.333H163.108V255.737H184.154V234.684H185.908V236.439H187.662V231.175H190.292V233.807H192.046V216.263H193.8V218.018H194.677V213.632H196.431V204.86H198.171V200.467L199.062 200.468V194.333H199.938V178.544H201.692V194.333H202.569V200.473L203.446 200.474V204.86H205.2V213.632H206.954V218.018H207.831V216.263H209.585V233.807H211.338V231.175H213.969V236.439H215.723V234.684H217.477V255.737H237.646V244.333H240.277V240.825H244.662V244.333H247.292V255.737H249.046V271.526H270.969V268.018H273.6V264.509H280.615V268.018H283.246L283.223 287.316H288.508V275.912H308.677V287.316H313.938V268.018H327.969V279.421H336.738V287.316H341.123V266.263H346.385V261.877H351.646V287.316H356.908V275.912H367.431V283.807H375.323V140.825H392.862V138.193H394.615V140.825H397.246V138.193H399V140.825H400.754V287.316H406.015V279.421H407.769V275.912H406.015C406.015 252.171 408.704 218.005 409.879 205.405C410.203 201.937 411.967 198.782 414.725 196.659C419.135 193.265 426.228 189.07 434.077 189.07V279.421H442.846V132.93C451.58 132.93 459.395 140.136 464.302 145.716C467.371 149.204 469.335 154.392 469.694 160.093C471.002 180.808 474.415 236.883 474.415 275.912H471.785V279.421H474.415V287.316H478.8V284.684L480.554 282.93V280.298L482.308 278.544V231.175L488.446 224.158V188.193L498.092 178.544V166.263L505.985 158.368V153.105L510.369 148.719V161.877L508.615 164.509V261L512.123 266.263V287.316H517.75L524.344 258.375L587.538 258.368V280.298H597.997C596.394 273.949 595.431 266.08 595.431 257.491C595.431 247.328 596.779 237.985 598.941 230.967C596.779 223.792 595.426 214.368 595.428 204.315C595.43 200.283 595.934 196.269 596.308 192.579C596.464 191.032 598.268 189.819 599.815 189.947C606.114 190.468 620.862 192.348 620.862 194.333C620.862 197.627 620.914 200.923 620.913 204.447C620.912 214.506 619.736 223.906 617.768 231.052C619.702 237.801 620.862 246.726 620.862 256.614C620.862 268.94 619.061 280.075 616.202 287.316H623.427L623.492 267.14H640.154V275.912H649.8V287.316H652.431V271.526H662.077V287.316H665.585V254.86H673.477V287.316H677.862V268.018H694.523V286.396C695.011 285.902 695.687 285.595 696.436 285.595C696.526 285.595 696.614 285.599 696.701 285.608C697.135 284.704 698.054 284.078 699.123 284.078C700.301 284.078 701.299 284.838 701.662 285.894C702.144 285.437 702.792 285.155 703.507 285.155C704.243 285.155 704.909 285.452 705.394 285.932C705.746 284.856 706.755 284.078 707.948 284.078C709.057 284.078 710.01 284.752 710.42 285.713L712.938 282.93V275.035C712.938 272.647 714.631 270.3 716.878 269.502C726.075 266.236 735.596 264.509 745.385 264.509H771.692C781.471 264.509 791.469 266.232 800.541 269.491C802.777 270.295 804.138 272.656 804.138 275.035V283.807H804.033L805.927 285.961C806.27 284.869 807.288 284.078 808.491 284.078C809.291 284.078 810.008 284.43 810.501 284.987C810.9 284.004 811.862 283.31 812.988 283.31C814.338 283.31 815.453 284.307 815.644 285.605C816.096 285.24 816.668 285.019 817.292 285.011V253.105H833.954V287.316H837.462V268.895H850.615V287.316H853.246V281.175H855V280.298H857.631V281.175H859.385V287.316H862.015V277.667L868.154 276.789V272.404L875.805 267.722L883.062 272.404V276.789L889.2 277.667V287.316H892.708V268.895H904.108V287.316H907.615V275.035H919.015V287.316H921.646V272.404L923.4 268.895H924.277L926.031 272.404V276.789H927.785V275.035H929.538V276.789H931.292V275.035H933.046V276.789H934.8V275.035H936.554V276.789H938.308V272.404L940.062 268.895H940.938L942.692 272.404V276.789H944.446V275.035H946.2V276.789H947.954V275.035H949.708V276.789H951.462V275.035H953.215V276.789H954.969V262.754L955.846 259.246H956.723C956.723 259.246 957.611 262.698 957.6 262.754V256.614H958.477V248.719L960.73 238.205L958.948 239.067L959.362 236.85L957.61 235.28L960.031 234.956L961.113 232.939L962.196 234.956L964.617 235.28L962.866 236.85L963.279 239.067L961.485 238.2L963.738 248.719V256.614H964.615V262.754L965.492 259.246H966.369L967.246 262.754V276.789H969V275.035H970.754V276.789H972.508V275.035H974.262V276.789H976.015V275.035H977.769V276.789H979.523V272.404L981.277 268.895H982.154L983.908 272.404V276.789H985.662V275.035H987.415V276.789H989.169V275.035H990.923V276.789H992.677V275.035H994.431V276.789H996.185V272.404L997.938 268.895H998.815L1000.57 272.404V287.316H1003.2V276.789C1003.2 272.404 1006.55 266.355 1006.55 266.355C1006.29 266.271 1006.1 266.026 1006.1 265.733C1006.1 265.381 1006.37 265.095 1006.72 265.08C1006.86 263.696 1008.75 261.872 1010.22 260.506V259.246H1009.34V258.368H1010.22V257.491H1011.09V258.368H1011.97V259.246H1011.09V260.568C1012.07 261.539 1013.37 262.753 1014.07 263.866C1014.64 262.905 1015.58 261.883 1016.35 261.067V260.123H1015.48V259.246H1016.35V258.368H1017.23V259.246H1018.11V260.123H1017.23V261.531C1017.58 261.927 1017.96 262.354 1018.32 262.793L1018.98 257.491H1018.11V256.614H1019.2L1021.5 247.411C1021.02 247.016 1020.64 246.434 1020.67 246.028C1020.7 245.647 1021.15 245.01 1021.62 244.398V242.579H1020.74V241.702H1021.62V240.825H1023.37V241.702H1024.25V242.579H1023.37V244.449C1023.82 245.057 1024.24 245.725 1024.25 246.088C1024.25 246.462 1023.91 247.003 1023.47 247.384L1025.78 256.614H1026.88V257.491H1026L1026.88 264.509V266.575C1027.22 266.984 1027.53 267.4 1027.78 267.807C1028 267.421 1028.39 267.004 1028.69 266.693C1028.85 266.89 1029.09 267.139 1029.29 267.393V266.187C1028.41 265.47 1027.77 264.484 1027.75 263.632C1027.73 262.266 1029.89 259.901 1031.26 258.368V257.491H1030.38V256.614H1031.26V255.737H1032.14V256.614H1033.02V257.491H1032.14V258.368C1033.34 259.768 1035.62 262.111 1035.65 263.632C1035.66 264.668 1034.98 265.922 1033.89 266.615V270.61C1034.38 271.095 1034.77 271.882 1034.77 272.404V287.316H1039.15V256.614H1062.83V287.316H1068.97V249.596H1092.65V287.316H1097.91V264.509H1108.43L1108.43 258.368H1122.46V287.316H1130.29L1139.12 262.497V234.684H1134.74V232.053H1139.12V230.298H1137.37V228.544H1139.12V226.779L1137.37 226.777V225.022L1139.12 225.024V202.228H1137.37V200.474H1139.12V198.719H1137.37V196.965H1139.12V187.832C1138.59 187.168 1138.25 186.394 1138.25 185.561V180.298H1136.49V178.544H1139.12V159.246H1136.49V157.491H1139.12V151.492C1138.13 150.734 1137.41 149.768 1137.37 148.719V146.072C1136.88 145.569 1136.53 144.926 1136.49 144.333C1136.49 143.718 1136.89 143.032 1137.43 142.514L1137.37 138.193C1137.37 137.525 1138.46 137.316 1139.12 137.316H1140V126.789H1139.12V125.035H1140V113.632C1140 113.065 1140.36 112.522 1140.88 112.077V110.123H1139.12V108.368H1140.88V96.0877H1139.12V94.3333H1140.88V87.3158C1140.88 86.8833 1141.26 86.4737 1141.75 86.157V75.0351H1139.12V73.2807H1141.75V61.8772C1141.75 61.4158 1143.03 61 1143.49 61H1143.58C1144.04 61 1145.26 61.4158 1145.26 61.8772V73.2807H1147.89V75.0351H1145.26V86.157C1145.76 86.4737 1146.14 86.8833 1146.14 87.3158V94.3333H1147.89V96.0877H1146.14V108.368H1147.89V110.123H1146.14V112.077C1146.65 112.522 1147.02 113.065 1147.02 113.632V125.035H1147.89V126.789H1147.02V137.316H1147.89C1148.56 137.316 1149.65 137.525 1149.65 138.193L1149.64 142.561C1150.15 143.073 1150.52 143.737 1150.52 144.333C1150.52 144.333 1150.93 144.538 1150.48 144.69C1150.39 145.267 1150.08 145.8 1149.65 146.205V148.719C1149.65 149.782 1148.91 150.761 1147.89 151.525V157.491H1150.52V159.246H1147.89V178.544H1150.52V180.298H1148.77V185.561C1148.77 186.394 1148.43 187.168 1147.89 187.831V196.965H1149.65V198.719H1147.89V200.474H1149.65V202.228H1147.89V225.033L1149.65 225.035V226.789L1147.89 226.788V228.544H1149.65V230.298H1147.89V232.053H1152.28V234.684H1147.89V261.695L1157.01 287.316H1161.05V271.526H1180.34V287.316H1184.72V252.228H1204.02V281.096C1205.05 280.111 1206.45 279.503 1207.99 279.503C1210.09 279.503 1211.93 280.637 1212.94 282.325C1213.93 281.523 1215.19 281.04 1216.56 281.04C1218.06 281.04 1219.42 281.618 1220.45 282.557C1221.28 282.017 1222.26 281.686 1223.31 281.636V278.544H1232.08V269.772H1233.83V268.018H1234.71V269.772H1236.46V261.877H1237.34V259.246H1238.22L1238.95 251.321L1238.47 251.572L1238.59 250.894L1238.1 250.414L1238.77 250.315L1239.08 249.698L1239.38 250.315L1240.06 250.414L1239.57 250.894L1239.69 251.572L1239.23 251.333L1239.97 259.246H1240.85V261.877H1241.72V269.772H1243.48V268.018H1244.35V269.772H1246.11V278.544H1254.88V282.578C1256.77 282.881 1258.36 284.109 1259.16 285.786C1259.86 283.383 1262.08 281.626 1264.7 281.626C1265.94 281.626 1267.09 282.022 1268.03 282.689V263.632H1288.2V281.386C1289.25 280.232 1290.77 279.503 1292.45 279.503C1294.91 279.503 1296.99 281.037 1297.83 283.196C1298.98 281.979 1300.57 281.175 1302.23 281.175C1305.42 281.175 1307.49 284.123 1307.49 287.316H1311V300H0Z" fill="#262B2E"/>
        <path d="M1366 278.857V300H1278V287.432H1281.51C1281.51 284.255 1283.58 281.322 1286.77 281.322C1288.43 281.322 1290.02 282.122 1291.17 283.332C1292.01 281.184 1294.1 279.659 1296.55 279.659C1298.24 279.659 1299.75 280.384 1300.81 281.532V263.865H1320.98V282.828C1321.92 282.165 1323.07 281.771 1324.31 281.771C1326.93 281.771 1329.15 283.519 1329.85 285.91C1330.65 284.241 1332.24 283.019 1334.14 282.718V278.704H1342.91V269.975H1344.66V268.229H1345.54V269.975H1347.29V262.119H1348.17V259.5H1349.05L1349.78 251.627L1349.33 251.864L1349.45 251.19L1348.95 250.712L1349.63 250.614L1349.94 250L1350.24 250.614L1350.92 250.712L1350.43 251.19L1350.55 251.864L1350.07 251.615L1350.8 259.5H1351.68V262.119H1352.55V269.975H1354.31V268.229H1355.19V269.975H1356.94V278.704H1365.71L1366 278.857Z" fill="#262B2E"/>
    </g>
</svg>
