<svg width="197" height="167" viewBox="0 0 197 167" fill="none" xmlns="http://www.w3.org/2000/svg"><mask id="a" maskUnits="userSpaceOnUse" x="0" y="0" width="197" height="167"><path d="M0 5a5 5 0 0 1 5-5h187a5 5 0 0 1 5 5v162H0V5z" fill="#C4C4C4"/></mask><g mask="url(#a)"><path fill="#fff" d="M0 0h197v167H0z"/><path d="M64.6 100.078l.863-2.731 23.047 7.187-.863 2.731-23.047-7.187zm75.274-39.29l-2.731.862-7.187-23.047 2.731-.862 7.187 23.047z" fill="#1E1D1D"/><path d="M161.963 19.006l1.533 2.444-32.869 20.842-1.534-2.443 32.87-20.843z" fill="#1E1D1D"/><path d="M98.572 51.109l-.815-2.78 34.547-10.061.814 2.779-34.546 10.062z" fill="#1E1D1D"/><path d="M133.885 40.185l-2.252 1.773-15.86-20.172 2.252-1.773 15.86 20.172zm-13.081 43.41l-2.875-.383 3.259-26.497 2.874.383-3.258 26.497z" fill="#1E1D1D"/><path d="M122.433 58.344l.479-2.827 17.298 2.875-.48 2.827-17.297-2.875zm-51.125 71.68l-2.204 1.869-15.716-17.105 2.205-1.869 15.715 17.105z" fill="#1E1D1D"/><path d="M70.734 130.887l.958 2.731-38.476 13.656-.958-2.731 38.476-13.656zm3.306-46.573l2.491-1.486 13.272 22.28-2.491 1.486-13.272-22.28z" fill="#1E1D1D"/><path d="M87.168 105.061l.671 2.827-33.349 7.714-.67-2.827 33.348-7.714zm2.204 2.252l.288-2.875 26.544 1.389-.287 2.875-26.545-1.389z" fill="#1E1D1D"/><path d="M98.716 120.969l-1.773-2.252 18.303-14.279 1.773 2.252-18.303 14.279z" fill="#1E1D1D"/><path d="M97.805 121.16l.431-2.827 23.191 3.402-.431 2.827-23.19-3.402z" fill="#1E1D1D"/><path d="M119.175 122.789l2.827.48-3.929 23.43-2.827-.479 3.929-23.431zM76.58 82.78l-2.876.144-1.437-27.359 2.875-.144 1.437 27.36z" fill="#1E1D1D"/><path d="M74.47 53.121l-.862 2.731-20.65-5.75.862-2.73 20.65 5.75z" fill="#1E1D1D"/><path d="M76.579 19.294l2.875.335-4.312 35.984-2.875-.336 4.312-35.983zm-43.937 1.39l1.437-2.492 24.484 14.422-1.437 2.492-24.484-14.422z" fill="#1E1D1D"/><path d="M58.611 35.058l-1.581-2.444L77.202 19.63l1.581 2.443-20.172 12.985z" fill="#1E1D1D"/><path d="M56.695 34.77l2.252-1.773 16.53 21.083-2.252 1.773-16.53-21.083z" fill="#1E1D1D"/><path d="M55.88 48.57l-2.827-.576 2.875-14.422 2.827.575L55.88 48.57zm42.883 2.491l.815-2.779 24.916 7.235-.815 2.78-24.916-7.236z" fill="#1E1D1D"/><path d="M123.967 57.578l-2.588-1.294 8.625-17.297 2.587 1.294-8.624 17.297zm-4.504 23.909l.958 2.73-22.328 7.044-.959-2.73 22.329-7.044z" fill="#1E1D1D"/><path d="M99.913 88.578l-.91 2.732-24.149-6.277.91-2.731 24.15 6.276z" fill="#1E1D1D"/><path d="M97.326 50.15l2.875.049-.575 41.35-2.875-.048.575-41.35z" fill="#1E1D1D"/><path d="M97.805 47.995l2.108 1.916L84.82 66.49l-2.108-1.917 15.093-16.578z" fill="#1E1D1D"/><path d="M83.623 63.615l2.635 1.15-9.823 21.513-2.635-1.15 9.823-21.513z" fill="#1E1D1D"/><path d="M83.479 65.004l2.54-1.341 13.415 25.682-2.54 1.341L83.48 65.004z" fill="#1E1D1D"/><path d="M86.21 64.525l-2.06 2.06-12.985-12.984 2.06-2.06L86.21 64.524z" fill="#1E1D1D"/><path d="M75.477 54.799l-.527-2.827 24.245-4.408.527 2.827-24.245 4.408zm46.765.479l2.347 1.677-25.25 34.498-2.348-1.677 25.251-34.498z" fill="#1E1D1D"/><path d="M116.492 106.306l-2.06 2.013-17.01-17.585 2.06-2.012 17.01 17.584z" fill="#1E1D1D"/><path d="M90.81 106.594l-2.54-1.39 8.625-15.86 2.54 1.39-8.625 15.86zm26.065.91l-2.827-.431 3.977-24.1 2.827.43-3.977 24.101z" fill="#1E1D1D"/><path d="M114.911 107.983l.335-2.874 21.753 2.204 1.294 2.875-23.382-2.205z" fill="#1E1D1D"/><path d="M135.801 108.271l2.588 1.965-4.217 24.676-2.827-.48 4.456-26.161z" fill="#1E1D1D"/><path d="M132.304 136.061l.91-2.731 30.234 10.062-.91 2.732-30.234-10.063z" fill="#1E1D1D"/><path d="M132.16 132.851l2.108 1.965-16.626 12.936-1.773-2.252 16.291-12.649z" fill="#1E1D1D"/><path d="M133.693 133.426l-2.012 2.061-12.698-12.17 2.013-2.061 12.697 12.17z" fill="#1E1D1D"/><path d="M121.906 122.694l-2.731.91-5.079-17.297 2.731-.911 5.079 17.298z" fill="#1E1D1D"/><path d="M121.475 124.753l-1.725-2.299 16.435-14.854 1.725 2.3-16.435 14.853zM88.318 108.08l2.444-1.486 7.714 12.65-2.444 1.485-7.714-12.649z" fill="#1E1D1D"/><path d="M97.326 118.381l1.15 2.635-27.455 12.841-1.15-2.635 27.455-12.841z" fill="#1E1D1D"/><path d="M69.967 132.611l2.396-1.629 10.301 15.141-2.395 1.629-10.302-15.141z" fill="#1E1D1D"/><path d="M41.602 131.318l.143-2.875 29.18 1.486-.144 2.875-29.18-1.486z" fill="#1E1D1D"/><path d="M71.931 132.708l-2.252-1.773 18.591-26.449 2.252 1.773-18.59 26.449zm6.852-114.66l.671 2.875H31.923l-2.731-2.875h49.591zm36.655 2.875v-2.875h52.514l-3.546 2.875h-48.968z" fill="#1E1D1D"/><path d="M139.491 62.273l-2.444-1.581 25.97-40.296L167.952 18l-28.461 44.273z" fill="#1E1D1D"/><path d="M137.383 60.309l2.252 1.82L120.9 85.176l-2.252-1.82 18.735-23.047z" fill="#1E1D1D"/><path d="M118.6 83.643l2.396-1.582 17.01 25.922-2.396 1.581-17.01-25.921zm16.866 26.114l2.587-1.773L168 148.903h-3.977l-28.557-39.146z" fill="#1E1D1D"/><path d="M165.029 145.98v2.874h-49.4l1.055-2.874h48.345zm-82.7.239l.767 2.875h-53.76l2.156-2.875h50.837z" fill="#1E1D1D"/><path d="M32.977 148.519l-3.69.575 10.973-19.357 3.114.766-10.397 18.016z" fill="#1E1D1D"/><path d="M42.368 131.749l-2.108-2.012 12.074-15.573 2.923.815-12.889 16.77z" fill="#1E1D1D"/><path d="M54.634 115.793l-2.348-1.677 21.658-30.665 2.348 1.677-21.658 30.665zm28.461 33.301l-2.012-2.156 15.812-28.797 2.54 1.39-16.34 29.563z" fill="#1E1D1D"/><path d="M96.176 120.202l2.396-1.629 19.788 28.988-2.779 1.342-19.405-28.701zm19.262-102.154l2.539 1.39-8.529 16.674-2.491-1.486 8.481-16.578z" fill="#1E1D1D"/><path d="M107.053 34.53l2.443 1.534-10.062 15.86-2.443-1.533 10.062-15.86z" fill="#1E1D1D"/><path d="M99.386 48.905l-2.395 1.58-8.625-12.984 2.396-1.581 8.624 12.985z" fill="#1E1D1D"/><path d="M90.714 35.968l-2.396 1.581-11.5-17.297L78.784 18l11.93 17.968zm-38.38 14.566l2.444-1.533 22.28 34.067-2.443 1.534-22.28-34.068z" fill="#1E1D1D"/><path d="M54.778 49l-2.348 1.678L29 18.048l3.881.383 21.897 30.57z" fill="#1E1D1D"/></g></svg>