<svg xmlns="http://www.w3.org/2000/svg" id="Layer_1" data-name="Layer 1" viewBox="0 0 453.54 125.55"><defs><style>.cls-1{fill:white;}.cls-2{fill:white;}.cls-3{fill:#262b2e ;}</style></defs><title>liga.net.</title><path class="cls-1" d="M310.35,125.23H298.17l2.65-12.44H313Zm11.65,0,9.26-44.73h11.38l-1.32,6.62h0.26a22.48,22.48,0,0,1,6.35-5.29,20.43,20.43,0,0,1,9.79-2.38c2.38,0,6.62.26,9.79,3.71a12.25,12.25,0,0,1,2.91,8.47c0,1.59-.26,2.91-0.26,4l-6.09,30.17H352.17l5.56-27.26a9.92,9.92,0,0,0,.26-2.91,5.45,5.45,0,0,0-1.85-4.5,6,6,0,0,0-4.5-1.59A12.29,12.29,0,0,0,344,92.14c-3.44,2.65-4.76,6.09-5.56,9.26l-5,24.35H322v-0.53ZM386.58,107a4.5,4.5,0,0,0-.26,1.85,7.89,7.89,0,0,0,3.18,6.35,14.8,14.8,0,0,0,8.47,2.38,24.47,24.47,0,0,0,7.68-1.06c2.38-.53,4.5-1.32,7.15-2.12l-1.85,9a45.33,45.33,0,0,1-15.62,2.91c-5.29,0-11.65-1.32-15.62-4.76-2.65-2.38-5.56-6.62-5.56-14a27.36,27.36,0,0,1,7.68-19.32,28.26,28.26,0,0,1,20.12-8.47c6.88,0,10.85,2.91,13.23,5.56,2.12,2.38,4,6.09,4,11.65a59,59,0,0,1-.79,7.15l-0.53,3.44H386.58V107Zm20.12-8.73a9.92,9.92,0,0,0,.26-2.91A7.83,7.83,0,0,0,405.37,90c-1.06-1.32-2.91-2.38-5.82-2.38a9.44,9.44,0,0,0-7.41,3.44,16.81,16.81,0,0,0-4,7.15h18.53Zm16.15-10.32,1.59-7.41h7.15l2.12-10.32,11.91-1.32L443,80.76h10.59L452,88.17H441.37l-4.23,21.44a18,18,0,0,0-.53,4,4.22,4.22,0,0,0,1.06,3.18,6.41,6.41,0,0,0,3.44,1.06,22.23,22.23,0,0,0,5-.79l-1.85,8.47a49.2,49.2,0,0,1-8.73,1.06c-3.44,0-6.62-.79-8.73-2.65a9.2,9.2,0,0,1-2.91-7.15,18.42,18.42,0,0,1,.53-4.23l4.76-24.09h-6.35V87.91Z" transform="translate(0 -1)"/><path class="cls-2" d="M156,62L143.6,125.5H120.3l9-45.53H117.92L115.8,90.56c-3.18,15.09-5.56,34.94-28.59,34.94a42.65,42.65,0,0,1-11.65-1.59l3.18-15.62a32.43,32.43,0,0,0,5,.53,7.49,7.49,0,0,0,6.35-4c1.32-1.85,3.18-6.09,6.35-22.23L100.72,62H156Zm32,0H164.77L161.33,80.5h23.56Zm-34.41,56.11-1.32,7.41h23.29l8.47-43.14C164.24,84.73,157.09,100.09,153.65,118.08Zm137.11,7.41H266.15l-1.59-13.23H246l-6.62,13.23H216.12L250,62h31.5ZM264.82,96.91l-2.38-19.06h-0.26L251.85,96.91h13ZM232,80.5L241.53,62H196.8L184.36,125.5h23.29l9-45H232Z" transform="translate(0 -1)"/><circle class="cls-3" cx="42.49" cy="42.44" r="42.35"/><path class="cls-1" d="M35.07,85.26a40.9,40.9,0,0,1-13.76-5C31.9,79.7,47,75.47,49.37,63.56a9.93,9.93,0,0,0,0-4c10.32-.26,26.73-4.5,28.85-16.94,1.85-11.12-11.91-14.82-15.35-23.56-1.06-3.18-1.06-9,1.59-11.38A42.36,42.36,0,0,1,84.31,51.12,43,43,0,0,1,35.07,85.26h0ZM20.25,79.7A42.49,42.49,0,0,1,49.63,1.62a45.86,45.86,0,0,1,13.5,5c-10.06.53-25.41,4.76-27.53,16.68a11.37,11.37,0,0,0,0,4.23C25,27.83,8.87,31.8,6.75,44.24,4.9,55.62,18.66,59.06,22.1,67.79c1.06,3.44,1.06,9.26-1.85,11.91h0ZM35.87,28.09C37.72,35.77,48.31,39.74,51,47.15,52,50.32,52,56.41,49.1,58.79,47.25,51.12,36.66,47.15,34,39.74c-1.32-3.18-1.32-9,1.85-11.65h0Z" transform="translate(0 -1)"/></svg>
