<svg xmlns="http://www.w3.org/2000/svg" width="206" height="45" viewBox="0 0 206 45">
    <g fill="white" fill-rule="evenodd">
        <path d="M115.773.938v41.048h-4.965V14.32l-8.177 27.666H96.815V.938h5.036v27.426L109.955.938h3.833zM15.356.938H13.37v15.813H5.178V.938H0v41.047h5.178v-20.49h8.192v20.49h5.177V.938zM128.983 5.751v36.234H123.7V.938h18.228v41.047h-5.284V5.751zM154.546 41.986h-5.107V.937h5.11zM159.496 40.976c.71-.52 1.272-1.041 1.686-1.56.412-.52.732-1.19.957-2.004.224-.816.368-1.853.425-3.103.059-1.253.09-2.863.09-4.823V.938h16.56v41.048h-5.283V5.75h-6.136v25.554c0 2.08-.048 3.831-.142 5.25-.093 1.417-.3 2.619-.62 3.599-.825 2.533-2.853 3.967-5.003 4.766l-2.534-3.944zM195.895 42.777c-1.776 0-3.276-.295-4.504-.881a7.417 7.417 0 0 1-2.972-2.535c-.755-1.103-1.295-2.446-1.62-4.028-.325-1.582-.487-11.876-.487-13.89 0-2.013.177-12.313.532-13.907.354-1.593.909-2.937 1.664-4.027a7.344 7.344 0 0 1 2.95-2.5c1.211-.574 2.691-.863 4.437-.863 1.744 0 3.224.289 4.435.863a7.523 7.523 0 0 1 2.974 2.5c.768 1.09 1.323 2.434 1.663 4.027.34 1.594.51 11.894.51 13.908 0 2.013-.162 12.313-.488 13.906-.326 1.594-.857 2.944-1.597 4.047a7.125 7.125 0 0 1-2.95 2.517c-1.228.574-2.744.863-4.547.863m-2.233-37.026c-.58.505-1.033 1.185-1.36 2.044-.327.855-.556 1.873-.682 3.046-.123 1.168-.188 9.286-.188 10.605 0 1.382.07 9.499.203 10.667.136 1.172.373 2.19.71 3.045.338.86.79 1.53 1.36 2.012 1.146.97 3.226.971 4.372 0 .57-.481 1.018-1.152 1.345-2.012.327-.856.56-1.873.696-3.045.134-1.168.202-9.285.202-10.667 0-1.32-.059-9.437-.173-10.605-.116-1.173-.34-2.19-.666-3.046-.33-.858-.782-1.54-1.362-2.044-1.162-1.012-3.293-1.01-4.457 0M50.309 27.737V14.735l5.186-.591v14.738zM34.696 27.657c-.327 1.14.125 2.573 1.242 2.816 1.43.312 2.567-.696 2.849-1.952l2.742-.472 2.219 1.48c-.954 3.523-4.792 5.854-8.932 5.061-3.528-.676-5.694-3.89-5.084-7.98l2.867-.587 2.097 1.634zM68.246 41.986V.937h5.178V19.54h.08L85.841.937h5.95L78.077 21.495l13.116 20.49h-6.308l-11.382-18.37h-.079v18.37z"/>
        <path d="M61.82 33.382L23.955 25.39v-7.968L61.82 9.306v5.437l-32.688 6.635v.116l32.688 6.403z"/>
    </g>
</svg>
