<svg id="Шар_1" xmlns="http://www.w3.org/2000/svg" viewBox="0 0 733 365.1"><style>.st0{fill:#8293a1}.st1{font-family:&apos;ArialMT&apos;}.st2{font-size:28px}.st3{font-family:&apos;Arial-BoldMT&apos;}.st4{fill:#ffec9e}</style><text transform="translate(0 322.54)" class="st0 st1 st2">T</text><text transform="translate(14.7 322.54)" class="st0 st1 st2">elegram</text><text transform="translate(31.73 354.54)" class="st0 st3 st2">9k</text><text transform="translate(212.85 322.54)" class="st0 st1 st2">Linkedin</text><text transform="translate(239.15 354.54)" class="st0 st3 st2">0.1k</text><text transform="translate(413.51 322.54)" class="st0 st1 st2">Mailchimp</text><text transform="translate(451.03 354.54)" class="st0 st3 st2">4k</text><text transform="translate(238.55 109.99)" class="st0 st1 st2">W</text><text transform="translate(265.17 109.99)" class="st0 st1 st2">eb</text><text transform="translate(243.72 141.99)" class="st0 st3 st2">30k</text><text transform="translate(415 109.99)" class="st0 st1 st2">Facebook</text><text transform="translate(442.5 141.99)" class="st0 st3 st2">17.6k</text><text transform="translate(635 322.54)" class="st0 st1 st2">T</text><text transform="translate(651.26 322.54)" class="st0 st1 st2">witter</text><text transform="translate(650.03 354.54)" class="st0 st3 st2">0.5k</text><path class="st4" d="M96.1 218.1c-.4 1.8-.9 4.1-1.4 6.3-3.7 15.8-7.3 31.6-11 47.3-.6 2.6-2.4 3.3-4.5 1.7-5.6-4.1-11.1-8.1-16.7-12.2-.4-.4-1.1-.5-1.5-.1l-.2.2c-2.7 2.5-5.4 5-8.1 7.6-2 1.9-3.7 1.5-4.5-1.1-2-6.3-4-12.5-6-18.8-.1-.6-.6-1.1-1.2-1.3-4.8-1.5-9.5-3-14.3-4.5-.3-.1-.6-.2-1-.3-1.1-.3-1.8-1.3-1.8-2.4 0-1 .7-1.9 1.7-2.2l12.1-4.8c17.2-6.8 34.3-13.6 51.5-20.5 3.9-1.4 7 1.4 6.9 5.1zm-6.5.5l-.2-.1-9.3 6.1c-11.3 7.4-22.6 14.8-33.9 22.3-.6.3-.9 1-.7 1.6.6 1.9 1.1 3.8 1.6 5.7.9 3.2 1.8 6.4 2.7 9.5.2-.3.4-.6.4-1 .5-3.2 1.1-6.4 1.7-9.6.1-.6.4-1.1.8-1.5 8.6-7.7 17.1-15.3 25.7-23l11.2-10z"/><path class="st4" d="M503.6 0h-49.4c-3.4 0-6.2 2.8-6.2 6.2v49.4c0 3.4 2.8 6.2 6.2 6.2h49.4c3.4 0 6.2-2.8 6.2-6.2V6.2c0-3.4-2.8-6.2-6.2-6.2zm-3 6.2v9.3h-6.2c-1.6-.1-3 1.1-3.1 2.7v6.6h9.3V34h-9.3v21.6H482V34h-6.2v-9.3h6.2V17c.1-5.9 4.9-10.7 10.8-10.8h7.8z" id="post-facebook"/><path class="st4" d="M707.5 224.6l-.9.2c-1.9.5-2-.1-.7-1.5.6-.6 1.1-1.3 1.6-2 1-1.6.1-2.3-1.6-1.6-.6.3-1.3.5-1.9.7-1.8.6-4.4-.3-6.1-1.3-6.2-3.9-14.4-1.9-18.3 4.3-1.3 2.1-2 4.5-2 7 0 .5 0 1 .1 1.5.1.8-1.3 1.4-3.2 1.2-4.1-.6-8.1-1.8-11.8-3.8-3.6-1.9-6.9-4.3-9.8-7.2-1.3-1.4-3.2-1.3-3.7.6-.9 3.3-.5 6.8 1.1 9.8.5.9 1.1 1.8 1.9 2.6 1.2 1.3 1 2.1-.7 1.6-1-.3-2-.7-2.9-1.1v.1c0 3.1 1 6.1 3 8.4 1.2 1.4 2.7 2.6 4.3 3.4 1.7.9 2.5 1.3 1.6 1.5-.6.1-1.2.1-1.8.1-.4 0-.8 0-1.2-.1-.7-.1-.8 1.4.2 3 .9 1.3 1.9 2.5 3.2 3.4 1.3 1 2.7 1.7 4.3 2.1 1.9.5 2.2 1.5.6 2.5-4.1 2.5-8.8 3.7-13.6 3.7h-1.6c-.9 0-.3.7 1.4 1.6 5.4 2.8 11.3 4.2 17.3 4.2 4.5 0 9-.7 13.3-2.2 3.9-1.3 7.5-3.4 10.6-6 2.9-2.5 5.5-5.4 7.6-8.6 2.1-3.2 3.7-6.6 4.7-10.2 1-3.5 1.6-7 1.6-10.7v-.9c0-.5 1.2-1.8 2.7-3.1.6-.6 1.2-1.2 1.8-1.9 1.4-1.2.8-1.9-1.1-1.3zm-470.9 45.5v-53.5c.2-1.6 1.3-3 2.9-3.6.4-.2.9-.3 1.3-.4h53.5c1.9.3 3.4 1.7 3.9 3.5.1.2.1.4.1.7v53.4c-.3 1.9-1.7 3.4-3.5 3.9-.2.1-.4.1-.6.1h-53.3l-.2-.1c-1.9-.3-3.4-1.6-3.9-3.5-.1-.1-.2-.3-.2-.5zm24.9-28v28.2c0 .3.1.4.4.4h7.9v-15.9c0-1.2.1-2.3.3-3.5.2-1.8 1.5-3.2 3.3-3.6.9-.3 1.8-.3 2.8-.2 2 0 3.7 1.4 4 3.3.3 1 .4 2 .4 3.1v16.8h8.3v-18.2c0-1.6-.2-3.1-.6-4.7-.5-2.6-2.3-4.7-4.7-5.7-3-1.3-6.3-1.3-9.3-.2-2.2.7-4 2.1-5.3 4 0 .1-.1.1-.2.2v-3.9l-7.3-.1zm-5.9 28.5v-27.2h-8.3v27.2h8.3zm-8.3-39.1v7.1h8.3v-7.1h-8.3zm246.8-4.1c.9 1.2 1.8 2.4 2.6 3.6.9 1.5 1.4 3.2 1.5 5 .1 1.1.2 2.2.4 3.3.1.3.3.6.5.7 1.7.7 3.3 1.7 4.7 2.9.1.1.4.2.6.3 1.6.5 2.5 2.2 2 3.8-.1.4-.3.8-.6 1.1-.2.3-.3.5-.1.9.1.1.1.2.1.3.2 1 .8 1.9 1.8 2.3 1 .5 1.5 1.7 1.1 2.8-2.5 8.4-6.7 15.4-15.5 18.5-7.3 2.6-14.5 1.5-21.1-2.5-3.8-2.3-6.9-5.4-9.2-9.1-.2-.3-.5-.5-.8-.5-4.8-.1-8.6-4.1-8.5-8.8 0-.8.1-1.6.4-2.3.2-.3 0-.7-.3-.8-.5-.3-.9-.7-1.4-1-2.4-1.5-2.9-3.8-2.6-6.4.4-2.7 1.3-5.4 2.7-7.8 3.7-7 8.9-13 15.3-17.6 1.9-1.5 4.2-2.5 6.6-3 1.8-.4 3.8 0 5.2 1.2.6.5 1.3 1.4 2 1.4s1.4-.7 2.2-1.1c2.4-1.3 5.1-2 7.9-2 3.8.1 6 2.7 5.7 6.4-.2 2.3-.9 4.4-2.1 6.4-.2.7-.6 1.3-1.1 2zm-14.8 32.2c0 1.5.4 3 1.2 4.4l.3-1.5c.2.4.3.7.5 1 1 2.2 3 3.8 5.3 4.2 2 .5 4 .5 6 .1 6.6-1.3 11.2-5 13.4-11.5.1-.3.2-.6.4-.9.5-.6.5-1.3.2-2-.4-.7-1.1-.6-1.9-.5l-.1-.1c0-1.2-.4-2.5-1-3.6-.4.3-.7.7-1 .9-4.3 3.4-9.7 5.2-15.2 5.2-1.3 0-1.7.3-2 1.7 4.4 1.1 8.5-.4 12.7-1.4-3.8 2.3-8.2 3.2-12.5 2.6.3.9 1.1 1.5 2 1.7 1.8.4 3.6.5 5.4.1 4.3-.8 8.3-2.8 11.6-5.7l.4-.3.1.1c-.5.7-1.1 1.4-1.8 2-3.3 3-7.5 4.9-12 5.4-1.6.2-3.3.1-4.9-.5-1.3-.5-2.2-1.6-2.4-2.9-.4-1.6.6-3.2 2.2-3.6.3-.1.5-.1.8-.1 1.4 0 2.8-.1 4.2-.4 4.8-.8 9.2-3.2 12.5-6.8.8-.9.5-1.7-.6-2-.2 0-.4-.1-.6-.2-1.4-1.3-3.1-2.3-4.9-3-.7-.3-1.1-.9-1.2-1.6-.1-1-.3-2.1-.4-3.1 0-1.6-.3-3.1-.9-4.5-.5-1.3-1.9-1.9-3.2-1.4-.1 0-.1.1-.2.1-.4.2-.8.5-1.2.8-1.2 1.3-2.9 2-4.7 1.9-1.1 0-2.2-.1-3.3 0-2.6 0-4.9 1.7-5.7 4.3-.5 1.6-.5 3.3-.2 5l-1-.7c.5 1.8 1.5 3.3 2.9 4.5l-.8.2 2.5 1.5c-3.4 3.1-3.7 7-3.2 8.7l.6-.7c-.1 1.5.1 3.1.6 4.5l1.1-1.9zm2.4-42.2c-.9-.8-1.8-1.4-2.7-2.2-.5-.5-1-.7-1.7-.3-.2.1-.4.1-.7.1-.7 0-1.5.1-2.2.1-1.7.4-3.3 1.1-4.8 2.1-6 4-10.9 9.3-14.4 15.5-1.6 2.6-2.7 5.4-3.3 8.3-.5 2.9.3 4.6 2.9 5.9.3.2.7.2.9-.1 0 0 0-.1.1-.1.4-.6.9-1 1.5-1.4.7-.5 1.3-1.3 1.5-2.1 3.2-8.7 9.1-16.1 16.7-21.3h.2c-2 2-4 4.1-5.9 6.3-1.9 2.1-3.6 4.5-4.8 7 1.1-1.3 2.2-2.6 3.4-3.9 2.3-2.6 4.4-5.4 7-7.7 3.9-3.6 8.1-7.1 13.2-9-2.5.5-4.8 1.5-6.9 2.8zm-15.4 32.4c-.3-.9-.6-1.7-.9-2.5-.2-.5-.6-.8-1-1.1-1.1-.5-2.3-.6-3.4-.4-3.2.7-5.4 3.6-5.1 6.8.1 3.1 2.3 5.7 5.4 6.2 3.2.4 6.2-1.7 6.9-4.9.3-.9.3-1.8.1-2.7l-.6 1-.5-3.8h-.2l-.7 1.4zm4.3-15.4l.5-.5c3.1-3.4 6.9-5.9 11.2-7.5 3.3-1.2 6.7-2 10.2-.5-.6-1.1-1.7-2-2.9-2.4h-.1l.2.5-3-1.3-.1.1.6.8-3.5-.5v.2l.9.5c-1 .1-1.9.1-2.8.1s-1.9.3-2.7.7l1.9.4-4.2 1.7.1.2 1.2-.1c-3.1 2.1-5.6 4.7-7.5 7.6z"/><path class="st4" d="M487.2 243c-1-.3-2.1-.5-3.2-.5-1.1.2-2.1.4-3.1.8.1-.9 1.5-1.8 3-2s3 .7 3.3 1.7zm7.8-2.4c-.6-.1-1.2-.1-1.7-.3-.2-.1-.3-.3-.4-.5-.1-.6-.1-1.3 0-1.9.1-.3.2-.5.5-.6.2 0 .5.1.6.3.7.9 1 1.9 1 3zm-7.9 3.7l-3.9.6c.1-.6.6-.9 1.1-1 .9-.4 2-.2 2.8.4zm5.4.6c-.8 0-1.4-.5-1.4-1s.3-.6.7-.6c.6 0 1.2.5 1.1 1-.1.2-.4.5-.4.6zm3.1-2.1c-.1.6-.2 1.1-.7 1.1-.2 0-.5-.4-.5-.7 0-.4.1-.9.7-.9.1 0 .3.4.5.5zM472.9 217l.4.3 3.9 3.3-.9.8c-1-.9-2.1-1.8-3-2.7-.3-.4-.4-1-.5-1.5l.1-.2zm3.6 1.4l2.5.8-.9.8-1.6-1.4v-.2zm1.1-1c-1.1-.1-1.3-.9-.7-2.2l.7 2.2zm2 1.3l-.5-1.7 1.3 1.1-.8.6zM464.7 251c-1-1.8-2-2.4-3.5-1.9-2.7.8-2.5 2.9-1.9 5.3-.3-.2-.5-.3-.7-.6-1.1-1.7-.8-3.9.7-5.2 1.5-1.4 3.7-1.3 5.1.1.5.5.7 1.1.6 1.8 0 .2-.1.3-.3.5z"/><path class="st4" d="M462 255.6h1c.7 0 1.3-.5 1.5-1.1.2-.7-.1-1.4-.7-1.7-.4-.2-.8-.5-1.1-.9-.2-.4-.2-.8 0-1.2.1-.2.6-.3.9-.4-.6.9-.5 1 .4 1.5 1.2.5 1.8 1.8 1.3 3-.1.3-.3.5-.5.7-.6.9-1.9.9-2.8.1.1.1 0 .1 0 0zM266.1 64.8c-1-.1-2.1-.2-3.1-.4-3.7-.5-7.3-1.7-10.6-3.5-5-2.7-9.2-6.6-12.2-11.3-1.4-2.2-2.5-4.7-3.3-7.2h4.9c.2 0 .4.3.5.5.7 1.4 1.4 2.8 2.2 4.1.2.3.4.4.7.4 1.3-.1 2.6 0 3.9 0h.8c-.2-.9-.5-1.7-.7-2.5s-.4-1.6-.5-2.4h5c.4 1.5.9 2.9 1.2 4.4 0 .4.4.6.8.6h23.7c.4.1.7-.2.8-.5.4-1.4.8-2.9 1.2-4.3h5.1l-1.2 4.9c1.3-.1 2.5-.1 3.8 0 .9.2 1.9-.4 2.1-1.3.5-1.1 1-2.2 1.6-3.2.1-.2.3-.5.4-.5h5.2c-.8 1.7-1.4 3.3-2.1 4.8-2.6 5.1-6.6 9.4-11.4 12.5-4.1 2.6-8.7 4.3-13.5 4.8l-2.3.2-3-.1zm-8.4-12.5c1.4 2.7 3.6 4.9 6.2 6.5 2.4 1.3 5.2 1.3 7.6 0 1.7-.9 3.3-2.2 4.4-3.8.6-.8 1.2-1.7 1.9-2.7h-20.1zm23.8 3.6l.1.1 4.6-3.5-.1-.2h-2.5c-.1 0-.3.1-.3.2-.6 1.2-1.2 2.3-1.8 3.4zm-27.8.1l.1-.2-1.8-3.3c-.1-.1-.1-.2-.2-.2h-2.6l-.1.2 4.6 3.5zm44.7-33.6h-4.9c-.2 0-.4-.2-.5-.5-.7-1.4-1.4-2.7-2.1-4.1-.1-.3-.5-.5-.8-.4-1.3.1-2.6 0-3.9 0h-.7l1.2 4.9h-5.1c-.4-1.5-.9-2.9-1.3-4.4-.1-.4-.4-.6-.7-.5h-23.8c-.3-.1-.7.1-.7.5v.1c-.4 1.5-.8 2.9-1.2 4.4h-5.1l1.2-4.9h-4.9c-.2 0-.4.1-.5.3l-2.1 3.9c-.2.5-.7.9-1.2.8H237c3.2-10.8 13.9-21.4 28.3-22.4 14.8-1.1 28.5 8.1 33.1 22.3zm-20.7-10c-1.4-2.6-3.4-4.8-5.9-6.3-2.4-1.4-5.3-1.6-7.8-.3-2.7 1.5-4.9 3.7-6.4 6.4v.1h20.1v.1zm8.5 0c-1.4-1.5-3-2.7-4.7-3.7.7 1.2 1.2 2.3 1.8 3.3.1.2.3.3.5.3.7.1 1.6.1 2.4.1zm-37.2-.2l.1.2h2.5c.1 0 .3-.1.3-.2l1.8-3.3-.1-.1-4.6 3.4zm-3.5 19.4c-.9 1.9-1.7 3.6-2.5 5.4-.2.5-.6.8-1.1.7-2.8-.1-2.1.4-3.1-2s-2-4.9-3.1-7.4c-.3-.8-.1-1.1.8-1.1h1.8c.5-.1 1.1.3 1.2.8.5 1.6 1.1 3.2 1.7 4.8.1.2.1.4.3.7.8-1.9 1.6-3.7 2.4-5.5.2-.5.7-.9 1.2-.8 2.4 0 1.9-.2 2.8 1.9.6 1.4 1.2 2.8 1.9 4.4.1-.3.2-.5.3-.7.6-1.6 1.3-3.2 1.9-4.8.1-.5.5-.8 1-.7h2c.7 0 1 .4.7 1l-3.9 9c-.1.4-.5.6-.9.6h-1.7c-.5 0-.9-.3-1-.7l-2.1-4.8c-.4-.3-.5-.5-.6-.8zm18.1 1.8c.8-1.9 1.6-3.7 2.4-5.5.2-.6.7-.9 1.3-.9 2.4 0 1.9-.2 2.8 1.8.6 1.4 1.2 2.9 1.9 4.4l2.1-5.4c.1-.6.7-1 1.3-.9h1.7c.7 0 1 .4.7 1l-3.9 8.9c-.1.4-.5.6-.9.6h-.1c-2.8 0-2.1.4-3.2-2-.6-1.3-1.2-2.7-1.8-4.1l-.3.6c-.7 1.6-1.5 3.2-2.2 4.8-.1.4-.6.7-1 .6h-1.7c-.4.1-.9-.2-1-.6-1.2-3-2.4-6-3.7-8.9-.3-.6 0-1 .6-1h2.1c.4 0 .8.3.9.7.6 2.2 1.3 4 2 5.9zm26.4-1.8c-.9 1.8-1.7 3.5-2.4 5.3-.2.5-.7.9-1.2.8h-1.6c-.4 0-.8-.2-.9-.6-1.2-3-2.5-6-3.7-9-.3-.6 0-1 .6-1h2.2c.4 0 .8.3.9.7.6 1.8 1.3 3.6 2 5.6l.3-.7c.7-1.6 1.4-3.3 2.1-4.9.1-.5.6-.8 1.1-.7 2.6 0 2-.3 3 1.9.5 1.2 1 2.5 1.6 3.7.1.2.2.3.3.6.7-1.9 1.4-3.6 2.1-5.4.1-.6.7-.9 1.2-.8h1.8c.6 0 .9.4.6 1l-3.9 9c-.1.4-.5.7-.9.6h-.2c-2.9 0-2.1.4-3.3-2.1-.6-1.2-1.1-2.5-1.7-4z"/></svg>