<svg width="110" height="32" viewBox="0 0 110 32" fill="none" xmlns="http://www.w3.org/2000/svg"><path fill-rule="evenodd" clip-rule="evenodd" d="M0 13.219h12.557V.489h5.505v12.73h12.557v5.598H18.062V31.59h-5.505V18.817H0v-5.598zM30.62 31.59V.49h5.502v31.1h-5.503z" fill="#000"/><path d="M45.166 9.712v1.495h.043a2.699 2.699 0 0 1 1.392-1.335 5.121 5.121 0 0 1 2.087-.416c.843 0 1.577.155 2.202.47a4.53 4.53 0 0 1 1.56 1.27 5.64 5.64 0 0 1 .938 1.845c.21.698.317 1.437.317 2.218 0 .784-.102 1.523-.306 2.219a5.264 5.264 0 0 1-.927 1.826c-.414.52-.934.928-1.56 1.226-.627.299-1.353.448-2.183.448a5.3 5.3 0 0 1-1.875-.362 3.836 3.836 0 0 1-.917-.522 2.882 2.882 0 0 1-.728-.823h-.043v5.676h-1.792V9.712h1.792zm6.439 3.915a4.111 4.111 0 0 0-.611-1.312 3.016 3.016 0 0 0-1.054-.917c-.429-.229-.932-.343-1.506-.343-.605 0-1.116.12-1.539.362-.42.242-.765.558-1.031.95a3.98 3.98 0 0 0-.579 1.335 6.484 6.484 0 0 0 .01 3.083c.127.504.328.95.601 1.334.273.384.629.693 1.064.928.436.235.963.351 1.58.351.618 0 1.136-.12 1.55-.362a2.896 2.896 0 0 0 1.001-.961c.254-.397.436-.854.548-1.365a7.318 7.318 0 0 0 .17-1.58 5.771 5.771 0 0 0-.204-1.503zm5.05-8.119v15.238h-1.793V5.508h1.793zm9.063 15.238v-1.751h-.043c-.38.682-.862 1.184-1.454 1.505-.59.32-1.285.48-2.087.48-.718 0-1.314-.096-1.793-.287a2.867 2.867 0 0 1-1.16-.823 3.104 3.104 0 0 1-.621-1.27 6.928 6.928 0 0 1-.18-1.633V9.713h1.792v7.47c0 .681.198 1.224.59 1.62.392.4.934.598 1.623.598.548 0 1.023-.086 1.424-.257a2.677 2.677 0 0 0 1.001-.726 3.12 3.12 0 0 0 .6-1.1c.135-.419.2-.878.2-1.376V9.71h1.792v11.034h-1.684v.002zm4.699-2.464c.169.276.39.498.663.663.275.164.583.28.928.35.344.073.698.108 1.064.108.28 0 .576-.022.884-.063.31-.042.594-.121.854-.235.26-.114.475-.281.644-.503.169-.22.253-.502.253-.842 0-.47-.175-.826-.526-1.067-.351-.241-.791-.437-1.318-.586a21.349 21.349 0 0 0-1.719-.406 8.905 8.905 0 0 1-1.718-.51 3.56 3.56 0 0 1-1.318-.93c-.351-.396-.527-.951-.527-1.665 0-.555.124-1.031.37-1.43a3.03 3.03 0 0 1 .948-.97 4.356 4.356 0 0 1 1.307-.555 5.92 5.92 0 0 1 1.443-.182c.618 0 1.188.052 1.708.16.52.107.98.292 1.38.555.402.263.72.619.959 1.066.238.448.379 1.008.422 1.675h-1.792c-.028-.356-.121-.652-.275-.887a1.805 1.805 0 0 0-.59-.566 2.639 2.639 0 0 0-.79-.31 4.039 4.039 0 0 0-.874-.096c-.27 0-.538.022-.813.064a2.713 2.713 0 0 0-.748.223 1.516 1.516 0 0 0-.548.426c-.141.178-.21.41-.21.694 0 .313.108.572.327.779.217.206.496.377.832.51a7.4 7.4 0 0 0 1.138.343c.423.092.843.189 1.263.287.451.1.89.222 1.318.363.43.142.809.331 1.138.566.33.235.598.53.802.886.204.356.305.797.305 1.323 0 .67-.136 1.225-.411 1.666a3.205 3.205 0 0 1-1.075 1.066 4.49 4.49 0 0 1-1.498.567 8.692 8.692 0 0 1-1.656.16 7.476 7.476 0 0 1-1.727-.193 4.185 4.185 0 0 1-1.454-.63 3.22 3.22 0 0 1-1.012-1.152c-.254-.476-.395-1.056-.423-1.74h1.792c.02.401.111.74.28 1.018zm7.863-5.315a5.141 5.141 0 0 1 1.012-1.834 4.757 4.757 0 0 1 1.664-1.227c.661-.298 1.42-.447 2.276-.447.871 0 1.634.149 2.286.447a4.812 4.812 0 0 1 1.656 1.227c.451.52.787 1.13 1.012 1.834.226.705.338 1.462.338 2.274 0 .811-.112 1.564-.338 2.262a5.149 5.149 0 0 1-1.012 1.823 4.65 4.65 0 0 1-1.656 1.216c-.652.292-1.415.437-2.286.437-.858 0-1.617-.147-2.276-.437a4.656 4.656 0 0 1-1.664-1.216 5.187 5.187 0 0 1-1.012-1.823 7.314 7.314 0 0 1-.338-2.262 7.4 7.4 0 0 1 .338-2.274zm1.822 4.055c.176.52.419.953.729 1.302.307.348.67.616 1.085.8.414.185.854.277 1.318.277.464 0 .904-.092 1.318-.276a3.142 3.142 0 0 0 1.086-.802c.31-.348.55-.78.728-1.3.175-.52.264-1.113.264-1.782 0-.67-.089-1.262-.264-1.782a3.835 3.835 0 0 0-.728-1.313 3.12 3.12 0 0 0-2.404-1.088c-.464 0-.904.092-1.318.277a3.093 3.093 0 0 0-1.085.811c-.31.356-.553.793-.729 1.313-.175.52-.264 1.112-.264 1.782 0 .667.089 1.261.264 1.781zm11.162-7.31v1.75h.04c.746-1.337 1.925-2.006 3.542-2.006.715 0 1.313.098 1.79.298.477.2.865.476 1.16.832.294.355.502.779.622 1.27.119.492.18 1.036.18 1.633v7.256h-1.793v-7.47c0-.682-.197-1.224-.59-1.62-.392-.398-.933-.598-1.623-.598-.548 0-1.022.086-1.421.257a2.66 2.66 0 0 0-1.002.726c-.266.314-.468.68-.6 1.1a4.499 4.499 0 0 0-.201 1.376v6.231h-1.79V9.712h1.686zm16.694 10.329c-.815.625-1.842.94-3.077.94-.872 0-1.626-.144-2.265-.429a4.448 4.448 0 0 1-1.613-1.196 5.083 5.083 0 0 1-.979-1.834 8.977 8.977 0 0 1-.369-2.326c0-.838.126-1.608.38-2.304a5.562 5.562 0 0 1 1.064-1.815c.457-.511.997-.91 1.623-1.196a4.883 4.883 0 0 1 2.055-.425c.968 0 1.772.201 2.414.607a4.832 4.832 0 0 1 1.539 1.547 6.16 6.16 0 0 1 .799 2.05c.148.74.209 1.444.18 2.113h-8.155a4.35 4.35 0 0 0 .169 1.376c.126.434.329.818.611 1.152.28.333.639.601 1.075.8.436.2.949.3 1.539.3.758 0 1.38-.178 1.866-.534.483-.355.804-.898.958-1.622h1.77c-.242 1.238-.769 2.17-1.584 2.796zm-.433-7.085a3.14 3.14 0 0 0-.653-.992 3.018 3.018 0 0 0-2.202-.909 3.07 3.07 0 0 0-1.254.246 2.91 2.91 0 0 0-.958.671 3.203 3.203 0 0 0-.633.992 3.832 3.832 0 0 0-.273 1.207h6.261a3.875 3.875 0 0 0-.288-1.215z" fill="#000"/></svg>