<svg width="118" height="42" viewBox="0 0 118 42" fill="none" xmlns="http://www.w3.org/2000/svg"><path d="M117.726 26.857H1.901v.364h115.825v-.364zM.79 11.75C.79 5.21 5.785.08 12.535.08c4.551 0 7.385 1.988 9.358 4.746l-4.52 3.524c-1.272-1.603-2.77-2.597-4.902-2.597-3.12 0-5.317 2.662-5.317 5.996 0 3.364 2.197 5.996 5.317 5.996 2.323 0 3.69-1.09 5.028-2.724l4.647 3.334c-2.103 2.915-4.933 5.064-9.87 5.064C5.917 23.42.79 18.513.79 11.75zm29.29-.192L22.758.53h7.1l3.945 6.315L37.781.529h6.94L37.4 11.493l7.64 11.478h-7.1l-4.265-6.763-4.296 6.763h-6.62l7.32-11.413zM47.772.53h17.92v5.29H53.886v3.398h10.696v4.903H53.885v3.56h11.968v5.29H47.772V.529zm21.778 0h6.526l5.317 8.688L86.71.53h6.525v22.442H87.09V10.08l-5.698 8.785h-.126l-5.667-8.72V22.97h-6.05V.529zm27.402 0h6.113v12.632L111.693.529h5.762v22.442h-6.113V10.338l-8.627 12.633h-5.763V.529zM2.332 30.572h.53v4.726l4.547-4.726h.724l-3.12 3.173 3.253 4.016h-.693l-2.937-3.637-1.775 1.807v1.83h-.53v-7.189zm5.934 3.593c0-1.96 1.44-3.717 3.6-3.717 2.163 0 3.58 1.737 3.58 3.717 0 1.964-1.44 3.717-3.6 3.717s-3.58-1.734-3.58-3.717zm6.631 0c0-1.776-1.283-3.238-3.05-3.238-1.768 0-3.029 1.439-3.029 3.238 0 1.776 1.284 3.238 3.051 3.238 1.764-.004 3.028-1.443 3.028-3.238zm1.745-3.595h2.59c1.569 0 2.65.814 2.65 2.218 0 1.511-1.294 2.29-2.784 2.29h-1.927v2.681h-.53V30.57zm2.487 4.017c1.325 0 2.224-.698 2.224-1.788 0-1.14-.876-1.738-2.163-1.738h-2.02v3.526h1.958zm3.874 3.05l.205-.464c.297.145.522.207.937.207.56 0 1.154-.33 1.611-1.255l-3.222-5.558h.621l2.868 5.002 2.45-5.002h.582l-2.834 5.731c-.571 1.15-1.337 1.58-2.072 1.58a2.424 2.424 0 0 1-1.146-.241zm7.149-7.067h5.527v7.193h-.53v-6.702h-4.468v6.698h-.529V30.57zm12.778 7.19h-5.945v-7.19h.53v6.698h4.467V30.57h.53v6.698h.967l-.103 2.137h-.45v-1.646h.005zm1.581-7.19h.53v7.193h-.53V30.57zm3.946 4.22c-1.203-.165-2.01-.905-2.01-2.125 0-1.182.967-2.095 2.551-2.095h2.998v7.193h-.53v-2.877h-2.418l-2.194 2.877h-.674l2.277-2.973zm3.01-.391V31.06h-2.438c-1.295 0-2.05.656-2.05 1.642 0 1.04.888 1.696 2.08 1.696h2.408zm7.031-3.829h2.948c1.398 0 2.316.698 2.316 1.788 0 .974-.633 1.47-1.215 1.707.857.226 1.61.721 1.61 1.738 0 1.2-1.02 1.964-2.559 1.964h-3.1V30.57zm2.887 3.319c1.07 0 1.836-.526 1.836-1.5 0-.79-.644-1.324-1.786-1.324h-2.408v2.824h2.358zm.236 3.38c1.223 0 2-.565 2-1.49 0-.882-.766-1.396-2.171-1.396h-2.42v2.889h2.59v-.004zm7.526-.001h.766c.735-1.04 1.143-2.938 1.143-5.179V30.57h4.376v6.698h.968l-.103 2.137h-.45v-1.642h-6.151l-.103 1.642h-.45v-2.137h.004zm5.752 0v-6.207h-3.325v1.42c0 1.922-.389 3.813-1.052 4.787H74.9zm2.704-6.698h5.077v.495h-4.547v2.824h4.09v.494h-4.09v2.889h4.6v.495h-5.13V30.57zm8.604.492H83.72v-.495h5.508v.495h-2.487v6.698h-.53v-6.698h-.004zm5.813-.544h.51l3.325 7.242h-.582l-.907-2.014h-4.213l-.906 2.014h-.552l3.325-7.242zm2.121 4.745l-1.877-4.158-1.886 4.158h3.763zm2.16 2.393l.164-.441c.122.061.419.123.682.123.552 0 1.569-.35 1.569-5.394v-1.377h4.376v7.193h-.529v-6.698h-3.337v.905c0 5.21-1.04 5.866-2.072 5.866-.263 0-.659-.093-.853-.177zm10.136-2.866c-1.204-.165-2.011-.905-2.011-2.125 0-1.182.967-2.095 2.552-2.095h2.997v7.193h-.529v-2.877h-2.419l-2.194 2.877h-.674l2.278-2.973zm3.009-.391V31.06h-2.438c-1.295 0-2.049.656-2.049 1.642 0 1.04.887 1.696 2.08 1.696h2.407zm4.426-.307l-2.743-3.522h.632l2.438 3.165 2.426-3.165h.621l-2.734 3.514 2.833 3.68h-.632l-2.54-3.32-2.53 3.32h-.62l2.849-3.672zm3.854 7.02H1.901v.365h115.825v-.365z" fill="#000"/></svg>