<svg width="111" height="27" viewBox="0 0 111 27" fill="none" xmlns="http://www.w3.org/2000/svg"><path d="M33.727 19.47c-.407-.156-.672-.486-.672-.924a.974.974 0 0 1 1.358-.889 5.41 5.41 0 0 0 2.315.5c1.626 0 2.39-.782 2.39-2.284v-.407c-.702.844-1.47 1.361-2.735 1.361-1.954 0-3.72-1.423-3.72-3.91v-.031c0-2.501 1.798-3.91 3.72-3.91 1.299 0 2.064.548 2.705 1.25v-.016c0-.641.53-1.172 1.188-1.172.658 0 1.189.53 1.189 1.189v5.394c0 1.502-.359 2.595-1.065 3.3-.782.783-1.984 1.127-3.61 1.127a8.012 8.012 0 0 1-3.063-.579zm5.394-6.55v-.031c0-1.14-.892-1.94-2.05-1.94-1.157 0-2.032.796-2.032 1.94v.03c0 1.158.875 1.94 2.033 1.94 1.157-.002 2.05-.799 2.05-1.94zm3.69-2.69c0-.658.53-1.189 1.189-1.189.657 0 1.188.53 1.188 1.188v.376c.344-.813.906-1.564 1.612-1.564.734 0 1.158.486 1.158 1.157 0 .627-.407 1-.893 1.11-1.202.282-1.877 1.203-1.877 2.894v2.219c0 .657-.53 1.188-1.188 1.188-.658 0-1.189-.53-1.189-1.189v-6.19zm4.864 4.878v-.031c0-1.83 1.392-2.674 3.377-2.674a5.96 5.96 0 0 1 2.05.345v-.141c0-.986-.61-1.533-1.8-1.533-.657 0-1.188.093-1.64.234a.98.98 0 0 1-.344.062.968.968 0 0 1-.985-.968c0-.42.265-.782.64-.923.752-.283 1.565-.438 2.674-.438 1.299 0 2.236.344 2.829.937.627.624.906 1.547.906 2.674v3.814c0 .64-.517 1.14-1.157 1.14-.69 0-1.14-.485-1.14-.985v-.017c-.58.64-1.376 1.064-2.533 1.064-1.578.003-2.877-.903-2.877-2.56zm5.457-.548v-.423a3.703 3.703 0 0 0-1.516-.314c-1.016 0-1.64.407-1.64 1.158v.03c0 .642.53 1.017 1.299 1.017 1.106.003 1.857-.607 1.857-1.468zm3.518-4.33a1.188 1.188 0 1 1 2.377 0v.092c.547-.703 1.267-1.343 2.47-1.343 1.095 0 1.922.485 2.36 1.33.734-.862 1.612-1.33 2.752-1.33 1.768 0 2.832 1.064 2.832 3.08v4.361c0 .658-.53 1.189-1.189 1.189a1.187 1.187 0 0 1-1.188-1.189v-3.58c0-1.126-.5-1.705-1.392-1.705-.892 0-1.437.58-1.437 1.706v3.58c0 .657-.53 1.188-1.188 1.188a1.187 1.187 0 0 1-1.189-1.189v-3.58c0-1.126-.5-1.705-1.391-1.705-.893 0-1.437.58-1.437 1.706v3.58c0 .657-.531 1.188-1.189 1.188s-1.188-.531-1.188-1.189v-6.19h-.003zm14.073 0a1.188 1.188 0 1 1 2.377 0v.092c.547-.703 1.267-1.343 2.47-1.343 1.095 0 1.922.485 2.36 1.33.734-.862 1.61-1.33 2.752-1.33 1.768 0 2.832 1.064 2.832 3.08v4.361c0 .658-.53 1.189-1.189 1.189a1.187 1.187 0 0 1-1.188-1.189v-3.58c0-1.126-.5-1.705-1.392-1.705-.892 0-1.437.58-1.437 1.706v3.58c0 .657-.53 1.188-1.188 1.188a1.187 1.187 0 0 1-1.189-1.189v-3.58c0-1.126-.5-1.705-1.392-1.705-.892 0-1.436.58-1.436 1.706v3.58c0 .657-.531 1.188-1.189 1.188s-1.189-.531-1.189-1.189v-6.19h-.002zm13.573 4.878v-.031c0-1.83 1.392-2.674 3.376-2.674.844 0 1.454.141 2.05.345v-.141c0-.986-.61-1.533-1.798-1.533-.658 0-1.189.093-1.64.234a.98.98 0 0 1-.345.062.968.968 0 0 1-.985-.968c0-.42.265-.782.64-.923.751-.283 1.565-.438 2.674-.438 1.299 0 2.236.344 2.832.937.623.624.906 1.547.906 2.674v3.814c0 .64-.517 1.14-1.158 1.14-.689 0-1.14-.485-1.14-.985v-.017c-.579.64-1.378 1.064-2.533 1.064-1.58.003-2.88-.903-2.88-2.56zm5.457-.548v-.423a3.703 3.703 0 0 0-1.516-.314c-1.016 0-1.643.407-1.643 1.158v.03c0 .642.53 1.017 1.299 1.017 1.109.003 1.86-.607 1.86-1.468zm3.517-4.33c0-.658.531-1.189 1.189-1.189s1.188.53 1.188 1.188v.376c.345-.813.907-1.564 1.612-1.564.734 0 1.158.486 1.158 1.157 0 .627-.407 1-.892 1.11-1.203.282-1.878 1.203-1.878 2.894v2.219c0 .657-.53 1.188-1.188 1.188-.658 0-1.189-.53-1.189-1.189v-6.19zm5.864-3.035c0-.658.53-1.189 1.188-1.189.658 0 1.189.531 1.189 1.189v9.226c0 .657-.531 1.188-1.189 1.188-.657 0-1.188-.53-1.188-1.188V7.195zm4.271 12.65c-.344-.124-.751-.407-.751-.985 0-.579.455-.969.938-.969.186 0 .296.032.389.063.203.062.328.093.5.093.42 0 .624-.08.844-.5l.079-.186-2.863-6.629a1.731 1.731 0 0 1-.124-.547c0-.672.517-1.141 1.172-1.141.593 0 .937.327 1.14.892l1.815 4.878 1.751-4.861c.189-.5.53-.906 1.14-.906.61 0 1.127.468 1.127 1.095 0 .19-.062.455-.11.562l-2.92 7.015c-.702 1.705-1.405 2.346-2.831 2.346-.531 0-.906-.079-1.296-.22zm-90.304 6.456c7.172 0 12.986-5.814 12.986-12.986C26.087 6.143 20.273.33 13.101.33 5.93.33.115 6.143.115 13.315s5.814 12.986 12.986 12.986z" fill="#000"/><path d="M15.665 15.074a.883.883 0 0 0-.867 1.045c.076.426.477.717.909.717h1.36l.788-.11c-1.262 1.852-3.452 2.704-5.85 2.326-1.95-.305-3.624-1.626-4.332-3.47-1.604-4.183 1.45-8.178 5.431-8.178 2.075 0 3.893 1.214 4.938 2.682v.03a.881.881 0 0 0 1.225.238.865.865 0 0 0 .257-1.155h.005a7.614 7.614 0 0 0-6.953-3.497c-3.794.254-6.866 3.362-7.083 7.162-.254 4.42 3.252 8.031 7.614 8.031a7.544 7.544 0 0 0 5.74-2.611l-.167.926v.836c0 .431.29.832.717.909a.88.88 0 0 0 1.044-.867v-5.014h-4.776z" fill="#fff"/></svg>