<svg width="111" height="25" viewBox="0 0 111 25" fill="none" xmlns="http://www.w3.org/2000/svg"><path d="M106.333 2.125V4.62h-1.379v1.986h1.379v5.47c.031 1.918.936 2.883 2.693 2.883.527 0 1.032-.08 1.526-.238v-2.054c-.21.045-.463.068-.736.068-.379 0-.632-.08-.768-.239-.137-.158-.2-.43-.2-.805V6.607h1.61V4.621h-1.61V2.125h-2.515zm-5.136 10.611c-.242.193-.61.295-1.094.295-.516 0-.926-.125-1.231-.386-.306-.26-.474-.624-.495-1.1h-2.378a3 3 0 0 0 .526 1.713c.347.533.831.942 1.441 1.248.61.307 1.316.454 2.105.454 1.168 0 2.115-.283 2.852-.862.737-.568 1.105-1.317 1.105-2.247 0-1.294-.663-2.202-1.989-2.724-.431-.17-.958-.318-1.578-.454-.621-.136-1.074-.295-1.337-.477-.263-.181-.4-.43-.4-.726 0-.318.116-.579.347-.783.232-.204.558-.307.979-.307.495 0 .853.125 1.084.375.232.25.347.567.347.965h2.515c0-.965-.357-1.76-1.073-2.36-.716-.602-1.673-.909-2.862-.909-1.116 0-2.02.307-2.715.908-.695.602-1.042 1.35-1.042 2.259 0 1.543 1.115 2.564 3.357 3.075.673.148 1.157.318 1.463.51.305.194.452.455.452.784a.978.978 0 0 1-.379.749zM95.02 9.468c0-1.611-.368-2.848-1.105-3.722-.737-.874-1.747-1.317-3.041-1.317-.853 0-1.62.216-2.294.647-.674.431-1.19 1.056-1.547 1.85-.369.817-.547 1.736-.547 2.746v.261c0 1.521.431 2.736 1.304 3.643.863.908 1.99 1.374 3.368 1.374.779 0 1.494-.16 2.136-.488a3.744 3.744 0 0 0 1.526-1.35l-1.231-1.488c-.547.76-1.305 1.135-2.273 1.135-.621 0-1.147-.204-1.547-.601-.41-.397-.653-.93-.737-1.589h5.988v-1.1zm-2.473-.738h-3.494c.084-.68.284-1.203.6-1.566.305-.363.716-.544 1.21-.544.537 0 .947.17 1.231.499.295.329.442.794.453 1.396v.215zM79.909 4.622h-2.62l3.167 10.146h2.4l3.177-10.146h-2.63l-1.748 6.832-1.746-6.832zm-11.555 0v10.146h2.515V7.595c.358-.647.884-.976 1.59-.976.536 0 .925.136 1.157.386.231.26.347.68.347 1.26v6.502h2.515v-6.56c-.01-1.259-.263-2.2-.747-2.825-.484-.636-1.231-.942-2.22-.942-1.127 0-2.032.454-2.705 1.362l-.074-1.17h-2.378v-.01zM66.05 1.116h-2.61v13.652h2.61V1.117zm-4.536 8.352c0-1.611-.368-2.848-1.105-3.722-.736-.874-1.747-1.317-3.041-1.317-.852 0-1.62.216-2.294.647-.674.431-1.19 1.056-1.547 1.85-.368.806-.547 1.714-.547 2.735v.261c0 1.52.431 2.735 1.305 3.643.863.908 1.989 1.373 3.367 1.373.779 0 1.494-.159 2.136-.488a3.743 3.743 0 0 0 1.526-1.35l-1.231-1.487c-.547.76-1.305 1.135-2.273 1.135-.62 0-1.147-.204-1.547-.601-.41-.398-.652-.931-.737-1.59h5.988V9.469zm-2.473-.738h-3.493c.084-.68.284-1.203.6-1.566.304-.363.715-.544 1.21-.544.536 0 .947.17 1.23.499.295.329.443.794.453 1.396v.215zM43.267 4.622v10.146h2.515V7.596c.357-.647.884-.976 1.589-.976.536 0 .926.136 1.157.385.232.261.347.681.347 1.249v6.503h2.516V8.208c-.011-1.26-.264-2.201-.748-2.837-.484-.635-1.23-.942-2.22-.942-1.126 0-2.031.454-2.705 1.362l-.073-1.169h-2.379zM38.9 3.01c.263.261.6.397 1.02.397.421 0 .768-.136 1.021-.397.263-.261.39-.602.39-1.01 0-.409-.127-.738-.38-.999-.252-.26-.6-.397-1.02-.397-.432 0-.779.136-1.031.397-.253.261-.38.602-.38.999-.01.408.127.749.38 1.01zm2.283 1.612h-2.526v10.146h2.526V4.621zm-4.578 7.796V8.026c0-1.135-.336-2.02-1.02-2.644-.684-.624-1.6-.942-2.757-.942a4.91 4.91 0 0 0-2.074.431c-.61.284-1.094.681-1.42 1.18a2.864 2.864 0 0 0-.505 1.635h2.515c0-.386.116-.681.358-.897.242-.215.568-.329 1-.329.483 0 .83.136 1.052.42.22.284.336.658.336 1.124v.578h-1.157c-1.4-.011-2.473.284-3.21.863-.736.579-1.105 1.396-1.105 2.474 0 .874.306 1.6.905 2.179.61.579 1.368.862 2.294.862.968 0 1.768-.363 2.379-1.1.052.363.136.67.252.908h2.536v-.16c-.252-.499-.368-1.225-.379-2.19zm-2.525-.522a1.632 1.632 0 0 1-.695.715 1.994 1.994 0 0 1-1.02.261c-.38 0-.684-.113-.905-.329-.221-.216-.327-.5-.327-.84l.01-.159c.085-.942.748-1.407 2.01-1.407h.937v1.76h-.01zm-6.377-7.342a2.5 2.5 0 0 0-.779-.125c-.894 0-1.589.466-2.094 1.396l-.073-1.214h-2.379v10.146h2.515V8.129c.295-.692.916-1.044 1.873-1.044.264 0 .558.023.905.08l.032-2.611zm-9.229 10.214h2.894l-3.694-5.913 3.399-4.233h-3.02l-2.41 3.053-.484.67V.366h-2.515v14.402h2.515V11.67l.905-.976 2.41 4.074zM7.877 1.116v9.09c-.021 1.668-.768 2.497-2.231 2.497-.705 0-1.252-.204-1.652-.613-.39-.42-.59-1.067-.59-1.963V1.116H.795v9.09c.022 1.476.464 2.633 1.327 3.473.873.84 2.041 1.271 3.525 1.271 1.505 0 2.683-.431 3.546-1.305.863-.874 1.305-2.054 1.305-3.54v-8.99h-2.62zM3.194 21.509l1.526-3.155h.873l-2.01 3.95v2.348h-.778v-2.349l-2.01-3.96h.884l1.515 3.166zm2.568.749c0-.34.042-.658.136-.942.095-.284.221-.545.39-.749a1.776 1.776 0 0 1 1.441-.68c.306 0 .58.056.832.18.242.126.452.285.62.5.169.216.306.465.39.75.095.294.137.6.137.941v.09c0 .341-.042.66-.137.943a2.23 2.23 0 0 1-.39.749 1.83 1.83 0 0 1-.62.5 1.762 1.762 0 0 1-.821.18c-.305 0-.579-.056-.82-.18a1.83 1.83 0 0 1-.622-.5 2.258 2.258 0 0 1-.39-.75 2.98 2.98 0 0 1-.136-.941v-.09h-.01zm.747.09c0 .24.02.455.073.66.053.204.127.385.232.544a1.06 1.06 0 0 0 .926.511c.2 0 .379-.046.537-.136a1.15 1.15 0 0 0 .389-.375c.105-.159.179-.34.232-.545.052-.204.073-.431.073-.658v-.09c0-.228-.02-.455-.073-.66a1.664 1.664 0 0 0-.232-.544 1.152 1.152 0 0 0-.39-.374 1.057 1.057 0 0 0-.536-.137c-.2 0-.379.046-.537.137a1.12 1.12 0 0 0-.379.374c-.105.16-.178.34-.231.545a2.678 2.678 0 0 0-.074.658v.09h-.01zm6.808 1.828c-.136.17-.305.306-.515.408-.21.102-.463.148-.758.148-.21 0-.41-.034-.579-.102a1.175 1.175 0 0 1-.452-.307 1.438 1.438 0 0 1-.295-.544 2.868 2.868 0 0 1-.105-.795v-3.019h.737v3.03c0 .216.02.386.063.522a.86.86 0 0 0 .178.33c.074.08.158.136.253.159a.89.89 0 0 0 .295.045c.305 0 .547-.057.726-.182.179-.125.316-.295.4-.499v-3.405H14v4.676h-.705l.021-.465zm3.946-3.496a1.085 1.085 0 0 0-.179-.022c-.052 0-.115-.011-.189-.011-.253 0-.463.056-.631.181a1.084 1.084 0 0 0-.358.488v3.314h-.737v-4.676h.726l.01.545c.117-.193.254-.34.422-.454a1.06 1.06 0 0 1 .61-.17c.053 0 .116.011.19.023a.333.333 0 0 1 .147.045v.738h-.01zm3.652 3.961h-.768v-6.287h.768v6.287zm1.989-4.675l.021.59c.158-.216.337-.375.558-.5.221-.124.463-.181.737-.181.21 0 .4.034.568.09.168.058.316.16.442.296.116.136.21.318.273.522.064.215.095.477.095.783v3.064h-.736v-3.075c0-.182-.021-.34-.053-.466a.992.992 0 0 0-.168-.317.792.792 0 0 0-.274-.182 1.225 1.225 0 0 0-.379-.057c-.242 0-.452.068-.631.204a1.316 1.316 0 0 0-.421.545v3.337h-.737v-4.676h.705v.023zm5.262 3.586l1.073-3.587h.758l-1.558 4.676h-.568l-1.568-4.676h.758l1.105 3.587zm4.283 1.169c-.306 0-.58-.057-.821-.17a2.04 2.04 0 0 1-.632-.465 2.311 2.311 0 0 1-.4-.715 2.768 2.768 0 0 1-.136-.908v-.182c0-.374.052-.715.157-1.021.106-.296.242-.557.421-.76.18-.205.38-.364.6-.466.232-.114.463-.159.705-.159.305 0 .579.057.8.17.221.114.41.273.558.477.147.204.252.443.326.726.074.284.105.579.105.908v.363h-2.925c.01.216.042.42.094.602.064.181.148.352.253.488a1.167 1.167 0 0 0 .926.454c.263 0 .484-.057.663-.17.179-.114.337-.273.474-.454l.452.374a3.522 3.522 0 0 1-.253.34 1.56 1.56 0 0 1-.347.296c-.137.08-.284.147-.452.204a2.074 2.074 0 0 1-.569.068zm-.095-4.188a.956.956 0 0 0-.747.352 1.41 1.41 0 0 0-.242.42c-.064.17-.106.363-.137.579h2.168v-.068a2.382 2.382 0 0 0-.074-.466 1.399 1.399 0 0 0-.179-.408 1.018 1.018 0 0 0-.316-.295c-.115-.08-.284-.114-.473-.114zm5.166 2.86c0-.09-.01-.17-.03-.25a.463.463 0 0 0-.148-.215 1.28 1.28 0 0 0-.305-.193 2.704 2.704 0 0 0-.516-.159 6.769 6.769 0 0 1-.652-.193c-.19-.08-.358-.17-.495-.272a.922.922 0 0 1-.305-.375 1.127 1.127 0 0 1-.105-.51c0-.182.042-.363.115-.522a1.15 1.15 0 0 1 .327-.432c.136-.124.305-.227.505-.295.2-.068.42-.113.663-.113.263 0 .494.034.694.113.2.08.38.182.516.318.147.136.252.284.326.465.074.182.116.363.116.568h-.747a.692.692 0 0 0-.063-.284.82.82 0 0 0-.463-.443 1.047 1.047 0 0 0-.39-.068 1.25 1.25 0 0 0-.39.057.627.627 0 0 0-.262.159.56.56 0 0 0-.148.216.708.708 0 0 0-.052.25c0 .09.01.158.042.238a.494.494 0 0 0 .147.193c.074.056.18.113.305.158.127.046.295.091.506.148.263.068.494.136.684.227.2.08.357.181.484.295.126.113.22.238.284.386.063.147.094.306.094.5 0 .204-.042.396-.115.555-.074.17-.19.318-.337.432a1.604 1.604 0 0 1-.526.283c-.21.068-.432.103-.684.103a2.29 2.29 0 0 1-.768-.125 2.034 2.034 0 0 1-.558-.34 1.48 1.48 0 0 1-.453-1.056h.737a.92.92 0 0 0 .105.408.832.832 0 0 0 .242.273 1.22 1.22 0 0 0 .674.193c.147 0 .284-.012.4-.057a.819.819 0 0 0 .294-.148.682.682 0 0 0 .18-.215.479.479 0 0 0 .073-.273zm2.716-4.563v1.135h.81v.613h-.81v2.894c0 .125.01.215.042.295a.64.64 0 0 0 .105.17.273.273 0 0 0 .147.08.86.86 0 0 0 .18.022 1.94 1.94 0 0 0 .347-.057v.647c-.064.023-.137.034-.232.057s-.21.034-.337.034c-.136 0-.263-.022-.389-.068a.783.783 0 0 1-.316-.204 1.191 1.191 0 0 1-.22-.386 1.868 1.868 0 0 1-.085-.59v-2.894h-.79v-.613h.79V18.83h.758zm2.368 1.136l.02.522a1.45 1.45 0 0 1 .548-.443c.21-.102.463-.159.747-.159s.526.057.747.182c.21.125.379.306.495.567.147-.227.337-.408.557-.545a1.59 1.59 0 0 1 .821-.204c.232 0 .442.034.621.102.18.069.326.17.453.307.126.136.22.318.284.522a2.7 2.7 0 0 1 .095.76v3.076h-.737v-3.076c0-.193-.021-.363-.063-.488a.67.67 0 0 0-.19-.306.587.587 0 0 0-.294-.16 1.343 1.343 0 0 0-.38-.045.906.906 0 0 0-.399.08 1.24 1.24 0 0 0-.305.204 1.156 1.156 0 0 0-.295.693v3.098h-.758v-3.076c0-.181-.02-.34-.063-.465a.861.861 0 0 0-.19-.318.886.886 0 0 0-.294-.181 1.334 1.334 0 0 0-.379-.057c-.263 0-.473.057-.642.181a1.084 1.084 0 0 0-.357.488v3.416h-.737v-4.675h.695zm8.292 4.755c-.305 0-.579-.057-.82-.17a2.042 2.042 0 0 1-.632-.465 2.116 2.116 0 0 1-.4-.715 2.768 2.768 0 0 1-.137-.908v-.182c0-.374.053-.715.158-1.021.105-.296.242-.557.42-.76.18-.205.38-.364.6-.466a1.56 1.56 0 0 1 .706-.159c.305 0 .579.057.8.17.22.114.41.273.557.477.148.204.253.443.326.726.074.284.106.579.106.908v.363h-2.936c.01.216.042.42.095.602.063.181.147.352.252.488a1.172 1.172 0 0 0 .926.454c.263 0 .484-.057.663-.17.179-.114.337-.273.474-.454l.452.374a3.54 3.54 0 0 1-.252.34 1.56 1.56 0 0 1-.348.296 2.44 2.44 0 0 1-.452.204 1.944 1.944 0 0 1-.558.068zm-.084-4.188a.956.956 0 0 0-.747.352 1.41 1.41 0 0 0-.242.42 2.83 2.83 0 0 0-.137.579h2.168v-.068a2.375 2.375 0 0 0-.074-.466 1.399 1.399 0 0 0-.179-.408 1.018 1.018 0 0 0-.316-.295.874.874 0 0 0-.473-.114zm3.336-.567l.02.59c.159-.216.348-.375.558-.5.221-.124.463-.181.737-.181.21 0 .4.034.568.09.169.058.316.16.442.296.116.136.21.318.274.522.063.215.095.477.095.783v3.064h-.737v-3.075c0-.182-.021-.34-.053-.466a.82.82 0 0 0-.168-.317.79.79 0 0 0-.274-.182 1.225 1.225 0 0 0-.379-.057c-.242 0-.452.068-.63.204a1.316 1.316 0 0 0-.422.545v3.337h-.736v-4.676h.705v.023zm4.83-1.136v1.135h.81v.613h-.81v2.894c0 .125.01.215.042.295a.642.642 0 0 0 .105.17.268.268 0 0 0 .158.08.86.86 0 0 0 .179.022c.063 0 .126-.011.19-.023.063-.01.126-.022.157-.033v.646c-.063.023-.136.034-.231.057s-.21.034-.337.034a1.12 1.12 0 0 1-.39-.068.784.784 0 0 1-.315-.204 1.191 1.191 0 0 1-.221-.386 1.868 1.868 0 0 1-.084-.59v-2.894h-.79v-.613h.79V18.83h.747zm4.819-.488l1.905 5.13 1.905-5.13h1v6.288h-.769v-2.452l.074-2.644-1.915 5.096h-.59l-1.915-5.085.074 2.633v2.452h-.768v-6.288h1zm8.724 6.299a.567.567 0 0 1-.063-.215c-.01-.091-.032-.182-.042-.273-.074.08-.147.148-.232.227a1.25 1.25 0 0 1-.284.182c-.105.057-.21.09-.337.125a1.34 1.34 0 0 1-.378.045c-.221 0-.421-.034-.6-.102a1.333 1.333 0 0 1-.463-.295 1.378 1.378 0 0 1-.4-.987c0-.25.042-.477.137-.659a1.28 1.28 0 0 1 .389-.476c.168-.125.379-.227.61-.295a2.93 2.93 0 0 1 .8-.102h.737v-.364c0-.283-.074-.499-.232-.67-.158-.17-.379-.249-.684-.249-.137 0-.263.023-.379.057-.115.045-.21.09-.294.159a.665.665 0 0 0-.19.238.665.665 0 0 0-.073.284h-.748c0-.17.043-.33.127-.5.084-.158.2-.306.347-.442.147-.136.326-.239.547-.318.21-.08.453-.125.716-.125.231 0 .452.034.652.102.2.069.369.16.516.295.137.137.252.295.337.488.084.193.115.42.115.693v2.179c0 .159.01.329.043.5.02.17.063.328.115.453v.068h-.789v-.023zm-1.231-.612c.137 0 .263-.023.379-.057a1.76 1.76 0 0 0 .326-.159 1.246 1.246 0 0 0 .42-.488v-.953h-.62c-.421 0-.747.068-.979.215a.72.72 0 0 0-.347.647c0 .114.021.216.053.318a.55.55 0 0 0 .157.25.909.909 0 0 0 .263.17c.095.034.211.057.348.057zm4.03-5.199v1.135h.81v.613h-.81v2.894c0 .125.01.215.043.295a.642.642 0 0 0 .105.17.268.268 0 0 0 .158.08.859.859 0 0 0 .178.022c.064 0 .127-.011.19-.023a1.28 1.28 0 0 0 .158-.033v.646c-.063.023-.137.034-.232.057a1.48 1.48 0 0 1-.337.034c-.136 0-.263-.022-.389-.068a.784.784 0 0 1-.316-.204 1.193 1.193 0 0 1-.22-.386 1.868 1.868 0 0 1-.085-.59v-2.894h-.789v-.613h.79V18.83h.746zm2.673 0v1.135h.81v.613h-.81v2.894c0 .125.01.215.042.295a.642.642 0 0 0 .105.17.268.268 0 0 0 .158.08c.063.01.116.022.18.022.062 0 .125-.011.189-.023a.947.947 0 0 0 .157-.033v.646c-.063.023-.136.034-.231.057s-.21.034-.337.034a1.12 1.12 0 0 1-.39-.068.784.784 0 0 1-.315-.204 1.19 1.19 0 0 1-.22-.386 1.868 1.868 0 0 1-.085-.59v-2.894h-.79v-.613h.79V18.83h.747zm3.473 5.891a1.92 1.92 0 0 1-.821-.17 2.042 2.042 0 0 1-.631-.465 2.313 2.313 0 0 1-.4-.715 2.768 2.768 0 0 1-.137-.908v-.182c0-.374.053-.715.158-1.021.105-.296.242-.557.42-.76.18-.205.38-.364.6-.466a1.56 1.56 0 0 1 .706-.159c.305 0 .578.057.8.17.22.114.41.273.557.477.147.204.253.443.326.726.074.284.106.579.106.908v.363h-2.936c.01.216.042.42.094.602.063.181.148.352.253.488a1.171 1.171 0 0 0 .926.454c.263 0 .484-.057.663-.17.179-.114.337-.273.473-.454l.453.374a3.522 3.522 0 0 1-.253.34c-.094.114-.21.205-.347.296a2.16 2.16 0 0 1-.452.204 1.943 1.943 0 0 1-.558.068zm-.084-4.188a.955.955 0 0 0-.747.352 1.41 1.41 0 0 0-.242.42c-.064.17-.106.363-.137.579h2.168v-.068a2.375 2.375 0 0 0-.074-.466 1.399 1.399 0 0 0-.18-.408 1.018 1.018 0 0 0-.315-.295.873.873 0 0 0-.473-.114zm4.735.147a1.083 1.083 0 0 0-.179-.022c-.052 0-.115-.011-.189-.011-.252 0-.463.056-.631.181a1.084 1.084 0 0 0-.358.488v3.314h-.737v-4.676h.716l.01.545c.116-.193.253-.34.421-.454a1.059 1.059 0 0 1 .79-.147.334.334 0 0 1 .147.045v.738h.01zm3.2 2.713c0-.09-.011-.17-.032-.25a.463.463 0 0 0-.147-.215 1.275 1.275 0 0 0-.306-.193 2.7 2.7 0 0 0-.515-.159 6.766 6.766 0 0 1-.653-.193c-.19-.08-.357-.17-.494-.272a.923.923 0 0 1-.305-.375 1.127 1.127 0 0 1-.106-.51c0-.182.043-.363.116-.522a1.15 1.15 0 0 1 .326-.432 1.44 1.44 0 0 1 .506-.295c.2-.068.42-.113.662-.113.263 0 .495.034.695.113.2.08.379.182.516.318.147.136.252.284.326.465.073.182.116.363.116.568h-.748a.692.692 0 0 0-.063-.284.819.819 0 0 0-.463-.443 1.048 1.048 0 0 0-.39-.068c-.157 0-.283.023-.399.057a.627.627 0 0 0-.263.159.747.747 0 0 0-.158.216.708.708 0 0 0-.052.25c0 .09.01.158.042.238a.439.439 0 0 0 .157.193c.074.056.18.113.306.158.126.046.294.091.505.148.263.068.494.136.694.227.19.08.358.181.484.295.127.113.221.238.284.386.064.147.095.306.095.5 0 .204-.042.396-.116.555-.084.17-.189.318-.336.432a1.604 1.604 0 0 1-.526.283 2.186 2.186 0 0 1-.684.103c-.285 0-.548-.046-.758-.125a1.857 1.857 0 0 1-.558-.34 1.481 1.481 0 0 1-.337-.489 1.517 1.517 0 0 1-.115-.567h.736a.92.92 0 0 0 .105.408.832.832 0 0 0 .243.273 1.218 1.218 0 0 0 .673.193c.158 0 .284-.012.4-.057a.819.819 0 0 0 .294-.148.567.567 0 0 0 .18-.215.573.573 0 0 0 .063-.273z" fill="#000"/></svg>