<svg width="83" height="63" viewBox="0 0 83 63" fill="none" xmlns="http://www.w3.org/2000/svg"><path d="M55.98 41.365c-2.643.426-3.996 2.38-3.996 5.816 0 3.457 1.8 5.77 4.561 5.77 1.284 0 2.451-.427 4.903-1.63v2.797c-2.944 1.35-4.677 1.768-7.05 1.768-2.568 0-4.376-.681-5.85-2.185-1.513-1.513-2.27-3.512-2.27-5.735 0-4.949 3.663-8.296 9.015-8.296 3.556 0 5.998 1.623 5.998 4.008 0 1.536-1.138 2.593-2.825 2.593-.866 0-1.58-.226-2.489-.756v-4.15h.003zm-13.045 6.601c2.37-2.987 3.207-4.193 3.207-5.659 0-1.46-1.159-2.637-2.709-2.637-.953 0-1.814.45-2.231.919v6.085l-3.883 5.175V40.053h-3.692L27.49 50.23V40.053h-2.12l-5.573 1.359v1.425l3.04.308v12.48h3.923l5.888-9.675v9.675h4.303l5.984-7.659zM8.061 53.703c.418.02.603.02.867.02 3.164 0 4.859-1.973 4.859-5.754 0-3.202-1.388-4.903-3.95-4.903-.425 0-.875.052-1.776.162v10.475zm0 6.821l2.547.568v1.446H.618v-1.446l2.277-.568V43.066H.362v-1.498l6.114-1.858h1.585v2.084c2.863-1.704 3.848-2.005 5.315-2.005 3.393 0 5.893 3.126 5.893 7.458 0 5.007-3.34 8.374-8.603 8.374a24 24 0 0 1-2.608-.153v5.056h.003zm74.441-41.213H52.624v7.647h29.878V19.31z" fill="#000"/><path d="M70.882 3.176H52.624v23.781h18.258V3.177z" fill="#000"/><path d="M67.88.19H52.624v26.768H67.88V.189z" fill="#000"/><path d="M78.62 7.833H52.623v19.125H78.62V7.833z" fill="#000"/><path d="M62.166 15.48h-9.542v11.48h9.542V15.48zm-9.545 11.479H37.325v3.824H52.62v-3.825z" fill="#000"/></svg>