<svg width="115" height="44" viewBox="0 0 115 44" fill="none" xmlns="http://www.w3.org/2000/svg"><path d="M38.084 24.593h-2.306L30.16 14.441h3.718l2.254 4.336a11.9 11.9 0 0 1 .924 2.294c.215-.765.57-1.682.895-2.337l2.121-4.287h3.282l-5.27 10.146zm12.269-10.397c4.044 0 6.653 2.269 6.653 5.302 0 3.033-2.61 5.302-6.653 5.302-4.043 0-6.652-2.269-6.652-5.302 0-3.033 2.602-5.302 6.652-5.302zm0 8.194c1.93 0 3.341-1.143 3.341-2.898 0-1.706-1.441-2.875-3.34-2.875-1.849 0-3.312 1.126-3.312 2.875 0 1.688 1.412 2.898 3.311 2.898zm16.181-3.118l4.346 5.277h-3.8l-2.853-3.638-2.956 3.638h-3.607l4.346-5.143-4.073-4.966h3.829l2.58 3.346 2.66-3.346h3.608l-4.08 4.832zm-23.505 23.99h-3.12v-1.235c-.731.74-2.01 1.48-3.91 1.48-2.387 0-4.287-1.278-4.287-4.177v-6.177h3.12v5.639c0 1.345.62 2.311 2.335 2.311 1.035 0 2.033-.47 2.742-1.235V33.16h3.12v10.103zM46.2 27.54h3.119v15.723h-3.12V27.54zm6.896 10.243l5.13 5.48h-4.022l-4.834-5.278 4.369-4.831h3.94l-4.583 4.63zm6.874-4.623h3.12v.991c.568-.654 1.33-1.168 2.793-1.168 1.005 0 1.493.135 1.9.38l-1.116 2.427c-.6-.294-.924-.38-1.575-.38-1.086 0-1.655.496-2.01 1.077v6.782h-3.12V33.16h.008zm9.527.716c1.057-.514 2.713-.966 4.317-.966 3.607 0 4.886 1.529 4.886 4.201v6.152h-2.713v-1.168c-.65.764-1.951 1.303-3.607 1.303-2.225 0-3.829-1.144-3.829-3.1 0-2.227 1.981-3.279 4.45-3.279 1.087 0 2.173.294 2.772.648.081-1.681-.458-2.605-2.277-2.605-1.411 0-2.306.361-3.2.698l-.799-1.884zm6.276 6.421v-1.033c-.54-.337-1.25-.496-2.144-.496-1.035 0-1.951.404-1.951 1.26 0 .764.761 1.193 1.737 1.193 1.3 0 1.973-.471 2.358-.924zm7.739-12.287c.894 0 1.789.588 1.789 1.505 0 1.034-.895 1.615-1.79 1.615-1.056 0-1.95-.587-1.95-1.615-.008-.917.894-1.504 1.95-1.504zm-1.634 5.15h3.12v10.109h-3.12V33.16zm6.505 0h3.12v1.01c.73-.65 2.032-1.193 3.503-1.193 2.986 0 5.018 1.192 5.018 4.354v5.932h-3.119v-5.48c0-1.614-1.005-2.379-2.742-2.379-1.057 0-1.93.361-2.66.967v6.898h-3.12V33.16zm25.139 9.094c-1.22.856-2.957 1.26-4.672 1.26-3.94 0-6.571-2.11-6.571-5.302 0-2.942 2.447-5.302 6.46-5.302 3.149 0 5.78 1.865 5.78 4.696 0 .63-.051 1.01-.192 1.395h-8.825c.273 1.529 1.737 2.36 3.666 2.36 1.493 0 2.742-.446 3.444-.923l.91 1.816zm-8.116-4.984h6.002c.029-1.235-1.006-2.202-2.794-2.202-1.878 0-2.883.875-3.208 2.202zm-92.572-3.902l-3.873-2.801c4.006-3.786 6.209-8.63 6.209-13.626 0-4.971-2.18-9.784-6.143-13.564L12.915.595c4.768 4.55 7.4 10.353 7.4 16.353 0 6.023-2.654 11.857-7.48 16.42z" fill="#000"/><path d="M4.844 27.631L.978 24.824c2.321-2.19 3.6-4.99 3.6-7.877 0-2.862-1.257-5.644-3.54-7.821l3.887-2.79c3.09 2.955 4.79 6.722 4.79 10.605.007 3.926-1.722 7.724-4.871 10.69z" fill="#000"/></svg>