<svg width="91" height="34" viewBox="0 0 91 34" fill="none" xmlns="http://www.w3.org/2000/svg"><path d="M32.22 7.014v5.834c0 .195.145.341.338.341h1.661c.193 0 .337-.17.337-.341V6.989L38.722.887c.144-.244 0-.537-.29-.537H36.58c-.145 0-.241.098-.29.171L33.4 4.744 30.51.52a.35.35 0 0 0-.288-.17h-1.854c-.289 0-.433.292-.289.536l4.142 6.127z" fill="#1A1A1A"/><path fill-rule="evenodd" clip-rule="evenodd" d="M53.144 6.795c0 3.661-2.889 6.566-6.5 6.566-3.613 0-6.478-2.905-6.478-6.566 0-3.662 2.865-6.615 6.477-6.615s6.501 2.953 6.501 6.615zm-2.335 0c0-2.295-1.878-4.223-4.166-4.223-2.263 0-4.117 1.904-4.141 4.223 0 2.318 1.854 4.198 4.141 4.198 2.288 0 4.166-1.88 4.166-4.198z" fill="#1A1A1A"/><path d="M60.633 13.362c2.865 0 5.033-2.245 5.033-5.028V.718a.347.347 0 0 0-.337-.342h-1.71a.347.347 0 0 0-.337.342v7.518c0 1.538-1.06 2.759-2.649 2.759s-2.624-1.22-2.624-2.783V.718a.331.331 0 0 0-.337-.342h-1.71a.347.347 0 0 0-.337.342v7.616c0 2.783 2.167 5.028 5.008 5.028zM10.718 29.593c-.12-.122-.313-.122-.458 0-.77.635-1.685 1.05-2.769 1.05-2.311 0-4.045-1.953-4.045-4.223 0-2.319 1.71-4.271 4.021-4.271 1.012 0 2.023.415 2.793 1.074.145.146.338.146.458 0l1.107-1.147a.34.34 0 0 0-.024-.513c-1.228-1.123-2.552-1.709-4.382-1.709-3.612-.024-6.525 2.93-6.525 6.59 0 3.662 2.913 6.567 6.525 6.567 1.613 0 3.154-.562 4.382-1.782.12-.122.169-.366.024-.488l-1.107-1.148z" fill="#1A1A1A"/><path fill-rule="evenodd" clip-rule="evenodd" d="M13.222 26.443c0-3.661 2.865-6.615 6.477-6.615 3.636 0 6.502 2.954 6.502 6.615s-2.89 6.566-6.502 6.566c-3.612 0-6.477-2.905-6.477-6.566zm2.336 0c0 2.319 1.854 4.198 4.141 4.198 2.288 0 4.166-1.88 4.166-4.198 0-2.294-1.878-4.223-4.166-4.223-2.287 0-4.141 1.904-4.141 4.223z" fill="#1A1A1A"/><path d="M38.913 20.023h-1.661a.347.347 0 0 0-.337.342v7.567h-.024l-7.513-8.104h-.457a.331.331 0 0 0-.337.342v12.327c0 .195.168.341.337.341h1.637c.193 0 .337-.17.337-.341v-7.885h.024l7.561 8.422h.434a.331.331 0 0 0 .337-.342V20.365c.024-.17-.145-.342-.337-.342zm51.385 10.619H85.7V20.366a.347.347 0 0 0-.337-.342h-1.661a.347.347 0 0 0-.337.342v12.131c0 .195.144.342.337.342h6.621a.347.347 0 0 0 .337-.342v-1.513c-.024-.171-.168-.342-.36-.342z" fill="#1A1A1A"/><path fill-rule="evenodd" clip-rule="evenodd" d="M60.705 20.024c2.167 0 3.949 1.757 3.949 3.93 0 1.684-1.108 3.075-2.673 3.71l2.48 4.662c.12.244 0 .537-.313.537h-1.902c-.169 0-.24-.097-.289-.17l-2.408-4.858h-1.998v4.662c0 .17-.145.342-.337.342h-1.662a.331.331 0 0 1-.337-.342V20.366c0-.171.144-.342.337-.342h5.153zm-3.13 5.834h2.937c.963 0 1.806-.83 1.782-1.855a1.8 1.8 0 0 0-1.782-1.782h-2.937v3.637zm9.583.585c0-3.661 2.865-6.615 6.477-6.615s6.501 2.954 6.501 6.615-2.889 6.566-6.5 6.566c-3.612 0-6.478-2.905-6.478-6.566zm2.336 0c0 2.319 1.854 4.198 4.141 4.198 2.288 0 4.166-1.88 4.166-4.198 0-2.294-1.878-4.223-4.166-4.223-2.287 0-4.141 1.904-4.141 4.223z" fill="#1A1A1A"/><path d="M90.562 17.437v-1.514a.331.331 0 0 0-.337-.341H1.495a.347.347 0 0 0-.337.341v1.514c0 .195.145.341.338.341h43.968v14.695c0 .195.168.342.336.342h1.686a.347.347 0 0 0 .337-.342v-14.67h42.402c.193 0 .337-.171.337-.366z" fill="#1A1A1A"/></svg>