<svg width="86" height="66" viewBox="0 0 86 66" fill="none" xmlns="http://www.w3.org/2000/svg"><path d="M28.559 65.29l4.064-16.11 1.49.106s2.681 16.003 2.66 16.003h-1.596s-2.17-13.109-2.17-13.087H32.9s-1.788 9.3-3.086 13.087H28.56z" fill="#000"/><path d="M36.156 63.736l-.191 1.554h-6.81v-1.554h7.001zm18.45-49.476l.447-10.237h-1.617l-.681 16.535 2.49-.02s3.362-.299 3.362-3.235c-.021-2.129-2.532-2.959-4-3.044zm-.212 5.064l.191-3.83c.83-.043 2.383-.022 2.383 1.979 0 1.426-1.808 1.894-2.575 1.851zm-4.81-11.002l1.553-.192s.596-4.34-2.468-4.235c-3.064.107-4.022 4.235-4 8.534.02 4.299.404 8.427 3.617 8.342 3.213-.085 2.532-4.299 2.532-4.299l-1.617.17s.66 2.49-.809 2.49c-1.745 0-2.277-2.192-2.128-6.597.15-4.469.34-7.065 2.405-7.065 1.15 0 .915 2.852.915 2.852zm-35.007 8.066c-.766-2.17-2.809-2.192-4-1.894l.127-3.405c4.427-.49 4.703-6.682 4.703-6.682H13.79c0 4.681-2.298 5.405-3.022 5.405l.15-5.405h-1.66L8.81 20.559h1.681l.107-4.874c3.49-1.149 3.107 4.831 3.107 4.831h1.575c0 .043.255-1.426-.703-4.128zM6.363 38.904c-.766-2.171-2.809-2.192-4-1.894l.127-3.405c4.724-.532 4.895-6.916 4.895-6.916H5.767c0 4.681-2.49 5.639-3.213 5.639l.149-5.618h-1.66L.596 43.096h1.681l.107-4.873c3.49-1.15 3.107 4.83 3.107 4.83h1.574c-.021.022.234-1.447-.702-4.15zm59.054-22.516c-.766-2.17-2.81-2.192-4-1.894l.127-3.405c4.426-.49 4.703-6.682 4.703-6.682h-1.618c0 4.681-2.298 5.405-3.021 5.405l.149-5.405h-1.66l-.447 16.152h1.681l.106-4.874c3.49-1.149 3.107 4.831 3.107 4.831h1.575c0 .043.255-1.426-.702-4.128zm-47.392 4.258h-1.511l.468-15.982h1.596l-.553 15.982z" fill="#000"/><path d="M18.046 11.195s5.001.085 5.001-3.618c0-2.256-2.724-2.852-4.511-3.022-.894-.064-1.554-.042-1.554-.042l-.021 1.255 1.51-.042s3.001-.426 3.001 1.894c0 1.383-1.425 2.298-3.362 2.298l-.064 1.277zm31.666 31.813H48.2l.468-15.981 1.575-.022-.532 16.003z" fill="#000"/><path d="M49.733 33.56s5 .085 5-3.618c0-2.255-2.723-2.851-4.51-3.021-.894-.064-1.554-.043-1.554-.043l-.021 1.256 1.51-.043s3.001-.426 3.001 1.894c0 1.383-1.426 2.298-3.362 2.298l-.064 1.277zM32.56 20.538h-1.618l.639-16.131 1.638.021-.66 16.11zM34.07.001c-.638.17-1.191.596-1.191 1.533 0 1.447 1.17 1.83 1.872 1.936.256.043.32.022.32.022.127-.022.234-.022.361-.064.575-.192 1.043-.596 1.043-1.447C36.496-.126 34.07 0 34.07 0zm.915 2.32c-.02 0-.042.021-.063.021-.064.022-.128.022-.192.022-.426-.022-.723-.15-.723-.724 0-.277.17-.49.404-.532.574 0 .979.064.979.724-.022.276-.213.425-.405.49zM29.453.001c-.639.17-1.192.596-1.192 1.533 0 1.447 1.17 1.83 1.873 1.936.255.043.319.022.319.022.128-.022.234-.022.362-.064.574-.192 1.042-.596 1.042-1.447C31.88-.126 29.453 0 29.453 0zm.915 2.32c-.022 0-.043.021-.064.021-.064.022-.128.022-.192.022-.425-.022-.723-.15-.723-.724 0-.277.17-.49.404-.532.575 0 .979.064.979.724 0 .276-.191.425-.404.49zM3.086 16.494c-.915.235-1.724.852-1.724 2.192 0 2.065 1.681 2.618 2.703 2.767.362.042.447.042.468.042.17-.042.34-.042.51-.085.81-.276 1.512-.872 1.512-2.085 0-3-3.469-2.83-3.469-2.83zm1.362 3.49c-.043.022-.064.022-.106.043-.107.021-.235.021-.32.021-.702-.042-1.191-.255-1.191-1.191 0-.469.298-.81.66-.873.936 0 1.617.106 1.617 1.192 0 .447-.32.68-.66.809zM5.725 4.407l.085 3.937c0 1.213-.022 2.021-.107 2.915-.127 1.554-.319 3.362-1.723 3.362-1.405 0-1.596-2.255-1.745-3.362-.064-.447-.15-1.107-.15-2.958 0-1.851.15-3.894.15-3.894H.639S.51 6.897.51 8.28c0 1.362.085 2.32.128 2.958.234 2.958.893 4.596 3.362 4.596 2.256 0 3.086-1.596 3.34-4.617.086-1.022.086-1.767.086-2.895L7.32 4.428l-1.596-.021zm6.107 34.389c-.915.234-1.724.85-1.724 2.192 0 2.064 1.682 2.617 2.703 2.766.362.043.447.043.468.043.17-.043.34-.043.511-.085.809-.277 1.51-.873 1.51-2.086.022-3-3.468-2.83-3.468-2.83zm1.362 3.49c-.042.021-.064.021-.106.042-.107.022-.234.022-.32.022-.702-.043-1.191-.256-1.191-1.192 0-.468.298-.809.66-.873.936 0 1.617.107 1.617 1.192 0 .447-.298.681-.66.809zm1.276-15.577l.086 3.937c0 1.213-.021 2.022-.106 2.915-.128 1.554-.32 3.363-1.724 3.363-1.405 0-1.596-2.256-1.745-3.363-.064-.447-.149-1.106-.149-2.958 0-1.83.149-3.894.149-3.894H9.385s-.128 2.49-.128 3.873c0 1.362.085 2.32.128 2.958.234 2.958.894 4.597 3.362 4.597 2.256 0 3.086-1.596 3.341-4.618.085-1.022.085-1.766.085-2.894l-.106-3.895-1.596-.021zm27.687 12.215c-.915.234-1.724.85-1.724 2.192 0 2.064 1.682 2.617 2.703 2.766.362.043.447.043.468.043.17-.043.34-.043.511-.085.809-.277 1.51-.873 1.51-2.086.022-3-3.468-2.83-3.468-2.83zm1.383 3.468c-.042.022-.063.022-.106.043-.106.021-.234.021-.32.021-.701-.042-1.19-.255-1.19-1.192 0-.468.297-.808.659-.872.936 0 1.617.106 1.617 1.192-.021.468-.32.68-.66.808zm1.277-15.556l.085 3.937c0 1.213-.02 2.022-.106 2.916-.128 1.553-.32 3.362-1.724 3.362s-1.596-2.256-1.745-3.362c-.064-.447-.149-1.107-.149-2.958 0-1.852.15-3.895.15-3.895H39.73s-.128 2.49-.128 3.873c0 1.363.086 2.32.128 2.958.234 2.959.894 4.597 3.362 4.597 2.256 0 3.086-1.596 3.341-4.618.086-1.021.086-1.766.086-2.894l-.107-3.894-1.596-.022zM74.334 4.428l-4.555 12.534.49-12.534h-1.596l-.553 16.11h1.638l4.682-13.26-.32 13.258h1.575l.235-16.11h-1.597zm-3.001 22.494l-4.554 12.513.49-12.534h-1.576l-.574 16.13h1.638l4.703-13.257-.319 13.236 1.554.022.234-16.11h-1.596zm-44.051-.064l-1.511-.107-.66 15.982 1.575.128.596-16.003z" fill="#000"/><path d="M26.622 36.285s5.001.277 4.724 3.958c-.17 2.256-2.915 2.66-4.703 2.682-.893.021-1.553-.064-1.553-.064l.064-1.256 1.51.15s2.959.638 3.129-1.682c.106-1.383-1.277-2.405-3.192-2.532l.021-1.256zm8.406 6.64H33.56l.383-16.089h1.49l-.405 16.089z" fill="#000"/><path d="M31.155 26.837l6.788-.128v1.234l-6.81.107.022-1.213zM17.918 56.693a24.53 24.53 0 0 0-.106-2.49v-.17c0-.085-.021-.192-.021-.277-.234-2.937-.894-4.554-3.32-4.554-2.235 0-3.065 1.575-3.32 4.576-.085 1.021-.085 1.745-.085 2.872v1.193c0 1.063.043 1.872.106 2.489v.17c0 .085.022.192.022.277.234 2.937.893 4.554 3.32 4.554 2.234 0 3.064-1.575 3.32-4.575.084-1.022.084-1.745.084-2.873v-1.193zm-3.426 7.044c-1.383 0-1.596-1.83-1.724-2.937 0-.042-.106-1.851-.106-3.639 0-1.702.085-3.362.085-3.405.128-1.532.32-2.937 1.703-2.937s1.596 1.83 1.723 2.937c0 .043.107 1.767.107 3.49 0 1.745-.085 3.511-.085 3.554-.128 1.532-.32 2.937-1.703 2.937zm9.726-49.54l3.51-.298.192 1.192-3.83.17.128-1.064z" fill="#000"/><path d="M29.431 20.644l-2.15-16.195-1.659-.149-3.128 16.322h1.362l2.298-12.896.149-.02 1.404 12.874 1.724.064zM5.363 65.375H3.809l.213-16.152H5.64l-.276 16.152z" fill="#000"/><path d="M1.66 57.395c0-.85-.383-7.022 3.064-5.958l-.02-1.213c-1.193-.277-3.001-.17-3.938 1.915C-.02 53.884 0 56.267 0 57.417c0 1.149.021 3.213.766 4.873.937 2.085 2.745 2.192 3.937 1.915l.021-1.213c-3.298 1-3.064-4.745-3.064-5.597zm6.129 0c0-.85.383-7.022-3.065-5.958l.022-1.213c1.191-.277 3-.17 3.937 1.915.787 1.745.766 4.128.766 5.278 0 1.149-.022 3.213-.766 4.873-.937 2.085-2.746 2.192-3.937 1.915l-.022-1.213c3.299 1 3.065-4.745 3.065-5.597zm15.748-14.343l-2.128-16.407-1.66-.149-3.129 16.556h1.362l2.235-13.279.149-.021 1.468 13.3h1.703zM41.604 4.407l-.34 9.491-3.938-2.809.17-6.703h-1.638l-.426 16.258h1.618l.213-7.746 3.873 2.852-.192 4.894h1.639L43.2 4.428l-1.596-.021zM25.686 48.862l-.34 9.49-3.916-2.808.149-6.704H19.94l-.425 16.26h1.617l.213-7.746 3.873 2.851-.192 4.895h1.639l.617-16.216-1.596-.021zM61.757 26.9l-.34 9.513-3.917-2.809.15-6.703h-1.618l-.447 16.237h1.617l.213-7.725 3.895 2.83-.192 4.895h1.617l.639-16.195-1.617-.042zM83.93 4.427L79.378 16.96l.49-12.534h-1.575l-.575 16.11h1.639L84.06 7.277l-.32 13.258h1.554l.234-16.11h-1.596zm-.957-3.149c-.042.723-.17 1.425-.979 1.425-.957 0-1.106-.68-1.127-1.447l-1.065.128c.107 1.468.703 2.469 2.192 2.469 1.703 0 2.043-1.299 2.107-2.448l-1.128-.127zM80.867 26.92l-4.554 12.535.51-12.534h-1.596l-.574 16.11h1.66l4.681-13.258-.319 13.236 1.554.021.234-16.11h-1.596zm-.937-3.17c-.042.724-.17 1.427-.979 1.427-.957 0-1.106-.681-1.127-1.447l-1.064.127c.106 1.469.702 2.469 2.191 2.469 1.703 0 2.043-1.298 2.107-2.448l-1.128-.127zM66.502 54.905l-18.578-.361-.447-5.448 20.196 1.085-1.17 4.724zm-4.128 8.875l-18.557-.363-.447-5.426 20.174 1.064-1.17 4.724z" fill="#000"/></svg>