<svg width="84" height="70" viewBox="0 0 84 70" fill="none" xmlns="http://www.w3.org/2000/svg"><path d="M64.457 19.279l-19.819 16.63 18.645 3.287 19.819-16.63-18.645-3.287zM44.638 35.87l19.819-16.63V.31L44.638 16.94v18.93zm-43.922.506c0 4.571 3.513 5.072 5.723 4.974 0 0 8.649-.314 10.567-.576V36.89h-9.45c-.983 0-2.084.034-2.1-1.76v-3.867l10.008-.32v-3.897l-10.008-.357v-3.867c0-.915 0-1.896 1.76-1.896h9.788v-3.92c-2.178-.297-10.904-.54-10.904-.54-2.338-.049-5.384.844-5.384 5.144v14.767zm46.929 23.166l2.98-8.846 2.785 8.846h-5.764zm-8.111 9.694h5.093l1.788-5.492h8.119l1.76 5.492h5.047l-8.05-24.786h-5.392l-8.365 24.786zM.716 64.363c0 4.571 3.513 5.072 5.723 4.974 0 0 8.648-.314 10.567-.576v-3.885h-9.45c-.983 0-2.085.033-2.1-1.76v-3.867l10.008-.32v-3.897l-10.008-.357v-3.867c0-.915 0-1.896 1.76-1.896h9.788v-3.92c-2.178-.297-10.904-.54-10.904-.54-2.338-.048-5.384.844-5.384 5.145v14.766zm23.668-8.706v-6.992h5.619c1.489 0 2.438.698 2.438 3.513 0 2.995-.787 3.48-2.438 3.48h-5.62zm-4.76 13.579h4.74v-9.853l4.165.473 4.096 9.38h5.336l-4.694-9.762c1.378-.433 3.946-1.16 3.946-7.296 0-5.92-2.879-7.728-6.747-7.728H19.623v24.785h.001zm4.74-32.218V20.64h5.42c2.642 0 4.23 1.647 4.23 8.279 0 4.972-1.158 8.098-4.23 8.098h-5.42zm-4.74 4.226h10.532c6.05 0 8.599-4.995 8.599-12.29 0-6.142-1.465-12.495-8.599-12.495H19.624v24.785z" fill="#000"/></svg>