<svg width="75" height="50" viewBox="0 0 75 50" fill="none" xmlns="http://www.w3.org/2000/svg"><path d="M49.777 3.657c-.103.055-.183.103-.256.143.118-.05.238-.085.354-.1l.047-.023a.468.468 0 0 1-.085-.048c-.022.008-.04.018-.06.028zm-.319 3.763c.066-.06.146-.111.239-.164a.466.466 0 0 1 .178-.213 1.93 1.93 0 0 1-.284-.06c-.062.035-.128.068-.195.103a.95.95 0 0 1 .067.308c0 .01-.002.018-.005.025zm1.702.368a.631.631 0 0 1-.121.07c.027.008.055.016.085.023.04-.058.083-.116.131-.166l-.04-.007a.179.179 0 0 1-.056.08zm-1.518-.315a4.73 4.73 0 0 0-.189-.012c-.012.028-.022.055-.047.075.017.01.032.018.047.03.068.053.148.13.224.221.025-.005.05-.005.077-.007a.487.487 0 0 1-.112-.307zm5.315-4.007l.04-.015c-.05-.017-.1-.032-.15-.053.035.023.072.046.11.068zM46.564 4.54c.015.025.025.048.037.07.023-.017.048-.03.07-.047a.916.916 0 0 1-.107-.023zm4.186-1.352c.018.01.033.017.045.033.016.012.026.032.038.047a7.51 7.51 0 0 0 .248-.115c.03-.018.068-.03.103-.05.03-.053.063-.106.098-.15-.18.074-.356.155-.532.235z" fill="#000"/><path d="M47.793 2.593a.7.7 0 0 1 .1.344.602.602 0 0 1-.233.474.193.193 0 0 1-.09.03c-.018.018-.026.043-.048.053a.602.602 0 0 1-.361.04c-.003.01-.008.017-.013.025.018.025.038.045.048.065a.622.622 0 0 1 .118.359.58.58 0 0 1-.191.426c-.02.02-.05.02-.078.03-.015.02-.022.046-.045.06a.563.563 0 0 1-.303.066c-.02.042-.038.083-.058.13.02.04.035.08.05.116a.568.568 0 0 1-.263.715.18.18 0 0 1-.096.017c-.002.003-.002.005-.005.005a.615.615 0 0 1-.12.687c-.02.023-.053.026-.078.033-.015.023-.022.053-.047.068a.557.557 0 0 1-.216.08c-.075.163-.15.324-.231.487.103.17.18.343.22.476a.67.67 0 0 1 .003.404.585.585 0 0 1 .341-.12h.033c.376-.7.79-1.33 1.513-1.668.995-.472 2.661-.562 3.69-1.011-.046.088-.1.258-.161.419a1.888 1.888 0 0 1 .311.381l.03-.05a.551.551 0 0 1-.153-.382c0-.09.02-.175.055-.25.01-.023.038-.028.053-.043.008-.03.01-.06.033-.083a.56.56 0 0 1 .519-.193c.118-.058.253-.118.356-.166l.043-.067c.015-.023.042-.023.062-.035.015-.023.015-.048.038-.068a.525.525 0 0 1 .472-.1c.13-.058.253-.113.37-.163a.572.572 0 0 1 .086-.171c.018-.02.045-.023.065-.035.015-.025.015-.053.038-.07a.934.934 0 0 1 .098-.063.412.412 0 0 1 .002-.15c.005-.018.023-.03.03-.046-.002-.007-.005-.015-.005-.02a.17.17 0 0 1 .018-.078.566.566 0 0 1 .504-.336l-.078-.025c-.303.138-.61.314-.913.407-.36.112-.85.38-1.264.551.025-.296.083-.692.113-1.058.256-.13.474-.236.625-.309a.222.222 0 0 1-.036-.01c-.158.06-.298.096-.145-.037h-.003c-.115.09-.27.17-.433.253.007-.125.015-.24.01-.351-.08-.02-.163-.04-.244-.058-.012.028-.012.053-.015.083-.093.045-.188.088-.28.13.014.01.032.015.042.03.015.01.022.028.032.043.068-.033.133-.063.199-.098-.013.118-.023.239-.035.359-.005.002-.008.002-.013.005.11.276.148.607.13.813a.52.52 0 0 1-.489.504c-.02 0-.037-.013-.057-.018-.028.005-.05.015-.078.01a.525.525 0 0 1-.146-.05 2.418 2.418 0 0 0-.125.04.51.51 0 0 1-.474.417c-.02.002-.038-.013-.058-.018a.203.203 0 0 1-.078.013.503.503 0 0 1-.293-.17c-.118.027-.241.057-.364.082a1.2 1.2 0 0 1-.14.163.519.519 0 0 1-.7.045c-.02-.015-.02-.04-.033-.063-.02-.012-.05-.015-.063-.035 0 0-.002-.002-.002-.005a4.153 4.153 0 0 0-.188.163c-.045.013-.09.025-.136.035a1.55 1.55 0 0 1 .221-.479.09.09 0 0 1-.005-.027c0-.053.013-.106.028-.158-.218.246-.457.574-.698.795-.07.022-.143.048-.21.07.135-.627.416-1.131.842-1.535a.53.53 0 0 1-.14.002c-.512.545-.775 1.292-1.357 1.699v.005c.048-.916.883-2.459 1.425-3.321-.226-.016-.452-.03-.678-.04-.077.11-.148.21-.16.233-.038.062-.073.125-.113.188.03.037.055.073.073.105zm-.504 2.943c-.013.01-.028.017-.043.025 0-.005.002-.015 0-.025h.043z" fill="#000"/><path d="M50.617 2.653c.056-.022.108-.047.16-.07.114-.05.29-.09.483-.135-.06-.01-.118-.023-.179-.033-.16.053-.32.11-.479.17l.015.068zm4.006 7.046c.028 0 .056-.006.084-.006-.007-.017-.015-.035-.02-.053-.026.003-.048.003-.074.003a.645.645 0 0 1 .01.056zm9.736.191c.08 0 .145.048.173.118a.753.753 0 0 1 .085-.138.487.487 0 0 0-.1-.145c-.066.06-.148.118-.231.175a.361.361 0 0 1 .073-.01zm-3.356 1.163c.01-.068.025-.138.047-.204h-.138c.033.06.063.128.09.204zm-1.824-4.035c.072.037.155.083.238.14.77-.032 1.548-.042 2.3-.07a22.412 22.412 0 0 0-.94-.682 6.31 6.31 0 0 1-1.004.193l-.288.033a.459.459 0 0 1-.306.386zm9.886 9.177c-.025-.048-.043-.091-.053-.114-.032.013-.073.018-.113.028a.455.455 0 0 1 .166.085zm-.56-.058a2.625 2.625 0 0 1-.364-.038c.015.05.025.103.028.16.05.01.098.02.148.033a.606.606 0 0 1 .188-.155zM50.739 6.365c-.036-.023-.066-.048-.099-.071a.065.065 0 0 0-.015.013c.028.022.06.045.086.07.008 0 .018-.007.028-.012zm1.231 3.897c-.04.01-.083.023-.123.035.04.073.077.15.105.23.032-.024.06-.047.092-.07.018-.052.035-.102.058-.155a1.681 1.681 0 0 1-.133-.04zm-1.207.308a.674.674 0 0 1-.09-.1c-.043 0-.086.003-.13.005.114.096.227.206.323.324.042.005.08.01.12.017l.043-.062a1.8 1.8 0 0 1-.266-.183zm1.076.423h-.015c.038.007.078.02.119.027.002-.027.002-.053.005-.08a.178.178 0 0 1-.109.053zm-23.973 2.595c.04.015.078.035.113.058a.712.712 0 0 1 .017-.258c.01-.04.025-.088.04-.136-.012-.002-.025-.002-.035-.005-.015-.005-.02-.02-.032-.025a.219.219 0 0 1-.09-.022.507.507 0 0 1-.221-.648.355.355 0 0 1-.078-.012c-.013-.003-.018-.018-.028-.023a.192.192 0 0 1-.082-.02.457.457 0 0 1-.241-.404.53.53 0 0 1 .04-.2c.025-.056.06-.123.103-.189-.028-.045-.053-.092-.08-.14-.144.186-.284.374-.422.562.068.09.136.186.2.276.292.381.585.772.796 1.186zM34.5 5.94a4.767 4.767 0 0 1-.077-.605l.027-.023c-.165.095-.328.193-.491.293.007.058.007.12.012.179.189.017.387.082.53.155zm-4.1 2.679a.6.6 0 0 1 .1-.035.377.377 0 0 1 .461.203c.013.022.015.05.015.072.003.008.015.013.015.02a.33.33 0 0 1 .008.068l-.003.005c.103.03.196.096.244.2a.19.19 0 0 1 .015.076c.002.008.01.013.015.02.002.023.005.045.005.068 0 .018-.008.033-.008.053.136.01.256.087.314.218.01.022.017.048.017.075.003.008.013.01.013.018a.344.344 0 0 1 .005.07v.005a.358.358 0 0 1 .243.203c.01.023.018.05.018.073.002.007.012.01.012.02a.664.664 0 0 1 .005.07.316.316 0 0 1-.015.095c.07.038.133.096.168.174.01.022.015.047.015.072.003.01.013.013.015.02.003.026.008.048.008.068 0 .018-.008.03-.008.048a.535.535 0 0 1 .1-.128c.036-.035.084-.073.134-.11l-.03-.016c-.02-.012-.023-.037-.038-.055-.023-.01-.05-.01-.068-.027a.517.517 0 0 1-.15-.357c0-.122.047-.25.135-.358.025-.03.055-.06.086-.09 0-.073-.003-.146 0-.219-.013-.01-.028-.017-.04-.025-.018-.015-.018-.043-.03-.063-.02-.012-.046-.015-.063-.035a.51.51 0 0 1-.098-.298c0-.143.062-.284.183-.394.032-.028.068-.058.108-.088a.458.458 0 0 1-.06-.223c0-.088.025-.18.075-.266.037-.068.095-.143.163-.218.02-.09.04-.18.063-.271a.135.135 0 0 1-.033-.018.46.46 0 0 1-.088-.263.47.47 0 0 1 .16-.346c.04-.038.091-.073.149-.113.025-.093.052-.183.075-.263-.126.085-.253.173-.379.263-.09.306-.238.77-.266.91-.04.189-.128.372-.165.542-.043-.173-.206-.567-.334-.878-.105.08-.213.163-.319.251.201.59.382 1.565.306 2.017-.198-.18-.62-.63-.865-.926-.043-.052-.21-.18-.371-.306-.088.08-.178.16-.264.244l.073-.056c.05.07.113.133.173.204zm4.96-3.702a1.179 1.179 0 0 0-.021-.09c-.055.027-.106.057-.161.085.063-.003.123 0 .181.005zm1.16 3.291c.025-.038.055-.075.088-.116-.015-.005-.025-.007-.038-.015-.012-.005-.017-.017-.028-.025v.005c0 .01-.01.02-.01.028 0 .01.01.02.01.03v.02a.223.223 0 0 1-.022.073zm9.053-5.035c.035-.08.073-.163.108-.25a.682.682 0 0 1-.075-.103 1.21 1.21 0 0 1-.056-.108c-.042.1-.08.203-.123.303l.146.158zM34.872 5.567l.01-.002c.02-.006.04-.006.058-.006a.859.859 0 0 1-.073-.065.43.43 0 0 1 .005.073zm21.143 5.871c.013.058.018.114.023.172a.16.16 0 0 0 .035.002l.013-.03c.01-.018.033-.02.05-.035.01-.02.01-.046.025-.063.015-.015.033-.023.05-.036-.062-.002-.133-.007-.196-.01z" fill="#000"/><path d="M58.938 14.757a.57.57 0 0 1 .052-.246c.008-.02.033-.028.048-.043.008-.033.01-.065.033-.088a.591.591 0 0 1 .76-.14l.073-.048c.155-.027.31-.05.466-.07a.535.535 0 0 1 .13-.226c.016-.02.043-.02.066-.028.012-.02.02-.045.037-.055.234-.14.515-.08.688.146.027.037.055.078.083.125.085.008.168.013.253.023a.582.582 0 0 1 .158-.173.2.2 0 0 1 .088-.028c.015-.01.02-.03.037-.038a.545.545 0 0 1 .685.299c.028.053.05.113.075.183.126.04.254.085.382.136a.04.04 0 0 0 .005-.008c.02-.02.045-.02.067-.03.015-.02.02-.043.04-.055a.532.532 0 0 1 .71.155c.068.09.143.221.204.367.135.062.27.12.409.18a.704.704 0 0 1 .102-.093.18.18 0 0 1 .088-.027c.013-.01.023-.03.038-.035.266-.096.542.027.67.296a1.5 1.5 0 0 1 .09.253c.073.027.145.053.22.078.018-.02.048-.023.073-.03.015-.018.02-.043.043-.053.256-.136.552-.053.722.196.033.052.07.12.106.193.133.04.268.075.404.113a.573.573 0 0 1 .132-.156c-.852-.311-1.725-.773-2.24-1.02a17.244 17.244 0 0 0-3.777-1.35c.088-.048.178-.09.263-.133a15.94 15.94 0 0 1 1.004-.437c.002-.005.002-.012.01-.017.158-.279.574-.708.943-.765a.187.187 0 0 1 .208.14.85.85 0 0 1 .02.246c1.051-.294 2.084-.414 2.98-.241-.115-.334-.288-.401-.421-.712-2.557-.316-4.385.965-6.638 1.979-.148.07-1.264.785-2.277.956-.69.035 1.281-2.163 1.853-2.697a.92.92 0 0 1 .203-.401.185.185 0 0 1 .249-.02c.03.022.055.052.083.08.165-.073.343-.13.526-.17a1.6 1.6 0 0 1 .331-.465 1.602 1.602 0 0 1-.366-.093c.472-.34 1.021-.632 1.576-.925a.78.78 0 0 1 .263-.251.184.184 0 0 1 .18.01c.495-.271.979-.562 1.39-.91-.002-.003-.002-.006-.002-.01-.028-.026-.055-.048-.083-.076-.22.045-.454.12-.695.213a.981.981 0 0 1-.015.246.184.184 0 0 1-.2.143.999.999 0 0 1-.364-.125c-.246.125-.492.26-.73.404-.008.025-.01.055-.018.08a.183.183 0 0 1-.213.125.835.835 0 0 1-.075-.02c-.324.198-.627.401-.89.577a11.57 11.57 0 0 0-1.064.813c0 .005.002.012.005.02a.182.182 0 0 1-.153.193c-.033.008-.068.003-.1.005-.063.053-.121.108-.181.16-.62.043-1.2.068-1.784.068h-.163c.06.048.13.118.2.196a7.912 7.912 0 0 0 1.541-.115c-.263.253-.522.516-.775.782-.55.577-.968 1.623-1.663 2.012-1.545.148-2.922-.632-4.127-1.422.246-.236.613-.492.999-.735a.53.53 0 0 1 .346-.218c.163-.098.321-.196.474-.289l-.002-.01c0-.188.097-.351.225-.451a.152.152 0 0 1 .088-.028c.013-.018.02-.04.043-.05a.58.58 0 0 1 .474.005.587.587 0 0 1 .183-.617c.023-.02.055-.023.085-.03.013-.018.02-.043.043-.053a.583.583 0 0 1 .71.153.58.58 0 0 1 .078-.286c.012-.023.037-.028.057-.043.008-.027.013-.055.033-.075a.561.561 0 0 1 .77-.027c.01.007.017.015.028.022.005-.002.01-.007.015-.007v-.028c0-.133.042-.258.117-.356.018-.023.046-.025.07-.04.01-.025.016-.056.038-.073a.586.586 0 0 1 .735-.003 2.52 2.52 0 0 1 .163-.082c-.002-.02-.002-.043-.002-.063 0-.18.083-.336.203-.44.023-.022.053-.024.083-.032.015-.017.022-.042.045-.052a.579.579 0 0 1 .672.115.606.606 0 0 1 .033-.178c.005-.018.025-.025.038-.043 0-.037.01-.07.03-.103a.614.614 0 0 1 .817-.195c.038.02.08.045.123.07.1-.038.2-.08.301-.12-.002-.023-.01-.046-.01-.066 0-.183.09-.34.213-.441.026-.02.056-.023.086-.03.015-.018.022-.04.042-.05a.571.571 0 0 1 .705.193l.21-.07c0-.006-.002-.01-.002-.01 0-.166.073-.31.178-.41.02-.02.048-.022.073-.03.018-.017.023-.045.043-.057a.562.562 0 0 1 .695.115l.077-.037c-.23-.189-.466-.377-.702-.557-.537.123-1.189.34-1.844.582a.187.187 0 0 1-.092.22c-.181.096-.447.103-.678.076l-.416.168a.196.196 0 0 1-.083.08.827.827 0 0 1-.268.065c-.241.1-.467.196-.668.281a.526.526 0 0 1-.403.369c-.028.007-.053-.005-.078-.01-.02.007-.038.02-.06.02a.52.52 0 0 1-.209-.053l-.178.08c-.11.046-.218.098-.326.149a.52.52 0 0 1-.414.423c-.027.005-.055-.005-.08-.012-.02.007-.038.025-.058.022a.585.585 0 0 1-.138-.027.53.53 0 0 1-.42.454c-.029.005-.054-.008-.081-.013-.02.005-.038.023-.058.02a.547.547 0 0 1-.278-.09c-.098.053-.196.11-.294.166a.534.534 0 0 1-.381.308c-.025.005-.05-.005-.078-.012-.02.007-.037.02-.058.02-.01 0-.017-.003-.025-.003-.04.025-.077.05-.12.073.002.025.01.055.012.08.02.336-.2.535-.428.582-.028.008-.053-.005-.078-.01-.02.005-.038.023-.058.02a.51.51 0 0 1-.329-.133c-.012-.002-.027-.007-.037-.007.005.04.012.08.015.115a.534.534 0 0 1-.424.585c-.03.005-.053-.005-.08-.01-.02.005-.038.02-.06.02a.527.527 0 0 1-.292-.1c-.122.082-.245.162-.366.245a.535.535 0 0 1-.426.542.167.167 0 0 1-.078-.01c-.02.008-.037.02-.06.02a.514.514 0 0 1-.223-.065c-.033.015-.063.032-.096.047a.517.517 0 0 1-.416.442c-.025.01-.053-.003-.08-.008-.02.005-.035.02-.058.02a.513.513 0 0 1-.336-.14c-.028.005-.05.015-.073.018-1.41.303-2.38.747-2.99.94-2.712.848-5.09 3.241-5.09 2.564.941-2.263 2.993-2.98 3.583-3.281.792-.407 1.48-.835 2.182-1.26a.535.535 0 0 1 .108-.3c.012-.018.04-.018.06-.03.01-.02.015-.048.03-.063a.492.492 0 0 1 .547-.05c.078-.046.16-.09.24-.138.003-.015.003-.03.013-.046a.489.489 0 0 1 .514-.24l.063-.033c.093-.012.183-.025.273-.033a.553.553 0 0 1 .028-.16c.005-.015.023-.02.035-.035a.187.187 0 0 1 .025-.088.516.516 0 0 1 .65-.188c.035-.018.073-.038.11-.053.086-.042.166-.088.249-.133a.52.52 0 0 1 .075-.205c.015-.02.038-.026.058-.038.01-.02.01-.05.027-.065a.5.5 0 0 1 .532-.103c.91-.605 1.64-1.32 2.714-1.826.537-.251 1.475-.294 2.215-.364.003 0 .003-.003.003-.003.012-.02.012-.047.03-.062a.498.498 0 0 1 .62-.025c.032-.05.064-.093.102-.136a.184.184 0 0 1 .246-.012c.025.02.045.042.068.065a.517.517 0 0 1 .594-.108.63.63 0 0 1 .1.05c.161-.015.327-.027.492-.037.003-.005 0-.005.003-.008a.48.48 0 0 1 .28-.24.498.498 0 0 1-.165-.209.46.46 0 0 1-.421.291c-.018 0-.03-.015-.046-.02-.025.005-.05.012-.075.007a.44.44 0 0 1-.173-.08.472.472 0 0 1-.361.178c-.015 0-.028-.015-.045-.017-.028.002-.05.01-.078.005a.453.453 0 0 1-.331-.301c-.404.007-.805.002-1.202-.023.158-.135.334-.263.51-.386a.376.376 0 0 1-.04-.156c0-.047.01-.095.03-.145.007-.015.022-.02.03-.033.007-.02.007-.042.022-.057a.43.43 0 0 1 .532-.128c.025.015.055.027.085.047a.476.476 0 0 1 .025-.098c.005-.015.02-.02.033-.032.005-.02.005-.04.018-.058a.428.428 0 0 1 .506-.133.365.365 0 0 1 .025-.113c.008-.015.023-.017.033-.03.008-.02.008-.042.02-.06a.433.433 0 0 1 .532-.128.66.66 0 0 1 .083.043c.138-.073.278-.14.416-.206-.346-.188-.69-.371-1.044-.544-.06.037-.122.08-.2.133-.223.148-.45.293-.68.441-.017.103-.045.2-.073.269a.47.47 0 0 1-.557.303c-.012-.005-.017-.015-.027-.025a.164.164 0 0 1-.085-.02.282.282 0 0 1-.04-.025c-.03.017-.058.035-.088.055 0 .035 0 .068-.003.103a.48.48 0 0 1-.451.464c-.02.002-.036-.013-.053-.018a.146.146 0 0 1-.073.01.477.477 0 0 1-.188-.085c-.02.008-.035.02-.053.03a1.2 1.2 0 0 1-.047.21.457.457 0 0 1-.525.327c-.01 0-.017-.015-.027-.02a.192.192 0 0 1-.085-.015c-.028-.015-.05-.033-.078-.05-.043.025-.085.052-.126.077a.474.474 0 0 1-.446.394c-.018.003-.03-.012-.053-.017-.022.005-.047.015-.072.01-.028-.005-.05-.018-.073-.025-.02.012-.038.02-.056.032a1.542 1.542 0 0 1-.142.427.486.486 0 0 1-.602.256c-.015-.005-.02-.023-.036-.033a.184.184 0 0 1-.08-.023c-.017-.01-.03-.022-.045-.035a.472.472 0 0 1-.532.251c-.012-.002-.017-.017-.027-.02a.214.214 0 0 1-.088-.02c-.02-.01-.035-.023-.05-.03a1.75 1.75 0 0 1-.073.687.481.481 0 0 1-.55.339c-.015-.005-.02-.02-.03-.023a.181.181 0 0 1-.09-.015.62.62 0 0 1-.088-.052.465.465 0 0 1-.393.235c-.02 0-.03-.01-.05-.017-.026.005-.05.015-.076.007a.49.49 0 0 1-.193-.1 35.64 35.64 0 0 1-.54.371 1.719 1.719 0 0 1-.082.251.485.485 0 0 1-.592.291c-.013-.005-.02-.02-.033-.025-.02 0-.04-.01-.065-.018l-.038.023c-.188.115-.39.246-.602.379 0 .047-.002.095-.007.133a.47.47 0 0 1-.462.436c-.017 0-.027-.015-.042-.017-.028.005-.053.012-.078.007a.466.466 0 0 1-.168-.075c-1.114.695-2.393 1.435-3.57 1.68.038-.348.372-.945.48-1.314.238-.374.358-.655.559-.93a.06.06 0 0 1-.015-.023.519.519 0 0 1 .409-.574c.06-.016.133-.026.208-.036a7.2 7.2 0 0 1 .795-.546c.01-.026.018-.053.03-.073.01-.02.038-.025.055-.038.01-.022.01-.053.03-.07a.526.526 0 0 1 .47-.146 9.96 9.96 0 0 1 1.5-.627.305.305 0 0 1-.005-.052c0-.093.027-.183.067-.261.013-.018.035-.023.053-.038.01-.022.01-.048.027-.068.026-.027.056-.05.083-.072-.047-.015-.095-.035-.148-.056-.065.038-.13.068-.193.1a.148.148 0 0 1-.025.053c-.22.256-.722.384-.993.39-.018 0-.033-.003-.05-.006a.09.09 0 0 1-.023.01c.008.005.013.01.02.018a.182.182 0 0 1 .013.246c-.254.313-.85.486-1.177.501a.663.663 0 0 1-.24-.027c-.184.113-.38.243-.598.391.12-.188.231-.384.337-.582a.482.482 0 0 1-.108-.263c0-.015.012-.03.015-.045-.008-.018-.02-.033-.02-.053v-.008a.593.593 0 0 1 .027-.145.717.717 0 0 1-.133.088.172.172 0 0 1-.1.012c-.018.013-.03.033-.053.035a.61.61 0 0 1-.356-.042c-.18.36-.366.72-.56 1.076-.248.459-1.57 3.411-2.162 3.266-.521-.128-.027-2.511.03-2.938 0-.007 0-.012.003-.017.123-.148.233-.304.336-.467-.025-.025-.043-.05-.063-.075a.209.209 0 0 1-.027-.093c-.015-.017-.035-.022-.043-.045a.631.631 0 0 1-.02-.336c-.048.045-.093.093-.143.138 0-.457-.017-1.023-.058-1.636.36-.092.638-.31.878-.584-.04.025-.082.05-.12.068a.631.631 0 0 1-.497.027c-.095.05-.19.096-.288.13-.01-.155-.025-.313-.04-.47-.01-.01-.02-.018-.025-.03a.626.626 0 0 1-.013-.34 17.506 17.506 0 0 0-.223-1.477c-.003-.003-.008-.003-.015-.01a.516.516 0 0 1-.106-.309c0-.047.008-.092.023-.143-.118-.499-.258-.943-.429-1.281-.22.05-.442.1-.66.153.053.15.108.3.158.449.224.148.424.343.532.491.088.12.126.241.126.356 0 .158-.07.299-.169.397-.02.02-.05.02-.072.03-.015.02-.02.048-.043.06l-.018.008s.003.002.003.005c.108.06.203.123.276.18a.586.586 0 0 1 .226.45.55.55 0 0 1-.086.295c-.012.02-.04.025-.06.038-.01.025-.012.055-.032.075a.527.527 0 0 1-.143.095l.012.136c.038.035.07.068.096.098.11.123.153.253.153.376 0 .133-.05.253-.128.346-.013.018-.036.02-.056.028.005.057.01.118.01.178.086.075.158.15.211.218a.64.64 0 0 1 .156.409c0 .16-.068.309-.168.416-.02.02-.05.025-.078.035-.003.005-.008.013-.008.018.02.025.043.045.06.07.12.14.169.289.169.427a.64.64 0 0 1-.158.414c-.02.02-.05.022-.076.032-.015.028-.022.058-.047.073-.015.01-.033.018-.05.028a.57.57 0 0 1 .233.451c0 .1-.03.2-.078.284-.013.022-.038.025-.058.04-.007.027-.012.055-.03.075a.607.607 0 0 1-.155.11c-.005.045-.008.088-.015.133a.545.545 0 0 1 .117.6c-.007.017-.027.025-.04.04-.007.03-.012.063-.032.09a.582.582 0 0 1-.186.16c-.16.859-.399 1.716-.742 2.592a7.652 7.652 0 0 1-.47.98c-.519-.102-.682-.651-.9-1.16-.1.24-.278.473-.411.594a.51.51 0 0 1-.143.093c.133.933.102 2.197-.183 2.714-.073.13-.128.248-.184.359-.258.36-.775 1.096-.92.627-.251-.81-.597-.763-.517-1.325.048-.334.148-.83.286-1.344a.508.508 0 0 1-.038-.184.54.54 0 0 1 .14-.353c.029-.028.056-.058.091-.09.133-.39.289-.748.462-1.009.165-.248.31-.494.434-.732.047.112.1.23.153.34.08-.044.168-.09.26-.13l-.034-.022c-.02-.018-.02-.045-.033-.068-.023-.012-.05-.015-.068-.035a.539.539 0 0 1-.108-.324c0-.153.068-.303.196-.421-.02-.05-.045-.1-.068-.153a2.66 2.66 0 0 0 .075-.5 2.236 2.236 0 0 1-.366.475.702.702 0 0 1-.258.143l.023.073c-.294.61-.713 1.201-.921 1.617.228-.564.449-1.133.59-1.703a.549.549 0 0 1-.169-.092c-.02-.018-.022-.043-.032-.066-.023-.012-.048-.017-.068-.037a.53.53 0 0 1-.108-.319c0-.155.065-.311.196-.429.195-.178.594-.414.95-.466-.015-.015-.032-.03-.042-.048-.018-.02-.02-.048-.028-.075-.015-.015-.037-.023-.05-.043a.553.553 0 0 1-.053-.233c0-.096.028-.186.078-.266a5.421 5.421 0 0 0-.055-.156.53.53 0 0 1-.148-.1c-.02-.018-.02-.045-.028-.065-.017-.013-.042-.02-.055-.038a.501.501 0 0 1-.025-.469c-.032-.093-.068-.186-.095-.276-.013-.01-.028-.012-.043-.022-.02-.016-.02-.043-.032-.066-.023-.012-.05-.012-.066-.032a.535.535 0 0 1-.02-.648c-.01-.125-.015-.255-.025-.38-.005-.008-.007-.018-.015-.026-.023-.01-.053-.012-.07-.032a.57.57 0 0 1 .017-.788c.01-.013.023-.023.035-.035l-.002-.09a.718.718 0 0 1-.13-.093c-.02-.023-.02-.053-.03-.078-.02-.013-.046-.02-.058-.04a.567.567 0 0 1-.076-.281c0-.166.073-.341.259-.474.017-.013.04-.025.06-.038.008-.123.02-.246.03-.366a.606.606 0 0 1-.12-.106c-.018-.022-.023-.052-.03-.08-.015-.012-.043-.02-.05-.042a.503.503 0 0 1-.056-.236.103.103 0 0 0-.01.03c-.002-.376-.012-.83.133-1.151-.19.075-.378.153-.567.23.068.484.116.969.116 1.503-.236-.472-.314-.943-.374-1.39-.115.05-.226.098-.336.15-.035.402-.078.82-.078 1.24a8.951 8.951 0 0 0-.316-1.059c-.238.116-.48.234-.715.356l.035.076c.008.02.02.045.028.07.078.01.148.028.203.045a.441.441 0 0 1 .311.502c-.002.012-.015.017-.017.025v.005a.162.162 0 0 1-.018.078.422.422 0 0 1-.223.218c.055.035.105.07.143.1a.488.488 0 0 1 .118.637c-.01.018-.035.02-.05.033-.013.023-.013.048-.03.065-.016.015-.033.025-.048.04a.369.369 0 0 1-.008.243c-.002.01-.02.016-.028.028a.126.126 0 0 1-.017.06c-.02.026-.04.043-.063.063.143.09.211.23.211.366 0 .018-.005.038-.008.056.06-.118.113-.239.168-.362.003.03.008.06.01.09.018.146.023.3.028.452.083.005.16.033.22.078a.481.481 0 0 1 .063-.311c.02-.04.05-.085.086-.13a.501.501 0 0 1-.15-.03c-.013-.006-.02-.026-.03-.036-.028-.005-.053-.007-.076-.022a.454.454 0 0 1-.196-.377.52.52 0 0 1 .066-.25c.06-.1.163-.239.288-.362a4.72 4.72 0 0 0 .065-.313l.035-.226c.06-.376.126-.805.166-1.234.04.2.085.406.15.627.053.17.11.339.166.497.043.118.08.235.12.35.02.282.046.568.073.846.09-.017.18.035.21.123.074.21.026.51-.05.74a.174.174 0 0 1 .078.098c.103.298-.027.762-.15.983-.003.008-.008.01-.01.018l-.003.027c-.005.068-.01.143-.01.224-.007.276-.022.63-.153.82a4.028 4.028 0 0 1-.215-.833.448.448 0 0 1-.191-.03c-.015-.008-.02-.025-.033-.033-.025-.005-.052-.01-.075-.025a.45.45 0 0 1-.153-.567.418.418 0 0 1-.296.148c0 .201.01.402.038.6a.953.953 0 0 1 .085-.005c.218 0 .389.145.416.351v.025c0 .01-.007.018-.01.028.003.01.013.02.013.03l-.003.017a.38.38 0 0 1-.15.274c.19.025.334.15.361.343a.077.077 0 0 1 .003.026c0 .012-.01.017-.013.03.003.01.013.02.013.03v.02a.59.59 0 0 1-.04.138.396.396 0 0 1 .22.323c0 .01-.01.02-.01.028 0 .01.013.02.013.033 0 .005-.003.012-.003.02a.46.46 0 0 1-.042.133.4.4 0 0 1 .13.24v.026c0 .012-.01.02-.01.03.003.012.01.02.01.032v.02c-.002.023-.01.045-.017.068.012.05.02.103.025.155.09.063.153.156.168.271a.048.048 0 0 1 .005.026c0 .01-.01.017-.013.03.003.01.013.02.013.027v.023a.391.391 0 0 1-.201.3c-.002.038-.013.074-.018.114a.396.396 0 0 1 .128.258c0 .008-.01.018-.01.028 0 .012.01.02.01.032v.02a.398.398 0 0 1-.255.331c-.04.178-.086.357-.128.535-.046.188-.093.379-.136.564-.03.126-.055.258-.083.399-.093.459-.205.83-.409 1.222-.366-.322-.433-.78-.499-1.315l-.037-.26-.066-.028c-.017-.01-.022-.033-.035-.046-.025-.007-.05-.01-.07-.024a.481.481 0 0 1-.163-.362c0-.103.033-.21.1-.308.018-.023.038-.043.058-.07a11.72 11.72 0 0 0-.07-.284c-.003-.002-.008-.002-.01-.005-.018-.013-.023-.033-.038-.048-.02-.01-.05-.01-.065-.025a.476.476 0 0 1-.153-.348.52.52 0 0 1 .095-.286 2.858 2.858 0 0 1-.042-.201c-.003-.003-.005-.008-.013-.013a.207.207 0 0 1-.085-.027.517.517 0 0 1-.229-.434c0-.093.026-.193.078-.286.023-.043.053-.09.09-.14a5.554 5.554 0 0 1-.037-.347.483.483 0 0 1-.203-.394.57.57 0 0 1 .072-.27.842.842 0 0 1 .073-.11A1.874 1.874 0 0 1 35 9.688c.01-.057.025-.125.047-.198a.455.455 0 0 1-.105-.29c0-.076.015-.151.05-.226a1.76 1.76 0 0 1 .51-.628.648.648 0 0 1-.164-.128.182.182 0 0 1 0-.248.593.593 0 0 1 .083-.073.488.488 0 0 1-.095-.025 1.452 1.452 0 0 1-.399-.24c-.025.521-.115 1.013-.351 1.324a2.624 2.624 0 0 1-.003-.243.498.498 0 0 1-.135.07.438.438 0 0 1 .048.339c-.005.012-.02.015-.025.027a.164.164 0 0 1-.023.078v.002c.105.09.16.214.16.334v.028c-.002.015-.017.02-.017.035 0 .01.005.012.005.02 0 .02-.005.04-.008.057a.445.445 0 0 1-.165.229.462.462 0 0 1 .238.506c-.002.013-.017.02-.02.03v.003a.2.2 0 0 1-.017.085.584.584 0 0 1-.068.1c.022 0 .042.003.063.008.27.05.386.256.386.447v.017c0 .015-.015.023-.018.035.003.008.008.018.008.028a.192.192 0 0 1-.008.053.446.446 0 0 1-.481.316c.09.258.18.517.25.775.158.58.221 1.139.209 1.766a10.23 10.23 0 0 0-.344-.321c-.098-.088-.188-.168-.273-.254-.043-.042-.083-.085-.126-.128a.412.412 0 0 1-.095-.01c-.01 0-.015-.015-.025-.017a.201.201 0 0 1-.085-.02.442.442 0 0 1-.249-.417c-.075-.057-.153-.115-.236-.18a.148.148 0 0 1-.035-.005.433.433 0 0 1-.258-.234 1.542 1.542 0 0 0-.271-.17 1.663 1.663 0 0 1-.13-.07c-.01-.003-.018 0-.028-.003a.46.46 0 0 1-.193-.15 1.065 1.065 0 0 1-.244-.246c-.077-.126-.057-.306-.04-.477.003-.01.003-.017.003-.025a.708.708 0 0 1-.143-.075c-.02-.015-.02-.043-.033-.063-.022-.01-.05-.015-.063-.035a.511.511 0 0 1-.1-.401.42.42 0 0 1-.085.077c.01.204.005.412 0 .61 0 .038 0 .07-.003.108l-.2-.196c-.16-.148-.311-.293-.454-.441a.674.674 0 0 1-.196-.073.186.186 0 0 1-.068-.236 2.604 2.604 0 0 1-.145-.223.19.19 0 0 1-.05-.078l-.13-.233c-.026-.013-.048-.018-.069-.03a.177.177 0 0 1-.072-.221c-.028-.048-.053-.095-.08-.143a.55.55 0 0 1-.186-.07.185.185 0 0 1-.07-.238.602.602 0 0 1 .032-.053.665.665 0 0 1-.24-.08.187.187 0 0 1-.07-.239.51.51 0 0 1 .105-.145 3.46 3.46 0 0 1-.093-.196c-.11.105-.221.208-.329.314.256.426.532.903.8 1.414a10.625 10.625 0 0 1-.552-.436 5.485 5.485 0 0 0-.421-.304c-.1-.07-.2-.138-.294-.205-.14.145-.28.29-.418.439.133.082.28.18.439.296a.483.483 0 0 1 .486.356c0 .005 0 .005.003.01.068.053.138.108.205.163.043-.013.083-.025.12-.033a.536.536 0 0 1 .638.339c.008.02.01.04.01.063 0 .01-.005.017-.008.027.008.018.026.028.028.046 0 .02.003.037.003.055a.51.51 0 0 1-.023.15l.085.073a.492.492 0 0 1 .54.326c.005.02.007.043.007.06 0 .008-.005.015-.007.025.007.015.022.023.025.04v.033c.062.053.123.1.183.15a.524.524 0 0 1 .552.307c.015.025.02.05.02.077 0 .005-.003.01-.005.015.007.015.025.026.027.043a.209.209 0 0 1 .005.055c.108.088.214.178.319.264a.48.48 0 0 1 .409.343c.1.083.2.17.298.256h.005a.517.517 0 0 1 .55.437c.002.01.005.02.005.032a.058.058 0 0 1-.01.023c.045.037.087.082.133.123a.5.5 0 0 1 .41.28.171.171 0 0 1 .016.078v.008c.008.015.02.02.028.035a.179.179 0 0 1 .002.035 12.666 12.666 0 0 1 1.457 1.739c.48.694 1.194 2.167.924 2.493-.086.103-.337.073-.693-.083-.135-.06-.27-.125-.401-.188l-.078-.038c-.903-.737-1.879-1.332-2.947-1.856a.533.533 0 0 1-.219.098c-.025.005-.052-.005-.077-.01-.023.005-.038.02-.063.02a.532.532 0 0 1-.51-.512c-.022-.012-.042-.02-.067-.03a.562.562 0 0 1-.2.093c-.028.005-.053-.003-.08-.01-.023.007-.038.023-.061.023a.528.528 0 0 1-.504-.454c-.066-.03-.138-.053-.203-.078-.038.017-.076.037-.116.045-.025.005-.053-.005-.078-.01-.02.005-.037.022-.057.02a.516.516 0 0 1-.467-.331 19.122 19.122 0 0 0-.532-.188.614.614 0 0 1-.333.07c-.02 0-.033-.02-.05-.03-.033.005-.068.01-.096-.003a.581.581 0 0 1-.363-.707c.025-.106.072-.233.135-.371-.005-.013-.01-.025-.012-.04H28.5c-.02-.003-.035-.023-.052-.03a.165.165 0 0 1-.098-.006.506.506 0 0 1-.12-.062c.002.027.007.052.007.082a.313.313 0 0 1-.007.07c-.003.023-.02.036-.03.056 0 .01.007.017.007.03a.189.189 0 0 1-.013.065.597.597 0 0 1-.05.098c.02.13.033.268.025.409l-.411-.138a.64.64 0 0 1-.306-.013 2.349 2.349 0 0 1-.662-.318c-.39-.133-.78-.264-1.17-.404-.085.14-.162.28-.243.421 1.077.5 2.193.936 3.282 1.357.76.294 1.537.595 2.307.918-.386-.04-.787-.055-1.214-.072l-.135-.005c-.086-.005-.168-.005-.254-.01.003.022.008.045.008.067a.62.62 0 0 1-.133.38c-.018.022-.05.024-.073.037-.01.025-.015.058-.037.075-.015.008-.03.02-.046.028.02.007.046.012.058.027a.516.516 0 0 1 .1.221c.04-.007.078-.01.118-.017.128-.088.254-.159.357-.209.328-.145.612-.04.78.146 2.12.025 3.103.963 4.575 1.881 1.29.808 1.194 1.846 1.019 2.925-.191 1.189-.919 2.247-1.659 3.431h5.767c-1.663-4.535 4.473-9.67 7.84-11.064 3.177-1.315 5.144 1.191 8.212 1.141.965-.02 1.833-.406 2.679-.898.012-.025.01-.03.01-.037z" fill="#000"/><path d="M24.816 16.862a.655.655 0 0 1 .85.236c.02.03.03.065.03.098v.005c.013.02.035.03.045.05.013.037.02.072.025.113.183-.14.397-.244.545-.291a.502.502 0 0 1 .624.266c.015.025.02.05.02.077l-.002.01c.005.013.022.02.025.036l.005.045c.05-.1.105-.186.158-.254a.54.54 0 0 1 .712-.155c.02.012.028.037.038.055.025.008.053.01.073.028a.54.54 0 0 1 .155.278c.07-.105.143-.203.21-.268.018-.018.036-.03.051-.043-.027-.023-.055-.043-.083-.073a2.395 2.395 0 0 1-.366-.527h-.005a.472.472 0 0 1-.542-.015l-.276-.007c-.01.022-.015.045-.032.06a.56.56 0 0 1-.765-.073c-.166-.002-.331-.005-.497-.005a.515.515 0 0 1-.575 0c-.308.003-.617.003-.92.01-.108.246-.213.492-.316.74l.168.03a2.9 2.9 0 0 1 .645-.426zm20.441-14c.058-.173.11-.346.148-.517a3.08 3.08 0 0 1-.065-.273c-.015.002-.028.002-.043.002-.05.208-.12.437-.2.67.054.038.107.075.16.118zm-4.749 3.395l.036.057c.01 0 .02-.002.032 0h.015c-.017-.032-.037-.067-.052-.103a.4.4 0 0 0-.03.046zM44.6 5.4c.067-.143.13-.288.195-.436a.942.942 0 0 1 .013-.208.182.182 0 0 1 .148-.143l.095-.226a.8.8 0 0 1-.083-.048c-.138.362-.283.72-.444 1.071.026-.005.05-.007.076-.01zm-9.665 1.405l.007.15c.038-.004.076-.01.113-.012a1.276 1.276 0 0 1-.12-.138zm2.912-2.448a.677.677 0 0 1 .095-.05l.045-.326a.446.446 0 0 1-.03-.16c0-.063.013-.128.038-.189-.058.02-.118.043-.178.066-.01.263-.038.489-.136.81a.746.746 0 0 1 .166-.15zm-2.943 1.881c0 .01.003.018.003.025a.936.936 0 0 1 .005.094c.008-.003.01-.008.018-.013l.038-.008c-.026-.03-.043-.063-.064-.098zm4.102-2.177c-.025-.022-.045-.045-.068-.067a.891.891 0 0 0-.043.06c.036 0 .07.002.11.007zm.767.859a.944.944 0 0 1-.07.142c.068.083.128.168.193.256.056.025.096.08.103.146.01.007.015.02.023.03a1.5 1.5 0 0 1 .14-.075 14.28 14.28 0 0 0-.389-.5zm-13.277 8.911c.156.309.677.615 1.019.705.26.07.449-.063.519-.24l-1.119-.302a.056.056 0 0 1-.038-.067.054.054 0 0 1 .066-.038l1.113.3c.025-.182-.072-.383-.328-.453-.339-.095-.943-.09-1.232.095zm9.713-1.246c.123.138.439.225.632.225.148.003.226-.095.236-.198l-.625-.002c-.017 0-.027-.015-.027-.03 0-.018.015-.028.03-.03l.622.002c-.013-.1-.09-.19-.233-.193-.194.002-.512.088-.635.226zm.093-.75c.123.138.439.225.63.225a.221.221 0 0 0 .238-.2h-.627c-.015 0-.028-.015-.028-.03s.015-.03.03-.03l.625.002c-.015-.1-.093-.188-.234-.193-.198.002-.511.085-.634.226zm-.181-.6c.123.138.44.226.63.226.148.002.226-.095.238-.198l-.627-.003a.03.03 0 0 1-.03-.03.03.03 0 0 1 .03-.03h.627c-.015-.098-.093-.188-.236-.19-.193.002-.509.087-.632.225zm-.091-.478c.124.135.44.223.633.225.145 0 .223-.093.236-.195l-.625-.006a.028.028 0 0 1-.028-.027c0-.02.016-.033.028-.033l.625.003c-.013-.1-.09-.19-.233-.19-.196 0-.512.084-.635.223zm-.18-.543c.126.138.44.226.632.228.146 0 .226-.095.236-.198l-.627-.002c-.015 0-.03-.016-.03-.028a.03.03 0 0 1 .03-.03l.625.002c-.016-.1-.09-.19-.236-.19-.188-.003-.504.082-.63.218zm-.21-.72c.125.138.438.226.63.228.147 0 .227-.092.237-.198l-.624-.005c-.015 0-.028-.012-.028-.025 0-.017.013-.03.028-.03l.624.003c-.012-.098-.09-.191-.235-.194-.191 0-.505.083-.633.221zm-.15-1.407c.124.138.438.226.631.228.146 0 .226-.095.238-.198l-.627-.002a.03.03 0 0 1-.03-.03c0-.016.013-.028.03-.028h.625c-.013-.098-.09-.19-.236-.19-.193-.003-.507.082-.632.22zm-6.27 5.523c-.288.156-.57.666-.647.997-.06.253.073.429.246.491l.258-1.078c.008-.03.035-.048.063-.04.028.007.045.037.038.062l-.259 1.079c.178.015.37-.083.427-.329.08-.33.063-.91-.126-1.181zm19.576-1.264c.02-.266-.213-.682-.406-.878-.148-.15-.326-.135-.442-.042l.63.647c.017.02.017.043 0 .06-.015.018-.043.018-.06 0l-.63-.645c-.09.113-.105.289.038.437.195.195.604.436.87.421zm5.551.585c-.08-.283-.471-.624-.745-.757-.208-.1-.386-.018-.474.123l.893.431c.026.013.035.04.02.065-.012.023-.037.03-.062.02l-.89-.434c-.048.153.002.337.203.437.275.13.785.223 1.055.115zm5.351 3.013c-.14-.254-.59-.492-.875-.562-.221-.053-.377.068-.43.218l.946.22c.025.006.043.03.038.053a.046.046 0 0 1-.055.036l-.946-.221c-.012.155.075.32.288.373.289.066.796.048 1.034-.117zm.84-.558c-.057-.336-.461-.778-.76-.968-.228-.146-.444-.073-.564.075l.973.617c.023.015.03.05.015.078-.015.022-.05.03-.073.012l-.97-.614c-.076.168-.043.388.178.526.298.191.873.364 1.201.274zm.906-.381c.05-.265-.13-.714-.301-.94-.13-.173-.314-.176-.442-.098l.557.732c.015.018.013.048-.007.06-.02.016-.045.013-.063-.007l-.557-.732c-.105.105-.14.278-.013.446.171.226.552.52.826.54zm2.049 1.267c.053-.268-.128-.712-.3-.938-.129-.17-.314-.178-.445-.098l.56.733c.015.02.012.045-.008.058a.046.046 0 0 1-.063-.006l-.556-.732c-.103.108-.143.279-.015.447.175.223.556.514.827.536zm1.014.659c.13-.21.127-.652.057-.898-.055-.188-.205-.256-.346-.23l.23.807c.006.02-.004.043-.027.048a.037.037 0 0 1-.047-.025l-.231-.805c-.123.055-.21.19-.16.37.072.247.298.623.524.733zM62.55 15.32c.113-.277.018-.797-.118-1.075-.103-.213-.299-.261-.457-.203l.442.91a.05.05 0 0 1-.025.065c-.025.013-.05.003-.063-.022l-.439-.906c-.135.09-.21.266-.11.474.135.276.481.675.77.758zm1.49.328c.055-.281-.13-.75-.311-.99-.138-.181-.329-.189-.47-.109l.585.775c.013.023.01.05-.01.063a.045.045 0 0 1-.065-.01l-.58-.77c-.11.11-.15.291-.02.47.184.235.585.546.871.571zm4.756 2.462c.05-.253-.118-.674-.279-.89-.123-.163-.298-.168-.421-.095l.527.695c.012.02.01.045-.008.06-.02.012-.042.01-.057-.01l-.525-.695c-.097.098-.135.261-.015.421.16.214.522.492.778.515zm-3.472-1.758c.11-.266.023-.77-.105-1.041-.098-.209-.289-.256-.44-.2l.417.88c.013.025.003.05-.02.062-.022.01-.05 0-.06-.022l-.416-.883a.348.348 0 0 0-.113.459c.128.273.459.66.737.745zm1.327.478c.073-.292-.095-.791-.268-1.047-.133-.198-.334-.215-.48-.14l.563.84c.015.02.01.053-.015.065a.049.049 0 0 1-.066-.015l-.562-.835c-.12.108-.17.296-.045.484.176.26.577.607.873.647zm-4.457-1.17c.045-.174-.06-.472-.16-.625-.078-.118-.196-.13-.284-.083l.333.5c.008.012.006.032-.007.037a.028.028 0 0 1-.04-.008l-.336-.496c-.073.065-.103.176-.025.288.102.156.34.359.519.387zm5.396 1.864c.258-.238.41-.84.403-1.204-.002-.279-.188-.424-.386-.442l.023 1.187c0 .03-.025.058-.056.058a.056.056 0 0 1-.057-.056l-.023-1.184c-.188.03-.356.184-.351.454.007.362.183.956.446 1.187zm1.424.055c.153-.246.148-.753.068-1.036-.06-.221-.24-.299-.399-.269l.266.936a.043.043 0 0 1-.033.055.047.047 0 0 1-.057-.03l-.266-.933c-.143.065-.244.22-.186.434.085.283.349.717.607.843zM54.97 12.662c.105-.316-.043-.883-.211-1.176-.13-.229-.351-.266-.522-.191l.554.97c.016.026.005.056-.02.07-.025.016-.057.006-.072-.02l-.552-.965c-.143.11-.216.311-.088.532.17.298.584.712.91.78zm.865-.699c.095-.327-.08-.898-.266-1.194-.143-.229-.369-.256-.54-.174l.61.969c.018.022.008.057-.015.075a.056.056 0 0 1-.075-.018l-.61-.965c-.138.117-.203.328-.065.546.188.299.627.703.96.76zm1.252-.7c-.02-.314-.347-.763-.603-.963-.195-.156-.398-.113-.524.015l.83.662a.046.046 0 0 1 .008.068c-.015.022-.048.025-.07.005l-.828-.658c-.088.148-.078.352.11.502.256.203.766.419 1.077.369zm.991-.283c.02-.342-.279-.864-.527-1.112-.188-.193-.417-.168-.565-.05l.813.815c.02.02.02.055 0 .075-.02.02-.055.02-.078 0l-.812-.812c-.108.148-.126.368.06.554.246.248.767.547 1.108.53zm.9-.467c.09-.323-.083-.888-.268-1.176-.143-.226-.367-.25-.532-.168l.607.953c.015.023.005.058-.018.073a.055.055 0 0 1-.072-.018l-.605-.953c-.14.12-.203.329-.068.544.186.291.625.69.956.745zm1.508-.816c-.09-.346-.555-.768-.883-.936-.251-.128-.467-.032-.575.133l1.066.55c.03.015.04.047.028.075-.015.025-.05.038-.075.025l-1.07-.547c-.06.183-.007.407.237.532.323.166.94.293 1.272.168zm.772-.24c.098-.311-.055-.863-.226-1.151-.13-.221-.346-.254-.511-.176l.56.94a.05.05 0 0 1-.019.07c-.022.016-.052.008-.07-.017l-.56-.94c-.137.113-.205.31-.074.524.168.288.582.685.9.75zm1.31-.487c.07-.31-.123-.838-.314-1.103-.146-.206-.359-.219-.512-.13l.62.87a.05.05 0 0 1-.01.07c-.023.017-.055.012-.068-.013l-.622-.87c-.126.12-.176.32-.033.52.189.265.625.621.939.656zM49.89 11.651c-.083-.246-.437-.53-.685-.634-.188-.08-.341-.003-.409.123l.8.346c.02.01.03.032.02.052-.007.023-.032.03-.052.023l-.8-.346c-.036.135.012.293.193.376.248.103.697.168.933.06zm.99-.453c-.072-.274-.438-.607-.697-.74-.195-.1-.368-.028-.456.102l.843.434c.02.013.03.04.017.06-.01.02-.037.03-.06.02l-.84-.433c-.05.145-.008.32.185.421.259.13.745.233 1.009.136zm.939-.391c-.003-.279-.271-.692-.487-.883-.168-.146-.35-.115-.464-.01l.705.625a.04.04 0 0 1 .003.06.039.039 0 0 1-.06.002l-.706-.622c-.082.126-.085.306.073.45.218.195.66.41.936.378zm1.086-.656c-.078-.253-.429-.556-.677-.672-.188-.09-.349-.015-.427.11l.806.382c.02.01.032.037.02.057-.01.02-.035.03-.056.02l-.805-.38c-.042.14.005.303.188.388.246.116.708.198.951.095zm1.109-.376c-.025-.289-.341-.69-.58-.868-.183-.136-.371-.09-.479.027l.783.582c.02.015.022.046.007.066a.05.05 0 0 1-.065.01l-.775-.577c-.075.135-.065.323.113.454.24.178.712.361.996.306zm.923-.541c-.008-.236-.241-.577-.427-.735-.143-.118-.296-.093-.391 0l.602.511a.034.034 0 0 1 .005.05.039.039 0 0 1-.053.006l-.602-.512c-.067.108-.065.26.07.379.186.155.563.333.796.3zm1.099-.444c.025-.272-.196-.698-.387-.909-.145-.155-.326-.148-.449-.055l.622.677c.018.015.015.046-.002.06-.02.018-.045.016-.06-.004l-.62-.675c-.095.115-.115.29.025.444.19.21.597.466.87.461zm1.201-.346c.008-.266-.236-.67-.436-.858-.15-.143-.332-.123-.444-.025l.652.62a.043.043 0 0 1 .002.06.041.041 0 0 1-.06 0l-.652-.617c-.085.118-.095.288.055.429.206.19.62.411.883.391zm1.289-.395c-.087-.263-.466-.564-.73-.68-.198-.085-.363 0-.436.136l.85.366c.023.01.033.035.023.058a.04.04 0 0 1-.055.022l-.853-.369c-.038.146.015.314.21.397.262.115.743.185.992.07zm1.172-.321c-.09-.23-.44-.484-.68-.58a.301.301 0 0 0-.389.138l.78.296c.02.008.03.03.023.05-.008.02-.03.028-.05.02l-.778-.295c-.03.133.025.28.2.35.242.091.673.134.894.02zm-15.56.402c-.311-.124-.893-.006-1.201.147-.239.118-.289.336-.224.512l1.014-.507c.025-.01.057 0 .07.025.013.025 0 .058-.023.073l-1.01.504c.102.15.303.236.534.12.31-.155.75-.549.84-.875zm2.403 1.706c-.226-.153-.707-.168-.98-.103-.209.053-.29.216-.27.366l.894-.216a.042.042 0 0 1 .053.033c.007.023-.01.045-.03.05l-.893.218c.055.138.198.241.403.191.269-.068.693-.301.823-.54zm.745-1.671c-.22-.22-.76-.333-1.084-.318-.245.015-.37.183-.378.358l1.05-.06c.03 0 .053.02.053.048a.048.048 0 0 1-.045.05L45.83 8.3c.032.168.173.313.414.3.326-.014.847-.19 1.043-.436zm1.034-.663c-.173-.185-.605-.293-.866-.286-.198.005-.303.136-.313.276l.85-.017c.023 0 .043.017.043.04 0 .022-.018.04-.038.04l-.853.017c.023.136.133.259.329.256.258-.007.685-.135.848-.326zm2.726.138c-.135-.226-.554-.429-.822-.481-.204-.04-.341.072-.384.215l.875.166c.025.005.038.025.033.05a.042.042 0 0 1-.05.033l-.87-.166c-.008.143.077.291.275.329.269.05.735.015.943-.146zm-1.771-.238c-.005-.308-.31-.757-.552-.963-.183-.158-.388-.123-.514-.002l.79.672c.018.017.02.05.005.07a.05.05 0 0 1-.07.005l-.787-.675c-.09.143-.088.341.09.494.246.209.737.437 1.038.4zm1.49-.64c-.13-.291-.604-.602-.918-.703-.238-.077-.419.038-.491.204l1.028.328c.025.01.038.038.03.063-.01.025-.038.043-.065.033l-1.026-.329c-.028.17.05.361.286.436.316.106.88.13 1.156-.032zm4.601-2.638c-.133-.294-.605-.602-.918-.703-.241-.075-.422.038-.494.203l1.028.332a.051.051 0 0 1 .033.065.05.05 0 0 1-.063.032l-1.029-.328c-.027.17.053.358.289.436.313.098.875.123 1.154-.037z" fill="#000"/><path d="M51.871 7.48c.018-.304-.243-.77-.464-.994-.17-.173-.373-.153-.506-.048l.722.73c.018.02.018.05-.002.068-.018.02-.05.018-.068 0l-.72-.728c-.1.13-.113.327.05.495.218.22.685.489.988.476zm1.42-.632c-.027-.261-.313-.615-.531-.77-.168-.12-.334-.076-.432.032l.71.51c.018.014.023.04.01.057a.038.038 0 0 1-.055.01l-.71-.512c-.068.126-.05.294.11.412.216.153.645.313.898.26zm-3.424 1.701c-.015-.274-.306-.663-.531-.836-.171-.135-.352-.095-.457.015l.73.57c.017.017.023.042.008.062-.016.018-.043.023-.06.008l-.73-.57c-.076.128-.068.31.1.437.225.173.672.361.94.314zm9.146 2.488c-.015-.246-.276-.59-.474-.75-.153-.12-.314-.085-.409.015l.652.512c.018.013.02.035.008.053-.013.017-.035.02-.053.007l-.65-.511c-.065.115-.062.273.09.39.194.161.593.327.836.284zm-1.833 1.31c-.018-.246-.277-.595-.477-.75-.15-.12-.314-.085-.41.015l.65.512c.02.012.023.037.01.055-.012.02-.037.02-.055.007l-.65-.509c-.067.116-.06.274.091.391.2.156.6.322.84.279zm-1.2.724c.088-.233-.007-.655-.128-.878-.09-.173-.25-.205-.376-.15l.384.73c.012.02.002.042-.015.055-.02.007-.04 0-.053-.018l-.386-.732c-.108.078-.166.226-.08.391.12.226.416.542.654.602zm-8.187-3.264c-.015-.29-.311-.705-.544-.893-.176-.145-.367-.11-.485.005l.76.62c.02.015.023.045.008.063-.015.022-.043.025-.063.007l-.76-.617c-.08.135-.073.324.098.464.23.188.697.396.986.351z" fill="#000"/><path d="M51.643 6.497c.005-.299-.27-.74-.491-.95-.174-.161-.37-.134-.495-.026l.73.68c.02.018.02.048.005.068-.02.02-.05.02-.065.002l-.732-.68c-.09.133-.098.324.065.48.226.208.687.454.983.426zm1.31-.525c-.043-.316-.414-.747-.69-.933-.208-.143-.417-.08-.532.058l.898.607c.023.018.03.048.015.073a.054.054 0 0 1-.073.012l-.895-.61c-.078.159-.053.367.153.505.273.186.813.369 1.124.288zm.73-.358c.017-.301-.244-.758-.462-.978-.165-.171-.364-.151-.496-.046l.712.715c.02.02.02.05 0 .07a.05.05 0 0 1-.068 0l-.712-.717c-.096.13-.113.324.05.487.218.22.675.484.976.469zm1.101-.479c.017-.319-.264-.808-.497-1.039-.178-.18-.391-.158-.53-.045l.764.76c.02.02.02.05 0 .07a.054.054 0 0 1-.073.003l-.76-.76c-.103.138-.12.346.055.519.233.23.72.51 1.04.492zm-9.876 1.257c-.188.308-.168.935-.06 1.289.078.27.301.361.497.324l-.352-1.154a.058.058 0 0 1 .038-.07c.033-.01.06.007.07.037l.352 1.151c.175-.082.298-.278.22-.539-.105-.354-.444-.885-.765-1.038zm.081-1.599c-.066.356.173.95.403 1.25.173.23.417.237.59.13l-.743-.974a.06.06 0 0 1 .013-.082c.025-.018.063-.013.08.012l.743.97c.135-.14.188-.37.02-.591-.233-.296-.743-.685-1.106-.715zm-.344-2.062c-.108.342.055.954.24 1.275.144.243.382.283.562.2L44.84 3.16a.051.051 0 0 1 .02-.075.055.055 0 0 1 .078.02l.61 1.044c.153-.12.228-.341.09-.58-.19-.32-.645-.765-.993-.838zm.878-1.276c-.11.34.055.953.24 1.271.144.246.382.284.562.201l-.612-1.048c-.017-.026-.005-.06.02-.076.03-.015.066-.007.078.02l.61 1.041c.153-.12.228-.338.09-.577-.186-.32-.637-.762-.988-.832zm1.121.398c-.11.341.055.95.24 1.272.144.243.382.28.565.2l-.612-1.043a.059.059 0 0 1 .02-.078c.025-.015.06-.005.078.02l.61 1.044c.152-.12.228-.341.09-.58-.188-.323-.642-.762-.991-.835z" fill="#000"/><path d="M45.794 3.981c-.153.278-.113.833-.003 1.144.083.236.281.308.454.268l-.359-1.008a.053.053 0 0 1 .03-.063c.028-.01.056.005.066.033l.353 1.003c.153-.078.256-.258.176-.49-.108-.305-.424-.764-.718-.887zm.281-.961c-.08.327.112.878.308 1.164.148.219.369.239.532.148l-.632-.928c-.018-.025-.013-.057.012-.072.025-.015.058-.01.073.015l.635.925c.133-.123.188-.33.042-.54-.193-.288-.642-.669-.97-.711zm-1.972 3.919c-.336-.128-.95 0-1.282.168-.253.128-.303.364-.233.55l1.076-.55a.058.058 0 0 1 .075.025.055.055 0 0 1-.025.075l-1.073.547c.11.16.326.246.569.123.334-.166.8-.592.893-.938zm-.216-1.478c-.316-.135-.918-.035-1.242.12-.248.113-.306.34-.243.525l1.059-.494c.025-.013.06 0 .072.027.015.03.003.06-.025.073l-1.056.492c.1.158.306.25.547.137.324-.155.79-.549.888-.88zm-.366-1.207c-.276-.037-.725.173-.946.367-.165.145-.163.333-.072.459l.717-.617a.044.044 0 0 1 .063.005.042.042 0 0 1-.005.062l-.715.617c.113.1.293.126.456-.012.224-.188.5-.6.502-.88zm.929-1.542c-.347 0-.864.329-1.107.597-.186.2-.15.434-.02.577l.787-.87a.06.06 0 0 1 .078-.006.06.06 0 0 1 .003.08l-.785.869c.155.105.38.11.562-.086.24-.266.519-.815.481-1.161zm.275 1.376c-.28-.013-.712.238-.918.449-.158.16-.136.349-.035.471l.667-.684a.044.044 0 0 1 .063 0c.02.017.02.045.002.065l-.67.68c.126.092.309.103.46-.053.208-.208.451-.645.431-.928zm.404 1.536c-.329-.126-.938 0-1.262.168-.246.125-.298.356-.23.542l1.06-.542c.025-.015.06-.003.076.025a.058.058 0 0 1-.025.075l-1.056.54a.42.42 0 0 0 .561.117c.327-.163.786-.584.876-.925zm-2.032-2.266c-.276-.022-.71.206-.918.404-.158.148-.146.339-.053.462l.683-.642a.041.041 0 0 1 .06 0 .04.04 0 0 1 0 .06l-.682.645c.12.092.298.112.454-.033.205-.2.464-.62.456-.896zm-.12-1c-.276-.023-.71.208-.918.404-.16.15-.148.336-.055.461l.684-.644a.04.04 0 0 1 .06.002c.018.018.018.045-.002.06l-.68.643c.12.095.296.112.452-.036.213-.193.469-.614.459-.89zM38.243 14.23c-.26 0-.642.248-.823.448-.135.153-.107.327-.01.434l.58-.654c.017-.015.045-.02.063-.005.017.017.017.042.002.057l-.58.655c.116.078.284.08.417-.068.178-.2.381-.61.351-.867zm1.56-6.75c-.258.002-.642.25-.822.451-.136.156-.11.327-.013.434l.582-.654a.038.038 0 0 1 .058-.003c.017.015.02.04.002.058l-.582.652c.116.078.289.08.417-.068.183-.2.389-.612.358-.87zm.751-1.977c-.261 0-.643.248-.823.451-.138.153-.11.327-.015.432l.584-.655c.018-.017.04-.017.058-.002.02.015.02.04.002.057l-.579.655c.118.08.283.08.419-.068.18-.203.381-.612.354-.87zm-1.403 7.524c-.253-.025-.65.176-.845.354-.148.135-.14.306-.058.419l.635-.575c.017-.015.04-.012.058.003.015.017.012.04-.003.057l-.632.575c.103.085.268.105.414-.025.193-.178.434-.555.431-.808zm.619-1.255c-.303-.03-.774.215-1.007.428-.176.161-.166.364-.066.502l.753-.692a.05.05 0 0 1 .068.002c.02.02.017.053-.003.068l-.752.69c.125.105.32.125.494-.03.233-.21.519-.665.514-.968zm-1.105-.992c-.304-.027-.778.22-1.011.43-.176.16-.163.364-.063.5l.755-.69a.048.048 0 0 1 .068.002c.017.017.017.05-.005.065l-.753.692c.128.106.324.128.497-.027.23-.213.514-.668.512-.971zm1.154.104c-.254-.015-.638.2-.82.384-.144.14-.129.306-.04.416l.601-.594a.04.04 0 0 1 .055 0c.018.017.018.042 0 .057l-.6.592c.109.083.272.098.407-.037.183-.186.407-.567.397-.818zm0-5.398c-.254-.018-.638.2-.82.381-.144.14-.129.306-.04.417l.601-.592a.04.04 0 0 1 .055 0c.018.015.018.04 0 .057l-.6.592c.109.083.272.098.407-.04.183-.183.407-.564.397-.815zm.298-1.982c-.25-.013-.635.2-.82.384-.14.14-.126.306-.038.416l.605-.592a.036.036 0 0 1 .055 0c.015.013.015.04 0 .055l-.602.595c.108.08.27.095.409-.04.18-.183.404-.562.391-.818zm-1.048-.298c-.251-.017-.635.2-.82.381-.144.138-.126.306-.04.417l.601-.595c.018-.017.043-.015.055 0a.04.04 0 0 1 0 .055l-.602.592c.108.086.271.098.407-.037.188-.18.411-.56.398-.813zm.669 6.466c-.286-.085-.79.063-1.05.22-.204.124-.232.322-.159.47l.855-.524a.048.048 0 0 1 .066.015.049.049 0 0 1-.015.067l-.856.522c.103.126.286.183.482.065.26-.16.622-.544.677-.835zm-.466-.915c-.266-.05-.7.128-.921.294-.168.128-.176.306-.098.436l.72-.547c.018-.015.043-.01.06.008.013.017.01.045-.007.057l-.718.547c.103.103.276.138.437.013.218-.166.504-.542.527-.808zm.386-4.109c-.26-.048-.697.128-.918.296-.168.128-.176.309-.098.434l.72-.55a.037.037 0 0 1 .055.01c.015.018.013.046-.007.058l-.715.547c.105.103.27.138.436.013.22-.166.51-.542.527-.808zm.213 1.979c-.266-.048-.7.128-.92.293-.168.13-.176.309-.098.437l.717-.547c.02-.015.043-.01.058.01.017.017.01.045-.008.057l-.714.547c.102.103.273.138.436.013.218-.17.51-.545.53-.81z" fill="#000"/><path d="M38.988 7.658c-.293-.017-.747.238-.963.454-.166.166-.148.361-.045.492l.707-.703a.048.048 0 0 1 .068.003c.017.017.017.05 0 .065l-.707.697c.125.098.316.113.479-.045.215-.218.474-.667.461-.963zm-.102-1.249c-.324 0-.803.308-1.027.56-.17.187-.137.403-.017.538l.73-.815c.02-.02.05-.022.073-.002.022.02.022.052.005.072l-.73.81c.148.098.356.103.521-.082.226-.251.482-.76.444-1.081zm.047-.827c-.31-.07-.835.125-1.104.316-.205.148-.218.36-.13.514l.873-.625c.022-.015.053-.012.068.013a.047.047 0 0 1-.013.07l-.868.622c.118.125.319.173.517.033.27-.191.624-.627.657-.943zm.161-1.318c-.314-.092-.863.073-1.147.254-.218.135-.246.351-.165.517l.928-.582c.025-.015.057-.01.072.017a.05.05 0 0 1-.017.07l-.926.582c.113.136.314.196.527.066.281-.184.67-.605.728-.924zm-2.704 8.651c-.256.03-.603.314-.753.527-.115.166-.073.329.035.422l.494-.7c.015-.018.04-.023.058-.01.02.012.023.037.01.055l-.497.7c.123.063.289.047.402-.113.153-.208.306-.632.25-.88zm-.176-1.058c-.248.02-.595.289-.75.495-.12.158-.08.32.02.413l.504-.67a.04.04 0 0 1 .055-.007c.015.013.02.038.008.055l-.504.67c.12.063.278.053.394-.098.16-.203.32-.612.273-.858zm-.254-1.167c-.288.068-.644.44-.792.705-.11.201-.038.384.098.477l.474-.868c.012-.02.04-.03.06-.018.023.013.033.04.02.063l-.474.863c.148.055.336.018.441-.18.148-.261.269-.763.174-1.042zm14.366.585c-.208.206-.313.712-.293 1.013.012.234.173.349.336.357l-.06-.989a.05.05 0 0 1 .045-.048.044.044 0 0 1 .048.043l.062.986c.156-.033.291-.166.276-.391-.02-.299-.185-.79-.414-.971zM63.41 12.29c-.28.043-.654.404-.812.675a.41.41 0 0 0 .057.527l.522-.883a.043.043 0 0 1 .063-.015c.02.015.025.048.015.07l-.522.883c.143.075.324.05.442-.15.155-.269.308-.798.235-1.107zm.996.621c-.226.023-.54.299-.677.51-.108.162-.07.328.025.423l.456-.69c.013-.017.033-.022.05-.01.018.015.02.04.01.056l-.453.69c.11.067.258.055.36-.1.134-.21.277-.628.23-.879zm.74-.351c-.198.02-.474.26-.594.446-.09.143-.06.285.022.373l.397-.602c.01-.015.032-.02.042-.005.015.01.018.035.008.048l-.397.602c.096.06.226.048.317-.088.122-.188.245-.554.205-.775zm-7.839-6.061c-.042-.163-.283-.362-.454-.437a.242.242 0 0 0-.306.07l.557.251c.015.008.02.023.013.035-.01.013-.025.02-.043.013l-.557-.25c-.035.087-.01.192.116.25.175.078.496.133.674.068zm.698-.266c-.043-.165-.281-.36-.454-.438-.133-.058-.249-.01-.309.07l.557.25c.013.008.02.023.013.036-.008.015-.026.02-.043.012l-.554-.248c-.036.088-.013.193.115.25.17.073.497.131.675.068zm.582-.338c-.043-.163-.281-.362-.452-.44-.133-.057-.248-.01-.308.07l.559.252c.015.005.017.022.012.035-.007.012-.027.02-.04.01l-.556-.251c-.036.088-.01.196.117.253.166.078.49.133.668.07zm3.469 3.81c-.178.088-.344.414-.392.632-.032.166.053.286.159.334l.148-.705c.002-.018.022-.028.037-.023.02.005.03.025.025.043l-.145.705c.108.02.223-.038.258-.198.045-.216.025-.6-.09-.788zm.985-.181c-.178.09-.346.417-.393.633-.033.165.05.29.16.336l.148-.705c.003-.018.023-.03.038-.023.017.005.028.023.025.043l-.148.702c.11.02.226-.037.26-.198.046-.213.028-.6-.09-.788zm.851-.336c-.176.09-.344.414-.386.632-.035.163.047.289.155.336l.148-.705c.003-.02.02-.03.04-.025a.041.041 0 0 1 .025.043l-.148.705c.11.02.224-.038.259-.2.045-.212.025-.6-.093-.786zm4.269 5.358c-.183-.077-.539.008-.735.11a.292.292 0 0 0-.155.34l.632-.344c.017-.013.037-.005.045.012.008.018-.002.04-.017.048l-.633.344c.056.095.174.148.319.067.196-.1.477-.364.544-.577zm-2.598-1.103c-.234-.058-.645.108-.856.27-.165.126-.183.304-.123.435l.695-.53a.033.033 0 0 1 .053.01c.012.02.01.046-.01.06l-.693.53c.086.105.236.146.394.025.209-.165.5-.532.54-.8zm1.028.504c-.246-.092-.712.036-.963.184a.386.386 0 0 0-.193.454l.822-.482c.02-.015.048-.008.056.018.01.02.002.047-.02.06l-.82.481c.08.126.238.188.426.078.25-.145.614-.507.692-.793zm.82.251c-.255-.025-.664.208-.868.411a.38.38 0 0 0-.067.477l.66-.66c.02-.018.042-.018.057.002.018.018.013.048-.005.066l-.657.657c.108.098.27.12.421-.03.204-.203.454-.635.46-.923zm1.212.825c-.226-.07-.627.07-.84.216a.337.337 0 0 0-.141.409l.695-.474c.017-.01.04-.003.05.012.01.02.003.045-.015.058l-.695.471c.075.106.218.15.376.043.219-.143.517-.482.57-.735zm-2.019-1.883c-.221-.068-.625.07-.838.215a.336.336 0 0 0-.143.409l.697-.47a.033.033 0 0 1 .05.013c.01.02.003.045-.015.058l-.695.47c.076.104.219.15.377.044.215-.148.514-.486.567-.74zm-7.16-1.633c-.183.196-.248.677-.208.97.028.224.19.342.349.354l-.128-.953a.04.04 0 0 1 .038-.048c.022 0 .045.02.047.046l.128.953c.148-.025.269-.146.241-.364-.038-.293-.233-.775-.467-.958zm1.27-.63c-.271.155-.51.674-.567 1.018a.456.456 0 0 0 .27.517l.184-1.114c.002-.028.033-.045.06-.038.028.008.045.038.04.068l-.18 1.111c.173.023.35-.072.391-.326.055-.346 0-.948-.198-1.236zm.71-.347c-.188.17-.284.627-.269.908a.37.37 0 0 0 .309.361l-.055-.917c0-.02.015-.04.04-.04.02 0 .043.02.045.044l.055.916c.14-.015.264-.123.254-.331-.018-.278-.171-.75-.38-.94z" fill="#000"/><path d="M62.718 10.355c-.27.028-.64.36-.805.61a.397.397 0 0 0 .032.504l.532-.82c.015-.023.043-.025.06-.01.02.018.023.045.01.068l-.531.82c.13.078.303.063.426-.123.166-.253.331-.75.276-1.049zm.68-.259c-.259.082-.55.481-.657.762a.392.392 0 0 0 .138.484l.35-.913a.036.036 0 0 1 .053-.02c.023.01.036.04.026.063l-.35.91c.144.05.312 0 .392-.208.106-.278.163-.802.048-1.078zm.963-.022c-.226.005-.557.253-.712.454a.329.329 0 0 0-.008.421l.504-.647a.036.036 0 0 1 .05-.005c.016.018.016.043.003.058l-.502.647c.103.073.251.078.364-.073.153-.198.329-.602.301-.855zm.477-.176c-.19.161-.309.6-.304.876.003.21.14.336.286.364l-.012-.896c0-.025.015-.04.04-.038.02 0 .04.023.042.046l.01.895c.138-.01.264-.108.264-.31-.003-.274-.13-.74-.326-.937zM30.204 14.2c-.206.208-.314.713-.294 1.016.015.233.173.349.336.356l-.06-.988a.048.048 0 0 1 .045-.05.044.044 0 0 1 .048.042l.063.986c.155-.03.29-.163.276-.388-.02-.301-.186-.793-.414-.974zm.958.48c-.203.207-.311.714-.294 1.015.016.23.174.346.34.354l-.061-.989a.044.044 0 0 1 .045-.047c.025-.003.048.017.048.04l.06.986c.155-.033.29-.163.278-.389-.017-.299-.185-.788-.416-.97zm.921.435c-.206.208-.314.713-.294 1.016.013.233.17.346.334.354l-.055-.989c0-.025.02-.045.042-.047.025 0 .048.017.048.043l.06.985c.155-.03.293-.163.278-.389-.02-.3-.185-.79-.413-.973zM51.2 10.838c-.206.206-.314.712-.294 1.013.015.234.173.346.338.356l-.062-.988c0-.025.02-.047.045-.047a.044.044 0 0 1 .048.042l.06.986c.158-.033.29-.163.278-.389-.017-.303-.185-.793-.414-.973zm1.22-.698c-.205.207-.31.712-.293 1.015.015.233.171.346.337.354l-.06-.986c-.003-.025.017-.05.042-.05a.042.042 0 0 1 .048.042l.06.984a.346.346 0 0 0 .276-.387c-.013-.3-.18-.787-.41-.973zm.92-.568c-.21.208-.315.715-.294 1.016.015.23.17.346.336.353l-.06-.985a.047.047 0 0 1 .042-.05c.025-.003.048.02.05.045l.058.985c.155-.032.291-.165.278-.388-.017-.304-.183-.793-.41-.976zm.696-.743c-.205.208-.31.712-.293 1.016.015.233.173.346.336.356l-.06-.986c-.003-.025.017-.048.045-.05a.043.043 0 0 1 .048.042l.06.984c.155-.03.293-.16.278-.39-.017-.298-.183-.79-.414-.972zm1.092-.391c-.206.209-.314.713-.294 1.019.015.23.173.346.336.354l-.06-.989c-.002-.025.018-.047.045-.05.025-.002.045.02.048.045l.06.984c.156-.03.294-.163.276-.387-.018-.303-.183-.795-.411-.976zm.697-.436c-.206.209-.311.715-.294 1.019.016.23.171.346.337.351l-.058-.986c-.003-.027.017-.05.042-.05a.045.045 0 0 1 .05.045l.06.984c.159-.033.292-.166.28-.39-.02-.3-.186-.792-.417-.973zm1.267-.612c-.206.208-.311.713-.294 1.014.015.233.173.346.336.353l-.06-.986a.044.044 0 0 1 .045-.047c.023-.003.045.017.048.042l.06.984c.156-.03.291-.163.276-.387-.015-.3-.183-.79-.411-.973zM35.803 9.62c-.259.057-.58.39-.713.627-.1.183-.038.346.083.429l.429-.775c.01-.02.037-.028.058-.018.02.01.027.038.017.058l-.429.772c.136.05.299.015.399-.163.13-.233.24-.682.156-.93zm1.462-1.799c-.228.053-.517.349-.635.56-.09.163-.03.308.075.383l.382-.69a.038.038 0 0 1 .05-.017c.02.01.025.033.015.05l-.381.69c.118.045.268.013.353-.143.12-.21.216-.612.14-.833zm-.03-.84c-.23.053-.517.349-.632.56-.09.162-.033.305.075.383l.381-.69c.01-.017.033-.025.05-.015.02.013.026.033.016.05l-.384.688c.12.047.268.017.356-.143.118-.208.216-.61.138-.833zm-.301-.841c-.228.053-.514.35-.632.56-.09.163-.03.309.075.384l.384-.693a.043.043 0 0 1 .05-.015c.02.013.025.036.015.053l-.381.69c.118.045.268.015.353-.143.116-.213.214-.612.136-.835zm-1.129 2.248c-.24.075-.524.417-.63.655-.085.18-.01.331.113.401l.352-.77c.007-.022.032-.032.05-.022.02.01.032.032.02.052l-.352.77c.131.038.289-.007.37-.183.107-.233.177-.672.077-.903zm-1.307 3.808c-.208.083-.441.402-.527.62-.06.168.013.298.126.354l.268-.708c.008-.02.028-.03.045-.022.02.007.03.027.023.045l-.269.71c.12.025.256-.023.32-.184.084-.218.122-.616.014-.815zm-.692-.632c-.193.105-.374.449-.422.67-.037.17.053.286.169.326l.158-.723c.005-.02.025-.032.042-.027.02.005.03.025.025.04l-.16.722c.12.01.245-.057.28-.223.053-.22.036-.607-.092-.785zm-.622-.446c-.196.095-.392.421-.45.64-.047.165.036.283.149.325l.198-.702c.005-.018.025-.03.04-.025.018.005.03.025.023.043l-.194.702c.116.015.244-.045.286-.206.06-.213.063-.597-.052-.777zM54.26 4.861c-.148.163-.211.542-.189.765.016.171.136.254.259.254l-.07-.73c-.003-.02.01-.038.03-.038.02-.002.035.01.037.028l.073.73c.115-.028.213-.13.196-.296-.023-.226-.16-.585-.336-.713zm1.52-.705c-.148.16-.211.54-.188.765.017.17.135.251.258.251l-.073-.73c-.002-.017.013-.035.03-.037a.04.04 0 0 1 .038.03l.073.73c.115-.025.213-.128.195-.296-.022-.226-.158-.585-.333-.713zM48.031 9.5c-.198.135-.356.527-.386.773-.023.188.088.303.218.333l.1-.8c.003-.023.02-.038.04-.035.023.002.038.022.033.043l-.095.8c.128-.003.258-.088.278-.271.03-.246-.03-.662-.188-.843zm9.557-3.668c-.195.138-.353.529-.383.772-.023.188.087.304.218.334l.097-.803a.038.038 0 0 1 .043-.033c.02.003.033.023.033.043l-.098.8c.13-.002.258-.088.28-.273.031-.24-.03-.66-.19-.84zm.657-.088c-.195.138-.353.529-.386.775-.022.188.088.303.218.333l.096-.802c.002-.023.022-.035.042-.035.02.002.033.025.03.042l-.095.8c.13-.002.258-.085.281-.27.033-.244-.03-.66-.185-.843zm.871 0c-.196.138-.356.529-.384.775-.025.188.088.303.218.333l.096-.802c.002-.023.022-.035.042-.035a.04.04 0 0 1 .036.042l-.096.8c.128-.002.259-.085.279-.27.03-.244-.033-.66-.191-.843zM48.53 8.508c-.2.163-.338.59-.353.856-.01.2.115.318.255.34l.043-.865c0-.02.02-.037.043-.037.022 0 .04.02.04.042l-.043.86c.138-.012.269-.112.279-.31.015-.264-.083-.705-.264-.886zm1.112.082c-.241.075-.527.423-.635.667-.083.185-.005.336.115.408l.352-.785a.04.04 0 0 1 .052-.022c.02.01.03.035.02.055l-.348.785c.13.038.288-.01.368-.19.11-.239.178-.685.076-.919z" fill="#000"/><path d="M50.299 7.95c-.226.045-.514.326-.635.532-.09.155-.038.298.065.376l.392-.667a.036.036 0 0 1 .05-.013c.02.01.025.033.015.048l-.391.664c.115.048.26.02.35-.13.119-.203.221-.592.154-.81zm.449-.209c-.2.143-.356.547-.384.8-.02.194.093.311.228.339l.088-.823c.003-.022.023-.037.043-.032.02 0 .037.017.035.04l-.088.82c.133-.005.264-.095.281-.283.03-.249-.038-.675-.203-.86zm.895-.101c-.228.096-.469.457-.557.695-.06.184.025.327.148.384l.271-.787a.04.04 0 0 1 .05-.023c.02.008.033.03.026.05l-.272.785c.136.025.282-.035.342-.213.085-.24.113-.675-.008-.89zm.843-.935c-.233.088-.491.437-.584.675-.07.183.012.326.135.389l.301-.775a.039.039 0 0 1 .073.027l-.299.775c.13.03.281-.025.35-.2.09-.239.134-.67.024-.89zm.836-.131c-.244.063-.547.392-.668.622-.093.178-.025.334.093.414l.391-.757a.041.041 0 0 1 .056-.018c.017.01.025.035.017.053l-.391.757c.128.045.288.008.379-.165.12-.234.213-.67.123-.906zM53.8 5.8c-.198.147-.346.559-.368.812-.018.193.1.309.238.336l.07-.83c.003-.023.02-.035.043-.035a.04.04 0 0 1 .035.045l-.07.828c.135-.01.263-.1.28-.291.02-.254-.06-.683-.227-.866zm1.052-.259c-.211.09-.434.426-.51.652-.057.17.025.299.143.354l.244-.733c.007-.02.025-.03.045-.022.02.007.032.027.022.048l-.245.73c.125.022.26-.033.316-.201.077-.226.097-.63-.015-.828zm.639-.607c-.195.148-.343.562-.364.818-.015.195.106.313.241.336l.063-.833c.003-.022.02-.037.045-.037.02.002.038.02.035.042l-.065.833c.136-.008.266-.103.281-.294.015-.255-.065-.687-.236-.865zm1.081-.439c-.223.082-.476.416-.57.647a.282.282 0 0 0 .126.376l.299-.745c.01-.023.03-.033.05-.025a.04.04 0 0 1 .02.05l-.301.745c.128.033.273-.02.341-.188.093-.228.14-.647.035-.86zm-23.346 5.697c-.28-.025-.717.21-.925.414-.163.15-.15.338-.053.464l.687-.652c.02-.018.048-.018.066.002a.043.043 0 0 1-.003.06l-.69.652c.12.096.301.116.46-.035.212-.2.466-.624.458-.905zm16.398-7.199c-.228-.163-.725-.186-1.008-.12-.219.047-.304.218-.284.373l.923-.21c.025-.006.05.01.055.035a.044.044 0 0 1-.032.052l-.923.208c.055.143.2.254.411.206.281-.065.718-.298.858-.544zm.399.882c-.281-.025-.718.211-.928.412-.16.153-.148.34-.053.466l.69-.654a.043.043 0 0 1 .063 0 .046.046 0 0 1 0 .062l-.69.653c.12.095.303.115.461-.038.206-.196.464-.62.457-.9zm.637-.529c-.223.173-.391.637-.414.93-.018.221.12.352.273.382l.073-.946c.003-.025.023-.045.048-.043a.049.049 0 0 1 .043.048l-.073.94c.153-.007.3-.115.316-.33.022-.289-.073-.776-.266-.981zm-.439-1.119c-.223.17-.391.637-.414.928a.34.34 0 0 0 .276.381l.073-.948c.002-.025.022-.04.047-.04a.047.047 0 0 1 .043.047l-.073.943c.153-.007.301-.117.319-.333.018-.289-.078-.775-.271-.978zm1.319.72c-.225.173-.388.64-.413.928-.018.221.12.354.273.384l.073-.948a.044.044 0 0 1 .047-.04.047.047 0 0 1 .043.048l-.073.945c.15-.012.299-.118.314-.336.022-.288-.07-.775-.264-.98zM33.166 9.153c-.278.01-.682.294-.865.515-.143.168-.105.35.005.464l.6-.723c.017-.017.044-.022.062-.005.02.015.023.043.008.063l-.602.72c.13.08.308.075.446-.09.183-.219.386-.665.346-.944zm.05-.971c-.27-.025-.692.19-.898.379-.158.145-.148.324-.06.446l.675-.614c.017-.018.042-.018.06.002a.043.043 0 0 1-.003.06l-.672.615c.113.09.286.113.442-.027.203-.189.459-.59.456-.86z" fill="#000"/><path d="M33.156 7.365c-.24.05-.55.356-.68.577-.097.165-.04.323.073.401l.419-.717c.012-.018.035-.025.053-.015.017.012.025.035.015.052l-.422.72c.126.05.281.023.38-.145.13-.216.237-.637.162-.873zm.281-.803c-.218-.023-.562.15-.73.306a.263.263 0 0 0-.048.364l.545-.5a.039.039 0 0 1 .052.003c.013.013.013.038-.002.048l-.544.496c.09.076.233.093.356-.02.165-.153.373-.479.371-.697zm-4.57 5.842c-.304.156-.602.685-.688 1.026-.067.264.07.447.251.512l.284-1.119a.054.054 0 0 1 .065-.04c.027.005.047.038.04.065l-.284 1.116c.186.02.384-.077.45-.333.085-.339.072-.943-.118-1.227z" fill="#000"/><path d="M28.488 11.89c-.253.09-.544.461-.652.72-.08.195.005.353.135.426l.349-.835a.042.042 0 0 1 .055-.023.04.04 0 0 1 .02.058l-.346.83c.14.038.303-.018.384-.206.108-.258.17-.73.055-.97zm-.482-.55c-.218.079-.469.4-.561.62-.07.168.002.309.115.37l.3-.726a.04.04 0 0 1 .049-.02c.02.01.027.03.02.048l-.299.725c.12.03.264-.02.331-.18.093-.22.146-.625.045-.836zm-.105 4.43c-.03.357.273.913.53 1.182.195.205.436.188.594.063l-.835-.876c-.023-.02-.02-.058.002-.078.023-.022.06-.022.08.003l.836.873c.12-.156.143-.384-.05-.585-.256-.27-.8-.594-1.157-.582z" fill="#000"/><path d="M27.078 15.533c-.017.243.188.624.366.807.133.14.296.128.407.045l-.572-.6a.04.04 0 0 1 0-.054c.015-.015.043-.015.055.002l.575.597c.082-.105.097-.263-.033-.401-.18-.183-.55-.406-.798-.396zm-1.098-.181c-.026.313.24.8.463 1.036.171.178.382.163.52.055l-.733-.765c-.02-.02-.017-.053.003-.068a.05.05 0 0 1 .07 0l.73.768c.105-.136.125-.339-.043-.512-.22-.238-.694-.524-1.01-.514zm-1.152-.018c-.023.291.22.74.429.956.158.166.351.15.48.05l-.678-.71a.04.04 0 0 1 0-.06c.02-.018.047-.018.065 0l.68.707c.095-.125.113-.31-.04-.474-.209-.215-.65-.479-.936-.469zm3.951 3.03c.359.158 1.04.053 1.41-.11.283-.128.35-.381.283-.59l-1.207.542a.064.064 0 0 1-.082-.032.062.062 0 0 1 .032-.083l1.202-.54c-.113-.18-.341-.285-.617-.165-.369.166-.9.602-1.021.978zm-.768-.078c.294.015.743-.246.956-.462.163-.165.143-.36.038-.489l-.698.705c-.017.018-.047.018-.067 0-.018-.02-.018-.045 0-.068l.697-.702c-.128-.095-.319-.108-.477.053-.213.218-.466.67-.449.963zm-1.063.105c.298-.02.717-.336.905-.58.146-.185.103-.378-.017-.496l-.617.793a.048.048 0 0 1-.068.007.047.047 0 0 1-.008-.065l.615-.793c-.14-.077-.334-.07-.474.11-.186.246-.389.73-.336 1.024zm5.869-3.554c.231.138.703.12.966.038.203-.063.271-.231.24-.377l-.862.269c-.025.007-.045-.005-.053-.028-.007-.022.005-.048.028-.053l.86-.27c-.062-.133-.21-.224-.406-.159-.266.078-.665.337-.773.58zm-.692-.853c.193.206.675.329.968.324.224-.005.339-.153.352-.309l-.949.018a.043.043 0 0 1-.045-.045c0-.023.018-.043.043-.043l.95-.018c-.025-.152-.145-.288-.363-.283-.294.003-.77.143-.956.356zm-.705-.679c.166.193.592.318.856.326.198.005.308-.123.326-.264l-.853-.02a.04.04 0 0 1-.04-.04.044.044 0 0 1 .045-.04l.848.023c-.015-.14-.12-.266-.314-.269-.26-.01-.692.1-.868.284zm-.888-.406c.251.155.765.145 1.054.06.223-.065.298-.243.27-.404l-.945.274c-.025.005-.05-.005-.058-.03a.05.05 0 0 1 .035-.058l.944-.276c-.068-.143-.224-.248-.44-.186-.293.088-.73.356-.86.62zm.625-2.194c.138.085.421.08.584.033a.194.194 0 0 0 .148-.22l-.521.15a.023.023 0 0 1-.03-.018c-.006-.013.002-.03.014-.033l.522-.153c-.037-.08-.123-.135-.24-.102-.164.05-.404.198-.477.343zm-.183-.433c.138.088.421.08.582.035.123-.038.163-.135.15-.226l-.524.153c-.012.005-.025-.005-.03-.017-.003-.013.005-.025.02-.03l.52-.15c-.036-.079-.124-.136-.242-.101-.165.04-.409.19-.476.336zm-.279-.369c.138.086.422.083.582.035.123-.035.166-.138.148-.225l-.519.153a.026.026 0 0 1-.03-.018c-.005-.012.005-.025.018-.03l.521-.15c-.035-.08-.122-.138-.24-.103-.169.042-.41.193-.48.338zm-.338-.43c.135.082.421.08.58.032.122-.035.165-.133.147-.223l-.522.15c-.012.005-.03-.002-.032-.017-.003-.015.002-.028.02-.033l.522-.15a.191.191 0 0 0-.244-.1c-.163.045-.404.195-.471.34zm-.279-.375c.136.085.422.08.582.035.123-.038.163-.136.15-.223l-.521.15c-.015.003-.028-.002-.033-.017-.002-.013.003-.028.018-.03l.522-.156a.192.192 0 0 0-.241-.1c-.166.047-.409.195-.477.34zm-.195 3.008c.203.158.66.193.92.143.198-.04.281-.193.271-.336l-.858.166a.046.046 0 0 1-.047-.033.045.045 0 0 1 .035-.05l.853-.16c-.048-.131-.178-.236-.372-.199-.26.048-.67.248-.802.47zm-.788-.683c.236.176.75.208 1.046.148.226-.045.319-.22.301-.381l-.966.198c-.025.005-.047-.01-.052-.038-.005-.025.01-.047.035-.055l.963-.198c-.053-.148-.203-.263-.424-.22-.294.062-.753.293-.903.546z" fill="#000"/><path d="M29.198 12.61c.213.22.737.348 1.056.336.24-.008.366-.173.381-.344l-1.036.038a.05.05 0 0 1-.05-.05c0-.025.023-.05.048-.05l1.033-.033c-.027-.166-.163-.311-.396-.304-.321.01-.84.171-1.036.407zm.717.89c.226.141.695.129.96.048.202-.06.27-.228.242-.373l-.858.26c-.02.006-.048-.007-.053-.027-.005-.023.005-.048.03-.053l.858-.26c-.063-.131-.206-.224-.404-.164-.266.08-.665.329-.775.57zm-4.325 4.325c.226.14.698.128.961.045.201-.06.269-.226.241-.371l-.86.26c-.02.008-.045-.005-.053-.03-.007-.02.005-.045.03-.052l.858-.259a.319.319 0 0 0-.401-.165c-.266.08-.663.331-.775.572zm2.454 1.581c.26-.06.587-.397.722-.637.103-.184.038-.35-.082-.437l-.437.785a.041.041 0 0 1-.058.015.041.041 0 0 1-.015-.057l.434-.783c-.135-.053-.3-.018-.404.16-.135.244-.248.7-.16.954zm-1.917-.588c.214.013.537-.173.695-.323.12-.118.106-.259.03-.351l-.509.501c-.012.013-.032.013-.047 0a.038.038 0 0 1 0-.05l.506-.502c-.093-.07-.228-.08-.346.035-.153.156-.339.48-.329.69zm.943.538c.231-.05.522-.341.64-.552.09-.16.035-.306-.07-.381l-.389.687a.034.034 0 0 1-.047.012c-.02-.01-.026-.032-.015-.047l.388-.688c-.12-.047-.268-.017-.353.138-.123.209-.224.607-.153.83zm3.623-5.425c.188.216.672.357.97.36.227.004.352-.141.372-.302l-.968-.015a.042.042 0 0 1-.043-.045c0-.025.02-.045.045-.045l.963.012c-.017-.155-.135-.296-.358-.3-.296-.003-.788.125-.981.335z" fill="#000"/><path d="M31.368 14.549c.19.218.677.36.98.363.229.003.352-.145.372-.306l-.974-.012c-.027 0-.045-.023-.045-.048s.02-.045.048-.045l.97.013c-.02-.156-.14-.299-.363-.301-.301-.005-.793.123-.988.336zM40.11 9.89c.065.32.466.728.757.896.223.128.427.053.534-.092l-.948-.552c-.025-.013-.032-.048-.02-.07a.05.05 0 0 1 .07-.018l.949.55c.067-.164.027-.372-.189-.495-.29-.173-.845-.321-1.154-.218zm.31-1.13c.02.313.347.757.598.955.195.153.398.11.521-.015l-.827-.655c-.023-.018-.026-.045-.008-.07a.048.048 0 0 1 .068-.008l.825.655c.085-.145.075-.349-.11-.497-.251-.205-.758-.419-1.066-.366zm.073-1.302c-.052.363.219.945.462 1.236.183.22.429.216.597.106l-.79-.944c-.02-.025-.018-.062.01-.08a.056.056 0 0 1 .08.008l.79.94c.13-.148.168-.384-.01-.597-.246-.29-.775-.657-1.139-.67z" fill="#000"/><path d="M40.563 6.492c-.057.356.194.935.424 1.221.178.221.417.224.582.116l-.752-.941a.056.056 0 0 1 .007-.08.062.062 0 0 1 .083.007l.75.938c.133-.14.176-.368.003-.582-.231-.285-.74-.654-1.096-.68zm-.015-.964c-.03.293.196.752.397.98.155.174.349.166.484.07l-.655-.74a.043.043 0 0 1 .003-.064c.017-.018.047-.015.065.002l.655.74c.103-.123.128-.31-.02-.479-.201-.223-.633-.507-.928-.51zm-.92 3.041c-.03.29.196.752.399.98.153.174.348.166.484.068l-.657-.74c-.015-.017-.015-.05.002-.065a.045.045 0 0 1 .065.005l.655.738c.103-.12.13-.309-.02-.477-.2-.226-.632-.507-.928-.51zm.782-4.087c.013.316.334.77.585.976.19.16.399.12.524-.002l-.82-.68a.053.053 0 0 1-.005-.07c.018-.02.05-.025.07-.008l.818.677c.088-.145.083-.35-.103-.504-.25-.205-.755-.436-1.068-.389zm.006-1.314c-.066.306.13.823.323 1.086.148.198.356.213.51.123l-.625-.853c-.015-.022-.01-.055.01-.07a.051.051 0 0 1 .07.01l.624.85c.126-.118.169-.316.026-.509-.194-.263-.627-.607-.938-.637zm-12.139 7.631c.193.168.637.23.9.198.201-.025.292-.173.29-.314l-.854.108c-.022.005-.042-.012-.047-.035-.003-.022.015-.04.035-.045l.853-.105c-.035-.136-.158-.246-.354-.221-.263.033-.68.206-.823.414zm-4.41 7.209c.36.16 1.044.055 1.41-.11.284-.126.351-.38.286-.59l-1.209.539c-.03.015-.065 0-.08-.03s0-.07.032-.085l1.207-.54c-.113-.18-.341-.288-.62-.165-.37.168-.905.607-1.026.98zm9.848-12.031c.038.219.304.507.502.627.148.093.289.046.366-.052l-.634-.397c-.018-.012-.023-.032-.013-.047.013-.018.03-.02.05-.01l.633.396c.05-.11.027-.253-.118-.344-.196-.122-.57-.235-.785-.173zm-.025.758c.076.23.41.5.638.602.178.078.323.003.388-.118l-.752-.326c-.018-.01-.028-.033-.018-.05.008-.023.03-.03.05-.023l.75.326c.035-.125-.01-.276-.183-.35-.228-.099-.652-.161-.873-.061zm.073.72c.053.21.336.477.537.582.153.078.288.02.356-.08l-.655-.344c-.015-.008-.022-.03-.012-.048.01-.017.027-.022.045-.015l.652.344c.038-.113.008-.251-.143-.329-.195-.105-.574-.188-.78-.11z" fill="#000"/><path d="M33.502 8.12c.113.208.482.416.72.474.183.045.311-.05.359-.176l-.783-.193a.04.04 0 0 1-.03-.047.037.037 0 0 1 .045-.028l.783.193c.015-.128-.058-.266-.233-.308-.241-.058-.663-.05-.86.085zm-.122.572c.064.205.363.444.566.531.156.07.284.005.346-.1l-.67-.293c-.014-.008-.025-.028-.014-.046.005-.017.025-.025.045-.017l.664.29c.033-.112-.007-.245-.16-.313-.206-.088-.58-.14-.778-.052zm.024.707c.113.193.457.369.683.414.17.035.286-.058.323-.176l-.73-.148c-.02-.005-.03-.02-.027-.04a.034.034 0 0 1 .043-.028l.727.15c.008-.12-.06-.245-.228-.28-.224-.048-.612-.023-.79.108zm.018.646c.088.223.431.464.662.55.176.062.311-.018.371-.136l-.752-.276c-.02-.008-.03-.028-.023-.048.008-.02.03-.03.05-.022l.753.273c.025-.125-.027-.268-.198-.331-.236-.085-.652-.118-.863-.01zm.371.917c.116.188.467.36.693.397.173.032.286-.063.32-.18l-.737-.136c-.02-.005-.03-.02-.028-.04.003-.02.02-.03.04-.028l.736.133c.005-.12-.068-.243-.236-.274-.223-.042-.615-.007-.788.128zm1.054-5.792c.083.196.396.404.604.477.163.053.281-.023.331-.13l-.682-.231c-.017-.005-.027-.025-.022-.04a.038.038 0 0 1 .045-.023l.68.23c.022-.115-.03-.243-.186-.295-.208-.073-.585-.093-.77.012zm.065.577c.008.248.261.607.46.77.152.125.313.093.413-.005l-.645-.534a.042.042 0 0 1-.005-.056.04.04 0 0 1 .058-.002l.642.532c.07-.116.065-.276-.08-.4-.198-.162-.6-.343-.843-.305z" fill="#000"/><path d="M34.992 6.522c.038.16.249.363.397.446.115.06.218.02.27-.055l-.491-.269c-.013-.005-.015-.02-.01-.035.007-.012.023-.017.032-.01l.492.266c.033-.083.01-.188-.103-.25-.15-.08-.434-.149-.587-.093zm-.18.661c.078.204.384.424.592.505.16.06.283-.013.338-.118l-.677-.256c-.017-.01-.027-.028-.02-.048.005-.017.025-.025.043-.017l.677.258c.025-.115-.023-.246-.176-.303-.208-.08-.584-.118-.777-.02zm30.673 14.763H64.04V20.5h-2.27v1.447h-1.448v2.27h1.448v1.448h2.27v-1.448h1.445v-2.27zM.494 33.61c0-3.975 3.336-7.191 7.452-7.191 4.117 0 7.453 3.218 7.453 7.192 0 4.043-3.336 7.332-7.453 7.332-4.116 0-7.452-3.289-7.452-7.332zm12.632 0c0-2.791-2.32-5.064-5.18-5.064-2.864 0-5.18 2.273-5.18 5.065 0 2.862 2.318 5.205 5.18 5.205 2.863 0 5.18-2.343 5.18-5.205zm30.51-.451c-.21-2.627-2.388-4.661-5.18-4.661-2.934 0-5.205 2.223-5.205 5.11 0 2.84 2.27 5.014 5.206 5.014h6.15v2.082h-6.15c-4.047 0-7.476-3.24-7.476-7.096 0-3.88 3.432-7.192 7.476-7.192 4.046 0 7.475 3.289 7.475 7.192v1.633H34.553v-2.082h9.084zm9.474-6.505h-5.63v23.133h2.27V28.784h3.36c2.933 0 5.206 1.894 5.206 4.826 0 2.744-2.273 4.97-5.205 4.97h-2.06v2.127h2.06c4.043 0 7.475-3.312 7.475-7.097 0-3.976-3.432-6.956-7.475-6.956zm10.933 0H61.77v14.05h2.273v-14.05zm1.414 14.053v-6.836c0-4.046 3.407-7.452 7.475-7.452h1.659V28.5h-1.659c-2.91 0-5.205 2.34-5.205 5.368v6.836h-2.27v.002z" fill="#000"/><path d="M64.88 8.353C60.13 3.492 53.382.624 46.541.607c-6.838-.085-13.673 2.684-18.55 7.53-4.911 4.796-7.811 11.58-7.836 18.485v2.162h2.06c2.932 0 5.202 1.751 5.202 4.826 0 2.79-2.27 4.97-5.203 4.97h-3.36V26.604a27.71 27.71 0 0 1 6.73-18.048l-1.744-1.44c-4.518 5.266-7.257 12.104-7.257 19.569v14.02h5.631c4.044 0 7.476-3.264 7.476-7.097 0-3.883-3.314-6.85-7.27-6.953-.07-6.317 2.478-12.618 6.958-17.133 4.45-4.558 10.757-7.24 17.166-7.265 6.409-.077 12.805 2.506 17.383 7.05 4.352 4.248 7.016 10.176 7.322 16.281h1.061c-.21-6.386-2.9-12.672-7.43-17.235zM16.952 43.088l.574 1.232c.073.168.143.34.208.506h.01c.05-.145.106-.313.18-.514l.447-1.224h.394l-.602 1.482c-.158.392-.338.828-.54 1.094-.187.236-.395.356-.654.356a.62.62 0 0 1-.208-.027l.038-.301c.03.007.072.012.135.012.299 0 .474-.286.567-.496.03-.068.02-.106-.015-.171l-.958-1.952h.424v.003zm2.538-.001v1.207h1.397v-1.207h.377v2.885h-.377v-1.355H19.49v1.355h-.371v-2.885h.371zm2.837 0h-.371v2.885h.371v-2.885zm.697.041c.163-.033.42-.06.68-.06.372 0 .612.065.793.208a.6.6 0 0 1 .238.509c0 .278-.183.522-.486.634v.01c.27.068.594.294.594.723 0 .248-.1.439-.243.58-.2.182-.527.268-.999.268-.255 0-.451-.015-.577-.035v-2.837zm.374 1.179h.336c.394 0 .625-.204.625-.482 0-.339-.253-.472-.632-.472-.17 0-.271.01-.329.025v.929zm0 1.382c.07.012.178.017.311.017.387 0 .74-.143.74-.562 0-.39-.338-.554-.745-.554h-.306v1.099zm3.484-1.072h-1.12v1.041h1.248v.314h-1.623v-2.885h1.558v.314h-1.184v.913h1.121v.303zm.66-1.494c.18-.03.414-.056.713-.056.368 0 .637.086.807.241a.779.779 0 0 1 .254.605c0 .26-.078.466-.223.614-.199.209-.517.319-.884.319-.107 0-.213-.005-.296-.028v1.157h-.37v-2.852zm.371 1.39c.08.022.184.03.306.03.45 0 .726-.219.726-.618 0-.381-.271-.564-.685-.564-.16 0-.286.012-.347.03v1.121zm3.931 1.364c-.135.068-.411.143-.76.143-.813 0-1.425-.52-1.425-1.462 0-.906.612-1.516 1.505-1.516.362 0 .587.078.685.128l-.09.306a1.344 1.344 0 0 0-.585-.12c-.674 0-1.123.431-1.123 1.189 0 .705.406 1.159 1.108 1.159.226 0 .457-.05.607-.123l.078.296zm.996-.813l-.299.908h-.386l.981-2.885h.449l.986 2.885h-.399l-.308-.908H32.84zm.943-.29l-.283-.829a5.346 5.346 0 0 1-.148-.526h-.008c-.042.17-.09.346-.143.524l-.283.833h.865v-.003zm3.297-1.686v2.885h-.377V43.4h-.953v.873c0 .625-.028 1.322-.434 1.593a.836.836 0 0 1-.44.138l-.047-.298a.615.615 0 0 0 .304-.156c.23-.226.253-.787.253-1.252v-1.214h1.693v.003zm1.063.002v1.075a3.16 3.16 0 0 1 .356-.02c.592 0 1.114.261 1.114.898 0 .271-.085.47-.223.617-.236.249-.637.34-1.036.34a3.9 3.9 0 0 1-.582-.036v-2.872h.371v-.003zm0 2.596c.085.017.18.02.309.02.416 0 .77-.201.77-.645 0-.454-.364-.625-.773-.625-.095 0-.21.008-.303.023v1.227h-.003zm2.365-2.599v1.207H41.9v-1.207h.377v2.885H41.9v-1.355h-1.392v1.355h-.373v-2.885h.373zm2.928 1.977l-.299.908h-.384l.979-2.885h.449l.986 2.885h-.4l-.305-.908h-1.026zm.945-.29l-.28-.829c-.066-.188-.106-.358-.148-.526h-.01c-.043.17-.09.346-.146.524l-.283.833h.867v-.003zm-13.508 2.114v1.282h.116l.988-1.282h.45l-1.092 1.322c.474.062.66.356.808.745.108.293.188.562.318.815h-.404c-.103-.196-.183-.452-.26-.677-.134-.382-.317-.643-.803-.643h-.12v1.32h-.37v-2.882h.37zm4.044-.001v2.883h-.376V47.2h-.953v.874c0 .622-.028 1.322-.434 1.595a.841.841 0 0 1-.44.136l-.047-.299a.615.615 0 0 0 .303-.155c.234-.226.254-.788.254-1.25v-1.216h1.693v.002zm1.063.001h-.37v2.882h.37v-2.882zm1.072 0v1.209h1.394v-1.21h.377v2.885h-.377v-1.35h-1.394v1.35h-.371v-2.884h.37zm2.834 0h-.371v2.882h.371v-2.882zm1.066 0v1.282h.116l.99-1.282h.45l-1.092 1.322c.475.062.66.356.806.745.108.293.188.562.318.815h-.404c-.103-.196-.183-.452-.26-.677-.133-.382-.317-.643-.803-.643h-.12v1.32h-.367v-2.882h.366zm2.484 1.976l-.299.906h-.384l.979-2.882h.449l.986 2.882h-.4l-.305-.906h-1.026zm.945-.29l-.28-.83c-.066-.19-.106-.36-.148-.525h-.01c-.043.17-.09.349-.146.52l-.283.834h.867z" fill="#000"/></svg>