<svg width="73" height="80" viewBox="0 0 73 80" fill="none" xmlns="http://www.w3.org/2000/svg"><path d="M33.863 79.376h-.555v-5.841a4.95 4.95 0 0 1 .632-.162c.256-.052.58-.077.974-.077.324 0 .617.051.882.156.265.106.492.26.683.459.19.199.339.441.444.726.105.284.16.606.16.965 0 .336-.046.646-.134.925a2.11 2.11 0 0 1-.387.726 1.81 1.81 0 0 1-.63.475 2.01 2.01 0 0 1-.848.17 2.1 2.1 0 0 1-.757-.124 1.968 1.968 0 0 1-.464-.234v1.836zm0-2.374a1.807 1.807 0 0 0 .458.256c.103.04.214.072.333.097.12.026.245.037.376.037.273 0 .501-.048.69-.14a1.23 1.23 0 0 0 .449-.384c.114-.162.196-.353.248-.572.05-.219.076-.45.076-.697 0-.58-.145-1.025-.435-1.335-.29-.31-.675-.467-1.153-.467-.273 0-.495.011-.66.04a2.386 2.386 0 0 0-.38.08v3.085h-.002zm6.875-3.723c.29 0 .535.043.737.125.202.083.367.197.49.342.125.145.216.319.273.515.057.2.085.416.085.649v2.784c-.057.017-.14.034-.247.054a6.416 6.416 0 0 1-.852.12 6.63 6.63 0 0 1-.535.022 2.52 2.52 0 0 1-.643-.076 1.38 1.38 0 0 1-.512-.245 1.15 1.15 0 0 1-.342-.427 1.468 1.468 0 0 1-.125-.635c0-.24.045-.444.136-.615.091-.17.22-.313.385-.424.165-.111.361-.19.589-.242a3.385 3.385 0 0 1 .993-.066 3.525 3.525 0 0 1 .47.077.7.7 0 0 1 .125.037v-.273c0-.154-.011-.305-.034-.45a.943.943 0 0 0-.15-.393.83.83 0 0 0-.325-.281 1.216 1.216 0 0 0-.55-.109c-.324 0-.566.023-.726.069a4.693 4.693 0 0 0-.35.11l-.077-.486c.097-.046.248-.088.45-.128.208-.034.45-.054.735-.054zm.051 4.116c.216 0 .404-.006.57-.02.164-.014.298-.034.415-.057v-1.554a1.681 1.681 0 0 0-.299-.091 3.2 3.2 0 0 0-.99-.017 1.23 1.23 0 0 0-.41.128.846.846 0 0 0-.308.267.775.775 0 0 0-.12.453c0 .165.026.305.08.418a.678.678 0 0 0 .23.274c.1.068.22.12.36.148.139.034.295.051.472.051zm5.568-4.099c.182 0 .356.014.518.043.162.028.273.056.336.085l-.111.478a1.127 1.127 0 0 0-.279-.07 3.481 3.481 0 0 0-.55-.038c-.239 0-.43.017-.577.051-.146.034-.24.063-.285.086v3.868h-.555v-4.21c.142-.063.339-.125.59-.19.25-.072.554-.103.913-.103zm3.323.085h1.758v.47H49.68V76.2c0 .25.023.452.063.609a.859.859 0 0 0 .185.364.58.58 0 0 0 .29.17c.114.03.24.044.376.044.233 0 .421-.026.563-.083a2.43 2.43 0 0 0 .334-.15l.136.46c-.08.051-.219.111-.418.177-.2.065-.416.097-.65.097-.273 0-.503-.035-.688-.109a.995.995 0 0 1-.444-.324 1.321 1.321 0 0 1-.236-.544 3.772 3.772 0 0 1-.069-.768v-4.065l.555-.103v1.406h.003zm3.893.154c.166-.045.388-.097.666-.154.28-.057.621-.085 1.025-.085.336 0 .615.048.843.145.225.097.404.236.538.416.134.179.228.392.285.643.056.25.085.527.085.828v2.468h-.555v-2.288c0-.313-.02-.578-.063-.794a1.324 1.324 0 0 0-.213-.53.832.832 0 0 0-.393-.296 1.79 1.79 0 0 0-.612-.091 4.58 4.58 0 0 0-.678.043 2.06 2.06 0 0 0-.37.076v3.878h-.555v-4.259h-.003zm13.57-.239c.183 0 .356.014.518.043.163.028.274.056.336.085l-.11.478a1.134 1.134 0 0 0-.277-.07 3.199 3.199 0 0 0-.552-.038 2.6 2.6 0 0 0-.575.051 1.616 1.616 0 0 0-.288.086v3.868h-.555v-4.21a4.11 4.11 0 0 1 .59-.19c.25-.072.555-.103.913-.103zm3.707 4.108c.318 0 .58-.052.788-.157.208-.105.31-.285.31-.535a.772.772 0 0 0-.054-.308.584.584 0 0 0-.185-.23 1.638 1.638 0 0 0-.336-.197c-.14-.062-.31-.136-.518-.222a9.235 9.235 0 0 1-.47-.207 1.922 1.922 0 0 1-.392-.248 1.057 1.057 0 0 1-.274-.339 1.024 1.024 0 0 1-.102-.478c0-.359.134-.65.404-.871.27-.222.64-.333 1.116-.333.302 0 .552.025.746.077.196.05.333.097.415.136l-.128.496a3.283 3.283 0 0 0-.344-.137c-.162-.057-.401-.085-.712-.085-.125 0-.245.014-.356.04a.951.951 0 0 0-.296.119.569.569 0 0 0-.282.51c0 .12.023.222.069.307a.662.662 0 0 0 .202.228c.088.065.196.128.324.182.128.057.274.12.442.188.17.068.333.136.49.208.156.07.295.156.415.256s.216.219.29.358c.074.14.111.316.111.527 0 .399-.15.7-.45.905-.298.205-.708.308-1.223.308-.388 0-.684-.034-.889-.097a3.37 3.37 0 0 1-.41-.15l.146-.505a.852.852 0 0 0 .11.054 2.57 2.57 0 0 0 .575.168c.134.02.291.032.468.032zm-11.521-2.925h3.86v.478h-3.86v-.478zm0 1.793h3.86v.479h-3.86v-.479zm-44.937-8.135l-1.961-4.452H5.579l-2.01 4.455H.617l8.378-17.982 8.363 17.982h-2.966v-.003zm-7.774-6.792h4.82L9.663 57.4a15.826 15.826 0 0 1-.319-.869c-.111-.327-.22-.691-.33-1.093a15.278 15.278 0 0 1-.626 1.959l-1.771 3.948zm13.333 6.79l5.611-9.049-4.962-8.247h2.955l2.494 4.23c.134.222.381.678.743 1.37l.176.341a33.882 33.882 0 0 1 .945-1.69l2.636-4.254h2.884l-5.055 8.199 5.445 9.098h-3.108L27.82 63.23l-.049-.083a139.79 139.79 0 0 1-.874-1.665 24.567 24.567 0 0 1-.945 1.714l-3.023 4.938h-2.977zm34.095-8.611c0 1.23-.231 2.391-.692 3.484a8.82 8.82 0 0 1-2.016 2.93 9.45 9.45 0 0 1-3.011 1.972 9.237 9.237 0 0 1-3.522.687 9.334 9.334 0 0 1-6.555-2.66 8.833 8.833 0 0 1-2.01-2.917 8.958 8.958 0 0 1-.686-3.499c0-1.235.228-2.402.686-3.498a8.85 8.85 0 0 1 2.01-2.94 9.155 9.155 0 0 1 3-1.962 9.439 9.439 0 0 1 3.555-.675c1.244 0 2.423.225 3.539.675a9.16 9.16 0 0 1 2.994 1.961 9.093 9.093 0 0 1 2.016 2.96 8.91 8.91 0 0 1 .692 3.482zm-2.93 0a6.59 6.59 0 0 0-.478-2.493 6.47 6.47 0 0 0-1.375-2.104 6.127 6.127 0 0 0-4.455-1.89c-.85 0-1.66.162-2.428.484a6.147 6.147 0 0 0-2.05 1.406 6.23 6.23 0 0 0-1.369 2.092 6.666 6.666 0 0 0-.472 2.505A6.448 6.448 0 0 0 40.33 64.1a6.151 6.151 0 0 0 4.478 1.89c.842 0 1.645-.162 2.405-.484a6.327 6.327 0 0 0 2.05-1.406 6.477 6.477 0 0 0 1.374-2.1 6.524 6.524 0 0 0 .478-2.477zm5.714 8.611V50.153L67.818 60.73c.299.299.603.617.91.956.308.339.63.72.969 1.147V50.84h2.598v17.97L61.083 58.047a14.107 14.107 0 0 1-1.666-1.938v12.026H56.83zM44.934 39.114l-2.15-2.3c5.657-5.582 11.341-11.19 17.012-16.79-5.907-5.887-11.538-11.494-17.353-17.29A1118.7 1118.7 0 0 0 45.184.491c6.325 6.33 12.81 12.824 19.243 19.266-6.356 6.316-12.872 12.781-19.493 19.357zM13.37 19.632l17.27 17.077c-.984.854-1.798 1.557-2.439 2.112-6.345-6.308-12.85-12.775-19.192-19.084C15.27 13.463 21.745 6.973 28.332.375c.515.555 1.273 1.369 2.055 2.208-5.599 5.608-11.213 11.233-17.017 17.049z" fill="#000"/></svg>