<svg width="140" height="49" viewBox="0 0 140 49" fill="none" xmlns="http://www.w3.org/2000/svg"><path d="M44.37 21.907l-1.254.007-.015-2.687-2.553.016.016 2.687-1.263.007-.034-6.468 1.262-.007.015 2.781 2.553-.016-.016-2.78 1.254-.007.035 6.467zm3.795-.022a2.956 2.956 0 0 1-.172-.708 1.686 1.686 0 0 1-.504.58c-.21.152-.462.229-.756.23-.488.003-.864-.122-1.13-.38-.264-.258-.399-.61-.401-1.058-.002-.47.171-.836.521-1.098.35-.262.863-.395 1.538-.397l.706-.004-.002-.381c-.002-.231-.06-.41-.18-.536-.12-.125-.293-.188-.526-.188-.204.002-.36.054-.471.157a.536.536 0 0 0-.163.421l-1.21.007-.009-.027c-.022-.406.148-.758.508-1.053.361-.296.835-.447 1.421-.451.56-.002 1.015.139 1.362.428.348.29.524.704.526 1.246l.011 1.986a3.355 3.355 0 0 0 .212 1.224l-1.28.002zm-1.13-.86c.218-.003.413-.06.585-.173a.893.893 0 0 0 .35-.393l-.005-.679-.706.005c-.267.002-.47.072-.604.208a.69.69 0 0 0-.202.505c0 .163.052.29.154.387a.61.61 0 0 0 .428.14zm3.181-3.961l1.258-.006.022 3.812 1.542-.01-.022-3.811 1.258-.007.022 3.812.671-.004.011 1.887-1.254.007-.004-.892-3.476.02-.028-4.808zm6.711-1.188l-1.258.006-.004-.972 1.258-.007.004.973zm.032 5.957l-1.257.006-.026-4.807 1.257-.007.026 4.808zm.843-2.453c-.004-.717.187-1.304.572-1.763.384-.46.92-.693 1.605-.695.689-.005 1.23.222 1.623.674.393.453.591 1.04.595 1.76v.094c.005.722-.187 1.313-.573 1.768-.387.457-.924.688-1.61.69-.689.005-1.23-.22-1.62-.672-.392-.453-.59-1.04-.594-1.761l.002-.095zm1.252.086c.002.439.078.788.23 1.053.15.264.393.394.726.392.323-.002.56-.137.71-.403.15-.267.222-.619.22-1.054v-.094c-.003-.425-.08-.773-.235-1.042-.154-.269-.393-.401-.721-.399-.324.003-.56.14-.71.41-.15.272-.225.619-.22 1.043v.094zm7.844 2.308l-1.257.007-.011-1.865-1.534.01.01 1.864-1.257.007-.026-4.808 1.258-.006.01 1.945 1.534-.01-.01-1.944 1.257-.007.026 4.807zm3.568-.021a2.95 2.95 0 0 1-.172-.708 1.664 1.664 0 0 1-.504.58c-.21.153-.463.23-.756.232-.489.002-.865-.124-1.13-.381-.264-.258-.4-.61-.401-1.058-.003-.471.171-.836.521-1.098.35-.263.862-.395 1.538-.397l.706-.005-.002-.38c-.002-.232-.06-.41-.18-.536-.12-.126-.294-.188-.526-.188-.204.002-.36.053-.472.156a.535.535 0 0 0-.162.422l-1.21.006-.01-.026c-.02-.406.148-.758.51-1.054.36-.296.833-.446 1.42-.45.56-.002 1.012.139 1.36.428.348.289.523.704.526 1.246l.01 1.985a3.379 3.379 0 0 0 .213 1.225l-1.28.001zm-1.13-.86a1.05 1.05 0 0 0 .585-.173.891.891 0 0 0 .35-.392l-.005-.679-.706.005c-.267.002-.47.071-.604.208a.69.69 0 0 0-.202.504c0 .164.052.291.154.388a.63.63 0 0 0 .428.139zm7.1-3.983l.026 4.808-1.254.007-.021-3.804-.935.005.007 1.044c.004.937-.144 1.632-.445 2.085-.302.452-.796.68-1.482.685l-.202.003-.017-1.022.132-.005c.293-.002.493-.13.602-.385.108-.256.16-.706.156-1.352l-.01-2.048 3.443-.02zm2.27 1.543l.873-.005c.626-.004 1.12.143 1.48.437.36.296.543.686.545 1.168.002.488-.174.885-.532 1.188-.356.302-.85.454-1.475.459l-2.136.013-.026-4.807 1.262-.007.01 1.553zm.007.995l.006 1.266.874-.005c.256-.002.445-.062.57-.181a.592.592 0 0 0 .188-.46.595.595 0 0 0-.192-.45c-.128-.119-.317-.177-.573-.177l-.873.007zm7.623 2.211l-1.258.007-.01-1.865-1.535.009.011 1.864-1.258.007-.026-4.807 1.258-.007.01 1.946 1.535-.01-.011-1.945 1.258-.006.026 4.807zm3.744-.021a2.95 2.95 0 0 1-.172-.708 1.687 1.687 0 0 1-.504.58 1.275 1.275 0 0 1-.757.23c-.488.003-.864-.125-1.13-.38-.264-.258-.399-.61-.401-1.058-.002-.47.172-.836.521-1.098.35-.262.863-.395 1.538-.397l.707-.004-.003-.381c-.002-.231-.06-.41-.18-.536-.117-.125-.293-.19-.526-.188-.204.002-.36.053-.471.157a.536.536 0 0 0-.163.421l-1.21.007-.009-.027c-.022-.406.148-.758.509-1.053.36-.296.834-.447 1.42-.451.56-.002 1.015.139 1.363.428.347.29.523.704.525 1.246l.011 1.986c0 .224.02.437.052.634.033.197.087.395.161.59l-1.282.002zm-1.128-.859a1.05 1.05 0 0 0 .584-.172.893.893 0 0 0 .35-.392l-.004-.68-.707.005c-.267.002-.469.072-.603.208a.69.69 0 0 0-.203.505c0 .163.053.291.155.387a.626.626 0 0 0 .428.14zm7.28-.079c.217-.002.39-.069.519-.206.128-.134.191-.316.191-.54l1.145-.006.009.026c.013.487-.159.895-.52 1.224-.36.33-.806.495-1.34.498-.689.004-1.223-.22-1.601-.673-.378-.453-.57-1.033-.574-1.741v-.132c-.004-.706.18-1.287.552-1.746.372-.46.902-.693 1.588-.695.57-.002 1.028.164 1.378.497.35.337.519.78.51 1.33l-.009.026-1.144.007a.987.987 0 0 0-.196-.618.639.639 0 0 0-.532-.245c-.324.003-.554.137-.689.406-.135.269-.202.612-.2 1.029v.132c.002.426.072.77.21 1.033.14.262.372.397.703.395zm6.723-3.944l.026 4.808-1.253.006-.022-3.803-.934.005.007 1.044c.004.937-.144 1.632-.446 2.084-.302.453-.795.681-1.481.686l-.203.002-.017-1.022.133-.004c.293-.002.493-.13.601-.386.109-.255.161-.706.157-1.351l-.011-2.049 3.443-.02zm2.859 2.773l.055.267h.026l.875-3.062 1.352-.009-1.86 5.538a2.57 2.57 0 0 1-.534.872c-.226.237-.565.356-1.019.358a1.53 1.53 0 0 1-.296-.024 8.303 8.303 0 0 1-.33-.074l.141-.948.122.018c.043.004.082.009.117.009.207-.003.365-.054.478-.162a1.03 1.03 0 0 0 .256-.394l.144-.374-1.68-4.792 1.352-.009.801 2.786zm6.798.166l-.347.002.01 1.814-1.249.006-.011-1.813-.341.002-.912 1.818-1.61.009 1.51-2.611-1.46-2.194 1.584-.01.971 1.807.25-.002-.011-1.813 1.249-.007.011 1.813.263-.002.945-1.817 1.588-.01-1.438 2.217 1.534 2.59-1.606.01-.93-1.809zm5.182-3.114c.669-.004 1.192.222 1.573.675.38.455.571 1.04.575 1.76v.093c.005.722-.187 1.314-.573 1.769-.387.457-.921.688-1.606.69-.691.004-1.234-.22-1.625-.672-.391-.453-.589-1.04-.593-1.762v-.141c0-.014.002-.027.004-.043l-.004-.742c-.006-1.001.165-1.752.515-2.252.35-.502.891-.791 1.625-.87.332-.03.571-.082.715-.154.143-.072.215-.197.213-.379l.973-.007.009.027c.015.556-.118.933-.391 1.125-.276.195-.743.334-1.404.417-.352.052-.641.164-.862.334a.903.903 0 0 0-.37.659l.013.022c.139-.156.318-.289.533-.394.215-.1.441-.155.68-.155zm-.059 1c-.328.002-.565.139-.713.408-.147.271-.219.618-.217 1.044v.094c.002.44.078.79.23 1.054.15.264.394.394.726.392.324-.002.561-.137.71-.404.15-.266.224-.618.22-1.053v-.094c-.002-.426-.081-.773-.235-1.042-.154-.27-.395-.401-.721-.4zm5.744 3.861a2.985 2.985 0 0 1-.171-.708 1.673 1.673 0 0 1-.504.58 1.274 1.274 0 0 1-.756.231c-.489.002-.865-.126-1.13-.381-.265-.256-.4-.61-.402-1.058-.002-.47.172-.836.521-1.098.35-.262.863-.394 1.538-.397l.707-.004-.003-.381c-.002-.231-.06-.41-.18-.536-.117-.125-.293-.188-.526-.188-.204.002-.36.054-.471.157a.536.536 0 0 0-.163.421l-1.21.007-.009-.027c-.022-.406.148-.758.509-1.053.36-.296.834-.446 1.42-.45.561-.003 1.013.138 1.36.427.348.29.524.704.526 1.246l.011 1.986c0 .224.019.437.052.634.035.197.087.395.161.59l-1.28.002zm-1.127-.86a1.06 1.06 0 0 0 .584-.173.891.891 0 0 0 .35-.392l-.004-.68-.707.005c-.267.002-.469.072-.603.208a.69.69 0 0 0-.203.505c0 .163.053.291.155.387.104.095.247.142.428.14zM41.21 28.627c.244-.003.431-.05.557-.144a.449.449 0 0 0 .19-.39c0-.15-.064-.28-.188-.387-.124-.108-.31-.162-.56-.16-.23.003-.415.05-.554.146a.436.436 0 0 0-.209.383l-1.21.007-.009-.027c-.02-.428.155-.778.524-1.044.37-.267.832-.404 1.388-.406.628-.004 1.13.117 1.506.359.373.242.563.585.565 1.028a.927.927 0 0 1-.207.59c-.139.18-.328.325-.571.432.282.097.497.238.647.426.15.188.226.417.228.684.003.448-.197.802-.597 1.062-.4.262-.915.395-1.545.397-.554.002-1.03-.121-1.427-.375-.398-.25-.589-.618-.574-1.098l.01-.027 1.21-.006c0 .163.073.3.22.41.148.11.357.163.627.163.26-.002.464-.06.608-.179a.536.536 0 0 0 .215-.426c0-.204-.074-.354-.217-.452-.144-.097-.352-.146-.622-.144l-.758.005-.004-.827h.758zm2.717 1.859v-.005h.132c.28-.002.474-.136.576-.403.102-.267.184-.746.25-1.441l.195-1.97 3.17-.018.022 3.812.64-.004.01 1.736-1.259.007-.004-.742-2.77.016.004.742-1.258.007-.008-1.737h.3zm2.216-1.856a9.897 9.897 0 0 1-.159 1.06 3.91 3.91 0 0 1-.245.787l1.28-.007-.016-2.777-.771.005-.09.932zm3.252.37c-.005-.717.187-1.304.571-1.763.385-.46.921-.693 1.608-.695.689-.004 1.23.222 1.623.675.393.452.59 1.04.595 1.759v.094c.004.722-.187 1.313-.574 1.768-.386.457-.923.688-1.61.69-.688.005-1.229-.219-1.62-.672-.391-.452-.589-1.04-.593-1.761V29zm1.253.086c.003.439.079.789.23 1.053.15.265.394.395.726.395.324-.003.56-.137.71-.404.15-.267.222-.618.22-1.053v-.094c-.002-.426-.08-.774-.234-1.043-.155-.268-.394-.4-.722-.4-.324.002-.56.138-.71.41-.15.27-.224.618-.22 1.042v.094zm8.162.037c.005.71-.152 1.284-.469 1.717-.317.434-.76.652-1.332.656a1.455 1.455 0 0 1-.651-.136 1.344 1.344 0 0 1-.49-.408l.014 2.306-1.254.007-.037-6.654 1.132-.007.076.57a1.51 1.51 0 0 1 .496-.49c.193-.114.419-.172.677-.174.578-.005 1.026.226 1.347.69.322.464.485 1.074.49 1.831l.001.092zm-1.258-.085c-.002-.453-.078-.82-.225-1.1-.148-.28-.372-.42-.674-.42a.924.924 0 0 0-.484.124.86.86 0 0 0-.315.343l.01 2.106c.079.137.185.24.318.31.134.069.297.105.493.103.304-.003.528-.126.667-.373.14-.246.21-.58.208-1.001l.002-.092zm1.888-.094c-.004-.718.187-1.305.572-1.764.384-.46.92-.693 1.607-.695.689-.005 1.23.222 1.623.675.393.452.591 1.04.595 1.759v.094c.005.722-.187 1.313-.573 1.768-.387.457-.924.688-1.61.69-.689.005-1.23-.22-1.62-.672-.392-.453-.59-1.04-.594-1.761v-.095zm1.254.085c.002.439.078.788.23 1.053.15.264.393.394.726.394.323-.002.56-.136.71-.403.15-.267.222-.619.22-1.053v-.095c-.003-.425-.08-.773-.235-1.042-.154-.268-.393-.4-.721-.4-.324.002-.56.138-.71.41-.15.27-.225.618-.22 1.041v.095zm4.014 2.331l-.026-4.807 1.947-.011c.62-.005 1.103.105 1.451.33.348.223.522.555.524 1a.9.9 0 0 1-.215.602c-.144.174-.35.309-.615.403.354.07.621.202.806.397a.99.99 0 0 1 .278.688c.002.452-.16.795-.487 1.028-.328.233-.797.352-1.412.354l-2.25.016zm1.24-2.855l.724-.005c.233-.002.404-.04.515-.118.111-.079.165-.193.163-.348 0-.175-.06-.302-.178-.383-.117-.08-.298-.121-.539-.119l-.688.005.004.968zm.007.845l.007 1.017.99-.006c.222-.003.385-.045.492-.13.106-.086.158-.211.156-.377 0-.166-.052-.293-.154-.38-.102-.088-.27-.133-.498-.13l-.993.006zm4.407-3.186l-.433 1.114-.619.005-.013-2.416 1.06-.007.005 1.304zm4.218.33l.026 4.807-1.249.007-.008-1.683-.702.005-.917 1.69-1.27.006 1.018-1.876a1.552 1.552 0 0 1-.706-.533c-.167-.233-.25-.5-.252-.803a1.426 1.426 0 0 1 .534-1.152c.359-.3.843-.45 1.456-.454l2.07-.014zm-2.802 1.647c0 .166.065.31.193.433.128.121.31.181.55.181l.823-.004-.006-1.257-.824.004c-.234.002-.417.067-.545.2a.606.606 0 0 0-.191.443zm8.316-.467l.116.39.026.005 1.299-3.277 1.33-.009-2.258 5.256c-.178.419-.395.744-.65.977-.254.233-.61.35-1.07.352a2.05 2.05 0 0 1-.461-.045 5.14 5.14 0 0 1-.465-.132l.141-.93c.13.038.243.065.343.085.1.018.2.027.3.027.235-.003.417-.056.541-.162.126-.105.224-.262.296-.47l.093-.245-2.235-4.681 1.355-.01 1.3 2.87zm4.48 1.769l-.482.002.01 1.8-1.257.007-.026-4.808 1.258-.006.01 1.83.374-.002 1.058-1.835 1.588-.01-1.53 2.24 1.63 2.566-1.61.009-1.023-1.793zm7.458-.513c.005.71-.152 1.284-.469 1.716-.315.435-.76.653-1.332.657a1.454 1.454 0 0 1-.651-.137 1.344 1.344 0 0 1-.49-.408l.014 2.307-1.254.006-.037-6.654 1.132-.006.076.569a1.51 1.51 0 0 1 .495-.489 1.33 1.33 0 0 1 .678-.174c.578-.005 1.026.226 1.347.69.322.464.485 1.073.489 1.83l.002.093zm-1.258-.088c-.002-.452-.078-.82-.226-1.1-.147-.28-.371-.42-.673-.42a.924.924 0 0 0-.484.124.86.86 0 0 0-.316.343l.011 2.107c.079.136.185.24.317.309.135.07.298.105.494.103.304-.002.528-.125.667-.372.14-.247.21-.58.208-1.002l.002-.092zm4.814 2.336a2.95 2.95 0 0 1-.172-.708 1.664 1.664 0 0 1-.503.58 1.267 1.267 0 0 1-.756.231c-.49.002-.865-.125-1.13-.383-.265-.258-.4-.61-.402-1.058-.002-.47.172-.836.522-1.098.35-.262.862-.395 1.538-.397l.706-.004-.003-.381c-.002-.231-.06-.41-.18-.536-.117-.125-.293-.188-.526-.188-.204.002-.36.054-.471.157a.539.539 0 0 0-.163.421l-1.21.007-.009-.027c-.021-.406.148-.758.509-1.053.363-.296.834-.447 1.42-.45.561-.003 1.015.138 1.36.427.348.29.524.704.526 1.246l.011 1.986c.002.224.02.437.052.634.035.197.087.395.161.59l-1.28.004zm-1.13-.858a1.06 1.06 0 0 0 .585-.173.912.912 0 0 0 .352-.392l-.004-.68-.706.005c-.268.003-.47.072-.604.209a.69.69 0 0 0-.202.504c0 .164.052.291.154.388.102.092.245.139.426.139zm3.34-4.743l-1.214.007-.005-.906 1.215-.006.004.905zm1.165 5.58l-1.258.007-.026-4.805 1.257-.007.026 4.805zm1.075-5.593l-1.215.006-.004-.905 1.214-.007.005.906zm4.062 5.564l-1.258.006-.01-1.867-1.534.01.011 1.866-1.258.007-.026-4.807 1.258-.007.01 1.945 1.534-.009-.011-1.945 1.258-.007.026 4.808zm3.798-4.83l1.253-.006.027 4.807-1.254.006-.015-2.93-.026-.005-1.504 2.944-1.258.007-.026-4.807 1.258-.007.015 2.923.027.004 1.503-2.936z" fill="#000"/><path fill-rule="evenodd" clip-rule="evenodd" d="M33.846 15.602a1.006 1.006 0 0 0-.567-.839c-1.151-.544-4.15-1.745-8.166-1.745-4.2 0-7.072 1.185-8.178 1.736a1.007 1.007 0 0 0-.551.828c-.155 2.008-.53 8.948 1.24 12.539 1.78 3.608 5.979 6.24 7.17 6.934a.63.63 0 0 0 .64 0c1.19-.693 5.39-3.326 7.17-6.934C34.37 24.54 34 17.634 33.845 15.6z" fill="#000"/><path fill-rule="evenodd" clip-rule="evenodd" d="M26.833 20.863v-3.389a.153.153 0 0 0-.15-.155H23.55c-.083 0-.15.07-.15.155v3.389h-3.287c-.083 0-.15.07-.15.154v3.234c0 .085.067.155.15.155h3.285v3.389c0 .085.067.154.15.154h3.134c.083 0 .15-.07.15-.155v-3.388h3.285c.083 0 .15-.07.15-.155v-3.234a.153.153 0 0 0-.15-.154h-3.283z" fill="#fff"/></svg>