<svg width="140" height="66" viewBox="0 0 140 66" fill="none" xmlns="http://www.w3.org/2000/svg"><path d="M40.87 41.002s-2.999 2.14-6.778 2.14c-4.138 0-6.257-2.518-6.257-7.014v-5.096c0-8.991 13.037-7.313 13.037-13.667 0-1.379-.42-2.518-1.979-2.518-1.56 0-1.98 1.14-1.98 2.518v2.777h-8.475v-2.777c0-6.894 4.858-8.951 10.556-8.951 5.698 0 11.355 2.057 11.355 8.95v25.358h-9.477v-1.72h-.002zm-24.536-.438c-1.08 1.199-1.52 1.978-3.079 2.398-1.499.48-1.619.599-3.059.599C3.66 43.56 0 40.863 0 31.092V12.47C0 2.698 5.998 0 12.596 0 20.633 0 25.13 3.237 25.25 11.63l-.06 3.697h-9.956V11.19c0-1.739-.54-3.357-2.64-3.357-2.099 0-2.638 1.618-2.638 3.357v21.38c0 1.74.48 3.358 2.639 3.358 2.099 0 2.639-1.619 2.639-3.357v-4.897h-3.18v-8.073H25.19v23.12h-8.318l-.54-2.158z" fill="#C94F49"/><path d="M36.91 35.607c0 1.2.84 1.799 1.74 1.799 1.978 0 2.218-1.319 2.218-4.376v-5.935c-1.86 1.319-3.958 2.098-3.958 4.796v3.716z" fill="#fff"/><path d="M68.898 19.816c-6.399 0-6.221 3.978-6.221 3.978v18.928H53.2V9.43h9.477v3.496h.18c1.192-2.84 2.881-4.223 6.04-4.412v11.3zm17.094 0c-6.399 0-6.221 3.978-6.221 3.978v18.928h-9.477V9.43h9.477v3.496h.18c1.192-2.84 2.881-4.223 6.04-4.412v11.3zm10.51 7.939v5.855c0 2.038.72 3.297 1.98 3.297 1.5 0 1.979-1.256 1.979-3.297v-3.537h9.177v4.136c0 6.475-4.498 8.932-11.156 8.932-6.058 0-11.456-2.757-11.456-9.111V18.264c0-6.174 4.079-9.651 11.456-9.651 6.058 0 11.156 2.278 11.156 9.651v9.49H96.503z" fill="#C94F49"/><path d="M100.464 20.962v-4.676c0-1.319-.66-2.038-1.98-2.038-1.32 0-1.979.72-1.979 2.038v4.676h3.959z" fill="#fff"/><path d="M140 16.065V9.131h-2.44V2.559h-9.477V9.13h-5.518V2.559h-9.477V9.13h-1.78v6.934h1.78v19.523c0 4.496 1.14 7.134 5.878 7.134h5.941v-6.304c-2.296-.266-2.342-1.307-2.342-3.048V16.065h5.518v19.523c0 4.496 1.14 7.134 5.878 7.134h5.941v-6.304c-2.296-.266-2.342-1.307-2.342-3.048V16.065H140zM2.587 50.138h7.768v1.238h-3.2V62.5h-1.37V51.376H2.587v-1.238z" fill="#C94F49"/><path d="M13.818 61.298h-.032c-.446.94-1.286 1.45-2.176 1.45-1.37 0-2.21-.726-2.21-2.34v-7.074h1.301v7.122c0 .774.247 1.187 1.17 1.187a1.873 1.873 0 0 0 1.567-.808c.298-.463.38-1.089.38-1.616v-5.887h1.302V62.5h-1.302v-1.201zm4.57-6.46h.034c.544-1.204 1.32-1.715 2.689-1.6v1.286c-1.684-.298-2.673.758-2.673 2.424v5.556h-1.305v-9.167h1.253v1.5h.002zm4.745 7.663h-1.187V50.138h1.303v4.139h.033c.511-.825 1.106-1.187 1.915-1.187 2.325 0 2.886 2.357 2.886 4.237 0 2.604-.348 5.424-2.821 5.424-.792 0-1.55-.264-2.095-1.336h-.034v1.086z" fill="#C94F49"/><path d="M24.998 61.645c1.353 0 1.732-1.417 1.732-3.891 0-1.204-.084-3.561-1.75-3.561-1.928 0-1.813 2.623-1.813 3.956 0 1.333-.017 3.496 1.83 3.496z" fill="#fff"/><path d="M32.833 62.748c-1.979 0-3.282-1.187-3.282-5.143 0-2.77 1.022-4.518 3.282-4.518s3.282 1.748 3.282 4.518c0 3.973-1.271 5.143-3.282 5.143z" fill="#C94F49"/><path d="M32.833 54.193c-1.336 0-1.929 1.055-1.929 3.824 0 2.16.413 3.628 1.93 3.628 1.55 0 1.928-1.467 1.928-3.628 0-2.767-.561-3.824-1.929-3.824z" fill="#fff"/><path d="M38.788 58.315c0 1.203.082 3.33 1.75 3.33 1.417 0 1.55-1.22 1.616-2.34h1.238c-.05 1.762-.708 3.446-2.754 3.446-2.805 0-3.2-2.34-3.2-4.714 0-2.242.362-4.945 3.166-4.945 1.85 0 2.74 1.434 2.724 3.132h-1.222c-.017-1.005-.28-2.029-1.518-2.029-1.9-.002-1.8 2.818-1.8 4.12zm7.5 4.186h-1.303V50.138h1.303v4.204c.626-.792 1.303-1.255 2.294-1.255 1.37 0 2.26.727 2.26 2.34v7.074h-1.303v-6.709c0-.954-.314-1.6-1.37-1.6a1.87 1.87 0 0 0-1.286.512c-.528.48-.595 1.004-.595 1.664V62.5zm12.701 0c-.1.014-.2.037-.297.067-1.104.05-1.516-.05-1.65-1.302h-.034c-.315.809-1.154 1.485-2.03 1.485-1.83 0-2.358-1.022-2.358-2.688 0-.346.05-1.664 1.32-2.226.743-.328 2.59-1.02 2.753-1.153.281-.213.25-.578.25-1.055 0-1.04-.396-1.436-1.452-1.436-1.187 0-1.35.544-1.336 1.616h-1.17c-.066-1.897.875-2.72 2.722-2.72 2.72 0 2.49 2.276 2.49 2.492v5.259c0 .23-.033.56.23.693.186.039.376.044.562.016v.952z" fill="#C94F49"/><path d="M56.844 57.557c-.642.378-1.37.659-2.06.99-.61.28-.809.954-.809 1.583 0 .923.23 1.515 1.288 1.515.495 0 1.584-.379 1.584-1.863v-2.225h-.003z" fill="#fff"/><path d="M61.444 54.838h.033c.545-1.204 1.32-1.715 2.687-1.6v1.286c-1.681-.298-2.67.757-2.67 2.424v5.556h-1.303v-9.167h1.253v1.5zm8.047-1.501h1.302v8.061c0 1.12-.081 1.978-.693 2.95-.578.906-1.519 1.268-2.524 1.268-1.468 0-2.557-.676-2.74-2.242h1.27c.115.825.645 1.139 1.437 1.139 2.11 0 1.897-2.079 1.912-3.084h-.034c-.545.94-1.137 1.32-1.98 1.32-1.731 0-2.936-1.205-2.936-4.897 0-1.928.478-4.765 2.903-4.765.842 0 1.6.413 2.047 1.288h.033v-1.038h.003z" fill="#C94F49"/><path d="M65.863 57.92c0 2.241.379 3.725 1.665 3.725 1.98 0 1.962-2.455 1.962-3.923 0-1.812-.379-3.53-1.83-3.53-1.732 0-1.797 2.492-1.797 3.727z" fill="#fff"/><path d="M77.885 59.451c.082 1.799-.842 3.297-2.771 3.297-1.732 0-2.968-1.153-2.968-4.846 0-1.928.511-4.812 2.937-4.812 2.968 0 2.805 2.803 2.87 4.944h-4.454c.034 1.237-.18 3.611 1.651 3.611 1.252 0 1.6-1.153 1.519-2.194h1.216z" fill="#C94F49"/><path d="M76.6 56.962c-.051-1.072.016-2.77-1.503-2.77-1.516 0-1.55 1.684-1.6 2.77H76.6z" fill="#fff"/><path d="M80.771 54.838h.034c.545-1.204 1.32-1.715 2.687-1.6v1.286c-1.682-.298-2.67.757-2.67 2.424v5.556h-1.303v-9.167h1.252v1.5zm7.318.954c.05-1.088-.348-1.6-1.452-1.6-.923 0-1.449.43-1.449 1.387 0 1.187.972 1.335 1.862 1.714 1.32.593 2.642.923 2.642 2.638 0 1.748-1.222 2.836-3.103 2.82-.808.016-1.797-.264-2.276-.955-.545-.726-.511-1.335-.511-1.961h1.238c-.05 1.122.328 1.813 1.55 1.813 1.055 0 1.748-.43 1.748-1.55 0-1.301-1.32-1.419-2.26-1.815-1.418-.527-2.243-1.004-2.243-2.604 0-1.582 1.104-2.59 2.69-2.59 1.813 0 2.87.826 2.838 2.703h-1.274z" fill="#C94F49"/></svg>