<svg width="140" height="58" viewBox="0 0 140 58" fill="none" xmlns="http://www.w3.org/2000/svg"><path fill-rule="evenodd" clip-rule="evenodd" d="M30.52 0v7.59s-7.59 2.098-7.59 5.651v31.003s1.776 5.49 7.59 5.652v7.59H0v-7.59s7.75-.807 7.75-5.974v-30.52c0-.807-2.744-5.813-7.75-5.813V0h30.52zM140 0v7.59s-7.589 2.098-7.589 5.651v31.003s1.776 5.49 7.589 5.652v7.59h-30.519v-7.59s7.751-.807 7.751-5.974v-30.52c0-.807-2.745-5.813-7.751-5.813V0H140zM59.1 44.245s1.776 5.49 7.751 5.652v7.59h-30.68v-7.59s7.75-.808 7.75-5.974v-30.52c0-.807-2.744-5.813-7.588-5.813V0h30.519v7.59S59.1 9.689 59.1 13.242l.162 11.464h21.315l-.162-11.303c0-.807-2.746-5.813-7.589-5.813V0h30.519v7.59s-7.75 2.099-7.75 5.652v31.003s1.775 5.49 7.75 5.652v7.59h-30.68v-7.59s7.75-.808 7.75-5.974l.162-11.79H59.262L59.1 44.245z" fill="#C94F49"/></svg>