<svg width="140" height="31" viewBox="0 0 140 31" fill="none" xmlns="http://www.w3.org/2000/svg"><path fill-rule="evenodd" clip-rule="evenodd" d="M0 .034v30.47h8.046V7.281h6.514v23.221h8.04V7.283h6.516v23.22h8.044V.034H0zm64.108 0V0H49.273v.034h-5.182v30.47h8.039V23.43h6.515v7.072h8.045V.034h-2.582zM52.13 7.282h6.515v8.872H52.13V7.282zM88.04.034v11.578h-6.516V.034h-8.04v30.47h8.04V18.89h6.515v11.613h8.044V.034H88.04zm31.299 23.174h-8.837V.034h-8.044v30.47l16.881-.018v-7.278zM140 7.317V.038L122.567.034v30.47L140 30.468V23.19h-9.394v-4.228H140V11.68h-9.394V7.317H140z" fill="#C94F49"/></svg>