<svg id="Слой_1" xmlns="http://www.w3.org/2000/svg" viewBox="0 0 624 217"><style>.st0{fill:#ffec9e}.st1{fill:#50c4ed}</style><path class="st0" d="M213.5 81.5C201.2 33.5 157.9 0 108.3 0h-3l-1.4.1-1.6.1-1.7.1-1.1.1C40 5-4.6 57.2 0 117c4.4 56.6 51.8 100.3 108.6 100h3l1.4-.1 1.6-.1 1.7-.1 1.1-.1c59.7-4.8 104.2-57 99.4-116.7-.7-6.2-1.7-12.4-3.3-18.4z"/><path class="st1" d="M108.5 0C168.4 0 217 48.6 217 108.5c0 8.6-1 17.1-3 25.4l-105.5-25.4V0z"/><path id="rect86" class="st0" d="M269.5 98.7h19.4v19.9h-19.4z"/><path id="rect86-2" class="st1" d="M269.5 37.5h19.4v19.9h-19.4z"/></svg>