<svg width="808" height="521" viewBox="0 0 808 521" fill="none" xmlns="http://www.w3.org/2000/svg"><path fill-rule="evenodd" clip-rule="evenodd" d="M77.8 373.13c-1.462 0-2.437.987-2.437 2.467v4.934c0 1.481.975 2.468 2.438 2.468 1.462 0 2.437-.987 2.437-2.468v-4.934c0-1.48-.975-2.467-2.438-2.467z" fill="#151515"/><path fill-rule="evenodd" clip-rule="evenodd" d="M77.8 378.064c-2.924 0-4.874 2.221-4.874 5.551v11.103c0 3.331 1.95 5.552 4.874 5.552 2.925 0 4.875-2.221 4.875-5.552v-11.103c0-3.33-1.95-5.551-4.874-5.551z" fill="#151515"/><path d="M77.8 382.999c-4.037 0-7.31-3.314-7.31-7.402s3.273-7.402 7.31-7.402c4.038 0 7.312 3.314 7.312 7.402s-3.274 7.402-7.312 7.402z" stroke="#262B2E" stroke-width="1.3"/><path fill-rule="evenodd" clip-rule="evenodd" d="M86.49 370.585c-2.391-1.787-5.446 7.649-8.69 7.649-3.243 0-7.175-8.903-9.485-7.649-1.54.837.03 6.538 4.707 17.105h9.506c4.236-10.211 5.556-15.913 3.962-17.105z" fill="#151515"/><path d="M65.615 474.288h24.371v17.271H65.615v-17.271z" fill="#151515"/><path d="M72.926 395.335h9.749v81.421h-9.749v-81.421z" fill="#151515"/><path fill-rule="evenodd" clip-rule="evenodd" d="M87.549 395.335H68.052l2.437 4.935h14.623l2.437-4.935zm373.63-149.555h-37.495v219.208h37.495V245.78z" fill="#151515"/><path fill-rule="evenodd" clip-rule="evenodd" d="M468.677 225.852h-52.491v9.489l7.498 17.081h37.495l7.498-17.081v-9.489zm0 165.118h-52.491v11.387h52.491V390.97zm-3.749-49.346h-44.993v3.796h44.993v-3.796zm-9.373-168.914h-26.246v3.796h26.246v-3.796zm9.373 233.443h-44.993v3.796h44.993v-3.796zm-.75 55.04h-43.493v3.796h43.493v-3.796z" fill="#151515"/><path fill-rule="evenodd" clip-rule="evenodd" d="M453.68 172.71h-22.497v126.211h22.497V172.71zm-7.499-34.163h-7.499v34.163h7.499v-34.163zm0 315.054h-7.499v37.958h7.499v-37.958zm14.998 0h-3.75v65.478h3.75v-65.478zm-33.745 0h-3.75v66.047h3.75v-66.047zm59.616 48.776l-33.183-87.683-3.562 1.328 33.183 87.684 3.562-1.329zm-89.611 1.139l33.932-87.873 3.562 1.328L401 504.845l-3.561-1.329z" fill="#151515"/><path fill-rule="evenodd" clip-rule="evenodd" d="M442.244 454.17l-3.562-1.139-20.622 64.719 3.562 1.139 20.622-64.719z" fill="#151515"/><path fill-rule="evenodd" clip-rule="evenodd" d="M423.684 454.74l3.562-1.139 20.247 63.39-3.562 1.139-20.247-63.39z" fill="#151515"/><path fill-rule="evenodd" clip-rule="evenodd" d="M460.991 454.17l-3.562-1.139-20.621 64.719 3.561 1.139 20.622-64.719z" fill="#151515"/><path fill-rule="evenodd" clip-rule="evenodd" d="M442.432 454.74l3.562-1.139 20.434 64.909-3.562 1.138-20.434-64.908zm-28.871-8.351l-3 2.277 12.374 17.461 2.999-2.278-12.373-17.46zm4.499-18.22l-2.999 2.278 12.373 17.46 2.999-2.277-12.373-17.461zm53.43 17.461l2.812 2.277-12.186 17.081-3-2.087 12.374-17.271zm-3.75-18.6l3 2.088-12.186 17.081-3-2.088 12.186-17.081zm11.248 56.938c-4.686 0-8.436 3.795-8.436 8.54 0 4.745 3.75 8.541 8.436 8.541 4.687 0 8.437-3.796 8.437-8.541 0-4.745-3.75-8.54-8.437-8.54zm-73.113 0c-4.687 0-8.437 3.795-8.437 8.54 0 4.745 3.75 8.541 8.437 8.541 4.686 0 8.436-3.796 8.436-8.541 0-4.745-3.75-8.54-8.436-8.54z" fill="#151515"/><path fill-rule="evenodd" clip-rule="evenodd" d="M422.747 459.864l3.187 2.088-33.182 51.813-3.187-2.088 33.182-51.813zm40.494 1.329l-3.187 2.087 35.619 55.799 3.187-2.088-35.619-55.798z" fill="#151515"/><path fill-rule="evenodd" clip-rule="evenodd" d="M465.678 406.153l-3.749.759 24.558 112.926 3.75-.759-24.559-112.926zm-45.743 0l3.749.759-24.371 110.459-3.749-.759 24.371-110.459zM444.306 0h-3.749v199.281h3.749V0zm107.796 407.102h-43.118v83.508h43.118v-83.508zm104.984 60.733h-39.369v36.061h39.369v-36.061z" fill="#151515"/><path fill-rule="evenodd" clip-rule="evenodd" d="M638.339 473.529H598.97v36.06h39.369v-36.06zm69.364-41.754h-63.74v58.835h63.74v-58.835z" fill="#151515"/><path fill-rule="evenodd" clip-rule="evenodd" d="M612.093 446.958h-63.74v43.652h63.74v-43.652zm-235.276 21.826h-52.492v20.877h52.492v-20.877zm-58.116-43.652h-26.246v66.427h26.246v-66.427zm-31.87 13.286h-41.244v53.141h41.244v-53.141z" fill="#151515"/><path fill-rule="evenodd" clip-rule="evenodd" d="M305.578 478.274h-26.246v36.06h26.246v-36.06zm284.018-40.805h-29.995v43.652h29.995v-43.652zm-50.617-37.959h-29.995v43.652h29.995V399.51zm179.972 70.223h-29.995v43.652h29.995v-43.652zm-488.748-5.237h-40.692v25.13h40.692v-25.13zm-2.26-25.13h-36.171v25.13h36.171v-25.13z" fill="#151515"/><path fill-rule="evenodd" clip-rule="evenodd" d="M225.682 423.375h-31.65v19.418h31.65v-19.418z" fill="#151515"/><path fill-rule="evenodd" clip-rule="evenodd" d="M223.421 406.926h-27.128v18.962h27.128v-18.962z" fill="#151515"/><path fill-rule="evenodd" clip-rule="evenodd" d="M227.943 423.375h-36.171v4.569h36.171v-4.569zm2.26 15.991h-40.692v4.569h40.692v-4.569zm2.261 22.846H187.25v4.569h45.214v-4.569z" fill="#151515"/><path d="M209.857 382.253c-4.521 23.303-13.79 14.393-13.564 25.816.226 8.224 27.128 8.452 27.128 0 0-11.652-8.816-2.742-13.564-25.816z" fill="#151515"/><path fill-rule="evenodd" clip-rule="evenodd" d="M212.118 377.684h-4.521v13.707h4.521v-13.707z" fill="#151515"/><path fill-rule="evenodd" clip-rule="evenodd" d="M216.639 382.253h-13.564v4.569h13.564v-4.569zm-49.735 95.95c-6.33 0-11.303 5.026-11.303 11.423s4.973 11.423 11.303 11.423c6.33 0 11.304-5.026 11.304-11.423s-4.974-11.423-11.304-11.423z" fill="#151515"/><path fill-rule="evenodd" clip-rule="evenodd" d="M169.165 471.35h-4.521c-2.487 0-4.522 2.056-4.522 4.569s2.035 4.569 4.522 4.569h4.521c2.487 0 4.521-2.056 4.521-4.569s-2.034-4.569-4.521-4.569zm4.521-2.285c-1.356 0-2.26.914-2.26 2.285s.904 2.284 2.26 2.284c1.357 0 2.261-.913 2.261-2.284 0-1.371-.904-2.285-2.261-2.285z" fill="#151515"/><path fill-rule="evenodd" clip-rule="evenodd" d="M166.904 466.781c-1.356 0-2.26.913-2.26 2.284v4.569c0 1.371.904 2.285 2.26 2.285 1.357 0 2.261-.914 2.261-2.285v-4.569c0-1.371-.904-2.284-2.261-2.284zm-16.927-1.793h-26.246v28.469h26.246v-28.469z" fill="#151515"/><path fill-rule="evenodd" clip-rule="evenodd" d="M146.227 457.397H127.48l-3.749 7.591v1.898h26.246v-1.898l-3.75-7.591zm-28.12 13.285H95.61v28.469h22.497v-28.469zm-58.117 5.694H37.495v20.877h22.497v-20.877zm-26.245-9.49H0v28.469h33.745v-28.469z" fill="#151515"/><path fill-rule="evenodd" clip-rule="evenodd" d="M138.729 480.172h-22.497v28.468h22.497v-28.468zm-24.372-17.082H99.36l-3.75 7.592v1.898h22.497v-1.898l-3.75-7.592zm-58.116 5.694H41.244l-3.75 6.073v1.519h22.497v-1.519l-3.75-6.073zm-26.246-9.489H3.75L0 466.886v1.898h33.745v-1.898l-3.75-7.591zm353.383 22.775c-4.687 0-8.436 3.795-8.436 8.54 0 4.745 3.749 8.541 8.436 8.541 4.687 0 8.436-3.796 8.436-8.541 0-4.745-3.749-8.54-8.436-8.54z" fill="#151515"/><path fill-rule="evenodd" clip-rule="evenodd" d="M396.501 478.274c-4.687 0-8.436 3.796-8.436 8.54 0 4.745 3.749 8.541 8.436 8.541 4.687 0 8.436-3.796 8.436-8.541 0-4.744-3.749-8.54-8.436-8.54zm20.622 5.694c-4.687 0-8.436 3.795-8.436 8.54 0 4.745 3.749 8.541 8.436 8.541 4.687 0 8.436-3.796 8.436-8.541 0-4.745-3.749-8.54-8.436-8.54z" fill="#151515"/><path fill-rule="evenodd" clip-rule="evenodd" d="M426.497 478.274c-4.687 0-8.437 3.796-8.437 8.54 0 4.745 3.75 8.541 8.437 8.541 4.686 0 8.436-3.796 8.436-8.541 0-4.744-3.75-8.54-8.436-8.54z" fill="#151515"/><path fill-rule="evenodd" clip-rule="evenodd" d="M439.619 482.07c-4.686 0-8.436 3.795-8.436 8.54 0 4.745 3.75 8.541 8.436 8.541 4.687 0 8.437-3.796 8.437-8.541 0-4.745-3.75-8.54-8.437-8.54z" fill="#151515"/><path fill-rule="evenodd" clip-rule="evenodd" d="M447.118 478.274c-4.686 0-8.436 3.796-8.436 8.54 0 4.745 3.75 8.541 8.436 8.541 4.687 0 8.437-3.796 8.437-8.541 0-4.744-3.75-8.54-8.437-8.54z" fill="#151515"/><path fill-rule="evenodd" clip-rule="evenodd" d="M460.241 483.968c-4.686 0-8.436 3.795-8.436 8.54 0 4.745 3.75 8.541 8.436 8.541 4.687 0 8.436-3.796 8.436-8.541 0-4.745-3.749-8.54-8.436-8.54z" fill="#151515"/><path fill-rule="evenodd" clip-rule="evenodd" d="M467.74 480.172c-4.687 0-8.436 3.795-8.436 8.54 0 4.745 3.749 8.541 8.436 8.541 4.687 0 8.436-3.796 8.436-8.541 0-4.745-3.749-8.54-8.436-8.54z" fill="#151515"/><path fill-rule="evenodd" clip-rule="evenodd" d="M482.738 483.968c-4.687 0-8.436 3.795-8.436 8.54 0 4.745 3.749 8.541 8.436 8.541 4.687 0 8.436-3.796 8.436-8.541 0-4.745-3.749-8.54-8.436-8.54z" fill="#151515"/><path fill-rule="evenodd" clip-rule="evenodd" d="M492.111 482.07c-4.686 0-8.436 3.795-8.436 8.54 0 4.745 3.75 8.541 8.436 8.541 4.687 0 8.437-3.796 8.437-8.541 0-4.745-3.75-8.54-8.437-8.54z" fill="#151515"/><path fill-rule="evenodd" clip-rule="evenodd" d="M503.36 474.478c-4.687 0-8.437 3.796-8.437 8.541 0 4.744 3.75 8.54 8.437 8.54 4.686 0 8.436-3.796 8.436-8.54 0-4.745-3.75-8.541-8.436-8.541zm217.466 1.898c-4.687 0-8.436 3.796-8.436 8.54 0 4.745 3.749 8.541 8.436 8.541 4.687 0 8.436-3.796 8.436-8.541 0-4.744-3.749-8.54-8.436-8.54z" fill="#151515"/><path fill-rule="evenodd" clip-rule="evenodd" d="M732.074 480.172c-4.687 0-8.436 3.795-8.436 8.54 0 4.745 3.749 8.541 8.436 8.541 4.687 0 8.436-3.796 8.436-8.541 0-4.745-3.749-8.54-8.436-8.54z" fill="#151515"/><path fill-rule="evenodd" clip-rule="evenodd" d="M745.197 482.07c-4.687 0-8.436 3.795-8.436 8.54 0 4.745 3.749 8.541 8.436 8.541 4.687 0 8.436-3.796 8.436-8.541 0-4.745-3.749-8.54-8.436-8.54z" fill="#151515"/><path fill-rule="evenodd" clip-rule="evenodd" d="M748.947 480.172c-4.687 0-8.437 3.795-8.437 8.54 0 4.745 3.75 8.541 8.437 8.541 4.686 0 8.436-3.796 8.436-8.541 0-4.745-3.75-8.54-8.436-8.54z" fill="#151515"/><path fill-rule="evenodd" clip-rule="evenodd" d="M763.944 476.376c-4.686 0-8.436 3.796-8.436 8.54 0 4.745 3.75 8.541 8.436 8.541 4.687 0 8.436-3.796 8.436-8.541 0-4.744-3.749-8.54-8.436-8.54z" fill="#151515"/><path fill-rule="evenodd" clip-rule="evenodd" d="M777.067 474.478c-5.624 0-10.311 4.745-10.311 10.438 0 5.694 4.687 10.439 10.311 10.439s10.311-4.745 10.311-10.439c0-5.693-4.687-10.438-10.311-10.438z" fill="#151515"/><path fill-rule="evenodd" clip-rule="evenodd" d="M788.316 480.172c-4.687 0-8.437 3.795-8.437 8.54 0 4.745 3.75 8.541 8.437 8.541 4.686 0 8.436-3.796 8.436-8.541 0-4.745-3.75-8.54-8.436-8.54z" fill="#151515"/><path fill-rule="evenodd" clip-rule="evenodd" d="M799.564 485.865c-4.687 0-8.436 3.796-8.436 8.541 0 4.745 3.749 8.541 8.436 8.541 4.687 0 8.436-3.796 8.436-8.541 0-4.745-3.749-8.541-8.436-8.541zm-35.62-3.795c-4.686 0-8.436 3.795-8.436 8.54 0 4.745 3.75 8.541 8.436 8.541 4.687 0 8.436-3.796 8.436-8.541 0-4.745-3.749-8.54-8.436-8.54z" fill="#151515"/><path d="M0 489.661h808v30.367H0v-30.367z" fill="#151515"/></svg>