<svg width="708" height="140" viewBox="0 0 708 140" fill="none" xmlns="http://www.w3.org/2000/svg"><path fill-rule="evenodd" clip-rule="evenodd" d="M133.066 60.74c0-12.378 9.505-22.594 21.98-23.577 2.178-.196 4.158-.196 6.138.197 2.97.59 5.941-.786 7.525-3.34a28.022 28.022 0 0 1 23.564-12.77c3.564 0 7.128.589 10.296 1.964 3.763 1.572 7.921-.197 9.901-3.733C219.203 7.496 232.272-.166 247.321.227c17.821.393 33.266 12.181 37.227 30.06.396 1.965 2.178 3.34 4.158 3.34h10.693v105.7H133.066V60.739zM73.07 82.29H0v57.054h73.07V82.29z" fill="#151515"/><path fill-rule="evenodd" clip-rule="evenodd" d="M72.582 70.28h-21.17v57.459h21.17v-57.46zm277.75 11.01h-42.04v58.054h42.04V81.289zm316.813 41.404h-42.339v10.585h42.339v-10.585zM142.135 82.29H82.078v57.054h60.057V82.29z" fill="#151515"/><path fill-rule="evenodd" clip-rule="evenodd" d="M329.312 112.319h-42.04v27.025h42.04v-27.025z" fill="#151515"/><path d="M388.802 117.153l-.363 4.376h302.838l-.727-4.376L708 60.627H371.352l17.45 56.526z" fill="#151515"/><path d="M410.615 17.229h-6.18l-33.083 43.398 10.179 2.188 29.084-45.586zm20.359 0h-5.453l-26.176 43.398 7.998 2.188 23.631-45.586zm105.793 0h4.727v44.856h-4.727V17.23z" fill="#151515"/><path d="M402.253 21.24h273.754v4.741H402.253v-4.74z" fill="#151515"/><path d="M447.697 17.229h4.727L435.7 64.273l-7.271-2.552 19.268-44.492zm59.986 0h4.727l-9.453 48.503-5.089-3.282 9.815-45.221zm-30.538 0h4.363l-12.361 46.68-6.544-1.094 14.542-45.586zm55.623 43.761c2.909 0-5.453 4.742-11.997 4.742s-17.087-4.741-11.997-4.741c2.545 0 5.453-4.741 11.997-4.741s9.452 4.74 11.997 4.74zm-38.172 0c2.544 0-4.727 4.012-10.18 4.012-5.453 0-14.542-4.011-10.179-4.011 2.181 0 4.726-4.012 10.179-4.012s7.998 4.012 10.18 4.012zm-35.992 0c2.181 0-4.363 4.012-9.816 4.012s-13.815-4.011-9.816-4.011c2.181 0 4.363-4.012 9.816-4.012s7.635 4.012 9.816 4.012zm-31.993.366c1.818 0-3.272 2.917-6.907 2.917-3.636 0-9.816-2.917-6.908-2.917 1.455 0 3.272-2.918 6.908-2.918 3.635 0 5.453 2.918 6.907 2.918zm-29.811-.365c1.454 0-2.545 2.188-5.817 2.188-3.272 0-8.361-2.188-5.816-2.188 1.454 0 2.544-2.188 5.816-2.188s4.363 2.188 5.817 2.188zm271.573-43.762h6.18L708 60.627l-10.179 2.188-29.448-45.586zm-19.996 0h5.09l26.539 43.398-8.361 2.188-23.268-45.586zm-16.723 0h-5.089l16.723 47.044 7.634-2.552-19.268-44.492zm-59.986 0h-5.089l9.452 48.503 5.09-3.282-9.453-45.221zm30.539 0h-4.727l12.725 46.68 6.544-1.094-14.542-45.586zM546.583 60.99c-2.908 0 5.454 4.742 11.998 4.742 6.543 0 17.086-4.741 11.997-4.741-2.545 0-5.454-4.741-11.997-4.741-6.544 0-9.453 4.74-11.998 4.74zm38.173 0c-2.545 0 4.726 4.012 10.18 4.012 5.817 0 14.542-4.011 10.179-4.011-2.181 0-4.726-4.012-10.179-4.012-5.817 0-7.998 4.012-10.18 4.012zm35.628 0c-2.181 0 4.363 4.012 9.816 4.012s13.815-4.011 9.816-4.011c-2.181 0-4.363-4.012-9.816-4.012s-7.634 4.012-9.816 4.012zm32.356.366c-1.817 0 3.272 2.917 6.908 2.917 3.635 0 9.816-2.917 6.907-2.917-1.454 0-3.272-2.918-6.907-2.918-3.636 0-5.453 2.918-6.908 2.918zm29.811-.365c-1.454 0 2.545 2.188 5.817 2.188 3.272 0 8.362-2.188 5.817-2.188-1.454 0-2.545-2.188-5.817-2.188-3.272 0-4.726 2.188-5.817 2.188zM374.137 139.48H704.95l-14.063-22.021H388.7l-14.563 22.021z" fill="#151515"/></svg>