<svg width="542" height="193" viewBox="0 0 542 193" fill="none" xmlns="http://www.w3.org/2000/svg"><path d="M499.9 12.8h-434v19.9h434V12.8zM123 48.7H65.9v19.9H123V48.7zm0 36H65.9v19.9H123V84.7zm0 36H65.9v19.9H123v-19.9zm-28.5 36H65.9v19.9h28.6v-19.9z" fill="#FFEC9E"/><path d="M65.9 0v192.6" stroke="#656A6D" stroke-width=".92" stroke-miterlimit="10"/><path d="M102.93 169.812l1.461-.182c.11.852.354 1.464.73 1.834.382.366.88.548 1.494.548a2.63 2.63 0 0 0 1.918-.797c.542-.531.813-1.14.813-1.826 0-.597-.202-1.09-.606-1.477-.404-.393-.946-.59-1.627-.59-.077 0-.238.011-.481.033l.257-1.253c.144.022.282.033.415.033.858 0 1.516-.207 1.976-.622.465-.421.697-.936.697-1.544 0-.559-.191-1.03-.573-1.411a1.869 1.869 0 0 0-1.386-.573c-.537 0-1.021.196-1.453.589-.426.388-.7.938-.821 1.652l-1.478-.299c.244-1.001.711-1.776 1.403-2.324.692-.548 1.511-.822 2.457-.822.996 0 1.801.302 2.416.905.619.603.929 1.345.929 2.225 0 .642-.169 1.203-.506 1.685-.332.476-.833.871-1.503 1.187.476.282.83.622 1.063 1.021.238.398.357.855.357 1.369 0 1.091-.41 2.037-1.229 2.839-.813.797-1.787 1.196-2.922 1.196-1.101 0-1.992-.308-2.672-.922-.676-.62-1.052-1.444-1.129-2.474zm10.907 3.636l10.052-12.824h1.361l-10.01 12.824h-1.403zm-.722-8.873c0-.227.05-.576.149-1.046.105-.471.257-.891.457-1.262.199-.371.42-.667.664-.888.243-.221.509-.385.797-.49a2.84 2.84 0 0 1 .979-.158c.78 0 1.37.2 1.768.598.404.393.606.971.606 1.735 0 .636-.135 1.309-.407 2.017-.265.708-.633 1.229-1.104 1.561-.464.326-1.023.489-1.676.489-.725 0-1.279-.204-1.66-.614-.382-.415-.573-1.062-.573-1.942zm1.278.274c0 .464.086.794.257.987.177.194.413.291.706.291.349 0 .664-.133.946-.398.288-.272.512-.706.673-1.304.166-.597.249-1.109.249-1.535 0-.371-.094-.656-.283-.855-.188-.2-.434-.299-.738-.299-.321 0-.617.13-.889.39-.271.255-.492.661-.664 1.22-.171.559-.257 1.06-.257 1.503zm6.143 6.043c0-.227.049-.576.149-1.046.105-.471.257-.891.457-1.262.199-.371.42-.667.664-.888a2.39 2.39 0 0 1 .797-.49 2.84 2.84 0 0 1 .979-.158c.78 0 1.37.2 1.768.598.404.393.606.971.606 1.735 0 .636-.136 1.309-.407 2.017-.265.708-.633 1.228-1.104 1.56-.465.327-1.023.49-1.676.49-.725 0-1.279-.205-1.661-.614-.381-.41-.572-1.057-.572-1.942zm1.278.282c0 .459.086.788.257.988.177.193.413.29.706.29.348 0 .664-.133.946-.398.282-.271.506-.703.673-1.295.166-.598.249-1.113.249-1.544 0-.376-.095-.664-.283-.863-.188-.2-.434-.299-.738-.299-.321 0-.617.13-.889.39-.271.254-.492.661-.664 1.22-.171.559-.257 1.063-.257 1.511zM6.042 160.831h8.018l-2.315 10.791h1.112l-.838 3.802H10.59l.548-2.424H2.48l-.548 2.424H.522l.838-3.802h.996c1.428-1.549 2.657-5.146 3.686-10.791zm1.353 1.386c-.16.941-.564 2.488-1.212 4.64-.642 2.153-1.334 3.741-2.075 4.765h6.026l2-9.405H7.396zm8.575 1.968h1.486l-.797 3.677h4.092l.78-3.677h1.47L21.14 173h-1.494l.847-3.943h-4.076L15.571 173h-1.486l1.885-8.815zm9.653-1.652l.357-1.702h1.495l-.357 1.702h-1.494zM23.433 173l1.842-8.815h1.502L24.935 173h-1.503zm5.685-8.815h7.03L34.29 173h-1.495l1.62-7.604h-4.077L28.72 173h-1.486l1.884-8.815zm6.782 12.193l2.548-12.193h1.386l-.257 1.228c.515-.537.974-.907 1.378-1.112a2.79 2.79 0 0 1 1.295-.316c.841 0 1.538.307 2.092.922.553.608.83 1.483.83 2.623 0 .918-.152 1.757-.457 2.515-.304.753-.678 1.358-1.12 1.818-.443.459-.891.797-1.345 1.012a3.212 3.212 0 0 1-1.395.324c-1.056 0-1.875-.537-2.457-1.61l-.996 4.789H35.9zm2.972-6.981c0 .659.047 1.116.14 1.37a1.858 1.858 0 0 0 1.777 1.204c.863 0 1.56-.485 2.092-1.453.531-.974.797-1.967.797-2.98 0-.747-.18-1.323-.54-1.726a1.683 1.683 0 0 0-1.328-.615c-.382 0-.736.103-1.062.307-.327.2-.631.501-.913.905-.277.399-.507.888-.69 1.469-.182.581-.273 1.088-.273 1.519zm7.495.258c0-1.721.507-3.146 1.52-4.275.835-.93 1.93-1.395 3.286-1.395 1.063 0 1.918.332 2.565.996.653.665.98 1.561.98 2.69a6.586 6.586 0 0 1-.615 2.83c-.409.869-.993 1.536-1.75 2.001-.754.465-1.548.697-2.383.697a3.998 3.998 0 0 1-1.876-.44 3.066 3.066 0 0 1-1.287-1.245c-.293-.537-.44-1.156-.44-1.859zm1.503-.15c0 .83.199 1.461.597 1.893.399.426.905.639 1.52.639.32 0 .639-.064.954-.191.315-.133.609-.332.88-.597.271-.266.5-.568.689-.905a5.31 5.31 0 0 0 .465-1.104 5.274 5.274 0 0 0 .257-1.577c0-.797-.202-1.414-.606-1.851a1.945 1.945 0 0 0-1.51-.665c-.471 0-.9.114-1.287.341-.388.221-.74.548-1.055.979-.31.432-.54.936-.689 1.511-.143.57-.215 1.079-.215 1.527zM6.698 131.903c0-2.169.625-3.923 1.876-5.262 1.256-1.345 2.778-2.017 4.565-2.017 1.516 0 2.75.495 3.702 1.485.958.985 1.436 2.308 1.436 3.968 0 1.184-.24 2.283-.722 3.296a7.091 7.091 0 0 1-1.361 1.967 6.39 6.39 0 0 1-1.76 1.27 6.03 6.03 0 0 1-2.64.598 5.218 5.218 0 0 1-2.664-.698 4.565 4.565 0 0 1-1.818-1.942 5.979 5.979 0 0 1-.614-2.665zm1.602.083c0 .714.146 1.37.44 1.968a3.279 3.279 0 0 0 1.328 1.402 3.653 3.653 0 0 0 1.85.507c.626 0 1.221-.147 1.786-.44a5.074 5.074 0 0 0 1.51-1.237c.449-.531.8-1.181 1.055-1.951a7.14 7.14 0 0 0 .39-2.282c0-1.212-.34-2.178-1.021-2.897-.675-.72-1.511-1.079-2.507-1.079-1.273 0-2.396.545-3.37 1.635-.974 1.084-1.461 2.543-1.461 4.374zm13.862-6.059l.282-1.303h1.088c1.389 0 2.426.362 3.113 1.087.691.725 1.037 1.865 1.037 3.42 0 2.512-.423 4.485-1.27 5.918-.841 1.434-2.05 2.15-3.627 2.15-1.024 0-1.876-.31-2.557-.929-.68-.62-1.021-1.536-1.021-2.748 0-1.55.465-2.858 1.395-3.926.93-1.074 2.042-1.611 3.337-1.611.564 0 1.048.128 1.452.382.404.249.728.628.971 1.137 0-.769-.038-1.339-.116-1.71a2.277 2.277 0 0 0-.49-1.021 2.046 2.046 0 0 0-.97-.655c-.394-.133-.944-.2-1.653-.2l-.97.009zm-1.453 7.661c0 .714.186 1.293.557 1.735.37.443.89.664 1.56.664.969 0 1.746-.465 2.333-1.394a5.57 5.57 0 0 0 .88-3.013c0-.687-.183-1.259-.548-1.719-.366-.459-.875-.689-1.528-.689-.996 0-1.787.46-2.374 1.378a5.533 5.533 0 0 0-.88 3.038zm14.104.415l1.46.15c-.21.725-.694 1.414-1.452 2.067-.753.653-1.652.979-2.698.979a3.698 3.698 0 0 1-1.801-.448 3.021 3.021 0 0 1-1.245-1.32c-.283-.575-.424-1.231-.424-1.967 0-.963.222-1.895.664-2.797.449-.908 1.027-1.58 1.735-2.018a4.265 4.265 0 0 1 2.3-.664c1.051 0 1.89.327 2.515.98.63.653.946 1.544.946 2.673 0 .431-.039.874-.116 1.328h-6.491a3.64 3.64 0 0 0-.034.465c0 .824.188 1.455.565 1.892.382.432.847.648 1.394.648.515 0 1.021-.169 1.52-.507.497-.337.885-.824 1.161-1.461zm-4.367-2.183h4.948c.005-.155.008-.265.008-.332 0-.752-.188-1.328-.565-1.726-.376-.404-.86-.606-1.452-.606-.642 0-1.229.221-1.76.664-.526.443-.919 1.109-1.179 2zm13.24 1.968l1.502.157c-.376 1.102-.913 1.921-1.61 2.457a3.776 3.776 0 0 1-2.366.797c-.957 0-1.735-.31-2.332-.929-.592-.62-.888-1.486-.888-2.599 0-.963.19-1.909.573-2.838.381-.93.926-1.636 1.635-2.117.714-.487 1.527-.731 2.44-.731.946 0 1.696.269 2.25.806.553.531.83 1.236.83 2.116l-1.478.1c-.005-.559-.169-.996-.49-1.312-.315-.315-.733-.473-1.253-.473-.603 0-1.126.191-1.569.573-.443.382-.791.963-1.046 1.743a7.315 7.315 0 0 0-.373 2.241c0 .753.166 1.317.498 1.694.332.376.741.564 1.228.564s.952-.185 1.395-.556c.448-.371.8-.935 1.054-1.693zm8.359 2.116c-.52.449-1.021.778-1.503.988a3.9 3.9 0 0 1-1.544.307c-.813 0-1.469-.238-1.967-.714-.498-.481-.747-1.095-.747-1.842 0-.493.11-.927.332-1.304.227-.381.526-.686.897-.913.37-.232.824-.398 1.361-.498.338-.066.977-.119 1.917-.157.947-.039 1.625-.139 2.034-.299.116-.41.174-.75.174-1.021 0-.349-.127-.623-.381-.822-.349-.277-.858-.415-1.528-.415-.63 0-1.148.141-1.552.423-.398.277-.689.673-.871 1.187l-1.52-.133c.31-.874.8-1.544 1.47-2.008.675-.465 1.524-.698 2.548-.698 1.09 0 1.953.26 2.59.781.487.387.73.891.73 1.51 0 .471-.069 1.016-.207 1.636l-.49 2.191c-.155.697-.232 1.265-.232 1.702 0 .276.06.675.182 1.195H52.22a5.544 5.544 0 0 1-.174-1.096zm.556-3.37c-.21.083-.437.147-.68.191-.239.044-.64.091-1.204.141-.875.078-1.492.177-1.851.299-.36.116-.631.304-.814.564a1.472 1.472 0 0 0-.274.864c0 .42.144.766.432 1.037.293.272.708.407 1.245.407.498 0 .977-.13 1.436-.39a2.9 2.9 0 0 0 1.087-1.104c.266-.47.474-1.14.623-2.009zM3.494 101l5.81-6.15-3.444-6.02h1.793l1.57 2.756c.414.725.652 1.148.713 1.27.144.271.302.595.473.971.41-.553 1.043-1.281 1.901-2.183l2.673-2.814h2.125l-5.885 6.284L14.559 101H12.79l-1.976-3.561a21.554 21.554 0 0 1-.672-1.345c-.3.404-.664.833-1.096 1.287L5.652 101H3.494zm18.386-1.096c-.52.449-1.021.778-1.503.988a3.899 3.899 0 0 1-1.543.307c-.814 0-1.47-.238-1.968-.714-.498-.481-.747-1.095-.747-1.842 0-.493.11-.927.332-1.304.227-.382.526-.686.897-.913.37-.232.824-.398 1.361-.498.338-.066.977-.119 1.918-.157.946-.04 1.624-.139 2.033-.3.116-.409.174-.75.174-1.02 0-.349-.127-.623-.381-.822-.349-.277-.858-.415-1.528-.415-.63 0-1.148.141-1.552.423-.398.277-.689.673-.872 1.187l-1.519-.133c.31-.874.8-1.544 1.47-2.008.675-.465 1.524-.698 2.548-.698 1.09 0 1.953.26 2.59.78.487.388.73.892.73 1.511 0 .47-.069 1.016-.207 1.636l-.49 2.191c-.155.697-.232 1.265-.232 1.702 0 .276.06.675.182 1.195h-1.519a5.544 5.544 0 0 1-.174-1.096zm.556-3.37a3.61 3.61 0 0 1-.68.191c-.239.044-.64.091-1.204.141-.875.078-1.492.177-1.851.299-.36.116-.631.304-.814.564-.182.26-.274.548-.274.864 0 .42.144.766.432 1.037.293.272.708.407 1.245.407.498 0 .977-.13 1.436-.39.46-.266.822-.634 1.088-1.104.265-.47.473-1.14.622-2.009zm2.225 7.844l2.548-12.193h1.386l-.257 1.228c.514-.537.974-.907 1.378-1.112.41-.21.841-.316 1.295-.316.84 0 1.538.308 2.091.922.554.609.83 1.483.83 2.623 0 .918-.152 1.757-.456 2.515-.304.752-.678 1.358-1.12 1.818-.443.459-.892.797-1.345 1.012a3.211 3.211 0 0 1-1.395.324c-1.057 0-1.876-.537-2.457-1.61l-.996 4.789h-1.502zm2.971-6.98c0 .658.047 1.115.141 1.37a1.857 1.857 0 0 0 1.777 1.203c.863 0 1.56-.484 2.092-1.453.53-.974.796-1.967.796-2.98 0-.747-.18-1.322-.54-1.727a1.684 1.684 0 0 0-1.327-.614c-.382 0-.736.103-1.063.307-.326.2-.63.501-.913.905-.276.399-.506.888-.689 1.47-.182.58-.274 1.087-.274 1.518zm9.123-5.213h1.47l-.84 3.768.266.008c.415 0 .753-.105 1.013-.315.26-.216.63-.72 1.112-1.51.498-.814.919-1.343 1.262-1.586.349-.244.816-.365 1.403-.365h.697l-.274 1.203h-.357c-.37 0-.628.05-.772.15-.138.1-.346.387-.622.863-.377.653-.706 1.12-.988 1.403a2.994 2.994 0 0 1-1.087.656c.37.143.666.35.888.622.227.271.445.684.655 1.237l1.03 2.681h-1.552l-.83-2.208c-.31-.819-.598-1.345-.864-1.577-.265-.233-.653-.349-1.162-.349L36.307 101H34.82l1.934-8.815zm8.276-1.652l.357-1.702h1.494l-.357 1.702H45.03zM42.839 101l1.843-8.815h1.503L44.342 101h-1.503zm9.72-4.615c.56.194.977.462 1.254.805.277.338.415.75.415 1.237 0 .675-.299 1.306-.897 1.892-.597.587-1.477.88-2.64.88-.873 0-1.565-.146-2.074-.44a3.24 3.24 0 0 1-1.22-1.253 3.751 3.751 0 0 1-.449-1.826c0-1.566.451-2.906 1.353-4.018.902-1.118 2.117-1.677 3.644-1.677.919 0 1.619.213 2.1.64.482.42.723.938.723 1.552 0 .559-.186 1.023-.557 1.394-.365.365-.915.637-1.651.814zm-3.785-.623c.404.033.753.05 1.046.05 1.14 0 1.992-.124 2.557-.373.57-.255.855-.631.855-1.13 0-.326-.125-.597-.374-.813-.243-.216-.564-.324-.962-.324-.687 0-1.32.233-1.901.698-.581.459-.988 1.09-1.22 1.892zm-.24 1.17a4.391 4.391 0 0 0-.058.706c0 .697.199 1.27.597 1.718.399.443.971.665 1.718.665.582 0 1.044-.153 1.387-.457.348-.31.523-.686.523-1.129 0-.609-.241-1.013-.723-1.212-.48-.2-1.364-.299-2.647-.299-.122 0-.388.003-.797.009zM17.148 52.831h7.986L22.519 65h-1.635l2.332-10.783H18.46l-1.444 6.674c-.377 1.749-.78 2.894-1.212 3.437-.426.536-1.113.805-2.059.805-.238 0-.595-.044-1.07-.133l.29-1.386c.465.088.744.133.838.133.332 0 .62-.175.863-.523.25-.354.496-1.093.74-2.217l1.742-8.176zm9.779 3.354h1.502l-.755 3.411h1.602c1.024 0 1.754.075 2.191.224.438.15.78.424 1.03.822.249.393.373.833.373 1.32 0 .586-.171 1.148-.514 1.685-.338.537-.756.896-1.254 1.08-.498.182-1.273.273-2.324.273h-3.752l1.9-8.815zm-.166 7.62h1.917c.753 0 1.281-.05 1.586-.15.31-.1.57-.28.78-.54.21-.265.315-.586.315-.962 0-.332-.094-.614-.282-.847-.183-.232-.396-.373-.639-.423-.238-.056-.678-.083-1.32-.083h-1.71l-.647 3.005zm13.132-3.42c.559.194.976.462 1.253.805.277.338.415.75.415 1.237 0 .675-.299 1.306-.896 1.892-.598.587-1.478.88-2.64.88-.874 0-1.566-.146-2.075-.44a3.243 3.243 0 0 1-1.22-1.253 3.751 3.751 0 0 1-.449-1.826c0-1.566.451-2.906 1.353-4.018.902-1.118 2.117-1.677 3.644-1.677.919 0 1.619.213 2.1.64.482.42.723.938.723 1.552 0 .559-.186 1.023-.557 1.394-.365.366-.915.637-1.651.814zm-3.786-.623c.404.033.753.05 1.046.05 1.14 0 1.992-.124 2.557-.373.57-.255.855-.631.855-1.13 0-.326-.125-.597-.374-.813-.243-.216-.564-.324-.963-.324-.686 0-1.32.233-1.9.698-.581.459-.988 1.09-1.22 1.892zm-.24 1.17a4.391 4.391 0 0 0-.058.706c0 .697.199 1.27.597 1.718.399.443.971.664 1.718.664.582 0 1.044-.152 1.387-.456.348-.31.523-.686.523-1.129 0-.609-.241-1.013-.722-1.212-.482-.2-1.365-.299-2.648-.299-.122 0-.388.003-.797.009zm9.164-6.4l.357-1.7h1.494l-.357 1.7H45.03zM42.839 65l1.843-8.815h1.503L44.342 65h-1.503zm9.72-4.615c.56.194.977.462 1.254.805.277.338.415.75.415 1.237 0 .675-.299 1.306-.897 1.892-.597.587-1.477.88-2.64.88-.873 0-1.565-.146-2.074-.44a3.242 3.242 0 0 1-1.22-1.253 3.751 3.751 0 0 1-.449-1.826c0-1.566.451-2.906 1.353-4.018.902-1.118 2.117-1.677 3.644-1.677.919 0 1.619.213 2.1.64.482.42.723.938.723 1.552 0 .559-.186 1.023-.557 1.394-.365.366-.915.637-1.651.814zm-3.785-.623c.404.033.753.05 1.046.05 1.14 0 1.992-.124 2.557-.373.57-.255.855-.631.855-1.13 0-.326-.125-.597-.374-.813-.243-.216-.564-.324-.962-.324-.687 0-1.32.233-1.901.698-.581.459-.988 1.09-1.22 1.892zm-.24 1.17a4.391 4.391 0 0 0-.058.706c0 .697.199 1.27.597 1.718.399.443.971.664 1.718.664.582 0 1.044-.152 1.387-.456.348-.31.523-.686.523-1.129 0-.609-.241-1.013-.723-1.212-.48-.2-1.364-.299-2.647-.299-.122 0-.388.003-.797.009zM27.163 16.831h1.635l-1.137 5.362c.498 0 .905-.066 1.22-.199.316-.138.648-.41.996-.813.35-.404.709-.93 1.08-1.578.592-1.045 1.02-1.715 1.286-2.008a2.34 2.34 0 0 1 .98-.648 3.298 3.298 0 0 1 1.129-.207c.05 0 .368.022.954.066l-.282 1.353c-.055 0-.158-.008-.307-.025a4.682 4.682 0 0 0-.457-.041c-.288 0-.542.108-.763.323-.227.216-.512.615-.855 1.196-.67 1.14-1.21 1.92-1.62 2.34a2.919 2.919 0 0 1-1.443.822c.824.316 1.555 1.254 2.191 2.814L33.148 29h-1.785l-1.154-2.847c-.459-1.13-.871-1.882-1.236-2.258-.366-.382-.883-.587-1.553-.614L26.2 29h-1.635l2.598-12.169zm13.29 10.575c-1.057 1.196-2.14 1.793-3.246 1.793-.68 0-1.231-.194-1.652-.58a1.903 1.903 0 0 1-.622-1.437c0-.37.094-1.007.282-1.91l1.062-5.087h1.503L36.6 25.82c-.1.47-.15.835-.15 1.095 0 .332.1.593.3.78.204.183.503.275.896.275.42 0 .83-.103 1.229-.307.404-.205.75-.482 1.037-.83a4.29 4.29 0 0 0 .714-1.237c.122-.305.263-.839.423-1.602l.797-3.81h1.503L41.507 29H40.12l.332-1.594zM43.839 29l1.843-8.815h1.503L45.342 29h-1.503zm.407-10.185l.357-1.702h1.569l-.357 1.702h-1.569zm3.063 0l.357-1.702h1.56l-.348 1.702h-1.569zm6.25 5.57c.56.193.977.462 1.254.805.277.337.415.75.415 1.237 0 .675-.299 1.306-.897 1.892-.597.587-1.477.88-2.64.88-.873 0-1.565-.146-2.074-.44a3.242 3.242 0 0 1-1.22-1.253 3.751 3.751 0 0 1-.449-1.826c0-1.566.451-2.906 1.353-4.018.902-1.118 2.117-1.677 3.644-1.677.919 0 1.619.213 2.1.64.482.42.723.938.723 1.552 0 .559-.186 1.024-.557 1.394-.365.365-.915.637-1.651.814zm-3.785-.623c.404.033.753.05 1.046.05 1.14 0 1.992-.125 2.557-.373.57-.255.855-.631.855-1.13 0-.326-.125-.597-.374-.813-.243-.216-.564-.324-.962-.324-.687 0-1.32.233-1.901.698-.581.459-.988 1.09-1.22 1.892zm-.24 1.17a4.391 4.391 0 0 0-.058.706c0 .697.199 1.27.597 1.718.399.443.971.664 1.718.664.582 0 1.044-.152 1.387-.456.348-.31.523-.686.523-1.129 0-.609-.241-1.013-.723-1.212-.48-.2-1.364-.299-2.647-.299-.122 0-.388.003-.797.009zm83.886 105.012c.42-.348.838-.608 1.253-.78a3.197 3.197 0 0 1 1.245-.266c.925 0 1.688.316 2.291.947.604.631.905 1.48.905 2.548 0 1.378-.448 2.559-1.344 3.545-.775.846-1.716 1.27-2.823 1.27-1.007 0-1.848-.368-2.523-1.104-.67-.742-1.005-1.796-1.005-3.163 0-1.223.216-2.488.648-3.794.332-1.001.741-1.826 1.228-2.473.493-.653 1.013-1.132 1.561-1.436.553-.305 1.176-.457 1.868-.457.83 0 1.508.26 2.033.781.526.514.825 1.253.897 2.216l-1.395.133c-.077-.659-.265-1.135-.564-1.428a1.468 1.468 0 0 0-1.079-.44c-.449 0-.9.174-1.353.523-.454.349-.844.866-1.171 1.552-.326.681-.55 1.29-.672 1.826zm-.523 3.636c0 .686.213 1.265.639 1.735.426.465.908.697 1.444.697.377 0 .775-.141 1.196-.423.42-.288.777-.722 1.071-1.303.293-.581.44-1.16.44-1.735 0-.742-.205-1.334-.615-1.777-.404-.448-.893-.672-1.469-.672-.664 0-1.281.327-1.851.98-.57.647-.855 1.48-.855 2.498zm8.94 3.868l10.052-12.824h1.361l-10.01 12.824h-1.403zm-.722-8.873c0-.227.05-.576.149-1.046.105-.471.257-.891.457-1.262.199-.371.42-.667.664-.888.243-.221.509-.385.797-.49a2.84 2.84 0 0 1 .979-.158c.78 0 1.37.2 1.768.598.404.393.606.971.606 1.735 0 .636-.135 1.309-.407 2.017-.265.708-.633 1.229-1.104 1.561-.464.326-1.023.489-1.676.489-.725 0-1.279-.204-1.66-.614-.382-.415-.573-1.062-.573-1.942zm1.278.274c0 .464.086.794.257.987.177.194.413.291.706.291.349 0 .664-.133.946-.398.288-.272.512-.706.673-1.304.166-.597.249-1.109.249-1.535 0-.371-.094-.656-.283-.855-.188-.2-.434-.299-.738-.299-.321 0-.617.13-.889.39-.271.255-.492.661-.664 1.22-.171.559-.257 1.06-.257 1.503zm6.143 6.043c0-.227.049-.576.149-1.046.105-.471.257-.891.457-1.262.199-.371.42-.667.664-.888a2.39 2.39 0 0 1 .797-.49 2.84 2.84 0 0 1 .979-.158c.78 0 1.37.2 1.768.598.404.393.606.971.606 1.735 0 .636-.136 1.309-.407 2.017-.265.708-.633 1.228-1.104 1.56-.465.327-1.023.49-1.676.49-.725 0-1.279-.205-1.661-.614-.381-.41-.572-1.057-.572-1.942zm1.278.282c0 .459.086.788.257.988.177.193.413.29.706.29.348 0 .664-.133.946-.398.282-.271.506-.703.673-1.295.166-.598.249-1.113.249-1.544 0-.376-.095-.664-.283-.863-.188-.2-.434-.299-.738-.299-.321 0-.617.13-.889.39-.271.254-.492.661-.664 1.22-.171.559-.257 1.063-.257 1.511zm-16.394-41.23c.42-.348.838-.608 1.253-.78a3.194 3.194 0 0 1 1.245-.266c.925 0 1.688.316 2.291.947.604.63.905 1.48.905 2.548 0 1.378-.448 2.56-1.344 3.544-.775.847-1.716 1.271-2.823 1.271-1.007 0-1.848-.368-2.523-1.104-.67-.742-1.005-1.796-1.005-3.163 0-1.223.216-2.487.648-3.794.332-1.001.741-1.826 1.228-2.473.493-.653 1.013-1.132 1.561-1.436.553-.305 1.176-.457 1.868-.457.83 0 1.508.26 2.033.78.526.515.825 1.254.897 2.217l-1.395.133c-.077-.659-.265-1.135-.564-1.428a1.467 1.467 0 0 0-1.079-.44c-.449 0-.9.174-1.353.523-.454.349-.844.866-1.171 1.552-.326.68-.55 1.29-.672 1.826zm-.523 3.636c0 .686.213 1.265.639 1.735.426.465.908.697 1.444.697.377 0 .775-.14 1.196-.423.42-.288.777-.722 1.071-1.303.293-.581.44-1.16.44-1.735 0-.742-.205-1.334-.615-1.777-.404-.448-.893-.672-1.469-.672-.664 0-1.281.326-1.851.98-.57.647-.855 1.48-.855 2.498zm8.94 3.868l10.052-12.824h1.361l-10.01 12.824h-1.403zm-.722-8.873c0-.227.05-.576.149-1.046.105-.47.257-.891.457-1.262.199-.37.42-.667.664-.888.243-.221.509-.385.797-.49a2.84 2.84 0 0 1 .979-.158c.78 0 1.37.2 1.768.598.404.393.606.971.606 1.735 0 .636-.135 1.309-.407 2.017-.265.708-.633 1.229-1.104 1.56-.464.327-1.023.49-1.676.49-.725 0-1.279-.204-1.66-.614-.382-.415-.573-1.062-.573-1.942zm1.278.274c0 .465.086.794.257.987.177.194.413.291.706.291.349 0 .664-.133.946-.398.288-.272.512-.706.673-1.304.166-.597.249-1.11.249-1.535 0-.371-.094-.656-.283-.855-.188-.2-.434-.3-.738-.3-.321 0-.617.13-.889.391-.271.254-.492.661-.664 1.22-.171.56-.257 1.06-.257 1.503zm6.143 6.043c0-.227.049-.576.149-1.046.105-.47.257-.891.457-1.262.199-.37.42-.667.664-.888a2.4 2.4 0 0 1 .797-.49 2.84 2.84 0 0 1 .979-.158c.78 0 1.37.2 1.768.598.404.393.606.971.606 1.735 0 .636-.136 1.309-.407 2.017-.265.708-.633 1.228-1.104 1.56-.465.327-1.023.49-1.676.49-.725 0-1.279-.205-1.661-.614-.381-.41-.572-1.057-.572-1.942zm1.278.282c0 .46.086.788.257.988.177.193.413.29.706.29.348 0 .664-.133.946-.398.282-.271.506-.703.673-1.295.166-.598.249-1.112.249-1.544 0-.377-.095-.664-.283-.863-.188-.2-.434-.3-.738-.3-.321 0-.617.13-.889.39-.271.255-.492.662-.664 1.221-.171.559-.257 1.063-.257 1.51zm-16.394-41.23c.42-.348.838-.608 1.253-.78a3.194 3.194 0 0 1 1.245-.266c.925 0 1.688.316 2.291.947.604.63.905 1.48.905 2.548 0 1.378-.448 2.56-1.344 3.544-.775.847-1.716 1.27-2.823 1.27-1.007 0-1.848-.367-2.523-1.103-.67-.742-1.005-1.796-1.005-3.163 0-1.223.216-2.488.648-3.794.332-1.001.741-1.826 1.228-2.473.493-.653 1.013-1.132 1.561-1.436.553-.305 1.176-.457 1.868-.457.83 0 1.508.26 2.033.78.526.515.825 1.254.897 2.217l-1.395.133c-.077-.659-.265-1.135-.564-1.428a1.467 1.467 0 0 0-1.079-.44c-.449 0-.9.174-1.353.523-.454.349-.844.866-1.171 1.552-.326.68-.55 1.29-.672 1.826zm-.523 3.636c0 .686.213 1.265.639 1.735.426.465.908.697 1.444.697.377 0 .775-.14 1.196-.423.42-.288.777-.722 1.071-1.303.293-.581.44-1.16.44-1.735 0-.742-.205-1.334-.615-1.777-.404-.448-.893-.672-1.469-.672-.664 0-1.281.327-1.851.98-.57.647-.855 1.48-.855 2.498zm8.94 3.868l10.052-12.824h1.361l-10.01 12.824h-1.403zm-.722-8.873c0-.227.05-.576.149-1.046.105-.47.257-.891.457-1.262.199-.37.42-.667.664-.888.243-.221.509-.385.797-.49a2.84 2.84 0 0 1 .979-.158c.78 0 1.37.2 1.768.598.404.393.606.971.606 1.735 0 .636-.135 1.309-.407 2.017-.265.708-.633 1.229-1.104 1.56-.464.327-1.023.49-1.676.49-.725 0-1.279-.204-1.66-.614-.382-.415-.573-1.062-.573-1.942zm1.278.274c0 .465.086.794.257.987.177.194.413.291.706.291.349 0 .664-.133.946-.399.288-.27.512-.705.673-1.303.166-.597.249-1.11.249-1.535 0-.371-.094-.656-.283-.855-.188-.2-.434-.3-.738-.3-.321 0-.617.13-.889.391-.271.255-.492.661-.664 1.22-.171.56-.257 1.06-.257 1.503zm6.143 6.043c0-.227.049-.576.149-1.046.105-.47.257-.891.457-1.262.199-.37.42-.667.664-.888a2.4 2.4 0 0 1 .797-.49 2.84 2.84 0 0 1 .979-.158c.78 0 1.37.2 1.768.598.404.393.606.971.606 1.735 0 .636-.136 1.309-.407 2.017-.265.708-.633 1.228-1.104 1.56-.465.327-1.023.49-1.676.49-.725 0-1.279-.204-1.661-.614-.381-.41-.572-1.057-.572-1.942zm1.278.282c0 .46.086.788.257.988.177.193.413.29.706.29.348 0 .664-.133.946-.398.282-.271.506-.703.673-1.295.166-.598.249-1.112.249-1.544 0-.377-.095-.664-.283-.863-.188-.2-.434-.3-.738-.3-.321 0-.617.13-.889.39-.271.255-.492.662-.664 1.221-.171.559-.257 1.063-.257 1.51zM509.465 29c.133-.819.415-1.804.847-2.955a23.82 23.82 0 0 1 2.025-4.134c.836-1.372 1.766-2.551 2.789-3.536h-6.067l.29-1.378h7.77l-.283 1.378c-1.317 1.157-2.468 2.648-3.453 4.474-1.145 2.108-1.928 4.159-2.349 6.151h-1.569zm8.202-3.993c0-1.029.152-2.075.456-3.137.31-1.063.653-1.912 1.029-2.549.377-.636.767-1.134 1.171-1.494.404-.36.799-.622 1.187-.788a3.22 3.22 0 0 1 1.303-.258c.93 0 1.704.346 2.324 1.038.626.692.938 1.69.938 2.996 0 1.345-.216 2.676-.647 3.993-.509 1.56-1.218 2.731-2.125 3.511-.698.593-1.492.889-2.383.889-.913 0-1.685-.357-2.316-1.071-.625-.72-.937-1.763-.937-3.13zm1.452.382c0 .747.125 1.331.374 1.752.337.58.838.871 1.502.871.581 0 1.11-.263 1.586-.788.686-.742 1.2-1.826 1.544-3.254.348-1.433.522-2.604.522-3.511 0-.875-.168-1.506-.506-1.893-.332-.387-.772-.581-1.32-.581a2.17 2.17 0 0 0-1.12.307c-.343.205-.673.556-.988 1.054-.448.703-.838 1.754-1.171 3.154-.282 1.196-.423 2.159-.423 2.89zm9.181 4.06l10.052-12.826h1.361l-10.01 12.825H528.3zm-.722-8.874c0-.227.049-.576.149-1.046.105-.47.257-.891.457-1.262.199-.37.42-.667.664-.888.243-.221.509-.385.797-.49a2.84 2.84 0 0 1 .979-.158c.78 0 1.37.2 1.768.598.404.393.606.971.606 1.735 0 .636-.136 1.309-.407 2.017-.265.708-.633 1.229-1.104 1.56-.465.327-1.023.49-1.676.49-.725 0-1.279-.204-1.661-.614-.381-.415-.572-1.062-.572-1.942zm1.278.274c0 .465.086.794.257.987.177.194.413.291.706.291.348 0 .664-.133.946-.398.288-.272.512-.706.673-1.304.166-.597.249-1.11.249-1.535 0-.371-.095-.656-.283-.855-.188-.2-.434-.3-.738-.3-.321 0-.617.13-.889.391-.271.255-.492.661-.664 1.22-.171.56-.257 1.06-.257 1.503zm6.143 6.043c0-.227.049-.576.149-1.046.105-.47.257-.891.456-1.262a3.3 3.3 0 0 1 .665-.888c.243-.222.509-.385.796-.49a2.85 2.85 0 0 1 .98-.158c.78 0 1.37.2 1.768.598.404.393.606.971.606 1.735 0 .636-.136 1.309-.407 2.017-.265.708-.633 1.229-1.104 1.56-.465.327-1.024.49-1.677.49-.724 0-1.278-.204-1.66-.614-.382-.41-.572-1.057-.572-1.942zm1.278.282c0 .46.086.788.257.988.177.193.412.29.706.29.348 0 .664-.133.946-.398.282-.271.506-.703.672-1.295.166-.598.249-1.113.249-1.544 0-.377-.094-.664-.282-.863-.188-.2-.434-.3-.739-.3-.321 0-.617.13-.888.39-.271.255-.492.662-.664 1.221-.171.559-.257 1.063-.257 1.51z" fill="#8293A1"/></svg>