<svg width="577" height="227" viewBox="0 0 577 227" fill="none" xmlns="http://www.w3.org/2000/svg"><path d="M531.9 12.7H159.4v19.9h372.5V12.7zm-200.2 36H159.4v19.9h172.3V48.7zm-61 36H159.4v19.9h111.3V84.7zm-54.2 36h-57.1v19.9h57.1v-19.9zm-28.6 36h-28.5v19.9h28.5v-19.9zm-6 35.9h-22.5v19.9h22.5v-19.9z" fill="#50C4ED"/><path d="M159.4 0v227" stroke="#656A6D" stroke-miterlimit="10"/><path d="M192.93 205.812l1.461-.182c.11.852.354 1.464.73 1.834.382.366.88.548 1.494.548a2.63 2.63 0 0 0 1.918-.797c.542-.531.813-1.14.813-1.826 0-.597-.202-1.09-.606-1.477-.404-.393-.946-.59-1.627-.59-.077 0-.238.011-.481.033l.257-1.253c.144.022.282.033.415.033.858 0 1.516-.207 1.976-.622.465-.421.697-.936.697-1.544 0-.559-.191-1.03-.573-1.411a1.869 1.869 0 0 0-1.386-.573c-.537 0-1.021.196-1.453.589-.426.388-.7.938-.821 1.652l-1.478-.299c.244-1.001.711-1.776 1.403-2.324.692-.548 1.511-.822 2.457-.822.996 0 1.801.302 2.416.905.619.603.929 1.345.929 2.225 0 .642-.169 1.203-.506 1.685-.332.476-.833.871-1.503 1.187.476.282.83.622 1.063 1.021.238.398.357.855.357 1.369 0 1.091-.41 2.037-1.229 2.839-.813.797-1.787 1.196-2.922 1.196-1.101 0-1.992-.308-2.672-.922-.676-.62-1.052-1.444-1.129-2.474zm10.907 3.636l10.052-12.824h1.361l-10.01 12.824h-1.403zm-.722-8.873c0-.227.05-.576.149-1.046.105-.471.257-.891.457-1.262.199-.371.42-.667.664-.888.243-.221.509-.385.797-.49a2.84 2.84 0 0 1 .979-.158c.78 0 1.37.2 1.768.598.404.393.606.971.606 1.735 0 .636-.135 1.309-.407 2.017-.265.708-.633 1.229-1.104 1.561-.464.326-1.023.489-1.676.489-.725 0-1.279-.204-1.66-.614-.382-.415-.573-1.062-.573-1.942zm1.278.274c0 .464.086.794.257.987.177.194.413.291.706.291.349 0 .664-.133.946-.398.288-.272.512-.706.673-1.304.166-.597.249-1.109.249-1.535 0-.371-.094-.656-.283-.855-.188-.2-.434-.299-.738-.299-.321 0-.617.13-.889.39-.271.255-.492.661-.664 1.22-.171.559-.257 1.06-.257 1.503zm6.143 6.043c0-.227.049-.576.149-1.046.105-.471.257-.891.457-1.262.199-.371.42-.667.664-.888a2.39 2.39 0 0 1 .797-.49 2.84 2.84 0 0 1 .979-.158c.78 0 1.37.2 1.768.598.404.393.606.971.606 1.735 0 .636-.136 1.309-.407 2.017-.265.708-.633 1.228-1.104 1.56-.465.327-1.023.49-1.676.49-.725 0-1.279-.205-1.661-.614-.381-.41-.572-1.057-.572-1.942zm1.278.282c0 .459.086.788.257.988.177.193.413.29.706.29.348 0 .664-.133.946-.398.282-.271.506-.703.673-1.295.166-.598.249-1.113.249-1.544 0-.376-.095-.664-.283-.863-.188-.2-.434-.299-.738-.299-.321 0-.617.13-.889.39-.271.254-.492.661-.664 1.22-.171.559-.257 1.063-.257 1.511zM115.73 208l2.549-12.169h5.08c.88 0 1.538.102 1.975.307.443.199.808.545 1.096 1.038.288.487.432 1.035.432 1.643 0 .504-.103 1.016-.307 1.536-.205.52-.465.949-.781 1.287a3.614 3.614 0 0 1-.946.763 4.085 4.085 0 0 1-1.029.382c-.78.183-1.569.274-2.366.274h-3.046l-1.03 4.939h-1.627zm2.947-6.317h2.681c1.041 0 1.804-.111 2.291-.332.487-.227.878-.57 1.171-1.029.293-.46.44-.947.44-1.461 0-.399-.078-.722-.233-.971a1.35 1.35 0 0 0-.655-.557c-.283-.121-.825-.182-1.627-.182h-3.121l-.947 4.532zm8.226 6.317l2.54-12.169h1.503l-.971 4.673c.559-.542 1.079-.929 1.56-1.162a3.319 3.319 0 0 1 1.486-.357c.73 0 1.298.194 1.702.581.404.382.606.889.606 1.519 0 .31-.089.88-.266 1.71L133.976 208h-1.503l1.121-5.337c.16-.775.24-1.262.24-1.461a.915.915 0 0 0-.298-.706c-.2-.183-.487-.274-.864-.274-.542 0-1.059.144-1.552.432-.492.282-.88.672-1.162 1.17-.277.493-.531 1.29-.764 2.391l-.788 3.785h-1.503zm9.654 0l2.54-12.169h3.669c.88 0 1.552.064 2.017.191a3.852 3.852 0 0 1 1.702.921c.47.438.824.985 1.062 1.644.238.658.357 1.397.357 2.216 0 .98-.149 1.873-.448 2.681a7.693 7.693 0 0 1-1.162 2.125c-.476.609-.977 1.088-1.502 1.436-.521.344-1.138.598-1.852.764-.542.127-1.209.191-2 .191h-4.383zm1.918-1.378h1.925c.869 0 1.641-.08 2.316-.241a3.384 3.384 0 0 0 1.079-.44c.393-.249.75-.578 1.071-.987a6.707 6.707 0 0 0 1.005-1.851c.254-.698.381-1.489.381-2.374 0-.986-.171-1.741-.514-2.267-.343-.531-.78-.882-1.312-1.054-.393-.127-1.004-.191-1.834-.191h-2.15l-1.967 9.405zM45.66 173l6.898-12.169h1.917L56.484 173h-1.577l-.59-3.503h-4.922L47.445 173H45.66zm4.432-4.756h4.026l-.473-3.055c-.183-1.212-.296-2.222-.34-3.03-.277.697-.681 1.525-1.212 2.482l-2 3.603zm13.697 1.544l1.502.157c-.376 1.102-.913 1.921-1.61 2.457a3.776 3.776 0 0 1-2.366.797c-.957 0-1.735-.31-2.333-.929-.592-.62-.888-1.486-.888-2.599 0-.963.191-1.909.573-2.838.382-.93.927-1.636 1.635-2.117.714-.487 1.528-.731 2.44-.731.947 0 1.697.269 2.25.806.554.531.83 1.236.83 2.116l-1.477.1c-.006-.559-.17-.996-.49-1.312-.315-.315-.733-.473-1.253-.473-.604 0-1.127.191-1.57.573-.442.382-.79.963-1.045 1.743a7.315 7.315 0 0 0-.374 2.241c0 .753.166 1.317.498 1.694.332.376.742.564 1.229.564.487 0 .952-.185 1.394-.556.449-.371.8-.935 1.055-1.693zm4.258-5.603h7.03L73.219 173h-1.494l1.619-7.604h-4.076L67.648 173h-1.485l1.884-8.815zm9.654-1.652l.357-1.702h1.494l-.357 1.702H77.7zM75.509 173l1.843-8.815h1.502L77.013 173H75.51zm3.105 3.378l2.548-12.193h1.386l-.257 1.228c.515-.537.974-.907 1.378-1.112a2.79 2.79 0 0 1 1.295-.316c.841 0 1.538.307 2.092.922.553.608.83 1.483.83 2.623 0 .918-.152 1.757-.457 2.515-.304.753-.678 1.358-1.12 1.818-.443.459-.891.797-1.345 1.012a3.212 3.212 0 0 1-1.395.324c-1.057 0-1.876-.537-2.457-1.61l-.996 4.789h-1.502zm2.971-6.981c0 .659.047 1.116.142 1.37a1.859 1.859 0 0 0 1.776 1.204c.863 0 1.56-.485 2.092-1.453.531-.974.797-1.967.797-2.98 0-.747-.18-1.323-.54-1.726a1.683 1.683 0 0 0-1.328-.615c-.382 0-.736.103-1.063.307-.326.2-.63.501-.913.905-.276.399-.506.888-.689 1.469-.182.581-.274 1.088-.274 1.519zm13.174 2.507c-.52.449-1.021.778-1.503.988a3.899 3.899 0 0 1-1.544.307c-.813 0-1.469-.238-1.967-.714-.498-.481-.747-1.095-.747-1.842 0-.493.11-.927.332-1.304.227-.381.526-.686.897-.913.37-.232.824-.398 1.36-.498.338-.066.978-.119 1.918-.157.947-.039 1.625-.139 2.034-.299.116-.41.174-.75.174-1.021 0-.349-.127-.623-.381-.822-.35-.277-.858-.415-1.528-.415-.63 0-1.148.141-1.552.423-.398.277-.689.673-.872 1.187l-1.519-.133c.31-.874.8-1.544 1.47-2.008.675-.465 1.524-.698 2.548-.698 1.09 0 1.953.26 2.59.781.487.387.73.891.73 1.51 0 .471-.069 1.016-.207 1.636l-.49 2.191c-.155.697-.233 1.265-.233 1.702 0 .276.061.675.183 1.195h-1.519a5.544 5.544 0 0 1-.174-1.096zm.556-3.37c-.21.083-.437.147-.68.191-.239.044-.64.091-1.204.141-.875.078-1.492.177-1.851.299-.36.116-.631.304-.814.564a1.472 1.472 0 0 0-.274.864c0 .42.144.766.432 1.037.293.272.708.407 1.245.407.498 0 .977-.13 1.436-.39a2.9 2.9 0 0 0 1.087-1.104c.266-.47.474-1.14.623-2.009zm4.806-4.349h1.486l-.797 3.677h4.092l.781-3.677h1.469l-1.86 8.815h-1.494l.847-3.943h-4.076L99.723 173h-1.486l1.884-8.815zm7.512 8.815l1.843-8.815h1.503l-.308 1.452c.559-.625 1.057-1.057 1.495-1.295a2.983 2.983 0 0 1 1.436-.357c.547 0 1.004.147 1.369.44.371.288.614.692.731 1.212.448-.553.918-.965 1.411-1.237a3.192 3.192 0 0 1 1.569-.415c.736 0 1.286.175 1.651.523.371.349.557.839.557 1.47 0 .271-.064.719-.191 1.344L119.512 173h-1.503l1.212-5.827c.105-.476.158-.816.158-1.021 0-.288-.091-.515-.274-.681-.183-.166-.44-.249-.772-.249-.448 0-.905.136-1.37.407a2.97 2.97 0 0 0-1.087 1.071c-.255.437-.479 1.112-.672 2.025l-.897 4.275h-1.502l1.245-5.952c.088-.404.133-.691.133-.863 0-.288-.092-.52-.274-.697-.177-.177-.41-.266-.698-.266-.426 0-.874.136-1.344.407-.465.271-.844.65-1.138 1.137-.293.482-.534 1.171-.722 2.067l-.871 4.167h-1.503zm13.223 3.403l.092-1.411c.31.089.611.133.905.133.304 0 .55-.069.738-.208.244-.182.509-.525.797-1.029l.482-.863-1.47-8.84h1.478l.664 4.457c.133.88.246 1.76.34 2.64l3.943-7.097h1.569l-5.62 9.985c-.542.974-1.023 1.619-1.444 1.934-.42.316-.905.474-1.453.474-.348 0-.689-.058-1.021-.175zm8.326-.025l2.548-12.193h1.387l-.258 1.228c.515-.537.974-.907 1.378-1.112a2.79 2.79 0 0 1 1.295-.316c.841 0 1.539.307 2.092.922.553.608.83 1.483.83 2.623 0 .918-.152 1.757-.456 2.515-.305.753-.678 1.358-1.121 1.818-.443.459-.891.797-1.345 1.012a3.21 3.21 0 0 1-1.394.324c-1.057 0-1.876-.537-2.457-1.61l-.996 4.789h-1.503zm2.972-6.981c0 .659.047 1.116.141 1.37a1.859 1.859 0 0 0 1.776 1.204c.864 0 1.561-.485 2.092-1.453.531-.974.797-1.967.797-2.98 0-.747-.18-1.323-.54-1.726a1.681 1.681 0 0 0-1.328-.615c-.382 0-.736.103-1.062.307-.327.2-.631.501-.913.905-.277.399-.507.888-.689 1.469-.183.581-.274 1.088-.274 1.519zm13.173 2.507c-.52.449-1.021.778-1.502.988a3.9 3.9 0 0 1-1.544.307c-.814 0-1.469-.238-1.968-.714-.498-.481-.747-1.095-.747-1.842 0-.493.111-.927.332-1.304.227-.381.526-.686.897-.913.371-.232.824-.398 1.361-.498.338-.066.977-.119 1.918-.157.946-.039 1.624-.139 2.033-.299.117-.41.175-.75.175-1.021 0-.349-.128-.623-.382-.822-.349-.277-.858-.415-1.527-.415-.631 0-1.149.141-1.553.423-.398.277-.689.673-.871 1.187l-1.519-.133c.31-.874.799-1.544 1.469-2.008.675-.465 1.525-.698 2.548-.698 1.09 0 1.954.26 2.59.781.487.387.731.891.731 1.51 0 .471-.07 1.016-.208 1.636l-.49 2.191c-.155.697-.232 1.265-.232 1.702 0 .276.061.675.183 1.195h-1.52a5.531 5.531 0 0 1-.174-1.096zm.556-3.37c-.21.083-.437.147-.68.191-.238.044-.64.091-1.204.141-.874.078-1.491.177-1.851.299-.36.116-.631.304-.814.564a1.475 1.475 0 0 0-.273.864c0 .42.143.766.431 1.037.293.272.709.407 1.245.407.498 0 .977-.13 1.436-.39.46-.266.822-.634 1.088-1.104.265-.47.473-1.14.622-2.009zM4.714 136l2.548-12.169h1.619l-1.054 5.055h6.308l1.055-5.055h1.626L14.276 136H12.65l1.196-5.736h-6.3L6.34 136H4.714zm18.61-2.997l1.461.15c-.21.725-.694 1.414-1.453 2.067-.752.653-1.651.979-2.697.979a3.698 3.698 0 0 1-1.802-.448 3.021 3.021 0 0 1-1.245-1.32c-.282-.575-.423-1.231-.423-1.967 0-.963.221-1.895.664-2.797.448-.908 1.027-1.58 1.735-2.018a4.264 4.264 0 0 1 2.3-.664c1.05 0 1.89.327 2.514.98.631.653.947 1.544.947 2.673 0 .431-.039.874-.116 1.328h-6.492a3.64 3.64 0 0 0-.033.465c0 .824.188 1.455.564 1.892.382.432.847.648 1.395.648.515 0 1.021-.169 1.52-.507.497-.337.884-.824 1.161-1.461zm-4.366-2.183h4.947c.006-.155.009-.265.009-.332 0-.752-.189-1.328-.565-1.726-.376-.404-.86-.606-1.453-.606-.641 0-1.228.221-1.76.664-.525.443-.918 1.109-1.178 2zm9.504-1.353l-1.386-.157c.36-.88.805-1.486 1.337-1.818.536-.338 1.214-.507 2.033-.507.88 0 1.572.205 2.076.615.503.404.755.94.755 1.61 0 .52-.133.968-.399 1.345-.265.376-.664.683-1.195.921.697.443 1.046 1.054 1.046 1.835 0 .758-.296 1.43-.888 2.017-.592.581-1.458.871-2.598.871-1.948 0-3.094-.888-3.437-2.664l1.428-.108c.227 1.084.921 1.627 2.083 1.627.56 0 1.019-.15 1.378-.449.36-.304.54-.7.54-1.187 0-.365-.1-.655-.299-.871a1.256 1.256 0 0 0-.739-.415c-.299-.056-.755-.083-1.37-.083l.258-1.179c.127.011.252.017.373.017.78 0 1.365-.13 1.752-.39.393-.266.59-.659.59-1.179 0-.404-.128-.706-.383-.905-.248-.205-.628-.307-1.137-.307-.326 0-.642.066-.946.199-.304.133-.595.52-.872 1.162zm11.298 5.437c-.52.449-1.021.778-1.503.988a3.899 3.899 0 0 1-1.544.307c-.813 0-1.469-.238-1.967-.714-.498-.481-.747-1.095-.747-1.842 0-.493.11-.927.332-1.304a2.63 2.63 0 0 1 .896-.913c.371-.232.825-.398 1.362-.498.337-.066.977-.119 1.917-.157.947-.039 1.624-.139 2.034-.299.116-.41.174-.75.174-1.021 0-.349-.127-.623-.381-.822-.35-.277-.858-.415-1.528-.415-.63 0-1.148.141-1.552.423-.398.277-.689.673-.872 1.187l-1.519-.133c.31-.874.8-1.544 1.47-2.008.675-.465 1.524-.698 2.548-.698 1.09 0 1.953.26 2.59.781.487.387.73.891.73 1.51 0 .471-.069 1.016-.207 1.636l-.49 2.191c-.155.697-.233 1.265-.233 1.702 0 .276.061.675.183 1.195h-1.519a5.544 5.544 0 0 1-.174-1.096zm.556-3.37a3.59 3.59 0 0 1-.68.191c-.239.044-.64.091-1.204.141-.875.078-1.492.177-1.851.299-.36.116-.631.304-.814.564a1.472 1.472 0 0 0-.274.864c0 .42.144.766.432 1.037.293.272.708.407 1.245.407.498 0 .977-.13 1.436-.39a2.9 2.9 0 0 0 1.087-1.104c.266-.47.474-1.14.623-2.009zm4.856-4.349h1.47l-.84 3.768.266.008c.415 0 .753-.105 1.013-.315.26-.216.63-.719 1.112-1.511.498-.813.919-1.342 1.262-1.585.349-.244.816-.365 1.403-.365h.697l-.274 1.203h-.357c-.37 0-.628.05-.772.15-.138.099-.346.387-.622.863-.377.653-.706 1.12-.988 1.403a2.977 2.977 0 0 1-1.087.655 2.1 2.1 0 0 1 .888.623c.227.271.445.683.655 1.237l1.03 2.681h-1.552l-.83-2.208c-.31-.819-.598-1.345-.864-1.577-.265-.233-.653-.349-1.162-.349L44.724 136h-1.486l1.934-8.815zm8.276-1.652l.357-1.702h1.494l-.357 1.702h-1.494zM51.256 136l1.843-8.815h1.503L52.759 136h-1.503zm5.686-8.815h1.486l-.797 3.677h4.093l.78-3.677h1.47L62.113 136H60.62l.846-3.943h-4.075L56.544 136h-1.486l1.884-8.815zm8.849 0h1.478l-.316 1.477c-.2.935-.299 1.591-.299 1.967 0 .388.147.681.44.88.294.194.734.291 1.32.291.714 0 1.373-.125 1.976-.374l.904-4.241h1.495L70.913 136H69.41l.722-3.378c-.747.249-1.444.373-2.092.373-.902 0-1.61-.191-2.125-.573-.509-.381-.763-.924-.763-1.627 0-.298.133-1.115.398-2.448l.241-1.162zm13.945 5.818l1.461.15c-.21.725-.694 1.414-1.452 2.067-.753.653-1.652.979-2.698.979a3.698 3.698 0 0 1-1.801-.448 3.021 3.021 0 0 1-1.245-1.32c-.283-.575-.424-1.231-.424-1.967 0-.963.222-1.895.664-2.797.448-.908 1.027-1.58 1.735-2.018a4.264 4.264 0 0 1 2.3-.664c1.05 0 1.89.327 2.514.98.631.653.947 1.544.947 2.673 0 .431-.039.874-.116 1.328h-6.492a3.658 3.658 0 0 0-.033.465c0 .824.188 1.455.565 1.892.382.432.846.648 1.394.648.515 0 1.021-.169 1.52-.507.497-.337.885-.824 1.161-1.461zm-4.366-2.183h4.947c.006-.155.009-.265.009-.332 0-.752-.188-1.328-.565-1.726-.376-.404-.86-.606-1.452-.606-.642 0-1.229.221-1.76.664-.526.443-.919 1.109-1.179 2zm9.197-3.635h1.486l-.797 3.677h4.093l.78-3.677h1.47L89.738 136h-1.494l.846-3.943h-4.075L84.169 136h-1.486l1.884-8.815zm13.464 7.719c-.52.449-1.02.778-1.502.988a3.899 3.899 0 0 1-1.544.307c-.814 0-1.47-.238-1.967-.714-.499-.481-.748-1.095-.748-1.842 0-.493.111-.927.333-1.304a2.62 2.62 0 0 1 .896-.913c.37-.232.825-.398 1.361-.498.338-.066.977-.119 1.918-.157.946-.039 1.624-.139 2.033-.299.117-.41.175-.75.175-1.021 0-.349-.127-.623-.382-.822-.349-.277-.858-.415-1.527-.415-.631 0-1.149.141-1.553.423-.398.277-.689.673-.871 1.187l-1.52-.133c.31-.874.8-1.544 1.47-2.008.675-.465 1.525-.698 2.548-.698 1.09 0 1.954.26 2.59.781.487.387.731.891.731 1.51 0 .471-.069 1.016-.208 1.636l-.49 2.191c-.154.697-.232 1.265-.232 1.702 0 .276.06.675.183 1.195h-1.52a5.55 5.55 0 0 1-.174-1.096zm.556-3.37c-.21.083-.437.147-.68.191-.238.044-.64.091-1.204.141-.874.078-1.491.177-1.85.299-.36.116-.632.304-.814.564a1.472 1.472 0 0 0-.274.864c0 .42.144.766.431 1.037.294.272.709.407 1.245.407.498 0 .977-.13 1.436-.39.46-.266.822-.634 1.088-1.104.266-.47.473-1.14.622-2.009zm13.572-.149c.559.193.977.462 1.254.805.276.338.415.75.415 1.237 0 .675-.299 1.306-.897 1.892-.598.587-1.477.88-2.639.88-.875 0-1.567-.146-2.076-.44a3.24 3.24 0 0 1-1.22-1.253 3.75 3.75 0 0 1-.448-1.826c0-1.566.451-2.906 1.353-4.018.902-1.118 2.117-1.677 3.644-1.677.919 0 1.619.213 2.1.64.481.42.722.937.722 1.552 0 .559-.185 1.024-.556 1.394-.365.366-.916.637-1.652.814zm-3.785-.623c.404.033.753.05 1.046.05 1.14 0 1.992-.124 2.557-.374.57-.254.855-.63.855-1.128 0-.327-.125-.598-.374-.814-.243-.216-.564-.324-.963-.324-.686 0-1.32.233-1.901.698-.581.459-.988 1.09-1.22 1.892zm-.241 1.171a4.469 4.469 0 0 0-.058.705c0 .697.199 1.27.598 1.718.398.443.971.665 1.718.665.581 0 1.043-.153 1.386-.457.349-.31.523-.686.523-1.129 0-.609-.24-1.013-.722-1.212-.481-.199-1.364-.299-2.648-.299-.122 0-.387.003-.797.009zm13.049 2.473c-1.057 1.196-2.139 1.793-3.245 1.793-.681 0-1.232-.193-1.652-.581a1.903 1.903 0 0 1-.623-1.436c0-.371.094-1.007.282-1.909l1.063-5.088h1.502l-1.178 5.636c-.1.47-.15.835-.15 1.096 0 .332.1.592.299.78.205.182.504.274.896.274.421 0 .831-.103 1.229-.307.404-.205.75-.482 1.038-.831.293-.348.531-.76.713-1.236.122-.305.263-.839.424-1.602l.797-3.81h1.502L122.236 136h-1.386l.332-1.594zm9.023.116c-.465.559-.949.98-1.453 1.262a3.15 3.15 0 0 1-1.552.415c-.603 0-1.109-.171-1.519-.514-.409-.344-.614-.795-.614-1.353 0-.388.097-1.033.29-1.935l1.138-5.212h1.485l-1.228 5.627c-.111.521-.166.903-.166 1.146 0 .321.083.562.249.722.166.161.415.241.747.241.509 0 .977-.144 1.403-.432a3.53 3.53 0 0 0 1.021-1.029c.254-.398.47-.996.647-1.793l.988-4.482h1.486l-1.262 5.752c-.094.443-.141.8-.141 1.071 0 .304.078.534.233.689.16.149.395.224.705.224.67 0 1.312-.285 1.926-.855.614-.57 1.035-1.436 1.262-2.598.011-.056.022-.116.033-.183l.913-4.1h1.477l-1.477 6.69a2.996 2.996 0 0 0-.067.647c0 .288.183.432.548.432h.996l-.796 3.611h-1.254l.573-2.407c-1.024 0-1.536-.418-1.536-1.254 0-.083.003-.191.009-.323-.587.813-1.138 1.286-1.652 1.419a5.531 5.531 0 0 1-1.362.199 2.137 2.137 0 0 1-1.411-.498c-.393-.337-.606-.73-.639-1.179zm15.041.382c-.52.449-1.021.778-1.502.988a3.9 3.9 0 0 1-1.544.307c-.814 0-1.47-.238-1.968-.714-.498-.481-.747-1.095-.747-1.842 0-.493.111-.927.332-1.304.227-.381.526-.686.897-.913.371-.232.824-.398 1.361-.498.338-.066.977-.119 1.918-.157.946-.039 1.624-.139 2.033-.299.117-.41.175-.75.175-1.021 0-.349-.128-.623-.382-.822-.349-.277-.858-.415-1.527-.415-.631 0-1.149.141-1.553.423-.398.277-.689.673-.871 1.187l-1.519-.133c.31-.874.799-1.544 1.469-2.008.675-.465 1.524-.698 2.548-.698 1.09 0 1.954.26 2.59.781.487.387.731.891.731 1.51 0 .471-.07 1.016-.208 1.636l-.49 2.191c-.155.697-.232 1.265-.232 1.702 0 .276.061.675.182 1.195h-1.519a5.531 5.531 0 0 1-.174-1.096zm.556-3.37c-.21.083-.437.147-.68.191-.238.044-.64.091-1.204.141-.874.078-1.491.177-1.851.299-.36.116-.631.304-.814.564a1.476 1.476 0 0 0-.274.864c0 .42.144.766.432 1.037.293.272.708.407 1.245.407.498 0 .977-.13 1.436-.39.46-.266.822-.634 1.088-1.104.265-.47.473-1.14.622-2.009zm-78.49-42.703h7.86l-.298 1.386h-6.25l-.797 3.794h2.465c1.217 0 2.078.091 2.582.274.503.177.924.495 1.261.954.343.454.515 1.018.515 1.694 0 .808-.238 1.55-.714 2.224-.47.675-1.049 1.151-1.735 1.428-.686.277-1.793.415-3.32.415h-4.159l2.59-12.169zm-.672 10.791h1.427c1.434 0 2.455-.08 3.063-.24.615-.167 1.082-.474 1.403-.922.327-.454.49-.938.49-1.453 0-.382-.108-.703-.324-.963-.21-.265-.5-.44-.871-.522-.366-.09-.95-.133-1.752-.133h-2.548l-.888 4.233zm14.941.282c-.52.449-1.02.778-1.502.988a3.899 3.899 0 0 1-1.544.307c-.814 0-1.47-.238-1.968-.714-.498-.481-.747-1.095-.747-1.842 0-.493.111-.927.332-1.304.227-.382.526-.686.897-.913.37-.232.824-.398 1.361-.498.338-.066.977-.119 1.918-.157.946-.04 1.624-.139 2.033-.3.117-.409.175-.75.175-1.02 0-.349-.128-.623-.382-.822-.349-.277-.858-.415-1.528-.415-.63 0-1.148.141-1.552.423-.398.277-.689.673-.871 1.187l-1.52-.133c.31-.874.8-1.544 1.47-2.008.675-.465 1.524-.698 2.548-.698 1.09 0 1.954.26 2.59.78.487.388.73.892.73 1.511 0 .47-.069 1.016-.207 1.636l-.49 2.191c-.155.697-.232 1.265-.232 1.702 0 .276.06.675.182 1.195h-1.519a5.544 5.544 0 0 1-.174-1.096zm.556-3.37a3.61 3.61 0 0 1-.68.191c-.238.044-.64.091-1.204.141-.874.078-1.491.177-1.851.299-.36.116-.631.304-.814.564-.182.26-.273.548-.273.864 0 .42.143.766.431 1.037.293.272.708.407 1.245.407.498 0 .977-.13 1.436-.39.46-.266.822-.634 1.088-1.104.265-.47.473-1.14.622-2.009zm4.856-4.35h1.47l-.839 3.77.266.007c.415 0 .752-.105 1.012-.315.26-.216.631-.72 1.113-1.51.498-.814.918-1.343 1.261-1.586.349-.244.817-.365 1.403-.365h.697l-.273 1.203h-.357c-.371 0-.628.05-.772.15-.139.1-.346.387-.623.863-.376.653-.706 1.12-.988 1.403a2.986 2.986 0 0 1-1.087.656c.37.143.667.35.888.622.227.271.445.684.656 1.237L91.85 101h-1.553l-.83-2.208c-.31-.819-.598-1.345-.864-1.577-.265-.233-.652-.349-1.162-.349L86.545 101h-1.486l1.934-8.815zm12.086 7.72c-.52.449-1.02.778-1.502.988a3.9 3.9 0 0 1-1.544.307c-.814 0-1.47-.238-1.968-.714-.498-.481-.747-1.095-.747-1.842 0-.493.111-.927.332-1.304.227-.382.526-.686.897-.913.37-.232.824-.398 1.361-.498.338-.066.977-.119 1.918-.157.946-.04 1.624-.139 2.033-.3.117-.409.175-.75.175-1.02 0-.349-.128-.623-.382-.822-.349-.277-.858-.415-1.528-.415-.63 0-1.148.141-1.552.423-.398.277-.689.673-.871 1.187l-1.52-.133c.31-.874.8-1.544 1.47-2.008.675-.465 1.525-.698 2.548-.698 1.09 0 1.954.26 2.59.78.487.388.731.892.731 1.511 0 .47-.07 1.016-.208 1.636l-.49 2.191c-.155.697-.232 1.265-.232 1.702 0 .276.061.675.182 1.195h-1.519a5.544 5.544 0 0 1-.174-1.096zm.556-3.37a3.61 3.61 0 0 1-.68.191c-.238.044-.64.091-1.204.141-.874.078-1.491.177-1.851.299-.36.116-.631.304-.814.564-.182.26-.273.548-.273.864 0 .42.143.766.431 1.037.293.272.709.407 1.245.407.498 0 .977-.13 1.436-.39.46-.266.822-.634 1.088-1.104.265-.47.473-1.14.622-2.009zm5.246-4.35h6.641L109.646 101h-1.494l1.643-7.562h-3.702l-1.137 5.254c-.194.902-.454 1.533-.78 1.893-.327.354-.778.531-1.353.531-.332 0-.772-.039-1.32-.116l.274-1.245c.232.017.443.025.631.025.382 0 .631-.094.747-.282.122-.194.293-.778.514-1.752l1.212-5.561zm13.057 7.72c-.52.449-1.021.778-1.502.988a3.897 3.897 0 0 1-1.544.307c-.813 0-1.469-.238-1.967-.714-.498-.481-.747-1.095-.747-1.842 0-.493.11-.927.332-1.304a2.62 2.62 0 0 1 .896-.913c.371-.232.825-.398 1.362-.498.337-.066.976-.119 1.917-.157.946-.04 1.624-.139 2.034-.3.116-.409.174-.75.174-1.02 0-.349-.127-.623-.382-.822-.348-.277-.858-.415-1.527-.415-.631 0-1.148.141-1.552.423-.399.277-.689.673-.872 1.187l-1.519-.133c.31-.874.8-1.544 1.469-2.008.675-.465 1.525-.698 2.549-.698 1.09 0 1.953.26 2.589.78.487.388.731.892.731 1.511 0 .47-.069 1.016-.208 1.636l-.489 2.191c-.155.697-.233 1.265-.233 1.702 0 .276.061.675.183 1.195h-1.519a5.598 5.598 0 0 1-.175-1.096zm.557-3.37a3.64 3.64 0 0 1-.681.191c-.238.044-.639.091-1.204.141-.874.078-1.491.177-1.851.299-.359.116-.631.304-.813.564-.183.26-.274.548-.274.864 0 .42.144.766.432 1.037.293.272.708.407 1.245.407.498 0 .976-.13 1.436-.39a2.9 2.9 0 0 0 1.087-1.104c.266-.47.473-1.14.623-2.009zm8.84-.15c.559.195.977.463 1.253.806.277.338.415.75.415 1.237 0 .675-.298 1.306-.896 1.892-.598.587-1.478.88-2.64.88-.874 0-1.566-.146-2.075-.44a3.239 3.239 0 0 1-1.22-1.253 3.749 3.749 0 0 1-.448-1.826c0-1.566.451-2.906 1.353-4.018.902-1.118 2.116-1.677 3.644-1.677.918 0 1.618.213 2.1.64.481.42.722.938.722 1.552 0 .559-.185 1.023-.556 1.394-.365.365-.916.637-1.652.814zm-3.785-.622c.404.033.752.05 1.046.05 1.14 0 1.992-.124 2.556-.373.57-.255.855-.631.855-1.13a1.03 1.03 0 0 0-.373-.813c-.244-.216-.565-.324-.963-.324-.686 0-1.32.233-1.901.698-.581.459-.988 1.09-1.22 1.892zm-.241 1.17a4.357 4.357 0 0 0-.058.706c0 .697.199 1.27.598 1.718.398.443.971.665 1.718.665.581 0 1.043-.153 1.386-.457.349-.31.523-.686.523-1.129 0-.609-.241-1.013-.722-1.212-.482-.2-1.364-.299-2.648-.299-.122 0-.387.003-.797.009zm6.292 7.446l2.548-12.193h1.387l-.258 1.228c.515-.537.974-.907 1.378-1.112.41-.21.841-.316 1.295-.316.841 0 1.539.308 2.092.922.553.609.83 1.483.83 2.623 0 .918-.152 1.757-.456 2.515-.305.752-.678 1.358-1.121 1.818-.443.459-.891.797-1.345 1.012a3.21 3.21 0 0 1-1.394.324c-1.057 0-1.876-.537-2.457-1.61l-.996 4.789h-1.503zm2.972-6.98c0 .658.047 1.115.141 1.37.138.359.365.65.681.87.315.222.68.333 1.095.333.864 0 1.561-.484 2.092-1.453.531-.974.797-1.967.797-2.98 0-.747-.18-1.322-.54-1.727a1.684 1.684 0 0 0-1.328-.614c-.382 0-.736.103-1.062.307-.327.2-.631.501-.913.905-.277.399-.507.888-.689 1.47-.183.58-.274 1.087-.274 1.518zm13.173 2.506c-.52.449-1.021.778-1.502.988a3.9 3.9 0 0 1-1.544.307c-.814 0-1.47-.238-1.968-.714-.498-.481-.747-1.095-.747-1.842 0-.493.111-.927.332-1.304.227-.382.526-.686.897-.913.371-.232.824-.398 1.361-.498.338-.066.977-.119 1.918-.157.946-.04 1.624-.139 2.033-.3.117-.409.175-.75.175-1.02 0-.349-.128-.623-.382-.822-.349-.277-.858-.415-1.527-.415-.631 0-1.149.141-1.553.423-.398.277-.689.673-.871 1.187l-1.519-.133c.31-.874.799-1.544 1.469-2.008.675-.465 1.524-.698 2.548-.698 1.09 0 1.954.26 2.59.78.487.388.731.892.731 1.511 0 .47-.07 1.016-.208 1.636l-.49 2.191c-.155.697-.232 1.265-.232 1.702 0 .276.061.675.182 1.195h-1.519a5.532 5.532 0 0 1-.174-1.096zm.556-3.37c-.21.083-.437.147-.68.191-.238.044-.64.091-1.204.141-.874.078-1.491.177-1.851.299-.36.116-.631.304-.814.564-.182.26-.274.548-.274.864 0 .42.144.766.432 1.037.293.272.708.407 1.245.407.498 0 .977-.13 1.436-.39.46-.266.822-.634 1.088-1.104.265-.47.473-1.14.622-2.009zM10.252 59.717l1.61.224c-.51 1.405-1.25 2.468-2.225 3.187a5.384 5.384 0 0 1-3.279 1.08c-1.477 0-2.65-.451-3.52-1.353-.862-.902-1.294-2.195-1.294-3.877 0-2.191.658-4.004 1.976-5.437 1.173-1.278 2.63-1.917 4.374-1.917 1.29 0 2.333.345 3.13 1.037.802.692 1.267 1.622 1.394 2.79l-1.52.14c-.16-.88-.492-1.535-.995-1.967-.498-.437-1.143-.656-1.934-.656-1.489 0-2.692.662-3.611 1.984-.797 1.14-1.195 2.493-1.195 4.06 0 1.25.307 2.205.921 2.863.614.658 1.414.988 2.399.988.841 0 1.602-.274 2.283-.822.68-.548 1.176-1.323 1.486-2.324zm4.44-4.532h7.031L19.863 64H18.37l1.618-7.603h-4.075L14.293 64h-1.485l1.884-8.815zm13.995 5.818l1.461.15c-.21.725-.694 1.414-1.452 2.067-.753.653-1.652.98-2.698.98a3.7 3.7 0 0 1-1.801-.449 3.025 3.025 0 0 1-1.245-1.32c-.283-.575-.424-1.231-.424-1.967 0-.963.222-1.895.664-2.797.449-.908 1.027-1.58 1.735-2.018a4.259 4.259 0 0 1 2.3-.664c1.051 0 1.89.327 2.515.98.63.653.946 1.544.946 2.673 0 .431-.039.874-.116 1.328H24.08a3.653 3.653 0 0 0-.034.465c0 .824.188 1.455.565 1.892.382.432.847.648 1.394.648.515 0 1.021-.17 1.52-.507.497-.337.885-.824 1.162-1.46zm-4.366-2.183h4.948c.005-.155.008-.265.008-.332 0-.752-.188-1.328-.565-1.726-.376-.404-.86-.606-1.452-.606-.642 0-1.229.221-1.76.664-.526.443-.919 1.11-1.179 2zm9.19-3.635h1.485l-1.179 5.47c-.121.564-.182.999-.182 1.303 0 .332.1.584.299.755.204.166.509.25.913.25.459 0 .918-.128 1.378-.382.465-.255.84-.59 1.128-1.005.294-.415.576-1.242.847-2.482l.847-3.91h1.51l-1.352 6.26c-.139.636-.208.987-.208 1.054 0 .304.185.456.556.456h1.005l-.806 3.61H38.5l.548-2.406c-.432 0-.786-.111-1.063-.332-.276-.222-.415-.534-.415-.938 0-.089.003-.205.009-.349l-.258.24c-.996.947-1.986 1.42-2.971 1.42-.637 0-1.162-.185-1.577-.556-.416-.37-.623-.89-.623-1.56 0-.316.06-.761.182-1.337l1.18-5.561zm10.027-1.652l.357-1.702h1.494l-.357 1.702h-1.494zM41.346 64l1.843-8.815h1.502L42.85 64h-1.503zm9.787-1.096c-.52.448-1.021.778-1.503.988a3.905 3.905 0 0 1-1.544.307c-.813 0-1.469-.238-1.967-.714-.498-.481-.747-1.095-.747-1.842 0-.493.11-.927.332-1.304.227-.381.526-.686.897-.913.37-.232.824-.398 1.36-.498.339-.066.978-.119 1.918-.157.947-.04 1.625-.139 2.034-.3.116-.409.174-.75.174-1.02 0-.349-.127-.623-.381-.822-.35-.277-.858-.415-1.528-.415-.63 0-1.148.141-1.552.423-.398.277-.689.673-.872 1.187l-1.519-.133c.31-.874.8-1.544 1.47-2.008.675-.465 1.524-.698 2.548-.698 1.09 0 1.953.26 2.59.78.487.388.73.892.73 1.511 0 .47-.069 1.016-.207 1.636l-.49 2.191c-.155.697-.232 1.264-.232 1.702 0 .276.06.675.182 1.195h-1.519a5.542 5.542 0 0 1-.174-1.096zm.556-3.37a3.61 3.61 0 0 1-.68.191c-.239.044-.64.091-1.204.141-.875.078-1.492.177-1.851.299-.36.116-.631.304-.814.565a1.47 1.47 0 0 0-.274.863c0 .42.144.766.432 1.037.293.271.708.407 1.245.407.498 0 .977-.13 1.436-.39a2.89 2.89 0 0 0 1.087-1.104c.266-.47.474-1.14.623-2.009zm5.246-4.35h6.64L61.7 64h-1.494l1.643-7.562h-3.702l-1.137 5.254c-.194.902-.454 1.533-.78 1.893-.327.354-.778.531-1.353.531-.333 0-.773-.038-1.32-.116l.274-1.245c.232.017.442.025.63.025.382 0 .631-.094.748-.282.121-.194.293-.778.514-1.752l1.212-5.561zm9.247-1.651l.357-1.702h1.494l-.357 1.702h-1.494zM63.991 64l1.843-8.815h1.502L65.493 64h-1.502zm9.927-3.212l1.503.157c-.376 1.102-.913 1.92-1.61 2.457a3.78 3.78 0 0 1-2.366.797c-.957 0-1.735-.31-2.333-.93-.592-.62-.888-1.485-.888-2.598 0-.962.191-1.909.573-2.838.382-.93.927-1.636 1.635-2.117.714-.487 1.528-.73 2.44-.73.947 0 1.697.268 2.25.805.553.53.83 1.236.83 2.116l-1.477.1c-.006-.56-.17-.996-.49-1.312-.316-.315-.733-.473-1.254-.473-.603 0-1.126.191-1.568.573-.443.382-.792.963-1.046 1.743a7.313 7.313 0 0 0-.374 2.241c0 .753.166 1.317.498 1.694.332.376.742.564 1.229.564.487 0 .951-.185 1.394-.556.448-.37.8-.935 1.054-1.693zM76.326 64l1.843-8.815h1.502l-.307 1.452c.559-.625 1.057-1.057 1.494-1.295a2.986 2.986 0 0 1 1.436-.357c.548 0 1.004.147 1.37.44.37.288.614.692.73 1.212.448-.553.919-.965 1.411-1.237a3.185 3.185 0 0 1 1.569-.415c.736 0 1.287.175 1.652.523.37.349.556.839.556 1.47 0 .27-.064.719-.19 1.344L88.203 64h-1.502l1.212-5.827c.105-.476.157-.816.157-1.021 0-.288-.091-.515-.274-.68-.182-.167-.44-.25-.772-.25-.448 0-.904.136-1.37.407a2.97 2.97 0 0 0-1.087 1.07c-.254.438-.478 1.113-.672 2.026L82.999 64h-1.502l1.245-5.952c.089-.404.133-.691.133-.863 0-.288-.091-.52-.274-.697-.177-.177-.41-.266-.697-.266-.426 0-.874.136-1.345.407-.465.271-.844.65-1.137 1.137-.293.482-.534 1.17-.722 2.067L77.828 64h-1.502zM97.4 67.578c-.868-1.904-1.303-3.86-1.303-5.869 0-1.34.174-2.584.523-3.735.354-1.157.891-2.3 1.61-3.429.476-.752 1.237-1.726 2.283-2.922h1.171c-.648.692-1.334 1.666-2.059 2.922-.72 1.257-1.242 2.49-1.569 3.703a13.984 13.984 0 0 0-.49 3.652c0 1.826.319 3.719.955 5.678h-1.12zm9.364-8.193c.559.194.976.462 1.253.805.277.338.415.75.415 1.237 0 .675-.299 1.306-.896 1.892-.598.587-1.478.88-2.64.88-.874 0-1.566-.146-2.075-.44a3.24 3.24 0 0 1-1.22-1.253 3.75 3.75 0 0 1-.449-1.826c0-1.566.451-2.906 1.353-4.018.902-1.118 2.117-1.677 3.644-1.677.919 0 1.619.213 2.1.64.482.42.723.938.723 1.552 0 .559-.186 1.023-.556 1.394-.366.366-.916.637-1.652.814zm-3.786-.623c.404.033.753.05 1.046.05 1.14 0 1.993-.124 2.557-.373.57-.255.855-.631.855-1.13 0-.326-.125-.597-.374-.813-.243-.216-.564-.324-.962-.324-.687 0-1.32.233-1.901.698-.581.459-.988 1.09-1.221 1.892zm-.24 1.17a4.357 4.357 0 0 0-.058.706c0 .697.199 1.27.597 1.718.399.443.972.664 1.719.664.581 0 1.043-.152 1.386-.456.348-.31.523-.686.523-1.129 0-.609-.241-1.013-.722-1.212-.482-.2-1.365-.299-2.648-.299-.122 0-.388.003-.797.009zm13.049 2.474c-1.057 1.196-2.139 1.793-3.246 1.793-.681 0-1.231-.194-1.652-.58a1.902 1.902 0 0 1-.622-1.437c0-.37.094-1.007.282-1.91l1.062-5.087h1.503l-1.179 5.636c-.1.47-.149.835-.149 1.096 0 .331.099.592.298.78.205.182.504.274.897.274.421 0 .83-.103 1.228-.307.404-.205.75-.482 1.038-.83.293-.35.531-.761.714-1.237.122-.305.263-.839.423-1.602l.797-3.81h1.503L116.842 64h-1.386l.332-1.594zm9.023.117c-.465.558-.95.979-1.453 1.261a3.156 3.156 0 0 1-1.552.415c-.604 0-1.11-.171-1.519-.514-.41-.343-.615-.794-.615-1.354 0-.387.097-1.032.291-1.934l1.137-5.212h1.486l-1.229 5.627c-.11.52-.166.903-.166 1.146 0 .321.083.562.249.722.166.16.415.24.748.24.509 0 .976-.143 1.402-.43a3.536 3.536 0 0 0 1.021-1.03c.255-.398.471-.996.648-1.793l.988-4.482h1.485l-1.261 5.752c-.094.443-.141.8-.141 1.07 0 .305.077.535.232.69.16.15.396.224.706.224.669 0 1.311-.285 1.925-.855.615-.57 1.035-1.436 1.262-2.598.011-.056.022-.116.033-.183l.913-4.1h1.478l-1.478 6.69a3 3 0 0 0-.066.648c0 .287.183.431.548.431h.996l-.797 3.61h-1.253l.572-2.406c-1.023 0-1.535-.418-1.535-1.254 0-.083.002-.19.008-.323-.587.813-1.137 1.286-1.652 1.419-.514.133-.968.2-1.361.2a2.135 2.135 0 0 1-1.411-.499c-.393-.337-.606-.73-.639-1.178zm15.041.381c-.521.448-1.021.778-1.503.988a3.903 3.903 0 0 1-1.544.307c-.813 0-1.469-.238-1.967-.714-.498-.481-.747-1.095-.747-1.842 0-.493.11-.927.332-1.304a2.63 2.63 0 0 1 .896-.913c.371-.232.825-.398 1.362-.498.337-.066.976-.119 1.917-.157.946-.04 1.624-.139 2.034-.3.116-.409.174-.75.174-1.02 0-.349-.127-.623-.382-.822-.348-.277-.857-.415-1.527-.415-.631 0-1.148.141-1.552.423-.399.277-.689.673-.872 1.187l-1.519-.133c.31-.874.8-1.544 1.469-2.008.675-.465 1.525-.698 2.549-.698 1.09 0 1.953.26 2.59.78.487.388.73.892.73 1.511 0 .47-.069 1.016-.208 1.636l-.489 2.191c-.155.697-.233 1.264-.233 1.702 0 .276.061.675.183 1.195h-1.519a5.53 5.53 0 0 1-.174-1.096zm.556-3.37a3.618 3.618 0 0 1-.681.191c-.238.044-.639.091-1.204.141-.874.078-1.491.177-1.851.299-.359.116-.63.304-.813.565-.183.26-.274.547-.274.863 0 .42.144.766.432 1.037.293.271.708.407 1.245.407.498 0 .976-.13 1.436-.39a2.892 2.892 0 0 0 1.087-1.104c.266-.47.473-1.14.623-2.009zm5.769-7.91c.874 1.903 1.311 3.857 1.311 5.86 0 1.345-.177 2.593-.531 3.743-.349 1.152-.883 2.294-1.602 3.429-.481.752-1.242 1.726-2.283 2.922h-1.17c.642-.698 1.325-1.674 2.05-2.93.725-1.257 1.248-2.488 1.569-3.694.326-1.212.49-2.432.49-3.661 0-1.826-.318-3.716-.955-5.67h1.121zM30.747 29l2.54-12.169h2l1.23 7.886c.16 1.035.265 2.028.314 2.98.338-.82.903-1.929 1.694-3.329l4.267-7.537h2.033L42.285 29h-1.602l1.27-5.919c.293-1.366.714-2.9 1.262-4.598-.349.791-.78 1.643-1.295 2.557L37.388 29h-1.57l-1.22-7.803c-.11-.714-.19-1.546-.24-2.498a33.623 33.623 0 0 1-.407 2.54L32.333 29h-1.586zm20.121-1.096c-.52.448-1.02.778-1.502.988a3.904 3.904 0 0 1-1.544.307c-.814 0-1.47-.238-1.968-.714-.498-.481-.747-1.095-.747-1.842 0-.493.111-.927.333-1.304a2.62 2.62 0 0 1 .896-.913c.37-.232.825-.398 1.361-.498.338-.066.977-.119 1.918-.158.946-.038 1.624-.138 2.033-.298.117-.41.175-.75.175-1.021 0-.349-.127-.623-.382-.822-.349-.277-.858-.415-1.527-.415-.631 0-1.149.141-1.553.423-.398.277-.689.673-.871 1.187l-1.52-.133c.31-.874.8-1.543 1.47-2.008.675-.465 1.525-.698 2.548-.698 1.09 0 1.954.26 2.59.78.487.388.73.892.73 1.511 0 .47-.069 1.016-.207 1.636l-.49 2.191c-.155.697-.232 1.264-.232 1.702 0 .276.06.675.183 1.195h-1.52a5.542 5.542 0 0 1-.174-1.096zm.556-3.37c-.21.083-.437.147-.68.191-.238.044-.64.091-1.204.141-.874.078-1.491.177-1.851.299-.36.116-.63.304-.813.565-.183.26-.274.547-.274.863 0 .42.143.766.431 1.037.294.271.709.407 1.245.407.498 0 .977-.13 1.436-.39.46-.266.822-.634 1.088-1.104.265-.47.473-1.14.622-2.009zm5.33-2.158l-1.37-.1c.614-1.527 1.746-2.29 3.395-2.29 1.051 0 1.848.232 2.39.697.548.465.822 1.037.822 1.718 0 .46-.127.86-.382 1.204a2.632 2.632 0 0 1-.996.796c-.41.189-1.062.393-1.959.615-1.068.254-1.782.503-2.141.747-.36.243-.54.561-.54.954 0 .404.205.725.614.963.41.238.897.357 1.461.357.703 0 1.22-.136 1.553-.407.337-.276.628-.733.871-1.37l1.27.1c-.531 1.893-1.798 2.84-3.802 2.84-1.167 0-2.039-.233-2.614-.698-.57-.465-.855-1.032-.855-1.702 0-.476.135-.913.406-1.311.272-.399.61-.7 1.013-.905.404-.205 1.077-.415 2.017-.63 1.223-.278 1.962-.549 2.217-.814.249-.266.373-.529.373-.789 0-.31-.147-.581-.44-.813-.293-.233-.733-.349-1.32-.349-.553 0-.96.088-1.22.266-.255.171-.509.478-.764.921zm8.15-3.843l.358-1.702h1.494l-.357 1.702h-1.494zM62.715 29l1.842-8.815h1.503L64.216 29h-1.503zm9.927-3.212l1.503.157c-.377 1.102-.913 1.92-1.61 2.457a3.78 3.78 0 0 1-2.367.797c-.957 0-1.734-.31-2.332-.93-.592-.62-.888-1.485-.888-2.598 0-.962.19-1.909.572-2.838.382-.93.927-1.636 1.636-2.117.714-.487 1.527-.73 2.44-.73.947 0 1.696.268 2.25.805.553.53.83 1.236.83 2.116l-1.478.1c-.005-.56-.169-.996-.49-1.312-.315-.315-.733-.473-1.253-.473-.603 0-1.126.191-1.569.573-.443.382-.791.963-1.046 1.743a7.31 7.31 0 0 0-.373 2.241c0 .753.166 1.317.498 1.694.332.376.741.564 1.228.564s.952-.185 1.395-.556c.448-.37.8-.935 1.054-1.693zM75.048 29l1.843-8.815h1.503l-.308 1.452c.56-.625 1.057-1.057 1.495-1.295a2.986 2.986 0 0 1 1.436-.357c.547 0 1.004.147 1.37.44.37.288.614.692.73 1.212.448-.553.918-.965 1.41-1.237a3.185 3.185 0 0 1 1.57-.415c.736 0 1.286.175 1.652.523.37.349.556.839.556 1.47 0 .27-.064.719-.191 1.344L86.927 29h-1.503l1.212-5.827c.105-.476.158-.816.158-1.021 0-.288-.091-.515-.274-.68-.183-.167-.44-.25-.772-.25-.448 0-.905.136-1.37.407a2.97 2.97 0 0 0-1.087 1.07c-.254.438-.479 1.113-.672 2.026L81.722 29H80.22l1.245-5.952c.088-.404.133-.691.133-.863 0-.288-.092-.52-.274-.697-.177-.177-.41-.266-.698-.266-.426 0-.874.136-1.344.407-.465.271-.844.65-1.138 1.137-.293.482-.534 1.17-.722 2.067L76.551 29h-1.503zm13.232 3.378l2.548-12.193h1.386l-.257 1.228c.515-.537.974-.907 1.378-1.112.41-.21.841-.316 1.295-.316.841 0 1.538.308 2.092.922.553.608.83 1.483.83 2.623 0 .918-.152 1.757-.457 2.515-.304.752-.678 1.358-1.12 1.818-.443.46-.891.797-1.345 1.012a3.214 3.214 0 0 1-1.395.324c-1.057 0-1.876-.537-2.457-1.61l-.996 4.79H88.28zm2.971-6.98c0 .658.047 1.114.142 1.37a1.86 1.86 0 0 0 1.776 1.204c.863-.001 1.56-.486 2.092-1.454.531-.974.797-1.967.797-2.98 0-.747-.18-1.323-.54-1.727a1.684 1.684 0 0 0-1.328-.614c-.382 0-.736.103-1.063.307-.326.2-.63.501-.913.905-.276.399-.506.888-.689 1.47-.182.58-.274 1.087-.274 1.518zm13.174 2.506c-.52.448-1.021.778-1.503.988a3.903 3.903 0 0 1-1.544.307c-.813 0-1.469-.238-1.967-.714-.498-.481-.747-1.095-.747-1.842 0-.493.11-.927.332-1.304.227-.381.526-.686.897-.913.37-.232.824-.398 1.361-.498.337-.066.977-.119 1.917-.158.947-.038 1.625-.138 2.034-.298.116-.41.174-.75.174-1.021 0-.349-.127-.623-.381-.822-.349-.277-.858-.415-1.528-.415-.631 0-1.148.141-1.552.423-.398.277-.689.673-.872 1.187l-1.519-.133c.31-.874.8-1.543 1.47-2.008.675-.465 1.524-.698 2.548-.698 1.09 0 1.953.26 2.59.78.487.388.73.892.73 1.511 0 .47-.069 1.016-.207 1.636l-.49 2.191c-.155.697-.232 1.264-.232 1.702 0 .276.06.675.182 1.195h-1.519a5.53 5.53 0 0 1-.174-1.096zm.556-3.37c-.21.083-.437.147-.681.191a14.44 14.44 0 0 1-1.203.141c-.875.078-1.492.177-1.851.299-.36.116-.631.304-.814.565a1.47 1.47 0 0 0-.274.863c0 .42.144.766.432 1.037.293.271.708.407 1.245.407.498 0 .977-.13 1.436-.39a2.892 2.892 0 0 0 1.087-1.104c.266-.47.474-1.14.623-2.009zM107.936 29l1.843-8.815h1.502l-.307 1.452c.559-.625 1.057-1.057 1.494-1.295a2.988 2.988 0 0 1 1.436-.357c.548 0 1.005.147 1.37.44.371.288.614.692.73 1.212.449-.553.919-.965 1.412-1.237a3.184 3.184 0 0 1 1.568-.415c.736 0 1.287.175 1.652.523.371.349.556.839.556 1.47 0 .27-.063.719-.191 1.344L119.814 29h-1.502l1.212-5.827c.105-.476.158-.816.158-1.021 0-.288-.092-.515-.274-.68-.183-.167-.44-.25-.772-.25-.448 0-.905.136-1.37.407a2.967 2.967 0 0 0-1.087 1.07c-.255.438-.479 1.113-.673 2.026L114.61 29h-1.503l1.246-5.952c.088-.404.132-.691.132-.863 0-.288-.091-.52-.274-.697-.177-.177-.409-.266-.697-.266-.426 0-.874.136-1.345.407a3.21 3.21 0 0 0-1.137 1.137c-.293.482-.534 1.17-.722 2.067L109.438 29h-1.502zm13.223 3.403l.091-1.41c.31.088.612.132.905.132.305 0 .551-.07.739-.207.244-.183.509-.526.797-1.03l.481-.863-1.469-8.84h1.478l.664 4.457c.133.88.246 1.76.34 2.64l3.943-7.097h1.569l-5.62 9.985c-.542.974-1.024 1.62-1.444 1.934a2.358 2.358 0 0 1-1.453.474c-.348 0-.689-.059-1.021-.175zm8.326-.025l2.548-12.193h1.386l-.257 1.228c.515-.537.974-.907 1.378-1.112.41-.21.841-.316 1.295-.316.841 0 1.538.308 2.092.922.553.608.83 1.483.83 2.623 0 .918-.152 1.757-.457 2.515-.304.752-.678 1.358-1.12 1.818-.443.46-.891.797-1.345 1.012a3.216 3.216 0 0 1-1.395.324c-1.057 0-1.876-.537-2.457-1.61l-.996 4.79h-1.502zm2.972-6.98c0 .658.047 1.114.141 1.37a1.856 1.856 0 0 0 1.776 1.203c.863 0 1.561-.485 2.092-1.453.531-.974.797-1.967.797-2.98 0-.747-.18-1.323-.54-1.727a1.684 1.684 0 0 0-1.328-.614c-.382 0-.736.103-1.062.307-.327.2-.631.501-.914.905-.276.399-.506.888-.689 1.47-.182.58-.273 1.087-.273 1.518zm13.173 2.506c-.52.448-1.021.778-1.503.988a3.903 3.903 0 0 1-1.544.307c-.813 0-1.469-.238-1.967-.714-.498-.481-.747-1.095-.747-1.842 0-.493.111-.927.332-1.304.227-.381.526-.686.897-.913.37-.232.824-.398 1.361-.498.338-.066.977-.119 1.917-.158.947-.038 1.625-.138 2.034-.298.116-.41.174-.75.174-1.021 0-.349-.127-.623-.381-.822-.349-.277-.858-.415-1.528-.415-.631 0-1.148.141-1.552.423-.398.277-.689.673-.872 1.187l-1.519-.133c.31-.874.8-1.543 1.47-2.008.675-.465 1.524-.698 2.548-.698 1.09 0 1.953.26 2.59.78.487.388.73.892.73 1.511 0 .47-.069 1.016-.207 1.636l-.49 2.191c-.155.697-.232 1.264-.232 1.702 0 .276.06.675.182 1.195h-1.519a5.53 5.53 0 0 1-.174-1.096zm.556-3.37c-.21.083-.437.147-.681.191a14.44 14.44 0 0 1-1.203.141c-.875.078-1.492.177-1.851.299-.36.116-.631.304-.814.565a1.47 1.47 0 0 0-.274.863c0 .42.144.766.432 1.037.293.271.708.407 1.245.407.498 0 .977-.13 1.436-.39a2.892 2.892 0 0 0 1.087-1.104c.266-.47.474-1.14.623-2.009zM203.08 173l.656-3.104h-4.964l.315-1.486 6.815-7.579h1.229l-1.619 7.736h1.71l-.274 1.329h-1.71l-.655 3.104h-1.503zm.93-4.433l1.062-5.08-4.532 5.08h3.47zm5.827 4.881l10.052-12.824h1.361l-10.01 12.824h-1.403zm-.722-8.873c0-.227.05-.576.149-1.046.105-.471.257-.891.457-1.262.199-.371.42-.667.664-.888.243-.221.509-.385.797-.49a2.84 2.84 0 0 1 .979-.158c.78 0 1.37.2 1.768.598.404.393.606.971.606 1.735 0 .636-.135 1.309-.407 2.017-.265.708-.633 1.229-1.104 1.561-.464.326-1.023.489-1.676.489-.725 0-1.279-.204-1.66-.614-.382-.415-.573-1.062-.573-1.942zm1.278.274c0 .464.086.794.257.987.177.194.413.291.706.291.349 0 .664-.133.946-.398.288-.272.512-.706.673-1.304.166-.597.249-1.109.249-1.535 0-.371-.094-.656-.283-.855-.188-.2-.434-.299-.738-.299-.321 0-.617.13-.889.39-.271.255-.492.661-.664 1.22-.171.559-.257 1.06-.257 1.503zm6.143 6.043c0-.227.049-.576.149-1.046.105-.471.257-.891.457-1.262.199-.371.42-.667.664-.888a2.39 2.39 0 0 1 .797-.49 2.84 2.84 0 0 1 .979-.158c.78 0 1.37.2 1.768.598.404.393.606.971.606 1.735 0 .636-.136 1.309-.407 2.017-.265.708-.633 1.228-1.104 1.56-.465.327-1.023.49-1.676.49-.725 0-1.279-.205-1.661-.614-.381-.41-.572-1.057-.572-1.942zm1.278.282c0 .459.086.788.257.988.177.193.413.29.706.29.348 0 .664-.133.946-.398.282-.271.506-.703.673-1.295.166-.598.249-1.113.249-1.544 0-.376-.095-.664-.283-.863-.188-.2-.434-.299-.738-.299-.321 0-.617.13-.889.39-.271.254-.492.661-.664 1.22-.171.559-.257 1.063-.257 1.511zM230.092 137l1.926-9.189c-.83.653-1.998 1.176-3.503 1.569l.282-1.361a12.135 12.135 0 0 0 2.208-1.171c.731-.481 1.279-.902 1.644-1.262.221-.221.432-.489.631-.805h.871L231.603 137h-1.511zm6.575-3.993c0-1.029.152-2.075.456-3.137.31-1.063.653-1.912 1.029-2.549.377-.636.767-1.134 1.171-1.494.404-.36.799-.622 1.187-.788a3.214 3.214 0 0 1 1.303-.258c.93 0 1.704.346 2.324 1.038.626.692.938 1.69.938 2.996 0 1.345-.216 2.676-.647 3.993-.509 1.561-1.218 2.731-2.125 3.511-.698.592-1.492.889-2.383.889-.913 0-1.685-.357-2.316-1.071-.625-.72-.937-1.763-.937-3.13zm1.452.382c0 .747.125 1.331.374 1.752.337.581.838.871 1.502.871.581 0 1.11-.263 1.586-.788.686-.742 1.2-1.827 1.544-3.254.348-1.434.522-2.604.522-3.512 0-.874-.168-1.505-.506-1.892-.332-.387-.772-.581-1.32-.581a2.17 2.17 0 0 0-1.12.307c-.343.205-.673.556-.988 1.054-.448.703-.838 1.754-1.171 3.154-.282 1.196-.423 2.159-.423 2.889zm9.181 4.059l10.052-12.824h1.361l-10.01 12.824H247.3zm-.722-8.873c0-.227.049-.576.149-1.046.105-.471.257-.891.457-1.262.199-.371.42-.667.664-.888.243-.221.509-.385.797-.49a2.84 2.84 0 0 1 .979-.158c.78 0 1.37.2 1.768.598.404.393.606.971.606 1.735 0 .636-.136 1.309-.407 2.017-.265.708-.633 1.229-1.104 1.561-.465.326-1.023.489-1.676.489-.725 0-1.279-.204-1.661-.614-.381-.415-.572-1.062-.572-1.942zm1.278.274c0 .464.086.794.257.987.177.194.413.291.706.291.348 0 .664-.133.946-.398.288-.272.512-.706.673-1.304.166-.597.249-1.109.249-1.535 0-.371-.095-.656-.283-.855-.188-.2-.434-.299-.738-.299-.321 0-.617.13-.889.39-.271.255-.492.661-.664 1.22-.171.559-.257 1.06-.257 1.503zm6.143 6.043c0-.227.049-.576.149-1.046.105-.471.257-.891.456-1.262.2-.371.421-.667.665-.888.243-.222.509-.385.796-.49a2.85 2.85 0 0 1 .98-.158c.78 0 1.37.2 1.768.598.404.393.606.971.606 1.735 0 .636-.136 1.309-.407 2.017-.265.708-.633 1.228-1.104 1.56-.465.327-1.024.49-1.677.49-.724 0-1.278-.205-1.66-.614-.382-.41-.572-1.057-.572-1.942zm1.278.282c0 .459.086.788.257.988.177.193.412.29.706.29.348 0 .664-.133.946-.398.282-.271.506-.703.672-1.295.166-.598.249-1.113.249-1.544 0-.376-.094-.664-.282-.863-.188-.2-.434-.299-.739-.299-.321 0-.617.13-.888.39-.271.254-.492.661-.664 1.22-.171.559-.257 1.063-.257 1.511zM285.092 101l1.926-9.189c-.83.653-1.998 1.176-3.503 1.569l.282-1.361a12.156 12.156 0 0 0 2.208-1.17c.731-.482 1.279-.903 1.644-1.263a4.63 4.63 0 0 0 .631-.805h.871L286.603 101h-1.511zm7.836 0c.133-.819.415-1.804.847-2.955a23.82 23.82 0 0 1 2.025-4.134c.836-1.372 1.766-2.551 2.789-3.536h-6.068l.291-1.378h7.77l-.283 1.378c-1.317 1.157-2.468 2.648-3.453 4.474-1.145 2.108-1.928 4.159-2.349 6.151h-1.569zm9.372.448l10.052-12.824h1.361l-10.01 12.824H302.3zm-.722-8.873c0-.227.049-.576.149-1.046.105-.47.257-.891.457-1.262.199-.37.42-.667.664-.888.243-.221.509-.385.797-.49a2.84 2.84 0 0 1 .979-.158c.78 0 1.37.2 1.768.598.404.393.606.971.606 1.735 0 .636-.136 1.309-.407 2.017-.265.708-.633 1.229-1.104 1.56-.465.327-1.023.49-1.676.49-.725 0-1.279-.204-1.661-.614-.381-.415-.572-1.062-.572-1.942zm1.278.274c0 .465.086.794.257.987.177.194.413.291.706.291.348 0 .664-.133.946-.398.288-.272.512-.706.673-1.304.166-.597.249-1.11.249-1.535 0-.371-.095-.656-.283-.855-.188-.2-.434-.3-.738-.3-.321 0-.617.13-.889.391-.271.254-.492.661-.664 1.22-.171.56-.257 1.06-.257 1.503zm6.143 6.043c0-.227.049-.576.149-1.046.105-.47.257-.891.456-1.262a3.3 3.3 0 0 1 .665-.888c.243-.222.509-.385.796-.49a2.85 2.85 0 0 1 .98-.158c.78 0 1.37.2 1.768.598.404.393.606.971.606 1.735 0 .636-.136 1.309-.407 2.017-.265.708-.633 1.228-1.104 1.56-.465.327-1.024.49-1.677.49-.724 0-1.278-.205-1.66-.614-.382-.41-.572-1.057-.572-1.942zm1.278.282c0 .46.086.788.257.988.177.193.412.29.706.29.348 0 .664-.133.946-.398.282-.271.506-.703.672-1.295.166-.598.249-1.112.249-1.544 0-.377-.094-.664-.282-.863-.188-.2-.434-.3-.739-.3-.321 0-.617.13-.888.39-.271.255-.492.662-.664 1.221-.171.559-.257 1.063-.257 1.51zM342.996 65c.155-.725.368-1.33.639-1.818a6.078 6.078 0 0 1 1.096-1.394c.454-.443 1.328-1.182 2.623-2.217.786-.625 1.323-1.087 1.61-1.386.415-.432.717-.855.905-1.27a2.22 2.22 0 0 0 .191-.921c0-.56-.199-1.032-.598-1.42a1.973 1.973 0 0 0-1.452-.59c-.57 0-1.068.2-1.494.599-.426.392-.731 1.026-.913 1.9l-1.47-.215c.144-1.08.562-1.929 1.254-2.549.697-.625 1.563-.938 2.598-.938.692 0 1.317.144 1.876.432.564.288.988.692 1.27 1.212.282.52.423 1.057.423 1.61 0 .808-.288 1.586-.863 2.333-.354.465-1.395 1.38-3.121 2.747-.742.587-1.295 1.068-1.66 1.445-.36.376-.631.73-.814 1.062h5.446L350.251 65h-7.255zm9.671-3.993c0-1.029.152-2.075.456-3.137.31-1.063.653-1.912 1.029-2.549.377-.636.767-1.134 1.171-1.494.404-.36.799-.622 1.187-.788a3.22 3.22 0 0 1 1.303-.258c.93 0 1.704.346 2.324 1.038.626.692.938 1.69.938 2.996 0 1.345-.216 2.676-.647 3.993-.509 1.56-1.218 2.731-2.125 3.511-.698.593-1.492.888-2.383.888-.913 0-1.685-.356-2.316-1.07-.625-.72-.937-1.763-.937-3.13zm1.452.382c0 .747.125 1.331.374 1.752.337.58.838.871 1.502.871.581 0 1.11-.263 1.586-.788.686-.742 1.2-1.826 1.544-3.254.348-1.434.522-2.604.522-3.511 0-.875-.168-1.506-.506-1.893-.332-.388-.772-.581-1.32-.581a2.17 2.17 0 0 0-1.12.307c-.343.205-.673.556-.988 1.054-.448.703-.838 1.754-1.171 3.155-.282 1.195-.423 2.158-.423 2.888zm9.181 4.06l10.052-12.825h1.361l-10.01 12.824H363.3zm-.722-8.874c0-.227.049-.576.149-1.046.105-.47.257-.891.457-1.262.199-.37.42-.667.664-.888.243-.221.509-.385.797-.49a2.84 2.84 0 0 1 .979-.158c.78 0 1.37.2 1.768.598.404.393.606.971.606 1.735 0 .636-.136 1.309-.407 2.017-.265.708-.633 1.229-1.104 1.56-.465.327-1.023.49-1.676.49-.725 0-1.279-.204-1.661-.614-.381-.415-.572-1.062-.572-1.942zm1.278.274c0 .465.086.794.257.987.177.194.413.291.706.291.348 0 .664-.133.946-.399.288-.27.512-.705.673-1.303.166-.597.249-1.11.249-1.535 0-.371-.095-.656-.283-.855-.188-.2-.434-.3-.738-.3-.321 0-.617.13-.889.391-.271.255-.492.661-.664 1.22-.171.56-.257 1.06-.257 1.503zm6.143 6.043c0-.227.049-.576.149-1.046.105-.47.257-.891.456-1.262a3.3 3.3 0 0 1 .665-.888c.243-.222.509-.385.796-.49a2.85 2.85 0 0 1 .98-.158c.78 0 1.37.2 1.768.598.404.393.606.971.606 1.735 0 .636-.136 1.309-.407 2.017-.265.708-.633 1.228-1.104 1.56-.465.327-1.024.49-1.677.49-.724 0-1.278-.204-1.66-.614-.382-.41-.572-1.057-.572-1.942zm1.278.282c0 .46.086.788.257.988.177.193.412.29.706.29.348 0 .664-.133.946-.398.282-.271.506-.703.672-1.295.166-.598.249-1.112.249-1.544 0-.377-.094-.664-.282-.863-.188-.2-.434-.3-.739-.3-.321 0-.617.13-.888.39-.271.255-.492.662-.664 1.221-.171.559-.257 1.063-.257 1.51zM547.08 29l.656-3.105h-4.964l.315-1.485 6.815-7.579h1.229l-1.619 7.736h1.71l-.274 1.328h-1.71L548.583 29h-1.503zm.93-4.433l1.062-5.08-4.532 5.08h3.47zM556.543 29l.656-3.105h-4.964l.315-1.485 6.815-7.579h1.229l-1.619 7.736h1.71l-.274 1.328h-1.71L558.045 29h-1.502zm.93-4.433l1.062-5.08-4.532 5.08h3.47zm5.827 4.881l10.052-12.825h1.361l-10.01 12.825H563.3zm-.722-8.873c0-.227.049-.576.149-1.046.105-.47.257-.891.457-1.262.199-.37.42-.667.664-.888.243-.221.509-.385.797-.49a2.84 2.84 0 0 1 .979-.158c.78 0 1.37.2 1.768.598.404.393.606.971.606 1.735 0 .636-.136 1.309-.407 2.017-.265.708-.633 1.229-1.104 1.56-.465.327-1.023.49-1.676.49-.725 0-1.279-.204-1.661-.614-.381-.415-.572-1.062-.572-1.942zm1.278.274c0 .465.086.794.257.987.177.194.413.291.706.291.348 0 .664-.133.946-.398.288-.272.512-.706.673-1.304.166-.597.249-1.11.249-1.535 0-.371-.095-.656-.283-.855-.188-.2-.434-.3-.738-.3-.321 0-.617.13-.889.391-.271.255-.492.661-.664 1.22-.171.56-.257 1.06-.257 1.503zm6.143 6.043c0-.227.049-.576.149-1.046.105-.47.257-.891.456-1.262a3.3 3.3 0 0 1 .665-.888c.243-.222.509-.385.796-.49a2.85 2.85 0 0 1 .98-.158c.78 0 1.37.2 1.768.598.404.393.606.971.606 1.735 0 .636-.136 1.309-.407 2.017-.265.708-.633 1.229-1.104 1.56-.465.327-1.024.49-1.677.49-.724 0-1.278-.204-1.66-.614-.382-.41-.572-1.057-.572-1.942zm1.278.282c0 .46.086.788.257.988.177.193.412.29.706.29.348 0 .664-.133.946-.398.282-.271.506-.703.672-1.295.166-.598.249-1.113.249-1.544 0-.377-.094-.664-.282-.863-.188-.2-.434-.3-.739-.3-.321 0-.617.13-.888.39-.271.255-.492.662-.664 1.221-.171.559-.257 1.063-.257 1.51z" fill="#8293A1"/></svg>