<svg width="542" height="193" viewBox="0 0 542 193" fill="none" xmlns="http://www.w3.org/2000/svg"><path d="M499.9 12.8h-434v19.9h434V12.8zM123 48.7H65.9v19.9H123V48.7zm0 36H65.9v19.9H123V84.7zm0 36H65.9v19.9H123v-19.9zm-28.5 36H65.9v19.9h28.6v-19.9z" fill="#FFEC9E"/><path d="M65.9 0v192.6" stroke="#656A6D" stroke-width=".92" stroke-miterlimit="10"/><path d="M102.93 169.812l1.461-.182c.11.852.354 1.464.73 1.834.382.366.88.548 1.494.548a2.63 2.63 0 0 0 1.918-.797c.542-.531.813-1.14.813-1.826 0-.597-.202-1.09-.606-1.477-.404-.393-.946-.59-1.627-.59-.077 0-.238.011-.481.033l.257-1.253c.144.022.282.033.415.033.858 0 1.516-.207 1.976-.622.465-.421.697-.936.697-1.544 0-.559-.191-1.03-.573-1.411a1.869 1.869 0 0 0-1.386-.573c-.537 0-1.021.196-1.453.589-.426.388-.7.938-.821 1.652l-1.478-.299c.244-1.001.711-1.776 1.403-2.324.692-.548 1.511-.822 2.457-.822.996 0 1.801.302 2.416.905.619.603.929 1.345.929 2.225 0 .642-.169 1.203-.506 1.685-.332.476-.833.871-1.503 1.187.476.282.83.622 1.063 1.021.238.398.357.855.357 1.369 0 1.091-.41 2.037-1.229 2.839-.813.797-1.787 1.196-2.922 1.196-1.101 0-1.992-.308-2.672-.922-.676-.62-1.052-1.444-1.129-2.474zm10.907 3.636l10.052-12.824h1.361l-10.01 12.824h-1.403zm-.722-8.873c0-.227.05-.576.149-1.046.105-.471.257-.891.457-1.262.199-.371.42-.667.664-.888.243-.221.509-.385.797-.49a2.84 2.84 0 0 1 .979-.158c.78 0 1.37.2 1.768.598.404.393.606.971.606 1.735 0 .636-.135 1.309-.407 2.017-.265.708-.633 1.229-1.104 1.561-.464.326-1.023.489-1.676.489-.725 0-1.279-.204-1.66-.614-.382-.415-.573-1.062-.573-1.942zm1.278.274c0 .464.086.794.257.987.177.194.413.291.706.291.349 0 .664-.133.946-.398.288-.272.512-.706.673-1.304.166-.597.249-1.109.249-1.535 0-.371-.094-.656-.283-.855-.188-.2-.434-.299-.738-.299-.321 0-.617.13-.889.39-.271.255-.492.661-.664 1.22-.171.559-.257 1.06-.257 1.503zm6.143 6.043c0-.227.049-.576.149-1.046.105-.471.257-.891.457-1.262.199-.371.42-.667.664-.888a2.39 2.39 0 0 1 .797-.49 2.84 2.84 0 0 1 .979-.158c.78 0 1.37.2 1.768.598.404.393.606.971.606 1.735 0 .636-.136 1.309-.407 2.017-.265.708-.633 1.228-1.104 1.56-.465.327-1.023.49-1.676.49-.725 0-1.279-.205-1.661-.614-.381-.41-.572-1.057-.572-1.942zm1.278.282c0 .459.086.788.257.988.177.193.413.29.706.29.348 0 .664-.133.946-.398.282-.271.506-.703.673-1.295.166-.598.249-1.113.249-1.544 0-.376-.095-.664-.283-.863-.188-.2-.434-.299-.738-.299-.321 0-.617.13-.889.39-.271.254-.492.661-.664 1.22-.171.559-.257 1.063-.257 1.511zm11.606-41.23c.42-.348.838-.608 1.253-.78a3.197 3.197 0 0 1 1.245-.266c.925 0 1.688.316 2.291.947.604.631.905 1.48.905 2.548 0 1.378-.448 2.559-1.344 3.545-.775.846-1.716 1.27-2.823 1.27-1.007 0-1.848-.368-2.523-1.104-.67-.742-1.005-1.796-1.005-3.163 0-1.223.216-2.488.648-3.794.332-1.001.741-1.826 1.228-2.473.493-.653 1.013-1.132 1.561-1.436.553-.305 1.176-.457 1.868-.457.83 0 1.508.26 2.033.781.526.514.825 1.253.897 2.216l-1.395.133c-.077-.659-.265-1.135-.564-1.428a1.468 1.468 0 0 0-1.079-.44c-.449 0-.9.174-1.353.523-.454.349-.844.866-1.171 1.552-.326.681-.55 1.29-.672 1.826zm-.523 3.636c0 .686.213 1.265.639 1.735.426.465.908.697 1.444.697.377 0 .775-.141 1.196-.423.42-.288.777-.722 1.071-1.303.293-.581.44-1.16.44-1.735 0-.742-.205-1.334-.615-1.777-.404-.448-.893-.672-1.469-.672-.664 0-1.281.327-1.851.98-.57.647-.855 1.48-.855 2.498zm8.94 3.868l10.052-12.824h1.361l-10.01 12.824h-1.403zm-.722-8.873c0-.227.05-.576.149-1.046.105-.471.257-.891.457-1.262.199-.371.42-.667.664-.888.243-.221.509-.385.797-.49a2.84 2.84 0 0 1 .979-.158c.78 0 1.37.2 1.768.598.404.393.606.971.606 1.735 0 .636-.135 1.309-.407 2.017-.265.708-.633 1.229-1.104 1.561-.464.326-1.023.489-1.676.489-.725 0-1.279-.204-1.66-.614-.382-.415-.573-1.062-.573-1.942zm1.278.274c0 .464.086.794.257.987.177.194.413.291.706.291.349 0 .664-.133.946-.398.288-.272.512-.706.673-1.304.166-.597.249-1.109.249-1.535 0-.371-.094-.656-.283-.855-.188-.2-.434-.299-.738-.299-.321 0-.617.13-.889.39-.271.255-.492.661-.664 1.22-.171.559-.257 1.06-.257 1.503zm6.143 6.043c0-.227.049-.576.149-1.046.105-.471.257-.891.457-1.262.199-.371.42-.667.664-.888a2.39 2.39 0 0 1 .797-.49 2.84 2.84 0 0 1 .979-.158c.78 0 1.37.2 1.768.598.404.393.606.971.606 1.735 0 .636-.136 1.309-.407 2.017-.265.708-.633 1.228-1.104 1.56-.465.327-1.023.49-1.676.49-.725 0-1.279-.205-1.661-.614-.381-.41-.572-1.057-.572-1.942zm1.278.282c0 .459.086.788.257.988.177.193.413.29.706.29.348 0 .664-.133.946-.398.282-.271.506-.703.673-1.295.166-.598.249-1.113.249-1.544 0-.376-.095-.664-.283-.863-.188-.2-.434-.299-.738-.299-.321 0-.617.13-.889.39-.271.254-.492.661-.664 1.22-.171.559-.257 1.063-.257 1.511zm-16.394-41.23c.42-.348.838-.608 1.253-.78a3.194 3.194 0 0 1 1.245-.266c.925 0 1.688.316 2.291.947.604.63.905 1.48.905 2.548 0 1.378-.448 2.56-1.344 3.544-.775.847-1.716 1.271-2.823 1.271-1.007 0-1.848-.368-2.523-1.104-.67-.742-1.005-1.796-1.005-3.163 0-1.223.216-2.487.648-3.794.332-1.001.741-1.826 1.228-2.473.493-.653 1.013-1.132 1.561-1.436.553-.305 1.176-.457 1.868-.457.83 0 1.508.26 2.033.78.526.515.825 1.254.897 2.217l-1.395.133c-.077-.659-.265-1.135-.564-1.428a1.467 1.467 0 0 0-1.079-.44c-.449 0-.9.174-1.353.523-.454.349-.844.866-1.171 1.552-.326.68-.55 1.29-.672 1.826zm-.523 3.636c0 .686.213 1.265.639 1.735.426.465.908.697 1.444.697.377 0 .775-.14 1.196-.423.42-.288.777-.722 1.071-1.303.293-.581.44-1.16.44-1.735 0-.742-.205-1.334-.615-1.777-.404-.448-.893-.672-1.469-.672-.664 0-1.281.326-1.851.98-.57.647-.855 1.48-.855 2.498zm8.94 3.868l10.052-12.824h1.361l-10.01 12.824h-1.403zm-.722-8.873c0-.227.05-.576.149-1.046.105-.47.257-.891.457-1.262.199-.37.42-.667.664-.888.243-.221.509-.385.797-.49a2.84 2.84 0 0 1 .979-.158c.78 0 1.37.2 1.768.598.404.393.606.971.606 1.735 0 .636-.135 1.309-.407 2.017-.265.708-.633 1.229-1.104 1.56-.464.327-1.023.49-1.676.49-.725 0-1.279-.204-1.66-.614-.382-.415-.573-1.062-.573-1.942zm1.278.274c0 .465.086.794.257.987.177.194.413.291.706.291.349 0 .664-.133.946-.398.288-.272.512-.706.673-1.304.166-.597.249-1.11.249-1.535 0-.371-.094-.656-.283-.855-.188-.2-.434-.3-.738-.3-.321 0-.617.13-.889.391-.271.254-.492.661-.664 1.22-.171.56-.257 1.06-.257 1.503zm6.143 6.043c0-.227.049-.576.149-1.046.105-.47.257-.891.457-1.262.199-.37.42-.667.664-.888a2.4 2.4 0 0 1 .797-.49 2.84 2.84 0 0 1 .979-.158c.78 0 1.37.2 1.768.598.404.393.606.971.606 1.735 0 .636-.136 1.309-.407 2.017-.265.708-.633 1.228-1.104 1.56-.465.327-1.023.49-1.676.49-.725 0-1.279-.205-1.661-.614-.381-.41-.572-1.057-.572-1.942zm1.278.282c0 .46.086.788.257.988.177.193.413.29.706.29.348 0 .664-.133.946-.398.282-.271.506-.703.673-1.295.166-.598.249-1.112.249-1.544 0-.377-.095-.664-.283-.863-.188-.2-.434-.3-.738-.3-.321 0-.617.13-.889.39-.271.255-.492.662-.664 1.221-.171.559-.257 1.063-.257 1.51zm-16.394-41.23c.42-.348.838-.608 1.253-.78a3.194 3.194 0 0 1 1.245-.266c.925 0 1.688.316 2.291.947.604.63.905 1.48.905 2.548 0 1.378-.448 2.56-1.344 3.544-.775.847-1.716 1.27-2.823 1.27-1.007 0-1.848-.367-2.523-1.103-.67-.742-1.005-1.796-1.005-3.163 0-1.223.216-2.488.648-3.794.332-1.001.741-1.826 1.228-2.473.493-.653 1.013-1.132 1.561-1.436.553-.305 1.176-.457 1.868-.457.83 0 1.508.26 2.033.78.526.515.825 1.254.897 2.217l-1.395.133c-.077-.659-.265-1.135-.564-1.428a1.467 1.467 0 0 0-1.079-.44c-.449 0-.9.174-1.353.523-.454.349-.844.866-1.171 1.552-.326.68-.55 1.29-.672 1.826zm-.523 3.636c0 .686.213 1.265.639 1.735.426.465.908.697 1.444.697.377 0 .775-.14 1.196-.423.42-.288.777-.722 1.071-1.303.293-.581.44-1.16.44-1.735 0-.742-.205-1.334-.615-1.777-.404-.448-.893-.672-1.469-.672-.664 0-1.281.327-1.851.98-.57.647-.855 1.48-.855 2.498zm8.94 3.868l10.052-12.824h1.361l-10.01 12.824h-1.403zm-.722-8.873c0-.227.05-.576.149-1.046.105-.47.257-.891.457-1.262.199-.37.42-.667.664-.888.243-.221.509-.385.797-.49a2.84 2.84 0 0 1 .979-.158c.78 0 1.37.2 1.768.598.404.393.606.971.606 1.735 0 .636-.135 1.309-.407 2.017-.265.708-.633 1.229-1.104 1.56-.464.327-1.023.49-1.676.49-.725 0-1.279-.204-1.66-.614-.382-.415-.573-1.062-.573-1.942zm1.278.274c0 .465.086.794.257.987.177.194.413.291.706.291.349 0 .664-.133.946-.399.288-.27.512-.705.673-1.303.166-.597.249-1.11.249-1.535 0-.371-.094-.656-.283-.855-.188-.2-.434-.3-.738-.3-.321 0-.617.13-.889.391-.271.255-.492.661-.664 1.22-.171.56-.257 1.06-.257 1.503zm6.143 6.043c0-.227.049-.576.149-1.046.105-.47.257-.891.457-1.262.199-.37.42-.667.664-.888a2.4 2.4 0 0 1 .797-.49 2.84 2.84 0 0 1 .979-.158c.78 0 1.37.2 1.768.598.404.393.606.971.606 1.735 0 .636-.136 1.309-.407 2.017-.265.708-.633 1.228-1.104 1.56-.465.327-1.023.49-1.676.49-.725 0-1.279-.204-1.661-.614-.381-.41-.572-1.057-.572-1.942zm1.278.282c0 .46.086.788.257.988.177.193.413.29.706.29.348 0 .664-.133.946-.398.282-.271.506-.703.673-1.295.166-.598.249-1.112.249-1.544 0-.377-.095-.664-.283-.863-.188-.2-.434-.3-.738-.3-.321 0-.617.13-.889.39-.271.255-.492.662-.664 1.221-.171.559-.257 1.063-.257 1.51zM509.465 29c.133-.819.415-1.804.847-2.955a23.82 23.82 0 0 1 2.025-4.134c.836-1.372 1.766-2.551 2.789-3.536h-6.067l.29-1.378h7.77l-.283 1.378c-1.317 1.157-2.468 2.648-3.453 4.474-1.145 2.108-1.928 4.159-2.349 6.151h-1.569zm8.202-3.993c0-1.029.152-2.075.456-3.137.31-1.063.653-1.912 1.029-2.549.377-.636.767-1.134 1.171-1.494.404-.36.799-.622 1.187-.788a3.22 3.22 0 0 1 1.303-.258c.93 0 1.704.346 2.324 1.038.626.692.938 1.69.938 2.996 0 1.345-.216 2.676-.647 3.993-.509 1.56-1.218 2.731-2.125 3.511-.698.593-1.492.889-2.383.889-.913 0-1.685-.357-2.316-1.071-.625-.72-.937-1.763-.937-3.13zm1.452.382c0 .747.125 1.331.374 1.752.337.58.838.871 1.502.871.581 0 1.11-.263 1.586-.788.686-.742 1.2-1.826 1.544-3.254.348-1.433.522-2.604.522-3.511 0-.875-.168-1.506-.506-1.893-.332-.387-.772-.581-1.32-.581a2.17 2.17 0 0 0-1.12.307c-.343.205-.673.556-.988 1.054-.448.703-.838 1.754-1.171 3.154-.282 1.196-.423 2.159-.423 2.89zm9.181 4.06l10.052-12.826h1.361l-10.01 12.825H528.3zm-.722-8.874c0-.227.049-.576.149-1.046.105-.47.257-.891.457-1.262.199-.37.42-.667.664-.888.243-.221.509-.385.797-.49a2.84 2.84 0 0 1 .979-.158c.78 0 1.37.2 1.768.598.404.393.606.971.606 1.735 0 .636-.136 1.309-.407 2.017-.265.708-.633 1.229-1.104 1.56-.465.327-1.023.49-1.676.49-.725 0-1.279-.204-1.661-.614-.381-.415-.572-1.062-.572-1.942zm1.278.274c0 .465.086.794.257.987.177.194.413.291.706.291.348 0 .664-.133.946-.398.288-.272.512-.706.673-1.304.166-.597.249-1.11.249-1.535 0-.371-.095-.656-.283-.855-.188-.2-.434-.3-.738-.3-.321 0-.617.13-.889.391-.271.255-.492.661-.664 1.22-.171.56-.257 1.06-.257 1.503zm6.143 6.043c0-.227.049-.576.149-1.046.105-.47.257-.891.456-1.262a3.3 3.3 0 0 1 .665-.888c.243-.222.509-.385.796-.49a2.85 2.85 0 0 1 .98-.158c.78 0 1.37.2 1.768.598.404.393.606.971.606 1.735 0 .636-.136 1.309-.407 2.017-.265.708-.633 1.229-1.104 1.56-.465.327-1.024.49-1.677.49-.724 0-1.278-.204-1.66-.614-.382-.41-.572-1.057-.572-1.942zm1.278.282c0 .46.086.788.257.988.177.193.412.29.706.29.348 0 .664-.133.946-.398.282-.271.506-.703.672-1.295.166-.598.249-1.113.249-1.544 0-.377-.094-.664-.282-.863-.188-.2-.434-.3-.739-.3-.321 0-.617.13-.888.39-.271.255-.492.662-.664 1.221-.171.559-.257 1.063-.257 1.51zM31.89 22.727l-1.663 1.492L29.57 28h-1.468l1.976-11.375h1.469l-.969 5.54 5.797-5.54h1.89l-5.288 5.094L36.516 28h-1.633l-2.992-5.273zm8.524 3.14l3.008-6.32h1.562l-5.015 9.86c-.698 1.369-1.594 2.046-2.688 2.03-.192-.005-.476-.052-.851-.14l.125-1.172.367.04c.448.02.833-.082 1.156-.306.328-.218.617-.575.867-1.07l.508-.969-1.46-8.273h1.476l.945 6.32zM46.336 28H44.93l1.468-8.453h1.407L46.335 28zM47.5 16.46c.24-.01.438.063.594.22a.785.785 0 0 1 .242.601.841.841 0 0 1-.836.852.78.78 0 0 1-.602-.211.765.765 0 0 1-.226-.594.886.886 0 0 1 .234-.61.827.827 0 0 1 .594-.257zm4.219 9.563l3.047-6.476h1.492L52 28h-1.078l-1.656-8.453h1.39l1.063 6.476zM10.805 172l1.976-11.375 2.953.008c.928 0 1.724.232 2.391.695.672.464 1.154 1.104 1.445 1.922.292.812.378 1.724.258 2.734l-.078.571c-.23 1.656-.872 2.979-1.93 3.968-1.057.985-2.385 1.477-3.984 1.477h-3.031zm3.226-10.141l-1.547 8.914 1.446.008c1.104 0 2.039-.343 2.804-1.031.771-.688 1.271-1.63 1.5-2.828.183-.958.245-1.774.188-2.445-.078-.808-.346-1.438-.805-1.891-.458-.458-1.073-.698-1.844-.719l-1.742-.008zm9.625 1.68l-.203 1.07c.76-.833 1.625-1.239 2.594-1.218.797.02 1.385.297 1.765.828.38.531.521 1.278.422 2.242L27.312 172h-1.414l.93-5.562c.031-.256.034-.493.008-.711-.089-.73-.518-1.102-1.29-1.118-.848-.015-1.593.438-2.233 1.36L22.265 172h-1.414l1.468-8.453 1.336-.008zM31.023 172h-1.406l1.469-8.453h1.406L31.023 172zm1.165-11.539c.24-.01.437.062.593.219a.783.783 0 0 1 .242.601.841.841 0 0 1-.242.602.844.844 0 0 1-.593.25.78.78 0 0 1-.602-.211.765.765 0 0 1-.227-.594.884.884 0 0 1 .235-.609.823.823 0 0 1 .593-.258zm8.804 7.351a6.712 6.712 0 0 1-.695 2.321c-.36.687-.805 1.203-1.336 1.547-.531.338-1.12.5-1.766.484-.979-.021-1.729-.352-2.25-.992l-.758 4.078h-1.414l2.032-11.703 1.28-.008-.155.945c.698-.75 1.534-1.114 2.508-1.093.812.02 1.445.32 1.898.898.453.578.693 1.375.719 2.391.005.333-.008.656-.04.968l-.023.164zm-1.39-.164l.039-.656c0-.76-.146-1.341-.438-1.742-.286-.406-.703-.62-1.25-.641-.818-.02-1.523.368-2.117 1.164l-.711 4.055c.318.75.888 1.136 1.71 1.156.704.016 1.3-.257 1.79-.82.495-.568.82-1.406.977-2.516zm7.789-2.812l-.664-.07c-.907 0-1.62.408-2.141 1.226L43.546 172h-1.413l1.469-8.453 1.367-.008-.211.984c.599-.786 1.304-1.169 2.117-1.148.172 0 .396.039.672.117l-.156 1.344zM52 163.391c.708.01 1.315.203 1.82.578.505.375.878.893 1.117 1.554.245.657.329 1.375.25 2.157l-.015.172a5.724 5.724 0 0 1-.734 2.234 4.323 4.323 0 0 1-1.516 1.547c-.62.37-1.3.544-2.04.523-.702-.01-1.31-.203-1.82-.578-.505-.375-.874-.885-1.109-1.531-.234-.646-.318-1.357-.25-2.133.078-.875.315-1.661.711-2.359.396-.698.904-1.237 1.523-1.617a3.647 3.647 0 0 1 2.063-.547zm-2.875 4.531a4.79 4.79 0 0 0 0 1.023c.052.615.234 1.104.547 1.469.318.365.74.555 1.266.57.468.016.9-.099 1.296-.343.396-.25.73-.625 1-1.125.271-.5.446-1.055.524-1.664.041-.48.05-.883.023-1.211-.062-.631-.252-1.128-.57-1.493-.318-.364-.74-.557-1.266-.578-.729-.015-1.349.271-1.86.86-.51.588-.825 1.359-.944 2.312l-.016.18zm-32.977-31.766c-.723-.015-1.354-.19-1.89-.523-.531-.334-.95-.823-1.258-1.469-.307-.651-.477-1.38-.508-2.187-.031-.631.04-1.409.211-2.336a8.014 8.014 0 0 1 .89-2.508c.423-.745.936-1.341 1.54-1.789.818-.604 1.75-.896 2.797-.875 1.11.021 1.984.406 2.625 1.156.64.745.984 1.755 1.03 3.031.022.547-.036 1.242-.17 2.086a8.457 8.457 0 0 1-.712 2.352 5.819 5.819 0 0 1-1.297 1.82c-.916.854-2.002 1.268-3.258 1.242zm3.993-7.14c.03-1.026-.149-1.821-.54-2.383-.39-.568-.97-.862-1.742-.883a2.983 2.983 0 0 0-1.875.562c-.546.396-.997.99-1.351 1.782-.35.786-.57 1.784-.664 2.992l-.024.508c-.03 1.021.151 1.82.547 2.398.396.578.971.878 1.727.899.984.026 1.8-.329 2.445-1.063.651-.739 1.083-1.776 1.297-3.109.104-.657.164-1.224.18-1.703zm2.773 2.742a6.56 6.56 0 0 1 .711-2.328c.37-.693.826-1.211 1.367-1.555a3.122 3.122 0 0 1 1.79-.492c.942.021 1.666.364 2.171 1.031l.813-4.414h1.414l-2.078 12h-1.29l.149-.906c-.667.729-1.49 1.083-2.469 1.062-.781-.021-1.404-.325-1.867-.914-.463-.594-.713-1.388-.75-2.383a7.59 7.59 0 0 1 .04-1.101zm1.36.812c-.016.745.117 1.323.398 1.735.281.411.693.622 1.234.633.818.036 1.545-.376 2.18-1.235l.672-3.906c-.313-.771-.88-1.167-1.703-1.188a2.15 2.15 0 0 0-1.477.508c-.422.349-.745.841-.969 1.477a6.124 6.124 0 0 0-.336 1.976zm10.718 3.586c-1.052-.021-1.875-.409-2.469-1.164-.593-.755-.843-1.721-.75-2.898l.04-.336a5.657 5.657 0 0 1 .742-2.297c.411-.693.911-1.214 1.5-1.563a3.47 3.47 0 0 1 1.906-.507c.87.02 1.552.31 2.047.867.495.557.765 1.312.812 2.265.016.339.005.678-.03 1.016l-.087.649H33.18c-.094.765.03 1.416.375 1.953.349.536.867.815 1.554.836.834.02 1.605-.355 2.313-1.125l.812.687a3.74 3.74 0 0 1-1.375 1.203c-.557.287-1.18.425-1.867.414zm.899-7.586a2.083 2.083 0 0 0-1.532.594c-.432.412-.776 1.024-1.03 1.836l4.108.008.032-.125c.083-.656-.024-1.201-.32-1.633-.292-.438-.712-.664-1.258-.68zm8.976 5.141c.078-.583-.242-.995-.96-1.234l-1.47-.43c-1.24-.427-1.838-1.136-1.796-2.125.036-.745.375-1.354 1.015-1.828.646-.479 1.404-.714 2.274-.703.854.01 1.547.26 2.078.75.536.484.794 1.117.773 1.898l-1.406-.008c.01-.422-.122-.765-.398-1.031-.276-.266-.644-.404-1.102-.414-.49-.01-.911.109-1.266.359a1.317 1.317 0 0 0-.57.922c-.068.49.232.847.898 1.071l.711.195c.97.25 1.657.575 2.063.976.406.401.594.899.562 1.493a2.37 2.37 0 0 1-.515 1.375c-.313.39-.73.69-1.25.898a4.22 4.22 0 0 1-1.664.281c-.896-.01-1.636-.271-2.219-.781-.583-.516-.865-1.177-.844-1.984l1.414.007c0 .474.151.855.453 1.141.302.287.717.43 1.243.43.515.01.96-.097 1.336-.321.375-.229.588-.541.64-.937zM52.883 136a1.893 1.893 0 0 1-.055-.445l.024-.446c-.776.719-1.6 1.068-2.47 1.047-.744-.01-1.35-.245-1.82-.703-.463-.463-.674-1.042-.632-1.734.052-.896.442-1.594 1.172-2.094.734-.505 1.698-.758 2.89-.758l1.477.008.093-.672c.053-.505-.046-.904-.296-1.195-.245-.297-.615-.451-1.11-.461a2.178 2.178 0 0 0-1.289.359c-.37.245-.596.571-.68.977l-1.421.008c.047-.495.24-.933.578-1.313a3.308 3.308 0 0 1 1.304-.89 4.154 4.154 0 0 1 1.649-.305c.88.021 1.565.289 2.055.805.49.51.695 1.19.617 2.039l-.688 4.187-.039.602c-.01.286.021.57.094.851l-.016.133h-1.437zm-2.219-1.094a2.46 2.46 0 0 0 1.281-.32 3.28 3.28 0 0 0 1.047-.945l.305-1.743-1.07-.007c-.891 0-1.573.14-2.047.421-.474.282-.742.68-.805 1.196-.047.396.044.726.273.992.235.26.573.396 1.016.406zM8.563 94.727l-1.665 1.492L6.242 100H4.773L6.75 88.625h1.469l-.969 5.54 5.797-5.54h1.89l-5.289 5.094 3.54 6.281h-1.633l-2.992-5.273zm8.445-2.149c.74-.807 1.591-1.2 2.555-1.18.791.01 1.377.284 1.757.82.386.532.529 1.28.43 2.243L20.828 100h-1.414l.93-5.563c.031-.255.034-.492.008-.71-.089-.73-.519-1.102-1.29-1.118-.864-.02-1.609.433-2.234 1.36L15.781 100h-1.414l2.086-12h1.414l-.86 4.578zM28.164 100a1.891 1.891 0 0 1-.055-.445l.024-.446c-.776.72-1.6 1.068-2.469 1.047-.745-.01-1.352-.245-1.82-.703-.464-.463-.675-1.041-.633-1.734.052-.896.443-1.594 1.172-2.094.734-.505 1.698-.758 2.89-.758l1.477.008.094-.672c.052-.505-.047-.904-.297-1.195-.245-.297-.615-.45-1.11-.461-.484-.01-.914.11-1.289.36-.37.244-.596.57-.68.976l-1.421.008c.047-.495.24-.933.578-1.313a3.308 3.308 0 0 1 1.305-.89 4.172 4.172 0 0 1 1.648-.305c.88.02 1.565.289 2.055.805.49.51.695 1.19.617 2.039l-.688 4.187-.039.602c-.01.286.021.57.094.851l-.015.133h-1.438zm-2.219-1.094c.453.01.88-.096 1.282-.32a3.28 3.28 0 0 0 1.046-.945l.305-1.743-1.07-.007c-.89 0-1.573.14-2.047.421-.474.282-.742.68-.805 1.196-.047.396.045.726.274.992.234.26.573.396 1.015.406zm10.836-6.07l-.664-.07c-.906 0-1.62.408-2.14 1.226L32.937 100h-1.414l1.47-8.453 1.366-.008-.21.984c.598-.786 1.304-1.169 2.117-1.148.172 0 .395.04.672.117l-.157 1.344zm3.102 3.266l-1.11.992-.5 2.906H36.86l2.086-12h1.414l-1.25 7.172.868-.875 3-2.75h1.836l-3.883 3.601L43.602 100h-1.547l-2.172-3.898zM46.336 100H44.93l1.468-8.453h1.407L46.335 100zM47.5 88.46c.24-.01.438.063.594.22a.785.785 0 0 1 .242.601.841.841 0 0 1-.836.852.78.78 0 0 1-.602-.211.765.765 0 0 1-.226-.594.886.886 0 0 1 .234-.61.827.827 0 0 1 .594-.257zm4.219 9.563l3.047-6.476h1.492L52 100h-1.078l-1.656-8.453h1.39l1.063 6.476zm-19.992-35.25h5.234L36.742 64H30.04l1.977-11.375h1.476l-1.765 10.148zm8.554-.75l3.047-6.476h1.492L40.562 64h-1.078l-1.656-8.453h1.39l1.063 6.476zM46.336 64H44.93l1.468-8.453h1.407L46.335 64zM47.5 52.46c.24-.01.438.063.594.22a.785.785 0 0 1 .242.601.841.841 0 0 1-.836.852.78.78 0 0 1-.602-.211.765.765 0 0 1-.226-.594.886.886 0 0 1 .234-.61.827.827 0 0 1 .594-.257zm4.219 9.563l3.047-6.476h1.492L52 64h-1.078l-1.656-8.453h1.39l1.063 6.476z" fill="#8293A1"/></svg>