<svg width="524" height="227" viewBox="0 0 524 227" fill="none" xmlns="http://www.w3.org/2000/svg"><path d="M479.9 12.7H107.4v19.9h372.5V12.7zm-200.2 36H107.4v19.9h172.3V48.7zm-61 36H107.4v19.9h111.3V84.7zm-54.2 36h-57.1v19.9h57.1v-19.9zm-28.6 36h-28.5v19.9h28.5v-19.9zm-6 35.9h-22.5v19.9h22.5v-19.9z" fill="#50C4ED"/><path d="M107.4 0v227" stroke="#656A6D" stroke-miterlimit="10"/><path d="M140.93 205.812l1.461-.182c.11.852.354 1.464.73 1.834.382.366.88.548 1.494.548a2.63 2.63 0 0 0 1.918-.797c.542-.531.813-1.14.813-1.826 0-.597-.202-1.09-.606-1.477-.404-.393-.946-.59-1.627-.59-.077 0-.238.011-.481.033l.257-1.253c.144.022.282.033.415.033.858 0 1.516-.207 1.976-.622.465-.421.697-.936.697-1.544 0-.559-.191-1.03-.573-1.411a1.869 1.869 0 0 0-1.386-.573c-.537 0-1.021.196-1.453.589-.426.388-.7.938-.821 1.652l-1.478-.299c.244-1.001.711-1.776 1.403-2.324.692-.548 1.511-.822 2.457-.822.996 0 1.801.302 2.416.905.619.603.929 1.345.929 2.225 0 .642-.169 1.203-.506 1.685-.332.476-.833.871-1.503 1.187.476.282.83.622 1.063 1.021.238.398.357.855.357 1.369 0 1.091-.41 2.037-1.229 2.839-.813.797-1.787 1.196-2.922 1.196-1.101 0-1.992-.308-2.672-.922-.676-.62-1.052-1.444-1.129-2.474zm10.907 3.636l10.052-12.824h1.361l-10.01 12.824h-1.403zm-.722-8.873c0-.227.05-.576.149-1.046.105-.471.257-.891.457-1.262.199-.371.42-.667.664-.888.243-.221.509-.385.797-.49a2.84 2.84 0 0 1 .979-.158c.78 0 1.37.2 1.768.598.404.393.606.971.606 1.735 0 .636-.135 1.309-.407 2.017-.265.708-.633 1.229-1.104 1.561-.464.326-1.023.489-1.676.489-.725 0-1.279-.204-1.66-.614-.382-.415-.573-1.062-.573-1.942zm1.278.274c0 .464.086.794.257.987.177.194.413.291.706.291.349 0 .664-.133.946-.398.288-.272.512-.706.673-1.304.166-.597.249-1.109.249-1.535 0-.371-.094-.656-.283-.855-.188-.2-.434-.299-.738-.299-.321 0-.617.13-.889.39-.271.255-.492.661-.664 1.22-.171.559-.257 1.06-.257 1.503zm6.143 6.043c0-.227.049-.576.149-1.046.105-.471.257-.891.457-1.262.199-.371.42-.667.664-.888a2.39 2.39 0 0 1 .797-.49 2.84 2.84 0 0 1 .979-.158c.78 0 1.37.2 1.768.598.404.393.606.971.606 1.735 0 .636-.136 1.309-.407 2.017-.265.708-.633 1.228-1.104 1.56-.465.327-1.023.49-1.676.49-.725 0-1.279-.205-1.661-.614-.381-.41-.572-1.057-.572-1.942zm1.278.282c0 .459.086.788.257.988.177.193.413.29.706.29.348 0 .664-.133.946-.398.282-.271.506-.703.673-1.295.166-.598.249-1.113.249-1.544 0-.376-.095-.664-.283-.863-.188-.2-.434-.299-.738-.299-.321 0-.617.13-.889.39-.271.254-.492.661-.664 1.22-.171.559-.257 1.063-.257 1.511zM151.08 173l.656-3.104h-4.964l.315-1.486 6.815-7.579h1.229l-1.619 7.736h1.71l-.274 1.329h-1.71l-.655 3.104h-1.503zm.93-4.433l1.062-5.08-4.532 5.08h3.47zm5.827 4.881l10.052-12.824h1.361l-10.01 12.824h-1.403zm-.722-8.873c0-.227.05-.576.149-1.046.105-.471.257-.891.457-1.262.199-.371.42-.667.664-.888.243-.221.509-.385.797-.49a2.84 2.84 0 0 1 .979-.158c.78 0 1.37.2 1.768.598.404.393.606.971.606 1.735 0 .636-.135 1.309-.407 2.017-.265.708-.633 1.229-1.104 1.561-.464.326-1.023.489-1.676.489-.725 0-1.279-.204-1.66-.614-.382-.415-.573-1.062-.573-1.942zm1.278.274c0 .464.086.794.257.987.177.194.413.291.706.291.349 0 .664-.133.946-.398.288-.272.512-.706.673-1.304.166-.597.249-1.109.249-1.535 0-.371-.094-.656-.283-.855-.188-.2-.434-.299-.738-.299-.321 0-.617.13-.889.39-.271.255-.492.661-.664 1.22-.171.559-.257 1.06-.257 1.503zm6.143 6.043c0-.227.049-.576.149-1.046.105-.471.257-.891.457-1.262.199-.371.42-.667.664-.888a2.39 2.39 0 0 1 .797-.49 2.84 2.84 0 0 1 .979-.158c.78 0 1.37.2 1.768.598.404.393.606.971.606 1.735 0 .636-.136 1.309-.407 2.017-.265.708-.633 1.228-1.104 1.56-.465.327-1.023.49-1.676.49-.725 0-1.279-.205-1.661-.614-.381-.41-.572-1.057-.572-1.942zm1.278.282c0 .459.086.788.257.988.177.193.413.29.706.29.348 0 .664-.133.946-.398.282-.271.506-.703.673-1.295.166-.598.249-1.113.249-1.544 0-.376-.095-.664-.283-.863-.188-.2-.434-.299-.738-.299-.321 0-.617.13-.889.39-.271.254-.492.661-.664 1.22-.171.559-.257 1.063-.257 1.511zM178.092 137l1.926-9.189c-.83.653-1.998 1.176-3.503 1.569l.282-1.361a12.135 12.135 0 0 0 2.208-1.171c.731-.481 1.279-.902 1.644-1.262.221-.221.432-.489.631-.805h.871L179.603 137h-1.511zm6.575-3.993c0-1.029.152-2.075.456-3.137.31-1.063.653-1.912 1.029-2.549.377-.636.767-1.134 1.171-1.494.404-.36.799-.622 1.187-.788a3.214 3.214 0 0 1 1.303-.258c.93 0 1.704.346 2.324 1.038.626.692.938 1.69.938 2.996 0 1.345-.216 2.676-.647 3.993-.509 1.561-1.218 2.731-2.125 3.511-.698.592-1.492.889-2.383.889-.913 0-1.685-.357-2.316-1.071-.625-.72-.937-1.763-.937-3.13zm1.452.382c0 .747.125 1.331.374 1.752.337.581.838.871 1.502.871.581 0 1.11-.263 1.586-.788.686-.742 1.2-1.827 1.544-3.254.348-1.434.522-2.604.522-3.512 0-.874-.168-1.505-.506-1.892-.332-.387-.772-.581-1.32-.581a2.17 2.17 0 0 0-1.12.307c-.343.205-.673.556-.988 1.054-.448.703-.838 1.754-1.171 3.154-.282 1.196-.423 2.159-.423 2.889zm9.181 4.059l10.052-12.824h1.361l-10.01 12.824H195.3zm-.722-8.873c0-.227.049-.576.149-1.046.105-.471.257-.891.457-1.262.199-.371.42-.667.664-.888.243-.221.509-.385.797-.49a2.84 2.84 0 0 1 .979-.158c.78 0 1.37.2 1.768.598.404.393.606.971.606 1.735 0 .636-.136 1.309-.407 2.017-.265.708-.633 1.229-1.104 1.561-.465.326-1.023.489-1.676.489-.725 0-1.279-.204-1.661-.614-.381-.415-.572-1.062-.572-1.942zm1.278.274c0 .464.086.794.257.987.177.194.413.291.706.291.348 0 .664-.133.946-.398.288-.272.512-.706.673-1.304.166-.597.249-1.109.249-1.535 0-.371-.095-.656-.283-.855-.188-.2-.434-.299-.738-.299-.321 0-.617.13-.889.39-.271.255-.492.661-.664 1.22-.171.559-.257 1.06-.257 1.503zm6.143 6.043c0-.227.049-.576.149-1.046.105-.471.257-.891.456-1.262.2-.371.421-.667.665-.888.243-.222.509-.385.796-.49a2.85 2.85 0 0 1 .98-.158c.78 0 1.37.2 1.768.598.404.393.606.971.606 1.735 0 .636-.136 1.309-.407 2.017-.265.708-.633 1.228-1.104 1.56-.465.327-1.024.49-1.677.49-.724 0-1.278-.205-1.66-.614-.382-.41-.572-1.057-.572-1.942zm1.278.282c0 .459.086.788.257.988.177.193.412.29.706.29.348 0 .664-.133.946-.398.282-.271.506-.703.672-1.295.166-.598.249-1.113.249-1.544 0-.376-.094-.664-.282-.863-.188-.2-.434-.299-.739-.299-.321 0-.617.13-.888.39-.271.254-.492.661-.664 1.22-.171.559-.257 1.063-.257 1.511zM233.092 101l1.926-9.189c-.83.653-1.998 1.176-3.503 1.569l.282-1.361a12.156 12.156 0 0 0 2.208-1.17c.731-.482 1.279-.903 1.644-1.263a4.63 4.63 0 0 0 .631-.805h.871L234.603 101h-1.511zm7.836 0c.133-.819.415-1.804.847-2.955a23.82 23.82 0 0 1 2.025-4.134c.836-1.372 1.766-2.551 2.789-3.536h-6.068l.291-1.378h7.77l-.283 1.378c-1.317 1.157-2.468 2.648-3.453 4.474-1.145 2.108-1.928 4.159-2.349 6.151h-1.569zm9.372.448l10.052-12.824h1.361l-10.01 12.824H250.3zm-.722-8.873c0-.227.049-.576.149-1.046.105-.47.257-.891.457-1.262.199-.37.42-.667.664-.888.243-.221.509-.385.797-.49a2.84 2.84 0 0 1 .979-.158c.78 0 1.37.2 1.768.598.404.393.606.971.606 1.735 0 .636-.136 1.309-.407 2.017-.265.708-.633 1.229-1.104 1.56-.465.327-1.023.49-1.676.49-.725 0-1.279-.204-1.661-.614-.381-.415-.572-1.062-.572-1.942zm1.278.274c0 .465.086.794.257.987.177.194.413.291.706.291.348 0 .664-.133.946-.398.288-.272.512-.706.673-1.304.166-.597.249-1.11.249-1.535 0-.371-.095-.656-.283-.855-.188-.2-.434-.3-.738-.3-.321 0-.617.13-.889.391-.271.254-.492.661-.664 1.22-.171.56-.257 1.06-.257 1.503zm6.143 6.043c0-.227.049-.576.149-1.046.105-.47.257-.891.456-1.262a3.3 3.3 0 0 1 .665-.888c.243-.222.509-.385.796-.49a2.85 2.85 0 0 1 .98-.158c.78 0 1.37.2 1.768.598.404.393.606.971.606 1.735 0 .636-.136 1.309-.407 2.017-.265.708-.633 1.228-1.104 1.56-.465.327-1.024.49-1.677.49-.724 0-1.278-.205-1.66-.614-.382-.41-.572-1.057-.572-1.942zm1.278.282c0 .46.086.788.257.988.177.193.412.29.706.29.348 0 .664-.133.946-.398.282-.271.506-.703.672-1.295.166-.598.249-1.112.249-1.544 0-.377-.094-.664-.282-.863-.188-.2-.434-.3-.739-.3-.321 0-.617.13-.888.39-.271.255-.492.662-.664 1.221-.171.559-.257 1.063-.257 1.51zM290.996 65c.155-.725.368-1.33.639-1.818a6.078 6.078 0 0 1 1.096-1.394c.454-.443 1.328-1.182 2.623-2.217.786-.625 1.323-1.087 1.61-1.386.415-.432.717-.855.905-1.27a2.22 2.22 0 0 0 .191-.921c0-.56-.199-1.032-.598-1.42a1.973 1.973 0 0 0-1.452-.59c-.57 0-1.068.2-1.494.599-.426.392-.731 1.026-.913 1.9l-1.47-.215c.144-1.08.562-1.929 1.254-2.549.697-.625 1.563-.938 2.598-.938.692 0 1.317.144 1.876.432.564.288.988.692 1.27 1.212.282.52.423 1.057.423 1.61 0 .808-.288 1.586-.863 2.333-.354.465-1.395 1.38-3.121 2.747-.742.587-1.295 1.068-1.66 1.445-.36.376-.631.73-.814 1.062h5.446L298.251 65h-7.255zm9.671-3.993c0-1.029.152-2.075.456-3.137.31-1.063.653-1.912 1.029-2.549.377-.636.767-1.134 1.171-1.494.404-.36.799-.622 1.187-.788a3.22 3.22 0 0 1 1.303-.258c.93 0 1.704.346 2.324 1.038.626.692.938 1.69.938 2.996 0 1.345-.216 2.676-.647 3.993-.509 1.56-1.218 2.731-2.125 3.511-.698.593-1.492.888-2.383.888-.913 0-1.685-.356-2.316-1.07-.625-.72-.937-1.763-.937-3.13zm1.452.382c0 .747.125 1.331.374 1.752.337.58.838.871 1.502.871.581 0 1.11-.263 1.586-.788.686-.742 1.2-1.826 1.544-3.254.348-1.434.522-2.604.522-3.511 0-.875-.168-1.506-.506-1.893-.332-.388-.772-.581-1.32-.581a2.17 2.17 0 0 0-1.12.307c-.343.205-.673.556-.988 1.054-.448.703-.838 1.754-1.171 3.155-.282 1.195-.423 2.158-.423 2.888zm9.181 4.06l10.052-12.825h1.361l-10.01 12.824H311.3zm-.722-8.874c0-.227.049-.576.149-1.046.105-.47.257-.891.457-1.262.199-.37.42-.667.664-.888.243-.221.509-.385.797-.49a2.84 2.84 0 0 1 .979-.158c.78 0 1.37.2 1.768.598.404.393.606.971.606 1.735 0 .636-.136 1.309-.407 2.017-.265.708-.633 1.229-1.104 1.56-.465.327-1.023.49-1.676.49-.725 0-1.279-.204-1.661-.614-.381-.415-.572-1.062-.572-1.942zm1.278.274c0 .465.086.794.257.987.177.194.413.291.706.291.348 0 .664-.133.946-.399.288-.27.512-.705.673-1.303.166-.597.249-1.11.249-1.535 0-.371-.095-.656-.283-.855-.188-.2-.434-.3-.738-.3-.321 0-.617.13-.889.391-.271.255-.492.661-.664 1.22-.171.56-.257 1.06-.257 1.503zm6.143 6.043c0-.227.049-.576.149-1.046.105-.47.257-.891.456-1.262a3.3 3.3 0 0 1 .665-.888c.243-.222.509-.385.796-.49a2.85 2.85 0 0 1 .98-.158c.78 0 1.37.2 1.768.598.404.393.606.971.606 1.735 0 .636-.136 1.309-.407 2.017-.265.708-.633 1.228-1.104 1.56-.465.327-1.024.49-1.677.49-.724 0-1.278-.204-1.66-.614-.382-.41-.572-1.057-.572-1.942zm1.278.282c0 .46.086.788.257.988.177.193.412.29.706.29.348 0 .664-.133.946-.398.282-.271.506-.703.672-1.295.166-.598.249-1.112.249-1.544 0-.377-.094-.664-.282-.863-.188-.2-.434-.3-.739-.3-.321 0-.617.13-.888.39-.271.255-.492.662-.664 1.221-.171.559-.257 1.063-.257 1.51zM495.08 29l.656-3.105h-4.964l.315-1.485 6.815-7.579h1.229l-1.619 7.736h1.71l-.274 1.328h-1.71L496.583 29h-1.503zm.93-4.433l1.062-5.08-4.532 5.08h3.47zM504.543 29l.656-3.105h-4.964l.315-1.485 6.815-7.579h1.229l-1.619 7.736h1.71l-.274 1.328h-1.71L506.045 29h-1.502zm.93-4.433l1.062-5.08-4.532 5.08h3.47zm5.827 4.881l10.052-12.825h1.361l-10.01 12.825H511.3zm-.722-8.873c0-.227.049-.576.149-1.046.105-.47.257-.891.457-1.262.199-.37.42-.667.664-.888.243-.221.509-.385.797-.49a2.84 2.84 0 0 1 .979-.158c.78 0 1.37.2 1.768.598.404.393.606.971.606 1.735 0 .636-.136 1.309-.407 2.017-.265.708-.633 1.229-1.104 1.56-.465.327-1.023.49-1.676.49-.725 0-1.279-.204-1.661-.614-.381-.415-.572-1.062-.572-1.942zm1.278.274c0 .465.086.794.257.987.177.194.413.291.706.291.348 0 .664-.133.946-.398.288-.272.512-.706.673-1.304.166-.597.249-1.11.249-1.535 0-.371-.095-.656-.283-.855-.188-.2-.434-.3-.738-.3-.321 0-.617.13-.889.391-.271.255-.492.661-.664 1.22-.171.56-.257 1.06-.257 1.503zm6.143 6.043c0-.227.049-.576.149-1.046.105-.47.257-.891.456-1.262a3.3 3.3 0 0 1 .665-.888c.243-.222.509-.385.796-.49a2.85 2.85 0 0 1 .98-.158c.78 0 1.37.2 1.768.598.404.393.606.971.606 1.735 0 .636-.136 1.309-.407 2.017-.265.708-.633 1.229-1.104 1.56-.465.327-1.024.49-1.677.49-.724 0-1.278-.204-1.66-.614-.382-.41-.572-1.057-.572-1.942zm1.278.282c0 .46.086.788.257.988.177.193.412.29.706.29.348 0 .664-.133.946-.398.282-.271.506-.703.672-1.295.166-.598.249-1.113.249-1.544 0-.377-.094-.664-.282-.863-.188-.2-.434-.3-.739-.3-.321 0-.617.13-.888.39-.271.255-.492.662-.664 1.221-.171.559-.257 1.063-.257 1.51zM20.977 100l1.976-11.375 3.336.008c1.162 0 2.031.26 2.61.781.578.52.83 1.248.757 2.18-.093 1.088-.778 1.909-2.054 2.46a2.1 2.1 0 0 1 1.14 1.016c.255.48.36 1.008.313 1.586-.078 1.026-.49 1.841-1.235 2.446-.744.599-1.708.898-2.89.898h-3.953zm2.39-5.32l-.71 4.093 2.32.008c.708 0 1.302-.19 1.78-.57.48-.38.759-.893.837-1.54.073-.614-.034-1.093-.32-1.437-.287-.343-.738-.526-1.352-.546l-2.555-.008zm.211-1.203l2.117.007c.662 0 1.22-.169 1.672-.507.459-.339.727-.805.805-1.399.068-.552-.042-.969-.328-1.25-.282-.281-.75-.435-1.407-.46l-2.234-.009-.625 3.618zm13.79 3.554h-4.61L31.203 100h-1.57l6.18-11.375h1.289L39.352 100h-1.446l-.539-2.969zm-3.962-1.234h3.742l-.945-5.305-2.797 5.305zm11.633-.04a6.562 6.562 0 0 1 .711-2.327c.37-.693.825-1.211 1.367-1.555a3.126 3.126 0 0 1 1.79-.492c.942.02 1.666.364 2.171 1.031L51.891 88h1.414l-2.078 12h-1.29l.149-.906c-.667.729-1.49 1.083-2.469 1.062-.781-.021-1.403-.325-1.867-.914-.464-.594-.714-1.388-.75-2.383a7.597 7.597 0 0 1 .04-1.101zm1.36.813c-.016.745.117 1.323.398 1.735.281.411.693.622 1.234.632.818.037 1.544-.374 2.18-1.234l.672-3.906c-.313-.771-.88-1.167-1.703-1.188a2.147 2.147 0 0 0-1.477.508c-.422.35-.745.841-.969 1.477a6.126 6.126 0 0 0-.336 1.976zm10.718 3.586c-1.052-.021-1.875-.409-2.469-1.164-.593-.755-.843-1.721-.75-2.898l.04-.336a5.658 5.658 0 0 1 .742-2.297c.411-.693.911-1.214 1.5-1.563a3.473 3.473 0 0 1 1.906-.507c.87.02 1.552.31 2.047.867.495.557.765 1.312.812 2.265.016.339.005.678-.03 1.016l-.087.648h-5.523c-.094.766.03 1.417.375 1.954.349.536.867.815 1.554.836.834.02 1.605-.355 2.313-1.125l.812.687c-.354.51-.812.912-1.375 1.203-.557.287-1.18.425-1.867.414zm.899-7.586a2.078 2.078 0 0 0-1.532.594c-.432.412-.776 1.023-1.03 1.836l4.108.008.032-.125c.083-.656-.024-1.2-.32-1.633-.292-.438-.712-.664-1.258-.68zm4.156 3.188c.125-.922.372-1.721.742-2.399.375-.682.828-1.184 1.36-1.507a3.151 3.151 0 0 1 1.757-.47c.98.022 1.719.391 2.219 1.11l.281-.945h1.297l-1.406 8.273c-.151 1.078-.589 1.94-1.313 2.586-.724.651-1.617.961-2.68.93a3.831 3.831 0 0 1-1.648-.406 3.14 3.14 0 0 1-1.234-1.071l.805-.867c.51.755 1.184 1.143 2.023 1.164.672.021 1.24-.166 1.703-.562.469-.396.779-.959.93-1.688l.156-.75c-.687.688-1.492 1.021-2.414 1-.526-.015-.984-.156-1.375-.422-.385-.27-.685-.658-.898-1.164a4.79 4.79 0 0 1-.352-1.703 8.73 8.73 0 0 1 .047-1.11zm1.367.805c-.016.744.112 1.322.383 1.734.276.406.69.62 1.242.64.844.021 1.57-.393 2.18-1.242l.664-3.882c-.313-.771-.878-1.172-1.695-1.204-.766-.02-1.396.292-1.891.938-.49.646-.779 1.518-.867 2.617l-.016.398zm12.273-3.727l-.664-.07c-.906 0-1.62.408-2.14 1.226L71.968 100h-1.413l1.468-8.453 1.368-.008-.211.984c.599-.786 1.304-1.169 2.117-1.148.172 0 .396.04.672.117l-.156 1.344zm3.57 7.32c-1.051-.021-1.874-.409-2.468-1.164-.594-.755-.844-1.721-.75-2.898l.04-.336a5.66 5.66 0 0 1 .741-2.297c.412-.693.912-1.214 1.5-1.563a3.473 3.473 0 0 1 1.907-.507c.87.02 1.552.31 2.046.867.495.557.766 1.312.813 2.265a6.62 6.62 0 0 1-.031 1.016l-.086.648H77.57c-.093.766.032 1.417.375 1.954.35.536.868.815 1.555.836.833.02 1.604-.355 2.313-1.125l.812.687c-.354.51-.813.912-1.375 1.203-.557.287-1.18.425-1.867.414zm.9-7.586a2.078 2.078 0 0 0-1.532.594c-.432.412-.776 1.023-1.031 1.836l4.11.008.03-.125c.084-.656-.023-1.2-.32-1.633-.292-.438-.71-.664-1.258-.68zm7.398 7.586c-1.052-.021-1.875-.409-2.47-1.164-.593-.755-.843-1.721-.75-2.898l.04-.336a5.658 5.658 0 0 1 .742-2.297c.412-.693.912-1.214 1.5-1.563a3.473 3.473 0 0 1 1.906-.507c.87.02 1.553.31 2.047.867.495.557.766 1.312.813 2.265.015.339.005.678-.031 1.016l-.086.648h-5.524c-.094.766.031 1.417.375 1.954.35.536.867.815 1.555.836.833.02 1.604-.355 2.312-1.125l.813.687c-.354.51-.813.912-1.375 1.203-.557.287-1.18.425-1.867.414zm.898-7.586a2.078 2.078 0 0 0-1.531.594c-.432.412-.776 1.023-1.031 1.836l4.109.008.031-.125c.084-.656-.023-1.2-.32-1.633-.292-.438-.711-.664-1.258-.68zM31.04 56.07c.114-.833-.319-1.442-1.298-1.828l-1.351-.492-.453-.195c-1.521-.693-2.232-1.667-2.133-2.922.052-.63.268-1.188.648-1.672s.883-.857 1.508-1.117c.63-.266 1.3-.39 2.008-.375.687.015 1.3.169 1.836.46.541.292.953.701 1.234 1.227.281.521.406 1.11.375 1.766l-1.477-.008c.053-.698-.104-1.237-.468-1.617-.365-.386-.886-.583-1.563-.594-.713-.01-1.31.156-1.789.5a1.95 1.95 0 0 0-.828 1.406c-.104.776.372 1.365 1.43 1.766l1.164.414.586.25c1.468.677 2.148 1.682 2.039 3.016a3.033 3.033 0 0 1-.649 1.664c-.375.463-.885.823-1.53 1.078a5.263 5.263 0 0 1-2.071.36 4.396 4.396 0 0 1-1.961-.454c-.589-.302-1.037-.713-1.344-1.234-.307-.521-.443-1.112-.406-1.774l1.469.008c-.047.677.135 1.216.547 1.617.416.396 1.002.6 1.757.61.756.01 1.378-.154 1.867-.492.49-.339.774-.795.852-1.368zm10.343-1.258c-.104.86-.336 1.633-.696 2.32-.359.688-.804 1.204-1.335 1.548-.532.338-1.12.5-1.766.484-.98-.02-1.73-.352-2.25-.992l-.758 4.078h-1.414l2.031-11.703 1.282-.008-.157.945c.698-.75 1.534-1.114 2.508-1.093.813.02 1.445.32 1.899.898.453.578.692 1.375.718 2.39.005.334-.008.657-.039.97l-.023.163zm-1.39-.164l.038-.656c0-.76-.146-1.341-.437-1.742-.287-.406-.703-.62-1.25-.64-.818-.021-1.524.367-2.117 1.163l-.711 4.055c.317.75.888 1.136 1.71 1.156.704.016 1.3-.257 1.79-.82.494-.568.82-1.406.976-2.516zm6.187 4.508c-1.052-.02-1.875-.409-2.47-1.164-.593-.755-.843-1.721-.75-2.898l.04-.336a5.658 5.658 0 0 1 .742-2.297c.412-.693.912-1.214 1.5-1.563a3.473 3.473 0 0 1 1.906-.507c.87.02 1.552.31 2.047.867.495.557.766 1.312.813 2.265.015.339.005.677-.031 1.016l-.086.648h-5.524c-.094.766.031 1.417.375 1.954.35.536.867.815 1.555.836.833.02 1.604-.355 2.312-1.125l.813.687c-.354.51-.813.911-1.375 1.203-.557.287-1.18.425-1.867.414zm.898-7.586a2.078 2.078 0 0 0-1.531.594c-.432.411-.776 1.023-1.031 1.836l4.109.008.031-.125c.084-.656-.023-1.2-.32-1.633-.292-.438-.711-.664-1.258-.68zm7.313 6.414c.505.01.96-.135 1.367-.437.406-.307.672-.708.797-1.203l1.336-.008a2.996 2.996 0 0 1-.641 1.453 3.52 3.52 0 0 1-1.305 1.023 3.55 3.55 0 0 1-1.617.344c-.703-.01-1.3-.192-1.789-.547-.484-.359-.841-.856-1.07-1.492-.23-.64-.308-1.36-.235-2.156l.04-.39c.098-.813.335-1.54.71-2.18a4.08 4.08 0 0 1 1.47-1.493 3.63 3.63 0 0 1 2-.507c.885.02 1.593.317 2.124.89.531.573.797 1.3.797 2.18l-1.32-.008c-.01-.552-.164-.997-.461-1.336-.297-.344-.698-.526-1.203-.547-.735-.015-1.347.258-1.836.82-.485.563-.787 1.35-.907 2.36l-.023.203a6.775 6.775 0 0 0-.016 1.031c.037.61.209 1.091.516 1.446.307.354.73.539 1.266.554zM60.555 59h-1.407l1.47-8.453h1.405L60.555 59zm1.164-11.54c.24-.01.437.063.593.22a.784.784 0 0 1 .243.601.841.841 0 0 1-.836.852.78.78 0 0 1-.602-.211.764.764 0 0 1-.226-.594.886.886 0 0 1 .234-.61.827.827 0 0 1 .594-.257zM68.039 59a1.891 1.891 0 0 1-.055-.445l.024-.446c-.776.72-1.6 1.068-2.469 1.047-.745-.01-1.352-.245-1.82-.703-.464-.463-.675-1.042-.633-1.734.052-.896.443-1.594 1.172-2.094.734-.505 1.698-.758 2.89-.758l1.477.008.094-.672c.052-.505-.047-.904-.297-1.195-.245-.297-.615-.45-1.11-.461-.484-.01-.914.11-1.289.36-.37.244-.596.57-.68.976l-1.421.008c.047-.495.24-.933.578-1.313a3.308 3.308 0 0 1 1.305-.89 4.172 4.172 0 0 1 1.648-.305c.88.02 1.565.289 2.055.804.49.51.695 1.19.617 2.04l-.688 4.187-.039.602c-.01.286.021.57.094.851l-.015.133h-1.438zm-2.219-1.094c.453.01.88-.096 1.282-.32a3.28 3.28 0 0 0 1.046-.945l.305-1.743-1.07-.007c-.89 0-1.573.14-2.047.422-.474.28-.742.68-.805 1.195-.047.396.044.726.274.992.234.26.573.396 1.015.406zM72.93 59h-1.407l2.079-12h1.414L72.93 59zm3.843 0h-1.406l1.469-8.453h1.406L76.773 59zm1.165-11.54c.24-.01.437.063.593.22a.784.784 0 0 1 .242.601.841.841 0 0 1-.835.852.78.78 0 0 1-.602-.211.765.765 0 0 1-.227-.594.886.886 0 0 1 .235-.61.826.826 0 0 1 .594-.257zm6.382 9.25c.078-.582-.242-.994-.96-1.233l-1.47-.43c-1.239-.427-1.838-1.136-1.796-2.125.036-.745.375-1.354 1.015-1.828.646-.48 1.404-.714 2.274-.703.854.01 1.547.26 2.078.75.536.484.794 1.117.773 1.898l-1.406-.008c.01-.422-.122-.765-.398-1.031-.276-.266-.644-.404-1.102-.414-.49-.01-.911.11-1.266.36a1.316 1.316 0 0 0-.57.921c-.068.49.232.847.899 1.07l.71.196c.97.25 1.657.575 2.063.976.406.401.594.899.563 1.493a2.37 2.37 0 0 1-.516 1.375c-.313.39-.73.69-1.25.898a4.223 4.223 0 0 1-1.664.281c-.896-.01-1.635-.27-2.219-.781-.583-.516-.865-1.177-.844-1.984l1.414.007c0 .474.151.855.454 1.141.302.286.716.43 1.242.43.515.01.96-.097 1.336-.32.375-.23.588-.542.64-.938zm6.578-8.21l-.359 2.047h1.54l-.196 1.117h-1.531l-.883 5.258a1.83 1.83 0 0 0-.008.375c.036.406.258.61.664.61.172 0 .401-.027.688-.079l-.11 1.18c-.338.094-.682.14-1.031.14-.563-.01-.984-.216-1.266-.617-.281-.406-.39-.95-.328-1.633l.86-5.234h-1.493l.196-1.117h1.492l.36-2.047h1.405zM1.236 69.56c.13-.902.368-1.78.715-2.636.352-.856.781-1.584 1.29-2.186.507-.605 1.073-1.062 1.698-1.37l.159.726c-.614.457-1.141 1.054-1.582 1.793-.438.734-.776 1.61-1.014 2.625a12.59 12.59 0 0 0-.346 2.994c0 .808.104 1.52.31 2.133.212.617.514 1.103.909 1.459l-.264.656c-.652-.453-1.152-1.123-1.5-2.01-.343-.887-.5-1.902-.468-3.047.007-.375.035-.732.082-1.072l.011-.064zm5.426-2.126c.555-.606 1.193-.9 1.916-.885.594.008 1.033.213 1.318.615.29.398.397.959.323 1.682L9.527 73h-1.06l.697-4.172c.024-.191.025-.369.006-.533-.066-.547-.389-.826-.967-.838-.648-.016-1.207.324-1.676 1.02L5.742 73h-1.06l1.564-9h1.06l-.644 3.434zM12.3 73h-1.055l1.102-6.34H13.4L12.3 73zm.873-8.654a.566.566 0 0 1 .445.164.588.588 0 0 1 .182.45.63.63 0 0 1-.627.64.584.584 0 0 1-.451-.159.573.573 0 0 1-.17-.445.665.665 0 0 1 .176-.457.62.62 0 0 1 .445-.193zm1.172 5.472c.094-.691.279-1.29.556-1.799.282-.511.621-.888 1.02-1.13a2.364 2.364 0 0 1 1.318-.352c.735.016 1.29.293 1.664.832l.211-.709h.973l-1.055 6.205c-.113.809-.441 1.455-.984 1.94-.543.488-1.213.72-2.01.697a2.874 2.874 0 0 1-1.236-.305 2.35 2.35 0 0 1-.926-.803l.604-.65c.382.567.888.858 1.517.873.504.016.93-.125 1.277-.422.352-.297.584-.718.698-1.265l.117-.563c-.516.516-1.12.766-1.81.75a1.893 1.893 0 0 1-1.032-.316c-.289-.203-.514-.494-.674-.873a3.593 3.593 0 0 1-.263-1.278c-.008-.23.004-.507.035-.832zm1.025.604c-.012.559.084.992.287 1.3.207.305.518.466.932.481.633.016 1.178-.295 1.635-.931l.498-2.913c-.235-.578-.659-.878-1.272-.902-.574-.016-1.047.219-1.418.703-.367.484-.584 1.139-.65 1.963l-.012.299zm7.242-2.988c.555-.606 1.194-.9 1.916-.885.594.008 1.034.213 1.319.615.289.398.396.959.322 1.682L25.477 73h-1.061l.697-4.172c.024-.191.026-.369.006-.533-.066-.547-.389-.826-.967-.838-.648-.016-1.207.324-1.675 1.02L21.69 73h-1.06l1.564-9h1.06l-.644 3.434zm7.23 5.683c-.788-.015-1.405-.306-1.85-.873-.446-.566-.634-1.29-.563-2.174l.029-.252a4.244 4.244 0 0 1 .557-1.722c.308-.52.683-.91 1.125-1.172a2.603 2.603 0 0 1 1.43-.381c.652.016 1.163.232 1.534.65.372.418.575.985.61 1.7.012.254.004.507-.023.761l-.065.487h-4.143c-.07.574.024 1.062.282 1.465.261.402.65.61 1.166.626.625.016 1.203-.265 1.734-.843l.61.515c-.266.383-.61.684-1.032.903a2.918 2.918 0 0 1-1.4.31zm.675-5.69a1.56 1.56 0 0 0-1.149.446c-.324.309-.582.768-.773 1.377l3.082.006.023-.094c.063-.492-.017-.9-.24-1.225-.219-.328-.533-.498-.943-.51zm6.75.2l-.498-.053c-.68 0-1.215.307-1.606.92L34.382 73h-1.06l1.102-6.34 1.025-.006-.158.739c.45-.59.979-.877 1.588-.862.129 0 .297.03.504.088l-.117 1.008zm5.736 5.49c-.79-.015-1.406-.306-1.852-.873-.445-.566-.632-1.29-.562-2.174l.03-.252a4.244 4.244 0 0 1 .556-1.722c.308-.52.683-.91 1.125-1.172a2.604 2.604 0 0 1 1.43-.381c.652.016 1.164.232 1.535.65.37.418.574.985.609 1.7.012.254.004.507-.023.761l-.065.487h-4.142c-.07.574.023 1.062.28 1.465.262.402.651.61 1.167.626.625.016 1.203-.265 1.734-.843l.61.515c-.266.383-.61.684-1.032.903a2.918 2.918 0 0 1-1.4.31zm.674-5.69a1.56 1.56 0 0 0-1.149.446c-.324.309-.582.768-.773 1.377l3.082.006.023-.094c.063-.492-.017-.9-.24-1.225-.219-.328-.533-.498-.943-.51zm3.111 2.391a4.933 4.933 0 0 1 .533-1.746c.278-.52.62-.908 1.026-1.166.406-.258.853-.38 1.342-.369.706.016 1.25.273 1.628.773l.61-3.31h1.06l-1.558 9h-.967l.111-.68c-.5.547-1.117.813-1.851.797-.586-.015-1.053-.244-1.4-.685-.348-.446-.536-1.041-.563-1.788a5.707 5.707 0 0 1 .03-.826zm1.02.61c-.012.558.087.992.298 1.3.211.31.52.467.926.475.614.028 1.159-.281 1.635-.926l.504-2.93c-.235-.578-.66-.874-1.277-.89a1.61 1.61 0 0 0-1.108.38c-.316.263-.558.632-.726 1.108a4.595 4.595 0 0 0-.252 1.483zm9.322 1.945c-.496.512-1.127.76-1.893.744-.605-.015-1.054-.232-1.347-.65-.29-.418-.397-.989-.323-1.711l.68-4.096h1.06l-.685 4.113c-.02.172-.023.34-.012.504.02.282.104.502.252.662.149.16.356.247.621.258.758.024 1.344-.283 1.758-.92l.797-4.617h1.06l-1.1 6.34h-1.003l.135-.627zm5.133-.135c.379.008.72-.101 1.025-.328.305-.23.504-.531.598-.902l1.002-.006a2.246 2.246 0 0 1-.48 1.09 2.639 2.639 0 0 1-.98.767 2.65 2.65 0 0 1-1.212.258c-.528-.008-.975-.144-1.342-.41-.363-.27-.63-.642-.803-1.12-.172-.48-.23-1.019-.175-1.616l.029-.293a4.2 4.2 0 0 1 .533-1.635 3.06 3.06 0 0 1 1.102-1.12 2.722 2.722 0 0 1 1.5-.38c.664.016 1.195.238 1.593.668.399.43.598.975.598 1.635l-.99-.006c-.008-.414-.123-.748-.346-1.002-.223-.258-.523-.395-.902-.41a1.699 1.699 0 0 0-1.377.615c-.363.422-.59 1.012-.68 1.77l-.017.152c-.024.25-.028.508-.012.773.027.457.156.819.386 1.084.231.266.547.405.95.416zm7.353.762a1.422 1.422 0 0 1-.04-.334l.017-.334c-.582.54-1.2.8-1.852.785-.558-.008-1.013-.183-1.365-.527-.348-.348-.506-.781-.475-1.3.04-.673.332-1.196.88-1.571.55-.38 1.273-.569 2.167-.569l1.108.006.07-.504c.04-.379-.035-.677-.223-.896-.183-.223-.46-.338-.832-.346a1.636 1.636 0 0 0-.966.27 1.126 1.126 0 0 0-.51.732l-1.067.006c.035-.371.18-.7.434-.984.254-.29.58-.512.978-.668a3.13 3.13 0 0 1 1.237-.229c.66.016 1.174.217 1.54.604.368.382.522.892.464 1.529l-.516 3.14-.03.452c-.007.215.016.427.071.638l-.012.1h-1.078zm-1.664-.82c.34.007.66-.073.961-.24.305-.172.566-.409.785-.71l.229-1.306-.803-.006c-.668 0-1.18.105-1.535.316-.356.211-.557.51-.604.897-.035.297.034.545.206.744.175.195.43.297.761.305zm6.985-7.055l-.27 1.535h1.154l-.146.838h-1.149l-.662 3.943a1.378 1.378 0 0 0-.006.282c.028.304.194.457.499.457.128 0 .3-.02.515-.059l-.082.885c-.254.07-.512.105-.773.105-.422-.008-.739-.162-.95-.463-.21-.304-.293-.712-.246-1.224l.645-3.926h-1.12l.147-.838h1.12l.269-1.535h1.055zM77.15 73h-1.054l1.101-6.34h1.055L77.15 73zm.873-8.654a.566.566 0 0 1 .446.164.589.589 0 0 1 .181.45.631.631 0 0 1-.627.64.584.584 0 0 1-.45-.159.573.573 0 0 1-.17-.445.665.665 0 0 1 .175-.457.62.62 0 0 1 .445-.193zm4.383 2.197c.531.008.987.152 1.365.434.38.28.659.67.838 1.166.184.492.247 1.03.188 1.617l-.012.129a4.29 4.29 0 0 1-.55 1.675 3.24 3.24 0 0 1-1.137 1.16 2.772 2.772 0 0 1-1.53.393c-.527-.008-.982-.152-1.365-.433a2.416 2.416 0 0 1-.832-1.149 3.698 3.698 0 0 1-.187-1.6 4.32 4.32 0 0 1 .533-1.769 3.292 3.292 0 0 1 1.142-1.213 2.74 2.74 0 0 1 1.547-.41zm-2.156 3.398a3.606 3.606 0 0 0 0 .768c.04.46.176.828.41 1.102.238.273.555.416.95.427.35.012.675-.074.972-.257.297-.188.547-.47.75-.844a3.54 3.54 0 0 0 .393-1.248c.03-.36.037-.662.017-.908-.047-.473-.19-.846-.428-1.12-.238-.273-.554-.418-.949-.433-.547-.012-1.011.203-1.394.644-.383.442-.62 1.02-.71 1.735l-.011.134zm7.441-3.287l-.152.803c.57-.625 1.219-.93 1.945-.914.598.016 1.04.223 1.325.621.285.398.39.959.316 1.682L90.434 73h-1.061l.697-4.172c.024-.191.026-.369.006-.533-.066-.547-.388-.826-.967-.838-.636-.012-1.195.328-1.675 1.02L86.648 73h-1.06l1.102-6.34 1.001-.006zm7.4 2.918a10.92 10.92 0 0 1-.743 2.707c-.36.848-.791 1.563-1.295 2.145-.5.586-1.055 1.031-1.664 1.336l-.164-.674c1.34-1.008 2.234-2.627 2.683-4.858.18-.898.266-1.763.258-2.595-.02-1.676-.426-2.877-1.219-3.604l.276-.656c.437.305.806.711 1.107 1.219.305.504.527 1.092.668 1.764.145.667.209 1.36.193 2.08a9.995 9.995 0 0 1-.088 1.072l-.011.064zM20.79 16.625l1.991 9.266L28 16.625h1.93L27.953 28h-1.46l.78-4.5.93-4.578L23.047 28h-1.125l-2.031-9.258-.703 4.906L18.43 28h-1.47l1.977-11.375h1.852zm16.577 8.406h-4.61L31.204 28h-1.57l6.18-11.375h1.289L39.352 28h-1.446l-.539-2.969zm-3.96-1.234h3.741l-.945-5.305-2.797 5.305zm11.632-.04a6.562 6.562 0 0 1 .711-2.327c.37-.693.825-1.211 1.367-1.555a3.126 3.126 0 0 1 1.79-.492c.942.02 1.666.364 2.171 1.031L51.891 16h1.414l-2.078 12h-1.29l.149-.906c-.667.729-1.49 1.083-2.469 1.062-.781-.02-1.403-.325-1.867-.914-.464-.594-.714-1.388-.75-2.383a7.597 7.597 0 0 1 .04-1.101zm1.36.813c-.016.745.117 1.323.398 1.735.281.411.693.622 1.234.633.818.036 1.544-.375 2.18-1.235l.672-3.906c-.313-.771-.88-1.167-1.703-1.188a2.147 2.147 0 0 0-1.477.508c-.422.35-.745.841-.969 1.477a6.126 6.126 0 0 0-.336 1.976zm10.718 3.586c-1.052-.02-1.875-.409-2.469-1.164-.593-.755-.843-1.721-.75-2.898l.04-.336a5.658 5.658 0 0 1 .742-2.297c.411-.693.911-1.214 1.5-1.563a3.473 3.473 0 0 1 1.906-.507c.87.02 1.552.31 2.047.867.495.557.765 1.312.812 2.265.016.339.005.678-.03 1.016l-.087.648h-5.523c-.094.766.03 1.417.375 1.954.349.536.867.815 1.554.836.834.02 1.605-.355 2.313-1.125l.812.687c-.354.51-.812.912-1.375 1.203-.557.287-1.18.425-1.867.414zm.899-7.586a2.078 2.078 0 0 0-1.532.594c-.432.412-.776 1.023-1.03 1.836l4.108.008.032-.125c.083-.656-.024-1.2-.32-1.633-.292-.438-.712-.664-1.258-.68zm4.156 3.188c.125-.922.372-1.721.742-2.399.375-.682.828-1.185 1.36-1.507a3.151 3.151 0 0 1 1.757-.47c.98.022 1.719.391 2.219 1.11l.281-.945h1.297l-1.406 8.273c-.151 1.078-.589 1.94-1.313 2.586-.724.651-1.617.961-2.68.93a3.831 3.831 0 0 1-1.648-.406 3.133 3.133 0 0 1-1.234-1.07l.805-.868c.51.755 1.184 1.143 2.023 1.164.672.021 1.24-.166 1.703-.562.469-.396.779-.959.93-1.688l.156-.75c-.687.688-1.492 1.021-2.414 1-.526-.015-.984-.156-1.375-.422-.385-.27-.685-.659-.898-1.164a4.79 4.79 0 0 1-.352-1.703 8.73 8.73 0 0 1 .047-1.11zm1.367.805c-.016.744.112 1.322.383 1.734.276.406.69.62 1.242.64.844.021 1.57-.393 2.18-1.242l.664-3.883c-.313-.77-.878-1.171-1.695-1.203-.766-.02-1.396.292-1.891.938-.49.646-.779 1.518-.867 2.617l-.016.398zm12.273-3.727l-.664-.07c-.906 0-1.62.409-2.14 1.226L71.968 28h-1.413l1.468-8.453 1.368-.008-.211.984c.599-.786 1.304-1.169 2.117-1.148.172 0 .396.04.672.117l-.156 1.344zm3.57 7.32c-1.051-.02-1.874-.409-2.468-1.164-.594-.755-.844-1.721-.75-2.898l.04-.336a5.66 5.66 0 0 1 .741-2.297c.412-.693.912-1.214 1.5-1.563a3.473 3.473 0 0 1 1.907-.507c.87.02 1.552.31 2.046.867.495.557.766 1.312.813 2.265a6.62 6.62 0 0 1-.031 1.016l-.086.648H77.57c-.093.766.032 1.417.375 1.954.35.536.868.815 1.555.836.833.02 1.604-.355 2.313-1.125l.812.687c-.354.51-.813.912-1.375 1.203-.557.287-1.18.425-1.867.414zm.9-7.586a2.078 2.078 0 0 0-1.532.594c-.432.412-.776 1.023-1.031 1.836l4.11.008.03-.125c.084-.656-.023-1.2-.32-1.633-.292-.438-.71-.664-1.258-.68zm7.398 7.586c-1.052-.02-1.875-.409-2.47-1.164-.593-.755-.843-1.721-.75-2.898l.04-.336a5.658 5.658 0 0 1 .742-2.297c.412-.693.912-1.214 1.5-1.563a3.473 3.473 0 0 1 1.906-.507c.87.02 1.553.31 2.047.867.495.557.766 1.312.813 2.265.015.339.005.678-.031 1.016l-.086.648h-5.524c-.094.766.031 1.417.375 1.954.35.536.867.815 1.555.836.833.02 1.604-.355 2.312-1.125l.813.687c-.354.51-.813.912-1.375 1.203-.557.287-1.18.425-1.867.414zm.898-7.586a2.078 2.078 0 0 0-1.531.594c-.432.412-.776 1.023-1.031 1.836l4.109.008.031-.125c.084-.656-.023-1.2-.32-1.633-.292-.438-.711-.664-1.258-.68zm-18.64 181.977L69.163 207h-1.469l1.977-11.375 3.797.008c1.172 0 2.075.312 2.71.937.636.62.91 1.446.821 2.477-.094 1.088-.529 1.945-1.305 2.57-.77.625-1.789.938-3.054.938l-2.704-.008zm.21-1.227l2.532.008c.797 0 1.45-.2 1.96-.601.511-.401.81-.959.9-1.672.082-.641-.05-1.159-.4-1.555-.348-.401-.856-.612-1.523-.633l-2.695-.008-.774 4.461zm9.844-1.742c.74-.807 1.591-1.2 2.555-1.18.791.011 1.377.284 1.758.821.385.531.528 1.278.43 2.242L83.812 207h-1.415l.93-5.562c.031-.256.034-.493.008-.711-.089-.73-.518-1.102-1.29-1.118-.864-.02-1.609.433-2.234 1.36L78.766 207h-1.414l2.085-12h1.415l-.86 4.578zM86.195 207l1.977-11.375 2.953.008c.927 0 1.724.232 2.39.695.672.464 1.154 1.104 1.446 1.922.292.812.377 1.724.258 2.734l-.078.571c-.23 1.656-.873 2.979-1.93 3.968-1.057.985-2.385 1.477-3.984 1.477h-3.032zm3.227-10.141l-1.547 8.914 1.445.008c1.105 0 2.04-.343 2.805-1.031.77-.688 1.27-1.63 1.5-2.828.182-.958.245-1.774.188-2.445-.079-.808-.347-1.438-.805-1.891-.459-.458-1.073-.698-1.844-.719l-1.742-.008zm-53.828-29.312L34.82 172h-1.468l1.976-11.375 3.797.008c1.172 0 2.075.312 2.71.937.636.62.91 1.446.821 2.477-.093 1.088-.528 1.945-1.304 2.57-.771.625-1.79.938-3.055.938l-2.703-.008zm.21-1.227l2.532.008c.797 0 1.45-.2 1.96-.601.511-.401.81-.959.9-1.672.083-.641-.05-1.159-.4-1.555-.348-.401-.856-.612-1.523-.633l-2.695-.008-.773 4.461zm11.79-2.929c.708.01 1.315.203 1.82.578.505.375.878.893 1.117 1.554.245.657.328 1.375.25 2.157l-.015.172a5.72 5.72 0 0 1-.735 2.234 4.323 4.323 0 0 1-1.515 1.547c-.62.37-1.3.544-2.04.523-.703-.01-1.31-.203-1.82-.578-.505-.375-.875-.885-1.11-1.531-.233-.646-.317-1.357-.25-2.133.079-.875.316-1.661.712-2.359.396-.698.903-1.237 1.523-1.617a3.647 3.647 0 0 1 2.063-.547zm-2.875 4.531a4.79 4.79 0 0 0 0 1.023c.052.615.234 1.104.547 1.469.317.365.74.555 1.265.57.469.016.901-.099 1.297-.343.396-.25.73-.625 1-1.125.271-.5.445-1.055.524-1.664.041-.48.049-.883.023-1.211-.063-.631-.253-1.128-.57-1.493-.318-.364-.74-.557-1.266-.578-.73-.015-1.349.271-1.86.86-.51.588-.825 1.359-.945 2.312l-.015.18zm12.351 1.789c.078-.583-.242-.995-.96-1.234l-1.47-.43c-1.239-.427-1.838-1.136-1.796-2.125.036-.745.375-1.354 1.015-1.828.646-.479 1.404-.714 2.274-.703.854.01 1.547.26 2.078.75.536.484.794 1.117.773 1.898l-1.406-.008c.01-.422-.122-.765-.398-1.031-.276-.266-.644-.404-1.102-.414-.49-.01-.911.109-1.266.359a1.318 1.318 0 0 0-.57.922c-.067.49.232.847.899 1.071l.71.195c.97.25 1.657.575 2.063.976.406.401.594.899.563 1.493a2.371 2.371 0 0 1-.516 1.375c-.313.39-.73.69-1.25.898a4.22 4.22 0 0 1-1.664.281c-.896-.01-1.636-.271-2.219-.781-.583-.516-.864-1.177-.844-1.984l1.414.007c0 .474.151.855.454 1.141.302.287.716.43 1.242.43.515.01.96-.097 1.336-.321.375-.229.588-.541.64-.937zm6.578-8.211l-.359 2.047h1.54l-.196 1.117h-1.531l-.883 5.258c-.016.135-.019.26-.008.375.036.406.258.609.664.609.172 0 .401-.026.688-.078l-.11 1.18c-.338.094-.682.14-1.031.14-.563-.01-.984-.216-1.266-.617-.281-.406-.39-.95-.328-1.633l.86-5.234h-1.493l.196-1.117h1.492l.36-2.047h1.405zm1.836 6.258c.125-.922.373-1.722.743-2.399.375-.682.828-1.185 1.359-1.507a3.142 3.142 0 0 1 1.758-.469c.979.021 1.719.39 2.219 1.109l.28-.945h1.298l-1.407 8.273c-.15 1.078-.588 1.94-1.312 2.586-.724.651-1.617.961-2.68.93a3.83 3.83 0 0 1-1.648-.406 3.14 3.14 0 0 1-1.235-1.071l.805-.867c.51.755 1.185 1.143 2.023 1.164.672.021 1.24-.166 1.704-.562.468-.396.778-.959.93-1.688l.156-.75c-.688.688-1.493 1.021-2.415 1-.525-.015-.984-.156-1.374-.422-.386-.27-.685-.658-.899-1.164a4.788 4.788 0 0 1-.352-1.703c-.01-.307.006-.677.047-1.109zm1.368.804c-.016.745.111 1.323.382 1.735.276.406.69.62 1.243.641.843.02 1.57-.394 2.18-1.243l.663-3.883c-.312-.77-.877-1.171-1.695-1.203-.766-.02-1.396.292-1.89.938-.49.646-.78 1.518-.868 2.617l-.015.398zm12.273-3.726l-.664-.07c-.906 0-1.62.408-2.14 1.226L75.28 172h-1.414l1.469-8.453 1.367-.008-.21.984c.598-.786 1.304-1.169 2.116-1.148.172 0 .396.039.672.117l-.156 1.344zm4.93 7.164a1.887 1.887 0 0 1-.055-.445l.023-.446c-.776.719-1.599 1.068-2.468 1.047-.745-.01-1.352-.245-1.82-.703-.464-.463-.675-1.042-.633-1.734.052-.896.442-1.594 1.171-2.094.735-.505 1.698-.758 2.891-.758l1.477.008.093-.672c.053-.505-.046-.904-.296-1.195-.245-.297-.615-.451-1.11-.461a2.178 2.178 0 0 0-1.289.359c-.37.245-.596.571-.68.977l-1.421.008c.046-.495.24-.933.578-1.313a3.309 3.309 0 0 1 1.304-.89 4.154 4.154 0 0 1 1.649-.305c.88.021 1.565.289 2.054.805.49.51.696 1.19.618 2.039l-.688 4.187-.039.602c-.01.286.02.57.094.851l-.016.133h-1.437zm-2.22-1.094c.454.011.881-.096 1.282-.32a3.281 3.281 0 0 0 1.047-.945l.305-1.743-1.07-.007c-.891 0-1.573.14-2.047.421-.474.282-.743.68-.805 1.196-.047.396.044.726.273.992.235.26.573.396 1.016.406zm5.985-3.148a6.57 6.57 0 0 1 .711-2.328c.37-.693.826-1.211 1.367-1.555a3.122 3.122 0 0 1 1.79-.492c.942.021 1.666.364 2.171 1.031l.813-4.414h1.414l-2.078 12h-1.29l.15-.906c-.667.729-1.49 1.083-2.47 1.062-.78-.021-1.403-.325-1.867-.914-.463-.594-.713-1.388-.75-2.383a7.59 7.59 0 0 1 .04-1.101zm1.36.812c-.016.745.117 1.323.398 1.735.281.411.693.622 1.234.633.818.036 1.545-.376 2.18-1.235l.672-3.906c-.312-.771-.88-1.167-1.703-1.188a2.15 2.15 0 0 0-1.477.508c-.421.349-.744.841-.968 1.477a6.127 6.127 0 0 0-.336 1.976zm-36.25-36.195c-.22 1.177-.753 2.109-1.602 2.797-.844.687-1.857 1.016-3.039.984-.703-.015-1.318-.187-1.844-.515-.526-.334-.935-.81-1.226-1.43a5.369 5.369 0 0 1-.485-2.07 6.616 6.616 0 0 1 .055-1.25l.133-.938c.245-1.708.844-3.055 1.797-4.039.958-.99 2.122-1.471 3.492-1.445 1.068.021 1.914.367 2.539 1.039.625.666.956 1.594.992 2.781h-1.46c-.068-1.594-.693-2.453-1.876-2.578l-.258-.016c-.984-.026-1.807.341-2.468 1.102-.657.755-1.081 1.789-1.274 3.101l-.172 1.18-.047.688c-.03.958.139 1.721.508 2.289.375.562.93.854 1.664.875.792.026 1.446-.164 1.961-.571.521-.406.917-1.06 1.188-1.961l1.422-.023zm5.992-4.984c.708.01 1.315.203 1.82.578.505.375.878.893 1.117 1.554.245.657.328 1.375.25 2.157l-.015.172a5.724 5.724 0 0 1-.735 2.234 4.324 4.324 0 0 1-1.515 1.547c-.62.37-1.3.544-2.04.523-.702-.01-1.31-.203-1.82-.578-.505-.375-.875-.885-1.109-1.531-.234-.646-.318-1.357-.25-2.133.078-.875.315-1.661.71-2.359.397-.698.905-1.237 1.524-1.617a3.647 3.647 0 0 1 2.063-.547zm-2.875 4.531a4.79 4.79 0 0 0 0 1.023c.052.615.234 1.104.547 1.469.317.365.74.555 1.265.57a2.27 2.27 0 0 0 1.297-.343c.396-.25.73-.625 1-1.125.271-.5.446-1.055.524-1.664.041-.48.05-.883.023-1.211-.062-.631-.253-1.128-.57-1.493-.318-.364-.74-.557-1.266-.578-.729-.015-1.349.271-1.86.86-.51.588-.825 1.359-.944 2.312l-.016.18zM64.695 136H63.29l2.078-12h1.414l-2.086 12zm3.844 0h-1.406l2.078-12h1.414l-2.086 12zm5.969.156c-1.052-.021-1.875-.409-2.469-1.164-.594-.755-.844-1.721-.75-2.898l.04-.336a5.66 5.66 0 0 1 .741-2.297c.412-.693.912-1.214 1.5-1.563a3.47 3.47 0 0 1 1.907-.507c.87.02 1.552.31 2.046.867.495.557.766 1.312.813 2.265a6.62 6.62 0 0 1-.031 1.016l-.086.649h-5.524c-.093.765.032 1.416.375 1.953.35.536.868.815 1.555.836.833.02 1.604-.355 2.313-1.125l.812.687a3.74 3.74 0 0 1-1.375 1.203c-.557.287-1.18.425-1.867.414zm.898-7.586a2.083 2.083 0 0 0-1.531.594c-.432.412-.776 1.024-1.031 1.836l4.11.008.03-.125c.084-.656-.023-1.201-.32-1.633-.292-.438-.71-.664-1.258-.68zm4.156 3.188c.126-.922.373-1.722.743-2.399.375-.682.828-1.185 1.36-1.507a3.142 3.142 0 0 1 1.757-.469c.979.021 1.719.39 2.219 1.109l.28-.945h1.298l-1.406 8.273c-.151 1.078-.589 1.94-1.313 2.586-.724.651-1.617.961-2.68.93a3.83 3.83 0 0 1-1.648-.406 3.14 3.14 0 0 1-1.234-1.071l.804-.867c.51.755 1.185 1.143 2.024 1.164.671.021 1.24-.166 1.703-.562.469-.396.778-.959.93-1.688l.156-.75c-.688.688-1.493 1.021-2.414 1-.526-.015-.985-.156-1.375-.422-.386-.27-.685-.658-.899-1.164a4.79 4.79 0 0 1-.351-1.703c-.01-.307.005-.677.046-1.109zm1.368.804c-.016.745.112 1.323.382 1.735.276.406.69.62 1.243.641.843.02 1.57-.394 2.18-1.243l.663-3.883c-.312-.77-.877-1.171-1.695-1.203-.766-.02-1.396.292-1.89.938-.49.646-.78 1.518-.868 2.617l-.015.398zm10.672 3.594c-1.053-.021-1.875-.409-2.47-1.164-.593-.755-.843-1.721-.75-2.898l.04-.336a5.657 5.657 0 0 1 .742-2.297c.412-.693.912-1.214 1.5-1.563a3.47 3.47 0 0 1 1.906-.507c.87.02 1.552.31 2.047.867.495.557.766 1.312.813 2.265a6.62 6.62 0 0 1-.032 1.016l-.085.649h-5.524c-.094.765.031 1.416.375 1.953.349.536.867.815 1.555.836.833.02 1.604-.355 2.312-1.125l.813.687c-.354.51-.813.912-1.375 1.203-.557.287-1.18.425-1.867.414zm.898-7.586a2.083 2.083 0 0 0-1.531.594c-.432.412-.776 1.024-1.031 1.836l4.109.008.031-.125c.084-.656-.023-1.201-.32-1.633-.292-.438-.711-.664-1.258-.68z" fill="#8293A1"/></svg>