<svg width="1440" height="863" viewBox="0 0 1440 863" fill="none" xmlns="http://www.w3.org/2000/svg"><mask id="a" maskUnits="userSpaceOnUse" x="0" y="0" width="1440" height="863"><path fill="#fff" d="M0 0h1440v863H0z"/></mask><g mask="url(#a)"><path d="M.274 862H558.5M.274 862l464.592-107.319M.274 862L-2 683.791M558.5 862l170.007-178.209M558.5 862l-93.634-107.319M558.5 862h364M728.507 683.791l-263.641 70.89m263.641-70.89l-90.234-99.935m90.234 99.935L922.5 862M728.507 683.791l185.962-99.935m-185.962 99.935l249.519 14.276m-513.16 56.614L-2 683.791m466.866 70.89l173.407-170.825M464.866 754.681L302.051 652.284M-2 683.791l2.274-2.156 138.963-131.747M-2 683.791V500.659m141.237 49.229l162.814 102.396M139.237 549.888l499.036 33.968m-499.036-33.968l347.599-117.657M139.237 549.888l110.635-146.21m-110.635 146.21L-2 500.659m640.273 83.197l-336.222 68.428m336.222-68.428L486.836 432.231m151.437 151.625l106.712-105.35m-106.712 105.35h276.196M486.836 432.231l258.149 46.275m-258.149-46.275l116.128-127.503M486.836 432.231l-236.964-28.553m236.964 28.553L280.473 202.824m206.363 229.407V236.792M922.5 862l55.526-163.933M922.5 862H1470m-547.5 0l181.07-92.058M744.985 478.506l169.484 105.35m-169.484-105.35l220.486-46.275m-220.486 46.275l255.795-223.007M744.985 478.506L602.964 304.728m142.021 173.778v-264.36m169.484 369.71l63.557 114.211m-63.557-114.211l235.391 19.692m-235.391-19.692l51.002-151.625m12.555 265.836l125.544 71.875m-125.544-71.875l171.834-94.519M1470 862l-366.43-92.058M1470 862l-160.07-129.226M1470 862l-10.99-229.407m-355.44 137.349l46.29-166.394m0 0L965.471 432.231m184.389 171.317l309.15 29.045m-309.15-29.045l160.07 129.226m-160.07-129.226l7.85-162.21m-192.239-9.107l200.089-153.103M965.471 432.231l35.309-176.732m164.78 23.629l-164.78-23.629m164.78 23.629l-7.85 162.21m7.85-162.21l-62.78-143.748m62.78 143.748l146.73-135.379m-146.73 135.379l293.45-101.411m-293.45 101.411l293.45 91.566m-458.23-115.195l-255.795-41.353m255.795 41.353l102-120.119M602.964 304.728l142.021-90.582m-142.021 90.582l-116.128-67.936m258.149-22.646L559.817 0m185.168 214.146l-258.149 22.646m258.149-22.646L924.293 0M744.985 214.146l357.795-78.766M249.872 403.678l30.601-200.854m-30.601 200.854L-2 500.659m251.872-96.981L-2 370.694m282.473-167.87l206.363 33.968m-206.363-33.968L-2 0m282.473 202.824l32.956-105.843m-32.956 105.843L-2 370.694m282.473-167.87H-2m488.836 33.968L313.429 96.982m173.407 139.81L559.817 0m899.193 632.593l-149.08 100.181m149.08-100.181l-301.3-191.255m301.3 191.255V370.694m-301.3 70.644l301.3-70.644M-2 0l315.429 96.981M-2 0h561.817M-2 0v202.824M313.429 96.981L559.817 0m0 0h364.476m0 0l178.487 135.38M924.293 0h534.717m0 0l-356.23 135.38M1459.01 0v177.717m0-177.717l-146.72 143.749m146.72 33.968l-146.72-33.968m146.72 33.968v192.977M-2 500.659V370.694m0 0v-167.87" stroke="#F2D580" stroke-opacity=".14"/></g></svg>