<svg width="1440" height="861" viewBox="0 0 1440 861" fill="none" xmlns="http://www.w3.org/2000/svg"><mask id="a" maskUnits="userSpaceOnUse" x="0" y="0" width="1440" height="861"><path fill="#fff" d="M0 0h1440v861H0z"/></mask><g mask="url(#a)"><path d="M-3.742 861h565.085m-565.085 0l461.436-107.319M-3.742 861L-6 682.791M561.343 861l158.202-178.209M561.343 861L457.694 753.681M561.343 861H926M719.545 682.791l-261.851 70.89m261.851-70.89l-89.622-99.935m89.622 99.935L926 861M719.545 682.791l184.698-99.935m-184.698 99.935l247.823 14.276m-509.674 56.614L-6 682.791m463.694 70.89l172.229-170.825M457.694 753.681L295.986 651.284M-6 682.791l2.258-2.156 138.019-131.747M-6 682.791V499.659m140.277 49.229l161.709 102.396M134.277 548.888l495.646 33.968m-495.646-33.968l345.238-117.657M134.277 548.888l109.884-146.21m-109.884 146.21L-6 499.659m635.923 83.197l-333.937 68.428m333.937-68.428L479.515 431.231m150.408 151.625l105.987-105.35m-105.987 105.35h274.32M479.515 431.231l256.395 46.275m-256.395-46.275l115.339-127.503M479.515 431.231l-235.354-28.553m235.354 28.553L274.554 201.824m204.961 229.407V235.792M926 861l41.368-163.933M926 861h530m-530 0l166.06-92.058M735.91 477.506l168.333 105.35M735.91 477.506l218.989-46.275M735.91 477.506l254.058-223.007M735.91 477.506L594.854 303.728M735.91 477.506v-264.36m168.333 369.71l63.125 114.211m-63.125-114.211l233.797 19.692m-233.797-19.692l50.656-151.625m12.469 265.836l124.692 71.875m-124.692-71.875l170.672-94.519M1456 861l-363.94-92.058M1456 861l-158.98-129.226M1456 861l-10.91-229.407m-353.03 137.349l45.98-166.394m0 0L954.899 431.231m183.141 171.317l307.05 29.045m-307.05-29.045l158.98 129.226m-158.98-129.226l7.79-162.21m-190.931-9.107l198.721-153.103M954.899 431.231l35.069-176.732m163.652 23.629l-163.652-23.629m163.652 23.629l-7.79 162.21m7.79-162.21l-62.34-143.748m62.34 143.748l145.74-135.379m-145.74 135.379l291.47-101.411m-291.47 101.411l291.47 91.566M989.968 254.499L735.91 213.146m254.058 41.353L1091.28 134.38M594.854 303.728l141.056-90.582m-141.056 90.582l-115.339-67.936m256.395-22.646L560.5-1m175.41 214.146l-256.395 22.646m256.395-22.646L924-1l167.28 135.38m-355.37 78.766l355.37-78.766M244.161 402.678l30.393-200.854m-30.393 200.854L-6 499.659m250.161-96.981L-6 369.694m280.554-167.87l204.961 33.968m-204.961-33.968L-6-1m280.554 202.824l32.732-105.843m-32.732 105.843L-6 369.694m280.554-167.87H-6m485.515 33.968L307.286 95.982m172.229 139.81L560.5-1m884.59 632.593l-148.07 100.181m148.07-100.181l-299.26-191.255m299.26 191.255V369.694m-299.26 70.644l299.26-70.644M-6-1l313.286 96.981M-6-1v202.824M307.286 95.981L560.5-1m884.59 0l-353.81 135.38M1445.09-1v177.717m0-177.717l-145.73 143.749m145.73 33.968l-145.73-33.968m145.73 33.968v192.977M-6 499.659V369.694m0 0v-167.87" stroke="#F2D580" stroke-opacity=".5"/></g></svg>