<svg width="1440" height="864" viewBox="0 0 1440 864" fill="none" xmlns="http://www.w3.org/2000/svg"><path d="M-3.759 863H544.5m-548.259 0l457.964-107.319M-3.759 863L-6 684.791M544.5 863l169.586-178.209M544.5 863l-90.295-107.319M544.5 863h362M714.086 684.791l-259.881 70.89m259.881-70.89l-88.947-99.935m88.947 99.935L906.5 863M714.086 684.791l183.308-99.935m-183.308 99.935l245.958 14.276m-505.839 56.614L-6 684.791m460.205 70.89l170.934-170.825M454.205 755.681L293.714 653.284M-6 684.791l2.241-2.156 136.981-131.747M-6 684.791V501.659m139.222 49.229l160.492 102.396M133.222 550.888l491.917 33.968m-491.917-33.968l342.64-117.657m-342.64 117.657l109.057-146.21m-109.057 146.21L-6 501.659m631.139 83.197l-331.425 68.428m331.425-68.428L475.862 433.231m149.277 151.625l105.189-105.35m-105.189 105.35h272.255M475.862 433.231l254.466 46.275m-254.466-46.275l114.471-127.503M475.862 433.231l-233.583-28.553m233.583 28.553L272.443 203.824m203.419 229.407V237.792M906.5 863l53.544-163.933M906.5 863H1445m-538.5 0l177.3-92.058M730.328 479.506l167.066 105.35m-167.066-105.35l217.341-46.275m-217.341 46.275l252.146-223.007M730.328 479.506L590.333 305.728m139.995 173.778v-264.36m167.066 369.71l62.65 114.211m-62.65-114.211l232.036 19.692m-232.036-19.692l50.275-151.625m12.375 265.836l123.756 71.875m-123.756-71.875l169.386-94.519M1445 863l-361.2-92.058M1445 863l-157.78-129.226M1445 863l-10.83-229.407M1083.8 770.942l45.63-166.394m0 0L947.669 433.231m181.761 171.317l304.74 29.045m-304.74-29.045l157.79 129.226m-157.79-129.226l7.74-162.21m-189.501-9.107L1144.9 280.128M947.669 433.231l34.805-176.732m162.426 23.629l-162.426-23.629m162.426 23.629l-7.73 162.21m7.73-162.21l-61.88-143.748m61.88 143.748l144.64-135.379M1144.9 280.128l289.27-101.411M1144.9 280.128l289.27 91.566M982.474 256.499l-252.146-41.353m252.146 41.353L1083.02 136.38M590.333 305.728l139.995-90.582m-139.995 90.582l-114.471-67.936m254.466-22.646L521.496 1m208.832 214.146l-254.466 22.646m254.466-22.646L911.317 1M730.328 215.146l352.692-78.766M242.279 404.678l30.164-200.854m-30.164 200.854L-6 501.659m248.279-96.981L-6 371.694m278.443-167.87l203.419 33.968m-203.419-33.968L-6 1m278.443 202.824l32.486-105.843m-32.486 105.843L-6 371.694m278.443-167.87H-6m481.862 33.968L304.929 97.982m170.933 139.81L521.496 1m912.674 632.593l-146.95 100.181m146.95-100.181l-297-191.255m297 191.255V371.694m-297 70.644l297-70.644M-6 1l310.929 96.981M-6 1h527.496M-6 1v202.824M304.929 97.981L521.496 1m0 0h389.821m0 0l171.703 135.38M911.317 1h522.853m0 0l-351.15 135.38M1434.17 1v177.717m0-177.717l-144.63 143.749m144.63 33.968l-144.63-33.968m144.63 33.968v192.977M-6 501.659V371.694m0 0v-167.87" stroke="#F2D580" stroke-opacity=".5"/></svg>