<svg width="25" height="24" viewBox="0 0 25 24" fill="none" xmlns="http://www.w3.org/2000/svg"><path d="M23.098 7.337h-1.296l-.03-.033L14.707.239a.815.815 0 0 0-1.153 1.153l5.945 5.945H5.501l5.945-5.945A.815.815 0 1 0 10.293.239L3.228 7.304l-.03.033H1.902A1.904 1.904 0 0 0 0 9.239v1.087c0 1 .774 1.82 1.754 1.897l1.563 9.375a2.438 2.438 0 0 0 2.412 2.043h13.78c1.21 0 2.25-.902 2.422-2.1l1.331-9.32A1.905 1.905 0 0 0 25 10.326V9.24a1.904 1.904 0 0 0-1.902-1.902zm.272 2.99c0 .149-.122.27-.272.27h-8.152a.815.815 0 0 0 0 1.631h6.668l-1.297 9.083a.82.82 0 0 1-.807.7H5.729a.813.813 0 0 1-.804-.681l-1.517-9.102h6.646a.815.815 0 0 0 0-1.63H1.902a.272.272 0 0 1-.272-.272V9.24c0-.15.122-.272.272-.272h21.196c.15 0 .272.122.272.272v1.087z" fill="#fff"/><path d="M7.608 13.859a.815.815 0 0 0-.815.815v4.891a.815.815 0 0 0 1.63 0v-4.89a.815.815 0 0 0-.815-.816zm4.892 0a.815.815 0 0 0-.815.815v4.891a.815.815 0 0 0 1.631 0v-4.89a.815.815 0 0 0-.815-.816zm4.891 0a.815.815 0 0 0-.815.815v4.891a.815.815 0 0 0 1.63 0v-4.89a.815.815 0 0 0-.815-.816z" fill="#fff"/></svg>