<svg id="Шар_1" xmlns="http://www.w3.org/2000/svg" viewBox="0 0 512 512"><style>.st0{fill:#50c4ed}</style><path class="st0" d="M107 130H15c-8.3 0-15 6.7-15 15v240c0 8.3 6.7 15 15 15h92c8.3 0 15-6.7 15-15V145c0-8.3-6.7-15-15-15zm405 105c0-17.5-10-32.7-24.6-40.1 3-6 4.6-12.8 4.6-19.9 0-24.8-20.2-45-45-45H302V55c0-30.3-24.7-55-55-55h-30c-8.3 0-15 6.7-15 15v53.3c0 13.2-5.1 25.6-14.5 34.9l-31.1 31.1c-2.8 2.8-4.4 6.6-4.4 10.6v170c0 46.9 38.1 85 85 85h180c24.8 0 45-20.2 45-45 0-7.1-1.7-13.9-4.6-19.9 14.6-7.3 24.6-22.5 24.6-40 0-5.9-1.1-11.4-3.2-16.6 19.1-5.2 33.2-22.7 33.2-43.4z"/></svg>