<svg width="215" height="225" viewBox="0 0 215 225" fill="none" xmlns="http://www.w3.org/2000/svg"><path opacity=".2" d="M58.62 23.975c4.091 2.622 5.817 7.905 3.72 12.282a9.477 9.477 0 0 1-6.724 5.226c-.896.181-1.125 1.364-.353 1.85 4.091 2.622 5.817 7.905 3.72 12.282a9.477 9.477 0 0 1-6.723 5.226c-.897.181-1.126 1.364-.353 1.85l.791.505c4.139 2.651 5.855 8.03 3.662 12.426-2.146 4.31-7.018 6.18-11.31 4.892-.667-.2-1.316.324-1.287 1.02a9.467 9.467 0 0 1-1.898 6.15c-3.032 4.035-8.782 4.845-13.035 2.118l-1.068-.687c-.668-.429-1.574.038-1.574.83a9.53 9.53 0 0 1-2.365 6.294c-3.137 3.595-8.553 4.129-12.578 1.554l-8.163-5.235a1.027 1.027 0 0 0-1.563.686c-6.99 40.318 10.375 82.763 47.46 105.764 47.365 29.418 110.198 15.658 140.951-30.849 31.936-48.29 18.109-113.202-30.467-144.346-32.708-20.97-72.73-21.208-104.734-4.13-.686.363-.715 1.345-.066 1.765l3.957 2.527zm64.225 56.94c16.592 10.641 21.427 32.793 10.795 49.377-10.633 16.592-32.785 21.427-49.378 10.794-16.592-10.632-21.427-32.784-10.794-49.377 10.642-16.583 32.784-21.427 49.377-10.795z" fill="#302B44"/><path d="M22.479 125.657c3.175-.477 28.922-10.804 30.992-13.036 2.069-2.222 15.896-24.002 15.896-24.631 0-.64-.315-12.874-.477-13.665-.047-.239-1.201-.935-2.87-1.822a9.469 9.469 0 0 1-.715 2.022c-2.146 4.3-7 6.18-11.281 4.901-.658-.2-1.345.325-1.316 1.011a9.467 9.467 0 0 1-1.898 6.151c-3.032 4.034-8.792 4.844-13.036 2.117l-.886-.572c-.868-.553-1.746-.057-1.755.753a9.532 9.532 0 0 1-2.365 6.256c-2.985 3.414-8.764 3.995-12.578 1.554l-.172-.105c-4.491-2.88-10.384.086-10.785 5.379a104.48 104.48 0 0 0 .42 19.996c5.388 1.984 11.214 3.929 12.826 3.691z" fill="#EDD59F"/><path d="M66.248 33.51c4.091 2.622 5.817 7.905 3.72 12.282a9.477 9.477 0 0 1-6.723 5.226c-.897.18-1.126 1.363-.353 1.85 4.09 2.622 5.817 7.905 3.719 12.282a9.476 9.476 0 0 1-6.723 5.226c-.896.18-1.125 1.363-.353 1.85l.792.505c4.138 2.651 5.855 8.03 3.661 12.425-2.145 4.31-7.018 6.18-11.31 4.892-.667-.2-1.315.325-1.287 1.02a9.467 9.467 0 0 1-1.897 6.151c-3.033 4.034-8.783 4.845-13.036 2.118l-1.068-.687c-.668-.43-1.574.038-1.574.83a9.529 9.529 0 0 1-2.364 6.293c-3.138 3.595-8.554 4.129-12.578 1.555l-8.163-5.236a1.027 1.027 0 0 0-1.564.687c-6.99 40.318 10.375 82.763 47.46 105.764 47.366 29.418 110.198 15.658 140.952-30.84 31.936-48.29 18.109-113.211-30.468-144.356-32.708-20.97-72.73-21.208-104.733-4.129-.687.363-.715 1.345-.067 1.765l3.957 2.527zm64.225 56.939c16.593 10.642 21.428 32.794 10.795 49.377-10.633 16.593-32.785 21.428-49.377 10.795-16.593-10.633-21.428-32.785-10.795-49.377 10.642-16.583 32.785-21.428 49.377-10.795z" fill="#EDD59F"/><path d="M66.248 33.51c4.091 2.622 5.817 7.905 3.72 12.282a9.477 9.477 0 0 1-6.723 5.226c-.897.18-1.126 1.363-.353 1.85 4.09 2.622 5.817 7.905 3.719 12.282a9.476 9.476 0 0 1-6.723 5.226c-.896.18-1.125 1.363-.353 1.85l.792.505c4.138 2.651 5.855 8.03 3.661 12.425-2.145 4.31-7.018 6.18-11.31 4.892-.667-.2-1.315.325-1.287 1.02a9.467 9.467 0 0 1-1.897 6.151c-3.033 4.034-8.783 4.845-13.036 2.118l-1.068-.687c-.668-.43-1.574.038-1.574.83a9.529 9.529 0 0 1-2.364 6.293c-3.138 3.595-8.554 4.129-12.578 1.555l-8.163-5.236a1.027 1.027 0 0 0-1.564.687c-6.99 40.318 10.375 82.763 47.46 105.764 47.366 29.418 110.198 15.658 140.952-30.84 31.936-48.29 18.109-113.211-30.468-144.356-32.708-20.97-72.73-21.208-104.733-4.129-.687.363-.715 1.345-.067 1.765l3.957 2.527zm64.225 56.939c16.593 10.642 21.428 32.794 10.795 49.377-10.633 16.593-32.785 21.428-49.377 10.795-16.593-10.633-21.428-32.785-10.795-49.377 10.642-16.583 32.785-21.428 49.377-10.795z" fill="#511F12"/><path d="M126.697 75.315c-3.786-.438-8.039-.925-13.064-2.565-11.634-3.805-26.329-14.056-33.557 2.327-2.575 5.826-3.262 12.559-7.047 17.699-5.703 7.714-23.278 11.844-20.96 23.83.886 4.597 3.976 8.411 6.703 12.216 7.572 10.566 10.375 29.952 25.862 31.106 5.712.429 11.739-.524 16.983 1.764 4.625 2.022 7.982 6.313 12.655 8.22 11.09 4.52 18.585-8.487 28.398-11.347 8.639-2.518 19.854-.62 19.53-13.16-.096-3.776-.84-7.581-.248-11.31.715-4.501 3.28-8.458 4.911-12.711 5.206-13.57-12.988-21.618-19.253-32.49-6.79-11.834-12.769-12.625-20.913-13.579zm14.571 64.511c-10.633 16.593-32.785 21.428-49.377 10.795-16.593-10.633-21.428-32.785-10.795-49.377 10.633-16.593 32.785-21.428 49.377-10.795 16.593 10.642 21.428 32.794 10.795 49.377z" fill="#E5A55A"/><path d="M126.707 75.317c-1.116-.067-2.241-.096-3.347-.134 5.807 4.291 13.369 6.103 18.385 11.3 4.987 5.169 8.115 9.117 11.596 14.934 2.899 4.834 7.485 8.067 9.211 13.703 1.259 4.11-1.306 7.924-3.108 11.414-.868 1.688-1.927 3.529-2.127 5.455-.295 2.813 1.478 5.054.582 7.915-.42 1.325-1.068 2.575-1.421 3.929-.486 1.878-.4 3.957-1.373 5.635-1.497 2.585-5.417 3.996-7.991 5.236-3.748 1.802-7.639 3.309-11.539 4.758-7.781 2.89-15.734 5.541-22.905 9.794 4.815 2.965 11.185 1.01 15.953-2.032 4.768-3.051 9.002-7.161 14.419-8.83 5.168-1.592 11.233-.877 15.515-4.186 7.333-5.665 1.64-15.963 4.215-23.392 1.516-4.377 4.577-8.249 4.959-12.998.39-4.796-2.184-9.373-5.388-12.959-3.204-3.585-7.105-6.513-10.242-10.156-5.006-5.817-8.277-13.598-15.114-17.088-3.176-1.612-6.723-2.098-10.28-2.298z" fill="#C67626"/><path d="M24.556 177.322c8.01 12.244 18.758 23 32.041 31.239 47.375 29.4 110.208 15.639 140.961-30.858 23.306-35.245 22.229-79.33 1.078-112.696-2.995-1.555-6.857 24.622-7.105 26.586-1.182 9.412-2.04 19.129-.352 28.541 1.487 8.306 9.269 18.481 5.187 26.958-1.802 3.739-5.55 6.17-7.695 9.718-4.034 6.675-1.726 16.096-6.609 22.171-3.442 4.272-9.316 5.473-14.294 7.8-19.072 8.916-33.7 34.616-58.103 24.145-10.766-4.625-16.087-16.001-25.852-21.465-11.329-6.332-20.77 3.414-32.289 1.411-6.007-1.039-10.613-5.664-15.572-9.212-3.309-2.374-7.467-4.3-11.395-4.338z" fill="#3A1509"/><path d="M106.834 198.893l8.658 10.165a2.866 2.866 0 0 0 4.034.324 2.866 2.866 0 0 0 .324-4.034l-8.658-10.165a2.868 2.868 0 0 0-4.034-.324 2.866 2.866 0 0 0-.324 4.034zm43.865-21.932l8.659 10.165a2.867 2.867 0 0 0 4.034.325 2.868 2.868 0 0 0 .324-4.034l-8.659-10.166a2.867 2.867 0 0 0-4.033-.324 2.867 2.867 0 0 0-.325 4.034zM94.437 38.688l8.659 10.166a2.866 2.866 0 0 0 4.033.324 2.867 2.867 0 0 0 .325-4.034l-8.66-10.165a2.867 2.867 0 0 0-4.033-.324 2.867 2.867 0 0 0-.324 4.033z" fill="#1DCFFD"/><path d="M143.995 188.984l-13.064 2.746c-1.535.324-2.537 1.85-2.212 3.385.324 1.536 1.85 2.537 3.385 2.213l13.064-2.747c1.535-.324 2.537-1.85 2.212-3.385-.314-1.545-1.84-2.537-3.385-2.212zM41.007 63.11l-13.064 2.747c-1.536.324-2.537 1.85-2.213 3.385.325 1.536 1.85 2.537 3.386 2.213l13.064-2.747c1.535-.324 2.537-1.85 2.212-3.385a2.856 2.856 0 0 0-3.385-2.212zm150.668 69.612l-13.064 2.746c-1.536.325-2.537 1.85-2.213 3.386.325 1.535 1.85 2.536 3.386 2.212l13.064-2.746c1.535-.325 2.537-1.85 2.212-3.386-.314-1.545-1.84-2.536-3.385-2.212z" fill="#FFC543"/><path d="M77.797 172.374l-10.07 8.773c-1.183 1.03-1.316 2.851-.277 4.034 1.03 1.182 2.852 1.316 4.034.276l10.07-8.773c1.182-1.03 1.316-2.851.276-4.034a2.873 2.873 0 0 0-4.033-.276zm36.236 11.441l-10.07 8.773c-1.182 1.03-1.316 2.852-.276 4.034 1.03 1.182 2.851 1.316 4.033.277l10.07-8.774c1.183-1.029 1.316-2.851.277-4.033a2.873 2.873 0 0 0-4.034-.277zm-2.86-151.621l-10.07 8.773c-1.183 1.03-1.316 2.852-.277 4.034 1.03 1.182 2.851 1.316 4.034.277l10.07-8.774c1.182-1.03 1.316-2.85.276-4.033a2.872 2.872 0 0 0-4.033-.277z" fill="#EDEDED"/><path d="M171.249 53.174l-10.07 8.773c-1.182 1.03-1.316 2.851-.276 4.033 1.03 1.183 2.851 1.316 4.034.277l10.07-8.773c1.182-1.03 1.316-2.851.276-4.034a2.873 2.873 0 0 0-4.034-.276z" fill="#F2D580"/><path d="M149.584 55.348l-12.636-4.31a2.874 2.874 0 0 0-3.633 1.783c-.505 1.488.296 3.128 1.784 3.633l12.635 4.31a2.874 2.874 0 0 0 3.633-1.783c.515-1.487-.296-3.118-1.783-3.633zm-62.309 19.31l4.406-12.597a2.857 2.857 0 0 0-1.754-3.642 2.857 2.857 0 0 0-3.643 1.754L81.878 72.77c-.515 1.488.267 3.128 1.755 3.643 1.478.515 3.118-.277 3.642-1.755z" fill="#FFC543"/><path d="M191.732 97.935l-11.815 6.227a2.875 2.875 0 0 0-1.201 3.862 2.876 2.876 0 0 0 3.862 1.202l11.815-6.227a2.876 2.876 0 0 0 1.201-3.862c-.724-1.393-2.469-1.927-3.862-1.202z" fill="#F2D580"/><path d="M68.48 7.323L57.056.41c-1.345-.81-3.119-.382-3.93.963-.81 1.345-.38 3.118.964 3.929l11.424 6.913c1.345.81 3.118.382 3.929-.963a2.864 2.864 0 0 0-.963-3.929z" fill="#EDEDED"/><path d="M178.821 178.561l10.918-7.686a2.868 2.868 0 0 0 .696-3.986 2.869 2.869 0 0 0-3.986-.696l-10.918 7.686a2.868 2.868 0 0 0-.696 3.986c.906 1.288 2.708 1.602 3.986.696zM60.937 159.022l-11.815 6.227a2.875 2.875 0 0 0-1.202 3.862 2.877 2.877 0 0 0 3.862 1.202l11.816-6.227a2.877 2.877 0 0 0 1.201-3.863c-.725-1.401-2.47-1.935-3.862-1.201zm-24.202-36.685l-11.815 6.227a2.876 2.876 0 0 0-1.202 3.862 2.875 2.875 0 0 0 3.862 1.202l11.815-6.227a2.875 2.875 0 0 0 1.202-3.862 2.86 2.86 0 0 0-3.862-1.202zM21.477 6L9.662 12.225a2.876 2.876 0 0 0-1.201 3.862 2.875 2.875 0 0 0 3.862 1.202l11.815-6.227A2.875 2.875 0 0 0 25.339 7.2a2.859 2.859 0 0 0-3.862-1.202z" fill="#F2D580"/><path d="M176.341 139.578l2.68 13.074a2.872 2.872 0 0 0 3.376 2.232 2.87 2.87 0 0 0 2.231-3.376l-2.679-13.074a2.87 2.87 0 0 0-3.376-2.231 2.866 2.866 0 0 0-2.232 3.375z" fill="#EDEDED"/><path d="M44.745 141.486l2.68 13.073a2.872 2.872 0 0 0 3.375 2.232 2.872 2.872 0 0 0 2.232-3.376l-2.68-13.074a2.87 2.87 0 0 0-3.376-2.231 2.866 2.866 0 0 0-2.231 3.376z" fill="#1DCFFD"/><path d="M49.513 181.537l2.68 13.074a2.872 2.872 0 0 0 3.375 2.232 2.872 2.872 0 0 0 2.232-3.376l-2.68-13.074a2.87 2.87 0 0 0-3.375-2.231 2.865 2.865 0 0 0-2.232 3.375zm88.685-146.854l2.679 13.074a2.872 2.872 0 0 0 3.376 2.231 2.87 2.87 0 0 0 2.231-3.376l-2.679-13.074a2.872 2.872 0 0 0-3.376-2.23 2.865 2.865 0 0 0-2.231 3.375z" fill="#F2D580"/><path d="M170.62 78.549l2.68 13.074a2.87 2.87 0 0 0 3.375 2.231 2.872 2.872 0 0 0 2.232-3.376l-2.68-13.073a2.871 2.871 0 0 0-3.376-2.232 2.865 2.865 0 0 0-2.231 3.376z" fill="#1DCFFD"/><path d="M18.32 42.197c.725.63 1.173 1.726 1.727 2.384.352.42.81.801.934 1.335.248 1.087-.887 1.955-1.459 2.718-.448.591-.925 1.211-1.573 1.574-.391.219-.82.333-1.25.448-.343.095-.696.18-1.058.18-.477-.009-.925-.19-1.392-.276-.344-.066-.706-.085-1.05-.152a3.654 3.654 0 0 1-2.088-1.25c-.305-.371-.534-.82-.572-1.296-.038-.41.076-.81.229-1.192.21-.515.515-1.002.887-1.412.686-.743 1.602-1.23 2.46-1.773.41-.258.82-.544 1.211-.83.324-.238.64-.477 1.002-.658.257-.124.686-.324.982-.286.4.057.724.229 1.01.486z" fill="#EDD59F"/><path d="M9.986 47.575c.343.724.668 2.641 1.402 2.965 1.907.83 3.223.572 5.178-.143.906-.334 1.783-.858 2.279-1.688.486-.83.477-2.002-.229-2.66-.315-.296-.753-.477-.992-.84-.448-.667-.019-1.449.592-2.06.467-.476.333-1.277-.287-1.534-.705-.287-1.62-.296-2.402-.23-3.042.258-7.534 2.022-5.54 6.19z" fill="#511F12"/><path d="M33.225 48.205c.487.43.782 1.163 1.164 1.612.238.286.553.534.63.906.161.743-.62 1.344-1.012 1.869-.314.41-.639.83-1.087 1.087-.267.152-.562.229-.848.314-.239.067-.477.134-.725.134-.324 0-.63-.124-.944-.181-.239-.048-.477-.048-.715-.096a2.382 2.382 0 0 1-1.412-.839c-.2-.248-.362-.553-.381-.877-.02-.277.057-.553.162-.81.143-.353.353-.687.62-.964.477-.515 1.096-.849 1.688-1.23.286-.181.562-.372.83-.572.219-.162.438-.334.686-.458.181-.086.467-.229.677-.2.257.019.477.143.667.305z" fill="#EDD59F"/><path d="M43.22 6.352c-.306.573-.964 1.02-1.326 1.488-.229.296-.4.649-.744.81-.686.325-1.45-.305-2.04-.581-.468-.21-.954-.439-1.297-.82a4.043 4.043 0 0 1-.496-.763c-.115-.22-.23-.439-.286-.677-.067-.315-.02-.639-.029-.963-.01-.239-.057-.477-.067-.715a2.423 2.423 0 0 1 .506-1.564c.2-.258.457-.468.772-.563.267-.076.553-.067.83-.019.381.067.743.2 1.077.391.601.353 1.068.887 1.564 1.373.239.239.486.467.744.687.21.18.42.353.591.572.124.152.324.41.343.61a1.08 1.08 0 0 1-.143.734z" fill="#E279A1"/><path d="M38.757 23.498c.486.43.781 1.163 1.163 1.612.238.286.553.534.63.906.161.743-.62 1.344-1.012 1.869-.314.41-.638.83-1.087 1.087-.267.152-.562.229-.848.314-.239.067-.477.134-.725.134-.324 0-.63-.124-.944-.181-.239-.048-.477-.048-.715-.096a2.382 2.382 0 0 1-1.412-.839c-.2-.248-.362-.553-.381-.877-.02-.277.057-.553.162-.81.143-.354.353-.687.62-.964.477-.515 1.096-.848 1.688-1.23.286-.181.562-.372.83-.572.219-.162.438-.334.686-.458.181-.086.467-.229.677-.2.257.019.477.143.668.305z" fill="#EDD59F"/></svg>