<svg id="Шар_1" xmlns="http://www.w3.org/2000/svg" viewBox="0 0 512 512"><style>.st0{fill:#50c4ed}</style><path class="st0" d="M359.3 164.6H152.7L256 253.1l103.3-88.5z"/><path class="st0" d="M256 274.3c-2.2 0-4.3-.8-6-2.2l-112.9-96.8v172.1h237.7V175.3L262 272.1c-1.7 1.4-3.8 2.2-6 2.2z"/><path class="st0" d="M256 0C114.6 0 0 114.6 0 256s114.6 256 256 256 256-114.6 256-256C511.8 114.7 397.3.2 256 0zm137.1 356.6c0 5-4.1 9.1-9.1 9.1H128c-5 0-9.1-4.1-9.1-9.1V155.4c0-5 4.1-9.1 9.1-9.1h256c5 0 9.1 4.1 9.1 9.1v201.2z"/></svg>