<svg width="29" height="29" viewBox="0 0 29 29" fill="none" xmlns="http://www.w3.org/2000/svg"><path d="M4.248 29h9.459V18.691h-3.398v-3.398h3.398v-4.248a4.253 4.253 0 0 1 4.248-4.248h4.248v3.398h-3.398c-.937 0-1.7.762-1.7 1.7v3.398h4.945l-.567 3.398h-4.378V29h7.647A4.253 4.253 0 0 0 29 24.752V4.248A4.253 4.253 0 0 0 24.752 0H4.248A4.253 4.253 0 0 0 0 4.248v20.504A4.253 4.253 0 0 0 4.248 29zM1.7 4.248a2.552 2.552 0 0 1 2.55-2.549h20.503a2.552 2.552 0 0 1 2.549 2.55v20.503a2.552 2.552 0 0 1-2.549 2.549h-5.947v-6.91h4.118l1.133-6.797h-5.251v-1.7h5.097V5.099h-5.947a5.954 5.954 0 0 0-5.947 5.947v2.549h-3.4v6.797h3.399v6.91h-7.76a2.552 2.552 0 0 1-2.548-2.55V4.248z" fill="#fff"/></svg>