<svg width="65" height="65" viewBox="0 0 65 65" fill="none" xmlns="http://www.w3.org/2000/svg"><path d="M49.807 28.7a3.736 3.736 0 0 0-3.732-3.732h-6.858c1.666-1.872 2.755-4.005 2.966-5.919a4.115 4.115 0 0 0-.991-3.182 3.577 3.577 0 0 0-2.669-1.225h-.035c-.995 0-1.928.383-2.632 1.08a3.686 3.686 0 0 0-1.099 2.62c-.036.217-.418.966-1.353 1.855-.765.728-2.088 1.73-4.04 2.363-.766.249-1.465.707-2.08 1.36a13.3 13.3 0 0 1-1.402 1.293 2.089 2.089 0 0 0-.981-.244h-6.514c-1.16 0-2.103.943-2.103 2.103v17.37c0 1.16.944 2.103 2.103 2.103h6.514c.79 0 1.48-.44 1.84-1.086h16.62a3.192 3.192 0 0 0 3.19-3.189 3.17 3.17 0 0 0-.444-1.62 3.19 3.19 0 0 0 1.086-4.343 3.19 3.19 0 0 0 .974-4.517 3.731 3.731 0 0 0 1.64-3.09zm-3.732 1.696h-.543a1.018 1.018 0 0 0 0 2.036 1.154 1.154 0 0 1 0 2.307h-1.085a1.018 1.018 0 0 0 0 2.036 1.154 1.154 0 0 1 0 2.306H43.36a1.018 1.018 0 0 0 0 2.036 1.155 1.155 0 0 1 0 2.307H27.004v-9.838a1.018 1.018 0 0 0-2.035 0v10.856c0 .037-.03.067-.068.067h-6.514a.068.068 0 0 1-.067-.067v-17.37c0-.038.03-.068.067-.068h6.514c.037 0 .068.03.068.068v2.171a1.018 1.018 0 1 0 2.035 0v-2.171c0-.05-.004-.098-.007-.147a15.45 15.45 0 0 0 1.771-1.611c.377-.401.789-.677 1.224-.818 2.396-.777 4.008-2.03 4.939-2.943 1.166-1.145 1.862-2.339 1.862-3.194 0-.45.176-.874.496-1.19a1.702 1.702 0 0 1 1.215-.492c.57.006.949.297 1.165.541.372.419.555 1.02.49 1.61-.222 2.021-1.84 4.521-4.12 6.367a1.018 1.018 0 0 0 .64 1.809h9.396a1.697 1.697 0 0 1 0 3.392z" fill="#C94F49"/><path d="M21.644 40.156c-.562 0-1.023.46-1.023 1.023 0 .562.461 1.023 1.023 1.023.562 0 1.023-.461 1.023-1.023 0-.562-.46-1.023-1.023-1.023z" fill="#C94F49"/><path d="M63.186 32.5l1.748-4.627a1.017 1.017 0 0 0-.158-.996l-3.092-3.86.233-4.94a1.018 1.018 0 0 0-.458-.899l-4.134-2.715-1.304-4.77a1.018 1.018 0 0 0-.714-.714l-4.77-1.305-2.716-4.133a1.018 1.018 0 0 0-.898-.458l-4.94.233-3.86-3.092a1.018 1.018 0 0 0-.997-.158L32.5 1.814 27.874.066a1.017 1.017 0 0 0-.997.158l-3.86 3.092-4.94-.233a1.016 1.016 0 0 0-.898.458l-2.716 4.134-4.77 1.304a1.018 1.018 0 0 0-.713.714l-1.305 4.77L3.54 17.18c-.3.197-.475.539-.458.898l.233 4.94-3.092 3.86a1.02 1.02 0 0 0-.158.997L1.814 32.5.066 37.126c-.128.337-.067.716.158.997l3.092 3.86-.233 4.94c-.017.36.157.701.458.898l4.134 2.716 1.304 4.77c.095.347.367.619.714.713l4.77 1.305 2.715 4.134c.198.3.54.474.899.458l4.94-.233 3.86 3.092c.281.225.66.285.997.158l4.626-1.748 4.627 1.748a1.017 1.017 0 0 0 .996-.158l3.86-3.092 4.94.233c.36.016.7-.157.898-.458l2.716-4.134 4.77-1.305c.348-.095.619-.366.714-.713l1.304-4.77 4.134-2.716c.301-.197.475-.539.458-.898l-.233-4.94 3.092-3.86a1.02 1.02 0 0 0 .158-.997L63.186 32.5zm-2.04.36l1.679 4.443-2.97 3.707a1.017 1.017 0 0 0-.222.684l.223 4.745-3.97 2.608a1.018 1.018 0 0 0-.422.582L54.21 54.21l-4.581 1.253a1.019 1.019 0 0 0-.582.423l-2.608 3.97-4.745-.224a1.018 1.018 0 0 0-.684.223l-3.707 2.97-4.443-1.68a1.018 1.018 0 0 0-.72 0l-4.443 1.68-3.707-2.97a1.02 1.02 0 0 0-.684-.223l-4.745.224-2.607-3.97a1.018 1.018 0 0 0-.583-.423L10.79 54.21l-1.254-4.58a1.018 1.018 0 0 0-.423-.582l-3.97-2.608.224-4.745a1.017 1.017 0 0 0-.222-.684l-2.97-3.707 1.68-4.443a1.018 1.018 0 0 0 0-.72l-1.68-4.443 2.97-3.707c.155-.193.234-.437.222-.684l-.223-4.745 3.97-2.608c.207-.136.357-.343.422-.582l1.254-4.581 4.581-1.254c.24-.065.446-.215.582-.423l2.608-3.97 4.745.224c.247.012.49-.067.684-.222l3.707-2.97 4.443 1.68c.232.087.488.087.72 0l4.443-1.68 3.707 2.97c.193.155.437.234.684.222l4.745-.224 2.608 3.97c.136.207.343.358.582.423l4.581 1.254 1.254 4.581c.065.24.215.446.422.582l3.97 2.608-.224 4.745c-.011.247.068.49.223.684l2.97 3.707-1.68 4.443a1.019 1.019 0 0 0 0 .72z" fill="#C94F49"/><path d="M51.623 14.926a26.675 26.675 0 0 0-1.596-1.596 1.018 1.018 0 1 0-1.376 1.5 24.804 24.804 0 0 1 1.473 1.473 1.015 1.015 0 0 0 1.438.061c.414-.38.442-1.024.062-1.438zm-5.21-4.373c-4.908-3.127-10.817-4.517-16.638-3.914a26.043 26.043 0 0 0-15.683 7.472 25.909 25.909 0 0 0-7.59 17.318 25.9 25.9 0 0 0 6.062 17.767 1.015 1.015 0 0 0 1.434.124c.43-.362.485-1.004.123-1.434A23.87 23.87 0 0 1 8.536 31.51a23.878 23.878 0 0 1 6.995-15.96 24.001 24.001 0 0 1 14.453-6.887c5.367-.556 10.813.725 15.335 3.606a1.018 1.018 0 1 0 1.094-1.717zM54.4 18.54a1.018 1.018 0 0 0-1.716 1.094c2.881 4.522 4.162 9.968 3.606 15.335a24.003 24.003 0 0 1-6.887 14.453 23.879 23.879 0 0 1-15.96 6.995 23.868 23.868 0 0 1-16.375-5.585 1.018 1.018 0 1 0-1.31 1.558 25.885 25.885 0 0 0 17.767 6.061 25.909 25.909 0 0 0 17.318-7.59 26.042 26.042 0 0 0 7.472-15.682c.602-5.822-.787-11.73-3.914-16.639z" fill="#C94F49"/></svg>