<svg id="Слой_1" xmlns="http://www.w3.org/2000/svg" viewBox="0 0 17 17"><style>.st0{fill:#fff}.st1{fill:#f0524c}.st2{fill:#4fadce}.st3{display:none}.st3,.st4{fill-rule:evenodd;clip-rule:evenodd;fill:#1e272a}.st5{opacity:.6;fill:#fff}</style><path class="st5" d="M8.5 0C3.8 0 0 3.8 0 8.5S3.8 17 8.5 17 17 13.2 17 8.5 13.2 0 8.5 0zm5.9 5.1h-2.5c-.3-1.1-.7-2.1-1.2-3 1.6.5 2.9 1.6 3.7 3zM8.5 1.7c.7 1 1.3 2.2 1.6 3.4H6.9c.3-1.2.9-2.3 1.6-3.4zm-6.6 8.5c-.1-.5-.2-1.1-.2-1.7s.1-1.2.2-1.7h2.9c-.1.6-.1 1.1-.1 1.7s.1 1.1.1 1.7H1.9zm.7 1.7h2.5c.3 1.1.7 2.1 1.2 3-1.6-.5-2.9-1.6-3.7-3zm2.5-6.8H2.6c.8-1.4 2.1-2.5 3.7-3-.5.9-.9 1.9-1.2 3zm3.4 10.2c-.7-1-1.3-2.2-1.6-3.4h3.2c-.3 1.2-.9 2.3-1.6 3.4zm2-5.1h-4c-.1-.6-.1-1.1-.1-1.7s.1-1.1.1-1.7h4c.1.6.1 1.1.1 1.7s0 1.1-.1 1.7zm.2 4.7c.5-.9.9-2 1.2-3h2.5c-.8 1.4-2.1 2.5-3.7 3zm1.5-4.7c.1-.6.1-1.1.1-1.7s-.1-1.1-.1-1.7h2.9c.1.5.2 1.1.2 1.7s-.1 1.2-.2 1.7h-2.9z"/></svg>