<svg width="29" height="29" viewBox="0 0 29 29" fill="none" xmlns="http://www.w3.org/2000/svg"><path d="M20.672 0h-13C3.443 0 0 3.485 0 7.768V20.93c0 4.284 3.442 7.77 7.673 7.77h12.999c4.23 0 7.672-3.485 7.672-7.769V7.768C28.344 3.485 24.902 0 20.672 0zm6.01 20.93c0 3.356-2.696 6.086-6.01 6.086h-13c-3.314 0-6.01-2.73-6.01-6.086V7.768c0-3.355 2.696-6.086 6.01-6.086h13c3.314 0 6.01 2.73 6.01 6.086V20.93z" fill="#fff"/><path d="M14.172 6.502c-4.273 0-7.75 3.52-7.75 7.847s3.477 7.848 7.75 7.848c4.274 0 7.75-3.52 7.75-7.848 0-4.327-3.476-7.847-7.75-7.847zm0 14.012c-3.357 0-6.088-2.765-6.088-6.165 0-3.399 2.731-6.164 6.088-6.164s6.089 2.765 6.089 6.164c0 3.4-2.732 6.165-6.089 6.165zm7.936-16.799c-1.263 0-2.29 1.04-2.29 2.32 0 1.278 1.027 2.318 2.29 2.318 1.263 0 2.29-1.04 2.29-2.319s-1.027-2.319-2.29-2.319zm0 2.955a.633.633 0 0 1-.629-.636c0-.35.282-.636.629-.636.346 0 .628.285.628.636 0 .35-.282.636-.628.636z" fill="#fff"/></svg>