<svg id="Шар_1" xmlns="http://www.w3.org/2000/svg" viewBox="0 0 512 512"><style>.st0{fill:#50c4ed}</style><path class="st0" d="M464.6 346.1V99.6c0-10.4-8.5-19-19-19H66.4c-10.4 0-19 8.5-19 19v246.6L0 403c0 15.7 12.7 28.4 28.4 28.4h455.1c15.7 0 28.4-12.8 28.4-28.4l-47.3-56.9zM294 421.9h-75.9c-2.6 0-4.7-2.1-4.7-4.7s2.1-4.7 4.7-4.7H294c2.6 0 4.7 2.1 4.7 4.7-.1 2.6-2.2 4.7-4.7 4.7zM177.8 403l14.5-17.4h127.4l14.5 17.4H177.8zm260.1-90.5c0 9.1-7.4 16.5-16.5 16.5H90.6c-9.1 0-16.5-7.5-16.5-16.5V114.2c0-9.1 7.5-16.5 16.5-16.5h330.7c9.1 0 16.5 7.5 16.5 16.5.1 0 .1 198.3.1 198.3z"/></svg>