<svg width="29" height="29" viewBox="0 0 29 29" fill="none" xmlns="http://www.w3.org/2000/svg"><path d="M9.063 23.959H5.098v-12.8h3.965v12.8zm.396-16.88a2.322 2.322 0 1 0-4.645.002 2.322 2.322 0 0 0 4.645-.001zm14.443 9.837c0-3.436-.726-5.984-4.74-5.984-1.929 0-3.223.964-3.752 1.967h-.004v-1.74h-3.851v12.8h3.851v-6.356c0-1.664.424-3.277 2.487-3.277 2.035 0 2.101 1.904 2.101 3.383v6.25h3.908v-7.043zM29 25.602V3.398A3.402 3.402 0 0 0 25.602 0H3.398A3.402 3.402 0 0 0 0 3.398v22.204A3.402 3.402 0 0 0 3.398 29h22.204A3.402 3.402 0 0 0 29 25.602zM25.602 2.266c.624 0 1.132.508 1.132 1.132v22.204c0 .624-.508 1.132-1.132 1.132H3.398a1.134 1.134 0 0 1-1.132-1.132V3.398c0-.624.508-1.132 1.132-1.132h22.204z" fill="#fff"/></svg>