<svg width="65" height="65" viewBox="0 0 65 65" fill="none" xmlns="http://www.w3.org/2000/svg"><path d="M64.805 23.072a2.468 2.468 0 0 0-1.352-1.339L59.11 19.96a2.475 2.475 0 0 0-1.904.008 2.472 2.472 0 0 0-1.341 1.35l-4.944 12.065V13.667a.965.965 0 0 0-.283-.683L37.916.283A.967.967 0 0 0 37.233 0H.967A.966.966 0 0 0 0 .966v7.45a.966.966 0 0 0 1.934 0V1.93h34.331v11.736c0 .533.434.965.967.965h11.755v23.47l-4.262 10.4a.959.959 0 0 0-.07.414l.454 9.086a.965.965 0 0 0 1.62.662l2.258-2.075v6.48H1.934V12.277a.966.966 0 0 0-1.934 0v51.758c0 .533.433.965.967.965h48.987a.966.966 0 0 0 .967-.966v-9.222l2.513-2.31a.976.976 0 0 0 .24-.344l4.383-10.697a.967.967 0 0 0-1.79-.732l-4.017 9.804-5.37-2.193 8.25-20.133 5.37 2.194-2.846 6.946a.967.967 0 0 0 1.79.731l5.37-13.105a2.465 2.465 0 0 0-.01-1.901zM38.199 3.295l9.421 9.407H38.2V3.295zm8.462 47.04l4.344 1.775-4.067 3.739-.277-5.513zm16.363-26.093l-1.792 4.371-5.369-2.193 1.791-4.372a.55.55 0 0 1 .3-.3.549.549 0 0 1 .424-.002l4.343 1.774a.548.548 0 0 1 .3.298.547.547 0 0 1 .003.424z" fill="#C94F49"/><path d="M32.176 10.54H20.187a.966.966 0 1 0 0 1.93h11.989a.966.966 0 1 0 0-1.93zM7.478 31.712h7.643a.966.966 0 0 0 .967-.966V23.91l1.443-1.834a.964.964 0 0 0-.163-1.356.968.968 0 0 0-1.357.163l-.997 1.266H7.478a.966.966 0 0 0-.967.965v7.632c0 .533.433.966.967.966zm.966-7.632h5.05l-1.538 1.955-1.076-1.075a.968.968 0 0 0-1.367 0 .965.965 0 0 0 0 1.366l1.847 1.843a.968.968 0 0 0 1.444-.086l1.35-1.716v3.414h-5.71V24.08zm34.044-.432h-20.69a.967.967 0 1 0 0 1.931h20.69a.966.966 0 1 0 0-1.93zm-20.689 6.564h16.629a.966.966 0 1 0 0-1.93h-16.63a.966.966 0 1 0 0 1.93zM6.51 43.423c0 .534.434.966.968.966h7.643a.966.966 0 0 0 .967-.966v-6.836l1.443-1.834a.964.964 0 0 0-.163-1.355.968.968 0 0 0-1.357.162l-.997 1.266H7.478a.966.966 0 0 0-.967.965v7.633zm1.934-6.666h5.05l-1.538 1.955-1.076-1.074a.968.968 0 0 0-1.367 0 .964.964 0 0 0 0 1.365l1.847 1.844a.968.968 0 0 0 1.444-.087l1.35-1.716v3.414h-5.71v-5.701zm34.044-.432h-20.69a.967.967 0 1 0 0 1.93h20.69a.966.966 0 1 0 0-1.93zM21.799 42.89h6.187a.966.966 0 1 0 0-1.931H21.8a.966.966 0 1 0 0 1.93zM6.51 56.1c0 .534.434.966.968.966h7.643a.966.966 0 0 0 .967-.966v-7.63a.966.966 0 0 0-.967-.966H7.478a.967.967 0 0 0-.967.966v7.63zm1.934-6.666h5.71v5.701h-5.71v-5.701zm35.011.534a.966.966 0 0 0-.967-.965h-20.69a.966.966 0 0 0 0 1.93h20.69a.966.966 0 0 0 .967-.965zm-21.656 3.668a.967.967 0 1 0 0 1.931h17.595a.966.966 0 1 0 0-1.93H21.8z" fill="#C94F49"/></svg>