<svg viewBox="0 0 863.37 274" xmlns="http://www.w3.org/2000/svg"><path d="M361.5 65h-14v79h50v-12h-36zm89.17-1.76c-23 0-37.49 15.71-37.49 40.84s14.45 40.78 37.49 40.78 37.45-15.66 37.45-40.78-14.45-40.84-37.45-40.84zm0 69.58c-14.12 0-23-11.17-23-28.74s8.92-28.8 23-28.8 23.08 11.17 23.08 28.8-9 28.74-23.08 28.74zm102.83-30.48v-.44a17.57 17.57 0 0 0 14.52-17.19c0-12-9.33-19.71-23.79-19.71H510.5v79h34.06c17 0 27.38-8.54 27.38-22.45 0-10.45-7.62-18.17-18.44-19.21zM524.5 76h15.62c8.27 0 13 3.84 13 10.65 0 7.24-5.45 11.35-15.18 11.35H524.5zm16.63 57H524.5v-25h16.07c10.93 0 16.69 4.27 16.69 12.42S551.66 133 541.13 133zm94.37-30.66v-.44a17.57 17.57 0 0 0 14.52-17.19c0-12-9.33-19.71-23.79-19.71H592.5v79h34.06c17 0 27.38-8.54 27.38-22.45 0-10.45-7.62-18.17-18.44-19.21zM606.5 76h15.62c8.27 0 13 3.84 13 10.65 0 7.24-5.45 11.35-15.18 11.35H606.5zm16.63 57H606.5v-25h16.07c10.93 0 16.69 4.27 16.69 12.42S633.66 133 623.13 133zm80.62-34h-.33l-19-34h-15.48l27.56 47.85V144h14v-31.68L737.89 65h-15.21zm128.71 4.8L858.94 64h-15.91l-18.61 30h-.44L805.6 64h-16.75l25.65 39.47v1L788.63 144h15.47l18.93-29h.44l18.72 29h16.35l-26-39.23z" fill="#fff" opacity=".5" data-color="1"/><path d="M360.5 196h-12v-10h-5v25h5v-11h12v11h5v-25h-5zm29 5.64c0 3.3-2.16 5.53-6 5.53s-6-2.23-6-5.53V186h-5v16c0 5.35 4.23 9 11 9s11-3.69 11-9v-16h-5zm24.52 2.36h-.33l-8-18h-5.24v24h4v-17h.3l7.12 16h3.28l7.13-16h1.22v17h4v-24h-5.53zm27.19-18l-9.11 24h4.79l2.16-6h9.24l2.12 6h5.08l-9.12-24zm-1.24 15l3.56-10h.31l3.52 10zm37.53 2h-.36l-12.85-17h-4.79v24h5v-16h.3l12.7 17h4v-25h-4zm31.78 4.7c-4.68 0-7.59-3.6-7.59-9.4s2.91-9.37 7.57-9.37c3.46 0 6.11 2 6.79 5.07h4.84c-.58-5.35-5.39-9.16-11.63-9.16-7.78 0-12.59 5.14-12.59 13.48s4.83 13.47 12.61 13.47c6.34 0 11-3.54 11.62-8.79h-4.83c-.66 2.88-3.32 4.7-6.79 4.7zm22.87-21.7l-9.11 24h4.8l2.16-6h9.23l2.12 6h5.09l-9.13-24zm-1.23 15l3.56-10h.27l3.52 10zm31.83-15H551.5v24h5v-8h6.07c5.65 0 9.61-3.23 9.61-8s-3.82-8-9.43-8zm-2.73 13h-4.55v-9h4.56c3.32 0 5.19 1.58 5.19 4.53s-1.89 4.47-5.17 4.47zm15.45 11h5v-24h-5zm31-24h-21v4h8v21h5v-21h8zm9 0l-9.11 24h4.79l2.16-6h9.24l2.12 6h5.08l-9.12-24zm-1.24 15l3.56-10h.31l3.52 10zm25.24-15h-5v24h17v-4h-12zm38.28 0H666.5v24h5v-8h6.07c5.65 0 9.61-3.23 9.61-8s-3.82-8-9.43-8zm-2.73 13h-4.55v-9h4.56c3.32 0 5.19 1.58 5.19 4.53s-1.89 4.47-5.17 4.47zm20.45-13h-5v24h17v-4h-12zm24.32 0l-9.04 24h4.79l2.16-6h9.24l2.12 6h5.08l-9.12-24zm-1.24 15l3.56-10h.31l3.52 10zm15.92-11h8v21h5v-21h8v-4h-21zm25 20h5v-9h11v-4h-11v-7h12v-4h-17zm33.77-24.7c-7.6 0-12.41 4.93-12.41 12.84s4.72 12.85 12.41 12.85 12.36-5 12.36-12.85-4.72-12.84-12.33-12.84zm0 21.81c-4.73 0-7.62-3.51-7.62-9s3-9 7.62-9 7.57 3.48 7.57 9-2.87 9-7.54 9zm36.51-13.61c0-4.61-3.38-7.5-8.77-7.5h-10.43v24h5v-9h5.54l5.49 9h3.93l-5.6-9.66a7 7 0 0 0 4.84-6.84zm-9 4.5h-5.28v-8h5.17c2.91 0 4.68 1.52 4.68 4s-1.63 4-4.57 4zm37.19-12l-8 18h-.33l-8-18h-5.24v24h4v-17h.25l7.12 16h3.28l7.13-16h1.22v17h4v-24z" fill="#fff" opacity=".75" data-color="1"/><path d="M215.67 102.69l-1.79 5.73-48.1-15 1.79-5.73zM58.6 184.6l5.74-1.79 15 48.1-5.74 1.79z" fill="#fcd57c" fill-rule="evenodd"/><path d="M12.5 271.85l-3.23-5.07 68.62-43.52 3.23 5.07z" fill="#fcd57c" fill-rule="evenodd"/><path d="M144.75 204.87l1.69 5.77-72.14 21-1.69-5.77z" fill="#fcd57c" fill-rule="evenodd"/><path d="M71.13 227.65l4.73-3.72L108.92 266l-4.72 3.71zM98.35 137l6 .82-6.82 55.3-6-.82z" fill="#fcd57c" fill-rule="evenodd"/><path d="M95.03 189.76l-1 5.93-36.07-6 1-5.93zM201.75 40.1l4.59-3.89 32.81 35.71-4.59 3.88z" fill="#fcd57c" fill-rule="evenodd"/><path d="M202.88 38.3l-2-5.67 80.31-28.54 2 5.66zm-6.85 97.28l-5.16 3.08-27.75-46.55 5.16-3.08z" fill="#fcd57c" fill-rule="evenodd"/><path d="M168.6 92.28l-1.36-5.86 69.61-16.1 1.36 5.85zm-4.61-4.74l-.63 6L108 90.68l.63-6z" fill="#fcd57c" fill-rule="evenodd"/><path d="M144.55 59l3.69 4.74-38.2 29.83-3.7-4.74z" fill="#fcd57c" fill-rule="evenodd"/><path d="M146.39 58.6l-.87 5.95-48.42-7.12.88-5.95z" fill="#fcd57c" fill-rule="evenodd"/><path d="M101.75 55.19l-5.93-1 8.15-48.9 5.93 1zm89 83.59l6-.32 3 57.11-6 .32z" fill="#fcd57c" fill-rule="evenodd"/><path d="M195.13 200.59l1.83-5.72 43.1 12-1.83 5.72z" fill="#fcd57c" fill-rule="evenodd"/><path d="M190.75 271.24l-6-.72 9-75.15 6 .72zm91.68-2.95l-3 5.18-51.1-30.06 3.05-5.18z" fill="#fcd57c" fill-rule="evenodd"/><path d="M228.18 238.29l3.25 5.06-42.09 27-3.25-5z" fill="#fcd57c" fill-rule="evenodd"/><path d="M232.17 239l-4.73 3.72-34.54-44 4.73-3.72z" fill="#fcd57c" fill-rule="evenodd"/><path d="M233.87 210.17l5.89 1.18-6 30.06-5.9-1.18zM144.43 205l-1.68 5.72-52-15.11 1.68-5.77z" fill="#fcd57c" fill-rule="evenodd"/><path d="M91.85 191.38l5.37 2.69-18 36.07-5.38-2.69zm9.33-49.92l-2-5.69 46.59-14.65 2 5.68z" fill="#fcd57c" fill-rule="evenodd"/><path d="M142.04 126.67l1.94-5.69 50.42 13.08-1.94 5.69z" fill="#fcd57c" fill-rule="evenodd"/><path d="M147.35 207l-5.85-.06 1.15-85.94 5.85.06z" fill="#fcd57c" fill-rule="evenodd"/><path d="M146.39 211.33l-4.44-4.05 31.47-34.58 4.45 4z" fill="#fcd57c" fill-rule="evenodd"/><path d="M176.03 178.72l-5.53-2.37 20.47-44.93 5.52 2.37z" fill="#fcd57c" fill-rule="evenodd"/><path d="M176.31 175.82l-5.33 2.78-28-53.62 5.33-2.78z" fill="#fcd57c" fill-rule="evenodd"/><path d="M170.56 176.82l4.25-4.25 27.06 27-4.25 4.25z" fill="#fcd57c" fill-rule="evenodd"/><path d="M192.95 197.18l1.08 5.92-50.62 9.22-1.08-5.92zm-97.51-1.07l-4.88-3.51 52.73-72 4.88 3.51z" fill="#fcd57c" fill-rule="evenodd"/><path d="M107.41 89.62l4.32-4.18 35.46 36.67-4.32 4.18z" fill="#fcd57c" fill-rule="evenodd"/><path d="M161.03 89.09l5.28 2.87-18 33.07-5.27-2.88zm-54.44-1.97l5.94.88-8.34 50.34-5.95-.88z" fill="#fcd57c" fill-rule="evenodd"/><path d="M110.68 86.13l-.74 6-45.36-4.57-2.74-6z" fill="#fcd57c" fill-rule="evenodd"/><path d="M67.14 85.55l-5.4-4.1 8.79-51.55 5.93 1z" fill="#fcd57c" fill-rule="evenodd"/><path d="M74.44 27.55l-1.9 5.71-63.12-21 1.9-5.71z" fill="#fcd57c" fill-rule="evenodd"/><path d="M74.75 34.19l-4.36-4.14 34.75-27 3.68 4.75z" fill="#fcd57c" fill-rule="evenodd"/><path d="M71.46 33l4.16-4.34L102.12 54l-4.16 4.34z" fill="#fcd57c" fill-rule="evenodd"/><path d="M96.13 55.4l5.7-1.9 10.59 36.07-5.67 1.91z" fill="#fcd57c" fill-rule="evenodd"/><path d="M96.99 51.1l3.6 4.81-34.31 31-3.61-4.81zm69.24 34.82l-5.13 3.14-16.14-26.41 5.13-3.13z" fill="#fcd57c" fill-rule="evenodd"/><path d="M147.41 64.44l-2.43-5.5 57.26-26.84 2.42 5.5z" fill="#fcd57c" fill-rule="evenodd"/><path d="M204.46 34.77l-5 3.38-21.52-31.63 5-3.38z" fill="#fcd57c" fill-rule="evenodd"/><path d="M263.75 37.48l-.31 6-60.94-3.09.31-6z" fill="#fcd57c" fill-rule="evenodd"/><path d="M200.38 34.57l4.74 3.69-38.76 55.17-4.75-3.69zM186.19 274l-1.37-6h99l5.66 6zm-76.69-6v6H.15l7.35-6z" fill="#fcd57c" fill-rule="evenodd"/><path d="M59.36 181.51l5.06 3.25-54.11 84.16-10.31 5z" fill="#fcd57c" fill-rule="evenodd"/><path d="M63.8 185.6l-4.66-3.79 39.07-48.09 4.67 3.79z" fill="#fcd57c" fill-rule="evenodd"/><path d="M103.05 137l-5 3.34L62.46 86.2l5-3.33z" fill="#fcd57c" fill-rule="evenodd"/><path d="M67.84 82.63l-5.38 3.73L0 1h8.25z" fill="#fcd57c" fill-rule="evenodd"/><path d="M6.5 7V1h102.93l-2.18 6zm172.31-1l-1.57-6h112l-4.46 6z" fill="#fcd57c" fill-rule="evenodd"/><path d="M281.68 1.55l7.69-1.2-22.86 40.43-6.51-1.57z" fill="#fcd57c" fill-rule="evenodd"/><path d="M262.12 36.56l4.39 4.22-25.16 32.52-6.13-1.71z" fill="#fcd57c" fill-rule="evenodd"/><path d="M236.46 69.82l4.91 3.46-45.2 64.05-4.91-3.47zM177.13.35l4.21 4.45-33.07 60.12-5.27-2.9z" fill="#fcd57c" fill-rule="evenodd"/><path d="M149.84 60.68l-5 3.39-41.29-60.49 5.78-2.79zm-40.28 213.21l-5.27-2.89 17.77-34.81 5.17 3z" fill="#fcd57c" fill-rule="evenodd"/><path d="M127.13 239.43l-5.07-3.23 21-33.06 5.07 3.22z" fill="#fcd57c" fill-rule="evenodd"/><path d="M143.13 209.42l5-3.33 18 27-5 3.34zm18.04 27.06l5-3.34 24.05 36.07-4.13 4.68zM241.29 206l-5.06 3.24-46.48-71.09 5.07-3.24z" fill="#fcd57c" fill-rule="evenodd"/><path d="M236.23 209.25l4.89-3.5L290 273.89l-8.12-.85z" fill="#fcd57c" fill-rule="evenodd"/></svg>