<svg width="583" height="93" viewBox="0 0 583 93" fill="none" xmlns="http://www.w3.org/2000/svg"><path d="M16.152 1.53H0v90.11h56.957v-13.6H16.152V1.53zM117.314 0C90.961 0 74.639 17.852 74.639 46.586 74.639 75.148 91.131 93 117.314 93c26.183 0 42.675-17.852 42.675-46.416C159.989 18.023 143.497 0 117.314 0zm0 79.4c-16.152 0-26.353-12.752-26.353-32.815 0-20.062 10.201-32.813 26.353-32.813 15.982 0 26.353 12.751 26.353 32.814 0 20.062-10.201 32.813-26.353 32.813zm116.804-35.365v-.51c9.181-1.53 16.492-9.861 16.492-19.552 0-13.602-10.541-22.443-26.863-22.443h-38.085v90.11h38.425c19.212 0 30.944-9.69 30.944-25.502 0-12.072-8.671-20.913-20.913-22.103zm-32.474-29.923h18.022c9.522 0 14.962 4.42 14.962 12.241 0 8.331-6.291 13.092-17.512 13.092h-15.472V14.112zm18.702 64.948h-18.702V50.835h18.022c12.242 0 18.703 4.76 18.703 13.942.17 9.35-6.121 14.281-18.023 14.281zm107.453-35.025v-.51c9.181-1.53 16.492-9.861 16.492-19.552 0-13.602-10.541-22.443-26.863-22.443h-38.084v90.11h38.424c19.212 0 30.944-9.69 30.944-25.502 0-12.072-8.671-20.913-20.913-22.103zm-32.474-29.923h18.023c9.521 0 14.961 4.42 14.961 12.241 0 8.331-6.29 13.092-17.512 13.092h-15.472V14.112zm18.703 64.948h-18.703V50.835h18.023c12.241 0 18.702 4.76 18.702 13.942.17 9.35-6.121 14.281-18.022 14.281zm91.301-38.255h-.34L383.226 1.7h-17.682l31.624 54.577V91.81h15.982V56.277L444.773 1.7h-17.512l-21.932 39.105zm147.577 5.61L583 1.53h-18.022l-21.083 33.834h-.51L522.473 1.53H503.43l29.074 44.545v.51L503.09 91.642h17.512l21.423-33.154h.51l21.253 33.154h18.532l-29.414-44.715v-.51z" fill="#fff"/></svg>