<svg id="Шар_1" xmlns="http://www.w3.org/2000/svg" viewBox="0 0 512 512"><style>.st0{fill:#50c4ed}</style><path class="st0" d="M187 390c0-113 .1-126.9 0-127-.2-.1-3.3 0-42.5 0-8.1 0-15.1-6.2-15.4-14.3-.4-8.6 6.5-15.7 15-15.7h43c.1-.1 0-12.8 0-111 0-8.3 6.7-15 15-15h169c-39.6-41.2-94.9-66-155-66C96.9 41 0 137.4 0 256s96.9 215 216 215c60.1 0 115.4-24.8 155-66H202c-8.3 0-15-6.7-15-15zm-59-221h23.5c8.1 0 15.1 6.2 15.4 14.3.4 8.6-6.5 15.7-15 15.7h-23.5c-8.1 0-15.1-6.2-15.4-14.3-.4-8.6 6.5-15.7 15-15.7zm16 158H96.5c-8.1 0-15.1-6.2-15.4-14.3-.4-8.6 6.5-15.7 15-15.7h47.5c8.1 0 15.1 6.2 15.4 14.3.4 8.6-6.5 15.7-15 15.7z"/><path class="st0" d="M491.8 137H236.2l129.7 100 125.9-100z"/><path class="st0" d="M375.3 267.7c-5.4 4.3-13 4.4-18.5.1L217 160.1V360c0 8.3 6.7 15 15 15h265c8.3 0 15-6.7 15-15V159.2L375.3 267.7z"/></svg>