<svg width="46" height="35" viewBox="0 0 46 35" fill="none" xmlns="http://www.w3.org/2000/svg"><path d="M41.91 0H4.038A4.045 4.045 0 0 0 0 4.038v26.924A4.045 4.045 0 0 0 4.038 35H41.91a4.045 4.045 0 0 0 4.039-4.038V4.038A4.045 4.045 0 0 0 41.91 0zm-.557 2.692L23.06 20.985 4.61 2.692h36.743zM2.693 30.404V4.584l12.965 12.854L2.692 30.404zm1.903 1.904L17.57 19.334l4.546 4.507c.527.521 1.376.52 1.9-.005l4.433-4.432 12.904 12.904H4.596zm38.66-1.904L30.352 17.5 43.257 4.596v25.808z" fill="#fff"/></svg>