<svg width="913" height="861" viewBox="0 0 913 861" fill="none" xmlns="http://www.w3.org/2000/svg"><path d="M234.496 539.069l5.664-17.937 151.367 47.204-5.664 17.937-151.367-47.204zm494.382-258.048l-17.937 5.664-47.204-151.367 17.937-5.664 47.204 151.367z" fill="#1E1D1D"/><path d="M873.952 6.609l10.07 16.049-215.879 136.891-10.07-16.049L873.952 6.609z" fill="#1E1D1D"/><path d="M457.613 217.453l-5.35-18.252 226.894-66.086 5.35 18.252-226.894 66.086z" fill="#1E1D1D"/><path d="M689.542 145.703l-14.791 11.644L570.588 24.861l14.791-11.644 104.163 132.486zm-85.911 285.112l-18.882-2.518 21.399-174.025 18.882 2.518-21.399 174.025z" fill="#1E1D1D"/><path d="M614.33 264.972l3.147-18.567 113.604 18.881-3.147 18.567-113.604-18.881zm-335.777 470.78l-14.476 12.273L160.858 635.68l14.476-12.273 103.219 112.345z" fill="#1E1D1D"/><path d="M274.776 741.417l6.294 17.937-252.698 89.688-6.294-17.938 252.698-89.687zm21.714-305.882l16.364-9.755 87.17 146.332-16.364 9.755-87.17-146.332z" fill="#1E1D1D"/><path d="M382.717 571.797l4.405 18.567-219.026 50.666-4.406-18.567 219.027-50.666zm14.475 14.791l1.888-18.882 174.34 9.126-1.888 18.882-174.34-9.126z" fill="#1E1D1D"/><path d="M458.557 676.275l-11.643-14.79 120.212-93.779 11.644 14.791-120.213 93.778z" fill="#1E1D1D"/><path d="M452.578 677.534l2.832-18.567 152.312 22.343-2.833 18.567-152.311-22.343z" fill="#1E1D1D"/><path d="M592.931 688.234l18.567 3.146-25.805 153.885-18.567-3.147 25.805-153.884zM313.169 425.465l-18.881.944-9.441-179.69 18.881-.944 9.441 179.69z" fill="#1E1D1D"/><path d="M299.323 230.67l-5.665 17.938-135.632-37.764 5.664-17.937 135.633 37.763z" fill="#1E1D1D"/><path d="M313.169 8.497l18.882 2.203-28.323 236.334-18.881-2.203L313.169 8.497zM24.595 17.623L34.036 1.26l160.808 94.723-9.44 16.364L24.595 17.623z" fill="#1E1D1D"/><path d="M195.159 112.031l-10.384-16.05L317.26 10.7l10.385 16.05-132.486 85.281z" fill="#1E1D1D"/><path d="M182.572 110.143l14.79-11.644 108.569 138.465-14.79 11.644-108.569-138.465z" fill="#1E1D1D"/><path d="M177.222 200.774l-18.567-3.776 18.882-94.723 18.566 3.777-18.881 94.722zm281.65 16.364l5.35-18.252 163.64 47.519-5.35 18.252-163.64-47.519z" fill="#1E1D1D"/><path d="M624.4 259.936l-16.993-8.496 56.645-113.604 16.993 8.496L624.4 259.936zm-29.581 157.032l6.294 17.938-146.647 46.26-6.293-17.938 146.646-46.26z" fill="#1E1D1D"/><path d="M466.424 463.543l-5.979 17.937-158.605-41.224 5.979-17.938 158.605 41.225z" fill="#1E1D1D"/><path d="M449.431 211.159l18.881.315-3.776 271.58-18.881-.315 3.776-271.58z" fill="#1E1D1D"/><path d="M452.578 196.998l13.847 12.588-99.129 108.883-13.846-12.587 99.128-108.884z" fill="#1E1D1D"/><path d="M359.429 299.588l17.308 7.553-64.512 141.297-17.308-7.553 64.512-141.297z" fill="#1E1D1D"/><path d="M358.485 308.714l16.678-8.811 88.114 168.675-16.678 8.811-88.114-168.675z" fill="#1E1D1D"/><path d="M376.422 305.567l-13.531 13.532-85.282-85.282 13.532-13.532 85.281 85.282z" fill="#1E1D1D"/><path d="M305.931 241.684l-3.461-18.566 159.234-28.952 3.462 18.567-159.235 28.951zm307.141 3.147l15.419 11.015-165.843 226.578-15.42-11.014 165.844-226.579z" fill="#1E1D1D"/><path d="M575.308 579.979l-13.531 13.217-111.716-115.492 13.532-13.217 111.715 115.492z" fill="#1E1D1D"/><path d="M406.633 581.867l-16.679-9.126 56.645-104.163 16.678 9.126-56.644 104.163zm171.193 5.979l-18.567-2.832 26.119-158.29 18.567 2.832-26.119 158.29z" fill="#1E1D1D"/><path d="M564.924 590.993l2.202-18.881 142.871 14.476 8.497 18.881-153.57-14.476z" fill="#1E1D1D"/><path d="M702.13 592.882l16.993 12.902-27.693 162.067-18.567-3.147 29.267-171.822z" fill="#1E1D1D"/><path d="M679.157 775.403l5.979-17.937 198.571 66.085-5.979 17.938-198.571-66.086z" fill="#1E1D1D"/><path d="M678.213 754.319l13.846 12.903-109.198 84.967-11.644-14.791 106.996-83.079z" fill="#1E1D1D"/><path d="M688.283 758.095l-13.217 13.532-83.394-79.932 13.218-13.532 83.393 79.932z" fill="#1E1D1D"/><path d="M610.869 687.604l-17.938 5.979-33.357-113.604L577.511 574l33.358 113.604z" fill="#1E1D1D"/><path d="M608.037 701.136l-11.329-15.105 107.939-97.555 11.329 15.105-107.939 97.555zM390.269 591.623l16.049-9.756 50.666 83.079-16.049 9.756-50.666-83.079z" fill="#1E1D1D"/><path d="M449.431 659.282l7.553 17.308-180.319 84.338-7.553-17.308 180.319-84.338z" fill="#1E1D1D"/><path d="M269.742 752.746l15.734-10.7 67.659 99.443-15.735 10.7-67.658-99.443z" fill="#1E1D1D"/><path d="M83.443 744.249l.945-18.882 191.647 9.756-.944 18.881-191.648-9.755z" fill="#1E1D1D"/><path d="M282.644 753.375l-14.79-11.644 122.1-173.71 14.791 11.644-122.101 173.71zM327.645.315l4.406 18.881H19.876L1.938.315h325.707zm240.74 18.881V.315h344.904l-23.288 18.881H568.385z" fill="#1E1D1D"/><path d="M726.361 290.777l-16.049-10.385L880.875 15.735 913.289 0 726.361 290.777z" fill="#1E1D1D"/><path d="M712.514 277.874l14.791 11.958L604.26 441.2l-14.79-11.959 123.044-151.367z" fill="#1E1D1D"/><path d="M589.155 431.13l15.735-10.385 111.716 170.248-15.735 10.385L589.155 431.13zm110.772 171.507l16.993-11.644 196.683 268.748h-26.119L699.927 602.637z" fill="#1E1D1D"/><path d="M894.092 840.545v18.882H569.644l6.923-18.882h317.525zm-543.16 1.573L355.968 861H2.882l14.161-18.882h333.889z" fill="#1E1D1D"/><path d="M26.799 857.224L2.567 861l72.065-127.136 20.455 5.035-68.288 118.325z" fill="#1E1D1D"/><path d="M88.479 747.081l-13.847-13.217 79.303-102.275 19.196 5.35-84.652 110.142z" fill="#1E1D1D"/><path d="M169.04 642.288l-15.42-11.014 142.241-201.403 15.42 11.014L169.04 642.288zM355.967 861l-13.217-14.161 103.849-189.131 16.678 9.126L355.967 861z" fill="#1E1D1D"/><path d="M441.878 671.24l15.735-10.699L587.581 850.93l-18.252 8.811L441.878 671.24zM568.385.315l16.679 9.126-56.016 109.513-16.364-9.756L568.385.315z" fill="#1E1D1D"/><path d="M513.314 108.569l16.049 10.071-66.085 104.163-16.05-10.07 66.086-104.164z" fill="#1E1D1D"/><path d="M462.963 202.977l-15.735 10.385-56.644-85.282 15.734-10.385 56.645 85.282z" fill="#1E1D1D"/><path d="M406.004 118.01l-15.735 10.385-75.526-113.604L327.645 0l78.359 118.01zm-252.069 95.667l16.049-10.07 146.332 223.746-16.049 10.07-146.332-223.746z" fill="#1E1D1D"/><path d="M169.984 203.607l-15.42 11.014L.679.315l25.49 2.517 143.815 200.775z" fill="#1E1D1D"/></svg>