<svg xmlns="http://www.w3.org/2000/svg" viewBox="0 0 60 68" enable-background="new 0 0 60 68"><filter height="138.5%" width="143.5%" x="-21.7%" y="-15.4%" filterUnits="objectBoundingBox" id="a"><feGaussianBlur in="SourceGraphic" stdDeviation="3"/><feOffset dy="2"/><feComponentTransfer><feFuncA type="linear" slope=".3"/></feComponentTransfer></filter><path fill="#F33F33" d="M23.5 51.5c0 .3-.2.5-.5.5s-.5-.2-.5-.5c-.1-3.2-1.8-5.2-4.8-6.1C7.5 43 0 33.9 0 23 0 10.3 10.3 0 23 0s23 10.3 23 23c0 10.9-7.5 20-17.7 22.4-3 .9-4.6 3-4.8 6.1z" filter="url(#a)" transform="translate(7 5)"/><path fill="#F33F33" d="M30.5 56.5c0 .3-.2.5-.5.5s-.5-.2-.5-.5c-.1-3.2-1.8-5.2-4.8-6.1C14.5 48 7 38.9 7 28 7 15.3 17.3 5 30 5s23 10.3 23 23c0 10.9-7.5 20-17.7 22.4-3 .9-4.6 3-4.8 6.1z"/><path fill="#FFF" d="M30 68c-2.2 0-4-1.8-4-4s1.8-4 4-4 4 1.8 4 4-1.8 4-4 4z"/><path fill="#F33F33" d="M30 66c1.1 0 2-.8 2-2s-.8-2-2-2h-.1c-1.1 0-2 .9-2 2 .2 1.1 1 2 2.1 2z"/><g fill="#FFF"><path d="M31.5 32.5c.3.5.5 1.1.4 1.6l6.4 6.4 3.6-3.6-6.4-6.4c-.6.1-1.1-.1-1.6-.4l-2.4 2.4zm-7.8-11.1l.2-.3-.9-1.2-3.3-2-.5.5 2.1 3.2 1.2 1 .2-.2 4.1 4 1-1z"/><path d="M35 26.9c1.7.5 3.6 0 4.9-1.3 1.3-1.3 1.7-3.2 1.3-4.8l-2.8 2.8-2.8-.7-.7-2.8 2.8-2.8c-1.7-.5-3.5 0-4.8 1.3-1.4 1.4-1.8 3.4-1.2 5.1L19.9 35.3c-.5.5-.7 1.1-.7 1.7 0 .6.2 1.2.7 1.7.9.9 2.4.9 3.3 0L35 26.9zM20.3 37.2c0-.5.4-.9.9-.9s.9.4.9.9-.4.9-.9.9-.9-.4-.9-.9z"/></g></svg>