<svg width="733" height="459" viewBox="0 0 733 459" fill="none" xmlns="http://www.w3.org/2000/svg"><path fill-rule="evenodd" clip-rule="evenodd" d="M-119.943 397.708h-52.05v-75.967h52.05v75.967zm-414.141 0h20.367v-2.234h-2.263v-4.469h-2.263v-13.406h-4.526v-44.686l4.526-4.469h-4.526v-4.468h4.526v-2.235h-4.526v-4.468h-2.263v-6.703h-2.263v6.703h-2.263v4.468h-4.526v2.235h4.526v4.468h-4.526l4.526 4.469v44.686h-4.526v13.406h-2.264v4.469h-2.263v2.234h4.527zm-27.157-24.577v-11.172h-4.526v-8.937h-4.527v-8.937h-4.526v-8.938h-4.526v-8.937h-4.526v-8.937h-6.789v-4.469h2.263v-2.234h-2.263v-2.234h-2.263v2.234h-2.263v2.234h2.263v4.469h-6.79v8.937h-4.526v8.937h-4.526v8.938h-4.526v8.937h-4.526v8.937h-4.526v35.749h61.103v-24.577zm-1028.179-80.673l-12.25-35.512h32.09l5.91 33.309-25.75 2.203zm50.38-35.512l4.96 30.776-26.32 2.252-5.86-33.028h27.22zm30.5 0l5.03 28.159-27.3 2.337-4.92-30.496h27.19zm30.5 0l3.86 25.65-26.05 2.23-4.98-27.88h27.17zm28.37 0l1.82 20.643-13.45 3.935h-.36l-9.25.791-3.82-25.369h25.06zm23.94 0v14.175l-18.91 5.53-1.74-19.705h20.65zm4.52 0h19.95l-1.72 19.479-18.23-6.039v-13.44zm23.23 0h25.07l-3.84 25.487-10.84-.909-12.2-4.042 1.81-20.536zm55.55 0l-4.99 27.947-26.06-2.185 3.88-25.762h27.17zm30.52 0l-4.93 30.512-27.31-2.29 5.04-28.222h27.2zm30.53 0l-5.86 32.994-26.33-2.209 4.97-30.785h27.22zm35.06 0l-.2 1.084.15.074-11.83 34.272-25.76-2.161 5.9-33.269h31.74zm147.05 149.699h33.36v4.469h4.53v17.875h9.05v-17.875h4.53v-4.469h24.89v4.469h4.53v17.875h9.05v-17.875h4.53v-4.469h32.992l-4.062 22.344h-123.98v-21.515c.21-.266.41-.538.58-.829zm146.518-150.624v9.758l-89.578 131.929h-18.08l107.658-141.687zm7.504 74.428l12.227 67.259h-24.454l12.227-67.259zm6.074-43.465l64.812 110.724h-18.19l-46.622-102.095v-8.629zm0-17.271l86.909 127.995h-18.175l-68.734-117.418v-10.577zm0-15.553l109.075 143.548h-18.077l-90.998-134.016v-9.532zm110.89 156.954h4.526v-4.469h29.42v22.344h-120.193l-4.061-22.344h33.732v4.469h4.526v17.875h9.052v-17.875h4.526v-4.469h24.894v4.469h4.526v17.875h9.052v-17.875zm-107.767-100.506l39.773 87.1h-23.938l-15.835-87.1zm-23.049 96.037h27.704l4.062 22.344h-35.829l4.063-22.344zm4.822-96.437l-15.905 87.5h-24.051l39.956-87.5zm-65.792 87.5h-18.18l85.498-125.91v10.908l-67.318 115.002zm67.318-108.306v9.31l-45.205 98.996h-18.193l63.398-108.306zM1312.13 397.23c.07.163.15.322.23.478h-.53c.1-.159.2-.315.3-.478zm-1814.531.478h-126.732v-31.28l-7.674-11.172h-23.073l-7.848 11.172-7.848-11.172h-23.072l-7.851 11.172-7.848-11.172h-23.07l-4.87 6.931v-10.83l-1.1-3.26 1.084-4.873c.374-1.575.129-3.677-.679-5.085l-7.794-9.695h-.563v-4.468h2.263v-2.235h-2.263v-2.234h-2.263v2.234h-2.263v2.235h2.263v4.468h-.72l-7.792 9.898c-.81 1.408-1.052 3.345-.678 4.92l1.104 4.945-.967 3.15v36.708a9.201 9.201 0 0 0-6.504 3.369 9.27 9.27 0 0 0-.921-.326c-3.912-1.148-7.986.418-10.154 3.588a9.158 9.158 0 0 0-2.761-1.354c-4.221-1.24-8.629.68-10.63 4.366h-32.232l-118.042-155.35-.448.333-1.947-2.864-6.458 10.477v.134l-111.898 147.27h-34.37a9.04 9.04 0 0 0-5.43-4.366 9.2 9.2 0 0 0-3.27-.342 9.078 9.078 0 0 0-5.84-5.243c-4.08-1.196-8.32.556-10.41 3.99a9.053 9.053 0 0 0-3.46-1.91c-4.49-1.321-9.19.943-10.98 5.103a9.083 9.083 0 0 0-2.31-1.048 9.22 9.22 0 0 0-4.55-.165 9.029 9.029 0 0 0-5.14-3.89c-4.39-1.292-8.99.851-10.86 4.841a9.17 9.17 0 0 0-10.59 1.189 9.074 9.074 0 0 0-5.09-3.796c-3.94-1.157-8.04.438-10.2 3.653l-31.49-18.125h-16.93l-27.34-20.109h-14.29l20.04-58.085 2.78-6.71-.45-.038 12.34-35.784-.01-.003.75-2.158h-179.46v-33.515h-4.52v33.515h-180.16l.71 3.398.38-.207 34.36 99.587h-16.25l-24.61 20.109h-20.5l-21.85 13.967a9.205 9.205 0 0 0-5.32 2.067 9.083 9.083 0 0 0-5.09-3.796c-4.24-1.249-8.68.703-10.66 4.437a9.114 9.114 0 0 0-4.09-2.52 9.185 9.185 0 0 0-6.5.502 9.044 9.044 0 0 0-3.99-2.419c-4.41-1.294-9.01.86-10.87 4.87a9.187 9.187 0 0 0-2.39-1.094 9.287 9.287 0 0 0-1.53-.298v-40.293h-58.84v38.265a9.067 9.067 0 0 0-2.89-1.45 9.173 9.173 0 0 0-3.9-.275v-36.54h-56.58v44.686h-9.05V294.93h-56.58v24.577h-27.15v66.694a9.207 9.207 0 0 0-7.32 2.878 9.115 9.115 0 0 0-4.09-2.525c-4.83-1.416-9.9 1.296-11.34 6.062-.07.23-.12.463-.17.695a9.19 9.19 0 0 0-5.1.002 9.025 9.025 0 0 0-6.32-6.759 9.236 9.236 0 0 0-1.87-.344v-28.72h-43v29.085c-.02-.007-.04-.016-.06-.021-4.65-1.365-9.53 1.111-11.16 5.555a9.09 9.09 0 0 0-3.86-2.272c-4.5-1.323-9.21.949-10.99 5.127a9.246 9.246 0 0 0-3.15-1.642c-4.23-1.24-8.65.686-10.64 4.386h-.88v2.391a8.876 8.876 0 0 0 0 3.736v54.2h3383.29v-60.327h-.76c0-.058.01-.116.01-.176 0-4.927-4.04-8.922-9.03-8.922a9.07 9.07 0 0 0-5.61 1.933 9.03 9.03 0 0 0-8.45-5.776 9.053 9.053 0 0 0-7.18 3.521c-1.4-4.875-5.92-8.45-11.31-8.45-6.5 0-11.77 5.202-11.77 11.616 0 .036.01.07.01.103a8.694 8.694 0 0 0-5.65.282 8.664 8.664 0 0 0-7.97-5.2c-1.74 0-3.35.51-4.7 1.377v-10.417h-20.37v16.078a6.222 6.222 0 0 0-6.6 3.846 6.312 6.312 0 0 0-2.69-.731 6.24 6.24 0 0 0-3.52.916h-.57a6.216 6.216 0 0 0-5.86-4.086c-1.25 0-2.42.368-3.39.998v-12.552h-27.16v-8.937h-29.42v20.513a6.204 6.204 0 0 0-4.54 2.476 6.254 6.254 0 0 0-3.1-.823c-1.88 0-3.56.825-4.7 2.125a6.251 6.251 0 0 0-3.58-2.015c-.82-2.436-3.15-4.192-5.89-4.192-.28 0-.55.023-.82.058V357.49h-45.26v24.578h-9.05v-11.172h-29.42v23.217a6.218 6.218 0 0 0-4.15 2.118 3.937 3.937 0 0 0-6.1 1.303 3.963 3.963 0 0 0-2.85-1.209c-.96 0-1.82.346-2.5.901a6.252 6.252 0 0 0-4.52-1.929c0-2.9-2.04-5.324-4.78-5.97v-51.945h-38.47v26.811h-36.209v33.515h-4.526v-33.515h-33.946v-6.703h-20.367v40.218h-4.527v-64.795h-47.524v61.048a5.241 5.241 0 0 0-4.526-.599v-60.449h-49.788v60.347a6.071 6.071 0 0 0-3.308.663 5.991 5.991 0 0 0-1.999 1.683c-1.636-3.426-5.465-5.454-9.398-4.683-.394.076-.77.187-1.136.312v-38.213h-15.842V210.026h-63.366v-8.938h-11.315v183.308a15.315 15.315 0 0 0-13.413 3.941 8.615 8.615 0 0 0-8.283-2.933 8.54 8.54 0 0 0-5.298 3.391 8.58 8.58 0 0 0-3.306-2.227c7.703-46.385 8.884-200.827-3.646-262.613v-1.068h-.217c-1.555-7.442-3.318-13.477-5.301-17.729-1.794-3.847-7.029-4.475-9.663-1.13-4.951 6.282-10.496 12.684-16.154 18.859h-34.294v34.355c-5.257 4.893-8.573 7.823-8.573 7.823s10.096 102.745-3.833 208.066h-14.751v24.577h-6.789V142.996h-29.42v-19.977l-33.946 8.94v11.037h-31.683v254.712h-11.316V197.853l-72.418-8.937v195.275a14.74 14.74 0 0 0-1.267-.065 15.316 15.316 0 0 0-10.571 4.211 8.616 8.616 0 0 0-8.285-2.933 8.53 8.53 0 0 0-5.296 3.391 8.587 8.587 0 0 0-6.264-2.779v-12.885h-11.315v-29.046h-70.155v-8.938h-29.42v8.938h-13.579v-84.904H205.94V151.933h-18.105v-40.217h-4.526V91.468l-4.526-5.585V71.498h-2.263v-51.39h-4.526v51.39h-2.264v14.385l-4.526 5.585v20.248h-4.526v40.217h-18.104v107.248h-20.368v84.904h-11.315v-8.938h-29.42v8.938H11.316v29.046H-2.263v24.577h-11.315v-75.967h-27.157v-8.937h-58.84v8.937h-9.052v75.967h-74.681v-6.703h-6.79v-20.109l-6.737-8.937h-19.958l-7.251 8.937v26.812h-6.789v-26.812l-6.328-8.937h-19.96l-7.658 8.937v26.812h-237.622z" fill="#F2D580"/></svg>