<svg width="1440" height="864" viewBox="0 0 1440 864" fill="none" xmlns="http://www.w3.org/2000/svg"><path d="M-8.742 863H558m-566.742 0l461.436-107.319M-8.742 863L-11 684.791M558 863l156.545-178.209M558 863L452.694 755.681M558 863h364.5M714.545 684.791l-261.851 70.89m261.851-70.89l-89.622-99.935m89.622 99.935L922.5 863M714.545 684.791l184.698-99.935m-184.698 99.935l247.823 14.276m-509.674 56.614L-11 684.791m463.694 70.89l172.229-170.825M452.694 755.681L290.986 653.284M-11 684.791l2.258-2.156 138.019-131.747M-11 684.791V501.659m140.277 49.229l161.709 102.396M129.277 550.888l495.646 33.968m-495.646-33.968l345.238-117.657M129.277 550.888l109.884-146.21m-109.884 146.21L-11 501.659m635.923 83.197l-333.937 68.428m333.937-68.428L474.515 433.231m150.408 151.625l105.987-105.35m-105.987 105.35h274.32M474.515 433.231l256.395 46.275m-256.395-46.275l115.339-127.503M474.515 433.231l-235.354-28.553m235.354 28.553L269.554 203.824m204.961 229.407V237.792M922.5 863l39.868-163.933M922.5 863H1451m-528.5 0l164.56-92.058M730.91 479.506l168.333 105.35M730.91 479.506l218.989-46.275M730.91 479.506l254.058-223.007M730.91 479.506L589.854 305.728M730.91 479.506v-264.36m168.333 369.71l63.125 114.211m-63.125-114.211l233.797 19.692m-233.797-19.692l50.656-151.625m12.469 265.836l124.692 71.875m-124.692-71.875l170.672-94.519M1451 863l-363.94-92.058M1451 863l-158.98-129.226M1451 863l-10.91-229.407m-353.03 137.349l45.98-166.394m0 0L949.899 433.231m183.141 171.317l307.05 29.045m-307.05-29.045l158.98 129.226m-158.98-129.226l7.79-162.21m-190.931-9.107l198.721-153.103M949.899 433.231l35.069-176.732m163.652 23.629l-163.652-23.629m163.652 23.629l-7.79 162.21m7.79-162.21l-62.34-143.748m62.34 143.748l145.74-135.379m-145.74 135.379l291.47-101.411m-291.47 101.411l291.47 91.566M984.968 256.499L730.91 215.146m254.058 41.353L1086.28 136.38M589.854 305.728l141.056-90.582m-141.056 90.582l-115.339-67.936m256.395-22.646L547 1m183.91 214.146l-256.395 22.646m256.395-22.646L909 1M730.91 215.146l355.37-78.766M239.161 404.678l30.393-200.854m-30.393 200.854L-11 501.659m250.161-96.981L-11 371.694m280.554-167.87l204.961 33.968m-204.961-33.968L-11 1m280.554 202.824l32.732-105.843m-32.732 105.843L-11 371.694m280.554-167.87H-11m485.515 33.968L302.286 97.982m172.229 139.81L547 1m893.09 632.593l-148.07 100.181m148.07-100.181l-299.26-191.255m299.26 191.255V371.694m-299.26 70.644l299.26-70.644M-11 1l313.286 96.981M-11 1h558M-11 1v202.824M302.286 97.981L547 1m0 0h362m0 0l177.28 135.38M909 1h531.09m0 0l-353.81 135.38M1440.09 1v177.717m0-177.717l-145.73 143.749m145.73 33.968l-145.73-33.968m145.73 33.968v192.977M-11 501.659V371.694m0 0v-167.87" stroke="#F2D580" stroke-opacity=".14"/></svg>