<svg width="104" height="100" viewBox="0 0 104 100" fill="none" xmlns="http://www.w3.org/2000/svg"><path fill-rule="evenodd" clip-rule="evenodd" d="M0 1.523c.048-.024 31.336-.024 31.336-.049 0 .025 4.763 7.155 4.74 7.276C51.42-3.046 64.084 3.287 64.084 3.287s8.546 1.209 12.759-1.353c-9.264 16.679-25.519 7.058-30.235 7.082-3.495 0-8.88 4.4-8.88 4.4S57.74 45.08 59.271 46.628C63.198 40.174 86.873.991 86.873.991l17.116.048c.024.024 0 92.435 0 92.435H89.411s-.264-42.374 0-42.374c.191.072-16.47.024-16.47-.024.383-.049-16.398 27.532-16.398 27.532s9.336 16.316 18.552 18.056c-16.014 9.476-26.883-4.302-26.883-4.302l-3.782 6.115c-.12.339-4.86.049-6.368.049.072.531 5.674-8.992 6.703-10.902.12 0-29.97-48.344-29.97-48.49 0 .267 8.617-19.24 8.88-19.24-.143.435-8.283-14.262-8.283-14.262h-1.46s-.12 87.648-.024 87.842H.024C.072 93.449 0 1.619 0 1.523zM89.41 6.84L53.456 66.304s-26.548-41.697-26.62-41.576c-6.248 8.533-5.386 14.117-5.386 14.117h10.34l21.69 34.517 20.204-34.276 15.728.097V6.841z" fill="#fff"/></svg>