<svg width="107" height="145" viewBox="0 0 107 145" fill="none" xmlns="http://www.w3.org/2000/svg"><path d="M57.073 83.902l-.81.677c-.105 2.23.276 4.175.047 5.414-.038.19-.076.371-.114.552a17.897 17.897 0 0 0 2.697-4.308 20.905 20.905 0 0 1-1.82-2.335zm-4.347 9.78c2.507-.925 2.764-3.575 2.764-3.575l-5.413.01c0 2.66 2.65 3.565 2.65 3.565zm8.454-29.567l-.219-12.552c-2.668 5.404-4.289 16.07-4.289 22.875l2.145-2.05c1.048-3.535 3.44-8.234 3.44-8.234l-1.076-.038zm-19.977-1.829c0 .01 0 .01 0 0 1.41 2.268 1.277 3.383 1.277 3.383l4.337-7.33c-1.706-8.758-9.636-16.47-14.068-18.432v17.032c3.031.066 6.691 2.526 8.454 5.347zm7.635-7.168l-.048-39.002h7.835l-.048 39.05.896 1.372c1.744-11.456 7.844-17.87 8.254-30.604.324-9.922-2.478-17.242-10.97-23.314v-.01L52.669 1l-2.01 1.563v.01C42.413 8.51 39.515 16.25 39.42 25.98c-.124 12.8 6.796 19.167 8.54 30.624l.877-1.487zm-16.442 15.25s-4.918 1.41-8.644-2.068c-.83-.963-1.401-2.354-1.401-4.29 0-2.153 1.039-4.86 3.193-6.318l-.039-19.025c-11.294 0-19.138 8.416-19.138 18.682 0 14.344 12.428 19.081 19.234 17.365 2.916-.762 5.518-2.85 6.795-4.346zm23.485-3.203l-1.306-1.658-.047-.057-.963-1.22v.01l-.839-1.05-.829 1.05v-.01l-1.477 1.877-.067.086-.762.972c.352 2.621.286 5.405.352 8.026l2.679 3.374 2.907-3.374c.057-2.63 0-5.404.352-8.026zm-7.568 6.577c.143.229.325.457.563.696 0-1.573-.086-3.355-.258-5.233-.019-.162-.028-.334-.047-.495l-1.325 1.934s.029 1.21 0 1.783l1.067 1.315zm24.524-3.155l-.886-.219.886 1.268v-1.049zm7.206-31.929c-2.87 0-5.576.333-7.482 1.572-2.345 1.535-4.165 4.918-4.194 7.549h-.01v10.322c4.032-2.154 7.626-1.468 7.626-1.468 3.965 0 6.814 4.26 6.814 7.378 0 3.174-1.496 4.899-3.183 5.642l-.057 5.052C86.37 76.41 98.79 71.683 98.79 57.339c0-10.265-7.454-18.681-18.748-18.681zm-27.288 64.459s-3.326-2.087-5.452-4.26c-.267 1.391-.62 3.564-.505 5.223.515 7.167 5.919 11.685 5.919 11.685s5.204-4.289 5.9-11.685c.152-1.659-.239-3.832-.505-5.224-1.468 1.668-5.357 4.261-5.357 4.261zm19.244-18.004c-.048 4.975-5.119 5.642-7.263 4.975h-.02c-1.143 3.136-4.574 6.615-4.574 6.615 1.687 1.248 3.545 1.84 6.1 1.868 3.173-.086 7.262-1.087 8.092-6.453.266-1.715-.277-3.154-.305-3.26-.658-2.306-2.03-3.745-2.03-3.745zm-23.171 4.88c-.229-1.23.153-3.184.048-5.414l-.81-.677c-7.11 10.427-15.203 6.205-14.879 1.21 0 0-2.954 3.622-2.344 7.006 1.048 5.785 4.918 6.376 8.092 6.453h.2c3.155-.039 5.252-.934 7.263-2.85 1.01-.868 2.897-2.964 3.25-3.336-.4-.467-.62-1.335-.82-2.392z" stroke="#fff" stroke-width="1.5" stroke-miterlimit="10"/><path d="M62.458 62.8c2.201-.276 3.212 1.172 3.317 2.497.095 1.192-.506 2.212-1.268 2.984.658 1.153 1.515 3.078 1.944 4.298 2.421-1.372 3.765-3.822 3.765-7.291 0-2.574-1.906-5.128-3.336-5.852V47.693c0-2.878 2.221-8.063 7.044-10.017 1.544-.543 2.716-.734 4.394-.734v-4.537c-6.081.134-10.475 3.146-12.82 6.7-2.04 3.098-3.03 6.796-3.03 11.314V62.8h-.01z" fill="#fff"/><path d="M73.905 77.783l-12.372-.038-.047 2.268-2.193 2.059H78.29l.01-23.4c-.973-1.257-4.394-.819-4.394-.819v19.93zM40.422 63.59c-.887-1.362-1.82-2.22-3.098-3.202-1.392 1.354-2.163 3.441-2.145 5.224-.142 5.09 4.328 7.91 6.758 10.179 1.392 1.296 7.196 6.958 8.273 8.044v5.023h5.023v-5.023c1.296-1.296 3.536-3.355 4.785-4.69-.096-2.268-.524-3.42-1.134-5.08l-6.186 6.139-7.33-7.292c-2.43-2.42-5.776-4.775-5.7-7.234.02-.81.248-1.534.754-2.087z" fill="#fff"/><path d="M52.717 101.449c4.785-2.964 11.78-9.97 12.972-18.109h-4.613c-1.316 6.043-4.566 9.77-8.36 11.971a21.59 21.59 0 0 1-2.496-1.734 42.071 42.071 0 0 1-3.136 3.278c1.878 1.773 4.117 3.794 5.633 4.594zM39.459 79.784c.02 3.48.667 5.967 1.887 8.903 1.754-.6 2.602-1.735 3.756-2.66-.782-2.154-1.001-3.945-1.211-6.538l-4.041-3.603c-.22 1.449-.391 2.364-.391 3.898zm-12.533-4.193v6.462h11.237c-.19-1.382-.238-2.821 0-4.298H31.31l.01-4.318-4.394 2.154zm-.001-6.929c1.878 1.315 4.394.562 4.394.562V37.657c2.85 1.067 7.187 2.85 11.514 9.531-.057-.686-.095-1.84-.276-2.392-.2-.62-.6-1.373-1.163-2.535-.896-1.86-1.392-3.489-3.65-5.548-2.23-2.02-6.034-4.28-10.828-4.308v36.257h.01zM50.21 55.604c-.858 1.477-5.661 8.263-7.644 12.524l3.298 3.25c1.792-3.746 3.803-6.939 6.596-9.97h.524c1.134 1.24 2.22 2.536 3.145 3.994.229-2.02.782-5.118 1.125-6.767-.686-1.153-1.544-2.24-2.02-3.031V17.489H50.21v38.115zm9.741 16.527a28.25 28.25 0 0 1 1.373 4.337h4.346c-.439-2.745-1.64-6.148-3.431-9.541-1.058 1.382-1.85 3.622-2.288 5.204zM.572 125.134l4.575.286h2.316l7.377-.057 5.032-.286-.028 15.497-.143 2.088 2.83-.315-.571 2.173-4.575-.286H14.21l.057-15.955.2-1.001c-1.63.058-4.517.115-6.405.229l-.028 12.267c0 2.459-.172 3.574-.543 4.517h-5.09l.057-14.525c0-.743.029-1.83.086-2.745L0 127.307l.572-2.173zm30.91 4.518l-1.83-4.232h3.059l3.317-.286 6.72 16.984.17.486 1.83-.2-.571 2.173-4.575-.286h-1.773l-5.461-12.609-4.032 8.778 3.717-.343-.286 4.46-5.49-.228h-2.459c1.659-4.404 5.662-10.523 7.663-14.697zm14.982 12.066c2.803-4.518 5.605-8.864 7.034-12.152l-2.058-4.146h3.06l3.316-.286 7.577 16.984.172.486 1.83-.2-.572 2.173-4.575-.286h-1.487l-3.117-6.319c-1.772.057-4.803.057-6.633.172l-1.23 2.602 3.489-.343-.286 4.174-5.261-.228h-1.945l.686-2.631zm10.351-5.433l-2.516-5.089-2.345 4.918 4.861.171zm20.416-11.523c1.973 0 3.66.658 4.46 2.316h.086l.372-2.287h3.746l-2.974 10.293-2.001-.228.343-2.659c0-3.232-1.773-4.947-3.489-4.947-2.287 0-4.203 3.66-4.203 8.464 0 4.632 1.973 6.891 5.004 6.891 2.03 0 4.403-1.001 5.804-3.003l1.659.858c-.458 2.745-4.175 4.403-7.635 4.432-5.232 0-10.722-3.26-10.722-10.036 0-5.319 4.146-10.094 9.55-10.094zm9.665 3.688l.343-3.659h1.544l.743.571 7.177.058h.172l7.491-.058 1.001-.571h1.544l-.515 3.659-.571 4.804h-1.659l-1.658-5.261c-1.087-.172-2.202-.372-3.174-.515l-.029 12.296c0 1.315-.028 2.258-.143 2.973l3.117-.343-.572 2.173-4.575-.286h-3.46l.058-14.525c0-.601.028-1.43.057-2.23-1.001.142-2.088.314-3.146.486l-2.087 5.232h-1.658v-4.804z" fill="#fff"/></svg>