<svg width="25" height="25" viewBox="0 0 25 25" fill="none" xmlns="http://www.w3.org/2000/svg"><path d="M23.795 12.824a.706.706 0 0 1 0-.648l.971-1.907c.541-1.062.113-2.328-.975-2.882l-1.955-.995a.735.735 0 0 1-.397-.524l-.382-2.091c-.213-1.165-1.335-1.947-2.555-1.782l-2.19.298a.784.784 0 0 1-.643-.2L14.08.616a2.33 2.33 0 0 0-3.158 0l-1.59 1.477a.784.784 0 0 1-.642.2l-2.191-.297c-1.22-.166-2.342.616-2.555 1.78l-.382 2.092a.736.736 0 0 1-.397.524l-1.954.995C.12 7.94-.307 9.207.234 10.269l.971 1.907a.706.706 0 0 1 0 .648L.234 14.73c-.541 1.062-.113 2.328.976 2.882l1.954.995a.737.737 0 0 1 .397.524l.382 2.091c.194 1.06 1.141 1.804 2.23 1.804.107 0 .216-.008.325-.022l2.19-.298a.787.787 0 0 1 .643.2l1.59 1.477c.443.41 1.01.616 1.579.616a2.32 2.32 0 0 0 1.579-.616l1.59-1.477a.785.785 0 0 1 .642-.2l2.191.298c1.22.165 2.342-.617 2.555-1.782l.382-2.09a.736.736 0 0 1 .397-.525l1.955-.995c1.088-.554 1.516-1.82.975-2.882l-.971-1.907zm-.709 3.516l-1.954.995a2.174 2.174 0 0 0-1.173 1.548l-.382 2.091a.762.762 0 0 1-.865.603l-2.19-.298a2.317 2.317 0 0 0-1.897.592l-1.59 1.476a.789.789 0 0 1-1.07 0l-1.59-1.476a2.305 2.305 0 0 0-1.897-.591l-2.19.297a.762.762 0 0 1-.865-.603l-.382-2.091a2.173 2.173 0 0 0-1.173-1.548l-1.954-.995a.72.72 0 0 1-.33-.976l.971-1.907c.31-.608.31-1.306 0-1.914l-.971-1.907a.72.72 0 0 1 .33-.975l1.954-.996a2.174 2.174 0 0 0 1.173-1.548l.382-2.091a.762.762 0 0 1 .864-.603l2.191.298a2.318 2.318 0 0 0 1.897-.592l1.59-1.476a.789.789 0 0 1 1.07 0l1.59 1.476a2.32 2.32 0 0 0 1.896.592l2.191-.298a.762.762 0 0 1 .865.603l.382 2.091c.122.667.55 1.231 1.172 1.548l1.955.996a.72.72 0 0 1 .33.975l-.971 1.907a2.087 2.087 0 0 0 0 1.914l.971 1.907a.72.72 0 0 1-.33.976z" fill="#C94F49"/><path d="M17.989 7.232a.774.774 0 0 0-1.063 0L7.01 16.748a.7.7 0 0 0 0 1.02c.147.14.34.21.531.21.193 0 .385-.07.532-.21l9.917-9.516a.7.7 0 0 0 0-1.02zm-8.496-1.22c-1.519 0-2.755 1.186-2.755 2.643 0 1.458 1.236 2.644 2.755 2.644 1.52 0 2.755-1.186 2.755-2.644 0-1.457-1.236-2.643-2.755-2.643zm0 3.845c-.69 0-1.252-.54-1.252-1.202 0-.662.562-1.201 1.252-1.201s1.252.539 1.252 1.201c0 .663-.561 1.202-1.252 1.202zm6.012 3.845c-1.52 0-2.755 1.185-2.755 2.643 0 1.458 1.236 2.644 2.755 2.644s2.755-1.186 2.755-2.644c0-1.457-1.236-2.643-2.755-2.643zm0 3.845c-.69 0-1.252-.54-1.252-1.202 0-.662.561-1.201 1.252-1.201.69 0 1.252.539 1.252 1.201 0 .663-.562 1.202-1.252 1.202z" fill="#C94F49"/></svg>