<svg width="37" height="37" viewBox="0 0 37 37" fill="none" xmlns="http://www.w3.org/2000/svg"><path d="M26.592 37c-1.195 0-2.379-.211-3.537-.632A37.712 37.712 0 0 1 9.361 27.64 37.71 37.71 0 0 1 .63 13.945a10.234 10.234 0 0 1-.521-5.03 10.48 10.48 0 0 1 1.782-4.467 10.518 10.518 0 0 1 3.611-3.216A10.303 10.303 0 0 1 10.436 0c.546 0 1.017.38 1.13.914l1.816 8.469c.082.384-.036.783-.313 1.06l-3.101 3.1a30.434 30.434 0 0 0 13.488 13.49l3.1-3.102a1.157 1.157 0 0 1 1.06-.313l8.47 1.815c.533.114.914.585.914 1.13 0 1.753-.415 3.413-1.233 4.934a10.518 10.518 0 0 1-3.215 3.611 10.475 10.475 0 0 1-4.467 1.782c-.498.073-.997.11-1.493.11zM9.512 2.363c-2.311.255-4.364 1.467-5.726 3.412-1.533 2.187-1.89 4.877-.98 7.38a35.07 35.07 0 0 0 21.039 21.04c2.503.909 5.193.552 7.38-.98 1.945-1.363 3.157-3.416 3.412-5.728l-6.89-1.476-3.238 3.239a1.156 1.156 0 0 1-1.31.229A32.738 32.738 0 0 1 7.522 13.8a1.156 1.156 0 0 1 .23-1.309l3.238-3.238-1.476-6.89zm26.332 17.292a1.156 1.156 0 0 1-1.157-1.156c0-8.925-7.26-16.187-16.186-16.187A1.156 1.156 0 1 1 18.5 0c4.941 0 9.587 1.924 13.08 5.418A18.378 18.378 0 0 1 37 18.5c0 .639-.518 1.156-1.156 1.156z" fill="#fff"/><path d="M31.219 19.655a1.156 1.156 0 0 1-1.156-1.156c0-6.375-5.187-11.562-11.562-11.562a1.156 1.156 0 1 1 0-2.312c7.65 0 13.874 6.224 13.874 13.874 0 .639-.517 1.156-1.156 1.156z" fill="#fff"/><path d="M26.594 19.655a1.156 1.156 0 0 1-1.156-1.156 6.945 6.945 0 0 0-6.937-6.937 1.156 1.156 0 0 1 0-2.312c5.1 0 9.25 4.149 9.25 9.25 0 .638-.518 1.155-1.157 1.155z" fill="#fff"/></svg>