<svg width="49" height="49" viewBox="0 0 49 49" fill="none" xmlns="http://www.w3.org/2000/svg"><path d="M24.5 0C10.99 0 0 10.99 0 24.5S10.99 49 24.5 49 49 38.008 49 24.5 38.01 0 24.5 0zm0 45.205c-11.415 0-20.705-9.288-20.705-20.705 0-11.417 9.29-20.705 20.705-20.705S45.205 13.083 45.205 24.5c0 11.417-9.288 20.705-20.705 20.705z" fill="#fff"/><path d="M33.989 22.431h-7.591v-7.59a1.897 1.897 0 1 0-3.796 0v7.59h-7.59a1.897 1.897 0 1 0 0 3.796h7.59v7.59a1.897 1.897 0 1 0 3.796 0v-7.59h7.59a1.897 1.897 0 1 0 0-3.796z" fill="#fff"/></svg>