<svg id="Шар_1" xmlns="http://www.w3.org/2000/svg" viewBox="0 0 512 512"><style>.st0{fill:#50c4ed}</style><path class="st0" d="M310.9 100.6c-55.5 0-100.6 45-100.6 100.6s45 100.6 100.6 100.6 100.6-45 100.6-100.6c-.1-55.6-45.1-100.6-100.6-100.6zM384 201.1c0-40.4-32.8-73.1-73.1-73.1v-18.3c50.5.1 91.4 41 91.4 91.4H384z"/><path class="st0" d="M256 0C114.6 0 0 114.6 0 256s114.6 256 256 256 256-114.6 256-256C511.8 114.7 397.3.2 256 0zm54.9 320c-28.3 0-55.8-10.2-77.2-28.7L97.9 427 85 414.1l135.7-135.7c-36.2-42.4-38-104.3-4.4-148.8 33.7-44.5 93.8-59.5 144.4-36.1 50.6 23.4 78.2 78.9 66.2 133.3s-60.3 93.3-116 93.2z"/></svg>