<svg width="20" height="20" viewBox="0 0 20 20" fill="none" xmlns="http://www.w3.org/2000/svg"><path d="M8.368 3.186c-.577 0-1.046.475-1.046 1.06 0 .585.469 1.06 1.046 1.06 1.277 0 2.418.722 2.979 1.888.181.376.553.595.94.595.154 0 .31-.035.457-.108.52-.256.736-.89.482-1.416-.913-1.9-2.775-3.079-4.858-3.079z" fill="#fff"/><path d="M19.617 17.74l-3.484-3.532a9.026 9.026 0 0 0 1.644-5.2C17.777 4.04 13.789 0 8.888 0S0 4.04 0 9.007s3.987 9.007 8.888 9.007c2.048 0 3.93-.711 5.434-1.895l3.446 3.493a1.296 1.296 0 0 0 1.85 0c.51-.517.51-1.355 0-1.873zM2.092 9.007c0-3.798 3.05-6.888 6.797-6.888 3.748 0 6.797 3.09 6.797 6.888 0 1.58-.533 3.033-1.42 4.197a6.919 6.919 0 0 1-.988 1.053 6.71 6.71 0 0 1-4.39 1.638c-3.747 0-6.796-3.09-6.796-6.888z" fill="#fff"/></svg>