<svg width="28" height="23" viewBox="0 0 28 23" fill="none" xmlns="http://www.w3.org/2000/svg"><path d="M27.568.63C27.226.224 26.713 0 26.125 0c-.32 0-.659.065-1.007.195L1.417 8.979C.159 9.445-.01 10.144 0 10.519c.011.376.221 1.065 1.504 1.461l.023.007 4.917 1.366 2.658 7.382c.363 1.006 1.177 1.631 2.124 1.631.598 0 1.185-.243 1.7-.703l3.04-2.718 4.412 3.448.001.001.042.033.012.009c.49.369 1.025.564 1.548.564 1.021 0 1.834-.734 2.071-1.87l3.884-18.617c.156-.748.025-1.416-.368-1.883zM8.088 13.093l9.486-4.704-5.907 6.093a.787.787 0 0 0-.199.355l-1.139 4.478-2.24-6.222zm3.726 7.398a1.46 1.46 0 0 1-.118.096l1.057-4.155 1.922 1.503-2.86 2.556zM26.328 2.196l-3.883 18.618c-.038.178-.157.593-.464.593-.152 0-.343-.08-.538-.226l-4.997-3.907a.01.01 0 0 0-.003-.002l-2.974-2.325 8.541-8.811a.779.779 0 0 0 .059-1.024.836.836 0 0 0-1.03-.231L6.993 11.848 2.01 10.464l23.694-8.781c.2-.075.34-.09.422-.09.05 0 .14.006.173.045.043.052.099.228.03.558z" fill="#fff"/></svg>