<svg width="65" height="53" viewBox="0 0 65 53" fill="none" xmlns="http://www.w3.org/2000/svg"><path d="M15.167 38.21c-3.585 0-6.5 3.316-6.5 7.395 0 4.078 2.915 7.395 6.5 7.395s6.5-3.317 6.5-7.395c0-4.079-2.916-7.395-6.5-7.395zm0 12.325c-2.39 0-4.333-2.211-4.333-4.93 0-2.72 1.943-4.93 4.333-4.93s4.333 2.21 4.333 4.93c0 2.719-1.944 4.93-4.333 4.93zM52 38.21c-3.585 0-6.5 3.316-6.5 7.395C45.5 49.683 48.415 53 52 53s6.5-3.317 6.5-7.395c0-4.079-2.915-7.395-6.5-7.395zm0 12.325c-2.39 0-4.333-2.211-4.333-4.93 0-2.72 1.943-4.93 4.333-4.93s4.333 2.21 4.333 4.93c0 2.719-1.943 4.93-4.333 4.93z" fill="#C94F49"/><path d="M64.828 31.38l-9.75-17.256c-.2-.352-.543-.565-.911-.565H42.25c-.6 0-1.083.552-1.083 1.232v30.814c0 .681.484 1.232 1.083 1.232h4.333v-2.465h-3.25V16.024h10.242l9.258 16.385v11.963h-5.416v2.465h6.5c.599 0 1.083-.55 1.083-1.232V32.047c0-.236-.06-.469-.172-.667z" fill="#C94F49"/><path d="M47.667 29.58v-8.627h8.666v-2.465h-9.75c-.599 0-1.083.552-1.083 1.232v11.093c0 .682.484 1.233 1.083 1.233h16.25V29.58H47.667zM42.25 4.93H1.083C.485 4.93 0 5.484 0 6.164v39.442c0 .681.485 1.232 1.083 1.232H9.75v-2.465H2.167V7.396h39v36.976H20.583v2.465H42.25c.6 0 1.083-.55 1.083-1.233V6.165c0-.681-.484-1.233-1.083-1.233z" fill="#C94F49"/><path d="M7.583 39.441h-6.5v2.465h6.5v-2.465zm33.584 0H22.75v2.465h18.417v-2.465zm22.749 0h-4.333v2.465h4.334v-2.465zM42.25 9.86H4.333v2.466H42.25V9.861zm-26 34.512h-2.167v2.465h2.167v-2.465zm36.834 0h-2.167v2.465h2.166v-2.465zM19.5 0H4.333v2.465H19.5V0zM2.167 0H0v2.465h2.167V0z" fill="#C94F49"/></svg>