<svg width="15" height="13" viewBox="0 0 15 13" fill="none" xmlns="http://www.w3.org/2000/svg"><path d="M5.273 7.83a1.312 1.312 0 0 1-.41-.24l-.786.454c.31.349.722.604 1.196.7V7.83zm2.639-1.238a2.17 2.17 0 0 0-.122-.69l-.781.45c.014.078.024.158.024.24 0 .082-.01.161-.024.24l.781.45a2.17 2.17 0 0 0 .122-.69zM7.35 5.14a2.189 2.189 0 0 0-1.198-.701v.915c.153.055.29.136.412.24l.785-.454zm-2.077-.701a2.189 2.189 0 0 0-1.196.7l.785.454a1.32 1.32 0 0 1 .411-.239V4.44zM6.564 7.59c-.121.103-.26.185-.412.24v.914a2.189 2.189 0 0 0 1.197-.7l-.785-.454zM3.638 5.901a2.171 2.171 0 0 0-.122.69c0 .244.049.473.122.691l.78-.45a1.312 1.312 0 0 1-.023-.24c0-.082.01-.162.024-.24l-.781-.45zm2.075 1.13a.44.44 0 1 0 0-.88.44.44 0 0 0 0 .88zM14.121 0a.879.879 0 0 0-.879.879v5.273a.879.879 0 1 0 1.758 0V.88a.879.879 0 0 0-.879-.88z" fill="#fff"/><path d="M5.713 12.305a5.72 5.72 0 0 0 5.696-5.274h-1.3a2.69 2.69 0 0 1-1.328-.358c-.047 1.74-1.488 2.995-3.068 2.995-1.733 0-3.076-1.455-3.076-3.076 0-1.595 1.305-3.076 3.076-3.076 1.138 0 2.15.648 2.664 1.538.001.002 0 .005.002.007h.001c.393.686 1.038 1.091 1.73 1.091h2.253V.88h-6.65A5.72 5.72 0 0 0 0 6.592a5.72 5.72 0 0 0 5.713 5.713zm5.273-10.108a.44.44 0 1 1 0 .88.44.44 0 0 1 0-.88zm0 1.758a.44.44 0 1 1 0 .879.44.44 0 0 1 0-.879z" fill="#fff"/></svg>