<svg width="65" height="65" viewBox="0 0 65 65" fill="none" xmlns="http://www.w3.org/2000/svg"><path d="M60.512 31.528c-1.769-12.54-11.486-22.553-23.877-24.77-.294-2.615-2.492-4.661-5.183-4.661-2.69 0-4.888 2.045-5.184 4.658a28.975 28.975 0 0 0-3.204.778V0H0v16.774h2.097v18.871C2.097 51.831 15.266 65 31.452 65c14.04 0 25.804-9.91 28.677-23.102 2.715-.194 4.871-2.44 4.871-5.205 0-2.632-1.957-4.796-4.488-5.165zM31.452 4.194c1.42 0 2.61.953 2.999 2.248-.986-.1-1.987-.152-3-.152-1.008 0-2.01.068-3.004.17.384-1.305 1.578-2.266 3.005-2.266zm-8.388 11.061c1.898-.376 4.001-.578 6.29-.578 8.761 0 17.823 5.883 17.823 15.726a15.67 15.67 0 0 1-4.605 11.108 12.488 12.488 0 0 0 1.46-5.866c0-6.937-5.643-12.58-12.58-12.58-4.373 0-8.23 2.245-10.484 5.64v-11.93h2.096v-1.52zM32.5 27.258v-2.043a10.433 10.433 0 0 1 5.582 2.318l-4.514 4.513a4.193 4.193 0 0 0-1.068-.445v-2.246h-2.097V31.6c-.38.099-.738.25-1.068.446l-4.513-4.513a10.433 10.433 0 0 1 5.581-2.318v2.043H32.5zm-4.648 6.27a4.193 4.193 0 0 0-.445 1.069H21.02a10.426 10.426 0 0 1 2.318-5.582l4.514 4.514zm-.445 3.166c.099.38.25.738.445 1.068l-4.513 4.513a10.434 10.434 0 0 1-2.318-5.581h6.386zm1.928 2.55a4.21 4.21 0 0 0 1.068.446v6.386a10.434 10.434 0 0 1-5.581-2.318l4.513-4.514zm.02-3.599a2.1 2.1 0 0 1 2.097-2.097 2.098 2.098 0 0 1 0 4.194 2.099 2.099 0 0 1-2.097-2.097zM32.5 39.69c.38-.099.738-.25 1.068-.446l4.514 4.514a10.438 10.438 0 0 1-5.56 2.316c-.007.002-.015.002-.022.002V39.69zm2.55-1.928c.196-.331.347-.688.446-1.069h6.386a10.426 10.426 0 0 1-2.318 5.582l-4.513-4.513zm.446-3.165a4.103 4.103 0 0 0-.445-1.069l4.513-4.513a10.434 10.434 0 0 1 2.318 5.582h-6.386zM2.096 6.29h14.678V4.194H2.097V2.097h18.87v2.097h-2.096V6.29h2.097v8.387H2.097V6.29zm29.356 56.613c-15.03 0-27.258-12.228-27.258-27.258v-18.87H18.87v18.87c0 6.937 5.643 12.58 12.58 12.58.435 0 .862-.021 1.285-.064 9.228-.663 16.538-8.364 16.538-17.758 0-11.156-10.128-17.822-19.92-17.822-2.264 0-4.366.186-6.29.537V9.724a27.217 27.217 0 0 1 8.388-1.337c15.03 0 27.258 12.229 27.258 27.258 0 15.03-12.229 27.258-27.258 27.258zm29.063-23.167c.188-1.338.291-2.702.291-4.09 0-.649-.028-1.29-.07-1.927a3.139 3.139 0 0 1 2.167 2.974 3.143 3.143 0 0 1-2.388 3.043z" fill="#C94F49"/><path d="M8.387 18.87H6.29v2.097h2.097v-2.096zm6.29 13.63h-2.096v2.097h2.096V32.5zm5.243 18.87h-2.098v2.097h2.097v-2.096zm18.87-2.096h-2.096v2.097h2.096v-2.097zm-7.338 8.388h-2.097v2.096h2.097v-2.096zm22.016-16.775H51.37v2.097h2.097v-2.097z" fill="#C94F49"/></svg>