<svg width="671" height="851" viewBox="0 0 671 851" fill="none" xmlns="http://www.w3.org/2000/svg"><path d="M517.929 772.499c117.032-82.771 167.526-232.47 125.75-368.694 24.791-16.501 34.012-49.235 20.093-76.327-13.914-27.081-45.861-38.605-73.679-28.046-7.542-9.902-15.778-19.234-24.398-28.222l75.796-39.025L522.197 0 353.41 86.904l10.845 21.108-189.886 97.766C11.5 289.635-52.897 490.427 30.82 653.368c72.623 141.348 233.185 208.418 380.788 169.002 15.99 26.319 49.751 36.388 77.559 22.071 26.489-13.639 38.139-44.553 28.762-71.942zm124.745-434.158c7.347 14.301 3.912 31.217-7.115 41.845a334.51 334.51 0 0 0-13.984-30.982c-5.216-10.152-11.08-19.878-17.239-29.373 15.108-2.894 30.958 4.147 38.338 18.51zm-154.685-27.123c13.602 17.153 26.505 37.281 38.348 60.331 45.31 88.188 32.99 209.891-66.057 260.887-43.599 22.449-92.237 25.07-135.589 11.184 22.442.269 45.256-4.711 66.576-15.688 69.804-35.94 97.401-121.989 61.521-191.824-22.617-44.02-65.157-71.203-110.99-76.311l120.061-61.816 10.845 21.108 15.285-7.871zm-71.975 157.17l20.56-10.586c8.779 22.278 10.305 45.969 5.545 68.198l-68.758-22.052a47.495 47.495 0 0 0-1.042-13.063l22.596-11.634-10.845-21.108-22.596 11.635a46.368 46.368 0 0 0-10.009-8.446l22.071-68.817c20.832 9.052 39.195 24.074 52.193 44.179l-20.56 10.586 10.845 21.108zm-87.133-14.299a47.4 47.4 0 0 0-13.054 1.049l-33.028-64.284c22.267-8.795 45.936-10.345 68.153-5.582l-22.071 68.817zm-34.152 11.912a46.5 46.5 0 0 0-8.445 10.02l-68.758-22.052c9.056-20.851 24.076-39.234 44.175-52.252l33.028 64.284zm-15.695 32.623a47.53 47.53 0 0 0 1.042 13.063l-64.255 33.083c-8.778-22.278-10.305-45.968-5.544-68.197l68.757 22.051zm36.319-18.446c11.636-5.99 25.962-1.396 31.943 10.245 5.981 11.641 1.382 25.98-10.253 31.971-11.636 5.991-25.963 1.396-31.944-10.245-5.981-11.641-1.382-25.98 10.254-31.971zm-24.432 52.617a46.448 46.448 0 0 0 10.009 8.446l-22.07 68.817c-20.763-9.022-39.072-23.964-52.069-43.964-.049-.068-.087-.142-.125-.216l64.255-33.083zm32.593 15.689c4.342.246 8.71-.081 13.054-1.05l33.029 64.284c-22.268 8.796-45.937 10.345-68.153 5.583l22.07-68.817zm34.153-11.913a46.482 46.482 0 0 0 8.445-10.02l68.758 22.052c-9.057 20.851-24.077 39.235-44.175 52.252l-33.028-64.284zm112.08-482.874l75.914 147.753 21.098-10.862-75.914-147.754 21.098-10.863 97.604 189.969-21.098 10.863-10.845-21.108-21.098 10.863 10.845 21.108-84.394 43.452-97.604-189.97 84.394-43.451zM51.919 642.505c-77.737-151.3-17.938-337.753 133.295-415.619l189.885-97.767 75.915 147.754-189.886 97.767c-69.804 35.94-97.401 121.989-61.521 191.824a143.53 143.53 0 0 0 7.297 12.592c54.395 89.462 169.701 123.154 264.221 74.488 112.254-57.796 126.95-194.296 76.31-292.858-11.712-22.797-24.462-42.99-37.946-60.537l34.158-17.587c22.766 22.683 41.983 48.609 56.83 77.505 77.736 151.3 17.938 337.753-133.296 415.619-151.233 77.866-337.526 18.119-415.262-133.181zm383.437 172.549c14.431-5.042 28.693-11.063 42.67-18.26 6.52-3.357 12.819-6.96 19.016-10.685 2.318 14.768-4.721 30.016-18.72 37.224-14.811 7.626-32.461 3.728-42.966-8.279z" fill="#F9F9F9"/></svg>