<svg width="292" height="293" viewBox="0 0 292 293" fill="none" xmlns="http://www.w3.org/2000/svg"><path d="M150.31 272.074c56.284-7.963 101.243-51.596 111.218-107.212 11.736-1.323 20.925-11.194 20.93-23.272.005-12.074-9.171-21.933-20.896-23.254-.864-4.861-2.076-9.645-3.486-14.378l33.808-.015.044-103.517-75.285.033-.004 9.41-84.696.037C59.297 9.938.169 69.067.138 141.713.112 204.731 44.57 257.505 103.771 270.377c.865 12.181 10.944 21.856 23.348 21.851 11.815-.006 21.53-8.795 23.191-20.154zm122.737-130.48c-.003 6.375-4.282 11.718-10.099 13.466.454-4.428.686-8.917.688-13.462.002-4.527-.302-9.02-.751-13.485 5.852 1.719 10.165 7.077 10.162 13.481zm-49.63-37.621c1.686 8.516 2.585 17.954 2.581 28.23-.017 39.318-26.435 80.002-70.614 80.022-19.447.008-37.074-7.889-49.844-20.649a56.026 56.026 0 0 0 26.324 6.543c31.135-.014 56.474-25.353 56.487-56.488.009-19.626-10.063-36.928-25.299-47.043l53.551-.023-.004 9.411 6.818-.003zm-53.889 42.371l9.171-.004c-.945 9.449-4.704 18.08-10.414 25.056l-20.248-20.248a18.835 18.835 0 0 0 2.002-4.795l10.078-.005.004-9.41-10.078.004a18.43 18.43 0 0 0-1.998-4.794l20.265-20.265c5.704 6.971 9.456 15.599 10.393 25.046l-9.171.004-.004 9.411zm-28.134-20.846a18.768 18.768 0 0 0-4.794-1.998l.012-28.66c9.448.937 18.076 4.683 25.047 10.392l-20.265 20.266zm-14.204-1.994a18.433 18.433 0 0 0-4.796 2.002l-20.248-20.248c6.976-5.71 15.607-9.469 25.056-10.414l-.012 28.66zm-11.452 8.658a18.842 18.842 0 0 0-2.002 4.796l-28.66.012c.945-9.448 4.704-18.08 10.414-25.055l20.248 20.247zm16.153.083c5.19-.003 9.409 4.216 9.407 9.406-.002 5.19-4.225 9.413-9.415 9.415-5.19.002-9.408-4.217-9.406-9.407.002-5.19 4.224-9.412 9.414-9.414zm-18.159 14.123a18.43 18.43 0 0 0 1.998 4.794l-20.265 20.266c-5.686-6.948-9.432-15.538-10.388-24.948-.005-.033-.005-.066-.005-.099l28.66-.013zm8.649 11.445a18.81 18.81 0 0 0 4.793 1.997l-.012 28.66c-9.448-.936-18.075-4.683-25.046-10.392l20.265-20.265zm14.204 1.993a18.433 18.433 0 0 0 4.796-2.002l20.248 20.248c-6.976 5.711-15.607 9.469-25.056 10.414l.012-28.66zM263.692 9.849l-.028 65.874 9.411-.004.027-65.874 9.411-.004-.036 84.695-9.41.004.004-9.41-9.411.004-.004 9.41-37.642.017.035-84.696 37.643-.016zM9.549 141.709C9.577 74.253 64.483 19.346 131.94 19.317l84.696-.037-.028 65.874-84.696.037c-31.135.014-56.474 25.354-56.487 56.489a56.865 56.865 0 0 0 .289 5.764c2.956 41.415 37.508 74.21 79.667 74.191 50.07-.021 80.01-45.493 80.028-89.436.005-10.163-.829-19.597-2.402-28.23l15.236-.007c3.915 12.128 5.989 24.757 5.984 37.64-.029 67.455-54.935 122.362-122.39 122.392-67.456.029-122.315-54.83-122.287-122.285zm103.923 130.395c6.004.84 12.125 1.303 18.36 1.3 2.908-.001 5.783-.129 8.644-.319-1.861 5.629-7.109 9.729-13.353 9.732-6.607.003-12.124-4.573-13.651-10.713z" fill="#E0E0E0"/></svg>