<svg id="Шар_1" xmlns="http://www.w3.org/2000/svg" viewBox="0 0 512 512"><style>.st0{fill:#f4f4f4}</style><path class="st0" d="M256 0C114.6 0 0 114.6 0 256s114.6 256 256 256 256-114.6 256-256S397.4 0 256 0zm116.9 199.6c.1 2.5.2 5.1.2 7.6 0 77.6-59.1 167.2-167.2 167.2-33.2 0-64.1-9.7-90.1-26.4 4.6.5 9.3.8 14 .8 27.5 0 52.9-9.4 73-25.2-25.7-.5-47.4-17.5-54.9-40.8 3.6.7 7.3 1.1 11 1.1 5.4 0 10.6-.7 15.5-2.1-26.9-5.4-47.1-29.1-47.1-57.6v-.8c7.9 4.4 17 7.1 26.6 7.3-15.8-10.5-26.1-28.5-26.1-48.9 0-10.8 2.9-20.9 8-29.5 29 35.6 72.3 58.9 121.1 61.4-1-4.3-1.5-8.8-1.5-13.4 0-32.4 26.3-58.8 58.8-58.8 16.9 0 32.2 7.1 42.9 18.6 13.4-2.6 26-7.5 37.3-14.3-4.4 13.7-13.7 25.2-25.8 32.5 11.9-1.4 23.2-4.6 33.7-9.3-8 12-17.9 22.3-29.4 30.6z"/></svg>