<svg width="28" height="23" viewBox="0 0 28 23" fill="none" xmlns="http://www.w3.org/2000/svg"><path d="M28 3.072c-1.761.081-1.723.074-1.922.091l1.043-2.99s-3.256 1.203-4.081 1.418C20.872-.365 17.65-.451 15.346.97c-1.887 1.164-2.9 3.163-2.562 5.499-3.67-.512-6.764-2.259-9.207-5.203l-.772-.93-.578 1.063c-.73 1.344-.971 2.881-.682 4.328.119.593.32 1.16.6 1.69l-.662-.258-.079 1.11c-.08 1.13.295 2.447 1.002 3.525.2.304.455.637.78.966l-.342-.053.418 1.274c.549 1.673 1.69 2.967 3.17 3.687-1.478.63-2.673 1.03-4.636 1.68L0 19.94l1.659.91c.633.347 2.868 1.506 5.076 1.854 4.91.773 10.436.143 14.157-3.22 3.134-2.833 4.163-6.862 3.949-11.056-.032-.634.14-1.24.488-1.705A584.68 584.68 0 0 0 28 3.072zm-3.983 2.664c-.576.772-.865 1.758-.813 2.776.215 4.23-.931 7.51-3.409 9.75-2.894 2.616-7.561 3.642-12.806 2.817-.95-.15-1.931-.484-2.744-.819 1.646-.568 2.917-1.075 4.97-2.05l2.866-1.36-3.164-.204c-1.516-.098-2.777-.835-3.553-2.031a5.623 5.623 0 0 0 1.204-.202l3.018-.843-3.043-.748c-1.478-.364-2.321-1.251-2.768-1.932a4.667 4.667 0 0 1-.6-1.329c.305.082.661.14 1.235.198l2.816.28-2.231-1.747c-1.608-1.259-2.253-3.15-1.78-4.967 5.017 5.223 10.909 4.83 11.502 4.968-.13-1.272-.134-1.275-.168-1.396-.76-2.695.905-4.063 1.655-4.526 1.568-.967 4.057-1.113 5.781.48.372.345.876.48 1.347.362.423-.105.77-.217 1.11-.338l-.707 2.027.903.001c-.17.23-.375.504-.621.833z" fill="#fff"/></svg>