<svg width="25" height="25" viewBox="0 0 25 25" fill="none" xmlns="http://www.w3.org/2000/svg"><g clip-path="url(#a)" fill="#8E24AA"><path d="M24.12 14.471c.746-6.278-.359-10.242-2.35-12.034v-.001C18.557-.626 7.7-1.08 3.855 2.573 2.127 4.36 1.52 6.981 1.452 10.227c-.067 3.247-.146 9.33 5.522 10.98h.005l-.005 2.52s-.039 1.02.613 1.225c.746.242 1.084-.232 3.404-3.003 3.879.337 6.858-.434 7.197-.547.783-.262 5.215-.849 5.932-6.931zm-12.747 5.705s-2.455 3.062-3.219 3.856c-.25.259-.524.235-.52-.278 0-.336.02-4.183.02-4.183-4.806-1.377-4.523-6.556-4.47-9.266.051-2.71.547-4.93 2.01-6.425C8.568.717 18.085 1.424 20.51 3.703c2.965 2.628 1.91 10.053 1.916 10.306-.61 5.078-4.201 5.4-4.861 5.62-.283.093-2.903.767-6.192.547z"/><path d="M12.731 4.475c-.4 0-.4.625 0 .63 3.112.024 5.674 2.193 5.702 6.171 0 .42.615.415.61-.005h-.001c-.034-4.287-2.832-6.772-6.31-6.796z"/><path d="M16.824 10.615c-.01.415.604.435.61.015.05-2.364-1.407-4.31-4.145-4.516-.401-.029-.443.601-.043.63 2.375.18 3.626 1.802 3.578 3.871zm-.656 2.691c-.515-.298-1.039-.112-1.255.18l-.454.587c-.23.297-.66.258-.66.258-3.14-.83-3.98-4.116-3.98-4.116s-.038-.444.25-.683l.566-.469c.284-.225.463-.766.174-1.299-.77-1.392-1.288-1.873-1.552-2.241-.277-.347-.694-.425-1.127-.191h-.01c-.9.527-1.887 1.514-1.571 2.53.538 1.07 1.528 4.483 4.682 7.063 1.482 1.22 3.828 2.47 4.824 2.758l.01.015c.98.327 1.935-.698 2.444-1.626v-.008c.226-.449.151-.874-.179-1.152-.585-.57-1.468-1.2-2.162-1.606z"/><path d="M13.718 8.44c1 .06 1.486.582 1.538 1.656.019.42.628.39.61-.029-.067-1.402-.798-2.183-2.115-2.256-.401-.024-.438.606-.033.63z"/></g><defs><clipPath id="a"><path fill="#fff" d="M0 0h25v25H0z"/></clipPath></defs></svg>