<svg width="25" height="25" viewBox="0 0 25 25" fill="none" xmlns="http://www.w3.org/2000/svg"><g clip-path="url(#a)" fill="#7AD06D"><path d="M11.894.014C5.29.33.08 5.827.1 12.437a12.344 12.344 0 0 0 1.35 5.593L.134 24.42a.483.483 0 0 0 .584.567l6.261-1.484a12.34 12.34 0 0 0 5.328 1.294c6.748.103 12.376-5.256 12.586-12.002.225-7.23-5.743-13.126-13-12.78zm7.47 19.25a9.645 9.645 0 0 1-6.864 2.843 9.605 9.605 0 0 1-4.32-1.012l-.873-.434-3.839.91.808-3.924-.43-.84a9.6 9.6 0 0 1-1.054-4.408 9.645 9.645 0 0 1 2.843-6.865A9.726 9.726 0 0 1 12.5 2.69a9.645 9.645 0 0 1 6.865 2.844 9.645 9.645 0 0 1 2.844 6.865 9.726 9.726 0 0 1-2.844 6.865z"/><path d="M18.518 15.088l-2.402-.69a.895.895 0 0 0-.886.234l-.587.598a.875.875 0 0 1-.951.2c-1.136-.459-3.526-2.584-4.137-3.647a.875.875 0 0 1 .07-.97l.512-.663a.895.895 0 0 0 .11-.91l-1.01-2.285a.896.896 0 0 0-1.398-.32c-.67.567-1.466 1.429-1.563 2.383-.17 1.683.552 3.804 3.28 6.351 3.153 2.942 5.678 3.331 7.322 2.933.932-.226 1.677-1.131 2.147-1.872a.896.896 0 0 0-.507-1.342z"/></g><defs><clipPath id="a"><path fill="#fff" d="M0 0h25v25H0z"/></clipPath></defs></svg>